# Blender v2.92.0 OBJ File: 'laser_canon.blend'
# www.blender.org
mtllib beam_laser_canon.mtl
o Cylinder_Cylinder.010
v 0.000000 0.600000 -0.000000
v 0.000000 0.600000 22.000000
v 0.519615 0.300000 -0.000000
v 0.519615 0.300000 22.000000
v 0.519615 -0.300000 -0.000000
v 0.519615 -0.300000 22.000000
v -0.000000 -0.600000 -0.000000
v -0.000000 -0.600000 22.000000
v -0.519615 -0.300000 -0.000000
v -0.519615 -0.300000 22.000000
v -0.519615 0.300000 -0.000000
v -0.519615 0.300000 22.000000
v 0.000000 0.600000 0.679925
v 0.519615 0.300000 0.679925
v 0.519615 -0.300000 0.679925
v -0.000000 -0.600000 0.679926
v -0.519615 -0.300000 0.679925
v -0.519615 0.300000 0.679925
v -0.515644 0.302293 0.007643
v -0.515644 0.302293 0.672282
v -0.003972 0.597707 0.672282
v -0.003972 0.597707 0.007643
v -0.519615 -0.295414 0.007643
v -0.519615 -0.295414 0.672282
v -0.519615 0.295414 0.672282
v -0.519615 0.295414 0.007643
v -0.003972 -0.597707 0.007643
v -0.003972 -0.597707 0.672282
v -0.515644 -0.302293 0.672282
v -0.515644 -0.302293 0.007643
v 0.515644 -0.302293 0.007643
v 0.515644 -0.302293 0.672282
v 0.003972 -0.597707 0.672282
v 0.003972 -0.597707 0.007643
v 0.519615 0.295414 0.007643
v 0.519615 0.295414 0.672282
v 0.519615 -0.295414 0.672282
v 0.519615 -0.295414 0.007643
v 0.003972 0.597707 0.007643
v 0.003972 0.597707 0.672282
v 0.515644 0.302293 0.672282
v 0.515644 0.302293 0.007643
v -0.655635 1.030096 1.226976
v -0.655635 1.030096 1.108299
v -0.564272 1.082844 1.108299
v -0.564272 1.082844 1.226976
v -1.219907 -0.052748 1.226976
v -1.219907 -0.052748 1.108299
v -1.219907 0.052748 1.108299
v -1.219907 0.052748 1.226976
v -0.564272 -1.082845 1.226976
v -0.564272 -1.082845 1.108299
v -0.655635 -1.030096 1.108299
v -0.655635 -1.030096 1.226976
v 0.655635 -1.030096 1.226976
v 0.655635 -1.030096 1.108299
v 0.564272 -1.082845 1.108299
v 0.564272 -1.082845 1.226976
v 1.219906 0.052748 1.226976
v 1.219906 0.052748 1.108299
v 1.219906 -0.052749 1.108299
v 1.219906 -0.052749 1.226976
v 0.564272 1.082844 1.108299
v 0.564272 1.082844 1.226976
v 0.655635 1.030096 1.108299
v 0.655635 1.030096 1.226976
v 0.000006 0.000000 23.941626
v 0.000006 0.000000 23.941626
v 0.000006 0.000000 23.941626
v 0.000006 0.000000 23.941626
v 0.000006 0.000000 23.941626
v 0.000006 0.000000 23.941626
vt 1.000000 0.515453
vt 1.000000 1.000000
vt 0.833333 1.000000
vt 0.833333 0.515453
vt 0.666667 1.000000
vt 0.666667 0.515453
vt 0.500000 1.000000
vt 0.500000 0.515453
vt 0.333333 1.000000
vt 0.333333 0.515453
vt 0.833333 1.000000
vt 0.666667 1.000000
vt 0.166667 1.000000
vt 0.166667 0.515453
vt -0.000000 1.000000
vt -0.000000 0.515453
vt 0.750000 0.490000
vt 0.957846 0.370000
vt 0.957846 0.130000
vt 0.750000 0.010000
vt 0.542154 0.130000
vt 0.542154 0.370000
vt 0.498726 0.500174
vt 0.498726 0.515279
vt 0.498726 0.515279
vt 0.498726 0.500174
vt 0.001274 0.500174
vt 0.165393 0.500174
vt 0.165393 0.500174
vt 0.001274 0.500174
vt 0.332059 0.500174
vt 0.332059 0.515279
vt 0.332059 0.515279
vt 0.332059 0.500174
vt 0.165393 0.515279
vt 0.165393 0.515279
vt 0.834607 0.515279
vt 0.834607 0.500174
vt 0.834607 0.500174
vt 0.834607 0.515279
vt 0.667940 0.515279
vt 0.667941 0.500174
vt 0.667941 0.500174
vt 0.667940 0.515279
vt 0.166667 0.500000
vt 0.001274 0.515279
vt -0.000000 0.500000
vt 0.333333 0.500000
vt 0.167940 0.515279
vt 0.167940 0.500174
vt 0.500000 0.500000
vt 0.334607 0.515279
vt 0.334607 0.500174
vt 0.666667 0.500000
vt 0.665393 0.515279
vt 0.665393 0.500174
vt 0.501274 0.515279
vt 0.501274 0.500174
vt 0.833333 0.500000
vt 0.832060 0.515279
vt 0.832060 0.500174
vt 1.000000 0.500000
vt 0.998726 0.515279
vt 0.998726 0.500174
vt 0.001274 0.515279
vt 0.167940 0.515279
vt 0.167940 0.500174
vt 0.334607 0.515279
vt 0.334607 0.500174
vt 0.665393 0.500174
vt 0.665393 0.515279
vt 0.501274 0.515279
vt 0.501274 0.500174
vt 0.832060 0.500174
vt 0.832060 0.515279
vt 0.998726 0.500174
vt 0.998726 0.515279
vt 0.457846 0.370000
vt 0.250000 0.490000
vt 0.042154 0.370000
vt 0.042154 0.130000
vt 0.250000 0.010000
vt 0.457846 0.130000
vt 0.333333 1.000000
vt 0.166667 1.000000
vt 1.000000 1.000000
vt 0.500000 1.000000
vt -0.000000 1.000000
vn 0.5000 0.8660 -0.0000
vn 1.0000 -0.0000 0.0000
vn 0.5000 -0.8660 0.0000
vn -0.5000 -0.8660 0.0000
vn 0.9660 -0.0000 0.2585
vn -1.0000 0.0000 0.0000
vn -0.5000 0.8660 -0.0000
vn 0.0000 -0.0000 -1.0000
vn 0.6546 -0.7560 0.0000
vn -0.4219 0.7307 -0.5368
vn -0.3274 -0.9449 -0.0000
vn -0.9820 -0.1889 0.0000
vn 0.9820 -0.1889 0.0000
vn 0.3274 -0.9449 0.0000
vn -0.8437 0.0000 -0.5368
vn 0.9820 0.1889 0.0000
vn 0.3105 -0.5377 0.7839
vn -0.4219 -0.7307 -0.5368
vn 0.3274 0.9449 -0.0000
vn 0.6209 0.0000 0.7839
vn 0.4219 -0.7307 -0.5368
vn -0.6546 0.7560 0.0000
vn 0.6546 0.7560 0.0000
vn 0.3105 0.5377 0.7839
vn 0.8437 0.0000 -0.5368
vn -0.3274 0.9449 0.0000
vn -0.3105 0.5377 0.7839
vn 0.4219 0.7307 -0.5368
vn -0.9820 0.1889 0.0000
vn -0.6209 0.0000 0.7839
vn -0.6546 -0.7560 0.0000
vn -0.3105 -0.5377 0.7839
vn -0.9660 0.0000 0.2585
vn 0.4830 0.8366 0.2585
vn 0.4830 -0.8366 0.2585
vn -0.4830 0.8366 0.2585
vn -0.4830 -0.8366 0.2585
usemtl Material.001
s off
f 13/1/1 2/2/1 4/3/1 14/4/1
f 14/4/2 4/3/2 6/5/2 15/6/2
f 15/6/3 6/5/3 8/7/3 16/8/3
f 16/8/4 8/7/4 10/9/4 17/10/4
f 6/5/5 4/3/5 67/11/5 69/12/5
f 17/10/6 10/9/6 12/13/6 18/14/6
f 18/14/7 12/13/7 2/15/7 13/16/7
f 1/17/8 3/18/8 5/19/8 7/20/8 9/21/8 11/22/8
f 27/23/9 28/24/9 51/25/9 52/26/9
f 22/27/10 19/28/10 44/29/10 45/30/10
f 23/31/11 24/32/11 47/33/11 48/34/11
f 19/28/12 20/35/12 43/36/12 44/29/12
f 41/37/13 42/38/13 65/39/13 66/40/13
f 37/41/14 38/42/14 61/43/14 62/44/14
f 11/45/7 18/14/7 20/35/7 19/28/7
f 18/14/7 13/16/7 21/46/7 20/35/7
f 13/16/7 1/47/7 22/27/7 21/46/7
f 1/47/7 11/45/7 19/28/7 22/27/7
f 9/48/6 17/10/6 24/32/6 23/31/6
f 17/10/6 18/14/6 25/49/6 24/32/6
f 18/14/6 11/45/6 26/50/6 25/49/6
f 11/45/6 9/48/6 23/31/6 26/50/6
f 7/51/4 16/8/4 28/24/4 27/23/4
f 16/8/4 17/10/4 29/52/4 28/24/4
f 17/10/4 9/48/4 30/53/4 29/52/4
f 9/48/4 7/51/4 27/23/4 30/53/4
f 5/54/3 15/6/3 32/55/3 31/56/3
f 15/6/3 16/8/3 33/57/3 32/55/3
f 16/8/3 7/51/3 34/58/3 33/57/3
f 7/51/3 5/54/3 31/56/3 34/58/3
f 3/59/2 14/4/2 36/60/2 35/61/2
f 14/4/2 15/6/2 37/41/2 36/60/2
f 15/6/2 5/54/2 38/42/2 37/41/2
f 5/54/2 3/59/2 35/61/2 38/42/2
f 1/62/1 13/1/1 40/63/1 39/64/1
f 13/1/1 14/4/1 41/37/1 40/63/1
f 14/4/1 3/59/1 42/38/1 41/37/1
f 3/59/1 1/62/1 39/64/1 42/38/1
f 44/29/7 43/36/7 46/65/7 45/30/7
f 48/34/6 47/33/6 50/66/6 49/67/6
f 52/26/4 51/25/4 54/68/4 53/69/4
f 56/70/3 55/71/3 58/72/3 57/73/3
f 60/74/2 59/75/2 62/44/2 61/43/2
f 63/76/1 64/77/1 66/40/1 65/39/1
f 26/50/15 23/31/15 48/34/15 49/67/15
f 31/56/16 32/55/16 55/71/16 56/70/16
f 20/35/17 21/46/17 46/65/17 43/36/17
f 30/53/18 27/23/18 52/26/18 53/69/18
f 35/61/19 36/60/19 59/75/19 60/74/19
f 24/32/20 25/49/20 50/66/20 47/33/20
f 34/58/21 31/56/21 56/70/21 57/73/21
f 39/64/22 40/63/22 64/77/22 63/76/22
f 21/46/23 22/27/23 45/30/23 46/65/23
f 28/24/24 29/52/24 54/68/24 51/25/24
f 38/42/25 35/61/25 60/74/25 61/43/25
f 25/49/26 26/50/26 49/67/26 50/66/26
f 32/55/27 33/57/27 58/72/27 55/71/27
f 42/38/28 39/64/28 63/76/28 65/39/28
f 29/52/29 30/53/29 53/69/29 54/68/29
f 36/60/30 37/41/30 62/44/30 59/75/30
f 33/57/31 34/58/31 57/73/31 58/72/31
f 40/63/32 41/37/32 66/40/32 64/77/32
f 67/78/8 68/79/8 72/80/8 71/81/8 70/82/8 69/83/8
f 12/13/33 10/9/33 71/84/33 72/85/33
f 4/3/34 2/2/34 68/86/34 67/11/34
f 8/7/35 6/5/35 69/12/35 70/87/35
f 2/15/36 12/13/36 72/85/36 68/88/36
f 10/9/37 8/7/37 70/87/37 71/84/37
