# Blender v2.92.0 OBJ File: 'coin_wired.blend'
# www.blender.org
mtllib coin_wired.mtl
o Cylinder
v 0.000000 1.000000 -0.200000
v 0.000000 1.000000 0.200000
v 0.500000 0.866025 -0.200000
v 0.500000 0.866025 0.200000
v 0.866025 0.500000 -0.200000
v 0.866025 0.500000 0.200000
v 1.000000 -0.000000 -0.200000
v 1.000000 -0.000000 0.200000
v 0.866025 -0.500000 -0.200000
v 0.866025 -0.500000 0.200000
v 0.500000 -0.866025 -0.200000
v 0.500000 -0.866025 0.200000
v 0.000000 -1.000000 -0.200000
v 0.000000 -1.000000 0.200000
v -0.500000 -0.866026 -0.200000
v -0.500000 -0.866026 0.200000
v -0.866025 -0.500000 -0.200000
v -0.866025 -0.500000 0.200000
v -1.000000 -0.000000 -0.200000
v -1.000000 -0.000000 0.200000
v -0.866026 0.499999 -0.200000
v -0.866026 0.500000 0.200000
v -0.500001 0.866025 -0.200000
v -0.500001 0.866025 0.200000
vt 1.000000 0.500000
vt 1.000000 1.000000
vt 0.916667 1.000000
vt 0.916667 0.500000
vt 0.833333 1.000000
vt 0.833333 0.500000
vt 0.750000 1.000000
vt 0.750000 0.500000
vt 0.666667 1.000000
vt 0.666667 0.500000
vt 0.583333 1.000000
vt 0.583333 0.500000
vt 0.500000 1.000000
vt 0.500000 0.500000
vt 0.416667 1.000000
vt 0.416667 0.500000
vt 0.333333 1.000000
vt 0.333333 0.500000
vt 0.250000 1.000000
vt 0.250000 0.500000
vt 0.166667 1.000000
vt 0.166667 0.500000
vt 0.370000 0.457846
vt 0.250000 0.490000
vt 0.130000 0.457846
vt 0.042154 0.370000
vt 0.010000 0.250000
vt 0.042154 0.130000
vt 0.130000 0.042154
vt 0.250000 0.010000
vt 0.370000 0.042154
vt 0.457846 0.130000
vt 0.490000 0.250000
vt 0.457846 0.370000
vt 0.083333 1.000000
vt 0.083333 0.500000
vt 0.000000 1.000000
vt 0.000000 0.500000
vt 0.750000 0.490000
vt 0.870000 0.457846
vt 0.957846 0.370000
vt 0.990000 0.250000
vt 0.957846 0.130000
vt 0.870000 0.042154
vt 0.750000 0.010000
vt 0.630000 0.042154
vt 0.542154 0.130000
vt 0.510000 0.250000
vt 0.542154 0.370000
vt 0.630000 0.457846
vn 0.2588 0.9659 0.0000
vn 0.7071 0.7071 0.0000
vn 0.9659 0.2588 -0.0000
vn 0.9659 -0.2588 0.0000
vn 0.7071 -0.7071 0.0000
vn 0.2588 -0.9659 0.0000
vn -0.2588 -0.9659 0.0000
vn -0.7071 -0.7071 0.0000
vn -0.9659 -0.2588 0.0000
vn -0.9659 0.2588 -0.0000
vn 0.0000 0.0000 1.0000
vn -0.7071 0.7071 -0.0000
vn -0.2588 0.9659 0.0000
vn 0.0000 -0.0000 -1.0000
usemtl Material
s off
f 1/1/1 2/2/1 4/3/1 3/4/1
f 3/4/2 4/3/2 6/5/2 5/6/2
f 5/6/3 6/5/3 8/7/3 7/8/3
f 7/8/4 8/7/4 10/9/4 9/10/4
f 9/10/5 10/9/5 12/11/5 11/12/5
f 11/12/6 12/11/6 14/13/6 13/14/6
f 13/14/7 14/13/7 16/15/7 15/16/7
f 15/16/8 16/15/8 18/17/8 17/18/8
f 17/18/9 18/17/9 20/19/9 19/20/9
f 19/20/10 20/19/10 22/21/10 21/22/10
f 4/23/11 2/24/11 24/25/11 22/26/11 20/27/11 18/28/11 16/29/11 14/30/11 12/31/11 10/32/11 8/33/11 6/34/11
f 21/22/12 22/21/12 24/35/12 23/36/12
f 23/36/13 24/35/13 2/37/13 1/38/13
f 1/39/14 3/40/14 5/41/14 7/42/14 9/43/14 11/44/14 13/45/14 15/46/14 17/47/14 19/48/14 21/49/14 23/50/14
o Cylinder.001
v 0.000000 0.973500 -0.177137
v 0.000000 1.026500 -0.222863
v 0.000000 0.973500 0.177137
v 0.000000 1.026500 0.222863
v 0.486751 0.843075 -0.177137
v 0.513249 0.888976 -0.222863
v 0.486751 0.843075 0.177137
v 0.513249 0.888976 0.222863
v 0.843075 0.486751 -0.177137
v 0.888976 0.513249 -0.222863
v 0.843075 0.486751 0.177137
v 0.888976 0.513249 0.222863
v 0.973500 -0.000000 -0.177137
v 1.026500 -0.000000 -0.222863
v 0.973500 -0.000000 0.177137
v 1.026500 -0.000000 0.222863
v 0.843075 -0.486751 -0.177137
v 0.888976 -0.513249 -0.222863
v 0.843075 -0.486751 0.177137
v 0.888976 -0.513249 0.222863
v 0.486751 -0.843075 -0.177137
v 0.513249 -0.888976 -0.222863
v 0.486751 -0.843075 0.177137
v 0.513249 -0.888976 0.222863
v 0.000000 -0.973500 -0.177137
v 0.000000 -1.026500 -0.222863
v 0.000000 -0.973500 0.177137
v 0.000000 -1.026500 0.222863
v -0.486750 -0.843075 -0.177137
v -0.513249 -0.888976 -0.222863
v -0.486750 -0.843075 0.177137
v -0.513249 -0.888976 0.222863
v -0.843075 -0.486751 -0.177137
v -0.888975 -0.513250 -0.222863
v -0.843075 -0.486751 0.177137
v -0.888975 -0.513250 0.222863
v -0.973500 -0.000000 -0.177137
v -1.026500 -0.000000 -0.222863
v -0.973500 -0.000000 0.177137
v -1.026500 -0.000000 0.222863
v -0.843075 0.486750 -0.177137
v -0.888976 0.513249 -0.222863
v -0.843075 0.486750 0.177137
v -0.888976 0.513249 0.222863
v -0.486751 0.843075 -0.177137
v -0.513250 0.888975 -0.222863
v -0.486751 0.843075 0.177137
v -0.513250 0.888975 0.222863
v 0.033807 0.990941 -0.165000
v 0.033807 0.990941 0.165000
v 0.466193 0.875084 0.165000
v 0.466193 0.875084 -0.165000
v 0.524749 0.841277 -0.165000
v 0.524749 0.841277 0.165000
v 0.841277 0.524749 0.165000
v 0.841277 0.524749 -0.165000
v 0.875084 0.466193 -0.165000
v 0.875084 0.466193 0.165000
v 0.990941 0.033807 0.165000
v 0.990941 0.033807 -0.165000
v 0.990941 -0.033807 -0.165000
v 0.990941 -0.033807 0.165000
v 0.875084 -0.466193 0.165000
v 0.875084 -0.466193 -0.165000
v 0.841277 -0.524749 -0.165000
v 0.841277 -0.524749 0.165000
v 0.524749 -0.841277 0.165000
v 0.524749 -0.841277 -0.165000
v 0.466193 -0.875084 -0.165000
v 0.466193 -0.875084 0.165000
v 0.033808 -0.990941 0.165000
v 0.033808 -0.990941 -0.165000
v -0.033807 -0.990941 -0.165000
v -0.033807 -0.990941 0.165000
v -0.466192 -0.875084 0.165000
v -0.466192 -0.875084 -0.165000
v -0.524749 -0.841277 -0.165000
v -0.524749 -0.841277 0.165000
v -0.841276 -0.524749 0.165000
v -0.841276 -0.524749 -0.165000
v -0.875084 -0.466193 -0.165000
v -0.875084 -0.466193 0.165000
v -0.990941 -0.033808 0.165000
v -0.990941 -0.033808 -0.165000
v -0.990941 0.033807 -0.165000
v -0.990941 0.033807 0.165000
v -0.875084 0.466192 0.165000
v -0.875084 0.466192 -0.165000
v 0.481883 0.834645 0.200000
v 0.000000 0.963765 0.200000
v -0.481883 0.834645 0.200000
v -0.834646 0.481882 0.200000
v -0.963765 -0.000000 0.200000
v -0.834645 -0.481883 0.200000
v -0.481882 -0.834645 0.200000
v 0.000000 -0.963765 0.200000
v 0.481883 -0.834645 0.200000
v 0.834645 -0.481883 0.200000
v 0.963765 -0.000000 0.200000
v 0.834645 0.481883 0.200000
v -0.841277 0.524748 -0.165000
v -0.841277 0.524748 0.165000
v -0.524749 0.841276 0.165000
v -0.524749 0.841276 -0.165000
v -0.466193 0.875084 -0.165000
v -0.466193 0.875084 0.165000
v -0.033807 0.990941 0.165000
v -0.033807 0.990941 -0.165000
v 0.000000 0.963765 -0.200000
v 0.481883 0.834645 -0.200000
v 0.834645 0.481883 -0.200000
v 0.963765 -0.000000 -0.200000
v 0.834645 -0.481883 -0.200000
v 0.481883 -0.834645 -0.200000
v 0.000000 -0.963765 -0.200000
v -0.481882 -0.834645 -0.200000
v -0.834645 -0.481883 -0.200000
v -0.963765 -0.000000 -0.200000
v -0.834646 0.481882 -0.200000
v -0.481883 0.834645 -0.200000
vt 1.000000 0.500000
vt 1.000000 1.000000
vt 1.000000 1.000000
vt 1.000000 0.500000
vt 1.000000 0.500000
vt 1.000000 1.000000
vt 0.916667 1.000000
vt 0.916667 1.000000
vt 0.916667 1.000000
vt 0.916667 0.500000
vt 0.916667 0.500000
vt 0.916667 0.500000
vt 0.916667 0.500000
vt 0.916667 1.000000
vt 0.833333 1.000000
vt 0.833333 1.000000
vt 0.833333 1.000000
vt 0.833333 0.500000
vt 0.833333 0.500000
vt 0.833333 0.500000
vt 0.833333 0.500000
vt 0.833333 1.000000
vt 0.750000 1.000000
vt 0.750000 1.000000
vt 0.750000 1.000000
vt 0.750000 0.500000
vt 0.750000 0.500000
vt 0.750000 0.500000
vt 0.750000 0.500000
vt 0.750000 1.000000
vt 0.666667 1.000000
vt 0.666667 1.000000
vt 0.666667 1.000000
vt 0.666667 0.500000
vt 0.666667 0.500000
vt 0.666667 0.500000
vt 0.666667 0.500000
vt 0.666667 1.000000
vt 0.583333 1.000000
vt 0.583333 1.000000
vt 0.583333 1.000000
vt 0.583333 0.500000
vt 0.583333 0.500000
vt 0.583333 0.500000
vt 0.583333 0.500000
vt 0.583333 1.000000
vt 0.500000 1.000000
vt 0.500000 1.000000
vt 0.500000 1.000000
vt 0.500000 0.500000
vt 0.500000 0.500000
vt 0.500000 0.500000
vt 0.500000 0.500000
vt 0.500000 1.000000
vt 0.416667 1.000000
vt 0.416667 1.000000
vt 0.416667 1.000000
vt 0.416667 0.500000
vt 0.416667 0.500000
vt 0.416667 0.500000
vt 0.416667 0.500000
vt 0.416667 1.000000
vt 0.333333 1.000000
vt 0.333333 1.000000
vt 0.333333 1.000000
vt 0.333333 0.500000
vt 0.333333 0.500000
vt 0.333333 0.500000
vt 0.333333 0.500000
vt 0.333333 1.000000
vt 0.250000 1.000000
vt 0.250000 1.000000
vt 0.250000 1.000000
vt 0.250000 0.500000
vt 0.250000 0.500000
vt 0.250000 0.500000
vt 0.250000 0.500000
vt 0.250000 1.000000
vt 0.166667 1.000000
vt 0.166667 1.000000
vt 0.166667 1.000000
vt 0.166667 0.500000
vt 0.166667 0.500000
vt 0.166667 0.500000
vt 0.370000 0.457846
vt 0.250000 0.490000
vt 0.250000 0.490000
vt 0.370000 0.457846
vt 0.370000 0.457846
vt 0.250000 0.490000
vt 0.130000 0.457846
vt 0.130000 0.457846
vt 0.130000 0.457846
vt 0.042154 0.370000
vt 0.042154 0.370000
vt 0.042154 0.370000
vt 0.010000 0.250000
vt 0.010000 0.250000
vt 0.010000 0.250000
vt 0.042154 0.130000
vt 0.042154 0.130000
vt 0.042154 0.130000
vt 0.130000 0.042154
vt 0.130000 0.042154
vt 0.130000 0.042154
vt 0.250000 0.010000
vt 0.250000 0.010000
vt 0.250000 0.010000
vt 0.370000 0.042154
vt 0.370000 0.042154
vt 0.370000 0.042154
vt 0.457846 0.130000
vt 0.457846 0.130000
vt 0.457846 0.130000
vt 0.490000 0.250000
vt 0.490000 0.250000
vt 0.490000 0.250000
vt 0.457846 0.370000
vt 0.457846 0.370000
vt 0.457846 0.370000
vt 0.166667 0.500000
vt 0.166667 1.000000
vt 0.083333 1.000000
vt 0.083333 1.000000
vt 0.083333 1.000000
vt 0.083333 0.500000
vt 0.083333 0.500000
vt 0.083333 0.500000
vt 0.083333 0.500000
vt 0.083333 1.000000
vt 0.000000 1.000000
vt 0.000000 1.000000
vt 0.000000 1.000000
vt 0.000000 0.500000
vt 0.000000 0.500000
vt 0.000000 0.500000
vt 0.750000 0.490000
vt 0.870000 0.457846
vt 0.870000 0.457846
vt 0.750000 0.490000
vt 0.750000 0.490000
vt 0.870000 0.457846
vt 0.957846 0.370000
vt 0.957846 0.370000
vt 0.957846 0.370000
vt 0.990000 0.250000
vt 0.990000 0.250000
vt 0.990000 0.250000
vt 0.957846 0.130000
vt 0.957846 0.130000
vt 0.957846 0.130000
vt 0.870000 0.042154
vt 0.870000 0.042154
vt 0.870000 0.042154
vt 0.750000 0.010000
vt 0.750000 0.010000
vt 0.750000 0.010000
vt 0.630000 0.042154
vt 0.630000 0.042154
vt 0.630000 0.042154
vt 0.542154 0.130000
vt 0.542154 0.130000
vt 0.542154 0.130000
vt 0.510000 0.250000
vt 0.510000 0.250000
vt 0.510000 0.250000
vt 0.542154 0.370000
vt 0.542154 0.370000
vt 0.542154 0.370000
vt 0.630000 0.457846
vt 0.630000 0.457846
vt 0.630000 0.457846
vn 0.4585 -0.8887 0.0000
vn 0.7247 0.6890 0.0000
vn -0.1109 -0.4138 -0.9036
vn 0.2367 0.8834 -0.4046
vn -0.8414 -0.5404 0.0000
vn -0.2831 0.9591 0.0000
vn -0.1109 -0.4138 0.9036
vn 0.2367 0.8834 0.4046
vn -0.0473 -0.9989 0.0000
vn 0.9721 0.2344 0.0000
vn -0.3030 -0.3030 -0.9036
vn 0.6467 0.6467 -0.4046
vn -0.9989 -0.0473 0.0000
vn 0.2344 0.9721 0.0000
vn -0.3030 -0.3030 0.9036
vn 0.6467 0.6467 0.4046
vn -0.5404 -0.8414 0.0000
vn 0.9591 -0.2831 0.0000
vn -0.4138 -0.1109 -0.9036
vn 0.8834 0.2367 -0.4046
vn -0.8887 0.4585 -0.0000
vn 0.6890 0.7247 -0.0000
vn -0.4138 -0.1109 0.9036
vn 0.8834 0.2367 0.4046
vn -0.8887 -0.4585 0.0000
vn 0.6890 -0.7247 0.0000
vn -0.4138 0.1109 -0.9036
vn 0.8834 -0.2367 -0.4046
vn -0.5404 0.8414 0.0000
vn 0.9591 0.2831 0.0000
vn -0.4138 0.1109 0.9036
vn 0.8834 -0.2367 0.4046
vn -0.9989 0.0473 0.0000
vn 0.2344 -0.9721 0.0000
vn -0.3030 0.3030 -0.9036
vn 0.6467 -0.6467 -0.4046
vn -0.0473 0.9989 0.0000
vn 0.9721 -0.2344 0.0000
vn -0.3030 0.3030 0.9036
vn 0.6467 -0.6467 0.4046
vn -0.8414 0.5404 0.0000
vn -0.2831 -0.9591 0.0000
vn -0.1109 0.4138 -0.9036
vn 0.2367 -0.8834 -0.4046
vn 0.4585 0.8887 0.0000
vn 0.7247 -0.6890 0.0000
vn -0.1109 0.4138 0.9036
vn 0.2367 -0.8834 0.4046
vn -0.4585 0.8887 0.0000
vn -0.7247 -0.6890 0.0000
vn 0.1109 0.4138 -0.9036
vn -0.2367 -0.8834 -0.4046
vn 0.8414 0.5404 0.0000
vn 0.2831 -0.9591 0.0000
vn 0.1109 0.4138 0.9036
vn -0.2367 -0.8834 0.4046
vn 0.0473 0.9989 0.0000
vn -0.9721 -0.2344 0.0000
vn 0.3030 0.3030 -0.9036
vn -0.6467 -0.6467 -0.4046
vn 0.9989 0.0473 0.0000
vn -0.2344 -0.9721 0.0000
vn 0.3030 0.3030 0.9036
vn -0.6467 -0.6467 0.4046
vn 0.5404 0.8414 0.0000
vn -0.9591 0.2831 0.0000
vn 0.4138 0.1109 -0.9036
vn -0.8834 -0.2367 -0.4046
vn 0.8887 -0.4585 0.0000
vn -0.6890 -0.7247 0.0000
vn 0.4138 0.1109 0.9036
vn -0.8834 -0.2367 0.4046
vn 0.8887 0.4585 -0.0000
vn -0.6890 0.7247 -0.0000
vn 0.4138 -0.1109 -0.9036
vn -0.8834 0.2367 -0.4046
vn 0.5404 -0.8414 0.0000
vn -0.9591 -0.2831 0.0000
vn 0.4138 -0.1109 0.9036
vn -0.8834 0.2367 0.4046
vn -0.2394 -0.8933 -0.3804
vn -0.0914 -0.3410 0.9356
vn 0.2394 -0.8933 -0.3804
vn 0.0914 -0.3410 0.9356
vn 0.6540 -0.6540 -0.3804
vn 0.2496 -0.2496 0.9356
vn 0.8933 -0.2394 -0.3804
vn 0.3410 -0.0914 0.9356
vn 0.8933 0.2394 -0.3804
vn 0.3410 0.0914 0.9356
vn 0.6540 0.6540 -0.3804
vn 0.2496 0.2496 0.9356
vn 0.2394 0.8933 -0.3804
vn 0.0914 0.3410 0.9356
vn -0.2394 0.8933 -0.3804
vn -0.0914 0.3410 0.9356
vn -0.6540 0.6540 -0.3804
vn -0.2496 0.2496 0.9356
vn -0.8933 0.2394 -0.3804
vn -0.3410 0.0914 0.9356
vn -0.8933 -0.2394 -0.3804
vn -0.3410 -0.0914 0.9356
vn -0.6540 -0.6540 -0.3804
vn -0.2496 -0.2496 0.9356
vn 0.9989 -0.0473 0.0000
vn -0.2344 0.9721 0.0000
vn 0.3030 -0.3030 -0.9036
vn -0.6467 0.6467 -0.4046
vn 0.0473 -0.9989 0.0000
vn -0.9721 0.2344 0.0000
vn 0.3030 -0.3030 0.9036
vn -0.6467 0.6467 0.4046
vn 0.8414 -0.5404 0.0000
vn 0.2831 0.9591 0.0000
vn 0.1109 -0.4138 -0.9036
vn -0.2367 0.8834 -0.4046
vn -0.4585 -0.8887 0.0000
vn -0.7247 0.6890 0.0000
vn 0.1109 -0.4138 0.9036
vn -0.2367 0.8834 0.4046
vn -0.2394 -0.8933 0.3804
vn -0.0914 -0.3410 -0.9356
vn -0.6540 -0.6540 0.3804
vn -0.2496 -0.2496 -0.9356
vn -0.8933 -0.2394 0.3804
vn -0.3410 -0.0914 -0.9356
vn -0.8933 0.2394 0.3804
vn -0.3410 0.0914 -0.9356
vn -0.6540 0.6540 0.3804
vn -0.2496 0.2496 -0.9356
vn -0.2394 0.8933 0.3804
vn -0.0914 0.3410 -0.9356
vn 0.2394 0.8933 0.3804
vn 0.0914 0.3410 -0.9356
vn 0.6540 0.6540 0.3804
vn 0.2496 0.2496 -0.9356
vn 0.8933 0.2394 0.3804
vn 0.3410 0.0914 -0.9356
vn 0.8933 -0.2394 0.3804
vn 0.3410 -0.0914 -0.9356
vn 0.6540 -0.6540 0.3804
vn 0.2496 -0.2496 -0.9356
vn 0.2394 -0.8933 0.3804
vn 0.0914 -0.3410 -0.9356
usemtl Material.001
s off
f 73/51/15 74/52/15 27/53/15 25/54/15
f 74/52/16 73/51/16 26/55/16 28/56/16
f 74/52/17 75/57/17 31/58/17 27/53/17
f 75/57/18 74/52/18 28/56/18 32/59/18
f 75/57/19 76/60/19 29/61/19 31/58/19
f 76/60/20 75/57/20 32/59/20 30/62/20
f 76/60/21 73/51/21 25/54/21 29/61/21
f 73/51/22 76/60/22 30/62/22 26/55/22
f 77/63/23 78/64/23 31/58/23 29/61/23
f 78/64/24 77/63/24 30/62/24 32/59/24
f 78/64/25 79/65/25 35/66/25 31/58/25
f 79/65/26 78/64/26 32/59/26 36/67/26
f 79/65/27 80/68/27 33/69/27 35/66/27
f 80/68/28 79/65/28 36/67/28 34/70/28
f 80/68/29 77/63/29 29/61/29 33/69/29
f 77/63/30 80/68/30 34/70/30 30/62/30
f 81/71/31 82/72/31 35/66/31 33/69/31
f 82/72/32 81/71/32 34/70/32 36/67/32
f 82/72/33 83/73/33 39/74/33 35/66/33
f 83/73/34 82/72/34 36/67/34 40/75/34
f 83/73/35 84/76/35 37/77/35 39/74/35
f 84/76/36 83/73/36 40/75/36 38/78/36
f 84/76/37 81/71/37 33/69/37 37/77/37
f 81/71/38 84/76/38 38/78/38 34/70/38
f 85/79/39 86/80/39 39/74/39 37/77/39
f 86/80/40 85/79/40 38/78/40 40/75/40
f 86/80/41 87/81/41 43/82/41 39/74/41
f 87/81/42 86/80/42 40/75/42 44/83/42
f 87/81/43 88/84/43 41/85/43 43/82/43
f 88/84/44 87/81/44 44/83/44 42/86/44
f 88/84/45 85/79/45 37/77/45 41/85/45
f 85/79/46 88/84/46 42/86/46 38/78/46
f 89/87/47 90/88/47 43/82/47 41/85/47
f 90/88/48 89/87/48 42/86/48 44/83/48
f 90/88/49 91/89/49 47/90/49 43/82/49
f 91/89/50 90/88/50 44/83/50 48/91/50
f 91/89/51 92/92/51 45/93/51 47/90/51
f 92/92/52 91/89/52 48/91/52 46/94/52
f 92/92/53 89/87/53 41/85/53 45/93/53
f 89/87/54 92/92/54 46/94/54 42/86/54
f 93/95/55 94/96/55 47/90/55 45/93/55
f 94/96/56 93/95/56 46/94/56 48/91/56
f 94/96/57 95/97/57 51/98/57 47/90/57
f 95/97/58 94/96/58 48/91/58 52/99/58
f 95/97/59 96/100/59 49/101/59 51/98/59
f 96/100/60 95/97/60 52/99/60 50/102/60
f 96/100/61 93/95/61 45/93/61 49/101/61
f 93/95/62 96/100/62 50/102/62 46/94/62
f 97/103/63 98/104/63 51/98/63 49/101/63
f 98/104/64 97/103/64 50/102/64 52/99/64
f 98/104/65 99/105/65 55/106/65 51/98/65
f 99/105/66 98/104/66 52/99/66 56/107/66
f 99/105/67 100/108/67 53/109/67 55/106/67
f 100/108/68 99/105/68 56/107/68 54/110/68
f 100/108/69 97/103/69 49/101/69 53/109/69
f 97/103/70 100/108/70 54/110/70 50/102/70
f 101/111/71 102/112/71 55/106/71 53/109/71
f 102/112/72 101/111/72 54/110/72 56/107/72
f 102/112/73 103/113/73 59/114/73 55/106/73
f 103/113/74 102/112/74 56/107/74 60/115/74
f 103/113/75 104/116/75 57/117/75 59/114/75
f 104/116/76 103/113/76 60/115/76 58/118/76
f 104/116/77 101/111/77 53/109/77 57/117/77
f 101/111/78 104/116/78 58/118/78 54/110/78
f 105/119/79 106/120/79 59/114/79 57/117/79
f 106/120/80 105/119/80 58/118/80 60/115/80
f 106/120/81 107/121/81 63/122/81 59/114/81
f 107/121/82 106/120/82 60/115/82 64/123/82
f 107/121/83 108/124/83 61/125/83 63/122/83
f 108/124/84 107/121/84 64/123/84 62/126/84
f 108/124/85 105/119/85 57/117/85 61/125/85
f 105/119/86 108/124/86 62/126/86 58/118/86
f 109/127/87 110/128/87 63/122/87 61/125/87
f 110/128/88 109/127/88 62/126/88 64/123/88
f 110/128/89 111/129/89 67/130/89 63/122/89
f 111/129/90 110/128/90 64/123/90 68/131/90
f 111/129/91 112/132/91 65/133/91 67/130/91
f 112/132/92 111/129/92 68/131/92 66/134/92
f 112/132/93 109/127/93 61/125/93 65/133/93
f 109/127/94 112/132/94 66/134/94 62/126/94
f 113/135/95 114/136/95 27/137/95 31/138/95
f 114/136/96 113/135/96 32/139/96 28/140/96
f 114/136/97 115/141/97 71/142/97 27/137/97
f 115/141/98 114/136/98 28/140/98 72/143/98
f 115/141/99 116/144/99 67/145/99 71/142/99
f 116/144/100 115/141/100 72/143/100 68/146/100
f 116/144/101 117/147/101 63/148/101 67/145/101
f 117/147/102 116/144/102 68/146/102 64/149/102
f 117/147/103 118/150/103 59/151/103 63/148/103
f 118/150/104 117/147/104 64/149/104 60/152/104
f 118/150/105 119/153/105 55/154/105 59/151/105
f 119/153/106 118/150/106 60/152/106 56/155/106
f 119/153/107 120/156/107 51/157/107 55/154/107
f 120/156/108 119/153/108 56/155/108 52/158/108
f 120/156/109 121/159/109 47/160/109 51/157/109
f 121/159/110 120/156/110 52/158/110 48/161/110
f 121/159/111 122/162/111 43/163/111 47/160/111
f 122/162/112 121/159/112 48/161/112 44/164/112
f 122/162/113 123/165/113 39/166/113 43/163/113
f 123/165/114 122/162/114 44/164/114 40/167/114
f 123/165/115 124/168/115 35/169/115 39/166/115
f 124/168/116 123/165/116 40/167/116 36/170/116
f 124/168/117 113/135/117 31/138/117 35/169/117
f 113/135/118 124/168/118 36/170/118 32/139/118
f 125/171/119 126/172/119 67/130/119 65/133/119
f 126/172/120 125/171/120 66/134/120 68/131/120
f 126/172/121 127/173/121 71/174/121 67/130/121
f 127/173/122 126/172/122 68/131/122 72/175/122
f 127/173/123 128/176/123 69/177/123 71/174/123
f 128/176/124 127/173/124 72/175/124 70/178/124
f 128/176/125 125/171/125 65/133/125 69/177/125
f 125/171/126 128/176/126 70/178/126 66/134/126
f 129/179/127 130/180/127 71/174/127 69/177/127
f 130/180/128 129/179/128 70/178/128 72/175/128
f 130/180/129 131/181/129 27/182/129 71/174/129
f 131/181/130 130/180/130 72/175/130 28/183/130
f 131/181/131 132/184/131 25/185/131 27/182/131
f 132/184/132 131/181/132 28/183/132 26/186/132
f 132/184/133 129/179/133 69/177/133 25/185/133
f 129/179/134 132/184/134 26/186/134 70/178/134
f 133/187/135 134/188/135 29/189/135 25/190/135
f 134/188/136 133/187/136 26/191/136 30/192/136
f 134/188/137 135/193/137 33/194/137 29/189/137
f 135/193/138 134/188/138 30/192/138 34/195/138
f 135/193/139 136/196/139 37/197/139 33/194/139
f 136/196/140 135/193/140 34/195/140 38/198/140
f 136/196/141 137/199/141 41/200/141 37/197/141
f 137/199/142 136/196/142 38/198/142 42/201/142
f 137/199/143 138/202/143 45/203/143 41/200/143
f 138/202/144 137/199/144 42/201/144 46/204/144
f 138/202/145 139/205/145 49/206/145 45/203/145
f 139/205/146 138/202/146 46/204/146 50/207/146
f 139/205/147 140/208/147 53/209/147 49/206/147
f 140/208/148 139/205/148 50/207/148 54/210/148
f 140/208/149 141/211/149 57/212/149 53/209/149
f 141/211/150 140/208/150 54/210/150 58/213/150
f 141/211/151 142/214/151 61/215/151 57/212/151
f 142/214/152 141/211/152 58/213/152 62/216/152
f 142/214/153 143/217/153 65/218/153 61/215/153
f 143/217/154 142/214/154 62/216/154 66/219/154
f 143/217/155 144/220/155 69/221/155 65/218/155
f 144/220/156 143/217/156 66/219/156 70/222/156
f 144/220/157 133/187/157 25/190/157 69/221/157
f 133/187/158 144/220/158 70/222/158 26/191/158
