# Blender v2.92.0 OBJ File: 'turret.blend'
# www.blender.org
mtllib turret_body_wire.mtl
o Cylinder
v 0.019720 2.549147 1.498590
v 0.019720 2.793769 1.698769
v 0.019720 5.948010 1.498590
v 0.019720 6.140819 1.749057
v -1.452030 2.549147 0.648874
v -1.625382 2.793769 0.748959
v -1.452030 5.948010 0.648874
v -1.668947 6.140819 0.774108
v -1.452031 2.549147 -1.050557
v -1.625382 2.793769 -1.150642
v -1.452031 5.948010 -1.050557
v -1.668947 6.140819 -1.175791
v 0.019720 2.549147 -1.900273
v 0.019720 2.793769 -2.100452
v 0.019720 5.948010 -1.900273
v 0.019720 6.140819 -2.150740
v 1.491471 2.549147 -1.050557
v 1.664822 2.793769 -1.150642
v 1.491471 5.948010 -1.050557
v 1.708387 6.140819 -1.175791
v 1.491471 2.549147 0.648874
v 1.664823 2.793769 0.748958
v 1.491471 5.948010 0.648874
v 1.708387 6.140819 0.774108
v 0.019721 2.225765 3.569823
v 0.019721 2.479156 3.758783
v -3.245771 2.225765 1.684491
v -3.409418 2.479156 1.778971
v -3.245771 2.225765 -2.086174
v -3.409419 2.479156 -2.180654
v 0.019720 2.225765 -3.971506
v 0.019720 2.479156 -4.160467
v 3.285212 2.225765 -2.086174
v 3.448858 2.479156 -2.180654
v 3.285212 2.225765 1.684490
v 3.448859 2.479156 1.778970
v 0.019721 -0.751386 5.773658
v 0.019721 -0.866703 6.067960
v -5.154348 -0.751386 2.786409
v -5.409214 -0.866703 2.933560
v -5.154349 -0.751386 -3.188091
v -5.409215 -0.866703 -3.335242
v 0.019720 -0.751386 -6.175342
v 0.019720 -0.866703 -6.469644
v 5.193789 -0.751386 -3.188092
v 5.448655 -0.866703 -3.335243
v 5.193789 -0.751386 2.786407
v 5.448656 -0.866703 2.933558
v -0.117152 2.829505 1.519656
v -0.117152 5.886367 1.544800
v -1.423616 5.886367 0.790515
v -1.401833 2.829505 0.777940
v -1.538706 2.829505 0.540870
v -1.560489 5.886367 0.553444
v -1.560489 5.886367 -0.955127
v -1.538706 2.829505 -0.942552
v -1.401834 2.829505 -1.179623
v -1.423616 5.886367 -1.192197
v -0.117153 5.886367 -1.946483
v -0.117153 2.829505 -1.921339
v 0.156593 2.829505 -1.921339
v 0.156593 5.886367 -1.946483
v 1.463056 5.886367 -1.192198
v 1.441274 2.829505 -1.179623
v -1.402441 6.044414 0.620243
v 0.019720 6.044414 1.441326
v 1.441882 6.044414 0.620242
v 1.441882 6.044414 -1.021926
v 0.019720 6.044414 -1.843009
v -1.402442 6.044414 -1.021925
v 1.578146 2.829505 -0.942553
v 1.599929 5.886367 -0.955127
v 1.599929 5.886367 0.553443
v 1.578147 2.829505 0.540869
v 1.441274 2.829505 0.777940
v 1.463056 5.886367 0.790514
v 0.156593 5.886367 1.544800
v 0.156593 2.829505 1.519656
v 0.177144 2.643417 -2.089075
v 1.576262 2.643417 -1.281289
v 3.054071 2.380502 -2.134502
v 0.177144 2.380502 -3.795496
v 3.308969 2.219407 1.863747
v 0.163084 2.219407 3.680025
v 0.163084 -0.675991 5.739546
v 5.092562 -0.675991 2.893507
v -1.694246 2.643417 0.606940
v -1.694246 2.643417 -1.008623
v -3.172055 2.380502 -1.861835
v -3.172055 2.380502 1.460153
v 1.733686 2.643417 -1.008623
v 1.733686 2.643417 0.606939
v 3.211496 2.380502 1.460152
v 3.211495 2.380502 -1.861836
v -0.137704 2.643417 1.687392
v -1.536822 2.643417 0.879606
v -3.014631 2.380502 1.732819
v -0.137703 2.380502 3.393812
v -1.536822 2.643417 -1.281289
v -0.137704 2.643417 -2.089075
v -0.137704 2.380502 -3.795496
v -3.014632 2.380502 -2.134501
v 1.576262 2.643417 0.879606
v 0.177144 2.643417 1.687392
v 0.177145 2.380502 3.393812
v 3.054072 2.380502 1.732818
v 0.019721 -0.809045 5.738312
v -5.123734 -0.809045 2.768736
v -5.123735 -0.809045 -3.170418
v 0.019720 -0.809045 -6.139996
v 5.163175 -0.809045 -3.170419
v 5.163176 -0.809045 2.768734
v 0.163083 2.219407 -4.081708
v 3.308969 2.219407 -2.265431
v 5.092561 -0.675991 -3.295192
v 0.163083 -0.675991 -6.141229
v -3.412892 2.219407 1.615436
v -3.412892 2.219407 -2.017118
v -5.196485 -0.675991 -3.046878
v -5.196484 -0.675991 2.645196
v 3.452332 2.219407 -2.017119
v 3.452333 2.219407 1.615435
v 5.235925 -0.675991 2.645195
v 5.235924 -0.675991 -3.046879
v -3.269529 2.219407 -2.265431
v -0.123644 2.219407 -4.081708
v -0.123644 -0.675991 -6.141229
v -5.053122 -0.675991 -3.295191
v -0.123643 2.219407 3.680025
v -3.269529 2.219407 1.863749
v -5.053121 -0.675991 2.893509
v -0.123643 -0.675991 5.739545
vt 1.000000 0.500000
vt 1.000000 1.000000
vt 1.000000 1.000000
vt 1.000000 0.500000
vt 1.000000 0.500000
vt 1.000000 1.000000
vt 0.833333 1.000000
vt 0.833333 1.000000
vt 0.833333 1.000000
vt 0.833333 0.500000
vt 0.833333 0.500000
vt 0.833333 0.500000
vt 0.833333 0.500000
vt 0.833333 1.000000
vt 0.666667 1.000000
vt 0.666667 1.000000
vt 0.666667 1.000000
vt 0.666667 0.500000
vt 0.666667 0.500000
vt 0.666667 0.500000
vt 0.666667 0.500000
vt 0.666667 1.000000
vt 0.500000 1.000000
vt 0.500000 1.000000
vt 0.500000 1.000000
vt 0.500000 0.500000
vt 0.500000 0.500000
vt 0.500000 0.500000
vt 0.500000 0.500000
vt 0.500000 1.000000
vt 0.333333 1.000000
vt 0.333333 1.000000
vt 0.333333 1.000000
vt 0.333333 0.500000
vt 0.333333 0.500000
vt 0.333333 0.500000
vt 0.457846 0.370000
vt 0.250000 0.490000
vt 0.250000 0.490000
vt 0.457846 0.370000
vt 0.457846 0.370000
vt 0.250000 0.490000
vt 0.042154 0.370000
vt 0.042154 0.370000
vt 0.042154 0.370000
vt 0.042154 0.130000
vt 0.042154 0.130000
vt 0.042154 0.130000
vt 0.250000 0.010000
vt 0.250000 0.010000
vt 0.250000 0.010000
vt 0.457846 0.130000
vt 0.457846 0.130000
vt 0.457846 0.130000
vt 0.333333 0.500000
vt 0.333333 1.000000
vt 0.166667 1.000000
vt 0.166667 1.000000
vt 0.166667 1.000000
vt 0.166667 0.500000
vt 0.166667 0.500000
vt 0.166667 0.500000
vt 0.166667 0.500000
vt 0.166667 1.000000
vt -0.000000 1.000000
vt -0.000000 1.000000
vt -0.000000 1.000000
vt -0.000000 0.500000
vt -0.000000 0.500000
vt -0.000000 0.500000
vt 0.500000 0.500000
vt 0.333333 0.500000
vt 0.333333 0.500000
vt 0.333333 0.500000
vt 0.333333 0.500000
vt 0.500000 0.500000
vt 0.500000 0.500000
vt 0.500000 0.500000
vt 0.166667 0.500000
vt -0.000000 0.500000
vt -0.000000 0.500000
vt 0.166667 0.500000
vt 0.166667 0.500000
vt -0.000000 0.500000
vt -0.000000 0.500000
vt -0.000000 0.500000
vt -0.000000 0.500000
vt 0.166667 0.500000
vt 0.166667 0.500000
vt 0.166667 0.500000
vt 0.833333 0.500000
vt 0.666667 0.500000
vt 0.666667 0.500000
vt 0.666667 0.500000
vt 0.666667 0.500000
vt 0.833333 0.500000
vt 0.833333 0.500000
vt 0.833333 0.500000
vt 0.333333 0.500000
vt 0.166667 0.500000
vt 0.166667 0.500000
vt 0.333333 0.500000
vt 1.000000 0.500000
vt 0.833333 0.500000
vt 0.833333 0.500000
vt 1.000000 0.500000
vt 1.000000 0.500000
vt 1.000000 0.500000
vt 0.666667 0.500000
vt 0.500000 0.500000
vt 0.500000 0.500000
vt 0.666667 0.500000
vt 0.166667 0.500000
vt -0.000000 0.500000
vt -0.000000 0.500000
vt 0.166667 0.500000
vt 0.750000 0.490000
vt 0.957846 0.370000
vt 0.957846 0.370000
vt 0.750000 0.490000
vt 0.750000 0.490000
vt 0.957846 0.370000
vt 0.957846 0.130000
vt 0.957846 0.130000
vt 0.957846 0.130000
vt 0.750000 0.010000
vt 0.750000 0.010000
vt 0.750000 0.010000
vt 0.542154 0.130000
vt 0.542154 0.130000
vt 0.542154 0.130000
vt 0.542154 0.370000
vt 0.542154 0.370000
vt 0.542154 0.370000
vt 0.500000 0.500000
vt 0.333333 0.500000
vt 0.333333 0.500000
vt 0.333333 0.500000
vt 0.333333 0.500000
vt 0.500000 0.500000
vt 0.500000 0.500000
vt 0.500000 0.500000
vt 0.833333 0.500000
vt 0.666667 0.500000
vt 0.666667 0.500000
vt 0.666667 0.500000
vt 0.666667 0.500000
vt 0.833333 0.500000
vt 0.833333 0.500000
vt 0.833333 0.500000
vt 0.333333 0.500000
vt 0.166667 0.500000
vt 0.166667 0.500000
vt 0.333333 0.500000
vt 0.666667 0.500000
vt 0.500000 0.500000
vt 0.500000 0.500000
vt 0.666667 0.500000
vt 1.000000 0.500000
vt 0.833333 0.500000
vt 0.833333 0.500000
vt 1.000000 0.500000
vt 1.000000 0.500000
vt 1.000000 0.500000
vn -0.2358 0.0038 -0.9718
vn -0.8119 -0.0069 0.5837
vn 0.2471 -0.8694 -0.4279
vn -0.4600 -0.3921 0.7967
vn 0.9595 0.0038 -0.2817
vn -0.0995 -0.0069 0.9950
vn 0.4777 0.2954 -0.8274
vn -0.1906 0.9245 0.3301
vn 0.7237 0.0038 -0.6901
vn -0.9115 -0.0069 -0.4113
vn 0.4941 -0.8694 0.0000
vn -0.9199 -0.3921 0.0000
vn 0.7237 0.0038 0.6901
vn -0.9115 -0.0069 0.4113
vn 0.9554 0.2954 -0.0000
vn -0.3812 0.9245 0.0000
vn 0.9595 0.0038 0.2817
vn -0.0995 -0.0069 -0.9950
vn 0.2471 -0.8694 0.4279
vn -0.4600 -0.3921 -0.7967
vn -0.2358 0.0038 0.9718
vn -0.8119 -0.0069 -0.5837
vn 0.4777 0.2954 0.8274
vn -0.1906 0.9245 -0.3301
vn 0.2358 0.0038 0.9718
vn 0.8119 -0.0069 -0.5837
vn -0.2471 -0.8694 0.4279
vn 0.4600 -0.3921 -0.7967
vn -0.9595 0.0038 0.2817
vn 0.0995 -0.0069 -0.9950
vn -0.4777 0.2954 0.8274
vn 0.1906 0.9245 -0.3301
vn 0.4446 -0.4574 -0.7701
vn 0.1701 0.9404 -0.2946
vn -0.4446 -0.4574 -0.7701
vn -0.1701 0.9404 -0.2946
vn -0.8893 -0.4574 0.0000
vn -0.3402 0.9404 0.0000
vn -0.4446 -0.4574 0.7701
vn -0.1701 0.9404 0.2946
vn 0.4446 -0.4574 0.7701
vn 0.1701 0.9404 0.2946
vn 0.8893 -0.4574 -0.0000
vn 0.3402 0.9404 -0.0000
vn -0.7237 0.0038 0.6901
vn 0.9115 -0.0069 0.4113
vn -0.4941 -0.8694 -0.0000
vn 0.9199 -0.3921 -0.0000
vn -0.7237 0.0038 -0.6901
vn 0.9115 -0.0069 -0.4113
vn -0.9554 0.2954 0.0000
vn 0.3812 0.9245 -0.0000
vn -0.9595 0.0038 -0.2817
vn 0.0995 -0.0069 0.9950
vn -0.2471 -0.8694 -0.4279
vn 0.4600 -0.3921 0.7967
vn 0.2358 0.0038 -0.9718
vn 0.8119 -0.0069 0.5837
vn -0.4777 0.2954 -0.8274
vn 0.1906 0.9245 0.3301
vn 0.1813 -0.9319 -0.3141
vn 0.4546 0.4164 -0.7874
vn -0.4137 -0.7762 -0.4757
vn -0.2523 0.7120 -0.6553
vn -0.4514 -0.4301 0.7818
vn -0.1919 0.9234 0.3324
vn 0.6188 -0.7762 0.1205
vn 0.6936 0.7120 -0.1092
vn -0.0190 -0.9993 -0.0329
vn 0.5000 0.0134 0.8659
vn 0.3355 -0.5534 -0.7623
vn 0.7930 0.3494 0.4991
vn -0.4365 0.4879 -0.7560
vn 0.3338 0.7446 0.5781
vn -0.8280 -0.5534 -0.0906
vn 0.0358 0.3494 0.9363
vn -0.3627 -0.9319 -0.0000
vn -0.9092 0.4164 0.0000
vn -0.2051 -0.7762 0.5961
vn -0.4414 0.7120 0.5461
vn 0.9028 -0.4301 -0.0000
vn 0.3838 0.9234 -0.0000
vn -0.2051 -0.7762 -0.5961
vn -0.4414 0.7120 -0.5461
vn 0.3627 -0.9319 -0.0000
vn 0.9092 0.4164 -0.0000
vn 0.2051 -0.7762 -0.5961
vn 0.4414 0.7120 -0.5461
vn -0.9028 -0.4301 0.0000
vn -0.3838 0.9234 0.0000
vn 0.2051 -0.7762 0.5961
vn 0.4414 0.7120 0.5461
vn -0.1813 -0.9319 0.3141
vn -0.4546 0.4164 0.7874
vn 0.4137 -0.7762 0.4757
vn 0.2523 0.7120 0.6553
vn 0.4514 -0.4301 -0.7818
vn 0.1919 0.9234 -0.3324
vn -0.6188 -0.7762 -0.1205
vn -0.6936 0.7120 0.1092
vn -0.1813 -0.9319 -0.3141
vn -0.4546 0.4164 -0.7874
vn -0.6188 -0.7762 0.1205
vn -0.6936 0.7120 -0.1092
vn 0.4514 -0.4301 0.7818
vn 0.1919 0.9234 0.3324
vn 0.4137 -0.7762 -0.4757
vn 0.2523 0.7120 -0.6553
vn 0.1813 -0.9319 0.3141
vn 0.4546 0.4164 0.7874
vn 0.6188 -0.7762 -0.1205
vn 0.6936 0.7120 0.1092
vn -0.4514 -0.4301 -0.7818
vn -0.1919 0.9234 -0.3324
vn -0.4137 -0.7762 0.4757
vn -0.2523 0.7120 0.6553
vn 0.4416 0.4689 -0.7649
vn 0.0990 -0.9802 -0.1714
vn 0.8832 0.4690 -0.0000
vn 0.1980 -0.9802 -0.0000
vn 0.4416 0.4689 0.7649
vn 0.0990 -0.9802 0.1714
vn -0.4416 0.4689 0.7649
vn -0.0990 -0.9802 0.1714
vn -0.8832 0.4690 0.0000
vn -0.1980 -0.9802 0.0000
vn -0.4416 0.4689 -0.7649
vn -0.0990 -0.9802 -0.1714
vn -0.0190 -0.9993 0.0329
vn 0.5000 0.0134 -0.8659
vn -0.8280 -0.5534 0.0906
vn 0.0358 0.3494 -0.9363
vn -0.4365 0.4879 0.7560
vn 0.3338 0.7446 -0.5781
vn 0.3355 -0.5534 0.7623
vn 0.7930 0.3494 -0.4992
vn 0.0380 -0.9993 0.0000
vn -0.9999 0.0134 0.0000
vn 0.4924 -0.5534 0.6717
vn -0.8288 0.3494 0.4371
vn 0.8729 0.4879 -0.0000
vn -0.6675 0.7446 0.0000
vn 0.4924 -0.5534 -0.6717
vn -0.8288 0.3494 -0.4371
vn -0.0380 -0.9993 -0.0000
vn 0.9999 0.0134 -0.0000
vn -0.4924 -0.5534 -0.6717
vn 0.8288 0.3494 -0.4371
vn -0.8729 0.4879 0.0000
vn 0.6675 0.7446 -0.0000
vn -0.4924 -0.5534 0.6717
vn 0.8288 0.3494 0.4371
vn 0.0190 -0.9993 0.0329
vn -0.5000 0.0134 -0.8659
vn -0.3355 -0.5534 0.7623
vn -0.7930 0.3494 -0.4991
vn 0.4365 0.4879 0.7560
vn -0.3338 0.7446 -0.5781
vn 0.8280 -0.5534 0.0906
vn -0.0358 0.3494 -0.9363
vn 0.0190 -0.9993 -0.0329
vn -0.5000 0.0134 0.8659
vn 0.8280 -0.5534 -0.0906
vn -0.0358 0.3494 0.9363
vn 0.4365 0.4879 -0.7560
vn -0.3338 0.7446 0.5781
vn -0.3355 -0.5534 -0.7623
vn -0.7930 0.3494 0.4991
usemtl Material.001
s off
f 49/1/1 50/2/1 3/3/1 1/4/1
f 50/2/2 49/1/2 2/5/2 4/6/2
f 50/2/3 51/7/3 7/8/3 3/3/3
f 51/7/4 50/2/4 4/6/4 8/9/4
f 51/7/5 52/10/5 5/11/5 7/8/5
f 52/10/6 51/7/6 8/9/6 6/12/6
f 52/10/7 49/1/7 1/4/7 5/11/7
f 49/1/8 52/10/8 6/12/8 2/5/8
f 53/13/9 54/14/9 7/8/9 5/11/9
f 54/14/10 53/13/10 6/12/10 8/9/10
f 54/14/11 55/15/11 11/16/11 7/8/11
f 55/15/12 54/14/12 8/9/12 12/17/12
f 55/15/13 56/18/13 9/19/13 11/16/13
f 56/18/14 55/15/14 12/17/14 10/20/14
f 56/18/15 53/13/15 5/11/15 9/19/15
f 53/13/16 56/18/16 10/20/16 6/12/16
f 57/21/17 58/22/17 11/16/17 9/19/17
f 58/22/18 57/21/18 10/20/18 12/17/18
f 58/22/19 59/23/19 15/24/19 11/16/19
f 59/23/20 58/22/20 12/17/20 16/25/20
f 59/23/21 60/26/21 13/27/21 15/24/21
f 60/26/22 59/23/22 16/25/22 14/28/22
f 60/26/23 57/21/23 9/19/23 13/27/23
f 57/21/24 60/26/24 14/28/24 10/20/24
f 61/29/25 62/30/25 15/24/25 13/27/25
f 62/30/26 61/29/26 14/28/26 16/25/26
f 62/30/27 63/31/27 19/32/27 15/24/27
f 63/31/28 62/30/28 16/25/28 20/33/28
f 63/31/29 64/34/29 17/35/29 19/32/29
f 64/34/30 63/31/30 20/33/30 18/36/30
f 64/34/31 61/29/31 13/27/31 17/35/31
f 61/29/32 64/34/32 18/36/32 14/28/32
f 65/37/33 66/38/33 3/39/33 7/40/33
f 66/38/34 65/37/34 8/41/34 4/42/34
f 66/38/35 67/43/35 23/44/35 3/39/35
f 67/43/36 66/38/36 4/42/36 24/45/36
f 67/43/37 68/46/37 19/47/37 23/44/37
f 68/46/38 67/43/38 24/45/38 20/48/38
f 68/46/39 69/49/39 15/50/39 19/47/39
f 69/49/40 68/46/40 20/48/40 16/51/40
f 69/49/41 70/52/41 11/53/41 15/50/41
f 70/52/42 69/49/42 16/51/42 12/54/42
f 70/52/43 65/37/43 7/40/43 11/53/43
f 65/37/44 70/52/44 12/54/44 8/41/44
f 71/55/45 72/56/45 19/32/45 17/35/45
f 72/56/46 71/55/46 18/36/46 20/33/46
f 72/56/47 73/57/47 23/58/47 19/32/47
f 73/57/48 72/56/48 20/33/48 24/59/48
f 73/57/49 74/60/49 21/61/49 23/58/49
f 74/60/50 73/57/50 24/59/50 22/62/50
f 74/60/51 71/55/51 17/35/51 21/61/51
f 71/55/52 74/60/52 22/62/52 18/36/52
f 75/63/53 76/64/53 23/58/53 21/61/53
f 76/64/54 75/63/54 22/62/54 24/59/54
f 76/64/55 77/65/55 3/66/55 23/58/55
f 77/65/56 76/64/56 24/59/56 4/67/56
f 77/65/57 78/68/57 1/69/57 3/66/57
f 78/68/58 77/65/58 4/67/58 2/70/58
f 78/68/59 75/63/59 21/61/59 1/69/59
f 75/63/60 78/68/60 2/70/60 22/62/60
f 79/71/61 80/72/61 17/35/61 13/27/61
f 80/72/62 79/71/62 14/28/62 18/36/62
f 80/72/63 81/73/63 33/74/63 17/35/63
f 81/73/64 80/72/64 18/36/64 34/75/64
f 81/73/65 82/76/65 31/77/65 33/74/65
f 82/76/66 81/73/66 34/75/66 32/78/66
f 82/76/67 79/71/67 13/27/67 31/77/67
f 79/71/68 82/76/68 32/78/68 14/28/68
f 83/79/69 84/80/69 25/81/69 35/82/69
f 84/80/70 83/79/70 36/83/70 26/84/70
f 84/80/71 85/85/71 37/86/71 25/81/71
f 85/85/72 84/80/72 26/84/72 38/87/72
f 85/85/73 86/88/73 47/89/73 37/86/73
f 86/88/74 85/85/74 38/87/74 48/90/74
f 86/88/75 83/79/75 35/82/75 47/89/75
f 83/79/76 86/88/76 48/90/76 36/83/76
f 87/91/77 88/92/77 9/19/77 5/11/77
f 88/92/78 87/91/78 6/12/78 10/20/78
f 88/92/79 89/93/79 29/94/79 9/19/79
f 89/93/80 88/92/80 10/20/80 30/95/80
f 89/93/81 90/96/81 27/97/81 29/94/81
f 90/96/82 89/93/82 30/95/82 28/98/82
f 90/96/83 87/91/83 5/11/83 27/97/83
f 87/91/84 90/96/84 28/98/84 6/12/84
f 91/99/85 92/100/85 21/61/85 17/35/85
f 92/100/86 91/99/86 18/36/86 22/62/86
f 92/100/87 93/101/87 35/82/87 21/61/87
f 93/101/88 92/100/88 22/62/88 36/83/88
f 93/101/89 94/102/89 33/74/89 35/82/89
f 94/102/90 93/101/90 36/83/90 34/75/90
f 94/102/91 91/99/91 17/35/91 33/74/91
f 91/99/92 94/102/92 34/75/92 18/36/92
f 95/103/93 96/104/93 5/11/93 1/4/93
f 96/104/94 95/103/94 2/5/94 6/12/94
f 96/104/95 97/105/95 27/97/95 5/11/95
f 97/105/96 96/104/96 6/12/96 28/98/96
f 97/105/97 98/106/97 25/107/97 27/97/97
f 98/106/98 97/105/98 28/98/98 26/108/98
f 98/106/99 95/103/99 1/4/99 25/107/99
f 95/103/100 98/106/100 26/108/100 2/5/100
f 99/109/101 100/110/101 13/27/101 9/19/101
f 100/110/102 99/109/102 10/20/102 14/28/102
f 100/110/103 101/111/103 31/77/103 13/27/103
f 101/111/104 100/110/104 14/28/104 32/78/104
f 101/111/105 102/112/105 29/94/105 31/77/105
f 102/112/106 101/111/106 32/78/106 30/95/106
f 102/112/107 99/109/107 9/19/107 29/94/107
f 99/109/108 102/112/108 30/95/108 10/20/108
f 103/113/109 104/114/109 1/69/109 21/61/109
f 104/114/110 103/113/110 22/62/110 2/70/110
f 104/114/111 105/115/111 25/81/111 1/69/111
f 105/115/112 104/114/112 2/70/112 26/84/112
f 105/115/113 106/116/113 35/82/113 25/81/113
f 106/116/114 105/115/114 26/84/114 36/83/114
f 106/116/115 103/113/115 21/61/115 35/82/115
f 103/113/116 106/116/116 36/83/116 22/62/116
f 107/117/117 108/118/117 39/119/117 37/120/117
f 108/118/118 107/117/118 38/121/118 40/122/118
f 108/118/119 109/123/119 41/124/119 39/119/119
f 109/123/120 108/118/120 40/122/120 42/125/120
f 109/123/121 110/126/121 43/127/121 41/124/121
f 110/126/122 109/123/122 42/125/122 44/128/122
f 110/126/123 111/129/123 45/130/123 43/127/123
f 111/129/124 110/126/124 44/128/124 46/131/124
f 111/129/125 112/132/125 47/133/125 45/130/125
f 112/132/126 111/129/126 46/131/126 48/134/126
f 112/132/127 107/117/127 37/120/127 47/133/127
f 107/117/128 112/132/128 48/134/128 38/121/128
f 113/135/129 114/136/129 33/74/129 31/77/129
f 114/136/130 113/135/130 32/78/130 34/75/130
f 114/136/131 115/137/131 45/138/131 33/74/131
f 115/137/132 114/136/132 34/75/132 46/139/132
f 115/137/133 116/140/133 43/141/133 45/138/133
f 116/140/134 115/137/134 46/139/134 44/142/134
f 116/140/135 113/135/135 31/77/135 43/141/135
f 113/135/136 116/140/136 44/142/136 32/78/136
f 117/143/137 118/144/137 29/94/137 27/97/137
f 118/144/138 117/143/138 28/98/138 30/95/138
f 118/144/139 119/145/139 41/146/139 29/94/139
f 119/145/140 118/144/140 30/95/140 42/147/140
f 119/145/141 120/148/141 39/149/141 41/146/141
f 120/148/142 119/145/142 42/147/142 40/150/142
f 120/148/143 117/143/143 27/97/143 39/149/143
f 117/143/144 120/148/144 40/150/144 28/98/144
f 121/151/145 122/152/145 35/82/145 33/74/145
f 122/152/146 121/151/146 34/75/146 36/83/146
f 122/152/147 123/153/147 47/89/147 35/82/147
f 123/153/148 122/152/148 36/83/148 48/90/148
f 123/153/149 124/154/149 45/138/149 47/89/149
f 124/154/150 123/153/150 48/90/150 46/139/150
f 124/154/151 121/151/151 33/74/151 45/138/151
f 121/151/152 124/154/152 46/139/152 34/75/152
f 125/155/153 126/156/153 31/77/153 29/94/153
f 126/156/154 125/155/154 30/95/154 32/78/154
f 126/156/155 127/157/155 43/141/155 31/77/155
f 127/157/156 126/156/156 32/78/156 44/142/156
f 127/157/157 128/158/157 41/146/157 43/141/157
f 128/158/158 127/157/158 44/142/158 42/147/158
f 128/158/159 125/155/159 29/94/159 41/146/159
f 125/155/160 128/158/160 42/147/160 30/95/160
f 129/159/161 130/160/161 27/97/161 25/107/161
f 130/160/162 129/159/162 26/108/162 28/98/162
f 130/160/163 131/161/163 39/149/163 27/97/163
f 131/161/164 130/160/164 28/98/164 40/150/164
f 131/161/165 132/162/165 37/163/165 39/149/165
f 132/162/166 131/161/166 40/150/166 38/164/166
f 132/162/167 129/159/167 25/107/167 37/163/167
f 129/159/168 132/162/168 38/164/168 26/108/168
o Cylinder.002
v 0.019720 2.549147 1.498590
v 0.019720 5.948009 1.498590
v -1.452030 2.549147 0.648874
v -1.452030 5.948009 0.648874
v -1.452031 2.549147 -1.050557
v -1.452031 5.948009 -1.050557
v 0.019720 2.549147 -1.900273
v 0.019720 5.948009 -1.900273
v 1.491471 2.549147 -1.050557
v 1.491471 5.948009 -1.050557
v 1.491471 2.549147 0.648874
v 1.491471 5.948009 0.648874
v 0.019721 2.225765 3.569823
v -3.245771 2.225765 1.684491
v -3.245771 2.225765 -2.086174
v 0.019720 2.225765 -3.971506
v 3.285212 2.225765 -2.086174
v 3.285212 2.225765 1.684490
v 0.019721 -0.751386 5.773658
v -5.154348 -0.751386 2.786409
v -5.154349 -0.751386 -3.188091
v 0.019720 -0.751386 -6.175342
v 5.193789 -0.751386 -3.188092
v 5.193789 -0.751386 2.786407
vt 1.000000 0.500000
vt 1.000000 1.000000
vt 0.833333 1.000000
vt 0.833333 0.500000
vt 0.666667 1.000000
vt 0.666667 0.500000
vt 0.500000 1.000000
vt 0.500000 0.500000
vt 0.333333 1.000000
vt 0.333333 0.500000
vt 0.457846 0.370000
vt 0.250000 0.490000
vt 0.042154 0.370000
vt 0.042154 0.130000
vt 0.250000 0.010000
vt 0.457846 0.130000
vt 0.166667 1.000000
vt 0.166667 0.500000
vt -0.000000 1.000000
vt -0.000000 0.500000
vt 0.333333 0.500000
vt 0.500000 0.500000
vt 0.166667 0.500000
vt -0.000000 0.500000
vt -0.000000 0.500000
vt 0.166667 0.500000
vt 0.666667 0.500000
vt 0.833333 0.500000
vt 1.000000 0.500000
vt 0.750000 0.490000
vt 0.957846 0.370000
vt 0.957846 0.130000
vt 0.750000 0.010000
vt 0.542154 0.130000
vt 0.542154 0.370000
vt 0.333333 0.500000
vt 0.500000 0.500000
vt 0.666667 0.500000
vt 0.833333 0.500000
vt 1.000000 0.500000
vn -0.5000 0.0000 0.8660
vn -1.0000 0.0000 0.0000
vn -0.5000 0.0000 -0.8660
vn 0.5000 0.0000 -0.8660
vn 0.0000 1.0000 0.0000
vn 1.0000 0.0000 -0.0000
vn 0.5000 0.0000 0.8660
vn 0.0887 0.9841 -0.1537
vn 0.4209 0.5397 0.7291
vn -0.1774 0.9841 0.0000
vn 0.1774 0.9841 0.0000
vn -0.0887 0.9841 0.1537
vn -0.0887 0.9841 -0.1537
vn 0.0887 0.9841 0.1537
vn 0.0000 -1.0000 -0.0000
vn 0.4209 0.5397 -0.7291
vn -0.8419 0.5397 0.0000
vn 0.8419 0.5397 -0.0000
vn -0.4209 0.5397 -0.7291
vn -0.4209 0.5397 0.7291
usemtl Material
s off
f 133/165/169 134/166/169 136/167/169 135/168/169
f 135/168/170 136/167/170 138/169/170 137/170/170
f 137/170/171 138/169/171 140/171/171 139/172/171
f 139/172/172 140/171/172 142/173/172 141/174/172
f 136/175/173 134/176/173 144/177/173 142/178/173 140/179/173 138/180/173
f 141/174/174 142/173/174 144/181/174 143/182/174
f 143/182/175 144/181/175 134/183/175 133/184/175
f 139/172/176 141/174/176 149/185/176 148/186/176
f 150/187/177 145/188/177 151/189/177 156/190/177
f 135/168/178 137/170/178 147/191/178 146/192/178
f 141/174/179 143/182/179 150/187/179 149/185/179
f 133/165/180 135/168/180 146/192/180 145/193/180
f 137/170/181 139/172/181 148/186/181 147/191/181
f 143/182/182 133/184/182 145/188/182 150/187/182
f 151/194/183 152/195/183 153/196/183 154/197/183 155/198/183 156/199/183
f 148/186/184 149/185/184 155/200/184 154/201/184
f 146/192/185 147/191/185 153/202/185 152/203/185
f 149/185/186 150/187/186 156/190/186 155/200/186
f 147/191/187 148/186/187 154/201/187 153/202/187
f 145/193/188 146/192/188 152/203/188 151/204/188
