<?xml version="1.0" encoding="UTF-8" standalone="no"?>
<svg
   xmlns:dc="http://purl.org/dc/elements/1.1/"
   xmlns:cc="http://creativecommons.org/ns#"
   xmlns:rdf="http://www.w3.org/1999/02/22-rdf-syntax-ns#"
   xmlns:svg="http://www.w3.org/2000/svg"
   xmlns="http://www.w3.org/2000/svg"
   xmlns:xlink="http://www.w3.org/1999/xlink"
   xmlns:sodipodi="http://sodipodi.sourceforge.net/DTD/sodipodi-0.dtd"
   xmlns:inkscape="http://www.inkscape.org/namespaces/inkscape"
   width="210mm"
   height="297mm"
   viewBox="0 0 210 297"
   version="1.1"
   id="svg8"
   inkscape:version="1.0.2 (e86c870879, 2021-01-15)"
   sodipodi:docname="desenhando.svg">
  <defs
     id="defs2">
    <linearGradient
       inkscape:collect="always"
       id="linearGradient1020">
      <stop
         style="stop-color:#ffffff;stop-opacity:1;"
         offset="0"
         id="stop1016" />
      <stop
         style="stop-color:#ffffff;stop-opacity:0;"
         offset="1"
         id="stop1018" />
    </linearGradient>
    <linearGradient
       inkscape:collect="always"
       id="linearGradient954">
      <stop
         style="stop-color:#000000;stop-opacity:1;"
         offset="0"
         id="stop950" />
      <stop
         style="stop-color:#000000;stop-opacity:0;"
         offset="1"
         id="stop952" />
    </linearGradient>
    <linearGradient
       inkscape:collect="always"
       id="linearGradient916">
      <stop
         style="stop-color:#000000;stop-opacity:1;"
         offset="0"
         id="stop912" />
      <stop
         style="stop-color:#000000;stop-opacity:0;"
         offset="1"
         id="stop914" />
    </linearGradient>
    <linearGradient
       inkscape:collect="always"
       xlink:href="#linearGradient916"
       id="linearGradient918"
       x1="-40.624966"
       y1="267.33307"
       x2="-40.624966"
       y2="221.36272"
       gradientUnits="userSpaceOnUse" />
    <linearGradient
       inkscape:collect="always"
       xlink:href="#linearGradient954"
       id="linearGradient956"
       x1="-40.624966"
       y1="223.50089"
       x2="-40.624966"
       y2="265.19492"
       gradientUnits="userSpaceOnUse" />
    <linearGradient
       inkscape:collect="always"
       xlink:href="#linearGradient1020"
       id="linearGradient1022"
       x1="38.891407"
       y1="832.5517"
       x2="41.922844"
       y2="1038.1171"
       gradientUnits="userSpaceOnUse" />
  </defs>
  <sodipodi:namedview
     id="base"
     pagecolor="#ffffff"
     bordercolor="#666666"
     borderopacity="1.0"
     inkscape:pageopacity="0.0"
     inkscape:pageshadow="2"
     inkscape:zoom="2.8284272"
     inkscape:cx="45.15938"
     inkscape:cy="560.88073"
     inkscape:document-units="mm"
     inkscape:current-layer="layer1"
     showgrid="false"
     inkscape:snap-global="false"
     inkscape:snap-bbox="true"
     inkscape:bbox-paths="true"
     inkscape:bbox-nodes="true"
     inkscape:snap-bbox-edge-midpoints="true"
     inkscape:snap-bbox-midpoints="true"
     inkscape:object-paths="true"
     inkscape:snap-intersection-paths="true"
     inkscape:snap-smooth-nodes="true"
     inkscape:snap-midpoints="true"
     inkscape:snap-object-midpoints="true"
     inkscape:snap-center="true"
     inkscape:snap-text-baseline="true"
     inkscape:snap-page="true"
     inkscape:window-width="1640"
     inkscape:window-height="1025"
     inkscape:window-x="40"
     inkscape:window-y="0"
     inkscape:window-maximized="1"
     inkscape:document-rotation="0" />
  <metadata
     id="metadata5">
    <rdf:RDF>
      <cc:Work
         rdf:about="">
        <dc:format>image/svg+xml</dc:format>
        <dc:type
           rdf:resource="http://purl.org/dc/dcmitype/StillImage" />
        <dc:title />
      </cc:Work>
    </rdf:RDF>
  </metadata>
  <g
     inkscape:label="Camada 1"
     inkscape:groupmode="layer"
     id="layer1">
    <g
       id="g962"
       inkscape:export-filename="/media/jmtstorres/Dados/Projetos/Jogos/SomeGodotStuff/assets/control/border.png"
       inkscape:export-xdpi="152.49826"
       inkscape:export-ydpi="152.49826">
      <circle
         r="22.985178"
         cy="244.3479"
         cx="-40.624966"
         id="path815"
         style="opacity:1;fill:#e6e6e6;fill-opacity:1;stroke:none;stroke-width:0.52916664;stroke-linecap:round;stroke-linejoin:round;stroke-miterlimit:4;stroke-dasharray:none;stroke-opacity:1;paint-order:stroke fill markers" />
      <circle
         r="22.985178"
         cy="244.3479"
         cx="-40.624966"
         id="path815-6"
         style="opacity:0.75;fill:url(#linearGradient918);fill-opacity:1;stroke:none;stroke-width:0.52916664;stroke-linecap:round;stroke-linejoin:round;stroke-miterlimit:4;stroke-dasharray:none;stroke-opacity:1;paint-order:stroke fill markers" />
      <circle
         r="20.847021"
         cy="244.3479"
         cx="-40.624966"
         id="path815-3-6-2"
         style="opacity:1;fill:#cccccc;fill-opacity:1;stroke:none;stroke-width:0.52916664;stroke-linecap:round;stroke-linejoin:round;stroke-miterlimit:4;stroke-dasharray:none;stroke-opacity:1;paint-order:stroke fill markers" />
      <circle
         r="20.847021"
         cy="244.3479"
         cx="-40.624966"
         id="path815-3-6-2-9"
         style="opacity:0.75;fill:url(#linearGradient956);fill-opacity:1;stroke:none;stroke-width:0.52916664;stroke-linecap:round;stroke-linejoin:round;stroke-miterlimit:4;stroke-dasharray:none;stroke-opacity:1;paint-order:stroke fill markers" />
    </g>
    <g
       id="g1026"
       transform="matrix(0.4945993,0,0,0.4945993,12.427724,123.37181)"
       style="stroke-width:2.02183867"
       inkscape:export-filename="/media/jmtstorres/Dados/Projetos/Jogos/SomeGodotStuff/assets/control/center.png"
       inkscape:export-xdpi="152.49826"
       inkscape:export-ydpi="152.49826">
      <circle
         r="22.985178"
         cy="246.88696"
         cx="10.423512"
         id="path815-3-6"
         style="opacity:1;fill:#1a1a1a;fill-opacity:1;stroke:none;stroke-width:1.06988955;stroke-linecap:round;stroke-linejoin:round;stroke-miterlimit:4;stroke-dasharray:none;stroke-opacity:1;paint-order:stroke fill markers" />
      <path
         id="path815-3-6-1"
         transform="scale(0.26458333)"
         d="m 39.396484,860.94336 c -39.80200456,0 -72.171875,32.36986 -72.171875,72.17187 0,39.80202 32.36987044,72.17187 72.171875,72.17187 39.802005,0 72.173826,-32.36985 72.173826,-72.17187 0,-39.80201 -32.371821,-72.17187 -72.173826,-72.17187 z m 0,9.99414 c 34.397605,0 62.171876,27.78014 62.171876,62.17773 0,34.3976 -27.774271,62.17774 -62.171876,62.17774 -34.3976035,0 -62.177734,-27.78014 -62.177734,-62.17774 0,-34.39759 27.7801305,-62.17773 62.177734,-62.17773 z m 0,11.21289 c -28.086275,0 -50.964843,22.87857 -50.964843,50.96484 0,28.08628 22.878568,50.96485 50.964843,50.96485 28.086278,0 50.957032,-22.87857 50.957032,-50.96485 0,-28.08627 -22.870754,-50.96484 -50.957032,-50.96484 z m 0,10.00195 c 22.681875,0 40.962891,18.281 40.962891,40.96289 0,22.68186 -18.281016,40.96289 -40.962891,40.96289 -22.681874,0 -40.9609371,-18.28103 -40.9609371,-40.96289 0,-22.68189 18.2790631,-40.96289 40.9609371,-40.96289 z m 0,12.85938 c -15.462624,0 -28.101562,12.6409 -28.101562,28.10351 0,15.46262 12.638938,28.10352 28.101562,28.10352 15.462626,0 28.103516,-12.6409 28.103516,-28.10352 0,-15.46261 -12.64089,-28.10351 -28.103516,-28.10351 z m 0,10.0039 c 10.058227,0 18.101563,8.04138 18.101563,18.09961 0,10.05823 -8.043336,18.10743 -18.101563,18.10743 -10.058223,0 -18.107422,-8.0492 -18.107422,-18.10743 0,-10.05823 8.049199,-18.09961 18.107422,-18.09961 z"
         style="color:#000000;font-style:normal;font-variant:normal;font-weight:normal;font-stretch:normal;font-size:medium;line-height:normal;font-family:sans-serif;font-variant-ligatures:normal;font-variant-position:normal;font-variant-caps:normal;font-variant-numeric:normal;font-variant-alternates:normal;font-feature-settings:normal;text-indent:0;text-align:start;text-decoration:none;text-decoration-line:none;text-decoration-style:solid;text-decoration-color:#000000;letter-spacing:normal;word-spacing:normal;text-transform:none;writing-mode:lr-tb;direction:ltr;text-orientation:mixed;dominant-baseline:auto;baseline-shift:baseline;text-anchor:start;white-space:normal;shape-padding:0;clip-rule:nonzero;display:inline;overflow:visible;visibility:visible;opacity:0.25;isolation:auto;mix-blend-mode:normal;color-interpolation:sRGB;color-interpolation-filters:linearRGB;solid-color:#000000;solid-opacity:1;vector-effect:none;fill:url(#linearGradient1022);fill-opacity:1;fill-rule:nonzero;stroke:none;stroke-width:20.2183876;stroke-linecap:round;stroke-linejoin:round;stroke-miterlimit:4;stroke-dasharray:none;stroke-dashoffset:0;stroke-opacity:1;paint-order:stroke fill markers;color-rendering:auto;image-rendering:auto;shape-rendering:auto;text-rendering:auto;enable-background:accumulate"
         inkscape:connector-curvature="0" />
    </g>
    <path
       sodipodi:type="star"
       style="opacity:1;fill:#000000;stroke:#00ff00;stroke-width:2.11667;stroke-miterlimit:4;stroke-dasharray:none;paint-order:stroke fill markers"
       id="path852"
       sodipodi:sides="8"
       sodipodi:cx="-42.003197"
       sodipodi:cy="191.13879"
       sodipodi:r1="22.985178"
       sodipodi:r2="19.905746"
       sodipodi:arg1="-1.5707963"
       sodipodi:arg2="-1.1780972"
       inkscape:flatsided="true"
       inkscape:rounded="0.000449707"
       inkscape:randomized="0"
       d="m -42.003196,168.15362 c 0.0079,0 16.247381,6.72661 16.252975,6.7322 0.0056,0.006 6.732202,16.24506 6.732202,16.25297 0,0.008 -6.726609,16.24739 -6.732203,16.25298 -0.0056,0.006 -16.245064,6.7322 -16.252975,6.7322 -0.0079,0 -16.247381,-6.72661 -16.252975,-6.7322 -0.0056,-0.006 -6.732203,-16.24507 -6.732203,-16.25298 0,-0.008 6.726609,-16.24738 6.732203,-16.25297 0.0056,-0.006 16.245065,-6.7322 16.252976,-6.7322 z"
       inkscape:transform-center-y="-3.0783987e-06"
       inkscape:export-filename="/media/jmtstorres/Dados/Projetos/Jogos/FlightAttack/assets/control/border.png"
       inkscape:export-xdpi="152"
       inkscape:export-ydpi="152" />
    <g
       id="g961"
       transform="translate(58.745311,-53.280292)"
       inkscape:export-filename="/media/jmtstorres/Dados/Projetos/Jogos/FlightAttack/assets/control/center.png"
       inkscape:export-xdpi="152"
       inkscape:export-ydpi="152">
      <path
         sodipodi:type="star"
         style="fill:#000000;stroke:#ffffff;stroke-width:3.175;stroke-miterlimit:4;stroke-dasharray:none;paint-order:stroke fill markers"
         id="path852-5"
         sodipodi:sides="8"
         sodipodi:cx="-40.624966"
         sodipodi:cy="244.40518"
         sodipodi:r1="10.192698"
         sodipodi:r2="8.8271351"
         sodipodi:arg1="-1.5707963"
         sodipodi:arg2="-1.1780972"
         inkscape:flatsided="true"
         inkscape:rounded="0.000449707"
         inkscape:randomized="0"
         inkscape:transform-center-y="-1.3651053e-06"
         d="m -40.624965,234.21248 c 0.0035,0 7.204844,2.9829 7.207325,2.98538 0.0025,0.002 2.985372,7.20381 2.985372,7.20732 0,0.004 -2.982892,7.20485 -2.985372,7.20733 -0.0025,0.002 -7.203818,2.98537 -7.207326,2.98537 -0.0035,0 -7.204845,-2.98289 -7.207325,-2.98537 -0.0025,-0.002 -2.985372,-7.20382 -2.985372,-7.20733 0,-0.004 2.982891,-7.20484 2.985372,-7.20732 0.0025,-0.002 7.203817,-2.98538 7.207326,-2.98538 z" />
      <path
         sodipodi:type="star"
         style="fill:#000000;stroke:#ffffff;stroke-width:3.175;stroke-miterlimit:4;stroke-dasharray:none;paint-order:stroke fill markers"
         id="path852-5-3"
         sodipodi:sides="8"
         sodipodi:cx="-40.624966"
         sodipodi:cy="244.40518"
         sodipodi:r1="5.0314775"
         sodipodi:r2="4.3573875"
         sodipodi:arg1="-1.5707963"
         sodipodi:arg2="-1.1780972"
         inkscape:flatsided="true"
         inkscape:rounded="0.000449707"
         inkscape:randomized="0"
         d="m -40.624966,239.3737 c 0.0017,0 3.556568,1.47247 3.557792,1.47369 0.0012,0.001 1.473686,3.55606 1.473686,3.55779 0,0.002 -1.472461,3.55657 -1.473686,3.55779 -0.0012,0.001 -3.55606,1.47369 -3.557792,1.47369 -0.0017,0 -3.556567,-1.47246 -3.557792,-1.47369 -0.0012,-0.001 -1.473685,-3.55606 -1.473685,-3.55779 0,-0.002 1.472461,-3.55657 1.473686,-3.55779 0.0012,-0.001 3.55606,-1.47369 3.557791,-1.47369 z" />
    </g>
    <path
       sodipodi:type="star"
       style="fill:#000000;stroke:#ffffff;stroke-width:2.43089;stroke-miterlimit:4;stroke-dasharray:none;paint-order:stroke fill markers"
       id="path852-5-6"
       sodipodi:sides="8"
       sodipodi:cx="17.451614"
       sodipodi:cy="144.69473"
       sodipodi:r1="7.8038845"
       sodipodi:r2="6.7583623"
       sodipodi:arg1="-1.5707963"
       sodipodi:arg2="-1.1780972"
       inkscape:flatsided="true"
       inkscape:rounded="0.000449707"
       inkscape:randomized="0"
       inkscape:transform-center-y="-1.3651053e-06"
       d="m 17.451615,136.89085 c 0.0027,0 5.51628,2.2838 5.518179,2.2857 0.0019,0.002 2.285705,5.5155 2.285705,5.51818 0,0.003 -2.283806,5.51628 -2.285705,5.51818 -0.0019,0.002 -5.515494,2.28571 -5.51818,2.28571 -0.0027,0 -5.51628,-2.28381 -5.518179,-2.28571 -0.0019,-0.002 -2.2857051,-5.51549 -2.2857051,-5.51818 0,-0.003 2.2838061,-5.51628 2.2857051,-5.51818 0.0019,-0.002 5.515494,-2.2857 5.51818,-2.2857 z"
       inkscape:export-filename="/media/jmtstorres/Dados/Projetos/Jogos/FlightAttack/assets/control/btn.png"
       inkscape:export-xdpi="142.19141"
       inkscape:export-ydpi="142.19141" />
  </g>
</svg>
