# Created by Kenney (www.kenney.nl)

mtllib weapon_rifle.mtl

g weapon_rifle

v -0.02799368 0 0.02200639
v 0.02799356 0 0.02200639
v -0.02799368 0.1 0.02200639
v 0.02799356 0.1 0.02200639
v -0.02799368 0 0.1279936
v -0.02799368 0.1 0.1279936
v 0.02799356 0 0.1279936
v 0.02799356 0.1 0.1279936
v 0.03750002 0.05 -0.15
v 0.03750002 0.05 -0.25
v -0.0374999 0.05 -0.15
v -0.0374999 0.05 -0.25
v 0.04999995 0.15 -0.2
v 0.04999995 0.15 -0.1
v 0.04999995 0.25 -0.04999995
v 0.04999995 0.175 -0.04999995
v 0.04999995 0.25 0.1
v 0.04999995 0.175 0.1
v -0.04999995 0.15 -0.2
v -0.04999995 0.15 -0.1
v -0.04999995 0.175 -0.04999995
v -0.04999995 0.25 -0.04999995
v -0.04999995 0.175 0.1
v -0.04999995 0.25 0.1
v -0.04999995 0.15 -0.25
v 0.04999995 0.15 -0.25
v -0.04999995 0.175 -0.25
v 0.04999995 0.175 -0.25
v -0.04999995 0.1 0.2
v 0.02710974 0.1208013 0.2138674
v 0.04999995 0.1 0.2
v 0.04999995 0.175 0.25
v 0.02710974 0.175 0.25
v -0.02710986 0.1208013 0.2138674
v -0.04999995 0.175 0.25
v -0.02710986 0.175 0.25
v -0.04999995 0.1 -0.04999995
v -0.04999995 0.15 -0.04999995
v 0.04999995 0.1 -0.04999995
v 0.04999995 0.15 -0.04999995
v 0.04999995 0.25 0.25
v 0.02710974 0.2271098 0.25
v -0.02710986 0.2271098 0.25
v -0.04999995 0.25 0.25
v 0.02710974 0.25 0.1936003
v -0.02710986 0.25 0.1936003
v -0.02710986 0.25 0.2271098
v 0.02710974 0.25 0.2271098
v -0.04999995 0.25 -0.2321714
v 0.04999995 0.25 -0.2321714
v 0.02710974 0.275 0.2271098
v -0.02710986 0.275 0.2271098
v -0.02710986 0.275 0.210355
v 0.02710974 0.275 0.210355

vn 0 0 -0.5
vn -0.5 0 0
vn 0 -0.5 0
vn 0.5 0 0
vn 0 0 0.5
vn 0.4961389 -0.06201737 0
vn 0 0.2236068 -0.4472136
vn 0 -0.2236068 0.4472136
vn -0.4961389 -0.06201737 0
vn 0 0.5 0
vn 0 -0.2773501 0.4160252
vn 0 0.1156347 -0.4864449
vn 0 0.2783624 -0.4153485

vt 2.204221 0
vt -2.204221 0
vt 2.204221 7.874016
vt -2.204221 7.874016
vt 1.732787 0
vt 1.732787 7.874016
vt 10.07824 0
vt 10.07824 7.874016
vt 2.204221 10.07824
vt 2.204221 1.732787
vt -2.204221 10.07824
vt -2.204221 1.732787
vt -1.732787 7.874016
vt -1.732787 0
vt -10.07824 7.874016
vt -10.07824 0
vt 2.952756 -11.81102
vt 2.952756 -19.68504
vt -2.952756 -11.81102
vt -2.952756 -19.68504
vt 19.68504 4.27285
vt 11.81102 4.27285
vt 15.74803 12.20814
vt 7.874016 12.20814
vt 3.937008 19.68504
vt 3.937008 13.77953
vt -7.874016 19.68504
vt -7.874016 13.77953
vt 2.952756 -5.28205
vt -2.952756 -5.28205
vt 3.937008 3.521367
vt -3.937008 3.521367
vt 2.952756 -1.760683
vt -2.952756 -1.760683
vt 3.937008 7.042734
vt -3.937008 7.042734
vt -19.68504 4.27285
vt -15.74803 12.20814
vt -11.81102 4.27285
vt -7.874016 12.20814
vt -3.937008 13.77953
vt -3.937008 19.68504
vt 7.874016 13.77953
vt 7.874016 19.68504
vt -3.937008 -3.937008
vt -3.937008 7.874016
vt 3.937008 -3.937008
vt 3.937008 7.874016
vt 3.937008 11.81102
vt -3.937008 11.81102
vt -3.937008 15.28701
vt 2.134626 17.25552
vt 3.937008 15.28701
vt 3.937008 22.38456
vt 2.134626 22.38456
vt -2.134626 17.25552
vt -3.937008 22.38456
vt -2.134626 22.38456
vt 15.74803 7.874016
vt 19.68504 13.77953
vt -7.874016 11.81102
vt -15.74803 11.81102
vt -19.68504 13.77953
vt -19.68504 11.81102
vt 3.937008 15.74803
vt -3.937008 15.74803
vt -15.74803 7.874016
vt 7.874016 11.81102
vt 15.74803 11.81102
vt 19.68504 11.81102
vt -3.937008 -15.74803
vt -3.937008 -7.874016
vt 3.937008 -15.74803
vt 3.937008 -7.874016
vt 3.937008 -19.68504
vt -3.937008 -19.68504
vt 2.134626 13.77953
vt 2.134626 17.88266
vt -2.134626 17.88266
vt -2.134626 13.77953
vt -2.134626 15.24411
vt 2.134626 15.24411
vt 3.937008 8.853416
vt -3.937008 8.853416
vt 3.937008 14.92349
vt -3.937008 14.92349
vt 19.68504 19.68504
vt -3.937008 -18.28122
vt 3.937008 -18.28122
vt 18.28122 19.68504
vt -19.68504 19.68504
vt -18.28122 19.68504
vt 2.134626 19.68504
vt -2.134626 19.68504
vt 2.134626 21.65354
vt -2.134626 21.65354
vt 2.134626 24.83908
vt -2.134626 24.83908
vt 2.134626 27.20878
vt -2.134626 27.20878
vt 15.24411 19.68504
vt 16.56339 21.65354
vt 17.88266 19.68504
vt 17.88266 21.65354
vt -15.24411 19.68504
vt -17.88266 19.68504
vt -16.56339 21.65354
vt -17.88266 21.65354
vt -2.134626 16.56339
vt 2.134626 16.56339

usemtl metalDark

f 3/3/1 2/2/1 1/1/1
f 2/2/1 3/3/1 4/4/1
f 5/7/2 3/6/2 1/5/2
f 3/6/2 5/7/2 6/8/2
f 5/11/3 2/10/3 7/9/3
f 2/10/3 5/11/3 1/12/3
f 8/15/4 2/14/4 4/13/4
f 2/14/4 8/15/4 7/16/4
f 8/3/5 5/2/5 7/1/5
f 5/2/5 8/3/5 6/4/5
f 11/19/3 10/18/3 9/17/3
f 10/18/3 11/19/3 12/20/3
f 13/23/6 9/22/6 10/21/6
f 9/22/6 13/23/6 14/24/6
f 17/27/4 16/26/4 15/25/4
f 16/26/4 17/27/4 18/28/4
f 19/31/7 10/30/7 12/29/7
f 10/30/7 19/31/7 13/32/7
f 14/35/8 11/34/8 9/33/8
f 11/34/8 14/35/8 20/36/8
f 11/39/9 19/38/9 12/37/9
f 19/38/9 11/39/9 20/40/9
f 23/43/2 22/42/2 21/41/2
f 22/42/2 23/43/2 24/44/2
f 22/47/10 17/46/10 15/45/10
f 17/46/10 22/47/10 24/48/10

usemtl metal

f 27/26/1 26/50/1 25/49/1
f 26/50/1 27/26/1 28/41/1
f 31/53/11 30/52/11 29/51/11
f 30/52/11 31/53/11 32/54/11
f 30/52/11 32/54/11 33/55/11
f 34/56/11 29/51/11 30/52/11
f 29/51/11 34/56/11 35/57/11
f 35/57/11 34/56/11 36/58/11
f 29/59/2 38/50/2 37/46/2
f 38/50/2 29/59/2 21/41/2
f 21/41/2 29/59/2 23/43/2
f 23/43/2 29/59/2 35/60/2
f 21/41/2 20/61/2 38/50/2
f 21/41/2 19/62/2 20/61/2
f 27/63/2 19/62/2 21/41/2
f 19/62/2 27/63/2 25/64/2
f 31/65/3 8/9/3 39/47/3
f 8/9/3 31/65/3 29/66/3
f 8/9/3 29/66/3 6/11/3
f 6/11/3 29/66/3 3/12/3
f 4/10/3 39/47/3 8/9/3
f 39/47/3 4/10/3 37/45/3
f 37/45/3 4/10/3 3/12/3
f 37/45/3 3/12/3 29/66/3
f 18/28/4 40/49/4 16/26/4
f 40/49/4 18/28/4 39/48/4
f 39/48/4 18/28/4 31/67/4
f 31/67/4 18/28/4 32/63/4
f 14/68/4 16/26/4 40/49/4
f 13/69/4 16/26/4 14/68/4
f 26/70/4 16/26/4 13/69/4
f 16/26/4 26/70/4 28/60/4
f 38/49/1 39/46/1 37/48/1
f 39/46/1 38/49/1 40/50/1
f 19/73/10 14/72/10 13/71/10
f 14/72/10 19/73/10 20/74/10
f 38/45/3 14/74/3 40/47/3
f 14/74/3 38/45/3 20/72/3
f 19/71/3 26/75/3 13/73/3
f 26/75/3 19/71/3 25/76/3

usemtl metalRed

f 41/25/5 33/77/5 32/26/5
f 33/77/5 41/25/5 42/78/5
f 42/78/5 41/25/5 43/79/5
f 44/42/5 43/79/5 41/25/5
f 35/41/5 43/79/5 44/42/5
f 43/79/5 35/41/5 36/80/5
f 17/46/10 45/81/10 41/42/10
f 45/81/10 17/46/10 24/48/10
f 45/81/10 24/48/10 46/82/10
f 46/82/10 24/48/10 47/78/10
f 48/79/10 41/42/10 45/81/10
f 41/42/10 48/79/10 44/25/10
f 44/25/10 48/79/10 47/78/10
f 44/25/10 47/78/10 24/48/10
f 49/85/12 28/84/12 27/83/12
f 28/84/12 49/85/12 50/86/12
f 35/60/2 24/44/2 23/43/2
f 24/44/2 35/60/2 44/87/2
f 49/89/10 15/45/10 50/88/10
f 15/45/10 49/89/10 22/47/10
f 50/90/4 16/26/4 28/60/4
f 16/26/4 50/90/4 15/25/4
f 41/91/4 18/28/4 17/27/4
f 18/28/4 41/91/4 32/63/4
f 21/41/2 49/92/2 27/63/2
f 49/92/2 21/41/2 22/42/2

usemtl dark

f 42/78/5 36/80/5 33/77/5
f 36/80/5 42/78/5 43/79/5
f 51/95/5 47/94/5 48/93/5
f 47/94/5 51/95/5 52/96/5
f 53/99/13 45/98/13 46/97/13
f 45/98/13 53/99/13 54/100/13
f 47/103/2 53/102/2 46/101/2
f 53/102/2 47/103/2 52/104/2
f 54/107/4 48/106/4 45/105/4
f 48/106/4 54/107/4 51/108/4
f 53/110/10 51/79/10 54/109/10
f 51/79/10 53/110/10 52/78/10
f 33/55/11 34/56/11 30/52/11
f 34/56/11 33/55/11 36/58/11

