# Created by Kenney (www.kenney.nl)

mtllib chimney.mtl

g chimney

v 0.09659255 2 0.02588189
v 0.1931852 0 0.05176377
v 0.08660257 2 0.04999995
v 0.1732051 0 0.1
v -0.1732051 0 -0.1
v -0.08660245 2 -0.04999995
v -0.1931851 0 -0.05176377
v -0.09659266 2 -0.02588189
v 0.05176377 0 -0.1931852
v 0.1 0 -0.1732051
v 0.02588189 2 -0.09659255
v 0.04999995 2 -0.08660257
v 0.1 2 0
v 0.2 0 0
v -0.1414213 0 -0.1414213
v -0.0999999 0 -0.1732051
v -0.07071066 2 -0.07071066
v -0.04999995 2 -0.08660257
v -0.2 0 0
v -0.0999999 2 0
v 0 0 0.2
v -0.05176377 0 0.1931852
v 0 2 0.1
v -0.02588201 2 0.09659255
v 0.1931852 0 -0.05176377
v 0.09659255 2 -0.02588189
v 0.07071066 2 0.07071066
v 0.1414213 0 0.1414213
v 0.1 0 0.1732051
v 0.04999995 2 0.08660257
v -0.0999999 0 0.1732051
v -0.1414213 0 0.1414213
v -0.04999995 2 0.08660257
v -0.07071066 2 0.07071066
v 0.1414213 0 -0.1414213
v 0.07071066 2 -0.07071066
v -0.05176377 0 -0.1931852
v -0.02588201 2 -0.09659255
v 0.1732051 0 -0.1
v 0.05176377 0 0.1931852
v 0 0 -0.2
v -0.1732051 0 0.1
v -0.1931851 0 0.05176377
v 0 2 -0.1
v -0.09659266 2 0.02588189
v -0.08660245 2 0.04999995
v 0.08660257 2 -0.04999995
v 0.02588189 2 0.09659255
v 0.04999995 2 0
v 0.04829633 2 -0.012941
v 0.04330122 2 -0.02499998
v 0.03535533 2 -0.03535533
v 0.02499998 2 -0.04330122
v 0.012941 2 -0.04829633
v 0 2 -0.04999995
v -0.01294088 2 -0.04829633
v -0.0250001 2 -0.04330122
v -0.03535533 2 -0.03535533
v -0.04330134 2 -0.02499998
v -0.04829621 2 -0.012941
v -0.04999995 2 0
v -0.04829621 2 0.012941
v -0.04330134 2 0.02499998
v -0.03535533 2 0.03535533
v -0.0250001 2 0.04330122
v -0.01294088 2 0.04829633
v 0 2 0.04999995
v 0.012941 2 0.04829633
v 0.02499998 2 0.04330122
v 0.03535533 2 0.03535533
v 0.04330122 2 0.02499998
v 0.04829633 2 0.012941

vn 0.9647207 0.04993762 0.2584961
vn 0.8649449 0.04993761 0.4993762
vn -0.8649449 0.04993761 -0.4993762
vn -0.9647207 0.04993762 -0.2584961
vn 0.2584961 0.04993762 -0.9647207
vn 0.4993762 0.04993761 -0.8649449
vn 0.9987524 0.04993761 0
vn -0.7062246 0.04993761 -0.7062246
vn -0.4993762 0.04993761 -0.8649449
vn -0.9987524 0.04993761 0
vn 0 0.04993761 0.9987524
vn -0.2584961 0.04993762 0.9647207
vn 0.9647207 0.04993762 -0.2584961
vn 0.7062246 0.04993761 0.7062246
vn 0.4993762 0.04993761 0.8649449
vn -0.4993762 0.04993761 0.8649449
vn -0.7062246 0.04993761 0.7062246
vn 0.7062246 0.04993761 -0.7062246
vn -0.2584961 0.04993762 -0.9647207
vn 0 -1 0
vn 0 0.04993761 -0.9987524
vn -0.9647207 0.04993762 0.2584961
vn -0.8649449 0.04993761 0.4993762
vn 0.8649449 0.04993761 -0.4993762
vn 0.2584961 0.04993762 0.9647207
vn 0 1 0

vt 0.5138826 78.45033
vt 1.027765 -0.3865187
vt -0.5138826 78.45033
vt -1.027765 -0.3865187
vt 7.874016 0
vt 7.605715 -2.037945
vt 7.605715 2.037945
vt 6.819098 3.937008
vt 6.819098 -3.937008
vt 5.56777 5.56777
vt 5.56777 -5.56777
vt 3.937008 6.819098
vt 3.937008 -6.819098
vt 2.037945 7.605715
vt 2.037945 -7.605715
vt 0 -7.874016
vt 0 7.874016
vt -2.037945 7.605715
vt -2.037945 -7.605715
vt -3.937008 6.819098
vt -3.937008 -6.819098
vt -5.56777 5.56777
vt -5.56777 -5.56777
vt -6.819098 3.937008
vt -6.819098 -3.937008
vt -7.605715 2.037945
vt -7.605715 -2.037945
vt -7.874016 0
vt -1.968504 0
vt -1.901429 -0.5094863
vt -1.968504 -3.409549
vt -1.018973 -3.802858
vt -1.704774 -0.984252
vt -1.391943 -1.391943
vt -0.984252 -1.704774
vt 0 -3.937008
vt -0.5094863 -1.901429
vt 0 -1.968504
vt 1.018973 -3.802858
vt 0.5094863 -1.901429
vt 0.984252 -1.704774
vt 1.391943 -1.391943
vt 1.968504 -3.409549
vt 1.704774 -0.984252
vt 1.901429 -0.5094863
vt 1.968504 0
vt 2.783885 -2.783885
vt 1.968504 3.409549
vt 2.783885 2.783885
vt 3.409549 -1.968504
vt 3.409549 1.968504
vt 3.802858 -1.018973
vt 3.802858 1.018973
vt 3.937008 0
vt 1.901429 0.5094863
vt 1.704774 0.984252
vt 1.391943 1.391943
vt 1.018973 3.802858
vt 0.984252 1.704774
vt 0.5094863 1.901429
vt 0 3.937008
vt 0 1.968504
vt -0.5094863 1.901429
vt -0.984252 1.704774
vt -1.018973 3.802858
vt -1.391943 1.391943
vt -1.704774 0.984252
vt -1.901429 0.5094863
vt -1.968504 3.409549
vt -2.783885 2.783885
vt -2.783885 -2.783885
vt -3.409549 1.968504
vt -3.409549 -1.968504
vt -3.802858 1.018973
vt -3.802858 -1.018973
vt -3.937008 0

usemtl metal

f 3/3/2 2/2/1 1/1/1
f 2/2/1 3/3/2 4/4/2
f 7/2/4 6/3/3 5/4/3
f 6/3/3 7/2/4 8/1/4
f 11/1/5 10/4/6 9/2/5
f 10/4/6 11/1/5 12/3/6
f 1/3/1 14/2/7 13/1/7
f 14/2/7 1/3/1 2/4/1
f 17/1/8 16/4/9 15/2/8
f 16/4/9 17/1/8 18/3/9
f 19/2/10 8/3/4 7/4/4
f 8/3/4 19/2/10 20/1/10
f 23/1/11 22/4/12 21/2/11
f 22/4/12 23/1/11 24/3/12
f 26/1/13 14/4/7 25/2/13
f 14/4/7 26/1/13 13/3/7
f 27/3/14 4/2/2 3/1/2
f 4/2/2 27/3/14 28/4/14
f 27/1/14 29/4/15 28/2/14
f 29/4/15 27/1/14 30/3/15
f 33/1/16 32/4/17 31/2/16
f 32/4/17 33/1/16 34/3/17
f 12/1/6 35/4/18 10/2/6
f 35/4/18 12/1/6 36/3/18
f 18/1/9 37/4/19 16/2/9
f 37/4/19 18/1/9 38/3/19
f 2/7/20 25/6/20 14/5/20
f 25/6/20 2/7/20 4/8/20
f 25/6/20 4/8/20 39/9/20
f 39/9/20 4/8/20 28/10/20
f 39/9/20 28/10/20 35/11/20
f 35/11/20 28/10/20 29/12/20
f 35/11/20 29/12/20 10/13/20
f 10/13/20 29/12/20 40/14/20
f 10/13/20 40/14/20 9/15/20
f 9/15/20 40/14/20 41/16/20
f 41/16/20 40/14/20 21/17/20
f 41/16/20 21/17/20 22/18/20
f 41/16/20 22/18/20 37/19/20
f 37/19/20 22/18/20 31/20/20
f 37/19/20 31/20/20 16/21/20
f 16/21/20 31/20/20 32/22/20
f 16/21/20 32/22/20 15/23/20
f 15/23/20 32/22/20 42/24/20
f 15/23/20 42/24/20 5/25/20
f 5/25/20 42/24/20 43/26/20
f 5/25/20 43/26/20 7/27/20
f 7/27/20 43/26/20 19/28/20
f 38/1/19 41/4/21 37/2/19
f 41/4/21 38/1/19 44/3/21
f 24/1/12 31/4/16 22/2/12
f 31/4/16 24/1/12 33/3/16
f 43/4/22 46/1/23 45/3/22
f 46/1/23 43/4/22 42/2/23
f 43/2/22 20/3/10 19/4/10
f 20/3/10 43/2/22 45/1/22
f 5/2/3 17/3/8 15/4/8
f 17/3/8 5/2/3 6/1/3
f 47/1/24 25/4/13 39/2/24
f 25/4/13 47/1/24 26/3/13
f 30/1/15 40/4/25 29/2/15
f 40/4/25 30/1/15 48/3/25
f 36/1/18 39/4/24 35/2/18
f 39/4/24 36/1/18 47/3/24
f 42/4/23 34/1/17 46/3/23
f 34/1/17 42/4/23 32/2/17
f 44/1/21 9/4/5 41/2/21
f 9/4/5 44/1/21 11/3/5
f 48/1/25 21/4/11 40/2/25
f 21/4/11 48/1/25 23/3/11
f 12/31/26 50/30/26 49/29/26
f 50/30/26 12/31/26 11/32/26
f 50/30/26 11/32/26 51/33/26
f 51/33/26 11/32/26 52/34/26
f 52/34/26 11/32/26 53/35/26
f 53/35/26 11/32/26 44/36/26
f 53/35/26 44/36/26 54/37/26
f 54/37/26 44/36/26 55/38/26
f 55/38/26 44/36/26 38/39/26
f 55/38/26 38/39/26 56/40/26
f 56/40/26 38/39/26 57/41/26
f 57/41/26 38/39/26 58/42/26
f 58/42/26 38/39/26 18/43/26
f 58/42/26 18/43/26 59/44/26
f 59/44/26 18/43/26 60/45/26
f 60/45/26 18/43/26 61/46/26
f 61/46/26 18/43/26 17/47/26
f 61/46/26 17/47/26 33/48/26
f 33/48/26 17/47/26 34/49/26
f 34/49/26 17/47/26 6/50/26
f 34/49/26 6/50/26 46/51/26
f 46/51/26 6/50/26 8/52/26
f 46/51/26 8/52/26 45/53/26
f 45/53/26 8/52/26 20/54/26
f 33/48/26 62/55/26 61/46/26
f 33/48/26 63/56/26 62/55/26
f 33/48/26 64/57/26 63/56/26
f 24/58/26 64/57/26 33/48/26
f 24/58/26 65/59/26 64/57/26
f 24/58/26 66/60/26 65/59/26
f 23/61/26 66/60/26 24/58/26
f 23/61/26 67/62/26 66/60/26
f 23/61/26 68/63/26 67/62/26
f 23/61/26 69/64/26 68/63/26
f 48/65/26 69/64/26 23/61/26
f 48/65/26 70/66/26 69/64/26
f 48/65/26 71/67/26 70/66/26
f 48/65/26 72/68/26 71/67/26
f 30/69/26 72/68/26 48/65/26
f 30/69/26 49/29/26 72/68/26
f 30/69/26 12/31/26 49/29/26
f 27/70/26 12/31/26 30/69/26
f 27/70/26 36/71/26 12/31/26
f 3/72/26 36/71/26 27/70/26
f 3/72/26 47/73/26 36/71/26
f 1/74/26 47/73/26 3/72/26
f 1/74/26 26/75/26 47/73/26
f 26/75/26 1/74/26 13/76/26

usemtl dark

f 50/30/26 72/68/26 49/29/26
f 72/68/26 50/30/26 51/33/26
f 72/68/26 51/33/26 71/67/26
f 71/67/26 51/33/26 52/34/26
f 71/67/26 52/34/26 70/66/26
f 70/66/26 52/34/26 69/64/26
f 69/64/26 52/34/26 53/35/26
f 69/64/26 53/35/26 54/37/26
f 69/64/26 54/37/26 68/63/26
f 68/63/26 54/37/26 67/62/26
f 67/62/26 54/37/26 55/38/26
f 67/62/26 55/38/26 56/40/26
f 67/62/26 56/40/26 66/60/26
f 66/60/26 56/40/26 57/41/26
f 66/60/26 57/41/26 65/59/26
f 65/59/26 57/41/26 58/42/26
f 65/59/26 58/42/26 64/57/26
f 64/57/26 58/42/26 59/44/26
f 64/57/26 59/44/26 63/56/26
f 63/56/26 59/44/26 60/45/26
f 63/56/26 60/45/26 62/55/26
f 62/55/26 60/45/26 61/46/26

