# Created by Kenney (www.kenney.nl)

mtllib corridor_corner.mtl

g corridor_corner

v 0.5 1 0.3
v 0.5 0.8 0.5
v 0.3 1 0.3
v 0.5 1 -0.3
v 0.5 1 -0.2
v -0.3 1 -0.3
v -0.2 1 -0.2
v -0.2 1 0.5
v -0.3 1 0.5
v -0.5 0.8 -0.5
v 0.5 0.8 -0.5
v -0.5 0 -0.5
v 0.5 0 -0.5
v -0.5 0.1 -0.5
v 0.5 0.1 -0.5
v 0.5 1 0.2
v 0.2 1 0.2
v 0.3 1 0.5
v 0.2 1 0.5
v 0.5 0 -0.4
v -0.4000001 0 -0.4
v 0.5 0.1 -0.4
v -0.4000001 0.7585787 -0.4
v 0.5 0.7585787 -0.4
v 0.5 0 0.4
v 0.5 0.1 0.4
v 0.4 1.785979E-18 0.4
v 0.4 0.7585787 0.4
v 0.5 0.7585787 0.4
v 0.4 1.785979E-18 0.5
v 0.4 0.1 0.5
v 0.4 0.7585787 0.5
v -0.4000001 0.7585787 0.5
v -0.4000001 3.214762E-17 0.5
v -0.4000001 0.1 0.5
v -0.4000001 0.2 0.5
v 0.5 0.9 0.2
v 0.5 0.9 -0.2
v 0.5 0.9 0.2585787
v 0.2585787 0.9 0.2585787
v -0.2585785 0.9 -0.2585787
v 0.5 0.9 -0.2585787
v 0.2 0.9 0.5
v 0.2585787 0.9 0.5
v -0.2 0.9 0.5
v -0.2585785 0.9 0.5
v 0.5 0 0.5
v -0.5 0.8 0.5
v -0.5 3.38396E-17 0.5
v -0.5 0.1 0.5
v 0.5 0.1 0.5
v -0.5 0.2 -0.5
v -0.5 0.4 -0.5
v -0.5 0.2 0.5
v -0.5 0.4 0.5
v 0.5 0.2 -0.5
v 0.5 0.4 -0.5

vn 0 0.7071068 0.7071068
vn 0 1 0
vn 0 0.7071068 -0.7071068
vn 0 0 -1
vn 0.7071067 0.7071068 0
vn 0 0 1
vn -1 0 0
vn 1 0 0
vn 0 -1 0
vn 0.7071068 -0.7071068 0
vn -0.7071068 0.7071068 0
vn 0 -0.7071068 0.7071068
vn 0 -0.7071068 -0.7071068
vn -0.7071067 -0.7071068 0

vt 19.68504 19.48719
vt 19.68504 8.351654
vt 11.81102 19.48719
vt -19.68504 -11.81102
vt -19.68504 -7.874015
vt 11.81102 -11.81102
vt 7.874016 -7.874015
vt 7.874016 19.68504
vt 11.81102 19.68504
vt -19.68504 8.351654
vt -19.68504 19.48719
vt 19.68504 3.330669E-16
vt -19.68504 3.330669E-16
vt 19.68504 3.937008
vt -19.68504 3.937008
vt -19.68504 11.81102
vt -11.81102 11.81102
vt -19.68504 7.874016
vt -7.874016 7.874016
vt -11.81102 19.68504
vt -7.874016 19.68504
vt -11.81102 19.48719
vt -19.68504 8.351651
vt -19.68504 19.48719
vt 19.68504 0
vt -15.74803 0
vt -15.74803 29.8653
vt 19.68504 29.8653
vt -19.68504 0
vt -15.74803 7.031412E-17
vt -19.68504 29.8653
vt 15.74803 7.031412E-17
vt 15.74803 29.8653
vt 19.68504 7.031412E-17
vt 15.74803 0
vt -19.68504 1.265654E-15
vt -19.68504 7.874016
vt 19.68504 7.874016
vt 19.68504 -7.874015
vt 19.68504 10.18026
vt 10.18026 10.18026
vt -10.18026 -10.18026
vt 19.68504 -10.18026
vt 7.874016 19.68504
vt 10.18026 19.68504
vt -7.874016 19.68504
vt -10.18026 19.68504
vt -19.68504 17.85643
vt 10.18026 17.85643
vt -19.68504 9.982417
vt 15.74803 9.982417
vt 19.68504 19.68504
vt 19.68504 15.74803
vt 15.74803 19.68504
vt 15.74803 15.74803
vt -11.81102 19.48719
vt -19.68504 8.351655
vt 19.68504 8.351655
vt -19.68504 -3.330669E-16
vt 19.68504 9.992007E-16
vt -15.74803 9.982416
vt -10.18026 17.85643
vt 19.68504 9.982416
vt 19.68504 17.85643
vt -19.68504 9.982416
vt 19.68504 9.982414
vt 15.74803 9.982414
vt 10.18026 17.85643
vt -15.74803 19.68504
vt -15.74803 -15.74803
vt -19.68504 19.68504
vt -19.68504 -19.68504
vt 19.68504 -19.68504
vt 19.68504 -15.74803
vt -15.74803 5.784317E-09
vt -19.68504 5.784317E-09
vt -15.74803 3.937008
vt -19.68504 3.937008
vt 19.68504 5.018847E-09
vt 15.74803 5.018848E-09
vt 19.68504 3.937008
vt 15.74803 3.937008
vt -15.74803 3.937008
vt -15.74803 2.767828E-07
vt -19.68504 3.937008
vt -19.68504 2.767828E-07
vt 19.68504 3.937008
vt 19.68504 2.89301E-09
vt 15.74803 3.937008
vt 15.74803 2.89301E-09
vt -19.68504 15.74803
vt 19.68504 7.874016
vt 19.68504 31.49606
vt 10.18026 35.43307
vt 11.81102 39.37008
vt 7.874016 35.43307
vt -7.874016 35.43307
vt -11.81102 39.37008
vt -10.18026 35.43307
vt -19.68504 31.49606
vt -15.74803 7.874016
vt 7.874016 39.37008
vt -7.874016 39.37008
vt 7.874015 39.37008
vt 7.874015 35.43307
vt -7.874016 39.37008
vt -7.874016 35.43307
vt -11.81102 39.37008
vt -10.18026 35.43307

usemtl metalDark

f 3/3/1 2/2/1 1/1/1
f 6/6/2 5/5/2 4/4/2
f 5/5/2 6/6/2 7/7/2
f 7/7/2 6/6/2 8/8/2
f 8/8/2 6/6/2 9/9/2
f 6/3/3 11/10/3 10/2/3
f 11/10/3 6/3/3 4/11/3
f 14/14/4 13/13/4 12/12/4
f 13/13/4 14/14/4 15/15/4
f 16/18/2 3/17/2 1/16/2
f 3/17/2 16/18/2 17/19/2
f 3/17/2 17/19/2 18/20/2
f 18/20/2 17/19/2 19/21/2
f 18/24/5 2/23/5 3/22/5
f 22/14/6 21/26/6 20/25/6
f 21/26/6 22/14/6 23/27/6
f 23/27/6 22/14/6 24/28/6
f 27/30/4 26/15/4 25/29/4
f 26/15/4 27/30/4 28/27/4
f 26/15/4 28/27/4 29/31/4
f 30/34/7 28/33/7 27/32/7
f 28/33/7 30/34/7 31/14/7
f 28/33/7 31/14/7 32/28/7
f 33/31/8 21/35/8 23/33/8
f 21/35/8 33/31/8 34/36/8
f 34/36/8 33/31/8 35/15/8
f 35/15/8 33/31/8 36/37/8
f 39/40/9 38/39/9 37/38/9
f 38/39/9 39/40/9 40/41/9
f 41/42/9 38/39/9 40/41/9
f 38/39/9 41/42/9 42/43/9
f 41/42/9 40/41/9 43/44/9
f 43/44/9 40/41/9 44/45/9
f 41/42/9 43/44/9 45/46/9
f 41/42/9 45/46/9 46/47/9
f 33/50/10 41/49/10 46/48/10
f 41/49/10 33/50/10 23/51/10
f 30/54/9 25/53/9 47/52/9
f 25/53/9 30/54/9 27/55/9
f 10/57/11 9/1/11 6/56/11
f 9/1/11 10/57/11 48/58/11
f 49/60/7 14/15/7 12/59/7
f 14/15/7 49/60/7 50/14/7
f 24/63/12 41/62/12 23/61/12
f 41/62/12 24/63/12 42/64/12
f 29/65/13 40/62/13 39/48/13
f 40/62/13 29/65/13 28/61/13
f 44/64/14 28/67/14 32/66/14
f 28/67/14 44/64/14 40/68/14
f 49/71/9 21/70/9 34/69/9
f 21/70/9 49/71/9 12/72/9
f 13/73/9 21/70/9 12/72/9
f 21/70/9 13/73/9 20/74/9
f 35/77/6 49/76/6 34/75/6
f 49/76/6 35/77/6 50/78/6
f 51/81/6 30/80/6 47/79/6
f 30/80/6 51/81/6 31/82/6
f 51/85/8 25/84/8 26/83/8
f 25/84/8 51/85/8 47/86/8
f 22/89/8 13/88/8 15/87/8
f 13/88/8 22/89/8 20/90/8

usemtl metalRed

f 54/92/7 53/91/7 52/37/7
f 53/91/7 54/92/7 55/53/7
f 53/53/4 56/37/4 52/92/4
f 56/37/4 53/53/4 57/91/4

usemtl metal

f 2/93/6 31/82/6 51/81/6
f 31/82/6 2/93/6 32/33/6
f 32/33/6 2/93/6 44/94/6
f 44/94/6 2/93/6 18/95/6
f 44/94/6 18/95/6 43/96/6
f 43/96/6 18/95/6 45/97/6
f 9/98/6 45/97/6 18/95/6
f 9/98/6 46/99/6 45/97/6
f 48/100/6 46/99/6 9/98/6
f 48/100/6 33/27/6 46/99/6
f 55/91/6 33/27/6 48/100/6
f 54/37/6 33/27/6 55/91/6
f 54/37/6 36/101/6 33/27/6
f 54/37/6 35/77/6 36/101/6
f 35/77/6 54/37/6 50/78/6
f 9/98/6 18/95/6 19/102/6
f 9/98/6 19/102/6 8/103/6
f 50/14/7 52/37/7 14/15/7
f 52/37/7 50/14/7 54/92/7
f 5/5/2 17/19/2 16/18/2
f 17/19/2 5/5/2 7/7/2
f 17/19/2 7/7/2 19/21/2
f 19/21/2 7/7/2 8/8/2
f 22/89/8 15/87/8 24/33/8
f 56/92/8 24/33/8 15/87/8
f 57/53/8 24/33/8 56/92/8
f 11/93/8 24/33/8 57/53/8
f 24/33/8 11/93/8 4/95/8
f 24/33/8 4/95/8 42/94/8
f 42/94/8 4/95/8 5/104/8
f 42/94/8 5/104/8 38/105/8
f 38/105/8 5/104/8 16/106/8
f 38/105/8 16/106/8 37/107/8
f 37/107/8 16/106/8 1/108/8
f 37/107/8 1/108/8 39/109/8
f 39/109/8 1/108/8 29/27/8
f 29/27/8 1/108/8 2/100/8
f 29/27/8 2/100/8 26/83/8
f 26/83/8 2/100/8 51/85/8
f 10/93/4 57/91/4 53/53/4
f 57/91/4 10/93/4 11/100/4
f 52/92/4 15/15/4 14/14/4
f 15/15/4 52/92/4 56/37/4
f 55/53/7 10/100/7 53/91/7
f 10/100/7 55/53/7 48/93/7

