# Created by Kenney (www.kenney.nl)

mtllib corridor_split.mtl

g corridor_split

v 0.2585787 0.9 -0.5
v 0.2585787 0.9 0.5
v 0.4 0.7585787 -0.5
v 0.4 0.7585787 0.5
v -0.4000001 2.255973E-17 0.5
v -0.4000001 5.347791E-09 0.4
v -0.5 0 0.5
v -0.5 9.674395E-09 0.4
v 0.3 1 0.5
v 0.2 1 0.5
v 0.3 1 -0.5
v 0.2 1 -0.5
v -0.3 1 0.3
v -0.3 1 0.5
v -0.5 0.8 0.5
v 0.5 0 -0.5
v 0.5 0.1 -0.5
v 0.4 9.674395E-09 -0.5
v 0.4 0.1 -0.5
v -0.5 0 -0.5
v -0.4000001 9.674395E-09 -0.5
v -0.5 0.1 -0.5
v -0.4000001 0.1 -0.5
v 0.5 0 0.5
v 0.4 2.255973E-17 0.5
v 0.5 0.8 -0.5
v 0.5 0.8 0.5
v -0.2 1 -0.5
v -0.2 1 -0.1999999
v -0.3 1 -0.5
v -0.3 1 -0.3
v -0.5 1 -0.1999999
v -0.5 1 -0.3
v 0.5 0.1 0.5
v -0.2585785 0.9 0.2585787
v -0.4000001 0.7585787 0.4
v -0.2585785 0.9 0.5
v -0.4000001 0.7585787 0.5
v -0.4000001 0.1 0.4
v -0.4000001 0.1 0.5
v -0.5 0.09999989 0.4
v -0.5 0.1 0.5
v -0.5 0.8 -0.5
v -0.5 1 0.3
v -0.2 1 0.5
v -0.2 1 0.2
v -0.5 1 0.2
v -0.5 9.674395E-09 -0.4
v -0.5 0.09999989 -0.4
v -0.4000001 9.190675E-09 -0.4
v -0.4000001 0.1 -0.4
v 0.4 0.1 0.5
v -0.4000001 0.7585787 -0.4
v -0.5 0.7585787 -0.4
v -0.2585785 0.9 -0.2585787
v -0.5 0.9 -0.2585787
v -0.4000001 0.7585787 -0.5
v -0.2585785 0.9 -0.5
v -0.5 0.7585787 0.4
v -0.5 0.9 0.2585787
v 0.5 0.2 0.5
v 0.5 0.4 0.5
v 0.5 0.4 -0.5
v 0.5 0.2 -0.5

vn -0.7071068 -0.7071068 0
vn 0 -1 0
vn 0 1 0
vn -0.7071068 0.7071068 0
vn 0 0 -1
vn 0.7071068 0.7071068 0
vn 1 0 0
vn 0.7071068 -0.7071067 0
vn -1 0 0
vn 0 0.7071068 -0.7071068
vn 0 0.7071068 0.7071068
vn 0 0 1
vn 0 -0.7071068 0.7071068
vn 0 -0.7071068 -0.7071068
vn -5.536659E-07 1 5.536659E-07
vn -5.536659E-07 1 -5.536659E-07

vt -19.68504 17.85643
vt 19.68504 17.85643
vt -19.68504 9.982417
vt 19.68504 9.982416
vt -15.74803 19.68504
vt -15.74803 15.74803
vt -19.68504 19.68504
vt -19.68504 15.74803
vt -11.81102 19.68504
vt -7.874017 19.68504
vt -11.81102 -19.68504
vt -7.874017 -19.68504
vt 11.81102 19.48719
vt 19.68504 19.48719
vt 19.68504 8.351655
vt -19.68504 -5.176076E-08
vt -19.68504 3.937008
vt -15.74803 3.291209E-07
vt -15.74803 3.937008
vt 19.68504 -6.502461E-09
vt 15.74803 3.743792E-07
vt 19.68504 3.937008
vt 15.74803 3.937008
vt 19.68504 19.68504
vt 19.68504 -19.68504
vt 15.74803 19.68504
vt 15.74803 -19.68504
vt -19.68504 8.351655
vt -19.68504 19.48719
vt 7.874015 -19.68504
vt 7.874016 -7.874015
vt 11.81102 -19.68504
vt 11.81102 -11.81102
vt 19.68504 -7.874015
vt 19.68504 -11.81102
vt 19.68504 0
vt -19.68504 0
vt -10.18026 17.85643
vt -15.74803 9.982419
vt -19.68504 17.85643
vt -19.68504 9.982418
vt -15.74803 1.08628E-07
vt -19.68504 -1.01915E-07
vt -15.74803 3.937008
vt -19.68504 3.937008
vt 15.74803 1.441535E-07
vt 15.74803 3.937003
vt 19.68504 -2.367282E-07
vt 19.68504 3.937008
vt -11.81102 19.48719
vt 7.874015 19.68504
vt 11.81102 19.68504
vt 7.874015 7.874017
vt 11.81102 11.81102
vt 19.68504 7.874017
vt 19.68504 11.81102
vt -19.68504 -2.367282E-07
vt -15.74803 1.441535E-07
vt -15.74803 3.937003
vt 15.74803 2.483666E-07
vt 19.68504 4.187053E-07
vt 19.68504 3.937004
vt 19.68504 2.934138E-07
vt 15.74803 2.743697E-07
vt 15.74803 3.937008
vt 19.68504 5.176076E-08
vt 15.74803 5.176076E-08
vt -15.74803 9.982417
vt -19.68504 9.982417
vt -10.18026 17.85643
vt -19.68504 17.85643
vt 19.68504 9.982419
vt 15.74803 9.982419
vt 19.68504 17.85644
vt 10.18026 17.85643
vt -11.81102 19.48719
vt -15.74803 3.24014E-07
vt -19.68504 3.430581E-07
vt -19.68504 3.937003
vt -19.68504 6.502461E-09
vt -15.74803 6.502462E-09
vt -19.68504 3.808817E-07
vt 19.68504 8.592869E-16
vt -19.68504 29.8653
vt 19.68504 29.8653
vt 15.74803 9.982417
vt 10.18026 17.85643
vt 19.68504 9.982417
vt 19.68504 17.85643
vt -15.74803 -15.74803
vt -15.74803 -19.68504
vt -19.68504 -15.74803
vt -19.68504 -19.68504
vt -10.18026 10.18026
vt -10.18026 -10.18026
vt -19.68504 10.18026
vt -19.68504 -10.18026
vt -10.18026 19.68504
vt 10.18026 -19.68504
vt 10.18026 19.68504
vt -10.18026 -19.68504
vt 19.68504 7.874016
vt 15.74803 29.8653
vt 19.68504 15.74803
vt 19.68504 31.49606
vt 10.18026 35.43307
vt 11.81102 39.37008
vt -10.18026 35.43307
vt -11.81102 39.37008
vt -19.68504 31.49606
vt -15.74803 29.8653
vt 7.874017 39.37008
vt -7.874015 39.37008
vt -15.74803 29.8653
vt -19.68504 29.8653
vt 19.68504 29.8653
vt 15.74803 29.8653
vt -19.68504 29.8653
vt -15.74803 29.8653
vt -19.68504 7.874016
vt 7.874015 39.37008
vt -7.874017 39.37008
vt 19.68504 29.8653
vt 15.74803 29.8653
vt 7.874017 39.37008
vt -7.874015 39.37008
vt -10.18026 35.43307
vt -11.81102 39.37008

usemtl metalDark

f 3/3/1 2/2/1 1/1/1
f 2/2/1 3/3/1 4/4/1
f 7/7/2 6/6/2 5/5/2
f 6/6/2 7/7/2 8/8/2
f 11/11/3 10/10/3 9/9/3
f 10/10/3 11/11/3 12/12/3
f 15/15/4 14/14/4 13/13/4
f 18/18/5 17/17/5 16/16/5
f 17/17/5 18/18/5 19/19/5
f 22/22/5 21/21/5 20/20/5
f 21/21/5 22/22/5 23/23/5
f 25/26/2 16/25/2 24/24/2
f 16/25/2 25/26/2 18/27/2
f 11/14/6 27/28/6 26/15/6
f 27/28/6 11/14/6 9/29/6
f 30/32/3 29/31/3 28/30/3
f 29/31/3 30/32/3 31/33/3
f 31/33/3 32/34/3 29/31/3
f 32/34/3 31/33/3 33/35/3
f 34/17/7 16/36/7 17/22/7
f 16/36/7 34/17/7 24/37/7
f 37/40/8 36/39/8 35/38/8
f 36/39/8 37/40/8 38/41/8
f 39/44/7 5/43/7 6/42/7
f 5/43/7 39/44/7 40/45/7
f 7/48/9 41/47/9 8/46/9
f 41/47/9 7/48/9 42/49/9
f 43/15/10 33/14/10 31/13/10
f 44/29/11 15/28/11 13/50/11
f 46/53/3 14/52/3 45/51/3
f 14/52/3 46/53/3 13/54/3
f 13/54/3 46/53/3 47/55/3
f 13/54/3 47/55/3 44/56/3
f 48/58/9 22/45/9 20/57/9
f 22/45/9 48/58/9 49/59/9
f 8/61/5 39/23/5 6/60/5
f 39/23/5 8/61/5 41/62/5
f 23/49/7 50/64/7 21/63/7
f 50/64/7 23/49/7 51/65/7
f 34/22/12 25/67/12 24/66/12
f 25/67/12 34/22/12 52/23/12
f 55/70/13 54/69/13 53/68/13
f 54/69/13 55/70/13 56/71/13
f 58/74/8 53/73/8 57/72/8
f 53/73/8 58/74/8 55/75/8
f 43/28/4 31/76/4 30/29/4
f 51/19/12 48/78/12 50/77/12
f 48/78/12 51/19/12 49/79/12
f 5/81/12 42/17/12 7/80/12
f 42/17/12 5/81/12 40/19/12
f 25/83/9 19/17/9 18/82/9
f 19/17/9 25/83/9 3/84/9
f 3/84/9 25/83/9 4/85/9
f 4/85/9 25/83/9 52/22/9
f 59/88/14 35/87/14 36/86/14
f 35/87/14 59/88/14 60/89/14
f 48/92/2 21/91/2 50/90/2
f 21/91/2 48/92/2 20/93/2
f 60/96/2 55/95/2 35/94/2
f 55/95/2 60/96/2 56/97/2
f 55/95/2 37/98/2 35/94/2
f 1/99/2 37/98/2 55/95/2
f 37/98/2 1/99/2 2/100/2
f 1/99/2 55/95/2 58/101/2

usemtl metal

f 61/102/12 52/23/12 34/22/12
f 52/23/12 61/102/12 4/103/12
f 4/103/12 61/102/12 62/104/12
f 4/103/12 62/104/12 27/105/12
f 4/103/12 27/105/12 2/106/12
f 2/106/12 27/105/12 9/107/12
f 2/106/12 9/107/12 37/108/12
f 14/109/12 37/108/12 9/107/12
f 15/110/12 37/108/12 14/109/12
f 15/110/12 38/111/12 37/108/12
f 15/110/12 40/19/12 38/111/12
f 40/19/12 15/110/12 42/17/12
f 14/109/12 9/107/12 10/112/12
f 14/109/12 10/112/12 45/113/12
f 36/114/7 40/45/7 39/44/7
f 40/45/7 36/114/7 38/115/7
f 57/116/7 51/65/7 23/49/7
f 51/65/7 57/116/7 53/117/7
f 27/110/7 63/104/7 26/105/7
f 63/104/7 27/110/7 62/8/7
f 51/19/12 54/118/12 49/79/12
f 54/118/12 51/19/12 53/119/12
f 12/12/3 45/51/3 10/10/3
f 45/51/3 12/12/3 28/30/3
f 45/51/3 28/30/3 46/53/3
f 46/53/3 28/30/3 29/31/3
f 46/53/3 29/31/3 47/55/3
f 47/55/3 29/31/3 32/34/3
f 43/105/5 23/23/5 22/22/5
f 23/23/5 43/105/5 57/103/5
f 57/103/5 43/105/5 58/106/5
f 58/106/5 43/105/5 30/107/5
f 11/109/5 58/106/5 30/107/5
f 11/109/5 1/108/5 58/106/5
f 26/110/5 1/108/5 11/109/5
f 26/110/5 3/111/5 1/108/5
f 63/8/5 3/111/5 26/110/5
f 64/120/5 3/111/5 63/8/5
f 64/120/5 19/19/5 3/111/5
f 19/19/5 64/120/5 17/17/5
f 11/109/5 30/107/5 28/121/5
f 11/109/5 28/121/5 12/122/5
f 59/123/5 39/23/5 41/62/5
f 39/23/5 59/123/5 36/124/5
f 42/49/9 59/103/9 41/47/9
f 15/105/9 59/103/9 42/49/9
f 44/107/9 59/103/9 15/105/9
f 44/107/9 60/106/9 59/103/9
f 47/125/9 60/106/9 44/107/9
f 32/126/9 60/106/9 47/125/9
f 32/126/9 56/127/9 60/106/9
f 33/128/9 56/127/9 32/126/9
f 33/128/9 54/119/9 56/127/9
f 43/110/9 54/119/9 33/128/9
f 43/110/9 49/59/9 54/119/9
f 49/59/9 43/110/9 22/45/9
f 61/120/7 17/22/7 64/102/7
f 17/22/7 61/120/7 34/17/7

usemtl metalRed

f 62/8/7 64/102/7 63/104/7
f 64/102/7 62/8/7 61/120/7

usemtl _defaultMat

f 23/102/15 49/8/15 51/120/15
f 49/102/15 23/8/15 22/120/15
f 41/87/16 40/88/16 39/89/16
f 40/87/16 41/88/16 42/89/16

