# Created by Kenney (www.kenney.nl)

mtllib corridor_open.mtl

g corridor_open

v 0.5 0.1 -0.4
v 0.5 0.6 -0.3
v 0.5 0.7 -0.4
v 0.5 0.7 0.4
v 0.5 0.6 0.3
v 0.5 3.609557E-16 0.3
v 0.5 0.1 0.4
v 0.5 0 0.5
v 0.5 0.1 0.5
v 0.5 3.609557E-16 -0.3
v 0.5 0 -0.5
v 0.5 0.1 -0.5
v 0.3 1 -0.5
v 0.3 1 -0.4
v -0.3 1 -0.5
v -0.3 1 -0.4
v 0.4 0.9 -0.4
v 0.2585787 0.9 -0.4
v -0.2585785 0.9 -0.4
v -0.4000001 0.9 -0.4
v 0.4 0.9 0.4
v 0.3 0.9 -0.3
v -0.3 0.9 -0.3
v -0.3 0.9 0.3
v 0.3 0.9 0.3
v 0.2585787 0.9 0.4
v -0.2585785 0.9 0.4
v -0.4000001 0.9 0.4
v 0.4 0.7585787 -0.4
v 0.3 0.7585787 0.3
v 0.4 0.7585787 0.4
v -0.4000001 0.7585787 0.4
v -0.3 0.7585787 0.3
v -0.3 0.7585787 -0.3
v 0.3 0.7585787 -0.3
v -0.4000001 0.7585787 -0.4
v 0.4 0 -0.5
v 0.4 3.609557E-16 -0.3
v 0.5 0.8 0.5
v 0.5 0.8 -0.5
v 0.3 1 0.5
v 0.3 1 0.4
v 0.3 1 0.45
v -0.3 1 0.4
v -0.3 1 0.5
v -0.4000001 0.6 -0.3
v -0.4000001 0.6 0.3
v -0.4000001 3.609557E-16 0.3
v -0.4000001 0 0.5
v -0.4000001 0.7585787 0.5
v -0.4000001 0.1 0.5
v -0.4000001 3.609557E-16 -0.3
v -0.4000001 0 -0.5
v -0.4000001 0.1 -0.5
v -0.4000001 0.7585787 -0.5
v -0.5 0.8 -0.5
v -0.5 0.8 0.5
v -0.5 0 0.5
v -0.5 3.609557E-16 0.3
v 0.4 3.609557E-16 0.3
v 0.4 0.6 0.3
v 0.4 0 0.5
v 0.4 0.7585787 0.5
v 0.4 0.1 0.5
v 0.4 0.6 -0.3
v 0.4 0.7585787 -0.5
v 0.4 0.1 -0.5
v 0.2585787 0.9 0.5
v 0.2585787 0.9 -0.5
v -0.2585785 0.9 0.5
v -0.2585785 0.9 -0.5
v -0.5 0.1 0.5
v -0.5 0 -0.5
v -0.5 0.1 -0.5
v -0.5 3.609557E-16 -0.3
v -0.5 0.6 0.3
v -0.5 0.1 0.4
v -0.5 0.7 0.4
v -0.5 0.6 -0.3
v -0.5 0.7 -0.4
v -0.5 0.1 -0.4

vn 1 0 0
vn 0 1 0
vn 0 0 1
vn 0 -1 0
vn 0.7071068 0.7071068 0
vn 0 0 -1
vn -0.7071068 0.7071068 0
vn -1 0 0
vn -0.7071068 -0.7071068 0
vn 0.7071068 -0.7071068 0

vt 15.74803 3.937008
vt 11.81102 23.62205
vt 15.74803 27.55906
vt -15.74803 27.55906
vt -11.81102 23.62205
vt -11.81102 -1.420898E-13
vt -15.74803 3.937008
vt -19.68504 -1.563007E-13
vt -19.68504 3.937008
vt 11.81102 -1.420898E-13
vt 19.68504 -1.563007E-13
vt 19.68504 3.937008
vt -11.81102 -19.68504
vt -11.81102 -15.74803
vt 11.81102 -19.68504
vt 11.81102 -15.74803
vt 15.74803 35.43307
vt 10.18026 35.43307
vt 11.81102 39.37008
vt -10.18026 35.43307
vt -11.81102 39.37008
vt -15.74803 35.43307
vt -15.74803 15.74803
vt -11.81102 -11.81102
vt -15.74803 -15.74803
vt -10.18026 -15.74803
vt 11.81102 -11.81102
vt 10.18026 -15.74803
vt 15.74803 -15.74803
vt 11.81102 11.81102
vt -11.81102 11.81102
vt -10.18026 15.74803
vt 10.18026 15.74803
vt 15.74803 15.74803
vt 19.68504 -19.68504
vt 15.74803 -19.68504
vt 19.68504 -11.81102
vt 15.74803 -11.81102
vt -19.68504 8.351655
vt 15.74803 13.91943
vt 19.68504 8.351655
vt 19.68504 19.48719
vt 15.74803 19.48719
vt -15.74803 13.91943
vt -19.68504 19.48719
vt -15.74803 19.48719
vt -17.71654 19.48719
vt -11.81102 15.74803
vt -11.81102 17.71654
vt 11.81102 15.74803
vt 11.81102 19.68504
vt -11.81102 19.68504
vt 15.74803 29.8653
vt -15.74803 29.8653
vt -11.81102 1.421085E-14
vt -19.68504 0
vt -19.68504 29.8653
vt 11.81102 1.421085E-14
vt 19.68504 0
vt 19.68504 29.8653
vt -15.74803 19.68504
vt -15.74803 11.81102
vt -19.68504 19.68504
vt -19.68504 11.81102
vt 11.81102 7.451123E-15
vt 19.68504 -6.759732E-15
vt -11.81102 7.451123E-15
vt -19.68504 -6.759732E-15
vt 15.74803 0
vt 15.74803 9.982417
vt 15.74803 17.85643
vt 19.68504 9.982417
vt 19.68504 17.85643
vt -15.74803 9.982417
vt -19.68504 9.982417
vt -15.74803 17.85643
vt -19.68504 17.85643
vt 10.18026 -19.68504
vt -10.18026 -19.68504
vt 10.18026 19.68504
vt -10.18026 19.68504
vt -15.74803 0
vt 19.68504 19.68504
vt 19.68504 11.81102
vt 15.74803 19.68504
vt 15.74803 11.81102
vt -15.74803 -11.81102
vt -15.74803 -19.68504
vt -19.68504 -11.81102
vt -19.68504 -19.68504
vt 19.68504 31.49606
vt -19.68504 31.49606
vt -15.74803 1.421085E-14
vt -19.68504 1.421085E-14
vt -15.74803 23.62205
vt -19.68504 23.62205
vt 11.81102 29.8653
vt -11.81102 29.8653
vt 11.81102 35.43307
vt -11.81102 35.43307
vt 19.68504 1.421085E-14
vt 15.74803 1.421085E-14
vt 19.68504 23.62205
vt 15.74803 23.62205

usemtl metalDark

f 3/3/1 2/2/1 1/1/1
f 2/2/1 3/3/1 4/4/1
f 2/2/1 4/4/1 5/5/1
f 5/5/1 4/4/1 6/6/1
f 6/6/1 4/4/1 7/7/1
f 6/6/1 7/7/1 8/8/1
f 8/8/1 7/7/1 9/9/1
f 10/10/1 1/1/1 2/2/1
f 11/11/1 1/1/1 10/10/1
f 1/1/1 11/11/1 12/12/1
f 15/15/2 14/14/2 13/13/2
f 14/14/2 15/15/2 16/16/2
f 14/19/3 18/18/3 17/17/3
f 18/18/3 14/19/3 19/20/3
f 16/21/3 19/20/3 14/19/3
f 19/20/3 16/21/3 20/22/3
f 17/25/2 22/24/2 21/23/2
f 22/24/2 17/25/2 18/26/2
f 22/24/2 18/26/2 23/27/2
f 23/27/2 18/26/2 19/28/2
f 23/27/2 19/28/2 20/29/2
f 23/27/2 20/29/2 24/30/2
f 25/31/2 21/23/2 22/24/2
f 21/23/2 25/31/2 26/32/2
f 26/32/2 25/31/2 24/30/2
f 26/32/2 24/30/2 27/33/2
f 27/33/2 24/30/2 28/34/2
f 28/34/2 24/30/2 20/29/2
f 31/34/4 30/30/4 29/29/4
f 30/30/4 31/34/4 32/23/4
f 30/30/4 32/23/4 33/31/4
f 33/31/4 32/23/4 34/24/4
f 35/27/4 29/29/4 30/30/4
f 29/29/4 35/27/4 36/25/4
f 36/25/4 35/27/4 34/24/4
f 36/25/4 34/24/4 32/23/4
f 10/37/4 37/36/4 11/35/4
f 37/36/4 10/37/4 38/38/4
f 40/41/5 17/40/5 39/39/5
f 17/40/5 40/41/5 13/42/5
f 17/40/5 13/42/5 14/43/5
f 21/44/5 39/39/5 17/40/5
f 39/39/5 21/44/5 41/45/5
f 41/45/5 21/44/5 42/46/5
f 41/45/5 42/46/5 43/47/5
f 44/19/6 27/18/6 28/17/6
f 42/21/6 27/18/6 44/19/6
f 21/22/6 27/18/6 42/21/6
f 27/18/6 21/22/6 26/20/6
f 44/50/2 43/49/2 42/48/2
f 45/51/2 43/49/2 44/50/2
f 43/49/2 45/51/2 41/52/2
f 32/54/1 46/2/1 36/53/1
f 46/2/1 32/54/1 47/5/1
f 47/5/1 32/54/1 48/55/1
f 48/55/1 32/54/1 49/56/1
f 49/56/1 32/54/1 50/57/1
f 49/56/1 50/57/1 51/9/1
f 52/58/1 36/53/1 46/2/1
f 53/59/1 36/53/1 52/58/1
f 54/12/1 36/53/1 53/59/1
f 36/53/1 54/12/1 55/60/1
f 26/18/3 32/54/3 31/53/3
f 32/54/3 26/18/3 27/20/3
f 56/39/7 16/46/7 15/45/7
f 16/46/7 56/39/7 20/44/7
f 20/44/7 56/39/7 28/40/7
f 57/41/7 28/40/7 56/39/7
f 45/42/7 28/40/7 57/41/7
f 28/40/7 45/42/7 44/43/7
f 58/63/4 48/62/4 49/61/4
f 48/62/4 58/63/4 59/64/4
f 62/66/8 61/2/8 60/65/8
f 61/2/8 62/66/8 31/53/8
f 31/53/8 62/66/8 63/60/8
f 63/60/8 62/66/8 64/12/8
f 31/53/8 65/5/8 61/2/8
f 29/54/8 65/5/8 31/53/8
f 29/54/8 38/67/8 65/5/8
f 66/57/8 38/67/8 29/54/8
f 67/9/8 38/67/8 66/57/8
f 38/67/8 67/9/8 37/68/8
f 9/12/3 62/69/3 8/59/3
f 62/69/3 9/12/3 64/1/3
f 63/72/9 26/71/9 31/70/9
f 26/71/9 63/72/9 68/73/9
f 18/76/9 66/75/9 29/74/9
f 66/75/9 18/76/9 69/77/9
f 50/75/10 27/76/10 70/77/10
f 27/76/10 50/75/10 32/74/10
f 19/26/4 69/78/4 18/28/4
f 69/78/4 19/26/4 71/79/4
f 70/81/4 26/33/4 68/80/4
f 26/33/4 70/81/4 27/32/4
f 36/70/10 71/73/10 19/71/10
f 71/73/10 36/70/10 55/72/10
f 19/18/6 29/54/6 36/53/6
f 29/54/6 19/18/6 18/20/6
f 51/7/3 58/56/3 49/82/3
f 58/56/3 51/7/3 72/9/3
f 67/7/6 11/56/6 37/82/6
f 11/56/6 67/7/6 12/9/6
f 74/12/6 53/69/6 73/59/6
f 53/69/6 74/12/6 54/1/6
f 62/85/4 6/84/4 8/83/4
f 6/84/4 62/85/4 60/86/4
f 75/89/4 53/88/4 52/87/4
f 53/88/4 75/89/4 73/90/4
f 59/58/8 77/1/8 76/2/8
f 77/1/8 59/58/8 58/59/8
f 77/1/8 58/59/8 72/12/8
f 78/3/8 76/2/8 77/1/8
f 78/3/8 79/5/8 76/2/8
f 80/4/8 79/5/8 78/3/8
f 80/4/8 75/55/8 79/5/8
f 81/7/8 75/55/8 80/4/8
f 74/9/8 75/55/8 81/7/8
f 75/55/8 74/9/8 73/56/8

usemtl metal

f 72/12/8 78/3/8 77/1/8
f 57/91/8 78/3/8 72/12/8
f 57/91/8 80/4/8 78/3/8
f 56/92/8 80/4/8 57/91/8
f 56/92/8 81/7/8 80/4/8
f 81/7/8 56/92/8 74/9/8
f 40/91/1 3/3/1 12/12/1
f 3/3/1 40/91/1 39/92/1
f 3/3/1 39/92/1 4/4/1
f 4/4/1 39/92/1 7/7/1
f 7/7/1 39/92/1 9/9/1
f 1/1/1 12/12/1 3/3/1
f 46/95/3 75/94/3 52/93/3
f 75/94/3 46/95/3 79/96/3
f 76/64/4 46/87/4 47/62/4
f 46/87/4 76/64/4 79/89/4
f 22/99/3 34/98/3 35/97/3
f 34/98/3 22/99/3 23/100/3
f 30/97/8 22/100/8 35/98/8
f 22/100/8 30/97/8 25/99/8
f 76/103/6 48/102/6 59/101/6
f 48/102/6 76/103/6 47/104/6
f 2/103/3 38/102/3 10/101/3
f 38/102/3 2/103/3 65/104/3
f 24/100/1 34/97/1 23/99/1
f 34/97/1 24/100/1 33/98/1
f 74/12/6 55/53/6 54/1/6
f 55/53/6 74/12/6 56/91/6
f 55/53/6 56/91/6 71/18/6
f 71/18/6 56/91/6 15/19/6
f 13/21/6 71/18/6 15/19/6
f 13/21/6 69/20/6 71/18/6
f 40/92/6 69/20/6 13/21/6
f 40/92/6 66/54/6 69/20/6
f 40/92/6 67/7/6 66/54/6
f 67/7/6 40/92/6 12/9/6
f 5/84/4 65/38/4 2/37/4
f 65/38/4 5/84/4 61/86/4
f 24/99/6 30/98/6 33/97/6
f 30/98/6 24/99/6 25/100/6
f 61/95/6 6/94/6 60/93/6
f 6/94/6 61/95/6 5/96/6
f 39/91/3 64/1/3 9/12/3
f 64/1/3 39/91/3 63/53/3
f 63/53/3 39/91/3 68/18/3
f 68/18/3 39/91/3 41/19/3
f 68/18/3 41/19/3 70/20/3
f 45/21/3 70/20/3 41/19/3
f 57/92/3 70/20/3 45/21/3
f 57/92/3 50/54/3 70/20/3
f 72/9/3 50/54/3 57/92/3
f 50/54/3 72/9/3 51/7/3

