# Created by Kenney (www.kenney.nl)

mtllib corridor.mtl

g corridor

v 0.5 0 0.5
v 0.5 0 -0.5
v 0.4 9.674395E-09 0.5
v 0.4 2.255973E-17 -0.5
v -0.5 0 -0.5
v -0.5 0.1 -0.5
v -0.5 0 0.5
v -0.5 0.1 0.5
v -0.2 1 -0.5
v -0.2 1 0.5
v -0.3 1 -0.5
v -0.3 1 0.5
v -0.5 0.8 -0.5
v -0.5 0.8 0.5
v 0.3 1 -0.5
v 0.5 0.8 -0.5
v 0.3 1 0.5
v 0.5 0.8 0.5
v 0.5 0.1 -0.5
v 0.5 0.1 0.5
v -0.4000001 2.255973E-17 -0.5
v -0.4000001 0.1 -0.5
v 0.2 1 -0.5
v 0.2 1 0.5
v -0.4000001 0.7585787 -0.5
v -0.4000001 0.7585787 0.5
v -0.4000001 0.1 0.5
v -0.4000001 9.674395E-09 0.5
v 0.4 0.7585787 -0.5
v 0.4 0.7585787 0.5
v 0.4 0.1 -0.5
v 0.4 0.1 0.5
v 0.2585787 0.9 -0.5
v 0.2585787 0.9 0.5
v -0.2585785 0.9 0.5
v -0.2585785 0.9 -0.5
v 0.5 0.4 -0.5
v 0.5 0.4 0.5
v 0.5 0.2 0.5
v -0.5 0.4 0.5
v -0.5 0.2 0.5
v -0.5 0.4 -0.5
v -0.5 0.2 -0.5
v 0.5 0.2 -0.5

vn 0 -1 0
vn -1 0 0
vn 0 1 0
vn -0.7071068 0.7071068 0
vn 0.7071068 0.7071068 0
vn 1 0 0
vn 0 0 -1
vn -0.7071068 -0.7071068 0
vn 0.7071068 -0.7071068 0
vn 0 0 1

vt 19.68504 19.68504
vt 19.68504 -19.68504
vt 15.74803 19.68504
vt 15.74803 -19.68504
vt -19.68504 0
vt -19.68504 3.937008
vt 19.68504 0
vt 19.68504 3.937008
vt 7.874017 -19.68504
vt 7.874017 19.68504
vt 11.81102 -19.68504
vt 11.81102 19.68504
vt -19.68504 8.351655
vt -19.68504 19.48719
vt 19.68504 8.351655
vt 19.68504 19.48719
vt 19.68504 5.176076E-08
vt 15.74803 5.176076E-08
vt 15.74803 3.937008
vt -11.81102 -19.68504
vt -11.81102 19.68504
vt -7.874015 -19.68504
vt -7.874015 19.68504
vt 19.68504 29.8653
vt -19.68504 29.8653
vt 19.68504 8.592869E-16
vt -19.68504 3.808817E-07
vt -19.68504 8.979358E-16
vt 19.68504 3.808817E-07
vt -19.68504 17.85643
vt 19.68504 17.85643
vt -19.68504 9.982416
vt 19.68504 9.982417
vt 10.18026 19.68504
vt 10.18026 -19.68504
vt -10.18026 19.68504
vt -10.18026 -19.68504
vt 19.68504 9.982416
vt -19.68504 9.982417
vt -15.74803 19.68504
vt -15.74803 -19.68504
vt -19.68504 19.68504
vt -19.68504 -19.68504
vt -19.68504 -5.176076E-08
vt -19.68504 3.937008
vt -15.74803 3.291209E-07
vt -15.74803 3.937008
vt 19.68504 -6.502461E-09
vt 15.74803 3.743792E-07
vt 19.68504 3.937008
vt 15.74803 3.937008
vt -19.68504 6.502461E-09
vt -15.74803 6.502462E-09
vt -15.74803 3.937008
vt 19.68504 31.49606
vt 19.68504 15.74803
vt -19.68504 31.49606
vt -19.68504 15.74803
vt 19.68504 7.874016
vt 15.74803 29.8653
vt 10.18026 35.43307
vt 11.81102 39.37008
vt -11.81102 39.37008
vt -10.18026 35.43307
vt -15.74803 29.8653
vt -19.68504 7.874016
vt 7.874015 39.37008
vt -7.874017 39.37008
vt 7.874017 39.37008
vt -7.874015 39.37008

usemtl metalDark

f 3/3/1 2/2/1 1/1/1
f 2/2/1 3/3/1 4/4/1
f 7/7/2 6/6/2 5/5/2
f 6/6/2 7/7/2 8/8/2
f 11/11/3 10/10/3 9/9/3
f 10/10/3 11/11/3 12/12/3
f 14/15/4 11/14/4 13/13/4
f 11/14/4 14/15/4 12/16/4
f 17/14/5 16/15/5 15/16/5
f 16/15/5 17/14/5 18/13/5
f 20/6/6 2/7/6 19/8/6
f 2/7/6 20/6/6 1/5/6
f 6/8/7 21/18/7 5/17/7
f 21/18/7 6/8/7 22/19/7
f 23/22/3 17/21/3 15/20/3
f 17/21/3 23/22/3 24/23/3
f 26/25/6 22/8/6 25/24/6
f 22/8/6 26/25/6 21/26/6
f 21/26/6 26/25/6 27/6/6
f 21/26/6 27/6/6 28/27/6
f 31/6/2 30/24/2 29/25/2
f 30/24/2 31/6/2 4/28/2
f 30/24/2 4/28/2 32/8/2
f 32/8/2 4/28/2 3/29/2
f 29/32/8 34/31/8 33/30/8
f 34/31/8 29/32/8 30/33/8
f 35/36/1 33/35/1 34/34/1
f 33/35/1 35/36/1 36/37/1
f 36/31/9 26/39/9 25/38/9
f 26/39/9 36/31/9 35/30/9
f 7/42/1 21/41/1 28/40/1
f 21/41/1 7/42/1 5/43/1
f 28/46/10 8/45/10 7/44/10
f 8/45/10 28/46/10 27/47/10
f 20/50/10 3/49/10 1/48/10
f 3/49/10 20/50/10 32/51/10
f 4/53/7 19/6/7 2/52/7
f 19/6/7 4/53/7 31/54/7

usemtl metal

f 18/57/6 37/56/6 16/55/6
f 37/56/6 18/57/6 38/58/6
f 39/59/10 32/51/10 20/50/10
f 32/51/10 39/59/10 30/60/10
f 30/60/10 39/59/10 38/56/10
f 30/60/10 38/56/10 18/55/10
f 30/60/10 18/55/10 34/61/10
f 34/61/10 18/55/10 17/62/10
f 12/63/10 34/61/10 17/62/10
f 12/63/10 35/64/10 34/61/10
f 14/57/10 35/64/10 12/63/10
f 14/57/10 26/65/10 35/64/10
f 40/58/10 26/65/10 14/57/10
f 41/66/10 26/65/10 40/58/10
f 41/66/10 27/47/10 26/65/10
f 27/47/10 41/66/10 8/45/10
f 12/63/10 17/62/10 24/67/10
f 12/63/10 24/67/10 10/68/10
f 40/56/2 13/57/2 42/58/2
f 13/57/2 40/56/2 14/55/2
f 8/8/2 43/66/2 6/6/2
f 43/66/2 8/8/2 41/59/2
f 39/66/6 19/8/6 44/59/6
f 19/8/6 39/66/6 20/6/6
f 9/9/3 24/23/3 23/22/3
f 24/23/3 9/9/3 10/10/3
f 43/59/7 22/19/7 6/8/7
f 22/19/7 43/59/7 25/60/7
f 25/60/7 43/59/7 42/56/7
f 25/60/7 42/56/7 13/55/7
f 25/60/7 13/55/7 36/61/7
f 36/61/7 13/55/7 11/62/7
f 36/61/7 11/62/7 33/64/7
f 15/63/7 33/64/7 11/62/7
f 16/57/7 33/64/7 15/63/7
f 16/57/7 29/65/7 33/64/7
f 37/58/7 29/65/7 16/57/7
f 44/66/7 29/65/7 37/58/7
f 44/66/7 31/54/7 29/65/7
f 31/54/7 44/66/7 19/6/7
f 15/63/7 11/62/7 9/69/7
f 15/63/7 9/69/7 23/70/7

usemtl metalRed

f 41/59/2 42/58/2 43/66/2
f 42/58/2 41/59/2 40/56/2
f 38/58/6 44/59/6 37/56/6
f 44/59/6 38/58/6 39/66/6

