# Created by Kenney (www.kenney.nl)

mtllib corridor_cross.mtl

g corridor_cross

v 0.5 -4.511946E-17 -0.5
v 0.4000001 -2.255973E-17 -0.5
v 0.5 9.674395E-09 -0.4
v 0.4000001 5.347791E-09 -0.4
v 0.5 0.8 -0.5
v 0.3 1 -0.3
v 0.3 1 -0.5
v 0.5 -4.511946E-17 0.5000001
v 0.4000001 9.674395E-09 0.5000001
v 0.5 0.1 0.5000001
v 0.4000001 0.1 0.5000001
v 0.4 0.7585787 0.4000001
v 0.5 0.7585787 0.4000001
v 0.2585787 0.9 0.2585787
v 0.5 0.9 0.2585787
v 0.5 0.8 0.5000001
v 0.3 1 0.5000001
v 0.3 1 0.3
v -0.2585785 0.9 0.2585787
v -0.2585785 0.9 -0.2585787
v -0.5 0.9 0.2585787
v -0.5 0.9 -0.2585787
v -0.2585785 0.9 0.5
v 0.2585787 0.9 -0.5
v 0.2585787 0.9 -0.2585787
v 0.2585787 0.9 0.5
v -0.2585785 0.9 -0.5
v 0.5 0.9 -0.2585787
v 0.4000001 0.7585787 0.5000001
v 0.5 1 -0.2
v 0.2 1 -0.2
v 0.5 1 -0.3
v 0.2 1 -0.5
v 0.5 9.674395E-09 0.4000001
v 0.4000001 9.190675E-09 0.4000001
v 0.5 0.1 -0.5
v 0.5 0.09999989 -0.4
v 0.5 0.09999989 0.4000001
v 0.4000001 0.1 -0.4
v 0.4000001 0.1 0.4000001
v 0.4000001 0.1 -0.5
v 0.5 1 0.2
v 0.5 1 0.3
v 0.2 1 0.2
v 0.2 1 0.5
v 0.4000001 0.7585787 -0.5
v 0.4 0.7585787 -0.4
v 0.5 0.7585787 -0.4
v -0.4000001 2.255973E-17 0.5
v -0.4000001 5.347791E-09 0.4
v -0.5 0 0.5
v -0.5 9.674395E-09 0.4
v -0.3 1 0.3
v -0.3 1 0.5
v -0.5 0.8 0.5
v -0.5 0 -0.5
v -0.4000001 9.674395E-09 -0.5
v -0.5 0.1 -0.5
v -0.4000001 0.1 -0.5
v -0.2 1 -0.5
v -0.2 1 -0.1999999
v -0.3 1 -0.5
v -0.3 1 -0.3
v -0.5 1 -0.1999999
v -0.5 1 -0.3
v -0.4000001 0.7585787 0.4
v -0.4000001 0.7585787 0.5
v -0.4000001 0.1 0.4
v -0.4000001 0.1 0.5
v -0.5 0.09999989 0.4
v -0.5 0.1 0.5
v -0.5 0.8 -0.5
v -0.5 1 0.3
v -0.2 1 0.5
v -0.2 1 0.2
v -0.5 1 0.2
v -0.5 9.674395E-09 -0.4
v -0.5 0.09999989 -0.4
v -0.4000001 9.190675E-09 -0.4
v -0.4000001 0.1 -0.4
v -0.4000001 0.7585787 -0.4
v -0.5 0.7585787 -0.4
v -0.4000001 0.7585787 -0.5
v -0.5 0.7585787 0.4

vn 0 -1 0
vn 0.7071068 0.7071068 0
vn 0 0 1
vn 0 -0.7071068 -0.7071068
vn -0.7071068 -0.7071067 0
vn 0 1 0
vn 1 0 0
vn 0 0 -1
vn -1 0 0
vn 0 0.7071068 0.7071068
vn 0 0.7071068 -0.7071068
vn 0 -0.7071068 0.7071068
vn -0.7071068 0.7071068 0
vn 0.7071068 -0.7071067 0
vn 5.536659E-07 1 5.536659E-07
vn 5.536659E-07 1 -5.536659E-07
vn -5.536659E-07 1 5.536659E-07
vn -5.536659E-07 1 -5.536659E-07

vt 19.68504 -19.68504
vt 15.74803 -19.68504
vt 19.68504 -15.74803
vt 15.74803 -15.74803
vt 19.68504 8.351654
vt 11.81102 19.48719
vt 19.68504 19.48719
vt 19.68504 -6.502463E-09
vt 15.74803 3.743792E-07
vt 19.68504 3.937008
vt 15.74803 3.937008
vt -15.74803 9.982416
vt -19.68504 9.982416
vt -10.18026 17.85643
vt -19.68504 17.85643
vt -19.68504 8.351654
vt -19.68504 19.48719
vt -11.81102 19.48719
vt -10.18026 10.18026
vt -10.18026 -10.18026
vt -19.68504 10.18026
vt -19.68504 -10.18026
vt -10.18026 19.68504
vt 10.18026 -19.68504
vt 10.18026 -10.18026
vt 10.18026 10.18026
vt 10.18026 19.68504
vt -10.18026 -19.68504
vt 19.68504 -10.18026
vt 19.68504 10.18026
vt 10.18026 17.85643
vt 19.68504 17.85643
vt 15.74803 9.982419
vt 19.68504 9.982418
vt -19.68504 -7.874015
vt -7.874017 -7.874015
vt -19.68504 -11.81102
vt -11.81102 -11.81102
vt -11.81102 -19.68504
vt -7.874017 -19.68504
vt 19.68504 19.68504
vt 19.68504 15.74803
vt 15.74803 19.68504
vt 15.74803 15.74803
vt 19.68504 3.937008
vt 19.68504 -2.367283E-07
vt 15.74803 3.937003
vt 15.74803 1.441534E-07
vt -15.74803 3.937003
vt -15.74803 1.441534E-07
vt -19.68504 3.937008
vt -19.68504 -2.367283E-07
vt 15.74803 2.483666E-07
vt 19.68504 4.187053E-07
vt 19.68504 3.937004
vt -15.74803 3.24014E-07
vt -19.68504 3.43058E-07
vt -15.74803 3.937008
vt -19.68504 3.937003
vt -19.68504 3.937008
vt -15.74803 3.937008
vt -19.68504 -1.01915E-07
vt -15.74803 1.08628E-07
vt -19.68504 7.874017
vt -19.68504 11.81102
vt -7.874017 7.874017
vt -11.81102 11.81102
vt -7.874017 19.68504
vt -11.81102 19.68504
vt 19.68504 19.48719
vt 19.68504 8.351653
vt 11.81102 19.48719
vt -11.81102 19.4872
vt -19.68504 8.351656
vt -19.68504 19.4872
vt -19.68504 17.85643
vt -10.18026 17.85643
vt -19.68504 9.982417
vt -15.74803 9.982418
vt 15.74803 3.937008
vt 19.68504 3.937008
vt 15.74803 2.743697E-07
vt 19.68504 2.934138E-07
vt 15.74803 9.982418
vt 10.18026 17.85643
vt 19.68504 9.982418
vt 19.68504 17.85643
vt -19.68504 6.502459E-09
vt -19.68504 3.937008
vt -15.74803 6.502459E-09
vt -15.74803 3.937008
vt -15.74803 19.68504
vt -15.74803 15.74803
vt -19.68504 19.68504
vt -19.68504 15.74803
vt 11.81102 19.48719
vt 19.68504 8.351655
vt 19.68504 -6.502461E-09
vt 15.74803 3.743792E-07
vt 15.74803 3.937008
vt 7.874015 -19.68504
vt 7.874016 -7.874015
vt 11.81102 -19.68504
vt 11.81102 -11.81102
vt 19.68504 -7.874015
vt 19.68504 -11.81102
vt -10.18026 17.85643
vt -15.74803 9.982419
vt -19.68504 9.982418
vt -15.74803 1.08628E-07
vt -19.68504 -1.01915E-07
vt -15.74803 3.937008
vt 15.74803 1.441535E-07
vt 15.74803 3.937003
vt 19.68504 -2.367282E-07
vt -11.81102 19.48719
vt -19.68504 8.351655
vt -19.68504 19.48719
vt 7.874015 19.68504
vt 11.81102 19.68504
vt 7.874015 7.874017
vt 11.81102 11.81102
vt 19.68504 7.874017
vt 19.68504 11.81102
vt -19.68504 -2.367282E-07
vt -15.74803 1.441535E-07
vt -15.74803 3.937003
vt 15.74803 2.483666E-07
vt 19.68504 2.934138E-07
vt 15.74803 2.743697E-07
vt 15.74803 3.937008
vt -15.74803 9.982417
vt -10.18026 17.85643
vt -19.68504 17.85643
vt 19.68504 9.982419
vt 15.74803 9.982419
vt 19.68504 17.85644
vt 10.18026 17.85643
vt -11.81102 19.48719
vt -15.74803 3.24014E-07
vt -19.68504 3.430581E-07
vt -19.68504 6.502461E-09
vt -15.74803 6.502462E-09
vt -15.74803 3.937008
vt 15.74803 9.982417
vt 10.18026 17.85643
vt 19.68504 9.982417
vt 19.68504 17.85643
vt -15.74803 -15.74803
vt -15.74803 -19.68504
vt -19.68504 -15.74803
vt -19.68504 -19.68504
vt -19.68504 29.8653
vt -15.74803 29.8653
vt 15.74803 29.8653
vt 19.68504 29.8653
vt 15.74803 29.8653
vt 19.68504 31.49606
vt 11.81102 39.37008
vt 10.18026 35.43307
vt 7.874015 39.37008
vt -10.18026 35.43307
vt -7.874017 39.37008
vt -11.81102 39.37008
vt -15.74803 29.8653
vt -19.68504 31.49606
vt 19.68504 31.49606
vt 15.74803 29.8653
vt 10.18026 35.43307
vt 11.81103 39.37008
vt -11.81102 39.37008
vt -10.18026 35.43307
vt -19.68504 31.49606
vt -15.74803 29.8653
vt 7.874017 39.37008
vt -7.874015 39.37008
vt 19.68504 29.8653
vt 15.74803 29.8653
vt 19.68504 31.49606
vt 10.18026 35.43307
vt 11.81102 39.37008
vt -10.18026 35.43307
vt 7.874016 39.37008
vt -7.874016 39.37008
vt -15.74803 29.8653
vt -19.68504 29.8653
vt 15.74803 29.8653
vt -19.68504 29.8653
vt 19.68504 29.8653
vt 11.81102 39.37008
vt 10.18026 35.43307
vt 19.68504 3.937008

usemtl metalDark

f 3/3/1 2/2/1 1/1/1
f 2/2/1 3/3/1 4/4/1
f 7/7/2 6/6/2 5/5/2
f 10/10/3 9/9/3 8/8/3
f 9/9/3 10/10/3 11/11/3
f 14/14/4 13/13/4 12/12/4
f 13/13/4 14/14/4 15/15/4
f 18/18/2 17/17/2 16/16/2
f 21/21/1 20/20/1 19/19/1
f 20/20/1 21/21/1 22/22/1
f 20/20/1 23/23/1 19/19/1
f 24/24/1 23/23/1 20/20/1
f 25/25/1 23/23/1 24/24/1
f 14/26/1 23/23/1 25/25/1
f 23/23/1 14/26/1 26/27/1
f 24/24/1 20/20/1 27/28/1
f 28/29/1 14/26/1 25/25/1
f 14/26/1 28/29/1 15/30/1
f 12/33/5 26/32/5 14/31/5
f 26/32/5 12/33/5 29/34/5
f 32/37/6 31/36/6 30/35/6
f 31/36/6 32/37/6 6/38/6
f 31/36/6 6/38/6 7/39/6
f 31/36/6 7/39/6 33/40/6
f 9/43/1 34/42/1 8/41/1
f 34/42/1 9/43/1 35/44/1
f 37/47/7 1/46/7 36/45/7
f 1/46/7 37/47/7 3/48/7
f 10/51/7 34/50/7 38/49/7
f 34/50/7 10/51/7 8/52/7
f 3/54/3 39/11/3 4/53/3
f 39/11/3 3/54/3 37/55/3
f 40/58/8 34/57/8 35/56/8
f 34/57/8 40/58/8 38/59/8
f 2/62/9 39/61/9 41/60/9
f 39/61/9 2/62/9 4/63/9
f 44/66/6 43/65/6 42/64/6
f 43/65/6 44/66/6 18/67/6
f 45/68/6 18/67/6 44/66/6
f 18/67/6 45/68/6 17/69/6
f 18/72/10 16/71/10 43/70/10
f 32/75/11 5/74/11 6/73/11
f 46/78/5 25/77/5 24/76/5
f 25/77/5 46/78/5 47/79/5
f 35/82/9 11/81/9 40/80/9
f 11/81/9 35/82/9 9/83/9
f 48/86/12 25/85/12 47/84/12
f 25/85/12 48/86/12 28/87/12
f 2/90/8 36/89/8 1/88/8
f 36/89/8 2/90/8 41/91/8
f 51/94/1 50/93/1 49/92/1
f 50/93/1 51/94/1 52/95/1
f 55/97/13 54/70/13 53/96/13
f 58/10/8 57/99/8 56/98/8
f 57/99/8 58/10/8 59/100/8
f 62/103/6 61/102/6 60/101/6
f 61/102/6 62/103/6 63/104/6
f 63/104/6 64/105/6 61/102/6
f 64/105/6 63/104/6 65/106/6
f 23/76/14 66/108/14 19/107/14
f 66/108/14 23/76/14 67/109/14
f 68/112/7 49/111/7 50/110/7
f 49/111/7 68/112/7 69/51/7
f 51/115/9 70/114/9 52/113/9
f 70/114/9 51/115/9 71/81/9
f 72/97/11 65/70/11 63/96/11
f 73/118/10 55/117/10 53/116/10
f 75/121/6 54/120/6 74/119/6
f 54/120/6 75/121/6 53/122/6
f 53/122/6 75/121/6 76/123/6
f 53/122/6 76/123/6 73/124/6
f 77/126/9 58/51/9 56/125/9
f 58/51/9 77/126/9 78/127/9
f 52/54/8 68/100/8 50/128/8
f 68/100/8 52/54/8 70/55/8
f 59/81/7 79/130/7 57/129/7
f 79/130/7 59/81/7 80/131/7
f 20/133/12 82/78/12 81/132/12
f 82/78/12 20/133/12 22/134/12
f 27/137/14 81/136/14 83/135/14
f 81/136/14 27/137/14 20/138/14
f 72/117/13 63/139/13 62/118/13
f 80/91/3 77/141/3 79/140/3
f 77/141/3 80/91/3 78/59/3
f 49/143/3 71/89/3 51/142/3
f 71/89/3 49/143/3 69/144/3
f 84/147/4 19/146/4 66/145/4
f 19/146/4 84/147/4 21/148/4
f 77/151/1 57/150/1 79/149/1
f 57/150/1 77/151/1 56/152/1

usemtl metal

f 41/60/9 47/154/9 46/153/9
f 47/154/9 41/60/9 39/61/9
f 30/35/6 44/66/6 42/64/6
f 44/66/6 30/35/6 31/36/6
f 44/66/6 31/36/6 45/68/6
f 45/68/6 31/36/6 33/40/6
f 45/68/6 33/40/6 74/119/6
f 74/119/6 33/40/6 60/101/6
f 74/119/6 60/101/6 75/121/6
f 75/121/6 60/101/6 61/102/6
f 75/121/6 61/102/6 76/123/6
f 76/123/6 61/102/6 64/105/6
f 40/80/9 29/156/9 12/155/9
f 29/156/9 40/80/9 11/81/9
f 37/47/7 36/45/7 48/157/7
f 5/158/7 48/157/7 36/45/7
f 48/157/7 5/158/7 32/159/7
f 48/157/7 32/159/7 28/160/7
f 28/160/7 32/159/7 30/161/7
f 28/160/7 30/161/7 15/162/7
f 15/162/7 30/161/7 42/163/7
f 15/162/7 42/163/7 43/164/7
f 15/162/7 43/164/7 13/165/7
f 13/165/7 43/164/7 16/166/7
f 13/165/7 16/166/7 38/49/7
f 38/49/7 16/166/7 10/51/7
f 16/167/3 11/11/3 10/10/3
f 11/11/3 16/167/3 29/168/3
f 29/168/3 16/167/3 26/169/3
f 26/169/3 16/167/3 17/170/3
f 54/171/3 26/169/3 17/170/3
f 54/171/3 23/172/3 26/169/3
f 55/173/3 23/172/3 54/171/3
f 55/173/3 67/174/3 23/172/3
f 55/173/3 69/144/3 67/174/3
f 69/144/3 55/173/3 71/89/3
f 54/171/3 17/170/3 45/175/3
f 54/171/3 45/175/3 74/176/3
f 48/177/3 39/11/3 37/55/3
f 39/11/3 48/177/3 47/178/3
f 40/58/8 13/153/8 38/59/8
f 13/153/8 40/58/8 12/154/8
f 72/179/8 59/100/8 58/10/8
f 59/100/8 72/179/8 83/178/8
f 83/178/8 72/179/8 27/180/8
f 27/180/8 72/179/8 62/181/8
f 7/164/8 27/180/8 62/181/8
f 7/164/8 24/182/8 27/180/8
f 5/173/8 24/182/8 7/164/8
f 5/173/8 46/154/8 24/182/8
f 5/173/8 41/91/8 46/154/8
f 41/91/8 5/173/8 36/89/8
f 7/164/8 62/181/8 60/183/8
f 7/164/8 60/183/8 33/184/8
f 66/185/7 69/51/7 68/112/7
f 69/51/7 66/185/7 67/186/7
f 83/156/7 80/131/7 59/81/7
f 80/131/7 83/156/7 81/187/7
f 80/91/3 82/188/3 78/59/3
f 82/188/3 80/91/3 81/174/3
f 84/189/8 68/100/8 70/55/8
f 68/100/8 84/189/8 66/157/8
f 71/81/9 84/178/9 70/114/9
f 55/179/9 84/178/9 71/81/9
f 73/190/9 84/178/9 55/179/9
f 73/190/9 21/191/9 84/178/9
f 76/175/9 21/191/9 73/190/9
f 64/176/9 21/191/9 76/175/9
f 64/176/9 22/172/9 21/191/9
f 65/171/9 22/172/9 64/176/9
f 65/171/9 82/174/9 22/172/9
f 72/173/9 82/174/9 65/171/9
f 72/173/9 78/127/9 82/174/9
f 78/127/9 72/173/9 58/51/9

usemtl _defaultMat

f 41/18/15 37/17/15 36/16/15
f 37/18/15 41/17/15 39/16/15
f 38/192/16 11/82/16 10/83/16
f 11/192/16 38/82/16 40/83/16
f 59/117/17 78/139/17 80/118/17
f 78/117/17 59/139/17 58/118/17
f 70/146/18 69/147/18 68/148/18
f 69/146/18 70/147/18 71/148/18

