# Created by Kenney (www.kenney.nl)

mtllib corridor_wallCorner.mtl

g corridor_wallCorner

v -0.2071068 0 -0.2071068
v -0.2071068 0.1 -0.2071068
v -0.2933533 0 -0.1087614
v -0.2933533 0.1 -0.1087614
v 0.1173166 0 -0.4238795
v 0.2411809 0 -0.4659258
v 0.1173166 0.1 -0.4238795
v 0.2411809 0.1 -0.4659258
v 0.04999995 0 -0.2794229
v -0.04788518 0 -0.214018
v 0.04999995 0.1 -0.2794229
v -0.04788518 0.1 -0.214018
v -0.4238796 0 0.1173166
v -0.4238796 0.1 0.1173166
v -0.4659257 0 0.2411809
v -0.4659257 0.1 0.2411809
v -0.3314915 0.1 0.1555849
v -0.3314915 0 0.1555849
v -0.3693333 0.1 0.2670629
v -0.3693333 0 0.2670629
v 0.3694738 0 -0.4914448
v 0.5 0 -0.5
v 0.3694738 0.1 -0.4914448
v 0.5 0.1 -0.5
v -0.1363962 0.1 -0.1363962
v -0.1363962 0 -0.1363962
v -0.2140181 0.1 -0.0478853
v -0.2140181 0 -0.0478853
v 0.5 0.1 -0.4
v 0.5 0 -0.4
v 0.3825264 0 -0.3923004
v 0.2670629 0 -0.3693333
v 0.3825264 0.1 -0.3923004
v 0.2670629 0.1 -0.3693333
v -0.1087613 0 -0.2933533
v -0.1087613 0.1 -0.2933533
v 0 0 -0.3660254
v 0 0.1 -0.3660254
v -0.3923004 0.1 0.3825264
v -0.3923004 0 0.3825264
v -0.4000001 0.1 0.5
v -0.4000001 0 0.5
v -0.2794228 0.1 0.04999995
v -0.2794228 0 0.04999995
v -0.5 0 0.5
v -0.5 0.1 0.5
v -0.4914448 0 0.3694738
v -0.4914448 0.1 0.3694738
v -0.3660254 0 0
v -0.3660254 0.1 0
v 0.1555849 0 -0.3314916
v 0.1555849 0.1 -0.3314916
v -0.4914448 0.2 0.3694738
v -0.4914448 0.4 0.3694738
v -0.5 0.2 0.5
v -0.5 0.4 0.5
v -0.2071068 0.2 -0.2071068
v -0.1087613 0.2 -0.2933533
v -0.2071068 0.4 -0.2071068
v -0.1087613 0.4 -0.2933533
v 0.2411809 0.2 -0.4659258
v 0.3694738 0.2 -0.4914448
v 0.2411809 0.4 -0.4659258
v 0.3694738 0.4 -0.4914448
v -0.3693333 0.4 0.2670629
v -0.3693333 0.2 0.2670629
v -0.3923004 0.4 0.3825264
v -0.3923004 0.2 0.3825264
v 0.2670629 0.2 -0.3693333
v 0.1555849 0.2 -0.3314916
v 0.2670629 0.4 -0.3693333
v 0.1555849 0.4 -0.3314916
v -0.2933533 0.2 -0.1087614
v -0.2933533 0.4 -0.1087614
v -0.2794228 0.4 0.04999995
v -0.2794228 0.2 0.04999995
v -0.3314915 0.4 0.1555849
v -0.3314915 0.2 0.1555849
v 0.5 0.2 -0.4
v 0.3825264 0.2 -0.3923004
v 0.5 0.4 -0.4
v 0.3825264 0.4 -0.3923004
v -0.4000001 0.4 0.5
v -0.4000001 0.2 0.5
v 0.04999995 0.2 -0.2794229
v -0.04788518 0.2 -0.214018
v 0.04999995 0.4 -0.2794229
v -0.04788518 0.4 -0.214018
v 0 0.2 -0.3660254
v 0.1173166 0.2 -0.4238795
v 0 0.4 -0.3660254
v 0.1173166 0.4 -0.4238795
v -0.1363962 0.2 -0.1363962
v -0.1363962 0.4 -0.1363962
v -0.4238796 0.2 0.1173166
v -0.4238796 0.4 0.1173166
v -0.4659257 0.2 0.2411809
v -0.4659257 0.4 0.2411809
v -0.3660254 0.2 0
v -0.3660254 0.4 0
v -0.2140181 0.4 -0.0478853
v -0.2140181 0.2 -0.0478853
v 0.5 0.4 -0.5
v 0.5 0.2 -0.5
v -0.3660254 0.8 0
v -0.4238796 0.8 0.1173166
v -0.04788518 0.8 -0.214018
v -0.1363962 0.8 -0.1363962
v -0.3314915 0.8 0.1555849
v -0.3693333 0.8 0.2670629
v -0.4659257 0.8 0.2411809
v -0.4914448 0.8 0.3694738
v 0.3694738 0.8 -0.4914448
v 0.5 0.8 -0.5
v -0.2933533 0.8 -0.1087614
v 0.3825264 0.8 -0.3923004
v 0.2670629 0.8 -0.3693333
v -0.4000001 0.8 0.5
v -0.5 0.8 0.5
v -0.3923004 0.8 0.3825264
v 0.1173166 0.8 -0.4238795
v 0.2411809 0.8 -0.4659258
v 0 0.8 -0.3660254
v 0.5 0.8 -0.4
v 0.1555849 0.8 -0.3314916
v 0.04999995 0.8 -0.2794229
v -0.1087613 0.8 -0.2933533
v -0.2071068 0.8 -0.2071068
v -0.2140181 0.8 -0.0478853
v -0.2794228 0.8 0.04999995

vn -0.7071068 0 -0.7071068
vn -0.7933533 0 -0.6087614
vn -0.3826834 0 -0.9238795
vn -0.258819 0 -0.9659258
vn 0.5 0 0.8660254
vn 0.6087614 0 0.7933533
vn -0.9238795 0 -0.3826834
vn -0.9659258 0 -0.258819
vn 0.9238795 0 0.3826834
vn 0.9659258 0 0.258819
vn -0.1305262 0 -0.9914449
vn -0.06540313 0 -0.9978589
vn 0.7071068 0 0.7071068
vn 0.7933533 0 0.6087614
vn 1 0 0
vn 0.1305262 0 0.9914449
vn 0.258819 0 0.9659258
vn 0.06540313 0 0.9978589
vn -0.6087614 0 -0.7933533
vn -0.5 0 -0.8660254
vn 0.9914449 0 0.1305262
vn 0.9978589 0 0.06540313
vn 0.8660254 0 0.5
vn 0 0 1
vn -0.9914449 0 -0.1305262
vn -0.9978589 0 -0.06540313
vn -0.8660254 0 -0.5
vn 0.3826834 0 0.9238795
vn 0 -1 0
vn 0 1 0

vt -0.7541785 0
vt -0.7541785 3.937008
vt 4.395674 0
vt 4.395674 3.937008
vt -9.737882 0
vt -14.88773 0
vt -9.737882 3.937008
vt -14.88773 3.937008
vt 7.748524 0
vt 3.113657 0
vt 7.748524 3.937008
vt 3.113657 3.937008
vt 9.737882 0
vt 9.737882 3.937008
vt 14.88773 0
vt 14.88773 3.937008
vt -9.995375 3.937008
vt -9.995375 0
vt -14.63024 3.937008
vt -14.63024 0
vt -15.7805 0
vt -20.93036 0
vt -15.7805 3.937008
vt -20.93036 3.937008
vt 0.4966858 3.937008
vt 0.4966858 0
vt -4.138182 3.937008
vt -4.138182 0
vt 19.68504 3.937008
vt 19.68504 0
vt 15.74803 3.937008
vt 15.74803 0
vt 17.78387 0
vt 13.149 0
vt 17.78387 3.937008
vt 13.149 3.937008
vt 20.67286 0
vt 16.03799 0
vt 20.67286 3.937008
vt 16.03799 3.937008
vt 0.7541785 0
vt -4.395674 0
vt 0.7541785 3.937008
vt -4.395674 3.937008
vt -2.856164 0
vt -8.006017 0
vt -2.856164 3.937008
vt -8.006017 3.937008
vt -16.03799 3.937008
vt -16.03799 0
vt -20.67286 3.937008
vt -20.67286 0
vt -3.113657 3.937008
vt -3.113657 0
vt -7.748524 3.937008
vt -7.748524 0
vt -15.74803 0
vt -19.68504 0
vt -15.74803 3.937008
vt -19.68504 3.937008
vt 4.138182 0
vt -0.4966858 0
vt 4.138182 3.937008
vt -0.4966858 3.937008
vt 12.89151 0
vt 12.89151 3.937008
vt 18.04136 0
vt 18.04136 3.937008
vt 15.7805 0
vt 15.7805 3.937008
vt 20.93036 0
vt 20.93036 3.937008
vt -6.373579 0
vt -11.52343 0
vt -6.373579 3.937008
vt -11.52343 3.937008
vt 2.856164 0
vt 2.856164 3.937008
vt 8.006017 0
vt 8.006017 3.937008
vt -12.89151 0
vt -18.04136 0
vt -12.89151 3.937008
vt -18.04136 3.937008
vt -13.149 3.937008
vt -13.149 0
vt -17.78387 3.937008
vt -17.78387 0
vt 14.63024 0
vt 9.995375 0
vt 14.63024 3.937008
vt 9.995375 3.937008
vt 6.373579 0
vt 6.373579 3.937008
vt 11.52343 0
vt 11.52343 3.937008
vt 11.26594 0
vt 6.631071 0
vt 11.26594 3.937008
vt 6.631071 3.937008
vt -6.631071 3.937008
vt -6.631071 0
vt -11.26594 3.937008
vt -11.26594 0
vt 15.7805 7.874016
vt 15.7805 15.74803
vt 20.93036 7.874016
vt 20.93036 15.74803
vt 0.7541785 7.874016
vt -4.395674 7.874016
vt 0.7541785 15.74803
vt -4.395674 15.74803
vt -12.89151 7.874016
vt -18.04136 7.874016
vt -12.89151 15.74803
vt -18.04136 15.74803
vt -13.149 15.74803
vt -13.149 7.874016
vt -17.78387 15.74803
vt -17.78387 7.874016
vt 14.63024 7.874016
vt 9.995375 7.874016
vt 14.63024 15.74803
vt 9.995375 15.74803
vt -0.7541785 7.874016
vt -0.7541785 15.74803
vt 4.395674 7.874016
vt 4.395674 15.74803
vt -6.631071 15.74803
vt -6.631071 7.874016
vt -11.26594 15.74803
vt -11.26594 7.874016
vt 20.67286 7.874016
vt 16.03799 7.874016
vt 20.67286 15.74803
vt 16.03799 15.74803
vt -16.03799 15.74803
vt -16.03799 7.874016
vt -20.67286 15.74803
vt -20.67286 7.874016
vt 7.748524 7.874016
vt 3.113657 7.874016
vt 7.748524 15.74803
vt 3.113657 15.74803
vt -6.373579 7.874016
vt -11.52343 7.874016
vt -6.373579 15.74803
vt -11.52343 15.74803
vt 4.138182 7.874016
vt -0.4966858 7.874016
vt 4.138182 15.74803
vt -0.4966858 15.74803
vt -9.737882 7.874016
vt -14.88773 7.874016
vt -9.737882 15.74803
vt -14.88773 15.74803
vt -15.74803 7.874016
vt -19.68504 7.874016
vt -15.74803 15.74803
vt -19.68504 15.74803
vt 9.737882 7.874016
vt 9.737882 15.74803
vt 14.88773 7.874016
vt 14.88773 15.74803
vt 6.373579 7.874016
vt 6.373579 15.74803
vt 11.52343 7.874016
vt 11.52343 15.74803
vt 0.4966858 15.74803
vt 0.4966858 7.874016
vt -4.138182 15.74803
vt -4.138182 7.874016
vt 2.856164 7.874016
vt 2.856164 15.74803
vt 8.006017 7.874016
vt 8.006017 15.74803
vt 19.68504 15.74803
vt 19.68504 7.874016
vt 15.74803 15.74803
vt 15.74803 7.874016
vt -15.7805 7.874016
vt -20.93036 7.874016
vt -15.7805 15.74803
vt -20.93036 15.74803
vt 12.89151 7.874016
vt 12.89151 15.74803
vt 18.04136 7.874016
vt 18.04136 15.74803
vt -3.113657 15.74803
vt -3.113657 7.874016
vt -7.748524 15.74803
vt -7.748524 7.874016
vt 11.26594 7.874016
vt 6.631071 7.874016
vt 11.26594 15.74803
vt 6.631071 15.74803
vt -9.995375 15.74803
vt -9.995375 7.874016
vt -14.63024 15.74803
vt -14.63024 7.874016
vt -2.856164 7.874016
vt -8.006017 7.874016
vt -2.856164 15.74803
vt -8.006017 15.74803
vt 17.78387 7.874016
vt 13.149 7.874016
vt 17.78387 15.74803
vt 13.149 15.74803
vt 6.373579 31.49606
vt 11.52343 31.49606
vt 4.138182 31.49606
vt -0.4966858 31.49606
vt -9.995375 31.49606
vt -14.63024 31.49606
vt 12.89151 31.49606
vt 18.04136 31.49606
vt -15.7805 31.49606
vt -20.93036 31.49606
vt 2.856164 31.49606
vt 8.006017 31.49606
vt 17.78387 31.49606
vt 13.149 31.49606
vt -15.74803 31.49606
vt -19.68504 31.49606
vt -13.149 31.49606
vt -17.78387 31.49606
vt -9.737882 31.49606
vt -14.88773 31.49606
vt -6.373579 31.49606
vt -11.52343 31.49606
vt 19.68504 31.49606
vt 15.74803 31.49606
vt -12.89151 31.49606
vt -18.04136 31.49606
vt -19.68504 -19.68504
vt -19.68504 -15.74803
vt -14.54621 -19.34822
vt -15.0601 -15.4449
vt -10.51429 -14.54068
vt -9.495314 -18.34354
vt -6.12539 -13.05085
vt -4.618762 -16.68817
vt -1.968504 -11.0009
vt -2.842171E-14 -14.41045
vt 1.885247 -8.425906
vt 4.281946 -11.54934
vt 5.369925 -5.369925
vt 8.153811 -8.153811
vt 8.425906 -1.885247
vt 11.54934 -4.281946
vt 11.0009 1.968504
vt 13.05085 6.12539
vt 14.41045 -2.557954E-13
vt 14.54068 10.51429
vt 16.68817 4.618762
vt 15.4449 15.0601
vt 15.74803 19.68504
vt 19.68504 19.68504
vt 18.34354 9.495314
vt 19.34822 14.54621
vt 14.63024 31.49606
vt 9.995375 31.49606
vt 11.26594 31.49606
vt 6.631071 31.49606
vt -16.03799 31.49606
vt -20.67286 31.49606
vt -6.631071 31.49606
vt -11.26594 31.49606
vt 0.4966858 31.49606
vt -4.138182 31.49606
vt 7.748524 31.49606
vt 3.113657 31.49606
vt 15.7805 31.49606
vt 20.93036 31.49606
vt -0.7541785 31.49606
vt 4.395674 31.49606
vt -2.856164 31.49606
vt -8.006017 31.49606
vt 9.737882 31.49606
vt 14.88773 31.49606
vt 20.67286 31.49606
vt 16.03799 31.49606
vt 0.7541785 31.49606
vt -4.395674 31.49606
vt -3.113657 31.49606
vt -7.748524 31.49606

usemtl metalDark

f 3/3/2 2/2/1 1/1/1
f 2/2/1 3/3/2 4/4/2
f 7/7/3 6/6/4 5/5/3
f 6/6/4 7/7/3 8/8/4
f 11/11/5 10/10/6 9/9/5
f 10/10/6 11/11/5 12/12/6
f 15/15/8 14/14/7 13/13/7
f 14/14/7 15/15/8 16/16/8
f 19/19/10 18/18/9 17/17/9
f 18/18/9 19/19/10 20/20/10
f 23/23/11 22/22/12 21/21/11
f 22/22/12 23/23/11 24/24/12
f 27/27/14 26/26/13 25/25/13
f 26/26/13 27/27/14 28/28/14
f 29/31/15 22/30/15 24/29/15
f 22/30/15 29/31/15 30/32/15
f 33/35/16 32/34/17 31/33/16
f 32/34/17 33/35/16 34/36/17
f 29/39/18 31/38/16 30/37/18
f 31/38/16 29/39/18 33/40/16
f 2/43/1 35/42/19 1/41/1
f 35/42/19 2/43/1 36/44/19
f 36/47/19 37/46/20 35/45/19
f 37/46/20 36/47/19 38/48/20
f 41/51/22 40/50/21 39/49/21
f 40/50/21 41/51/22 42/52/22
f 43/55/23 28/54/14 27/53/14
f 28/54/14 43/55/23 44/56/23
f 41/59/24 45/58/24 42/57/24
f 45/58/24 41/59/24 46/60/24
f 12/63/6 26/62/13 10/61/6
f 26/62/13 12/63/6 25/64/13
f 47/67/25 16/66/8 15/65/8
f 16/66/8 47/67/25 48/68/25
f 45/71/26 48/70/25 47/69/25
f 48/70/25 45/71/26 46/72/26
f 38/75/20 5/74/3 37/73/20
f 5/74/3 38/75/20 7/76/3
f 49/79/27 4/78/2 3/77/2
f 4/78/2 49/79/27 50/80/27
f 8/83/4 21/82/11 6/81/4
f 21/82/11 8/83/4 23/84/11
f 39/87/21 20/86/10 19/85/10
f 20/86/10 39/87/21 40/88/21
f 34/91/17 51/90/28 32/89/17
f 51/90/28 34/91/17 52/92/28
f 13/95/7 50/94/27 49/93/27
f 50/94/27 13/95/7 14/96/7
f 52/99/28 9/98/5 51/97/28
f 9/98/5 52/99/28 11/100/5
f 17/103/9 44/102/23 43/101/23
f 44/102/23 17/103/9 18/104/9

usemtl metalRed

f 55/107/26 54/106/25 53/105/25
f 54/106/25 55/107/26 56/108/26
f 59/111/1 58/110/19 57/109/1
f 58/110/19 59/111/1 60/112/19
f 63/115/4 62/114/11 61/113/4
f 62/114/11 63/115/4 64/116/11
f 67/119/21 66/118/10 65/117/10
f 66/118/10 67/119/21 68/120/21
f 71/123/17 70/122/28 69/121/17
f 70/122/28 71/123/17 72/124/28
f 73/127/2 59/126/1 57/125/1
f 59/126/1 73/127/2 74/128/2
f 77/131/9 76/130/23 75/129/23
f 76/130/23 77/131/9 78/132/9
f 81/135/18 80/134/16 79/133/18
f 80/134/16 81/135/18 82/136/16
f 83/139/22 68/138/21 67/137/21
f 68/138/21 83/139/22 84/140/22
f 87/143/5 86/142/6 85/141/5
f 86/142/6 87/143/5 88/144/6
f 91/147/20 90/146/3 89/145/20
f 90/146/3 91/147/20 92/148/3
f 88/151/6 93/150/13 86/149/6
f 93/150/13 88/151/6 94/152/13
f 92/155/3 61/154/4 90/153/3
f 61/154/4 92/155/3 63/156/4
f 83/159/24 55/158/24 84/157/24
f 55/158/24 83/159/24 56/160/24
f 97/163/8 96/162/7 95/161/7
f 96/162/7 97/163/8 98/164/8
f 95/167/7 100/166/27 99/165/27
f 100/166/27 95/167/7 96/168/7
f 101/171/14 93/170/13 94/169/13
f 93/170/13 101/171/14 102/172/14
f 99/175/27 74/174/2 73/173/2
f 74/174/2 99/175/27 100/176/27
f 81/179/15 104/178/15 103/177/15
f 104/178/15 81/179/15 79/180/15
f 64/183/11 104/182/12 62/181/11
f 104/182/12 64/183/11 103/184/12
f 53/187/25 98/186/8 97/185/8
f 98/186/8 53/187/25 54/188/25
f 75/191/23 102/190/14 101/189/14
f 102/190/14 75/191/23 76/192/23
f 72/195/28 85/194/5 70/193/28
f 85/194/5 72/195/28 87/196/5
f 65/199/10 78/198/9 77/197/9
f 78/198/9 65/199/10 66/200/10
f 60/203/19 89/202/20 58/201/19
f 89/202/20 60/203/19 91/204/20
f 82/207/16 69/206/17 80/205/16
f 69/206/17 82/207/16 71/208/17

usemtl _defaultMat

f 30/102/29 21/103/29 22/104/29
f 21/102/29 30/103/29 31/104/29
f 21/102/29 31/103/29 32/104/29
f 21/102/29 32/103/29 6/104/29
f 6/102/29 32/103/29 51/104/29
f 6/102/29 51/103/29 5/104/29
f 5/102/29 51/103/29 9/104/29
f 5/102/29 9/103/29 37/104/29
f 37/102/29 9/103/29 10/104/29
f 37/102/29 10/103/29 35/104/29
f 35/102/29 10/103/29 26/104/29
f 35/102/29 26/103/29 1/104/29
f 1/102/29 26/103/29 28/104/29
f 1/102/29 28/103/29 3/104/29
f 3/102/29 28/103/29 44/104/29
f 3/102/29 44/103/29 18/104/29
f 3/102/29 18/103/29 49/104/29
f 49/102/29 18/103/29 20/104/29
f 49/102/29 20/103/29 13/104/29
f 13/102/29 20/103/29 40/104/29
f 13/102/29 40/103/29 42/104/29
f 13/102/29 42/103/29 45/104/29
f 13/102/29 45/103/29 15/104/29
f 15/102/29 45/103/29 47/104/29

usemtl metal

f 70/193/28 11/100/5 52/99/28
f 11/100/5 70/193/28 85/194/5
f 96/168/7 105/209/27 100/166/27
f 105/209/27 96/168/7 106/210/7
f 107/211/6 94/152/13 88/151/6
f 94/152/13 107/211/6 108/212/13
f 110/214/10 77/197/9 109/213/9
f 77/197/9 110/214/10 65/199/10
f 80/205/16 34/36/17 33/35/16
f 34/36/17 80/205/16 69/206/17
f 89/145/20 7/76/3 38/75/20
f 7/76/3 89/145/20 90/146/3
f 54/188/25 111/215/8 98/186/8
f 111/215/8 54/188/25 112/216/25
f 86/149/6 25/64/13 12/63/6
f 25/64/13 86/149/6 93/150/13
f 113/217/11 103/184/12 64/183/11
f 103/184/12 113/217/11 114/218/12
f 100/176/27 115/219/2 74/174/2
f 115/219/2 100/176/27 105/220/27
f 85/141/5 12/12/6 11/11/5
f 12/12/6 85/141/5 86/142/6
f 116/221/16 71/208/17 82/207/16
f 71/208/17 116/221/16 117/222/17
f 118/223/24 56/160/24 83/159/24
f 56/160/24 118/223/24 119/224/24
f 120/226/21 65/117/10 110/225/10
f 65/117/10 120/226/21 67/119/21
f 50/80/27 73/173/2 4/78/2
f 73/173/2 50/80/27 99/175/27
f 121/227/3 63/156/4 92/155/3
f 63/156/4 121/227/3 122/228/4
f 123/229/20 92/148/3 91/147/20
f 92/148/3 123/229/20 121/230/3
f 68/120/21 19/85/10 66/118/10
f 19/85/10 68/120/21 39/87/21
f 79/180/15 24/29/15 104/178/15
f 24/29/15 79/180/15 29/31/15
f 58/201/19 38/48/20 36/47/19
f 38/48/20 58/201/19 89/202/20
f 90/153/3 8/8/4 7/7/3
f 8/8/4 90/153/3 61/154/4
f 76/192/23 27/53/14 102/190/14
f 27/53/14 76/192/23 43/55/23
f 69/121/17 52/92/28 34/91/17
f 52/92/28 69/121/17 70/122/28
f 84/157/24 46/60/24 41/59/24
f 46/60/24 84/157/24 55/158/24
f 102/172/14 25/25/13 93/170/13
f 25/25/13 102/172/14 27/27/14
f 62/181/11 24/24/12 23/23/11
f 24/24/12 62/181/11 104/182/12
f 61/113/4 23/84/11 8/83/4
f 23/84/11 61/113/4 62/114/11
f 14/96/7 99/165/27 50/94/27
f 99/165/27 14/96/7 95/167/7
f 66/200/10 17/17/9 78/198/9
f 17/17/9 66/200/10 19/19/10
f 16/16/8 95/161/7 14/14/7
f 95/161/7 16/16/8 97/163/8
f 124/232/15 103/177/15 114/231/15
f 103/177/15 124/232/15 81/179/15
f 122/233/4 64/116/11 63/115/4
f 64/116/11 122/233/4 113/234/11
f 4/4/2 57/125/1 2/2/1
f 57/125/1 4/4/2 73/127/2
f 57/109/1 36/44/19 2/43/1
f 36/44/19 57/109/1 58/110/19
f 84/140/22 39/49/21 68/138/21
f 39/49/21 84/140/22 41/51/22
f 79/133/18 33/40/16 29/39/18
f 33/40/16 79/133/18 80/134/16
f 48/68/25 97/185/8 16/66/8
f 97/185/8 48/68/25 53/187/25
f 46/72/26 53/105/25 48/70/25
f 53/105/25 46/72/26 55/107/26
f 113/237/30 124/236/30 114/235/30
f 124/236/30 113/237/30 116/238/30
f 116/238/30 113/237/30 117/239/30
f 117/239/30 113/237/30 122/240/30
f 117/239/30 122/240/30 125/241/30
f 125/241/30 122/240/30 121/242/30
f 125/241/30 121/242/30 126/243/30
f 126/243/30 121/242/30 123/244/30
f 126/243/30 123/244/30 107/245/30
f 107/245/30 123/244/30 127/246/30
f 107/245/30 127/246/30 108/247/30
f 108/247/30 127/246/30 128/248/30
f 108/247/30 128/248/30 129/249/30
f 129/249/30 128/248/30 115/250/30
f 129/249/30 115/250/30 130/251/30
f 130/251/30 115/250/30 109/252/30
f 109/252/30 115/250/30 105/253/30
f 109/252/30 105/253/30 110/254/30
f 110/254/30 105/253/30 106/255/30
f 110/254/30 106/255/30 120/256/30
f 120/256/30 106/255/30 118/257/30
f 118/257/30 106/255/30 119/258/30
f 119/258/30 106/255/30 111/259/30
f 119/258/30 111/259/30 112/260/30
f 117/261/17 72/124/28 71/123/17
f 72/124/28 117/261/17 125/262/28
f 125/263/28 87/196/5 72/195/28
f 87/196/5 125/263/28 126/264/5
f 118/266/22 67/137/21 120/265/21
f 67/137/21 118/266/22 83/139/22
f 78/132/9 43/101/23 76/130/23
f 43/101/23 78/132/9 17/103/9
f 109/268/9 75/129/23 130/267/23
f 75/129/23 109/268/9 77/131/9
f 129/270/14 94/169/13 108/269/13
f 94/169/13 129/270/14 101/171/14
f 126/271/5 88/144/6 87/143/5
f 88/144/6 126/271/5 107/272/6
f 56/108/26 112/273/25 54/106/25
f 112/273/25 56/108/26 119/274/26
f 74/128/2 128/275/1 59/126/1
f 128/275/1 74/128/2 115/276/2
f 127/277/19 91/204/20 60/203/19
f 91/204/20 127/277/19 123/278/20
f 98/164/8 106/279/7 96/162/7
f 106/279/7 98/164/8 111/280/8
f 124/281/18 82/136/16 81/135/18
f 82/136/16 124/281/18 116/282/16
f 128/283/1 60/112/19 59/111/1
f 60/112/19 128/283/1 127/284/19
f 130/286/23 101/189/14 129/285/14
f 101/189/14 130/286/23 75/191/23

