# Created by Kenney (www.kenney.nl)

mtllib gate_simple.mtl

g gate_simple

v 0.35 0.05 -0.1
v 0.3 0.05 -0.1
v 0.35 0.1 -0.1
v 0.3 0.1 -0.1
v 0.35 0.1 -0.2
v 0.35 0.05 -0.2
v -0.3499999 0.05 -0.2
v -0.25 0.05 -0.2
v -0.3499999 0.1 -0.2
v -0.25 0.1 -0.2
v 0.25 0.05 0.15
v 0.25 0.1 0.15
v 0.25 0.05 0.2
v 0.25 0.1 0.2
v -0.3 0.05 -0.1
v -0.3499999 0.05 -0.1
v -0.3 0.1 -0.1
v -0.3499999 0.1 -0.1
v -0.25 0.05 0.2
v -0.3499999 0.05 0.2
v -0.25 0.1 0.2
v -0.3499999 0.1 0.2
v 0.25 0.1 -0.2
v 0.3 0.1 -0.15
v 0.25 0.1 -0.15
v -0.3499999 0.05 0.1
v -0.3499999 0.1 0.1
v -0.25 0.1 -0.15
v -0.25 0.05 -0.15
v -0.3 0.1 0.1
v -0.3 0.1 0.15
v -0.25 0.1 0.15
v -0.25 0.05 0.15
v 0.35 0.05 0.2
v 0.35 0.1 0.2
v -0.3 0.05 0.1
v 0.25 0.05 -0.2
v 0.35 0.1 0.1
v 0.35 0.05 0.1
v 0.3 0.05 0.1
v 0.3 0.1 0.1
v 0.3 0.1 0.15
v 0.25 0.05 -0.15
v -0.3 0.1 -0.15
v 0.4 0.05 -0.25
v 0.4 1.860706E-17 -0.25
v 0.4 0.05 0.25
v 0.4 1.860706E-17 0.25
v 0.4 0.58 0
v 0.4 0.58 0.04999995
v 0.2828428 0.2971573 0
v 0.2828428 0.2971573 0.04999995
v 0.2828428 0.8628427 0
v 0.2828428 0.8628427 0.04999995
v -0.1689949 0.15 -0.04999995
v 0.1689949 0.15 -0.04999995
v -0.3535533 0.2264466 -0.04999995
v 0.3535534 0.2264466 -0.04999995
v 0 0.23 -0.04999995
v -0.2474873 0.3325126 -0.04999995
v -0.5 0.58 -0.04999995
v -0.3499999 0.58 -0.04999995
v -0.3535533 0.9335534 -0.04999995
v -0.2474873 0.8274873 -0.04999995
v 0 0.93 -0.04999995
v 0.2474873 0.3325126 -0.04999995
v 0.5 0.58 -0.04999995
v 0.35 0.58 -0.04999995
v 0.2474873 0.8274873 -0.04999995
v 0.3535534 0.9335534 -0.04999995
v 0 1.08 -0.04999995
v 0 1.08 0.04999995
v -0.3535533 0.9335534 0.04999995
v 0 0.98 0.04999995
v 0 0.98 0
v -0.4000001 0.05 -0.25
v -0.4000001 0.05 0.25
v -0.2828426 0.8628427 0
v -0.4000001 0.58 0
v -0.2828426 0.8628427 0.04999995
v -0.4000001 0.58 0.04999995
v -0.4000001 1.860706E-17 -0.25
v 0.3535534 0.2264466 0.04999995
v 0.1689949 0.15 0.04999995
v -0.4000001 1.860706E-17 0.25
v -0.2828426 0.2971573 0
v -0.2828426 0.2971573 0.04999995
v 0.5 0.58 0.04999995
v -0.1689949 0.15 0.04999995
v -0.3535533 0.2264466 0.04999995
v -0.5 0.58 0.04999995
v 0.3535534 0.9335534 0.04999995
v 0 0.18 0
v 0 0.18 0.04999995
v -0.3 0.15 -0.15
v 0.3 0.15 -0.15
v 0.35 0.58 0
v 0.2474873 0.3325126 0
v 0 0.23 0
v 0.2474873 0.8274873 0
v 0 0.93 0
v -0.2474873 0.3325126 0
v -0.3499999 0.58 0
v -0.2474873 0.8274873 0
v -0.3 0.15 0.15
v 0.3 0.15 0.15

vn 0 0 1
vn 1 0 0
vn 0 0 -1
vn -1 0 0
vn 0 1 0
vn -0.9238795 0.3826834 0
vn -0.7071068 0.7071068 0
vn -0.7071068 -0.7071068 0
vn -0.9238795 -0.3826834 0
vn -0.3826834 0.9238795 0
vn 0 -1 0
vn 0.7071068 -0.7071068 0
vn 0.3826834 -0.9238795 0
vn 0.7071068 0.7071068 0
vn 0.9238795 -0.3826834 0
vn -0.3826834 -0.9238795 0
vn 0.9238795 0.3826834 0
vn 0.3826834 0.9238795 0

vt 13.77953 1.968504
vt 11.81102 1.968504
vt 13.77953 3.937008
vt 11.81102 3.937008
vt 7.874016 3.937008
vt 7.874016 1.968504
vt 3.937008 3.937008
vt 3.937008 1.968504
vt 9.84252 1.968504
vt 9.84252 3.937008
vt 5.905512 1.968504
vt 5.905512 3.937008
vt -11.81102 1.968504
vt -13.77953 1.968504
vt -11.81102 3.937008
vt -13.77953 3.937008
vt -9.84252 1.968504
vt -9.84252 3.937008
vt -13.77953 -7.874016
vt -13.77953 -3.937008
vt -9.84252 -7.874016
vt -11.81102 -5.905512
vt -9.84252 -5.905512
vt -11.81102 -3.937008
vt 11.81102 5.905512
vt 13.77953 7.874016
vt 9.84252 7.874016
vt 9.84252 5.905512
vt -7.874016 1.968504
vt -7.874016 3.937008
vt -3.937008 1.968504
vt -3.937008 3.937008
vt -5.905512 3.937008
vt -5.905512 1.968504
vt -13.77953 7.874016
vt -11.81102 5.905512
vt -9.84252 7.874016
vt -9.84252 5.905512
vt 9.84252 -7.874016
vt 9.84252 -5.905512
vt 13.77953 -7.874016
vt 11.81102 -5.905512
vt 11.81102 -3.937008
vt 13.77953 -3.937008
vt 9.84252 7.325615E-16
vt -9.84252 7.325615E-16
vt -1.253604E-11 27.12297
vt 1.968504 27.12297
vt -6.276453E-12 15.06995
vt 1.968504 15.06995
vt -1.253872E-11 27.12297
vt -6.279135E-12 15.06995
vt 6.653345 5.905512
vt -6.653345 5.905512
vt 13.91943 8.915221
vt -13.91943 8.915221
vt -1.898296E-29 9.055119
vt 9.743597 13.09105
vt 19.68504 22.83465
vt 13.77953 22.83465
vt 13.91943 36.75407
vt 9.743597 32.57824
vt -1.898296E-29 36.61417
vt -9.743597 13.09105
vt -19.68504 22.83465
vt -13.77953 22.83465
vt -9.743597 32.57824
vt -13.91943 36.75407
vt -1.898296E-29 42.51968
vt -1.968504 16.27158
vt 1.968504 16.27158
vt -1.968504 1.205302
vt 1.968504 1.205302
vt 1.968504 2.71193
vt -1.856616E-12 2.71193
vt 1.968504 14.76495
vt -1.696776E-11 14.76495
vt -15.74803 9.84252
vt -15.74803 -9.84252
vt 15.74803 -9.84252
vt 15.74803 9.84252
vt 1.25385E-11 27.12297
vt 6.278825E-12 15.06995
vt -1.968504 27.12297
vt -1.968504 15.06995
vt 15.74803 7.325615E-16
vt -15.74803 7.325615E-16
vt 15.74803 1.968504
vt -15.74803 1.968504
vt -1.968504 8.40683
vt 1.968504 8.40683
vt 1.253635E-11 27.12297
vt 6.276672E-12 15.06995
vt -1.968504 14.76495
vt 1.696776E-11 14.76495
vt -1.968504 2.71193
vt 1.857145E-12 2.71193
vt 1.968504 28.6296
vt 1.968504 13.56332
vt -1.968504 28.6296
vt -1.968504 13.56332
vt -1.695856E-11 14.76495
vt -1.847411E-12 2.71193
vt -1.476839E-29 7.086614
vt 11.13554 11.69911
vt 15.74803 22.83465
vt 11.13554 33.97018
vt -1.476839E-29 38.58268
vt -1.476839E-29 42.51968
vt -11.13554 11.69911
vt -15.74803 22.83465
vt -11.13554 33.97018
vt 1.847411E-12 2.71193
vt 1.695803E-11 14.76495
vt -1.968504 26.36966
vt -1.214512E-11 26.36966
vt -1.968504 15.82327
vt -6.682151E-12 15.82327
vt 0 7.086614
vt 0 9.055119
vt 0 36.61417
vt 0 38.58268
vt -1.213302E-11 26.36966
vt -6.670056E-12 15.82327
vt 1.968504 26.36966
vt 1.968504 15.82327
vt 1.213302E-11 26.36966
vt 6.670056E-12 15.82327
vt 5.905512 5.905512
vt -5.905512 5.905512
vt -6.653345 -1.968504
vt 6.653345 -1.968504
vt -6.653345 1.968504
vt 6.653345 1.968504
vt 1.600142E-11 14.01164
vt 1.968504 14.01164
vt 2.786508E-12 3.465244
vt 1.968504 3.465244
vt 2.813749E-12 3.465244
vt 1.602866E-11 14.01164
vt -1.968504 14.01164
vt -1.602866E-11 14.01164
vt -1.968504 3.465244
vt -2.813749E-12 3.465244
vt 1.214512E-11 26.36966
vt 6.682151E-12 15.82327
vt -2.786508E-12 3.465244
vt -1.600142E-11 14.01164

usemtl dark

f 3/3/1 2/2/1 1/1/1
f 2/2/1 3/3/1 4/4/1
f 3/7/2 6/6/2 5/5/2
f 6/6/2 3/7/2 1/8/2
f 9/3/3 8/9/3 7/1/3
f 8/9/3 9/3/3 10/10/3
f 13/6/4 12/12/4 11/11/4
f 12/12/4 13/6/4 14/5/4
f 17/15/1 16/14/1 15/13/1
f 16/14/1 17/15/1 18/16/1
f 21/18/1 20/14/1 19/17/1
f 20/14/1 21/18/1 22/16/1
f 23/21/5 3/20/5 5/19/5
f 3/20/5 23/21/5 24/22/5
f 24/22/5 23/21/5 25/23/5
f 4/24/5 3/20/5 24/22/5
f 20/6/4 27/7/4 26/8/4
f 27/7/4 20/6/4 22/5/4
f 28/12/2 8/6/2 10/5/2
f 8/6/2 28/12/2 29/11/2
f 27/3/5 31/25/5 30/4/5
f 22/26/5 31/25/5 27/3/5
f 21/27/5 31/25/5 22/26/5
f 31/25/5 21/27/5 32/28/5
f 16/31/4 9/30/4 7/29/4
f 9/30/4 16/31/4 18/32/4
f 21/30/2 33/34/2 32/33/2
f 33/34/2 21/30/2 19/29/2
f 35/3/1 13/9/1 34/1/1
f 13/9/1 35/3/1 14/10/1
f 27/3/3 36/2/3 26/1/3
f 36/2/3 27/3/3 30/4/3
f 23/18/3 6/14/3 37/17/3
f 6/14/3 23/18/3 5/16/3
f 35/30/2 39/31/2 38/32/2
f 39/31/2 35/30/2 34/29/2
f 41/15/3 39/14/3 40/13/3
f 39/14/3 41/15/3 38/16/3
f 41/15/5 35/35/5 38/16/5
f 35/35/5 41/15/5 42/36/5
f 35/35/5 42/36/5 14/37/5
f 14/37/5 42/36/5 12/38/5
f 43/34/4 23/30/4 37/29/4
f 23/30/4 43/34/4 25/33/4
f 9/41/5 28/40/5 10/39/5
f 28/40/5 9/41/5 44/42/5
f 44/42/5 9/41/5 17/43/5
f 17/43/5 9/41/5 18/44/5

usemtl metal

f 47/17/2 46/45/2 45/9/2
f 46/45/2 47/17/2 48/46/2
f 51/49/7 50/48/6 49/47/6
f 50/48/6 51/49/7 52/50/7
f 49/52/9 54/48/8 53/51/8
f 54/48/8 49/52/9 50/50/9
f 57/55/3 56/54/3 55/53/3
f 56/54/3 57/55/3 58/56/3
f 58/56/3 57/55/3 59/57/3
f 59/57/3 57/55/3 60/58/3
f 60/58/3 57/55/3 61/59/3
f 60/58/3 61/59/3 62/60/3
f 62/60/3 61/59/3 63/61/3
f 62/60/3 63/61/3 64/62/3
f 64/62/3 63/61/3 65/63/3
f 66/64/3 58/56/3 59/57/3
f 58/56/3 66/64/3 67/65/3
f 67/65/3 66/64/3 68/66/3
f 67/65/3 68/66/3 69/67/3
f 67/65/3 69/67/3 70/68/3
f 70/68/3 69/67/3 65/63/3
f 70/68/3 65/63/3 63/61/3
f 70/68/3 63/61/3 71/69/3
f 63/72/10 72/71/10 71/70/10
f 72/71/10 63/72/10 73/73/10
f 74/76/11 53/75/8 54/74/8
f 53/75/8 74/76/11 75/77/11
f 45/79/5 6/19/5 47/78/5
f 6/19/5 45/79/5 76/80/5
f 6/19/5 76/80/5 37/21/5
f 37/21/5 76/80/5 43/23/5
f 43/23/5 76/80/5 8/39/5
f 8/39/5 76/80/5 7/41/5
f 7/41/5 76/80/5 16/44/5
f 16/44/5 76/80/5 26/3/5
f 26/3/5 76/80/5 20/26/5
f 34/35/5 47/78/5 6/19/5
f 47/78/5 34/35/5 77/81/5
f 77/81/5 20/26/5 76/80/5
f 34/35/5 6/19/5 1/20/5
f 34/35/5 1/20/5 39/16/5
f 77/81/5 34/35/5 13/37/5
f 77/81/5 13/37/5 19/27/5
f 77/81/5 19/27/5 20/26/5
f 19/27/5 13/37/5 33/28/5
f 36/4/5 16/44/5 26/3/5
f 16/44/5 36/4/5 15/43/5
f 29/40/5 43/23/5 8/39/5
f 2/24/5 39/16/5 1/20/5
f 39/16/5 2/24/5 40/15/5
f 33/28/5 13/37/5 11/38/5
f 80/84/12 79/83/2 78/82/12
f 79/83/2 80/84/12 81/85/2
f 76/88/3 46/87/3 82/86/3
f 46/87/3 76/88/3 45/89/3
f 84/90/13 58/71/13 83/70/13
f 58/71/13 84/90/13 56/91/13
f 85/78/11 46/80/11 48/81/11
f 46/80/11 85/78/11 82/79/11
f 81/84/2 86/93/14 79/92/2
f 86/93/14 81/84/2 87/85/14
f 80/96/12 75/95/11 74/94/11
f 75/95/11 80/96/12 78/97/12
f 88/100/15 58/99/15 67/98/15
f 58/99/15 88/100/15 83/101/15
f 90/71/16 55/90/16 89/91/16
f 55/90/16 90/71/16 57/70/16
f 57/101/9 91/98/9 61/100/9
f 91/98/9 57/101/9 90/99/9
f 47/88/1 85/87/1 48/86/1
f 85/87/1 47/88/1 77/89/1
f 85/45/4 76/17/4 82/46/4
f 76/17/4 85/45/4 77/9/4
f 92/100/17 67/99/17 70/98/17
f 67/99/17 92/100/17 88/101/17
f 71/71/18 92/72/18 70/73/18
f 92/72/18 71/71/18 72/70/18
f 93/103/10 52/76/7 51/102/7
f 52/76/7 93/103/10 94/74/10
f 61/101/6 73/98/6 63/100/6
f 73/98/6 61/101/6 91/99/6
f 83/55/1 94/104/1 84/53/1
f 94/104/1 83/55/1 52/105/1
f 52/105/1 83/55/1 88/59/1
f 52/105/1 88/59/1 50/106/1
f 50/106/1 88/59/1 92/61/1
f 50/106/1 92/61/1 54/107/1
f 54/107/1 92/61/1 74/108/1
f 74/108/1 92/61/1 72/109/1
f 90/56/1 84/53/1 94/104/1
f 84/53/1 90/56/1 89/54/1
f 90/56/1 94/104/1 87/110/1
f 90/56/1 87/110/1 91/65/1
f 91/65/1 87/110/1 81/111/1
f 91/65/1 81/111/1 80/112/1
f 91/65/1 80/112/1 73/68/1
f 73/68/1 80/112/1 74/108/1
f 73/68/1 74/108/1 72/109/1
f 86/114/14 94/96/18 93/113/18
f 94/96/18 86/114/14 87/94/14

usemtl metalDark

f 95/25/3 28/10/3 44/4/3
f 28/10/3 95/25/3 25/18/3
f 25/18/3 95/25/3 24/15/3
f 24/15/3 95/25/3 96/36/3
f 43/17/3 28/10/3 25/18/3
f 28/10/3 43/17/3 29/9/3
f 66/117/7 97/116/6 68/115/6
f 97/116/6 66/117/7 98/118/7
f 51/105/1 99/120/1 93/119/1
f 99/120/1 51/105/1 98/58/1
f 98/58/1 51/105/1 49/106/1
f 98/58/1 49/106/1 97/60/1
f 97/60/1 49/106/1 53/107/1
f 97/60/1 53/107/1 100/62/1
f 100/62/1 53/107/1 101/121/1
f 101/121/1 53/107/1 75/122/1
f 99/120/1 86/110/1 93/119/1
f 86/110/1 99/120/1 102/64/1
f 86/110/1 102/64/1 79/111/1
f 79/111/1 102/64/1 103/66/1
f 79/111/1 103/66/1 104/67/1
f 79/111/1 104/67/1 78/112/1
f 78/112/1 104/67/1 101/121/1
f 78/112/1 101/121/1 75/122/1
f 68/117/9 100/123/8 69/115/8
f 100/123/8 68/117/9 97/124/9
f 104/127/12 62/126/2 64/125/12
f 62/126/2 104/127/12 103/128/2
f 36/8/4 17/32/4 15/31/4
f 30/7/4 17/32/4 36/8/4
f 105/129/4 17/32/4 30/7/4
f 95/130/4 17/32/4 105/129/4
f 17/32/4 95/130/4 44/33/4
f 105/129/4 30/7/4 31/12/4
f 106/130/2 24/12/2 96/129/2
f 24/12/2 106/130/2 4/7/2
f 4/7/2 106/130/2 2/8/2
f 2/8/2 106/130/2 41/32/2
f 41/32/2 106/130/2 42/33/2
f 40/31/2 2/8/2 41/32/2
f 96/22/5 56/131/5 106/36/5
f 56/131/5 96/22/5 95/42/5
f 56/131/5 95/42/5 55/132/5
f 84/133/5 106/36/5 56/131/5
f 106/36/5 84/133/5 105/25/5
f 105/25/5 55/132/5 95/42/5
f 105/25/5 84/133/5 89/134/5
f 105/25/5 89/134/5 55/132/5
f 104/137/12 65/136/11 101/135/11
f 65/136/11 104/137/12 64/138/12
f 60/136/14 99/139/18 59/138/18
f 99/139/18 60/136/14 102/140/14
f 59/143/10 98/142/7 66/141/7
f 98/142/7 59/143/10 99/144/10
f 103/145/2 60/126/14 62/125/2
f 60/126/14 103/145/2 102/146/14
f 106/25/1 12/10/1 42/4/1
f 105/36/1 12/10/1 106/25/1
f 31/15/1 12/10/1 105/36/1
f 32/18/1 12/10/1 31/15/1
f 33/17/1 12/10/1 32/18/1
f 12/10/1 33/17/1 11/9/1
f 101/148/11 69/143/8 100/147/8
f 69/143/8 101/148/11 65/141/11

