# Created by Kenney (www.kenney.nl)

mtllib hangar_largeB.mtl

g hangar_largeB

v -1 0.1 -1.5
v -0.9000001 0.1 -1.5
v -1 0.2 -1.5
v -0.9000001 0.7585787 -1.5
v -1 0.4 -1.5
v -1 0.8 -1.5
v -0.7585788 0.9 -1.5
v -0.8 1 -1.5
v 0.8 1 -1.5
v 0.7585787 0.9 -1.5
v 1 0.8 -1.5
v 0.9 0.7585787 -1.5
v 1 0.4 -1.5
v 1 0.2 -1.5
v 0.9 0.1 -1.5
v 1 0.1 -1.5
v -0.7 1 -1.5
v 0.7 1 -1.5
v -1 0.4 -0.35
v -1 0.8 -0.35
v -1 0.1 -0.35
v -1 0.2 -0.35
v 1 0.2 -0.35
v 1 0.1 -0.35
v 1 0.8 -0.35
v 1 0.4 -0.35
v 0.7 1 -0.35
v -0.7 1 -0.35
v -1 0.4 0.35
v -1 0.8 0.35
v -1 0.4 1.5
v -1 0.8 1.5
v 1 0.2 0.35
v 1 0.1 0.35
v 1 0.2 1.5
v 1 0.1 1.5
v 1 0.8 0.35
v 1 0.4 0.35
v 1 0.8 1.5
v 1 0.4 1.5
v 0.9 0.1 1.5
v 0.9 0.7585787 1.5
v 0.7585787 0.9 1.5
v 0.8 1 1.5
v -0.8 1 1.5
v -0.7585788 0.9 1.5
v -0.9000001 0.7585787 1.5
v -1 0.2 1.5
v -0.9000001 0.1 1.5
v -1 0.1 1.5
v 0.7 1 1.5
v -0.7 1 1.5
v 0.7 1 0.35
v -0.7 1 0.35
v -1 0.1 0.35
v -1 0.2 0.35
v 1 0 -1.5
v 0.9 9.674395E-09 -1.5
v -1 0 -1.5
v -0.9000001 9.674395E-09 -1.5
v -0.8 1 -0.35
v 1 0 -0.35
v -1 0 -0.35
v 0.8 1 -0.35
v 0.9 9.674395E-09 1.5
v 1 0 1.5
v 1 2.065991E-17 0.35
v 0.8 1 0.35
v -0.8 1 0.35
v -0.9000001 9.674395E-09 1.5
v -1 0 1.5
v -1 2.065991E-17 0.35
v -1.1 0 -0.35
v -1.1 0.8414213 -0.35
v -0.8414214 1.1 -0.35
v 0.8414214 1.1 -0.35
v 1.1 0.8414213 -0.35
v 1.1 0 -0.35
v 0.8414214 1.1 0.35
v -0.8414214 1.1 0.35
v 1.1 2.065991E-17 0.35
v 1.1 0.8414213 0.35
v -1.1 0.8414213 0.35
v -1.1 2.065991E-17 0.35

vn 0 0 -1
vn -1 0 0
vn 1 0 0
vn 0 1 0
vn 0 0 1
vn -0.7071068 0.7071068 0
vn 0.7071068 0.7071068 0
vn 0 -1 0
vn 0.7071068 -0.7071068 0
vn -0.7071068 -0.7071068 0

vt 39.37008 3.937007
vt 35.43307 3.937007
vt 39.37008 7.874015
vt 35.43307 29.8653
vt 39.37008 15.74803
vt 39.37008 31.49606
vt 29.8653 35.43307
vt 31.49606 39.37008
vt -31.49606 39.37008
vt -29.8653 35.43307
vt -39.37008 31.49606
vt -35.43307 29.8653
vt -39.37008 15.74803
vt -39.37008 7.874015
vt -35.43307 3.937007
vt -39.37008 3.937007
vt 27.55906 39.37008
vt -27.55906 39.37008
vt -59.05512 15.74803
vt -59.05512 31.49606
vt -13.77953 15.74803
vt -13.77953 31.49606
vt -59.05512 3.937008
vt -59.05512 7.874016
vt -13.77953 3.937008
vt -13.77953 7.874016
vt 59.05512 7.874016
vt 59.05512 3.937008
vt 13.77953 7.874016
vt 13.77953 3.937008
vt 59.05512 31.49606
vt 59.05512 15.74803
vt 13.77953 31.49606
vt 13.77953 15.74803
vt -27.55906 -59.05512
vt -27.55906 -13.77953
vt 27.55906 -59.05512
vt 27.55906 -13.77953
vt -27.55906 13.77953
vt -27.55906 59.05512
vt 27.55906 13.77953
vt 27.55906 59.05512
vt -39.37008 -1.552823E-07
vt -35.43307 2.255994E-07
vt 39.37008 -1.950738E-08
vt 35.43307 3.613743E-07
vt -59.05512 5.56777
vt -13.77953 5.56777
vt -59.05512 -5.56777
vt -13.77953 -5.56777
vt 59.05512 8.109203E-27
vt 13.77953 8.109203E-27
vt -59.05512 -1.011195E-26
vt -13.77953 -1.011195E-26
vt 59.05512 -5.56777
vt 13.77953 -5.56777
vt 59.05512 5.56777
vt 13.77953 5.56777
vt 31.49606 -59.05512
vt 31.49606 -13.77953
vt -31.49606 -59.05512
vt -31.49606 -13.77953
vt -59.05512 3.808812E-07
vt 59.05512 3.808812E-07
vt -59.05512 29.8653
vt 59.05512 29.8653
vt 39.37008 59.05512
vt 39.37008 13.77953
vt 35.43307 59.05512
vt 39.37008 -13.77953
vt 35.43307 -59.05512
vt 39.37008 -59.05512
vt -13.77953 8.133822E-16
vt -59.05512 4.86418E-29
vt 31.49606 13.77953
vt 31.49606 59.05512
vt -31.49606 13.77953
vt -31.49606 59.05512
vt -35.43307 -59.05512
vt -39.37008 -59.05512
vt -35.43307 59.05512
vt -39.37008 59.05512
vt -39.37008 -13.77953
vt -39.37008 13.77953
vt 59.05512 -3.937008
vt -59.05512 -3.937008
vt 29.8653 -59.05512
vt -29.8653 -59.05512
vt 29.8653 59.05512
vt -29.8653 59.05512
vt 13.77953 8.133822E-16
vt 59.05512 -9.72836E-29
vt 59.05512 3.808822E-07
vt -59.05512 3.808822E-07
vt 43.30709 0
vt 39.37008 0
vt 43.30709 33.12682
vt 39.37008 3.937008
vt 39.37008 7.874016
vt 39.37008 15.74803
vt 33.12682 43.30709
vt -33.12682 43.30709
vt -43.30709 33.12682
vt -39.37008 15.74803
vt -39.37008 7.874016
vt -39.37008 3.937008
vt -43.30709 0
vt -39.37008 0
vt -33.12682 -13.77953
vt -33.12682 13.77953
vt 33.12682 -13.77953
vt 33.12682 13.77953
vt 43.30709 -6.100367E-16
vt 39.37008 -6.100367E-16
vt -43.30709 -6.100367E-16
vt -39.37008 -6.100367E-16
vt -13.77953 0
vt -13.77953 33.12682
vt 13.77953 33.12682
vt -43.30709 13.77953
vt -43.30709 -13.77953
vt 43.30709 13.77953
vt 43.30709 -13.77953
vt 13.77953 0
vt 13.77953 7.198532
vt 13.77953 -7.198532
vt -13.77953 7.198532
vt -13.77953 -7.198532

usemtl metal

f 3/3/1 2/2/1 1/1/1
f 2/2/1 3/3/1 4/4/1
f 4/4/1 3/3/1 5/5/1
f 4/4/1 5/5/1 6/6/1
f 4/4/1 6/6/1 7/7/1
f 7/7/1 6/6/1 8/8/1
f 9/9/1 7/7/1 8/8/1
f 9/9/1 10/10/1 7/7/1
f 11/11/1 10/10/1 9/9/1
f 11/11/1 12/12/1 10/10/1
f 13/13/1 12/12/1 11/11/1
f 14/14/1 12/12/1 13/13/1
f 14/14/1 15/15/1 12/12/1
f 15/15/1 14/14/1 16/16/1
f 9/9/1 8/8/1 17/17/1
f 9/9/1 17/17/1 18/18/1
f 19/21/2 6/20/2 5/19/2
f 6/20/2 19/21/2 20/22/2
f 21/25/2 3/24/2 1/23/2
f 3/24/2 21/25/2 22/26/2
f 23/29/3 16/28/3 14/27/3
f 16/28/3 23/29/3 24/30/3
f 25/33/3 13/32/3 11/31/3
f 13/32/3 25/33/3 26/34/3
f 17/37/4 27/36/4 18/35/4
f 27/36/4 17/37/4 28/38/4
f 31/32/2 30/33/2 29/34/2
f 30/33/2 31/32/2 32/31/2
f 35/24/3 34/25/3 33/26/3
f 34/25/3 35/24/3 36/23/3
f 39/20/3 38/21/3 37/22/3
f 38/21/3 39/20/3 40/19/3
f 35/3/5 41/2/5 36/1/5
f 41/2/5 35/3/5 42/4/5
f 42/4/5 35/3/5 40/5/5
f 42/4/5 40/5/5 39/6/5
f 42/4/5 39/6/5 43/7/5
f 43/7/5 39/6/5 44/8/5
f 45/9/5 43/7/5 44/8/5
f 45/9/5 46/10/5 43/7/5
f 32/11/5 46/10/5 45/9/5
f 32/11/5 47/12/5 46/10/5
f 31/13/5 47/12/5 32/11/5
f 48/14/5 47/12/5 31/13/5
f 48/14/5 49/15/5 47/12/5
f 49/15/5 48/14/5 50/16/5
f 45/9/5 44/8/5 51/17/5
f 45/9/5 51/17/5 52/18/5
f 54/41/4 51/40/4 53/39/4
f 51/40/4 54/41/4 52/42/4
f 50/28/2 56/29/2 55/30/2
f 56/29/2 50/28/2 48/27/2

usemtl metalDark

f 58/44/1 16/16/1 57/43/1
f 16/16/1 58/44/1 15/15/1
f 1/1/1 60/46/1 59/45/1
f 60/46/1 1/1/1 2/2/1
f 6/49/6 61/48/6 8/47/6
f 61/48/6 6/49/6 20/50/6
f 24/30/3 57/51/3 16/28/3
f 57/51/3 24/30/3 62/52/3
f 63/54/2 1/23/2 59/53/2
f 1/23/2 63/54/2 21/25/2
f 9/57/7 25/56/7 11/55/7
f 25/56/7 9/57/7 64/58/7
f 8/59/4 28/38/4 17/37/4
f 28/38/4 8/59/4 61/60/4
f 18/35/4 64/62/4 9/61/4
f 64/62/4 18/35/4 27/36/4
f 65/64/2 15/23/2 58/63/2
f 15/23/2 65/64/2 12/65/2
f 12/65/2 65/64/2 42/66/2
f 42/66/2 65/64/2 41/28/2
f 65/69/8 67/68/8 66/67/8
f 67/68/8 65/69/8 62/70/8
f 62/70/8 65/69/8 58/71/8
f 58/71/8 57/72/8 62/70/8
f 44/47/7 37/50/7 68/48/7
f 37/50/7 44/47/7 39/49/7
f 36/23/3 67/73/3 34/25/3
f 67/73/3 36/23/3 66/74/3
f 69/75/4 52/42/4 54/41/4
f 52/42/4 69/75/4 45/76/4
f 53/39/4 44/78/4 68/77/4
f 44/78/4 53/39/4 51/40/4
f 70/81/8 59/80/8 60/79/8
f 59/80/8 70/81/8 71/82/8
f 59/80/8 71/82/8 63/83/8
f 63/83/8 71/82/8 72/84/8
f 7/28/9 47/86/9 4/85/9
f 47/86/9 7/28/9 46/23/9
f 69/58/6 32/55/6 45/57/6
f 32/55/6 69/58/6 30/56/6
f 36/1/5 65/46/5 66/45/5
f 65/46/5 36/1/5 41/2/5
f 70/44/5 50/16/5 71/43/5
f 50/16/5 70/44/5 49/15/5
f 43/89/8 7/88/8 10/87/8
f 7/88/8 43/89/8 46/90/8
f 12/86/10 43/28/10 10/23/10
f 43/28/10 12/86/10 42/85/10
f 71/92/2 55/30/2 72/91/2
f 55/30/2 71/92/2 50/28/2
f 2/28/3 70/94/3 60/93/3
f 70/94/3 2/28/3 4/66/3
f 70/94/3 4/66/3 49/23/3
f 49/23/3 4/66/3 47/65/3

usemtl dark

f 74/97/1 63/96/1 73/95/1
f 63/96/1 74/97/1 21/98/1
f 21/98/1 74/97/1 22/99/1
f 22/99/1 74/97/1 19/100/1
f 19/100/1 74/97/1 20/6/1
f 20/6/1 74/97/1 61/8/1
f 61/8/1 74/97/1 75/101/1
f 61/8/1 75/101/1 28/17/1
f 28/17/1 75/101/1 27/18/1
f 27/18/1 75/101/1 64/9/1
f 76/102/1 64/9/1 75/101/1
f 77/103/1 64/9/1 76/102/1
f 77/103/1 25/11/1 64/9/1
f 77/103/1 26/104/1 25/11/1
f 77/103/1 23/105/1 26/104/1
f 77/103/1 24/106/1 23/105/1
f 78/107/1 24/106/1 77/103/1
f 24/106/1 78/107/1 62/108/1
f 75/111/4 79/110/4 76/109/4
f 79/110/4 75/111/4 80/112/4
f 82/97/5 67/114/5 81/113/5
f 67/114/5 82/97/5 34/98/5
f 34/98/5 82/97/5 33/99/5
f 33/99/5 82/97/5 38/100/5
f 38/100/5 82/97/5 37/6/5
f 37/6/5 82/97/5 68/8/5
f 68/8/5 82/97/5 79/101/5
f 80/102/5 68/8/5 79/101/5
f 80/102/5 53/17/5 68/8/5
f 80/102/5 54/18/5 53/17/5
f 80/102/5 69/9/5 54/18/5
f 83/103/5 69/9/5 80/102/5
f 83/103/5 30/11/5 69/9/5
f 83/103/5 29/104/5 30/11/5
f 83/103/5 56/105/5 29/104/5
f 83/103/5 55/106/5 56/105/5
f 84/115/5 55/106/5 83/103/5
f 55/106/5 84/115/5 72/116/5
f 84/91/2 74/118/2 73/117/2
f 74/118/2 84/91/2 83/119/2
f 84/120/8 63/83/8 72/84/8
f 63/83/8 84/120/8 73/121/8
f 67/68/8 78/123/8 81/122/8
f 78/123/8 67/68/8 62/70/8
f 82/118/3 78/124/3 77/119/3
f 78/124/3 82/118/3 81/73/3
f 79/127/7 77/126/7 76/125/7
f 77/126/7 79/127/7 82/128/7
f 83/126/6 75/127/6 74/128/6
f 75/127/6 83/126/6 80/125/6

usemtl metalRed

f 26/34/3 14/27/3 13/32/3
f 14/27/3 26/34/3 23/29/3
f 48/27/2 29/34/2 56/29/2
f 29/34/2 48/27/2 31/32/2
f 22/26/2 5/19/2 3/24/2
f 5/19/2 22/26/2 19/21/2
f 40/19/3 33/26/3 38/21/3
f 33/26/3 40/19/3 35/24/3

g gate

v 0.25 9.674395E-09 1.35
v 0.25 0.5 1.35
v 0.35 9.674395E-09 1.35
v 0.35 0.1 1.35
v 0.35 0.6 1.35
v -0.25 0.5 1.35
v -0.3499999 0.6 1.35
v -0.3499999 0.1 1.35
v -0.3499999 9.674395E-09 1.35
v -0.25 9.674395E-09 1.35
v -0.3499999 0.6 1.3
v -0.3499999 0.1 1.3
v -0.3499999 0.6 1.4
v -0.3499999 9.674395E-09 1.4
v -0.3499999 0.1 1.4
v 0.35 0.6 1.3
v 0.35 0.6 1.4
v 0.35 0.1 1.3
v 0.35 9.674395E-09 1.4
v 0.35 0.1 1.4
v -0.9000001 0.7585787 1.3
v -0.7585788 0.9 1.3
v -0.9000001 0.7585787 1.4
v -0.7585788 0.9 1.4
v 0.9 9.674395E-09 1.4
v 0.9 9.674395E-09 1.3
v 0.25 9.674395E-09 1.3
v 0.9 0.7585787 1.3
v 0.9 0.7585787 1.4
v -0.9000001 9.674395E-09 1.4
v -0.9000001 9.674395E-09 1.3
v -0.25 9.674395E-09 1.3
v -0.25 0.5 1.3
v 0.25 0.5 1.3
v -0.8 0.1 1.3
v -0.8 0.7171573 1.3
v -0.7171574 0.8 1.3
v 0.7171574 0.8 1.3
v 0.8 0.1 1.3
v 0.8 0.7171573 1.3
v 0.7585787 0.9 1.3
v 0.7585787 0.9 1.4
v 0.8 0.1 1.4
v 0.8 0.7171573 1.4
v 0.7171574 0.8 1.4
v -0.7171574 0.8 1.4
v -0.8 0.7171573 1.4
v -0.8 0.1 1.4


vt 9.84252 0
vt 9.84252 19.68504
vt 13.77953 4.337709E-16
vt 13.77953 23.62205
vt -9.84252 19.68504
vt -13.77953 23.62205
vt -13.77953 4.390626E-16
vt -9.84252 0
vt 1.968504 23.62205
vt 1.968504 3.937008
vt 0 23.62205
vt 0 3.937008
vt -1.968504 23.62205
vt 0 4.390626E-16
vt -1.968504 4.390626E-16
vt -1.968504 3.937008
vt 13.77953 -1.968504
vt -13.77953 -1.968504
vt -13.77953 1.968504
vt 13.77953 1.968504
vt 1.968504 4.337709E-16
vt 0 4.337709E-16
vt -1.968504 -3.937008
vt -1.968504 3.937008
vt 1.968504 -3.937008
vt 1.968504 3.937008
vt 35.43307 1.968504
vt 35.43307 -1.968504
vt 13.77953 6.614466E-33
vt 9.84252 -1.968504
vt 1.968504 29.8653
vt -1.968504 29.8653
vt -1.968504 4.111877E-16
vt -13.77953 7.283172E-33
vt -35.43307 1.968504
vt -35.43307 -1.968504
vt -9.84252 -1.968504
vt 35.43307 4.440892E-16
vt -35.43307 4.337709E-16
vt 31.49606 3.937008
vt 31.49606 28.23454
vt 28.23454 31.49606
vt -28.23454 31.49606
vt -31.49606 3.937008
vt -31.49606 28.23454
vt -1.968504 4.440892E-16
vt 1.968504 4.440892E-16
vt -29.8653 -1.968504
vt -29.8653 1.968504
vt 29.8653 -1.968504
vt 29.8653 1.968504
vt 35.43307 4.111877E-16
vt -35.43307 4.440892E-16

usemtl metalDark

f 87/131/5 86/130/5 85/129/5
f 86/130/5 87/131/5 88/30/5
f 86/130/5 88/30/5 89/132/5
f 86/130/5 89/132/5 90/133/5
f 91/134/5 90/133/5 89/132/5
f 92/25/5 90/133/5 91/134/5
f 93/135/5 90/133/5 92/25/5
f 90/133/5 93/135/5 94/136/5
f 91/139/3 96/138/3 95/137/3
f 96/138/3 91/139/3 92/140/3
f 97/141/3 92/140/3 91/139/3
f 92/140/3 97/141/3 93/142/3
f 93/142/3 97/141/3 98/143/3
f 98/143/3 97/141/3 99/144/3
f 91/117/8 100/145/8 89/124/8
f 100/145/8 91/117/8 95/146/8
f 89/124/8 97/147/8 91/117/8
f 97/147/8 89/124/8 101/148/8
f 88/140/2 100/141/2 102/144/2
f 100/141/2 88/140/2 89/139/2
f 88/140/2 103/149/2 89/139/2
f 103/149/2 88/140/2 87/150/2
f 89/139/2 103/149/2 101/137/2
f 101/137/2 103/149/2 104/138/2
f 107/153/6 106/152/6 105/151/6
f 106/152/6 107/153/6 108/154/6
f 103/148/8 110/156/8 109/155/8
f 110/156/8 103/148/8 87/157/8
f 110/156/8 87/157/8 111/158/8
f 111/158/8 87/157/8 85/129/8
f 113/160/3 110/149/3 112/159/3
f 110/149/3 113/160/3 109/161/3
f 114/163/8 93/162/8 98/147/8
f 115/164/8 93/162/8 114/163/8
f 116/165/8 93/162/8 115/164/8
f 93/162/8 116/165/8 94/136/8
f 116/129/1 96/30/1 117/130/1
f 96/30/1 116/129/1 115/166/1
f 117/130/1 96/30/1 95/132/1
f 117/130/1 95/132/1 118/133/1
f 100/134/1 118/133/1 95/132/1
f 102/25/1 118/133/1 100/134/1
f 102/25/1 111/136/1 118/133/1
f 111/136/1 102/25/1 110/167/1
f 115/166/1 119/168/1 96/30/1
f 119/168/1 115/166/1 105/4/1
f 119/168/1 105/4/1 120/169/1
f 120/169/1 105/4/1 121/170/1
f 121/170/1 105/4/1 106/7/1
f 121/170/1 106/7/1 122/171/1
f 123/172/1 110/167/1 102/25/1
f 110/167/1 123/172/1 112/12/1
f 112/12/1 123/172/1 124/173/1
f 112/12/1 124/173/1 122/171/1
f 112/12/1 122/171/1 125/10/1
f 125/10/1 122/171/1 106/7/1
f 114/175/2 105/160/2 115/174/2
f 105/160/2 114/175/2 107/159/2
f 106/178/4 126/177/4 125/176/4
f 126/177/4 106/178/4 108/179/4
f 126/152/7 112/153/7 125/154/7
f 112/153/7 126/152/7 113/151/7
f 104/30/5 103/131/5 127/168/5
f 109/180/5 127/168/5 103/131/5
f 127/168/5 109/180/5 113/4/5
f 127/168/5 113/4/5 128/169/5
f 128/169/5 113/4/5 129/170/5
f 129/170/5 113/4/5 126/7/5
f 129/170/5 126/7/5 108/10/5
f 108/10/5 130/171/5 129/170/5
f 107/12/5 130/171/5 108/10/5
f 107/12/5 131/173/5 130/171/5
f 107/12/5 132/172/5 131/173/5
f 114/181/5 132/172/5 107/12/5
f 114/181/5 99/25/5 132/172/5
f 99/25/5 114/181/5 98/135/5

usemtl metal

f 117/130/1 111/136/1 116/129/1
f 111/136/1 117/130/1 118/133/1
f 94/136/8 111/158/8 85/129/8
f 111/158/8 94/136/8 116/165/8
f 86/130/5 94/136/5 85/129/5
f 94/136/5 86/130/5 90/133/5

usemtl dark

f 119/168/1 95/132/1 96/30/1
f 95/132/1 119/168/1 120/169/1
f 95/132/1 120/169/1 100/134/1
f 124/173/1 100/134/1 120/169/1
f 123/172/1 100/134/1 124/173/1
f 100/134/1 123/172/1 102/25/1
f 124/173/1 120/169/1 121/170/1
f 124/173/1 121/170/1 122/171/1
f 128/169/5 104/30/5 127/168/5
f 104/30/5 128/169/5 101/132/5
f 101/132/5 128/169/5 97/134/5
f 97/134/5 128/169/5 131/173/5
f 131/173/5 128/169/5 130/171/5
f 130/171/5 128/169/5 129/170/5
f 132/172/5 97/134/5 131/173/5
f 97/134/5 132/172/5 99/25/5

g gate

v -0.25 9.674395E-09 -1.35
v -0.25 0.5 -1.35
v -0.3499999 9.674395E-09 -1.35
v -0.3499999 0.1 -1.35
v -0.3499999 0.6 -1.35
v 0.25 0.5 -1.35
v 0.35 0.6 -1.35
v 0.35 0.1 -1.35
v 0.35 9.674395E-09 -1.35
v 0.25 9.674395E-09 -1.35
v 0.35 0.6 -1.3
v 0.35 0.1 -1.3
v 0.35 0.6 -1.4
v 0.35 9.674395E-09 -1.4
v 0.35 0.1 -1.4
v -0.3499999 0.6 -1.3
v -0.3499999 0.6 -1.4
v -0.3499999 0.1 -1.3
v -0.3499999 9.674395E-09 -1.4
v -0.3499999 0.1 -1.4
v 0.9 0.7585787 -1.3
v 0.7585787 0.9 -1.3
v 0.9 0.7585787 -1.4
v 0.7585787 0.9 -1.4
v -0.9000001 9.674395E-09 -1.4
v -0.9000001 9.674395E-09 -1.3
v -0.25 9.674395E-09 -1.3
v -0.9000001 0.7585787 -1.3
v -0.9000001 0.7585787 -1.4
v 0.9 9.674395E-09 -1.4
v 0.9 9.674395E-09 -1.3
v 0.25 9.674395E-09 -1.3
v 0.25 0.5 -1.3
v -0.25 0.5 -1.3
v 0.8 0.1 -1.3
v 0.8 0.7171573 -1.3
v 0.7171574 0.8 -1.3
v -0.7171574 0.8 -1.3
v -0.8 0.1 -1.3
v -0.8 0.7171573 -1.3
v -0.7585788 0.9 -1.3
v -0.7585788 0.9 -1.4
v -0.8 0.1 -1.4
v -0.8 0.7171573 -1.4
v -0.7171574 0.8 -1.4
v 0.7171574 0.8 -1.4
v 0.8 0.7171573 -1.4
v 0.8 0.1 -1.4

vn -6.603051E-14 0 -1
vn -1 0 6.603051E-14
vn 1 0 -6.603051E-14
vn 0.7071068 0.7071068 -4.669062E-14
vn 6.603051E-14 0 1
vn -0.7071068 0.7071068 4.669062E-14


usemtl metalDark

f 135/131/11 134/130/11 133/129/11
f 134/130/11 135/131/11 136/30/11
f 134/130/11 136/30/11 137/132/11
f 134/130/11 137/132/11 138/133/11
f 139/134/11 138/133/11 137/132/11
f 140/25/11 138/133/11 139/134/11
f 141/135/11 138/133/11 140/25/11
f 138/133/11 141/135/11 142/136/11
f 139/139/12 144/138/12 143/137/12
f 144/138/12 139/139/12 140/140/12
f 145/141/12 140/140/12 139/139/12
f 140/140/12 145/141/12 141/142/12
f 141/142/12 145/141/12 146/143/12
f 146/143/12 145/141/12 147/144/12
f 139/117/8 148/145/8 137/124/8
f 148/145/8 139/117/8 143/146/8
f 137/124/8 145/147/8 139/117/8
f 145/147/8 137/124/8 149/148/8
f 136/140/13 148/141/13 150/144/13
f 148/141/13 136/140/13 137/139/13
f 136/140/13 151/149/13 137/139/13
f 151/149/13 136/140/13 135/150/13
f 137/139/13 151/149/13 149/137/13
f 149/137/13 151/149/13 152/138/13
f 155/153/14 154/152/14 153/151/14
f 154/152/14 155/153/14 156/154/14
f 151/148/8 158/156/8 157/155/8
f 158/156/8 151/148/8 135/157/8
f 158/156/8 135/157/8 159/158/8
f 159/158/8 135/157/8 133/129/8
f 161/160/12 158/149/12 160/159/12
f 158/149/12 161/160/12 157/161/12
f 162/163/8 141/162/8 146/147/8
f 163/164/8 141/162/8 162/163/8
f 164/165/8 141/162/8 163/164/8
f 141/162/8 164/165/8 142/136/8
f 164/129/15 144/30/15 165/130/15
f 144/30/15 164/129/15 163/166/15
f 165/130/15 144/30/15 143/132/15
f 165/130/15 143/132/15 166/133/15
f 148/134/15 166/133/15 143/132/15
f 150/25/15 166/133/15 148/134/15
f 150/25/15 159/136/15 166/133/15
f 159/136/15 150/25/15 158/167/15
f 163/166/15 167/168/15 144/30/15
f 167/168/15 163/166/15 153/4/15
f 167/168/15 153/4/15 168/169/15
f 168/169/15 153/4/15 169/170/15
f 169/170/15 153/4/15 154/7/15
f 169/170/15 154/7/15 170/171/15
f 171/172/15 158/167/15 150/25/15
f 158/167/15 171/172/15 160/12/15
f 160/12/15 171/172/15 172/173/15
f 160/12/15 172/173/15 170/171/15
f 160/12/15 170/171/15 173/10/15
f 173/10/15 170/171/15 154/7/15
f 162/175/13 153/160/13 163/174/13
f 153/160/13 162/175/13 155/159/13
f 154/178/4 174/177/4 173/176/4
f 174/177/4 154/178/4 156/179/4
f 174/152/16 160/153/16 173/154/16
f 160/153/16 174/152/16 161/151/16
f 152/30/11 151/131/11 175/168/11
f 157/180/11 175/168/11 151/131/11
f 175/168/11 157/180/11 161/4/11
f 175/168/11 161/4/11 176/169/11
f 176/169/11 161/4/11 177/170/11
f 177/170/11 161/4/11 174/7/11
f 177/170/11 174/7/11 156/10/11
f 156/10/11 178/171/11 177/170/11
f 155/12/11 178/171/11 156/10/11
f 155/12/11 179/173/11 178/171/11
f 155/12/11 180/172/11 179/173/11
f 162/181/11 180/172/11 155/12/11
f 162/181/11 147/25/11 180/172/11
f 147/25/11 162/181/11 146/135/11

usemtl metal

f 165/130/15 159/136/15 164/129/15
f 159/136/15 165/130/15 166/133/15
f 142/136/8 159/158/8 133/129/8
f 159/158/8 142/136/8 164/165/8
f 134/130/11 142/136/11 133/129/11
f 142/136/11 134/130/11 138/133/11

usemtl dark

f 167/168/15 143/132/15 144/30/15
f 143/132/15 167/168/15 168/169/15
f 143/132/15 168/169/15 148/134/15
f 172/173/15 148/134/15 168/169/15
f 171/172/15 148/134/15 172/173/15
f 148/134/15 171/172/15 150/25/15
f 172/173/15 168/169/15 169/170/15
f 172/173/15 169/170/15 170/171/15
f 176/169/11 152/30/11 175/168/11
f 152/30/11 176/169/11 149/132/11
f 149/132/11 176/169/11 145/134/11
f 145/134/11 176/169/11 179/173/11
f 179/173/11 176/169/11 178/171/11
f 178/171/11 176/169/11 177/170/11
f 180/172/11 145/134/11 179/173/11
f 145/134/11 180/172/11 147/25/11

