# Created by Kenney (www.kenney.nl)

mtllib hangar_largeA.mtl

g hangar_largeA

v -0.9000001 0.7585787 -1.5
v -0.9000001 0.7585787 -0.4
v -0.7585788 0.9 -1.5
v -0.7585788 0.9 -0.4
v 0.7585787 0.9 -1.5
v 0.7585787 0.9 -0.4
v 0.9 0.7585787 -1.5
v 0.9 0.7585787 -0.4
v 0.9 3.609557E-16 0.3
v 0.9 0.6 0.3
v 0.9 9.674395E-09 1.5
v 0.9 0.7585787 0.4
v 0.9 0.7585787 1.5
v 0.9 0.1 1.5
v 0.9 0.6 -0.3
v 0.9 3.609557E-16 -0.3
v 0.9 0.1 -1.5
v 0.9 9.674395E-09 -1.5
v -1 0 -1.5
v -0.9000001 9.674395E-09 -1.5
v -1 0.1 -1.5
v -0.9000001 0.1 -1.5
v 1 0 -1.5
v 1 0.1 -1.5
v -0.9000001 0.9 0.4
v -0.7585788 0.9 0.4
v -0.8 1 0.4
v 0.8 1 0.4
v 0.9 0.9 0.4
v 0.7585787 0.9 0.4
v -0.8 1 -1.5
v -0.9000001 0.9 -0.4
v -1 0.8 -1.5
v -1 0.8 1.5
v -0.8 1 1.5
v -0.8 1 -0.4
v 0.7585787 0.9 1.5
v -0.7585788 0.9 1.5
v 1 0.8 1.5
v 0.9 0.9 -0.4
v 1 0.8 -1.5
v 0.8 1 -1.5
v 0.8 1 -0.4
v 0.8 1 1.5
v 1 0 1.5
v 1 3.609557E-16 0.3
v 1 0.1 -0.4
v 1 0.6 -0.3
v 1 0.7 -0.4
v 1 0.7 0.4
v 1 0.6 0.3
v 1 0.1 0.4
v 1 0.1 1.5
v 1 3.609557E-16 -0.3
v -0.9000001 0.7585787 0.4
v -0.9000001 0.6 -0.3
v -0.9000001 0.6 0.3
v -0.9000001 3.609557E-16 0.3
v -0.9000001 9.674395E-09 1.5
v -0.9000001 0.1 1.5
v -0.9000001 0.7585787 1.5
v -0.9000001 3.609557E-16 -0.3
v 0.7 1 0.5
v -0.7 1 0.5
v -0.7 1 1.5
v 0.7 1 1.5
v -1 3.609557E-16 0.3
v -1 0 1.5
v 0.8 0.9 -0.3
v -0.8 0.9 -0.3
v -0.8 0.9 0.3
v 0.8 0.9 0.3
v -0.7 1 -1.5
v -0.7 1 -0.5
v 0.7 1 -0.5
v 0.7 1 -1.5
v 0.8 0.7585787 0.3
v -0.8 0.7585787 0.3
v -0.8 0.7585787 -0.3
v 0.8 0.7585787 -0.3
v -1 0.6 0.3
v -1 0.1 0.4
v -1 0.1 1.5
v -1 0.7 0.4
v -1 0.6 -0.3
v -1 0.7 -0.4
v -1 3.609557E-16 -0.3
v -1 0.1 -0.4
v -1 0.2 -1.5
v -1 0.4 -1.5
v 1 0.4 -1.5
v 1 0.2 -1.5
v 1 0.4 -0.5
v 1 0.2 -0.5
v 1 0.4 0.5
v 1 0.4 1.5
v 1 0.2 0.5
v 1 0.2 1.5
v -1 0.2 -0.5
v -1 0.4 -0.5
v -1 0.4 0.5
v -1 0.2 0.5
v -1 0.2 1.5
v -1 0.4 1.5

vn 0.7071068 -0.7071068 0
vn 0 -1 0
vn -0.7071068 -0.7071068 0
vn -1 0 0
vn 0 0 -1
vn -0.7071068 0.7071068 0
vn 0.7071068 0.7071068 0
vn 1 0 0
vn 0 0 1
vn 0 1 0

vt 59.05512 -3.937008
vt 15.74803 -3.937008
vt 59.05512 3.937008
vt 15.74803 3.937008
vt 29.8653 -59.05512
vt -29.8653 -59.05512
vt 29.8653 -15.74803
vt -29.8653 -15.74803
vt -59.05512 3.937008
vt -15.74803 3.937008
vt -59.05512 -3.937008
vt -15.74803 -3.937008
vt 11.81102 5.157506E-11
vt 11.81102 23.62205
vt 59.05512 3.809333E-07
vt 15.74803 29.8653
vt 59.05512 29.8653
vt -11.81102 23.62205
vt -15.74803 29.8653
vt -11.81102 5.157506E-11
vt -59.05512 29.8653
vt -59.05512 3.809333E-07
vt 39.37008 -1.950738E-08
vt 35.43307 3.613743E-07
vt 39.37008 3.937007
vt 35.43307 3.937007
vt -39.37008 -1.552823E-07
vt -39.37008 3.937007
vt -35.43307 2.255994E-07
vt -35.43307 3.937007
vt 35.43307 35.43307
vt 29.8653 35.43307
vt 31.49606 39.37008
vt -31.49606 39.37008
vt -35.43307 35.43307
vt -29.8653 35.43307
vt -59.05512 5.56777
vt -15.74803 -9.734435E-13
vt -59.05512 -5.56777
vt 59.05512 -5.56777
vt 15.74803 -3.481659E-13
vt 15.74803 5.56777
vt 59.05512 5.56777
vt -15.74803 5.56777
vt 29.8653 15.74803
vt -29.8653 15.74803
vt 29.8653 59.05512
vt -29.8653 59.05512
vt 35.43307 29.8653
vt -35.43307 29.8653
vt 15.74803 1.353584E-12
vt -15.74803 6.927792E-13
vt 39.37008 59.05512
vt 39.37008 11.81102
vt 35.43307 59.05512
vt 35.43307 11.81102
vt 15.74803 27.55906
vt -15.74803 27.55906
vt -11.81102 -1.264766E-12
vt -59.05512 -1.278977E-12
vt 11.81102 -1.264766E-12
vt 59.05512 -1.278977E-12
vt -11.81102 -5.150354E-11
vt -59.05512 3.808302E-07
vt 11.81102 -5.150354E-11
vt 59.05512 3.808302E-07
vt -31.49606 59.05512
vt -27.55906 19.68504
vt -31.49606 15.74803
vt 31.49606 15.74803
vt 27.55906 19.68504
vt 27.55906 59.05512
vt 31.49606 59.05512
vt -27.55906 59.05512
vt -35.43307 11.81102
vt -39.37008 11.81102
vt -35.43307 59.05512
vt -39.37008 59.05512
vt -35.43307 15.74803
vt -31.49606 -11.81102
vt -35.43307 -15.74803
vt 31.49606 -11.81102
vt 35.43307 -15.74803
vt 31.49606 11.81102
vt -31.49606 11.81102
vt 35.43307 15.74803
vt 59.05512 -3.937008
vt 59.05512 3.937008
vt -59.05512 -3.937008
vt 27.55906 -59.05512
vt 27.55906 -19.68504
vt 31.49606 -59.05512
vt 31.49606 -15.74803
vt -27.55906 -19.68504
vt -31.49606 -15.74803
vt -27.55906 -59.05512
vt -31.49606 -59.05512
vt 39.37008 -59.05512
vt 35.43307 -59.05512
vt 39.37008 -11.81102
vt 35.43307 -11.81102
vt 11.81102 9.277658E-13
vt 59.05512 9.135549E-13
vt -11.81102 9.277658E-13
vt -59.05512 9.135549E-13
vt -35.43307 -59.05512
vt -39.37008 -59.05512
vt -35.43307 -11.81102
vt -39.37008 -11.81102
vt 39.37008 7.874015
vt 39.37008 15.74803
vt 39.37008 31.49606
vt -39.37008 31.49606
vt -39.37008 15.74803
vt -39.37008 7.874015
vt 27.55906 39.37008
vt -27.55906 39.37008
vt 39.37008 1.421085E-14
vt 35.43307 1.421085E-14
vt 39.37008 23.62205
vt 35.43307 23.62205
vt -35.43307 1.421085E-14
vt -39.37008 1.421085E-14
vt -35.43307 23.62205
vt -39.37008 23.62205
vt 11.81102 35.43307
vt 11.81102 29.8653
vt -11.81102 35.43307
vt -11.81102 29.8653
vt 31.49606 29.8653
vt -31.49606 29.8653
vt 31.49606 35.43307
vt -31.49606 35.43307
vt 59.05512 15.74803
vt 59.05512 31.49606
vt -59.05512 31.49606
vt 19.68504 15.74803
vt 19.68504 7.874016
vt -19.68504 15.74803
vt -59.05512 15.74803
vt -19.68504 7.874016
vt -59.05512 7.874016
vt 59.05512 7.874016

usemtl metalDark

f 3/3/1 2/2/1 1/1/1
f 2/2/1 3/3/1 4/4/1
f 6/7/2 3/6/2 5/5/2
f 3/6/2 6/7/2 4/8/2
f 7/11/3 6/10/3 5/9/3
f 6/10/3 7/11/3 8/12/3
f 11/15/4 10/14/4 9/13/4
f 10/14/4 11/15/4 12/16/4
f 12/16/4 11/15/4 13/17/4
f 13/17/4 11/15/4 14/3/4
f 12/16/4 15/18/4 10/14/4
f 8/19/4 15/18/4 12/16/4
f 8/19/4 16/20/4 15/18/4
f 7/21/4 16/20/4 8/19/4
f 17/9/4 16/20/4 7/21/4
f 16/20/4 17/9/4 18/22/4
f 21/25/5 20/24/5 19/23/5
f 20/24/5 21/25/5 22/26/5
f 18/29/5 24/28/5 23/27/5
f 24/28/5 18/29/5 17/30/5
f 27/33/5 26/32/5 25/31/5
f 28/34/5 26/32/5 27/33/5
f 29/35/5 26/32/5 28/34/5
f 26/32/5 29/35/5 30/36/5
f 33/39/6 32/38/6 31/37/6
f 32/38/6 33/39/6 34/40/6
f 32/38/6 34/40/6 25/41/6
f 25/41/6 34/40/6 27/42/6
f 27/42/6 34/40/6 35/43/6
f 36/44/6 31/37/6 32/38/6
f 37/47/2 26/46/2 30/45/2
f 26/46/2 37/47/2 38/48/2
f 4/32/5 8/50/5 2/49/5
f 8/50/5 4/32/5 6/36/5
f 41/40/7 40/51/7 39/39/7
f 40/51/7 41/40/7 42/43/7
f 40/51/7 42/43/7 43/42/7
f 29/52/7 39/39/7 40/51/7
f 39/39/7 29/52/7 44/37/7
f 44/37/7 29/52/7 28/44/7
f 11/55/2 46/54/2 45/53/2
f 46/54/2 11/55/2 9/56/2
f 49/57/8 48/14/8 47/4/8
f 48/14/8 49/57/8 50/58/8
f 48/14/8 50/58/8 51/18/8
f 51/18/8 50/58/8 46/59/8
f 46/59/8 50/58/8 52/10/8
f 46/59/8 52/10/8 45/60/8
f 45/60/8 52/10/8 53/9/8
f 54/61/8 47/4/8 48/14/8
f 23/62/8 47/4/8 54/61/8
f 47/4/8 23/62/8 24/3/8
f 30/32/9 55/50/9 12/49/9
f 55/50/9 30/32/9 26/36/9
f 43/33/9 6/32/9 40/31/9
f 6/32/9 43/33/9 4/36/9
f 36/34/9 4/36/9 43/33/9
f 4/36/9 36/34/9 32/35/9
f 55/19/8 56/14/8 2/16/8
f 56/14/8 55/19/8 57/18/8
f 57/18/8 55/19/8 58/63/8
f 58/63/8 55/19/8 59/64/8
f 59/64/8 55/19/8 60/9/8
f 60/9/8 55/19/8 61/21/8
f 62/65/8 2/16/8 56/14/8
f 62/65/8 1/17/8 2/16/8
f 62/65/8 22/3/8 1/17/8
f 22/3/8 62/65/8 20/66/8
f 28/69/10 63/68/10 44/67/10
f 63/68/10 28/69/10 27/70/10
f 63/68/10 27/70/10 64/71/10
f 64/71/10 27/70/10 65/72/10
f 65/72/10 27/70/10 35/73/10
f 66/74/10 44/67/10 63/68/10
f 59/77/2 67/76/2 58/75/2
f 67/76/2 59/77/2 68/78/2
f 40/81/10 69/80/10 29/79/10
f 69/80/10 40/81/10 6/8/10
f 69/80/10 6/8/10 70/82/10
f 70/82/10 6/8/10 4/7/10
f 70/82/10 4/7/10 32/83/10
f 70/82/10 32/83/10 71/84/10
f 72/85/10 29/79/10 69/80/10
f 29/79/10 72/85/10 30/46/10
f 30/46/10 72/85/10 71/84/10
f 30/46/10 71/84/10 26/45/10
f 26/45/10 71/84/10 25/86/10
f 25/86/10 71/84/10 32/83/10
f 13/87/3 30/4/3 12/2/3
f 30/4/3 13/87/3 37/88/3
f 38/9/1 55/12/1 26/10/1
f 55/12/1 38/9/1 61/89/1
f 31/92/10 74/91/10 73/90/10
f 36/93/10 74/91/10 31/92/10
f 36/93/10 75/94/10 74/91/10
f 43/95/10 75/94/10 36/93/10
f 43/95/10 76/96/10 75/94/10
f 76/96/10 43/95/10 42/97/10
f 12/86/2 77/84/2 8/83/2
f 77/84/2 12/86/2 55/79/2
f 77/84/2 55/79/2 78/85/2
f 78/85/2 55/79/2 79/80/2
f 80/82/2 8/83/2 77/84/2
f 8/83/2 80/82/2 2/81/2
f 2/81/2 80/82/2 79/80/2
f 2/81/2 79/80/2 55/79/2
f 54/100/2 18/99/2 23/98/2
f 18/99/2 54/100/2 16/101/2
f 67/102/4 82/4/4 81/14/4
f 82/4/4 67/102/4 68/103/4
f 82/4/4 68/103/4 83/3/4
f 84/57/4 81/14/4 82/4/4
f 84/57/4 85/18/4 81/14/4
f 86/58/4 85/18/4 84/57/4
f 86/58/4 87/104/4 85/18/4
f 88/10/4 87/104/4 86/58/4
f 21/9/4 87/104/4 88/10/4
f 87/104/4 21/9/4 19/105/4
f 62/108/2 19/107/2 20/106/2
f 19/107/2 62/108/2 87/109/2
f 59/29/9 83/28/9 68/27/9
f 83/28/9 59/29/9 60/30/9
f 53/25/9 11/24/9 45/23/9
f 11/24/9 53/25/9 14/26/9

usemtl metal

f 89/110/5 22/26/5 21/25/5
f 22/26/5 89/110/5 1/49/5
f 1/49/5 89/110/5 90/111/5
f 1/49/5 90/111/5 33/112/5
f 1/49/5 33/112/5 3/32/5
f 3/32/5 33/112/5 31/33/5
f 42/34/5 3/32/5 31/33/5
f 42/34/5 5/36/5 3/32/5
f 41/113/5 5/36/5 42/34/5
f 41/113/5 7/50/5 5/36/5
f 91/114/5 7/50/5 41/113/5
f 92/115/5 7/50/5 91/114/5
f 92/115/5 17/30/5 7/50/5
f 17/30/5 92/115/5 24/28/5
f 42/34/5 31/33/5 73/116/5
f 42/34/5 73/116/5 76/117/5
f 73/90/10 75/94/10 76/96/10
f 75/94/10 73/90/10 74/91/10
f 81/120/5 58/119/5 67/118/5
f 58/119/5 81/120/5 57/121/5
f 51/54/2 15/101/2 48/100/2
f 15/101/2 51/54/2 10/56/2
f 10/124/5 46/123/5 9/122/5
f 46/123/5 10/124/5 51/125/5
f 48/120/9 16/119/9 54/118/9
f 16/119/9 48/120/9 15/121/9
f 71/128/8 79/127/8 70/126/8
f 79/127/8 71/128/8 78/129/8
f 71/132/5 77/131/5 78/130/5
f 77/131/5 71/132/5 72/133/5
f 41/135/8 49/57/8 91/134/8
f 49/57/8 41/135/8 39/136/8
f 91/134/8 49/57/8 93/137/8
f 93/137/8 49/57/8 94/138/8
f 49/57/8 39/136/8 50/58/8
f 50/58/8 39/136/8 95/139/8
f 50/58/8 95/139/8 52/10/8
f 95/139/8 39/136/8 96/140/8
f 97/141/8 52/10/8 95/139/8
f 52/10/8 97/141/8 53/9/8
f 53/9/8 97/141/8 98/142/8
f 47/4/8 94/138/8 49/57/8
f 24/3/8 94/138/8 47/4/8
f 94/138/8 24/3/8 92/143/8
f 81/76/2 56/108/2 57/75/2
f 56/108/2 81/76/2 85/109/2
f 77/127/4 69/128/4 80/129/4
f 69/128/4 77/127/4 72/126/4
f 69/132/9 79/131/9 80/130/9
f 79/131/9 69/132/9 70/133/9
f 56/124/9 87/123/9 62/122/9
f 87/123/9 56/124/9 85/125/9
f 88/10/4 89/142/4 21/9/4
f 89/142/4 88/10/4 99/141/4
f 99/141/4 88/10/4 100/139/4
f 86/58/4 100/139/4 88/10/4
f 33/136/4 100/139/4 86/58/4
f 100/139/4 33/136/4 90/140/4
f 33/136/4 86/58/4 34/135/4
f 34/135/4 86/58/4 84/57/4
f 34/135/4 84/57/4 101/137/4
f 101/137/4 84/57/4 102/138/4
f 82/4/4 102/138/4 84/57/4
f 102/138/4 82/4/4 83/3/4
f 102/138/4 83/3/4 103/143/4
f 34/135/4 101/137/4 104/134/4
f 98/110/9 14/26/9 53/25/9
f 14/26/9 98/110/9 13/49/9
f 13/49/9 98/110/9 96/111/9
f 13/49/9 96/111/9 39/112/9
f 13/49/9 39/112/9 37/32/9
f 37/32/9 39/112/9 44/33/9
f 35/34/9 37/32/9 44/33/9
f 35/34/9 38/36/9 37/32/9
f 34/113/9 38/36/9 35/34/9
f 34/113/9 61/50/9 38/36/9
f 104/114/9 61/50/9 34/113/9
f 103/115/9 61/50/9 104/114/9
f 103/115/9 60/30/9 61/50/9
f 60/30/9 103/115/9 83/28/9
f 35/34/9 44/33/9 66/116/9
f 35/34/9 66/116/9 65/117/9
f 64/71/10 66/74/10 63/68/10
f 66/74/10 64/71/10 65/72/10

usemtl metalRed

f 93/137/8 92/143/8 91/134/8
f 92/143/8 93/137/8 94/138/8
f 99/141/4 90/140/4 89/142/4
f 90/140/4 99/141/4 100/139/4
f 103/143/4 101/137/4 102/138/4
f 101/137/4 103/143/4 104/134/4
f 96/140/8 97/141/8 95/139/8
f 97/141/8 96/140/8 98/142/8

g gate

v 0.25 9.674395E-09 1.35
v 0.25 0.5 1.35
v 0.35 9.674395E-09 1.35
v 0.35 0.1 1.35
v 0.35 0.6 1.35
v -0.25 0.5 1.35
v -0.3499999 0.6 1.35
v -0.3499999 0.1 1.35
v -0.3499999 9.674395E-09 1.35
v -0.25 9.674395E-09 1.35
v -0.3499999 0.6 1.3
v -0.3499999 0.1 1.3
v -0.3499999 0.6 1.4
v -0.3499999 9.674395E-09 1.4
v -0.3499999 0.1 1.4
v 0.35 0.6 1.3
v 0.35 0.6 1.4
v 0.35 0.1 1.3
v 0.35 9.674395E-09 1.4
v 0.35 0.1 1.4
v -0.9000001 0.7585787 1.3
v -0.7585788 0.9 1.3
v -0.9000001 0.7585787 1.4
v -0.7585788 0.9 1.4
v 0.9 9.674395E-09 1.4
v 0.9 9.674395E-09 1.3
v 0.25 9.674395E-09 1.3
v 0.9 0.7585787 1.3
v 0.9 0.7585787 1.4
v -0.9000001 9.674395E-09 1.4
v -0.9000001 9.674395E-09 1.3
v -0.25 9.674395E-09 1.3
v -0.25 0.5 1.3
v 0.25 0.5 1.3
v -0.8 0.1 1.3
v -0.8 0.7171573 1.3
v -0.7171574 0.8 1.3
v 0.7171574 0.8 1.3
v 0.8 0.1 1.3
v 0.8 0.7171573 1.3
v 0.7585787 0.9 1.3
v 0.7585787 0.9 1.4
v 0.8 0.1 1.4
v 0.8 0.7171573 1.4
v 0.7171574 0.8 1.4
v -0.7171574 0.8 1.4
v -0.8 0.7171573 1.4
v -0.8 0.1 1.4


vt 9.84252 0
vt 9.84252 19.68504
vt 13.77953 4.337709E-16
vt 13.77953 3.937008
vt 13.77953 23.62205
vt -9.84252 19.68504
vt -13.77953 23.62205
vt -13.77953 3.937008
vt -13.77953 4.390626E-16
vt -9.84252 0
vt 1.968504 23.62205
vt 1.968504 3.937008
vt 0 23.62205
vt 0 3.937008
vt -1.968504 23.62205
vt 0 4.390626E-16
vt -1.968504 4.390626E-16
vt -1.968504 3.937008
vt 13.77953 0
vt 13.77953 -1.968504
vt -13.77953 0
vt -13.77953 -1.968504
vt -13.77953 1.968504
vt 13.77953 1.968504
vt 1.968504 4.337709E-16
vt 0 4.337709E-16
vt -1.968504 -3.937008
vt -1.968504 3.937008
vt 1.968504 -3.937008
vt 1.968504 3.937008
vt 35.43307 1.968504
vt 35.43307 -1.968504
vt 13.77953 6.614466E-33
vt 9.84252 -1.968504
vt 1.968504 29.8653
vt -1.968504 29.8653
vt -1.968504 4.111877E-16
vt -13.77953 7.283172E-33
vt -35.43307 1.968504
vt -35.43307 -1.968504
vt -9.84252 -1.968504
vt 35.43307 4.440892E-16
vt -35.43307 4.337709E-16
vt 31.49606 3.937008
vt 31.49606 28.23454
vt 28.23454 31.49606
vt -28.23454 31.49606
vt -31.49606 3.937008
vt -31.49606 28.23454
vt -1.968504 4.440892E-16
vt 1.968504 4.440892E-16
vt -29.8653 -1.968504
vt -29.8653 1.968504
vt 29.8653 -1.968504
vt 29.8653 1.968504
vt 35.43307 4.111877E-16
vt -35.43307 4.440892E-16

usemtl metalDark

f 107/146/9 106/145/9 105/144/9
f 106/145/9 107/146/9 108/147/9
f 106/145/9 108/147/9 109/148/9
f 106/145/9 109/148/9 110/149/9
f 111/150/9 110/149/9 109/148/9
f 112/151/9 110/149/9 111/150/9
f 113/152/9 110/149/9 112/151/9
f 110/149/9 113/152/9 114/153/9
f 111/156/8 116/155/8 115/154/8
f 116/155/8 111/156/8 112/157/8
f 117/158/8 112/157/8 111/156/8
f 112/157/8 117/158/8 113/159/8
f 113/159/8 117/158/8 118/160/8
f 118/160/8 117/158/8 119/161/8
f 111/164/2 120/163/2 109/162/2
f 120/163/2 111/164/2 115/165/2
f 109/162/2 117/166/2 111/164/2
f 117/166/2 109/162/2 121/167/2
f 108/157/4 120/158/4 122/161/4
f 120/158/4 108/157/4 109/156/4
f 108/157/4 123/168/4 109/156/4
f 123/168/4 108/157/4 107/169/4
f 109/156/4 123/168/4 121/154/4
f 121/154/4 123/168/4 124/155/4
f 127/172/6 126/171/6 125/170/6
f 126/171/6 127/172/6 128/173/6
f 123/167/2 130/175/2 129/174/2
f 130/175/2 123/167/2 107/176/2
f 130/175/2 107/176/2 131/177/2
f 131/177/2 107/176/2 105/144/2
f 133/179/8 130/168/8 132/178/8
f 130/168/8 133/179/8 129/180/8
f 134/182/2 113/181/2 118/166/2
f 135/183/2 113/181/2 134/182/2
f 136/184/2 113/181/2 135/183/2
f 113/181/2 136/184/2 114/153/2
f 136/144/5 116/147/5 137/145/5
f 116/147/5 136/144/5 135/185/5
f 137/145/5 116/147/5 115/148/5
f 137/145/5 115/148/5 138/149/5
f 120/150/5 138/149/5 115/148/5
f 122/151/5 138/149/5 120/150/5
f 122/151/5 131/153/5 138/149/5
f 131/153/5 122/151/5 130/186/5
f 135/185/5 139/187/5 116/147/5
f 139/187/5 135/185/5 125/49/5
f 139/187/5 125/49/5 140/188/5
f 140/188/5 125/49/5 141/189/5
f 141/189/5 125/49/5 126/32/5
f 141/189/5 126/32/5 142/190/5
f 143/191/5 130/186/5 122/151/5
f 130/186/5 143/191/5 132/50/5
f 132/50/5 143/191/5 144/192/5
f 132/50/5 144/192/5 142/190/5
f 132/50/5 142/190/5 145/36/5
f 145/36/5 142/190/5 126/32/5
f 134/194/4 125/179/4 135/193/4
f 125/179/4 134/194/4 127/178/4
f 126/197/10 146/196/10 145/195/10
f 146/196/10 126/197/10 128/198/10
f 146/171/7 132/172/7 145/173/7
f 132/172/7 146/171/7 133/170/7
f 124/147/9 123/146/9 147/187/9
f 129/199/9 147/187/9 123/146/9
f 147/187/9 129/199/9 133/49/9
f 147/187/9 133/49/9 148/188/9
f 148/188/9 133/49/9 149/189/9
f 149/189/9 133/49/9 146/32/9
f 149/189/9 146/32/9 128/36/9
f 128/36/9 150/190/9 149/189/9
f 127/50/9 150/190/9 128/36/9
f 127/50/9 151/192/9 150/190/9
f 127/50/9 152/191/9 151/192/9
f 134/200/9 152/191/9 127/50/9
f 134/200/9 119/151/9 152/191/9
f 119/151/9 134/200/9 118/152/9

usemtl metal

f 137/145/5 131/153/5 136/144/5
f 131/153/5 137/145/5 138/149/5
f 114/153/2 131/177/2 105/144/2
f 131/177/2 114/153/2 136/184/2
f 106/145/9 114/153/9 105/144/9
f 114/153/9 106/145/9 110/149/9

usemtl dark

f 139/187/5 115/148/5 116/147/5
f 115/148/5 139/187/5 140/188/5
f 115/148/5 140/188/5 120/150/5
f 144/192/5 120/150/5 140/188/5
f 143/191/5 120/150/5 144/192/5
f 120/150/5 143/191/5 122/151/5
f 144/192/5 140/188/5 141/189/5
f 144/192/5 141/189/5 142/190/5
f 148/188/9 124/147/9 147/187/9
f 124/147/9 148/188/9 121/148/9
f 121/148/9 148/188/9 117/150/9
f 117/150/9 148/188/9 151/192/9
f 151/192/9 148/188/9 150/190/9
f 150/190/9 148/188/9 149/189/9
f 152/191/9 117/150/9 151/192/9
f 117/150/9 152/191/9 119/151/9

g gate

v -0.25 9.674395E-09 -1.35
v -0.25 0.5 -1.35
v -0.3499999 9.674395E-09 -1.35
v -0.3499999 0.1 -1.35
v -0.3499999 0.6 -1.35
v 0.25 0.5 -1.35
v 0.35 0.6 -1.35
v 0.35 0.1 -1.35
v 0.35 9.674395E-09 -1.35
v 0.25 9.674395E-09 -1.35
v 0.35 0.6 -1.3
v 0.35 0.1 -1.3
v 0.35 0.6 -1.4
v 0.35 9.674395E-09 -1.4
v 0.35 0.1 -1.4
v -0.3499999 0.6 -1.3
v -0.3499999 0.6 -1.4
v -0.3499999 0.1 -1.3
v -0.3499999 9.674395E-09 -1.4
v -0.3499999 0.1 -1.4
v 0.9 0.7585787 -1.3
v 0.7585787 0.9 -1.3
v 0.9 0.7585787 -1.4
v 0.7585787 0.9 -1.4
v -0.9000001 9.674395E-09 -1.4
v -0.9000001 9.674395E-09 -1.3
v -0.25 9.674395E-09 -1.3
v -0.9000001 0.7585787 -1.3
v -0.9000001 0.7585787 -1.4
v 0.9 9.674395E-09 -1.4
v 0.9 9.674395E-09 -1.3
v 0.25 9.674395E-09 -1.3
v 0.25 0.5 -1.3
v -0.25 0.5 -1.3
v 0.8 0.1 -1.3
v 0.8 0.7171573 -1.3
v 0.7171574 0.8 -1.3
v -0.7171574 0.8 -1.3
v -0.8 0.1 -1.3
v -0.8 0.7171573 -1.3
v -0.7585788 0.9 -1.3
v -0.7585788 0.9 -1.4
v -0.8 0.1 -1.4
v -0.8 0.7171573 -1.4
v -0.7171574 0.8 -1.4
v 0.7171574 0.8 -1.4
v 0.8 0.7171573 -1.4
v 0.8 0.1 -1.4

vn -6.603051E-14 0 -1
vn -1 0 6.603051E-14
vn 1 0 -6.603051E-14
vn 0.7071068 0.7071068 -4.669062E-14
vn 6.603051E-14 0 1
vn -0.7071068 0.7071068 4.669062E-14


usemtl metalDark

f 155/146/11 154/145/11 153/144/11
f 154/145/11 155/146/11 156/147/11
f 154/145/11 156/147/11 157/148/11
f 154/145/11 157/148/11 158/149/11
f 159/150/11 158/149/11 157/148/11
f 160/151/11 158/149/11 159/150/11
f 161/152/11 158/149/11 160/151/11
f 158/149/11 161/152/11 162/153/11
f 159/156/12 164/155/12 163/154/12
f 164/155/12 159/156/12 160/157/12
f 165/158/12 160/157/12 159/156/12
f 160/157/12 165/158/12 161/159/12
f 161/159/12 165/158/12 166/160/12
f 166/160/12 165/158/12 167/161/12
f 159/164/2 168/163/2 157/162/2
f 168/163/2 159/164/2 163/165/2
f 157/162/2 165/166/2 159/164/2
f 165/166/2 157/162/2 169/167/2
f 156/157/13 168/158/13 170/161/13
f 168/158/13 156/157/13 157/156/13
f 156/157/13 171/168/13 157/156/13
f 171/168/13 156/157/13 155/169/13
f 157/156/13 171/168/13 169/154/13
f 169/154/13 171/168/13 172/155/13
f 175/172/14 174/171/14 173/170/14
f 174/171/14 175/172/14 176/173/14
f 171/167/2 178/175/2 177/174/2
f 178/175/2 171/167/2 155/176/2
f 178/175/2 155/176/2 179/177/2
f 179/177/2 155/176/2 153/144/2
f 181/179/12 178/168/12 180/178/12
f 178/168/12 181/179/12 177/180/12
f 182/182/2 161/181/2 166/166/2
f 183/183/2 161/181/2 182/182/2
f 184/184/2 161/181/2 183/183/2
f 161/181/2 184/184/2 162/153/2
f 184/144/15 164/147/15 185/145/15
f 164/147/15 184/144/15 183/185/15
f 185/145/15 164/147/15 163/148/15
f 185/145/15 163/148/15 186/149/15
f 168/150/15 186/149/15 163/148/15
f 170/151/15 186/149/15 168/150/15
f 170/151/15 179/153/15 186/149/15
f 179/153/15 170/151/15 178/186/15
f 183/185/15 187/187/15 164/147/15
f 187/187/15 183/185/15 173/49/15
f 187/187/15 173/49/15 188/188/15
f 188/188/15 173/49/15 189/189/15
f 189/189/15 173/49/15 174/32/15
f 189/189/15 174/32/15 190/190/15
f 191/191/15 178/186/15 170/151/15
f 178/186/15 191/191/15 180/50/15
f 180/50/15 191/191/15 192/192/15
f 180/50/15 192/192/15 190/190/15
f 180/50/15 190/190/15 193/36/15
f 193/36/15 190/190/15 174/32/15
f 182/194/13 173/179/13 183/193/13
f 173/179/13 182/194/13 175/178/13
f 174/197/10 194/196/10 193/195/10
f 194/196/10 174/197/10 176/198/10
f 194/171/16 180/172/16 193/173/16
f 180/172/16 194/171/16 181/170/16
f 172/147/11 171/146/11 195/187/11
f 177/199/11 195/187/11 171/146/11
f 195/187/11 177/199/11 181/49/11
f 195/187/11 181/49/11 196/188/11
f 196/188/11 181/49/11 197/189/11
f 197/189/11 181/49/11 194/32/11
f 197/189/11 194/32/11 176/36/11
f 176/36/11 198/190/11 197/189/11
f 175/50/11 198/190/11 176/36/11
f 175/50/11 199/192/11 198/190/11
f 175/50/11 200/191/11 199/192/11
f 182/200/11 200/191/11 175/50/11
f 182/200/11 167/151/11 200/191/11
f 167/151/11 182/200/11 166/152/11

usemtl metal

f 185/145/15 179/153/15 184/144/15
f 179/153/15 185/145/15 186/149/15
f 162/153/2 179/177/2 153/144/2
f 179/177/2 162/153/2 184/184/2
f 154/145/11 162/153/11 153/144/11
f 162/153/11 154/145/11 158/149/11

usemtl dark

f 187/187/15 163/148/15 164/147/15
f 163/148/15 187/187/15 188/188/15
f 163/148/15 188/188/15 168/150/15
f 192/192/15 168/150/15 188/188/15
f 191/191/15 168/150/15 192/192/15
f 168/150/15 191/191/15 170/151/15
f 192/192/15 188/188/15 189/189/15
f 192/192/15 189/189/15 190/190/15
f 196/188/11 172/147/11 195/187/11
f 172/147/11 196/188/11 169/148/11
f 169/148/11 196/188/11 165/150/11
f 165/150/11 196/188/11 199/192/11
f 199/192/11 196/188/11 198/190/11
f 198/190/11 196/188/11 197/189/11
f 200/191/11 165/150/11 199/192/11
f 165/150/11 200/191/11 167/151/11

