# Created by Kenney (www.kenney.nl)

mtllib monorail_trainEnd.mtl

g monorail_trainEnd

v -0.22 0.4 0.4
v -0.22 0.6011906 0.4
v -0.25 0.4 0.4
v -0.25 0.6011906 0.4
v -0.0999999 0.75 -0.2
v -0.0999999 0.8 -0.15
v -0.0999999 0.75 0.4
v -0.0999999 0.8 0.4
v 0.1 0.75 0.4
v 0.1 0.8 0.4
v -0.25 0.25 0.4
v -0.25 0.2 0.45
v -0.25 0.65 0.4
v -0.25 0.65 0.5
v -0.25 0.2 0.5
v 0.25 0.65 -0.02499998
v 0.25 0.6011906 -0.02499998
v 0.25 0.65 0.02499998
v 0.25 0.4 -0.02499998
v 0.25 0.4 0.02499998
v 0.25 0.6011906 0.02499998
v 0.22 0.4 0.4
v 0.25 0.4 0.4
v 0.22 0.6011906 0.4
v 0.25 0.6011906 0.4
v 0.25 0.2 0.5
v 0.25 0.65 0.5
v -0.25 0.4 -0.02499998
v -0.25 0.6011906 -0.02499998
v -0.25 0.4 0.02499998
v -0.25 0.65 -0.02499998
v -0.25 0.65 0.02499998
v -0.25 0.6011906 0.02499998
v -0.22 0.4 0.02499998
v -0.22 0.6011906 0.02499998
v 0.25 0.3023813 -0.4772485
v 0.25 0.4 -0.5
v 0.2 0.3023813 -0.4772485
v 0.2 0.4 -0.5
v 0.25 0.2 -0.5
v 0.25 0.2 -0.02499998
v 0.2 0.2 -0.5
v -0.25 0.2 -0.02499998
v -0.2 0.2 -0.5
v -0.25 0.2 -0.5
v -0.25 0.3023813 -0.4772485
v -0.2 0.3023813 -0.4772485
v -0.25 0.4 -0.5
v -0.2 0.4 -0.5
v 0.1 0.75 -0.2
v 0.1 0.8 -0.15
v 0.25 0.65 0.4
v 0.25 0.25 0.4
v 0.25 0.2 0.45
v -0.2 0.4 -0.4555556
v 0.2 0.4 -0.4555556
v 0.22 0.4 0.02499998
v 0.22 0.6011906 0.02499998
v 0.25 0.15 0.5
v 0.25 0.15 -0.5
v 0.2 0.15 0.5
v 0.2 0.15 -0.5
v 0.2 0.75 0.5
v 0.2 0.75 -0.3
v -0.2 0.75 -0.3
v -0.2 0.75 0.5
v 0.25 0.65 -0.4
v -0.25 0.65 -0.4
v -0.2 0.15 0.5
v -0.25 0.15 0.5
v -0.25 0.15 -0.5
v -0.2 0.15 -0.5
v -0.25 0.25 -0.02499998
v 0.25 0.25 -0.02499998
v 0.1 -9.023893E-17 -0.5
v 0.1 0.1 -0.5
v 0.1 -9.023893E-17 0.5
v 0.1 0.1 0.5
v -0.0999999 0.1 -0.5
v -0.0999999 -9.023893E-17 -0.5
v -0.0999999 0.1 0.5
v -0.0999999 -9.023893E-17 0.5
v -0.1500001 -9.023893E-17 -0.5
v -0.2 0.1 -0.5
v 0.2 0.1 -0.5
v 0.15 -9.023893E-17 -0.5
v 0.25 0.4 -0.4555556
v 0.25 0.6011906 -0.4108465
v -0.1500001 -9.023893E-17 0.5
v 0.2 0.1 0.5
v 0.15 -9.023893E-17 0.5
v -0.2 0.1 0.5
v -0.25 0.4 -0.4555556
v -0.25 0.6011906 -0.4108465

vn 0 0 -1
vn -1 0 0
vn 0 0 1
vn 1 0 0
vn 0 -0.2269808 -0.9738992
vn 0 1 0
vn 0 0.2169305 -0.9761871
vn 0 0.7071068 -0.7071068
vn 0 -1 0
vn 0.8944272 0.4472136 0
vn -0.8944272 0.4472136 0
vn 0.8944272 -0.4472136 0
vn -0.8944272 -0.4472136 0

vt 8.661417 15.74803
vt 8.661417 23.66892
vt 9.84252 15.74803
vt 9.84252 23.66892
vt -7.874016 29.52756
vt -5.905512 31.49606
vt 15.74803 29.52756
vt 15.74803 31.49606
vt 3.937008 29.52756
vt -3.937008 29.52756
vt 3.937008 31.49606
vt -3.937008 31.49606
vt 15.74803 9.84252
vt 15.74803 15.74803
vt 17.71654 7.874016
vt 15.74803 23.66892
vt 15.74803 25.59055
vt 19.68504 25.59055
vt 19.68504 7.874016
vt 0.984252 25.59055
vt 0.984252 23.66892
vt -0.984252 25.59055
vt 0.984252 15.74803
vt -0.984252 15.74803
vt -0.984252 23.66892
vt -8.661417 15.74803
vt -9.84252 15.74803
vt -8.661417 23.66892
vt -9.84252 23.66892
vt 9.84252 7.874016
vt -9.84252 7.874016
vt 9.84252 25.59055
vt -9.84252 25.59055
vt -9.84252 15.85886
vt -9.84252 19.80512
vt -7.874016 15.85886
vt -7.874016 19.80512
vt -9.84252 -19.68504
vt -9.84252 -0.984252
vt -7.874016 -19.68504
vt 9.84252 -0.984252
vt 7.874016 -19.68504
vt 9.84252 -19.68504
vt 9.84252 15.85886
vt 7.874016 15.85886
vt 9.84252 19.80512
vt 7.874016 19.80512
vt 7.874016 29.52756
vt -15.74803 29.52756
vt 5.905512 31.49606
vt -15.74803 31.49606
vt -15.74803 25.59055
vt -15.74803 23.66892
vt -19.68504 25.59055
vt -15.74803 15.74803
vt -15.74803 9.84252
vt -17.71654 7.874016
vt -19.68504 7.874016
vt -3.937008 -5.905512
vt -3.937008 15.74803
vt 3.937008 -5.905512
vt 3.937008 15.74803
vt 7.874016 3.416228
vt -7.874016 3.416228
vt 7.874016 7.545313
vt -7.874016 7.545313
vt 7.874016 11.48232
vt -7.874016 11.48232
vt 3.937008 15.31137
vt -3.937008 15.31137
vt 3.937008 18.09525
vt -3.937008 18.09525
vt 9.84252 19.68504
vt 7.874016 19.68504
vt -7.874016 19.68504
vt -3.937008 -7.874016
vt -7.874016 -11.81102
vt 7.874016 -11.81102
vt 3.937008 -7.874016
vt 15.74803 18.48718
vt 0.984252 18.48718
vt 11.81102 22.88889
vt -19.68504 22.88889
vt -0.984252 18.48718
vt -15.74803 18.48718
vt -19.68504 18.48718
vt 9.84252 -15.74803
vt -9.84252 -15.74803
vt 9.84252 5.905512
vt 7.874016 5.905512
vt -7.874016 5.905512
vt -9.84252 5.905512
vt 7.874016 7.874016
vt -7.874016 7.874016
vt -9.84252 19.68504
vt 9.84252 6.959713
vt -9.84252 6.959713
vt 7.874016 12.52748
vt -7.874016 12.52748
vt -19.68504 5.905512
vt 19.68504 5.905512
vt -0.984252 7.874016
vt -0.984252 9.84252
vt 0.984252 9.84252
vt 0.984252 7.874016
vt -11.81102 22.88889
vt 19.68504 22.88889
vt 19.68504 18.48718
vt -19.68504 -3.552714E-15
vt -19.68504 3.937008
vt 19.68504 -3.552714E-15
vt 19.68504 3.937008
vt 5.905512 -3.552714E-15
vt 3.937008 -3.552714E-15
vt 7.874016 3.937008
vt 3.937008 3.937008
vt -3.937008 3.937008
vt -7.874016 3.937008
vt -5.905512 -3.552714E-15
vt -3.937008 -3.552714E-15
vt 17.93526 15.74803
vt 16.17506 23.66892
vt 3.937008 19.68504
vt 3.937008 -19.68504
vt -3.937008 19.68504
vt -3.937008 -19.68504
vt -5.905512 19.68504
vt -5.905512 -19.68504
vt 19.68504 7.042734
vt 19.68504 2.641025
vt -19.68504 7.042734
vt -19.68504 2.641025
vt 5.905512 19.68504
vt 5.905512 -19.68504
vt 9.84252 11.48232
vt 9.84252 19.59643
vt -9.84252 11.48232
vt -9.84252 19.59643
vt -17.93526 15.74803
vt -16.17506 23.66892
vt -8.661417 0.984252
vt -9.84252 0.984252
vt 8.661417 0.984252
vt 9.84252 0.984252
vt 9.84252 3.416228
vt 9.84252 7.545313
vt -9.84252 -17.93526
vt -7.874016 -17.93526
vt -18.78931 11.90478
vt -19.68504 15.74803
vt -9.84252 3.416228
vt -9.84252 7.545313
vt 19.68504 15.74803
vt 18.78931 11.90478
vt 7.874016 -17.93526
vt 9.84252 -17.93526
vt 9.84252 21.56494
vt -9.84252 21.56494

usemtl metal

f 3/3/1 2/2/1 1/1/1
f 2/2/1 3/3/1 4/4/1
f 7/7/2 6/6/2 5/5/2
f 6/6/2 7/7/2 8/8/2
f 10/11/3 7/10/3 9/9/3
f 7/10/3 10/11/3 8/12/3
f 12/15/2 3/14/2 11/13/2
f 3/14/2 12/15/2 4/16/2
f 4/16/2 12/15/2 13/17/2
f 13/17/2 12/15/2 14/18/2
f 14/18/2 12/15/2 15/19/2
f 18/22/4 17/21/4 16/20/4
f 17/21/4 18/22/4 19/23/4
f 19/23/4 18/22/4 20/24/4
f 20/24/4 18/22/4 21/25/4
f 24/28/1 23/27/1 22/26/1
f 23/27/1 24/28/1 25/29/1
f 27/32/3 15/31/3 26/30/3
f 15/31/3 27/32/3 14/33/3
f 30/23/2 29/25/2 28/24/2
f 29/25/2 30/23/2 31/22/2
f 31/22/2 30/23/2 32/20/2
f 32/20/2 30/23/2 33/21/2
f 35/28/3 30/27/3 34/26/3
f 30/27/3 35/28/3 33/29/3
f 38/36/5 37/35/5 36/34/5
f 37/35/5 38/36/5 39/37/5
f 42/40/6 41/39/6 40/38/6
f 41/39/6 42/40/6 43/41/6
f 43/41/6 42/40/6 44/42/6
f 43/41/6 44/42/6 45/43/6
f 48/46/5 47/45/5 46/44/5
f 47/45/5 48/46/5 49/47/5
f 51/50/4 9/49/4 50/48/4
f 9/49/4 51/50/4 10/51/4
f 27/54/4 25/53/4 52/52/4
f 25/53/4 27/54/4 23/55/4
f 23/55/4 27/54/4 53/56/4
f 53/56/4 27/54/4 54/57/4
f 54/57/4 27/54/4 26/58/4
f 6/61/6 10/60/6 51/59/6
f 10/60/6 6/61/6 8/62/6
f 47/65/7 42/64/7 44/63/7
f 42/64/7 47/65/7 38/66/7
f 38/66/7 47/65/7 55/67/7
f 38/66/7 55/67/7 56/68/7
f 20/3/3 58/2/3 57/1/3
f 58/2/3 20/3/3 21/4/3
f 6/71/8 50/70/8 5/69/8
f 50/70/8 6/71/8 51/72/8

usemtl metalRed

f 61/74/9 60/43/9 59/73/9
f 60/43/9 61/74/9 62/42/9
f 64/77/6 50/76/6 63/75/6
f 50/76/6 64/77/6 65/78/6
f 50/76/6 65/78/6 5/79/6
f 5/79/6 65/78/6 7/62/6
f 9/60/6 63/75/6 50/76/6
f 63/75/6 9/60/6 66/74/6
f 66/74/6 9/60/6 7/62/6
f 66/74/6 7/62/6 65/78/6
f 64/82/10 16/81/10 67/80/10
f 16/81/10 64/82/10 63/83/10
f 16/81/10 63/83/10 18/84/10
f 18/84/10 63/83/10 52/85/10
f 52/85/10 63/83/10 27/86/10
f 31/39/9 67/87/9 16/41/9
f 67/87/9 31/39/9 68/88/9
f 26/30/3 61/90/3 59/89/3
f 61/90/3 26/30/3 69/91/3
f 69/91/3 26/30/3 70/92/3
f 70/92/3 26/30/3 15/31/3
f 45/30/1 72/90/1 71/89/1
f 72/90/1 45/30/1 62/91/1
f 62/91/1 45/30/1 60/92/1
f 60/92/1 45/30/1 44/93/1
f 44/93/1 40/31/1 60/92/1
f 40/31/1 44/93/1 42/94/1
f 70/95/9 72/40/9 69/75/9
f 72/40/9 70/95/9 71/38/9
f 63/48/3 14/33/3 27/32/3
f 14/33/3 63/48/3 66/5/3
f 65/98/8 67/97/8 68/96/8
f 67/97/8 65/98/8 64/99/8
f 70/101/2 45/58/2 71/100/2
f 45/58/2 70/101/2 43/102/2
f 43/102/2 70/101/2 73/103/2
f 73/103/2 70/101/2 11/13/2
f 11/13/2 70/101/2 12/15/2
f 12/15/2 70/101/2 15/19/2
f 53/56/4 41/105/4 74/104/4
f 59/100/4 41/105/4 53/56/4
f 60/101/4 41/105/4 59/100/4
f 41/105/4 60/101/4 40/19/4
f 59/100/4 53/56/4 54/57/4
f 59/100/4 54/57/4 26/58/4
f 31/84/11 65/106/11 68/85/11
f 65/106/11 31/84/11 66/107/11
f 66/107/11 31/84/11 32/81/11
f 66/107/11 32/81/11 13/80/11
f 66/107/11 13/80/11 14/108/11

usemtl dark

f 77/111/2 76/110/2 75/109/2
f 76/110/2 77/111/2 78/112/2
f 81/110/4 80/111/4 79/112/4
f 80/111/4 81/110/4 82/109/4
f 84/115/1 80/114/1 83/113/1
f 80/114/1 84/115/1 79/116/1
f 79/116/1 84/115/1 72/90/1
f 79/116/1 72/90/1 76/117/1
f 76/117/1 72/90/1 85/118/1
f 85/118/1 72/90/1 62/91/1
f 86/119/1 76/117/1 85/118/1
f 76/117/1 86/119/1 75/120/1
f 88/122/4 19/23/4 87/121/4
f 19/23/4 88/122/4 17/21/4
f 81/125/9 76/124/9 78/123/9
f 76/124/9 81/125/9 79/126/9
f 89/127/9 80/126/9 82/125/9
f 80/126/9 89/127/9 83/128/9
f 90/131/12 86/130/12 85/129/12
f 86/130/12 90/131/12 91/132/12
f 89/130/13 84/131/13 83/132/13
f 84/131/13 89/130/13 92/129/13
f 90/115/3 77/114/3 91/113/3
f 77/114/3 90/115/3 78/116/3
f 78/116/3 90/115/3 61/90/3
f 78/116/3 61/90/3 81/117/3
f 81/117/3 61/90/3 92/118/3
f 92/118/3 61/90/3 69/91/3
f 89/119/3 81/117/3 92/118/3
f 81/117/3 89/119/3 82/120/3
f 77/123/9 86/134/9 91/133/9
f 86/134/9 77/123/9 75/124/9
f 92/112/2 72/100/2 84/110/2
f 72/100/2 92/112/2 69/101/2
f 94/136/7 55/67/7 93/135/7
f 55/67/7 94/136/7 56/68/7
f 56/68/7 94/136/7 87/137/7
f 87/137/7 94/136/7 88/138/7
f 24/53/4 57/24/4 58/25/4
f 57/24/4 24/53/4 22/55/4
f 61/100/4 85/112/4 62/101/4
f 85/112/4 61/100/4 90/110/4
f 1/14/2 35/21/2 34/23/2
f 35/21/2 1/14/2 2/16/2
f 28/24/2 94/140/2 93/139/2
f 94/140/2 28/24/2 29/25/2

usemtl metalDark

f 4/27/9 35/141/9 2/26/9
f 35/141/9 4/27/9 33/142/9
f 4/16/2 32/20/2 33/21/2
f 32/20/2 4/16/2 13/17/2
f 30/144/6 1/1/6 34/143/6
f 1/1/6 30/144/6 3/3/6
f 57/141/6 23/27/6 20/142/6
f 23/27/6 57/141/6 22/26/6
f 45/145/7 47/65/7 44/63/7
f 47/65/7 45/145/7 46/146/7
f 39/40/6 87/147/6 37/38/6
f 87/147/6 39/40/6 56/148/6
f 52/52/4 21/25/4 18/22/4
f 21/25/4 52/52/4 25/53/4
f 56/139/2 39/150/2 38/149/2
f 38/66/7 40/151/7 42/64/7
f 40/151/7 38/66/7 36/152/7
f 24/1/9 21/144/9 25/3/9
f 21/144/9 24/1/9 58/143/9
f 87/121/4 36/154/4 37/153/4
f 41/105/4 36/154/4 87/121/4
f 36/154/4 41/105/4 40/19/4
f 41/105/4 87/121/4 19/23/4
f 41/105/4 19/23/4 74/104/4
f 20/24/4 74/104/4 19/23/4
f 74/104/4 20/24/4 53/56/4
f 53/56/4 20/24/4 23/55/4
f 67/17/4 17/21/4 88/122/4
f 17/21/4 67/17/4 16/20/4
f 48/43/6 55/155/6 49/42/6
f 55/155/6 48/43/6 93/156/6
f 43/102/2 46/149/2 45/58/2
f 46/149/2 43/102/2 93/139/2
f 93/139/2 43/102/2 28/24/2
f 28/24/2 43/102/2 73/103/2
f 28/24/2 73/103/2 30/23/2
f 30/23/2 73/103/2 11/13/2
f 30/23/2 11/13/2 3/14/2
f 93/139/2 48/150/2 46/149/2
f 55/121/4 47/154/4 49/153/4
f 68/157/7 88/138/7 94/136/7
f 88/138/7 68/157/7 67/158/7
f 29/25/2 68/52/2 94/140/2
f 68/52/2 29/25/2 31/22/2

