# Created by Kenney (www.kenney.nl)

mtllib monorail_trainFront.mtl

g monorail_trainFront

v -0.25 0.15 -0.5
v -0.2 0.15 -0.5
v -0.25 0.2 -0.5
v 0.2 0.15 -0.5
v 0.25 0.15 -0.5
v 0.25 0.2 -0.5
v 0.25 0.15 0.5
v 0.2 0.15 0.5
v -0.25 0.65 -0.5
v 0.25 0.65 -0.5
v -0.2 0.75 -0.5
v 0.2 0.75 -0.5
v -0.0999999 0.75 -0.5
v 0.1 0.75 -0.5
v 0.25 0.2 0.5
v -0.2 0.15 0.5
v -0.25 0.15 0.5
v -0.25 0.2 0.5
v 0.2 0.75 -0.1
v 0.25 0.65 0.1
v 0.15 0.65 0.2
v -0.2 0.75 -0.1
v -0.1500001 0.65 0.2
v -0.25 0.65 -0.1
v -0.25 0.65 0.1
v -0.25 0.3 -0.15
v -0.25 0.3 -0.1
v -0.3 0.3 -0.15
v -0.25 0.3 0.3
v -0.25 0.3 0.45
v -0.25 0.3 0.55
v -0.3 0.3 0.5
v -0.2 0.3 0.45
v -0.1500001 0.3 0.5
v -0.2 0.3 0.55
v 0.15 0.3 0.5
v 0.2 0.3 0.55
v 0.2 0.3 0.45
v 0.25 0.3 0.3
v 0.25 0.3 0.45
v 0.25 0.3 0.55
v 0.25 0.3 -0.1
v 0.25 0.3 -0.15
v 0.3 0.3 0.5
v 0.3 0.3 -0.15
v 0.2375 0.525 -0.45
v 0.2375 0.5 -0.45
v 0.2375 0.525 -0.15
v 0.2375 0.5 -0.15
v -0.2375 0.5 -0.45
v -0.2375 0.525 -0.45
v -0.2375 0.5 -0.15
v -0.2375 0.525 -0.15
v 0.25 0.25 -0.15
v 0.3 0.25 -0.15
v -0.2 0.6 -0.45
v -0.2 0.6 -0.15
v 0.3 0.25 0.5
v 0.25 0.25 0.55
v -0.25 0.25 0.55
v -0.3 0.25 0.5
v 0.2 0.5 -0.15
v 0.2 0.5 -0.45
v -0.0999999 0.75 -0.2
v 0.1 0.75 -0.2
v 0.2 0.6 -0.45
v 0.2 0.6 -0.15
v -0.3 0.25 -0.15
v -0.25 0.25 -0.15
v -0.2 0.5 -0.15
v -0.2 0.5 -0.45
v 0.25 0.65 -0.1
v 0.25 0.25 0.5
v -0.25 0.25 0.5
v 0.25 0.25 -0.5
v 0.25 0.6 -0.45
v 0.25 0.6 -0.15
v 0.25 0.4 -0.1
v 0.25 0.35 -0.15
v 0.25 0.35 -0.45
v 0.25 0.4 0.3
v -0.25 0.35 0.5
v -0.25 0.35 0.55
v 0.1 0.8 -0.5
v 0.1 0.8 -0.2
v -0.0999999 0.8 -0.5
v -0.0999999 0.8 -0.2
v 0.25 0.35 0.5
v 0.25 0.35 0.55
v 0.15 0.4 0.5
v -0.25 0.4 -0.1
v -0.25 0.4 0.3
v -0.25 0.6 -0.15
v -0.25 0.35 -0.15
v -0.25 0.35 -0.45
v -0.25 0.6 -0.45
v -0.1500001 0.4 0.5
v 0.2 0.35 0.55
v -0.2 0.35 0.5
v -0.2 0.35 0.55
v 0.2 0.35 0.5
v -0.0999999 0 0.5
v -0.0999999 0 -0.5
v -0.1500001 0 0.5
v -0.1500001 0 -0.5
v 0.15 0 0.5
v 0.15 0 -0.5
v 0.1 0 0.5
v 0.1 0 -0.5
v 0.2 0.1 -0.5
v 0.2 0.1 0.5
v -0.2 0.1 -0.5
v -0.2 0.1 0.5
v 0.2 0.35 -0.45
v 0.2 0.35 -0.15
v -0.0999999 0.1 -0.5
v 0.1 0.1 -0.5
v -0.2 0.35 -0.15
v 0.1 0.1 0.5
v -0.0999999 0.1 0.5
v -0.2 0.35 -0.45

vn 0 0 -1
vn 0 -1 0
vn 0 0 1
vn -1 0 0
vn 0.3481553 0.8703883 0.3481553
vn 1 0 0
vn 0 0.9486833 0.3162278
vn -0.8944272 0.4472136 0
vn -0.3481553 0.8703883 0.3481553
vn 0 1 0
vn 0.7071068 0 0.7071068
vn -0.7071068 0 0.7071068
vn 0.8944272 0.4472136 0
vn 0.8944272 0 0.4472136
vn -0.8944272 0 0.4472136
vn 0 0.7071068 -0.7071068
vn -0.8421519 0.3368607 0.421076
vn 0.6154575 0.492366 0.6154575
vn 0 0.7682213 0.6401844
vn 0.7881104 0.4728662 0.3940552
vn 0.8944272 -0.4472136 0
vn -0.8944272 -0.4472136 0
vn -0.5391639 0.6469966 0.5391639

vt 9.84252 5.905512
vt 7.874016 5.905512
vt 9.84252 7.874016
vt -7.874016 5.905512
vt -9.84252 5.905512
vt -9.84252 7.874016
vt 9.84252 19.68504
vt 9.84252 -19.68504
vt 7.874016 19.68504
vt 7.874016 -19.68504
vt 9.84252 25.59055
vt -9.84252 25.59055
vt 7.874016 29.52756
vt -7.874016 29.52756
vt 3.937008 29.52756
vt -3.937008 29.52756
vt -19.68504 5.905512
vt -19.68504 7.874016
vt 19.68504 5.905512
vt 19.68504 7.874016
vt 8.351655 12.1153
vt 4.175828 4.119204
vt -1.391943 4.119204
vt 7.874016 13.07241
vt 5.905512 0.6224956
vt -7.874016 13.07241
vt -5.905512 0.6224956
vt -7.874016 19.68504
vt -7.874016 -19.68504
vt -9.84252 19.68504
vt -9.84252 -19.68504
vt -19.68504 18.48718
vt -19.68504 22.88889
vt -3.937008 18.48718
vt -3.937008 22.88889
vt 3.937008 18.48718
vt -8.351655 12.1153
vt 1.391943 4.119204
vt -4.175828 4.119204
vt 9.84252 -5.905512
vt 9.84252 -3.937008
vt 11.81102 -5.905512
vt 9.84252 11.81102
vt 9.84252 17.71654
vt 9.84252 21.65354
vt 11.81102 19.68504
vt 7.874016 17.71654
vt 5.905512 19.68504
vt 7.874016 21.65354
vt -5.905512 19.68504
vt -7.874016 21.65354
vt -7.874016 17.71654
vt -9.84252 11.81102
vt -9.84252 17.71654
vt -9.84252 21.65354
vt -9.84252 -3.937008
vt -9.84252 -5.905512
vt -11.81102 19.68504
vt -11.81102 -5.905512
vt 17.71654 20.66929
vt 17.71654 19.68504
vt 5.905512 20.66929
vt -17.71654 19.68504
vt -17.71654 20.66929
vt -5.905512 20.66929
vt -9.84252 9.84252
vt -11.81102 9.84252
vt -11.81102 11.81102
vt -17.71654 17.60683
vt -5.905512 17.60683
vt -17.71654 14.30555
vt -5.905512 14.30555
vt -5.56777 9.84252
vt -8.351655 9.84252
vt -5.56777 11.81102
vt -8.351655 11.81102
vt 8.351655 9.84252
vt 5.56777 9.84252
vt 8.351655 11.81102
vt 5.56777 11.81102
vt 9.350393 -5.905512
vt 9.350393 -17.71654
vt 7.874016 -5.905512
vt 7.874016 -17.71654
vt 9.84252 9.84252
vt 7.874016 11.81102
vt -7.874016 11.81102
vt 3.937008 -19.68504
vt 3.937008 -7.874016
vt 7.874016 -3.937008
vt -3.937008 -7.874016
vt -7.874016 -3.937008
vt -3.937008 -19.68504
vt 17.71654 17.60683
vt 17.71654 14.30555
vt 5.905512 17.60683
vt 5.905512 14.30555
vt 11.81102 9.84252
vt 11.81102 11.81102
vt 5.905512 11.81102
vt 5.905512 9.84252
vt -19.68504 11.81102
vt -19.68504 9.84252
vt -5.905512 9.84252
vt -5.905512 11.81102
vt 19.68504 9.84252
vt 19.68504 11.81102
vt -7.874016 -5.905512
vt -7.874016 -17.71654
vt -9.350393 -5.905512
vt -9.350393 -17.71654
vt 19.68504 22.88889
vt 19.68504 18.48718
vt 3.937008 22.88889
vt 17.71654 23.62205
vt 19.68504 25.59055
vt 3.937008 25.59055
vt 5.905512 23.62205
vt 3.937008 15.74803
vt 3.937008 11.81102
vt 5.905512 13.77953
vt 17.71654 13.77953
vt -11.81102 15.74803
vt 17.71654 11.81102
vt 19.68504 13.77953
vt 21.65354 11.81102
vt 21.65354 13.77953
vt -17.71654 11.81102
vt -21.65354 11.81102
vt -19.68504 13.77953
vt -21.65354 13.77953
vt 19.68504 31.49606
vt 19.68504 29.52756
vt 7.874016 31.49606
vt -6.162392 15.74803
vt -6.162392 11.81102
vt -14.96581 15.74803
vt -14.96581 11.81102
vt -3.937008 11.81102
vt -3.937008 15.74803
vt 11.81102 15.74803
vt -5.905512 23.62205
vt -5.905512 13.77953
vt -17.71654 13.77953
vt -19.68504 25.59055
vt -17.71654 23.62205
vt -3.937008 25.59055
vt 6.162392 11.81102
vt 6.162392 15.74803
vt 14.96581 11.81102
vt 14.96581 15.74803
vt 3.937008 31.49606
vt -3.937008 31.49606
vt 5.905512 15.74803
vt -5.905512 15.74803
vt 9.84252 13.77953
vt 7.874016 13.77953
vt -19.68504 29.52756
vt -19.68504 31.49606
vt -7.874016 31.49606
vt 7.874016 20.87914
vt 7.874016 23.66302
vt 9.84252 20.87914
vt 9.84252 23.66302
vt -7.874016 13.77953
vt -9.84252 13.77953
vt -9.84252 20.87914
vt -9.84252 23.66302
vt -7.874016 20.87914
vt -7.874016 23.66302
vt 6.162392 10.08279
vt -0.8803417 20.53627
vt 14.96581 10.08279
vt 4.175828 17.4763
vt -1.391943 6.168106
vt -1.391943 17.4763
vt 5.905512 10.33368
vt 5.905512 -5.040822
vt -5.905512 10.33368
vt -5.905512 -5.040822
vt -3.937008 19.68504
vt -5.905512 -19.68504
vt -4.401709 18.38587
vt -6.162392 7.215587
vt -14.96581 7.215587
vt -9.84252 3.937008
vt -5.905512 7.874016
vt 5.905512 7.874016
vt 9.84252 3.937008
vt 5.905512 -19.68504
vt 3.937008 19.68504
vt 19.68504 7.042734
vt 19.68504 2.641025
vt -19.68504 7.042734
vt -19.68504 2.641025
vt 9.350393 19.68504
vt 9.84252 23.62205
vt 9.350393 20.66929
vt 7.874016 23.62205
vt -9.84252 -17.71654
vt 5.905512 0
vt 3.937008 0
vt 7.874016 3.937008
vt 3.937008 3.937008
vt -3.937008 3.937008
vt -7.874016 3.937008
vt -5.905512 0
vt -3.937008 0
vt -9.350393 19.68504
vt -9.84252 23.62205
vt -9.350393 20.66929
vt -7.874016 23.62205
vt -19.68504 0
vt -19.68504 3.937008
vt 19.68504 0
vt 19.68504 3.937008
vt 1.391943 13.20854
vt 9.743597 0.300194
vt -4.175828 13.20854
vt 9.84252 -17.71654

usemtl metalRed

f 3/3/1 2/2/1 1/1/1
f 2/2/1 3/3/1 4/4/1
f 4/4/1 3/3/1 5/5/1
f 5/5/1 3/3/1 6/6/1
f 8/9/2 5/8/2 7/7/2
f 5/8/2 8/9/2 4/10/2
f 11/13/1 10/12/1 9/11/1
f 10/12/1 11/13/1 12/14/1
f 12/14/1 11/13/1 13/15/1
f 12/14/1 13/15/1 14/16/1
f 15/3/3 8/2/3 7/1/3
f 8/2/3 15/3/3 16/4/3
f 16/4/3 15/3/3 17/5/3
f 17/5/3 15/3/3 18/6/3
f 17/19/4 3/18/4 1/17/4
f 3/18/4 17/19/4 18/20/4
f 21/23/5 20/22/5 19/21/5
f 15/18/6 5/19/6 6/20/6
f 5/19/6 15/18/6 7/17/6
f 22/26/7 21/25/7 19/24/7
f 21/25/7 22/26/7 23/27/7
f 17/30/2 2/29/2 16/28/2
f 2/29/2 17/30/2 1/31/2
f 24/34/8 11/33/8 9/32/8
f 11/33/8 24/34/8 22/35/8
f 22/35/8 24/34/8 25/36/8
f 25/39/9 23/38/9 22/37/9
f 28/42/10 27/41/10 26/40/10
f 27/41/10 28/42/10 29/43/10
f 29/43/10 28/42/10 30/44/10
f 30/44/10 28/42/10 31/45/10
f 31/45/10 28/42/10 32/46/10
f 33/47/10 29/43/10 30/44/10
f 29/43/10 33/47/10 34/48/10
f 35/49/10 34/48/10 33/47/10
f 35/49/10 36/50/10 34/48/10
f 37/51/10 36/50/10 35/49/10
f 38/52/10 36/50/10 37/51/10
f 38/52/10 39/53/10 36/50/10
f 39/53/10 38/52/10 40/54/10
f 41/55/10 39/53/10 40/54/10
f 41/55/10 42/56/10 39/53/10
f 41/55/10 43/57/10 42/56/10
f 44/58/10 43/57/10 41/55/10
f 43/57/10 44/58/10 45/59/10
f 48/62/6 47/61/6 46/60/6
f 47/61/6 48/62/6 49/48/6
f 52/50/4 51/64/4 50/63/4
f 51/64/4 52/50/4 53/65/4
f 43/53/1 55/67/1 54/66/1
f 55/67/1 43/53/1 45/68/1
f 51/71/8 57/70/8 56/69/8
f 57/70/8 51/71/8 53/72/8
f 44/75/11 59/74/11 58/73/11
f 59/74/11 44/75/11 41/76/11
f 31/79/12 61/78/12 60/77/12
f 61/78/12 31/79/12 32/80/12
f 62/83/2 47/82/2 49/81/2
f 47/82/2 62/83/2 63/84/2
f 41/43/3 60/66/3 59/85/3
f 60/66/3 41/43/3 31/53/3
f 31/53/3 41/43/3 37/86/3
f 31/53/3 37/86/3 35/87/3
f 11/10/10 64/89/10 13/88/10
f 22/90/10 64/89/10 11/10/10
f 22/90/10 65/91/10 64/89/10
f 19/92/10 65/91/10 22/90/10
f 19/92/10 14/93/10 65/91/10
f 14/93/10 19/92/10 12/29/10
f 67/96/13 46/95/13 66/94/13
f 46/95/13 67/96/13 48/97/13
f 28/99/1 69/85/1 68/98/1
f 69/85/1 28/99/1 26/43/1
f 44/102/6 55/101/6 45/100/6
f 55/101/6 44/102/6 58/103/6
f 61/106/4 28/105/4 68/104/4
f 28/105/4 61/106/4 32/107/4
f 52/110/2 71/109/2 70/108/2
f 71/109/2 52/110/2 50/111/2
f 19/114/13 10/113/13 12/112/13
f 10/113/13 19/114/13 72/36/13
f 72/36/13 19/114/13 20/34/13
f 60/55/2 73/7/2 59/45/2
f 73/7/2 60/55/2 74/30/2
f 74/30/2 60/55/2 61/58/2
f 74/30/2 61/58/2 69/57/2
f 69/57/2 61/58/2 68/59/2
f 54/40/2 59/45/2 73/7/2
f 55/42/2 59/45/2 54/40/2
f 59/45/2 55/42/2 58/46/2

usemtl metal

f 10/116/6 76/115/6 75/106/6
f 76/115/6 10/116/6 72/117/6
f 76/115/6 72/117/6 77/118/6
f 77/118/6 72/117/6 78/119/6
f 42/120/6 77/118/6 78/119/6
f 43/100/6 77/118/6 42/120/6
f 77/118/6 43/100/6 79/121/6
f 80/122/6 75/106/6 76/115/6
f 75/106/6 80/122/6 54/101/6
f 54/101/6 80/122/6 79/121/6
f 54/101/6 79/121/6 43/100/6
f 81/123/6 42/120/6 78/119/6
f 42/120/6 81/123/6 39/68/6
f 54/101/6 6/20/6 75/106/6
f 6/20/6 54/101/6 15/18/6
f 15/18/6 54/101/6 73/103/6
f 31/126/4 82/125/4 30/124/4
f 82/125/4 31/126/4 83/127/4
f 73/85/3 18/6/3 15/3/3
f 18/6/3 73/85/3 74/66/3
f 86/88/10 85/91/10 84/93/10
f 85/91/10 86/88/10 87/89/10
f 9/11/1 6/6/1 3/3/1
f 6/6/1 9/11/1 75/66/1
f 75/66/1 9/11/1 10/12/1
f 88/130/6 41/129/6 40/128/6
f 41/129/6 88/130/6 89/131/6
f 85/134/6 14/133/6 84/132/6
f 14/133/6 85/134/6 65/13/6
f 90/137/14 39/136/14 81/135/14
f 39/136/14 90/137/14 36/138/14
f 29/99/4 91/140/4 27/139/4
f 91/140/4 29/99/4 92/141/4
f 91/140/4 93/142/4 27/139/4
f 94/143/4 27/139/4 93/142/4
f 94/143/4 26/105/4 27/139/4
f 94/143/4 69/104/4 26/105/4
f 69/104/4 94/143/4 95/144/4
f 95/144/4 3/18/4 69/104/4
f 3/18/4 95/144/4 9/145/4
f 69/104/4 3/18/4 18/20/4
f 69/104/4 18/20/4 74/106/4
f 96/146/4 9/145/4 95/144/4
f 9/145/4 96/146/4 24/147/4
f 24/147/4 96/146/4 93/142/4
f 24/147/4 93/142/4 91/140/4
f 34/150/15 92/149/15 29/148/15
f 92/149/15 34/150/15 97/151/15
f 86/152/1 14/16/1 13/15/1
f 14/16/1 86/152/1 84/153/1
f 90/154/3 34/105/3 36/100/3
f 34/105/3 90/154/3 97/155/3
f 89/156/3 37/86/3 41/43/3
f 37/86/3 89/156/3 98/157/3
f 64/14/4 86/159/4 13/158/4
f 86/159/4 64/14/4 87/160/4
f 30/163/16 99/162/16 33/161/16
f 99/162/16 30/163/16 82/164/16
f 82/7/10 100/49/10 99/9/10
f 100/49/10 82/7/10 83/45/10
f 99/130/6 35/129/6 33/128/6
f 35/129/6 99/130/6 100/131/6
f 100/165/3 31/53/3 35/87/3
f 31/53/3 100/165/3 83/166/3
f 85/152/3 64/16/3 65/15/3
f 64/16/3 85/152/3 87/153/3
f 38/169/16 88/168/16 40/167/16
f 88/168/16 38/169/16 101/170/16
f 37/126/4 101/125/4 38/124/4
f 101/125/4 37/126/4 98/127/4
f 101/28/10 89/55/10 88/30/10
f 89/55/10 101/28/10 98/51/10

usemtl dark

f 97/173/17 25/172/17 92/171/17
f 21/176/18 81/175/18 20/174/18
f 23/179/19 90/178/19 21/177/19
f 90/178/19 23/179/19 97/180/19
f 104/50/2 103/93/2 102/181/2
f 103/93/2 104/50/2 105/182/2
f 90/185/20 81/184/20 21/183/20
f 24/41/10 20/186/10 72/56/10
f 20/186/10 24/41/10 21/187/10
f 21/187/10 24/41/10 23/188/10
f 23/188/10 24/41/10 25/189/10
f 108/191/2 107/190/2 106/48/2
f 107/190/2 108/191/2 109/88/2
f 111/194/21 107/193/21 110/192/21
f 107/193/21 111/194/21 106/195/21
f 104/193/22 112/194/22 105/195/22
f 112/194/22 104/193/22 113/192/22
f 76/197/3 47/196/3 80/156/3
f 47/196/3 76/197/3 46/198/3
f 46/198/3 76/197/3 66/199/3
f 63/9/3 80/156/3 47/196/3
f 80/156/3 63/9/3 114/157/3
f 114/109/10 79/57/10 80/200/10
f 79/57/10 114/109/10 115/108/10
f 112/203/1 103/202/1 105/201/1
f 103/202/1 112/203/1 116/204/1
f 116/204/1 112/203/1 2/2/1
f 116/204/1 2/2/1 117/205/1
f 117/205/1 2/2/1 110/206/1
f 110/206/1 2/2/1 4/4/1
f 107/207/1 117/205/1 110/206/1
f 117/205/1 107/207/1 109/208/1
f 94/156/1 52/196/1 118/157/1
f 52/196/1 94/156/1 93/197/1
f 52/196/1 93/197/1 53/198/1
f 53/198/1 93/197/1 57/199/1
f 70/9/1 118/157/1 52/196/1
f 120/181/2 117/88/2 119/191/2
f 117/88/2 120/181/2 116/93/2
f 92/141/4 24/147/4 91/140/4
f 24/147/4 92/141/4 25/117/4
f 63/61/6 115/121/6 114/122/6
f 115/121/6 63/61/6 62/48/6
f 62/28/1 79/166/1 115/165/1
f 79/166/1 62/28/1 49/209/1
f 79/166/1 49/209/1 77/210/1
f 77/210/1 49/209/1 48/211/1
f 77/210/1 48/211/1 67/212/1
f 108/215/4 117/214/4 109/213/4
f 117/214/4 108/215/4 119/216/4
f 95/166/3 50/209/3 96/210/3
f 50/209/3 95/166/3 121/165/3
f 50/209/3 121/165/3 71/28/3
f 96/210/3 50/209/3 51/211/3
f 96/210/3 51/211/3 56/212/3
f 111/203/3 108/202/3 106/201/3
f 108/202/3 111/203/3 119/204/3
f 119/204/3 111/203/3 8/2/3
f 119/204/3 8/2/3 120/205/3
f 120/205/3 8/2/3 113/206/3
f 113/206/3 8/2/3 16/4/3
f 104/207/3 120/205/3 113/206/3
f 120/205/3 104/207/3 102/208/3
f 120/214/6 103/215/6 116/216/6
f 103/215/6 120/214/6 102/213/6
f 8/17/6 110/216/6 4/19/6
f 110/216/6 8/17/6 111/214/6
f 25/219/23 97/218/23 23/217/23
f 95/220/10 118/83/10 121/84/10
f 118/83/10 95/220/10 94/40/10
f 118/143/4 71/63/4 121/144/4
f 71/63/4 118/143/4 70/50/4
f 113/216/4 2/17/4 112/214/4
f 2/17/4 113/216/4 16/19/4
f 72/117/6 81/123/6 78/119/6
f 81/123/6 72/117/6 20/147/6
f 93/57/2 56/109/2 57/108/2
f 56/109/2 93/57/2 96/200/2
f 67/83/2 76/220/2 77/40/2
f 76/220/2 67/83/2 66/84/2

