# Created by Kenney (www.kenney.nl)

mtllib monorail_trackStraight.mtl

g monorail_trackStraight

v 0.04999995 0.13 -0.5
v 0.04999995 0.13 0.5
v -0.04999995 0.13 -0.5
v -0.04999995 0.13 0.5
v 0.04999995 0.1 0.5
v -0.04999995 0.1 0.5
v -0.0999999 0.1 0.5
v 0.1 0.1 0.5
v -0.0999999 -1.621667E-17 0.5
v 0.1 -1.621667E-17 0.5
v 0.04999995 0.1 -0.5
v 0.1 -1.621667E-17 -0.5
v -0.0999999 -1.621667E-17 -0.5
v 0.1 0.1 -0.5
v -0.0999999 0.1 -0.5
v -0.04999995 0.1 -0.5

vn 0 1 0
vn 0 0 1
vn 1 0 0
vn 0 -1 0
vn -1 0 0
vn 0 0 -1

vt -1.968504 -19.68504
vt -1.968504 19.68504
vt 1.968504 -19.68504
vt 1.968504 19.68504
vt 1.968504 3.937008
vt -1.968504 3.937008
vt 1.968504 5.11811
vt -1.968504 5.11811
vt -3.937008 3.937008
vt 3.937008 3.937008
vt -3.937008 -6.384514E-16
vt 3.937008 -6.384514E-16
vt 19.68504 5.11811
vt 19.68504 3.937008
vt -19.68504 5.11811
vt -19.68504 3.937008
vt 3.937008 19.68504
vt 3.937008 -19.68504
vt -3.937008 19.68504
vt -3.937008 -19.68504
vt 19.68504 -6.384514E-16
vt -19.68504 -6.384514E-16

usemtl metalDark

f 3/3/1 2/2/1 1/1/1
f 2/2/1 3/3/1 4/4/1
f 2/7/2 6/6/2 5/5/2
f 6/6/2 2/7/2 4/8/2
f 7/9/2 5/5/2 6/6/2
f 7/9/2 8/10/2 5/5/2
f 9/11/2 8/10/2 7/9/2
f 8/10/2 9/11/2 10/12/2
f 2/15/3 11/14/3 1/13/3
f 11/14/3 2/15/3 5/16/3
f 9/19/4 12/18/4 10/17/4
f 12/18/4 9/19/4 13/20/4
f 8/16/3 12/21/3 14/14/3
f 12/21/3 8/16/3 10/22/3
f 9/21/5 15/16/5 13/22/5
f 15/16/5 9/21/5 7/14/5
f 3/7/6 11/6/6 16/5/6
f 11/6/6 3/7/6 1/8/6
f 14/9/6 16/5/6 11/6/6
f 14/9/6 15/10/6 16/5/6
f 12/11/6 15/10/6 14/9/6
f 15/10/6 12/11/6 13/12/6
f 6/14/5 3/15/5 16/16/5
f 3/15/5 6/14/5 4/13/5

usemtl metal

f 11/1/1 8/19/1 14/20/1
f 8/19/1 11/1/1 5/2/1
f 15/18/1 6/4/1 16/3/1
f 6/4/1 15/18/1 7/17/1

