# Created by Kenney (www.kenney.nl)

mtllib monorail_trackCornerLarge.mtl

g monorail_trackCornerLarge

v 0.810737 0.1 -0.437595
v 0.6247125 0.1 -0.4005924
v 0.810737 0.13 -0.437595
v 0.6247125 0.13 -0.4005924
v 1 0 -0.4
v 1 0 -0.5999999
v 0.8172634 0 -0.3880228
v 0.7911581 0 -0.5863118
v 0.6376534 0 -0.3522961
v 0.5858896 0 -0.5454812
v 0.4642432 0 -0.2934313
v 0.3877065 0 -0.4782072
v 0.3 0 -0.2124356
v 0.2 0 -0.3856406
v 0.1477339 0 -0.1106946
v 0.02598166 0 -0.2693653
v 0.01005054 0 0.01005054
v -0.1313708 0 -0.1313708
v -0.1106946 0 0.1477339
v -0.2124355 0 0.3
v -0.2693653 0 0.02598166
v -0.2934313 0 0.4642432
v -0.3856406 0 0.2
v -0.3522961 0 0.6376533
v -0.3880229 0 0.8172633
v -0.4782071 0 0.3877065
v -0.4000001 0 1
v -0.5999999 0 1
v -0.5454812 0 0.5858895
v -0.5863118 0 0.7911581
v -0.1313708 0.1 -0.1313708
v 0.02598166 0.1 -0.2693653
v 0.2 0.1 -0.3856406
v 0.3877065 0.1 -0.4782072
v 1 0.13 -0.55
v 1 0.1 -0.55
v 1 0.13 -0.45
v 1 0.1 -0.45
v 1 0.1 -0.5999999
v 1 0.1 -0.4
v -0.5454812 0.1 0.5858895
v -0.5863118 0.1 0.7911581
v 0.4068407 0.1 -0.4320133
v 0.4068407 0.13 -0.4320133
v 0.225 0.1 -0.3423394
v 0.225 0.13 -0.3423394
v -0.4782071 0.1 0.3877065
v -0.4005923 0.13 0.6247124
v -0.4005923 0.1 0.6247124
v -0.4375951 0.13 0.810737
v -0.4375951 0.1 0.810737
v 0.1477339 0.1 -0.1106946
v 0.01005054 0.1 0.01005054
v -0.497185 0.1 0.5988305
v -0.497185 0.13 0.5988305
v -0.5367396 0.1 0.7976844
v -0.5367396 0.13 0.7976844
v -0.2934313 0.1 0.4642432
v -0.3522961 0.1 0.6376533
v -0.09601545 0.1 -0.09601545
v -0.09601545 0.13 -0.09601545
v -0.2296977 0.1 0.05641973
v -0.2296977 0.13 0.05641973
v -0.3423393 0.1 0.225
v -0.3423393 0.13 0.225
v -0.3880229 0.1 0.8172633
v -0.45 0.13 1
v -0.45 0.1 1
v -0.2693653 0.1 0.02598166
v -0.55 0.1 1
v -0.55 0.13 1
v 0.05641973 0.1 -0.2296977
v 0.05641973 0.13 -0.2296977
v -0.3856406 0.1 0.2
v -0.4320133 0.1 0.4068407
v -0.4320133 0.13 0.4068407
v 0.5858896 0.1 -0.5454812
v 0.7911581 0.1 -0.5863118
v -0.5999999 0.1 1
v 0.7976844 0.13 -0.5367396
v 0.5988305 0.13 -0.497185
v 0.445109 0.13 -0.3396254
v 0.275 0.13 -0.2557368
v 0.117296 0.13 -0.1503624
v -0.02530479 0.13 -0.02530479
v -0.1503623 0.13 0.117296
v -0.2557368 0.13 0.275
v -0.3396254 0.13 0.445109
v -0.1106946 0.1 0.1477339
v -0.4000001 0.1 1
v -0.2124355 0.1 0.3
v 0.5988305 0.1 -0.497185
v 0.7976844 0.1 -0.5367396
v 0.8172634 0.1 -0.3880228
v 0.6376534 0.1 -0.3522961
v -0.3396254 0.1 0.445109
v 0.445109 0.1 -0.3396254
v 0.4642432 0.1 -0.2934313
v 0.3 0.1 -0.2124356
v 0.275 0.1 -0.2557368
v 0.117296 0.1 -0.1503624
v -0.02530479 0.1 -0.02530479
v -0.1503623 0.1 0.117296
v -0.2557368 0.1 0.275

vn 0.1305262 0 0.9914449
vn 0.258819 0 0.9659258
vn 0 -1 0
vn -0.7071068 0 -0.7071068
vn -0.6087614 0 -0.7933533
vn -0.5 0 -0.8660254
vn -0.3826834 0 -0.9238795
vn 1 0 0
vn 0.06540313 0 0.9978589
vn -0.9659258 0 -0.258819
vn -0.9914449 0 -0.1305262
vn -0.9238795 0 -0.3826834
vn 0.9659258 0 0.258819
vn 0.9914449 0 0.1305262
vn 0.6087614 0 0.7933533
vn 0.7071068 0 0.7071068
vn 0.9238795 0 0.3826834
vn -0.7933533 0 -0.6087614
vn -0.8660254 0 -0.5
vn 0.9978589 0 0.06540313
vn -0.9978589 0 -0.06540313
vn -0.258819 0 -0.9659258
vn -0.1305262 0 -0.9914449
vn 0 1 0
vn 0.7933533 0 0.6087614
vn -0.06540313 0 -0.9978589
vn 0.8660254 0 0.5
vn 0 0 1
vn 0.3826834 0 0.9238795
vn 0.5 0 0.8660254

vt 34.66652 3.937008
vt 27.19923 3.937008
vt 34.66652 5.11811
vt 27.19923 5.11811
vt 39.37008 -15.74803
vt 39.37008 -23.62205
vt 32.17572 -15.27649
vt 31.14796 -23.08314
vt 25.10446 -13.86993
vt 23.06652 -21.47564
vt 18.27729 -11.55241
vt 15.26404 -18.82706
vt 11.81102 -8.363605
vt 7.874016 -15.1827
vt 5.816299 -4.358058
vt 1.022902 -10.60493
vt 0.3956892 0.3956892
vt -5.172081 -5.172081
vt -4.358058 5.816299
vt -8.363605 11.81102
vt -10.60493 1.022902
vt -11.55241 18.27729
vt -15.1827 7.874016
vt -13.86993 25.10446
vt -15.27649 32.17572
vt -18.82706 15.26404
vt -15.74803 39.37008
vt -23.62205 39.37008
vt -21.47564 23.06652
vt -23.08314 31.14796
vt 0.4783864 2.096417E-30
vt -7.761378 2.096417E-30
vt 0.4783864 3.937008
vt -7.761378 3.937008
vt -13.77713 2.811886E-30
vt -22.01689 2.811886E-30
vt -13.77713 3.937008
vt -22.01689 3.937008
vt 21.65354 5.11811
vt 21.65354 3.937008
vt 17.71654 5.11811
vt 17.71654 3.937008
vt 15.74803 0
vt 23.62205 0
vt 23.62205 3.937008
vt 15.74803 3.937008
vt 40.4445 3.937008
vt 32.97721 3.937008
vt 40.4445 5.11811
vt 32.97721 5.11811
vt 26.81299 3.773537E-30
vt 26.81299 3.937008
vt 35.05275 3.773537E-30
vt 35.05275 3.937008
vt -21.88815 3.937008
vt -21.88815 5.11811
vt -13.90587 3.937008
vt -13.90587 5.11811
vt 20.50574 3.213712E-30
vt 20.50574 3.937008
vt 28.7455 3.213712E-30
vt 28.7455 3.937008
vt -27.19923 5.11811
vt -27.19923 3.937008
vt -34.66652 5.11811
vt -34.66652 3.937008
vt 7.246393 -1.603861E-31
vt 0.03659888 -1.603861E-31
vt 7.246393 3.937008
vt 0.03659888 3.937008
vt 26.94174 3.937008
vt 26.94174 5.11811
vt 34.92401 3.937008
vt 34.92401 5.11811
vt -21.02072 3.937008
vt -21.02072 1.259546E-30
vt -28.23051 3.937008
vt -28.23051 1.259546E-30
vt -6.742298 2.34927E-30
vt -14.98206 2.34927E-30
vt -6.742298 3.937008
vt -14.98206 3.937008
vt -0.3496401 3.937008
vt -0.3496401 5.11811
vt 7.632632 3.937008
vt 7.632632 5.11811
vt 6.871045 3.937008
vt 6.871045 5.11811
vt 14.85332 3.937008
vt 14.85332 5.11811
vt -27.32798 3.937008
vt -27.32798 1.98344E-30
vt -34.53777 3.937008
vt -34.53777 1.98344E-30
vt -32.97721 5.11811
vt -32.97721 3.937008
vt -40.4445 5.11811
vt -40.4445 3.937008
vt -0.4783864 2.078413E-30
vt -0.4783864 3.937008
vt 7.761378 2.078413E-30
vt 7.761378 3.937008
vt 32.71972 3.937008
vt 32.71972 5.11811
vt 40.70199 3.937008
vt 40.70199 5.11811
vt -6.871045 3.937008
vt -14.85332 3.937008
vt -6.871045 5.11811
vt -14.85332 5.11811
vt 13.77713 2.689025E-30
vt 13.77713 3.937008
vt 22.01689 2.689025E-30
vt 22.01689 3.937008
vt 13.90587 3.937008
vt 13.90587 5.11811
vt 21.88815 3.937008
vt 21.88815 5.11811
vt -26.81299 4.12059E-30
vt -35.05275 4.12059E-30
vt -26.81299 3.937008
vt -35.05275 3.937008
vt 32.59098 0
vt 32.59098 3.937008
vt 40.83074 0
vt 40.83074 3.937008
vt -39.37008 -21.65354
vt -39.37008 -17.71654
vt -31.4049 -21.13148
vt -31.91878 -17.22815
vt -24.59498 -15.77136
vt -23.576 -19.57421
vt -17.52398 -13.37108
vt -16.01735 -17.0084
vt -10.82677 -10.06838
vt -8.858268 -13.47793
vt -4.61795 -5.919777
vt -2.221251 -9.043216
vt 0.9962533 -0.9962533
vt 3.780138 -3.780138
vt 5.919777 4.61795
vt 9.043216 2.221251
vt 10.06838 10.82677
vt 13.47793 8.858268
vt 13.37108 17.52398
vt 15.77136 24.59498
vt 17.0084 16.01735
vt 17.22815 31.91878
vt 19.57421 23.576
vt 17.71654 39.37008
vt 21.65354 39.37008
vt 21.13148 31.4049
vt -0.03659888 3.937008
vt -0.03659888 -1.590087E-31
vt -7.246393 3.937008
vt -7.246393 -1.590087E-31
vt -32.59098 0
vt -40.83074 0
vt -32.59098 3.937008
vt -40.83074 3.937008
vt -33.10596 3.937008
vt -33.10596 0
vt -40.31575 3.937008
vt -40.31575 0
vt 0.3496401 3.937008
vt -7.632632 3.937008
vt 0.3496401 5.11811
vt -7.632632 5.11811
vt -7.257283 3.937008
vt -7.257283 1.088138E-31
vt -14.46708 3.937008
vt -14.46708 1.088138E-31
vt -17.71654 3.937008
vt -21.65354 3.937008
vt -17.71654 5.11811
vt -21.65354 5.11811
vt -23.62205 3.937008
vt -15.74803 3.937008
vt -23.62205 2.864203E-13
vt -15.74803 2.864203E-13
vt -20.50574 3.429256E-30
vt -28.7455 3.429256E-30
vt -20.50574 3.937008
vt -28.7455 3.937008
vt -14.29211 3.937008
vt -14.29211 6.042281E-31
vt -21.50191 3.937008
vt -21.50191 6.042281E-31
vt -26.94174 3.937008
vt -34.92401 3.937008
vt -26.94174 5.11811
vt -34.92401 5.11811
vt 6.742298 2.288571E-30
vt 6.742298 3.937008
vt 14.98206 2.288571E-30
vt 14.98206 3.937008
vt 20.63448 3.937008
vt 20.63448 5.11811
vt 28.61675 3.937008
vt 28.61675 5.11811
vt -20.63448 3.937008
vt -28.61675 3.937008
vt -20.63448 5.11811
vt -28.61675 5.11811
vt -32.71972 3.937008
vt -40.70199 3.937008
vt -32.71972 5.11811
vt -40.70199 5.11811
vt 34.53777 2.165857E-30
vt 27.32798 2.165857E-30
vt 34.53777 3.937008
vt 27.32798 3.937008
vt -20.89197 5.11811
vt -20.89197 3.937008
vt -28.35926 5.11811
vt -28.35926 3.937008
vt 28.35926 3.937008
vt 20.89197 3.937008
vt 28.35926 5.11811
vt 20.89197 5.11811
vt 28.23051 1.344024E-30
vt 21.02072 1.344024E-30
vt 28.23051 3.937008
vt 21.02072 3.937008
vt 21.50191 6.318352E-31
vt 14.29211 6.318352E-31
vt 21.50191 3.937008
vt 14.29211 3.937008
vt 14.59582 3.937008
vt 7.128537 3.937008
vt 14.59582 5.11811
vt 7.128537 5.11811
vt 40.31575 0
vt 33.10596 0
vt 40.31575 3.937008
vt 33.10596 3.937008
vt 0.09214744 5.11811
vt 0.09214744 3.937008
vt -7.375139 5.11811
vt -7.375139 3.937008
vt -14.16337 5.11811
vt -14.16337 3.937008
vt -21.63065 5.11811
vt -21.63065 3.937008
vt 7.375139 3.937008
vt -0.09214744 3.937008
vt 7.375139 5.11811
vt -0.09214744 5.11811
vt 14.46708 1.116998E-31
vt 7.257283 1.116998E-31
vt 14.46708 3.937008
vt 7.257283 3.937008
vt -7.128537 5.11811
vt -7.128537 3.937008
vt -14.59582 5.11811
vt -14.59582 3.937008
vt 21.63065 3.937008
vt 14.16337 3.937008
vt 21.63065 5.11811
vt 14.16337 5.11811
vt -39.37008 -15.74803
vt -32.17572 -15.27649
vt -25.10446 -13.86993
vt -18.27729 -11.55241
vt -11.81102 -8.363605
vt -5.816299 -4.358058
vt -0.3956892 0.3956892
vt 4.358058 5.816299
vt 8.363605 11.81102
vt 11.55241 18.27729
vt 13.86993 25.10446
vt 15.27649 32.17572
vt 15.74803 39.37008
vt -39.37008 -23.62205
vt -31.14796 -23.08314
vt -23.06652 -21.47564
vt -15.26404 -18.82706
vt -7.874016 -15.1827
vt -1.022902 -10.60493
vt 5.172081 -5.172081
vt 10.60493 1.022902
vt 15.1827 7.874016
vt 18.82706 15.26404
vt 21.47564 23.06652
vt 23.08314 31.14796
vt 23.62205 39.37008

usemtl metalDark

f 3/3/1 2/2/2 1/1/1
f 2/2/2 3/3/1 4/4/2
f 7/7/3 6/6/3 5/5/3
f 6/6/3 7/7/3 8/8/3
f 8/8/3 7/7/3 9/9/3
f 8/8/3 9/9/3 10/10/3
f 10/10/3 9/9/3 11/11/3
f 10/10/3 11/11/3 12/12/3
f 12/12/3 11/11/3 13/13/3
f 12/12/3 13/13/3 14/14/3
f 14/14/3 13/13/3 15/15/3
f 14/14/3 15/15/3 16/16/3
f 16/16/3 15/15/3 17/17/3
f 16/16/3 17/17/3 18/18/3
f 18/18/3 17/17/3 19/19/3
f 18/18/3 19/19/3 20/20/3
f 18/18/3 20/20/3 21/21/3
f 21/21/3 20/20/3 22/22/3
f 21/21/3 22/22/3 23/23/3
f 23/23/3 22/22/3 24/24/3
f 23/23/3 24/24/3 25/25/3
f 23/23/3 25/25/3 26/26/3
f 26/26/3 25/25/3 27/27/3
f 26/26/3 27/27/3 28/28/3
f 26/26/3 28/28/3 29/29/3
f 29/29/3 28/28/3 30/30/3
f 31/33/4 16/32/5 18/31/4
f 16/32/5 31/33/4 32/34/5
f 33/37/6 12/36/7 14/35/6
f 12/36/7 33/37/6 34/38/7
f 37/41/8 36/40/8 35/39/8
f 38/42/8 36/40/8 37/41/8
f 5/43/8 36/40/8 38/42/8
f 6/44/8 36/40/8 5/43/8
f 36/40/8 6/44/8 39/45/8
f 5/43/8 38/42/8 40/46/8
f 37/49/9 1/48/1 38/47/9
f 1/48/1 37/49/9 3/50/1
f 30/53/11 41/52/10 29/51/10
f 41/52/10 30/53/11 42/54/11
f 45/57/6 44/56/7 43/55/7
f 44/56/7 45/57/6 46/58/6
f 29/61/10 47/60/12 26/59/12
f 47/60/12 29/61/10 41/62/10
f 50/65/14 49/64/13 48/63/13
f 49/64/13 50/65/14 51/66/14
f 52/69/15 17/68/16 15/67/15
f 17/68/16 52/69/15 53/70/16
f 56/73/11 55/72/10 54/71/10
f 55/72/10 56/73/11 57/74/11
f 59/77/13 22/76/17 58/75/17
f 22/76/17 59/77/13 24/78/13
f 32/81/5 14/80/6 16/79/5
f 14/80/6 32/81/5 33/82/6
f 62/85/18 61/84/4 60/83/4
f 61/84/4 62/85/18 63/86/18
f 64/89/19 63/88/18 62/87/18
f 63/88/18 64/89/19 65/90/19
f 66/93/14 24/92/13 59/91/13
f 24/92/13 66/93/14 25/94/14
f 67/97/20 51/96/14 50/95/14
f 51/96/14 67/97/20 68/98/20
f 21/101/18 31/100/4 18/99/4
f 31/100/4 21/101/18 69/102/18
f 70/105/21 57/104/11 56/103/11
f 57/104/11 70/105/21 71/106/21
f 73/109/5 45/108/6 72/107/5
f 45/108/6 73/109/5 46/110/6
f 26/113/12 74/112/19 23/111/19
f 74/112/19 26/113/12 47/114/12
f 75/117/12 65/116/19 64/115/19
f 65/116/19 75/117/12 76/118/12
f 77/121/22 8/120/23 10/119/22
f 8/120/23 77/121/22 78/122/23
f 28/125/21 42/124/11 30/123/11
f 42/124/11 28/125/21 79/126/21
f 80/129/24 37/128/24 35/127/24
f 37/128/24 80/129/24 3/130/24
f 3/130/24 80/129/24 4/131/24
f 4/131/24 80/129/24 81/132/24
f 4/131/24 81/132/24 82/133/24
f 82/133/24 81/132/24 44/134/24
f 82/133/24 44/134/24 83/135/24
f 83/135/24 44/134/24 46/136/24
f 83/135/24 46/136/24 84/137/24
f 84/137/24 46/136/24 73/138/24
f 84/137/24 73/138/24 85/139/24
f 85/139/24 73/138/24 61/140/24
f 85/139/24 61/140/24 86/141/24
f 86/141/24 61/140/24 63/142/24
f 86/141/24 63/142/24 87/143/24
f 87/143/24 63/142/24 65/144/24
f 87/143/24 65/144/24 88/145/24
f 88/145/24 65/144/24 48/146/24
f 48/146/24 65/144/24 76/147/24
f 48/146/24 76/147/24 50/148/24
f 50/148/24 76/147/24 55/149/24
f 50/148/24 55/149/24 67/150/24
f 67/150/24 55/149/24 71/151/24
f 71/151/24 55/149/24 57/152/24
f 89/155/25 17/154/16 53/153/16
f 17/154/16 89/155/25 19/156/25
f 78/159/23 6/158/26 8/157/23
f 6/158/26 78/159/23 39/160/26
f 90/163/20 25/162/14 66/161/14
f 25/162/14 90/163/20 27/164/20
f 61/167/4 72/166/5 60/165/4
f 72/166/5 61/167/4 73/168/5
f 91/171/27 19/170/25 89/169/25
f 19/170/25 91/171/27 20/172/27
f 67/175/28 70/174/28 68/173/28
f 70/174/28 67/175/28 71/176/28
f 79/177/28 68/173/28 70/174/28
f 79/177/28 90/178/28 68/173/28
f 28/179/28 90/178/28 79/177/28
f 90/178/28 28/179/28 27/180/28
f 34/183/7 10/182/22 12/181/7
f 10/182/22 34/183/7 77/184/22
f 58/187/17 20/186/27 91/185/27
f 20/186/27 58/187/17 22/188/17
f 81/191/22 93/190/23 92/189/22
f 93/190/23 81/191/22 80/192/23
f 23/195/19 69/194/18 21/193/18
f 69/194/18 23/195/19 74/196/19
f 54/199/10 76/198/12 75/197/12
f 76/198/12 54/199/10 55/200/10
f 44/203/7 92/202/22 43/201/7
f 92/202/22 44/203/7 81/204/22
f 80/207/23 36/206/26 93/205/23
f 36/206/26 80/207/23 35/208/26
f 94/211/1 9/210/2 7/209/1
f 9/210/2 94/211/1 95/212/2
f 48/215/13 96/214/17 88/213/17
f 96/214/17 48/215/13 49/216/13
f 4/219/2 97/218/29 2/217/2
f 97/218/29 4/219/2 82/220/29
f 95/223/2 11/222/29 9/221/2
f 11/222/29 95/223/2 98/224/29
f 98/227/29 13/226/30 11/225/29
f 13/226/30 98/227/29 99/228/30
f 83/231/30 101/230/15 100/229/30
f 101/230/15 83/231/30 84/232/15
f 40/235/9 7/234/1 5/233/9
f 7/234/1 40/235/9 94/236/1
f 86/239/25 102/238/16 85/237/16
f 102/238/16 86/239/25 103/240/25
f 88/243/17 104/242/27 87/241/27
f 104/242/27 88/243/17 96/244/17
f 84/247/15 102/246/16 101/245/15
f 102/246/16 84/247/15 85/248/16
f 99/251/30 15/250/15 13/249/30
f 15/250/15 99/251/30 52/252/15
f 87/255/27 103/254/25 86/253/25
f 103/254/25 87/255/27 104/256/27
f 82/259/29 100/258/30 97/257/29
f 100/258/30 82/259/29 83/260/30

usemtl metal

f 1/130/24 40/261/24 38/128/24
f 40/261/24 1/130/24 94/262/24
f 94/262/24 1/130/24 95/263/24
f 95/263/24 1/130/24 2/131/24
f 95/263/24 2/131/24 98/264/24
f 98/264/24 2/131/24 97/133/24
f 98/264/24 97/133/24 99/265/24
f 99/265/24 97/133/24 100/135/24
f 99/265/24 100/135/24 52/266/24
f 52/266/24 100/135/24 101/137/24
f 52/266/24 101/137/24 53/267/24
f 53/267/24 101/137/24 102/139/24
f 53/267/24 102/139/24 89/268/24
f 89/268/24 102/139/24 103/141/24
f 89/268/24 103/141/24 91/269/24
f 91/269/24 103/141/24 104/143/24
f 91/269/24 104/143/24 58/270/24
f 58/270/24 104/143/24 96/145/24
f 58/270/24 96/145/24 59/271/24
f 59/271/24 96/145/24 49/146/24
f 59/271/24 49/146/24 66/272/24
f 66/272/24 49/146/24 90/273/24
f 90/273/24 49/146/24 68/150/24
f 68/150/24 49/146/24 51/148/24
f 78/275/24 36/127/24 39/274/24
f 36/127/24 78/275/24 93/129/24
f 93/129/24 78/275/24 92/132/24
f 92/132/24 78/275/24 77/276/24
f 92/132/24 77/276/24 43/134/24
f 43/134/24 77/276/24 34/277/24
f 43/134/24 34/277/24 45/136/24
f 45/136/24 34/277/24 33/278/24
f 45/136/24 33/278/24 72/138/24
f 72/138/24 33/278/24 32/279/24
f 72/138/24 32/279/24 60/140/24
f 60/140/24 32/279/24 31/280/24
f 60/140/24 31/280/24 62/142/24
f 62/142/24 31/280/24 69/281/24
f 62/142/24 69/281/24 64/144/24
f 64/144/24 69/281/24 74/282/24
f 64/144/24 74/282/24 75/147/24
f 75/147/24 74/282/24 47/283/24
f 75/147/24 47/283/24 54/149/24
f 54/149/24 47/283/24 41/284/24
f 54/149/24 41/284/24 56/152/24
f 56/152/24 41/284/24 70/151/24
f 70/151/24 41/284/24 42/285/24
f 70/151/24 42/285/24 79/286/24

