# Created by Kenney (www.kenney.nl)

mtllib monorail_trainBox.mtl

g monorail_trainBox

v 0.25 0.15 0.5
v 0.2 0.15 0.5
v 0.25 0.2 0.5
v -0.2 0.15 0.5
v -0.25 0.15 0.5
v -0.25 0.2 0.5
v 0.2 0.75 -0.5
v 0.25 0.65 -0.5
v 0.2 0.75 0.5
v 0.25 0.65 0.5
v 0.25 0.15 -0.5
v 0.2 0.15 -0.5
v -0.2 0.15 -0.5
v -0.25 0.15 -0.5
v -0.25 0.65 -0.5
v -0.2 0.75 -0.5
v -0.25 0.65 0.5
v -0.2 0.75 0.5
v -0.25 0.2 -0.5
v -0.25 0.2 -0.45
v -0.25 0.25 -0.4
v -0.25 0.25 0.4
v -0.25 0.2 0.45
v 0.1 0.75 -0.4
v -0.0999999 0.75 -0.4
v -0.0999999 0.75 0.4
v 0.1 0.75 0.4
v 0.25 0.2 -0.5
v 0.25 0.2 -0.45
v 0.25 0.25 -0.4
v 0.25 0.25 0.4
v 0.25 0.2 0.45
v 0.1 0.8 -0.4
v 0.1 0.8 0.4
v -0.0999999 0.8 -0.4
v -0.0999999 0.8 0.4
v 0.2 0.1 -0.5
v 0.2 0.1 0.5
v 0.15 0 -0.5
v 0.15 0 0.5
v 0.1 0 0.5
v 0.1 0 -0.5
v 0.1 0.1 -0.5
v 0.1 0.1 0.5
v -0.0999999 0.1 0.5
v -0.0999999 0.1 -0.5
v -0.0999999 0 -0.5
v -0.0999999 0 0.5
v -0.1500001 0 0.5
v -0.1500001 0 -0.5
v -0.2 0.1 -0.5
v -0.2 0.1 0.5

vn 0 0 1
vn 0.8944272 0.4472136 0
vn 0 -1 0
vn -0.8944272 0.4472136 0
vn 0 0 -1
vn -1 0 0
vn 0 1 0
vn 1 0 0
vn 0.8944272 -0.4472136 0
vn -0.8944272 -0.4472136 0

vt 9.84252 5.905512
vt 7.874016 5.905512
vt 9.84252 7.874016
vt -7.874016 5.905512
vt -9.84252 5.905512
vt -9.84252 7.874016
vt 19.68504 22.88889
vt 19.68504 18.48718
vt -19.68504 22.88889
vt -19.68504 18.48718
vt 9.84252 19.68504
vt 9.84252 -19.68504
vt 7.874016 19.68504
vt 7.874016 -19.68504
vt -7.874016 19.68504
vt -7.874016 -19.68504
vt -9.84252 19.68504
vt -9.84252 -19.68504
vt 9.84252 25.59055
vt -9.84252 25.59055
vt 7.874016 29.52756
vt -7.874016 29.52756
vt -19.68504 5.905512
vt -19.68504 7.874016
vt 19.68504 5.905512
vt -17.71654 7.874016
vt -15.74803 9.84252
vt 15.74803 9.84252
vt 17.71654 7.874016
vt 19.68504 7.874016
vt -3.937008 -15.74803
vt 3.937008 -15.74803
vt 3.937008 15.74803
vt -3.937008 15.74803
vt 15.74803 31.49606
vt 15.74803 29.52756
vt -15.74803 31.49606
vt -15.74803 29.52756
vt 19.68504 25.59055
vt -19.68504 25.59055
vt 3.937008 29.52756
vt -3.937008 29.52756
vt 3.937008 31.49606
vt -3.937008 31.49606
vt 19.68504 3.937008
vt -19.68504 3.937008
vt 19.68504 7.042734
vt 19.68504 2.641025
vt -19.68504 7.042734
vt -19.68504 2.641025
vt 5.905512 19.68504
vt 5.905512 -19.68504
vt 3.937008 19.68504
vt 3.937008 -19.68504
vt -19.68504 0
vt 19.68504 0
vt -3.937008 19.68504
vt -3.937008 -19.68504
vt -5.905512 19.68504
vt -5.905512 -19.68504
vt 5.905512 0
vt 3.937008 0
vt 7.874016 3.937008
vt 3.937008 3.937008
vt -3.937008 3.937008
vt -7.874016 3.937008
vt -5.905512 0
vt -3.937008 0

usemtl metalRed

f 3/3/1 2/2/1 1/1/1
f 2/2/1 3/3/1 4/4/1
f 4/4/1 3/3/1 5/5/1
f 5/5/1 3/3/1 6/6/1
f 9/9/2 8/8/2 7/7/2
f 8/8/2 9/9/2 10/10/2
f 2/13/3 11/12/3 1/11/3
f 11/12/3 2/13/3 12/14/3
f 5/17/3 13/16/3 4/15/3
f 13/16/3 5/17/3 14/18/3
f 17/8/4 16/9/4 15/10/4
f 16/9/4 17/8/4 18/7/4
f 16/21/5 8/20/5 15/19/5
f 8/20/5 16/21/5 7/22/5
f 9/21/1 17/20/1 10/19/1
f 17/20/1 9/21/1 18/22/1
f 5/25/6 19/24/6 14/23/6
f 19/24/6 5/25/6 20/26/6
f 20/26/6 5/25/6 21/27/6
f 21/27/6 5/25/6 22/28/6
f 22/28/6 5/25/6 23/29/6
f 23/29/6 5/25/6 6/30/6
f 7/16/7 24/31/7 9/15/7
f 24/31/7 7/16/7 16/14/7
f 24/31/7 16/14/7 25/32/7
f 25/32/7 16/14/7 26/33/7
f 27/34/7 9/15/7 24/31/7
f 9/15/7 27/34/7 18/13/7
f 18/13/7 27/34/7 26/33/7
f 18/13/7 26/33/7 16/14/7
f 29/29/8 11/25/8 28/30/8
f 11/25/8 29/29/8 1/23/8
f 1/23/8 29/29/8 30/28/8
f 1/23/8 30/28/8 31/27/8
f 1/23/8 31/27/8 32/26/8
f 1/23/8 32/26/8 3/24/8
f 19/3/5 13/2/5 14/1/5
f 13/2/5 19/3/5 12/4/5
f 12/4/5 19/3/5 11/5/5
f 11/5/5 19/3/5 28/6/5

usemtl metal

f 34/37/8 24/36/8 33/35/8
f 24/36/8 34/37/8 27/38/8
f 8/39/8 30/28/8 28/30/8
f 30/28/8 8/39/8 10/40/8
f 28/30/8 30/28/8 29/29/8
f 30/28/8 10/40/8 31/27/8
f 31/27/8 10/40/8 32/26/8
f 32/26/8 10/40/8 3/24/8
f 20/26/6 15/40/6 19/24/6
f 15/40/6 20/26/6 21/27/6
f 15/40/6 21/27/6 17/39/6
f 17/39/6 21/27/6 22/28/6
f 17/39/6 22/28/6 23/29/6
f 17/39/6 23/29/6 6/30/6
f 26/36/6 35/37/6 25/38/6
f 35/37/6 26/36/6 36/35/6
f 35/32/7 34/34/7 33/31/7
f 34/34/7 35/32/7 36/33/7
f 15/19/5 28/6/5 19/3/5
f 28/6/5 15/19/5 8/20/5
f 34/43/1 26/42/1 27/41/1
f 26/42/1 34/43/1 36/44/1
f 35/43/5 24/42/5 25/41/5
f 24/42/5 35/43/5 33/44/5
f 10/19/1 6/6/1 3/3/1
f 6/6/1 10/19/1 17/20/1

usemtl dark

f 2/23/8 37/45/8 12/25/8
f 37/45/8 2/23/8 38/46/8
f 38/49/9 39/48/9 37/47/9
f 39/48/9 38/49/9 40/50/9
f 41/53/3 39/52/3 40/51/3
f 39/52/3 41/53/3 42/54/3
f 41/56/6 43/46/6 42/55/6
f 43/46/6 41/56/6 44/45/6
f 45/57/3 43/54/3 44/53/3
f 43/54/3 45/57/3 46/58/3
f 45/46/8 47/56/8 46/45/8
f 47/56/8 45/46/8 48/55/8
f 49/59/3 47/58/3 48/57/3
f 47/58/3 49/59/3 50/60/3
f 49/48/10 51/49/10 50/50/10
f 51/49/10 49/48/10 52/47/10
f 52/45/6 13/23/6 51/46/6
f 13/23/6 52/45/6 4/25/6
f 38/63/1 41/62/1 40/61/1
f 41/62/1 38/63/1 44/64/1
f 44/64/1 38/63/1 2/2/1
f 44/64/1 2/2/1 45/65/1
f 45/65/1 2/2/1 52/66/1
f 52/66/1 2/2/1 4/4/1
f 49/67/1 45/65/1 52/66/1
f 45/65/1 49/67/1 48/68/1
f 51/63/5 47/62/5 50/61/5
f 47/62/5 51/63/5 46/64/5
f 46/64/5 51/63/5 13/2/5
f 46/64/5 13/2/5 43/65/5
f 43/65/5 13/2/5 37/66/5
f 37/66/5 13/2/5 12/4/5
f 39/67/5 43/65/5 37/66/5
f 43/65/5 39/67/5 42/68/5

