# Created by Kenney (www.kenney.nl)

mtllib pipe_cornerDiagonal.mtl

g pipe_cornerDiagonal

v 0.5 0.5 0.1154701
v 0.5 0.5 -0.1154701
v 0.1154701 0.5 0.5
v -0.1154699 0.5 0.5
v 0.5 0.1 0.1154701
v 0.1154701 0.1 0.5
v 0.5 0.1 -0.1154701
v -0.1154699 0.1 0.5
v 0.2309401 0.3 0.5
v 0.5 0.3 0.2309401
v 0.5 0.3 -0.2309401
v -0.2309401 0.3 0.5
v 0.5 1.490117E-08 0.1732051
v 0.1732051 0 0.5
v 0.5 0.3 0.3464102
v 0.3464102 0.3 0.5
v -0.1732051 0 0.5
v 0.1732051 0.6 0.5
v -0.3464103 0.3 0.5
v -0.1732051 0.6 0.5
v 0.5 0.3 -0.3464102
v 0.5 0.6 -0.1732051
v 0.5 0.6 0.1732051
v 0.5 1.490117E-08 -0.1732051

vn 0 -1 0
vn 0 1 0
vn -0.6546537 -0.3779645 -0.6546537
vn 0.6546537 0.3779645 0.6546537
vn -0.6546537 0.3779645 -0.6546537
vn 0.6546537 -0.3779645 0.6546537
vn 0 0 1
vn 1 0 0

vt 19.68504 4.546065
vt 19.68504 -4.546065
vt 4.546066 19.68504
vt -4.546064 19.68504
vt -19.68504 4.546065
vt -4.546065 19.68504
vt -19.68504 -4.546065
vt 4.546065 19.68504
vt 7.490318 3.243861
vt -7.490318 3.243861
vt 10.70487 11.74877
vt -10.70487 11.74877
vt 20.34853 8.103809
vt 17.13398 -0.4010995
vt -20.34853 8.103809
vt -17.13398 -0.4011002
vt -10.70487 10.121
vt -7.490317 18.62591
vt 10.70487 10.121
vt 7.490318 18.62591
vt 20.34853 13.76596
vt -20.34853 13.76596
vt 17.13398 22.27087
vt -17.13398 22.27087
vt 9.097594 7.083529
vt -9.097595 7.083529
vt 4.275764 19.84089
vt -4.275765 19.84089
vt -6.819098 -2.933301E-07
vt 4.546065 3.937008
vt 6.819098 -2.933301E-07
vt 13.6382 11.81102
vt 9.092131 11.81102
vt 4.546065 19.68504
vt 6.819098 23.62205
vt -4.546065 3.937008
vt -13.6382 11.81102
vt -9.092131 11.81102
vt -6.819098 23.62205
vt 13.6382 11.81102
vt 9.09213 11.81102
vt -6.819098 23.62205
vt -9.092131 11.81102
vt -13.6382 11.81102
vt 6.819098 8.799904E-07
vt 4.546065 3.937009
vt -6.819098 8.799904E-07
vt -4.546065 3.937009
vt -19.68504 6.819097
vt -6.819098 19.68504
vt -19.68504 -6.819098
vt 6.819097 19.68504
vt 19.68504 6.819098
vt 19.68504 -6.819098
vt 6.819098 19.68504
vt -6.819098 19.68504
vt -4.275764 2.028874
vt -9.097594 14.78624
vt 4.275765 2.028874
vt 9.097595 14.78624
vt -23.56309 9.318796
vt 23.56309 9.318796
vt -18.74125 -3.438567
vt 18.74125 -3.438568
vt -23.56309 12.55097
vt -18.74125 25.30833
vt 23.56309 12.55097
vt 18.74125 25.30833

usemtl metalDark

f 3/3/1 2/2/1 1/1/1
f 2/2/1 3/3/1 4/4/1
f 7/7/2 6/6/2 5/5/2
f 6/6/2 7/7/2 8/8/2
f 3/11/3 10/10/3 9/9/3
f 10/10/3 3/11/3 1/12/3
f 12/15/4 7/14/4 11/13/4
f 7/14/4 12/15/4 8/16/4
f 6/19/5 10/18/5 5/17/5
f 10/18/5 6/19/5 9/20/5
f 2/23/6 12/22/6 11/21/6
f 12/22/6 2/23/6 4/24/6

usemtl metal

f 15/27/6 14/26/6 13/25/6
f 14/26/6 15/27/6 16/28/6
f 14/31/7 6/30/7 17/29/7
f 6/30/7 14/31/7 16/32/7
f 6/30/7 16/32/7 9/33/7
f 9/33/7 16/32/7 3/34/7
f 3/34/7 16/32/7 18/35/7
f 3/34/7 18/35/7 4/6/7
f 8/36/7 17/29/7 6/30/7
f 17/29/7 8/36/7 19/37/7
f 19/37/7 8/36/7 12/38/7
f 19/37/7 12/38/7 20/39/7
f 20/39/7 12/38/7 4/6/7
f 20/39/7 4/6/7 18/35/7
f 22/35/8 11/41/8 21/40/8
f 11/41/8 22/35/8 2/8/8
f 2/8/8 22/35/8 23/42/8
f 2/8/8 23/42/8 1/6/8
f 1/6/8 23/42/8 10/43/8
f 10/43/8 23/42/8 15/44/8
f 11/41/8 24/45/8 21/40/8
f 24/45/8 11/41/8 7/46/8
f 24/45/8 7/46/8 13/47/8
f 13/47/8 10/43/8 15/44/8
f 13/47/8 7/46/8 5/48/8
f 13/47/8 5/48/8 10/43/8
f 22/51/2 18/50/2 23/49/2
f 18/50/2 22/51/2 20/52/2
f 14/55/1 24/54/1 13/53/1
f 24/54/1 14/55/1 17/56/1
f 15/59/4 18/58/4 16/57/4
f 18/58/4 15/59/4 23/60/4
f 24/63/3 19/62/3 21/61/3
f 19/62/3 24/63/3 17/64/3
f 19/67/5 22/66/5 21/65/5
f 22/66/5 19/67/5 20/68/5

