# Created by Kenney (www.kenney.nl)

mtllib pipe_open.mtl

g pipe_open

v -0.1443377 0.45 0.25
v -0.2598076 0.45 0.25
v -0.1443377 0.45 -0.25
v -0.2598076 0.45 -0.25
v -0.1732051 0 0.5
v 0.1154701 0.1 0.5
v 0.1732051 0 0.5
v 0.3464102 0.3 0.5
v -0.1154702 0.1 0.5
v 0.2309401 0.3 0.5
v 0.2598076 0.45 0.5
v 0.1154701 0.5 0.5
v 0.1732051 0.6 0.5
v 0 0.5 0.5
v -0.1154702 0.5 0.5
v -0.3464103 0.3 0.5
v -0.2309401 0.3 0.5
v -0.2598076 0.45 0.5
v -0.1732051 0.6 0.5
v 0 0.6 0.5
v 0.1732051 1.490117E-08 -0.5
v -0.1154702 0.1 -0.5
v -0.1732051 1.490117E-08 -0.5
v -0.3464103 0.3 -0.5
v -0.2309401 0.3 -0.5
v -0.1154702 0.5 -0.5
v -0.2598076 0.45 -0.5
v -0.1732051 0.6 -0.5
v 0 0.5 -0.5
v 0.1154701 0.5 -0.5
v 0.1154701 0.1 -0.5
v 0.3464102 0.3 -0.5
v 0.2309401 0.3 -0.5
v 0.2598076 0.45 -0.5
v 0.1732051 0.6 -0.5
v 0 0.6 -0.5
v -0.1732051 0.6 0.25
v -0.1732051 0.6 -0.25
v 0.1732051 0.6 -0.25
v 0.1732051 0.6 0.25
v 0 0.5 0.25
v 0.1154701 0.5 0.25
v -0.1154702 0.5 0.25
v 0.2598076 0.45 0.25
v 0.1443375 0.45 0.25
v 0.2598076 0.45 -0.25
v 0.1443375 0.45 -0.25
v 0.1154701 0.5 -0.25
v 0 0.5 -0.25
v -0.1154702 0.5 -0.25

vn 0 1 0
vn 0 0 1
vn 0 0 -1
vn 0 -1 0
vn -0.8660254 0.5 0
vn 0.8660254 -0.5 0
vn -0.8660254 -0.5 0
vn 0.8660254 0.5 0

vt 5.682581 9.84252
vt 10.22865 9.84252
vt 5.682581 -9.84252
vt 10.22865 -9.84252
vt -6.819098 2.933301E-07
vt 4.546065 3.937008
vt 6.819098 2.933301E-07
vt 13.6382 11.81102
vt -4.546065 3.937008
vt 9.092131 11.81102
vt 10.22865 17.71654
vt 4.546065 19.68504
vt 6.819098 23.62205
vt 4.2874E-13 19.68504
vt -4.546065 19.68504
vt -13.6382 11.81102
vt -9.092131 11.81102
vt -10.22865 17.71654
vt -6.819098 23.62205
vt 2.582097E-13 23.62205
vt -6.819098 2.933302E-07
vt 6.819098 2.933302E-07
vt -3.068059E-13 19.68504
vt -1.93119E-13 23.62205
vt 6.819098 19.68504
vt 6.819098 -19.68504
vt -6.819098 19.68504
vt -6.819098 -19.68504
vt -19.68504 3.409549
vt -19.68504 10.22865
vt 19.68504 3.409549
vt -9.84252 10.22865
vt -19.68504 17.04774
vt 9.84252 10.22865
vt 9.84252 17.04774
vt 19.68504 17.04774
vt 19.68504 10.22865
vt -9.84252 17.04774
vt -6.819098 -9.84252
vt 6.819098 -9.84252
vt 9.094947E-13 -19.68504
vt -1.364242E-12 19.68504
vt -6.819098 9.84252
vt 6.819098 9.84252
vt 19.68504 3.409549
vt -19.68504 3.409549
vt -6.786201E-13 19.68504
vt -5.682581 17.71654
vt 5.682581 17.71654
vt 8.924576E-14 19.68504
vt 19.68504 10.22865
vt -9.84252 10.22865
vt -19.68504 10.22865
vt -10.22865 9.84252
vt -5.682581 9.84252
vt -10.22865 -9.84252
vt -5.682581 -9.84252
vt 19.68504 14.77471
vt 9.84252 12.50168
vt 9.84252 14.77471
vt 19.68504 5.682582
vt -19.68504 5.682581
vt -9.84252 12.50168
vt -9.84252 14.77471
vt -19.68504 14.77471
vt -4.546065 -19.68504
vt 4.546065 -19.68504
vt -19.68504 14.77471
vt -19.68504 5.682582
vt 19.68504 5.682581
vt 19.68504 14.77471
vt 4.546065 9.84252
vt 1.534772E-12 19.68504
vt 9.80549E-13 9.84252
vt -4.546065 9.84252
vt -1.823954E-13 -9.84252
vt -7.650405E-13 -19.68504
vt -4.546065 -9.84252
vt 4.546065 -9.84252

usemtl metal

f 3/3/1 2/2/1 1/1/1
f 2/2/1 3/3/1 4/4/1
f 7/7/2 6/6/2 5/5/2
f 6/6/2 7/7/2 8/8/2
f 5/5/2 6/6/2 9/9/2
f 6/6/2 8/8/2 10/10/2
f 10/10/2 8/8/2 11/11/2
f 10/10/2 11/11/2 12/12/2
f 12/12/2 11/11/2 13/13/2
f 12/12/2 13/13/2 14/14/2
f 14/14/2 13/13/2 15/15/2
f 9/9/2 16/16/2 5/5/2
f 16/16/2 9/9/2 17/17/2
f 16/16/2 17/17/2 15/15/2
f 16/16/2 15/15/2 18/18/2
f 18/18/2 15/15/2 19/19/2
f 19/19/2 15/15/2 13/13/2
f 19/19/2 13/13/2 20/20/2
f 23/22/3 22/6/3 21/21/3
f 22/6/3 23/22/3 24/8/3
f 22/6/3 24/8/3 25/10/3
f 25/10/3 24/8/3 26/12/3
f 26/12/3 24/8/3 27/11/3
f 26/12/3 27/11/3 28/13/3
f 26/12/3 28/13/3 29/23/3
f 29/23/3 28/13/3 30/15/3
f 31/9/3 21/21/3 22/6/3
f 21/21/3 31/9/3 32/16/3
f 32/16/3 31/9/3 33/17/3
f 32/16/3 33/17/3 34/18/3
f 34/18/3 33/17/3 30/15/3
f 34/18/3 30/15/3 35/19/3
f 35/19/3 30/15/3 28/13/3
f 35/19/3 28/13/3 36/24/3
f 5/27/4 21/26/4 7/25/4
f 21/26/4 5/27/4 23/28/4
f 16/31/5 27/30/5 24/29/5
f 27/30/5 16/31/5 4/32/5
f 27/30/5 4/32/5 28/33/5
f 4/32/5 16/31/5 2/34/5
f 2/34/5 16/31/5 37/35/5
f 37/35/5 16/31/5 19/36/5
f 19/36/5 16/31/5 18/37/5
f 38/38/5 28/33/5 4/32/5
f 35/28/1 38/40/1 39/39/1
f 38/40/1 35/28/1 36/41/1
f 38/40/1 36/41/1 28/26/1
f 40/43/1 20/42/1 13/27/1
f 20/42/1 40/43/1 37/44/1
f 20/42/1 37/44/1 19/25/1
f 32/36/6 7/46/6 21/45/6
f 7/46/6 32/36/6 8/33/6
f 43/12/3 42/15/3 41/47/3
f 40/19/3 42/15/3 43/12/3
f 44/18/3 42/15/3 40/19/3
f 42/15/3 44/18/3 45/48/3
f 40/19/3 43/12/3 37/13/3
f 1/49/3 37/13/3 43/12/3
f 37/13/3 1/49/3 2/11/3
f 5/31/7 24/33/7 23/29/7
f 24/33/7 5/31/7 16/36/7
f 39/13/2 47/49/2 46/11/2
f 47/49/2 39/13/2 48/12/2
f 48/12/2 39/13/2 49/50/2
f 38/19/2 49/50/2 39/13/2
f 38/19/2 50/15/2 49/50/2
f 4/18/2 50/15/2 38/19/2
f 50/15/2 4/18/2 3/48/2
f 39/35/8 46/34/8 35/36/8
f 46/34/8 34/51/8 35/36/8
f 8/46/8 34/51/8 46/34/8
f 34/51/8 8/46/8 32/45/8
f 8/46/8 46/34/8 44/52/8
f 8/46/8 44/52/8 40/38/8
f 8/46/8 40/38/8 13/33/8
f 8/46/8 13/33/8 11/53/8
f 46/56/1 45/55/1 44/54/1
f 45/55/1 46/56/1 47/57/1

usemtl metalDark

f 50/60/6 3/59/6 26/58/6
f 3/59/6 25/61/6 26/58/6
f 25/61/6 3/59/6 17/62/6
f 17/62/6 3/59/6 1/63/6
f 17/62/6 1/63/6 43/64/6
f 17/62/6 43/64/6 15/65/6
f 31/66/1 9/12/1 6/15/1
f 9/12/1 31/66/1 22/67/1
f 25/58/8 9/62/8 22/61/8
f 9/62/8 25/58/8 17/65/8
f 33/69/7 47/63/7 30/68/7
f 47/63/7 33/69/7 10/70/7
f 47/63/7 10/70/7 45/59/7
f 45/59/7 10/70/7 42/60/7
f 42/60/7 10/70/7 12/71/7
f 48/64/7 30/68/7 47/63/7
f 14/73/4 42/72/4 12/12/4
f 42/72/4 14/73/4 41/74/4
f 15/15/4 41/74/4 14/73/4
f 41/74/4 15/15/4 43/75/4
f 6/70/5 33/68/5 31/69/5
f 33/68/5 6/70/5 10/71/5
f 50/78/4 29/77/4 49/76/4
f 29/77/4 50/78/4 26/66/4
f 30/67/4 49/76/4 29/77/4
f 49/76/4 30/67/4 48/79/4

