# Created by Kenney (www.kenney.nl)

mtllib pipe_ringHigh.mtl

g pipe_ringHigh

v -0.3464103 1.1 -0.1
v -0.2309401 1.3 -0.1
v -0.3464103 1.1 0.1
v -0.2309401 1.3 0.1
v -0.4618802 0.9 0.1
v -0.4618802 0.9 -0.1
v -0.0999999 0.2 -0.1
v -0.0999999 0.5 -0.1
v -0.0999999 0.2 0.1
v -0.0999999 0.5 0.1
v -0.2309401 0.5 -0.1
v -0.2309401 0.5 0.1
v 0.1 0.2 0.1
v 0.1 0.5 0.1
v 0.1732051 0.6 0.1
v 0.4618802 0.9 0.1
v 0.2309401 0.5 0.1
v 0.3464102 0.9 0.1
v 0.3464102 1.1 0.1
v 0.2598076 1.05 0.1
v 0.1732051 1.2 0.1
v 0.2309401 1.3 0.1
v -0.1732051 1.2 0.1
v -0.1732051 0.6 0.1
v -0.3464103 0.9 0.1
v -0.2598076 1.05 0.1
v 0.1 0.2 -0.1
v 0.1 0.5 -0.1
v -0.1732051 0.6 -0.1
v -0.3464103 0.9 -0.1
v -0.2598076 1.05 -0.1
v -0.1732051 1.2 -0.1
v 0.1732051 1.2 -0.1
v 0.1732051 0.6 -0.1
v 0.4618802 0.9 -0.1
v 0.2309401 0.5 -0.1
v 0.3464102 0.9 -0.1
v 0.2598076 1.05 -0.1
v 0.3464102 1.1 -0.1
v 0.2309401 1.3 -0.1
v 0.1732051 1.2 -0.25
v -0.1732051 1.2 -0.25
v 0.1732051 1.2 -0.5
v 0 1.2 -0.5
v -0.1732051 1.2 -0.5
v 0.2 0.05 0.2
v -0.2 0.05 0.2
v 0.1 0.1 0.1
v -0.0999999 0.1 0.1
v -0.1732051 0.6 0.5
v 0.1154701 0.7 0.5
v 0.1732051 0.6 0.5
v 0.3464102 0.9 0.5
v 0.2309401 0.9 0.5
v 0.2598076 1.05 0.5
v 0.1154701 1.1 0.5
v 0.1732051 1.2 0.5
v 0 1.1 0.5
v -0.1154702 1.1 0.5
v -0.1154702 0.7 0.5
v -0.3464103 0.9 0.5
v -0.2309401 0.9 0.5
v -0.2598076 1.05 0.5
v -0.1732051 1.2 0.5
v 0 1.2 0.5
v -0.0999999 0.1 -0.1
v -0.2 0.05 -0.2
v 0.2 -4.904962E-09 0.2
v 0.2 -1.289464E-10 -0.2
v -0.2 -4.647069E-09 0.2
v -0.2 1.289463E-10 -0.2
v 0.1 0.1 -0.1
v 0.1732051 0.6 -0.5
v -0.1732051 0.6 -0.5
v 0.2 0.05 -0.2
v 0.3464102 0.9 -0.5
v 0.2598076 1.05 -0.25
v 0.2598076 1.05 -0.5
v -0.2598076 1.05 0.25
v -0.1732051 1.2 0.25
v -0.1154702 0.7 -0.5
v -0.3464103 0.9 -0.5
v -0.2309401 0.9 -0.5
v -0.1154702 1.1 -0.5
v -0.2598076 1.05 -0.5
v 0 1.1 -0.5
v 0.1154701 1.1 -0.5
v 0.1154701 0.7 -0.5
v 0.2309401 0.9 -0.5
v 0.2598076 1.05 0.25
v 0.1732051 1.2 0.25
v -0.2598076 1.05 -0.25

vn -0.8660254 0.5 0
vn -1 0 0
vn -0.8660254 -0.5 0
vn 0 0 1
vn 1 0 0
vn 0 0 -1
vn 0 1 0
vn 0.8660254 0.5 0
vn 0 -1 0
vn 0.8660254 -0.5 0
vn 0 0.8944272 0.4472136
vn -0.4472136 0.8944272 0
vn 0.4472136 0.8944272 0
vn 0 0.8944272 -0.4472136

vt -3.937008 30.68594
vt -3.937008 39.77807
vt 3.937008 30.68594
vt 3.937008 39.77807
vt 3.937008 21.59381
vt -3.937008 21.59381
vt -3.937008 7.874016
vt -3.937008 19.68504
vt 3.937007 7.874016
vt 3.937008 19.68504
vt 3.937008 7.874016
vt -3.937008 7.874016
vt 3.937008 19.68504
vt -3.937008 19.68504
vt 6.819098 23.62205
vt 18.18426 35.43307
vt 9.09213 19.68504
vt 13.6382 35.43307
vt 13.6382 43.30709
vt 10.22865 41.33858
vt 6.819098 47.24409
vt 9.09213 51.1811
vt -6.819098 47.24409
vt -6.819098 23.62205
vt -18.18426 35.43307
vt -9.092131 19.68504
vt -13.6382 35.43307
vt -10.22865 41.33858
vt -13.6382 43.30709
vt -9.092131 51.1811
vt 3.937008 7.874016
vt -3.937007 7.874016
vt 3.937008 19.68504
vt -3.937008 19.68504
vt 9.092131 19.68504
vt 18.18426 35.43307
vt 6.819098 23.62205
vt 6.819098 47.24409
vt 9.092131 51.1811
vt -6.819098 47.24409
vt -6.819098 23.62205
vt -18.18426 35.43307
vt -9.09213 19.68504
vt -9.09213 51.1811
vt -9.09213 3.937007
vt 9.092131 3.937007
vt -9.09213 -3.937008
vt 9.092131 -3.937008
vt 3.937008 21.59381
vt -3.937008 21.59381
vt 9.09213 3.937007
vt 9.09213 -3.937008
vt 3.937008 3.937007
vt 3.937008 -3.937008
vt -3.937008 3.937007
vt -3.937008 -3.937008
vt -9.092131 3.937007
vt -9.092131 -3.937008
vt -6.819098 -9.842521
vt 6.819098 -9.842521
vt -6.819098 -19.68504
vt 9.58656E-08 -19.68504
vt 6.819098 -19.68504
vt 7.874016 -6.162392
vt -7.874016 -6.162392
vt 3.937008 -1.760683
vt -3.937008 -1.760683
vt 4.546065 27.55906
vt 9.09213 35.43307
vt 4.546065 43.30709
vt -9.585874E-08 43.30709
vt -4.546065 43.30709
vt -4.546065 27.55906
vt -9.092131 35.43307
vt -9.585891E-08 47.24409
vt -3.937009 -1.760683
vt 3.937007 -1.760684
vt -7.874016 -6.162392
vt 7.874015 -6.162392
vt 7.874016 7.874015
vt 7.874016 -7.874016
vt -7.874016 7.874015
vt -7.874016 -7.874016
vt 3.937008 3.937008
vt -3.937008 3.937008
vt 6.819098 -3.937008
vt 6.819098 -19.68504
vt -6.819098 -3.937008
vt -6.819098 -19.68504
vt -7.874015 -6.162392
vt -3.937007 -1.760683
vt 7.874016 -6.162392
vt 3.937009 -1.760683
vt 19.68504 23.86684
vt 3.937008 23.86684
vt 19.68504 37.50504
vt 3.937008 37.50504
vt 9.84252 30.68594
vt 9.84252 37.50504
vt 19.68504 30.68594
vt 3.937008 3.937008
vt -3.937007 3.937008
vt 7.874016 -8.028947E-08
vt -7.874016 -7.013622E-08
vt 7.874016 1.968504
vt -7.874016 1.968504
vt 3.937008 23.86684
vt 9.84252 37.50504
vt 19.68504 37.50504
vt -3.937008 3.937008
vt 3.937007 3.937008
vt -7.874016 -1.522989E-08
vt -7.874016 1.968504
vt 7.874015 -2.03262E-07
vt 7.874015 1.968504
vt 6.819098 19.68504
vt 6.819098 3.937007
vt -6.819098 19.68504
vt -6.819098 3.937007
vt -3.937008 23.86684
vt -19.68504 23.86684
vt -3.937008 37.50504
vt -19.68504 37.50504
vt 4.546065 27.55906
vt 9.092131 35.43307
vt 4.546065 43.30709
vt 9.585883E-08 43.30709
vt -4.546065 43.30709
vt -4.546065 27.55906
vt -9.09213 35.43307
vt 9.585894E-08 47.24409
vt -9.84252 30.68594
vt -9.84252 37.50504
vt -19.68504 30.68594
vt -6.819098 19.68504
vt 9.585224E-08 19.68504
vt -6.819098 9.842519
vt 6.819098 9.842519
vt 6.819098 19.68504
vt -7.874016 -6.148627E-08
vt -7.874016 1.968504
vt 7.874016 -5.133301E-08
vt 7.874016 1.968504
vt -19.68504 37.50504
vt -3.937008 23.86684
vt -7.874016 -6.162393
vt -3.937008 -1.760684
vt 7.874016 -6.162393
vt 3.937008 -1.760684
vt 7.874016 -5.076631E-09
vt -7.874015 -1.931087E-07
vt 7.874016 1.968504
vt -7.874015 1.968504
vt -6.819098 -3.937009
vt 6.819098 -3.937009
vt -6.819098 3.937007
vt 6.819098 3.937007
vt -19.68504 26.13988
vt -19.68504 35.23201
vt 19.68504 26.13987
vt 19.68504 35.23201
vt 19.68504 26.13988
vt -19.68504 26.13987
vt -9.585207E-08 19.68504
vt -9.586549E-08 -19.68504
vt -4.546065 19.68504
vt -4.546065 -19.68504
vt 4.546065 -19.68504
vt 4.546065 19.68504
vt -19.68504 35.232
vt -4.546065 19.68504
vt 4.546065 19.68504
vt -4.546065 -19.68504
vt 4.546065 -19.68504
vt 19.68504 35.232

usemtl metalRed

f 3/3/1 2/2/1 1/1/1
f 2/2/1 3/3/1 4/4/1
f 1/1/1 5/5/1 3/3/1
f 5/5/1 1/1/1 6/6/1
f 9/9/2 8/8/2 7/7/2
f 8/8/2 9/9/2 10/10/2
f 12/5/3 6/2/3 11/6/3
f 6/2/3 12/5/3 5/4/3
f 14/13/4 9/12/4 13/11/4
f 9/12/4 14/13/4 10/14/4
f 14/13/4 15/15/4 10/14/4
f 14/13/4 16/16/4 15/15/4
f 16/16/4 14/13/4 17/17/4
f 15/15/4 16/16/4 18/18/4
f 18/18/4 16/16/4 19/19/4
f 18/18/4 19/19/4 20/20/4
f 20/20/4 19/19/4 21/21/4
f 21/21/4 19/19/4 22/22/4
f 21/21/4 22/22/4 23/23/4
f 24/24/4 10/14/4 15/15/4
f 5/25/4 10/14/4 24/24/4
f 10/14/4 5/25/4 12/26/4
f 5/25/4 24/24/4 25/27/4
f 5/25/4 25/27/4 26/28/4
f 5/25/4 26/28/4 3/29/4
f 3/29/4 26/28/4 23/23/4
f 3/29/4 23/23/4 4/30/4
f 4/30/4 23/23/4 22/22/4
f 28/33/5 13/32/5 27/31/5
f 13/32/5 28/33/5 14/34/5
f 6/36/6 8/13/6 11/35/6
f 8/13/6 6/36/6 29/37/6
f 8/13/6 29/37/6 28/14/6
f 29/37/6 6/36/6 30/18/6
f 30/18/6 6/36/6 31/20/6
f 31/20/6 6/36/6 1/19/6
f 31/20/6 1/19/6 32/38/6
f 32/38/6 1/19/6 2/39/6
f 32/38/6 2/39/6 33/40/6
f 34/41/6 28/14/6 29/37/6
f 35/42/6 28/14/6 34/41/6
f 28/14/6 35/42/6 36/43/6
f 35/42/6 34/41/6 37/27/6
f 35/42/6 37/27/6 38/28/6
f 35/42/6 38/28/6 39/29/6
f 39/29/6 38/28/6 33/40/6
f 39/29/6 33/40/6 40/44/6
f 40/44/6 33/40/6 2/39/6
f 27/12/6 8/13/6 28/14/6
f 8/13/6 27/12/6 7/11/6
f 40/47/7 4/46/7 22/45/7
f 4/46/7 40/47/7 2/48/7
f 39/3/8 16/50/8 35/49/8
f 16/50/8 39/3/8 19/1/8
f 40/4/8 19/1/8 39/3/8
f 19/1/8 40/4/8 22/2/8
f 14/53/9 36/52/9 17/51/9
f 36/52/9 14/53/9 28/54/9
f 35/4/10 17/50/10 36/49/10
f 17/50/10 35/4/10 16/2/10
f 12/57/9 8/56/9 10/55/9
f 8/56/9 12/57/9 11/58/9

usemtl metal

f 43/61/7 42/60/7 41/59/7
f 42/60/7 43/61/7 44/62/7
f 42/60/7 44/62/7 45/63/7
f 48/66/11 47/65/11 46/64/11
f 47/65/11 48/66/11 49/67/11
f 11/6/8 6/2/8 12/5/8
f 5/4/8 12/5/8 6/2/8
f 52/15/4 51/68/4 50/24/4
f 51/68/4 52/15/4 53/18/4
f 51/68/4 53/18/4 54/69/4
f 54/69/4 53/18/4 55/20/4
f 54/69/4 55/20/4 56/70/4
f 56/70/4 55/20/4 57/21/4
f 56/70/4 57/21/4 58/71/4
f 58/71/4 57/21/4 59/72/4
f 60/73/4 50/24/4 51/68/4
f 50/24/4 60/73/4 61/27/4
f 61/27/4 60/73/4 62/74/4
f 61/27/4 62/74/4 59/72/4
f 61/27/4 59/72/4 63/28/4
f 63/28/4 59/72/4 64/23/4
f 64/23/4 59/72/4 57/21/4
f 64/23/4 57/21/4 65/75/4
f 67/78/12 49/77/12 66/76/12
f 49/77/12 67/78/12 47/79/12
f 70/82/9 69/81/9 68/80/9
f 69/81/9 70/82/9 71/83/9
f 7/11/6 72/85/6 66/84/6
f 72/85/6 7/11/6 27/12/6
f 29/88/9 73/87/9 34/86/9
f 73/87/9 29/88/9 74/89/9
f 75/92/13 48/91/13 46/90/13
f 48/91/13 75/92/13 72/93/13
f 76/96/10 34/95/10 73/94/10
f 34/95/10 76/96/10 37/97/10
f 41/99/8 77/98/8 43/96/8
f 37/95/8 43/96/8 77/98/8
f 37/95/8 78/100/8 43/96/8
f 78/100/8 37/95/8 76/94/8
f 37/95/8 77/98/8 38/3/8
f 27/31/5 48/102/5 72/101/5
f 48/102/5 27/31/5 13/32/5
f 46/105/4 70/104/4 68/103/4
f 70/104/4 46/105/4 47/106/4
f 13/11/4 49/85/4 48/84/4
f 49/85/4 13/11/4 9/12/4
f 61/94/1 26/3/1 25/107/1
f 26/3/1 61/94/1 79/98/1
f 79/98/1 61/94/1 80/108/1
f 80/108/1 61/94/1 64/109/1
f 64/109/1 61/94/1 63/100/1
f 49/111/2 7/7/2 66/110/2
f 7/7/2 49/111/2 9/9/2
f 70/114/2 67/113/2 71/112/2
f 67/113/2 70/114/2 47/115/2
f 50/118/9 15/117/9 52/116/9
f 15/117/9 50/118/9 24/119/9
f 18/122/10 52/121/10 15/120/10
f 52/121/10 18/122/10 53/123/10
f 74/37/6 81/124/6 73/41/6
f 81/124/6 74/37/6 82/18/6
f 81/124/6 82/18/6 83/125/6
f 83/125/6 82/18/6 84/126/6
f 84/126/6 82/18/6 85/20/6
f 84/126/6 85/20/6 45/38/6
f 84/126/6 45/38/6 86/127/6
f 86/127/6 45/38/6 87/128/6
f 88/129/6 73/41/6 81/124/6
f 73/41/6 88/129/6 76/27/6
f 76/27/6 88/129/6 89/130/6
f 76/27/6 89/130/6 78/28/6
f 78/28/6 89/130/6 87/128/6
f 78/28/6 87/128/6 43/40/6
f 43/40/6 87/128/6 45/38/6
f 43/40/6 45/38/6 44/131/6
f 20/1/8 53/121/8 18/120/8
f 53/121/8 20/1/8 90/132/8
f 53/121/8 90/132/8 91/133/8
f 53/121/8 91/133/8 57/123/8
f 53/121/8 57/123/8 55/134/8
f 50/94/3 25/97/3 24/107/3
f 25/97/3 50/94/3 61/109/3
f 91/137/7 65/136/7 57/135/7
f 65/136/7 91/137/7 80/138/7
f 65/136/7 80/138/7 64/139/7
f 71/142/6 75/141/6 69/140/6
f 75/141/6 71/142/6 67/143/6
f 29/145/3 82/144/3 74/121/3
f 82/144/3 29/145/3 30/122/3
f 67/148/14 72/147/14 75/146/14
f 72/147/14 67/148/14 66/149/14
f 75/152/5 68/151/5 69/150/5
f 68/151/5 75/152/5 46/153/5
f 30/145/1 85/134/1 82/121/1
f 85/134/1 30/145/1 45/144/1
f 45/144/1 30/145/1 92/132/1
f 92/132/1 30/145/1 31/1/1
f 42/133/1 45/144/1 92/132/1

usemtl _defaultMat

f 75/60/7 47/62/7 46/63/7
f 47/60/7 75/62/7 67/63/7
f 49/91/9 72/92/9 48/93/9
f 72/91/9 49/92/9 66/93/9

usemtl dark

f 31/1/1 42/133/1 92/132/1
f 42/133/1 31/1/1 32/122/1
f 41/59/7 32/155/7 33/154/7
f 32/155/7 41/59/7 42/60/7
f 41/99/8 38/3/8 77/98/8
f 38/3/8 41/99/8 33/97/8
f 21/156/7 80/138/7 91/137/7
f 80/138/7 21/156/7 23/157/7
f 21/122/8 90/132/8 20/1/8
f 90/132/8 21/122/8 91/133/8
f 79/98/1 23/97/1 26/3/1
f 23/97/1 79/98/1 80/108/1

usemtl metalDark

f 54/160/3 87/159/3 89/158/3
f 87/159/3 54/160/3 56/161/3
f 83/161/8 60/163/8 81/162/8
f 60/163/8 83/161/8 62/159/8
f 59/166/9 86/165/9 58/164/9
f 86/165/9 59/166/9 84/167/9
f 87/168/9 58/164/9 86/165/9
f 58/164/9 87/168/9 56/169/9
f 84/161/10 62/163/10 83/162/10
f 62/163/10 84/161/10 59/170/10
f 88/173/7 60/172/7 51/171/7
f 60/172/7 88/173/7 81/174/7
f 51/160/1 89/159/1 88/158/1
f 89/159/1 51/160/1 54/175/1

