# Created by Kenney (www.kenney.nl)

mtllib pipe_rampLarge.mtl

g pipe_rampLarge

v 0.1732051 0.6 0.125
v -0.1732051 0.6 0.125
v 0.1732051 0.6 0
v 0 0.6 0
v -0.1732051 0.6 0
v -0.3464103 0.3 0
v -0.3464103 0.3 0.5
v -0.1732051 -1.490117E-08 0
v -0.1732051 -9.082475E-17 0.5
v -0.3464103 0.9 -1
v -0.1732051 0.6 -1
v 0.1154701 0.1 0.5
v 0.1732051 -9.082475E-17 0.5
v 0.3464102 0.3 0.5
v 0.2309401 0.3 0.5
v 0.1154701 0.5 0.5
v 0.2598076 0.45 0.5
v 0.1732051 0.6 0.5
v 0 0.5 0.5
v -0.1154702 0.5 0.5
v -0.1154702 0.1 0.5
v -0.2309401 0.3 0.5
v -0.2598076 0.45 0.5
v -0.1732051 0.6 0.5
v 0 0.6 0.5
v 0.1732051 0.6 0.375
v 0.2598076 0.45 0.375
v 0.2598076 0.45 0.125
v 0.3464102 0.3 0
v 0.2598076 0.45 0
v 0.1732051 1.2 -1.375
v -0.1732051 1.2 -1.375
v 0.1732051 1.2 -1.5
v 0 1.2 -1.5
v -0.1732051 1.2 -1.5
v 0.1732051 -1.490117E-08 0
v 0.1732051 0.6 -1
v -0.2598076 0.45 0
v -0.2598076 0.45 0.125
v -0.2598076 0.45 0.375
v -0.1732051 0.6 0.375
v -0.1732051 1.2 -1
v -0.2598076 1.05 -1
v -0.3464103 0.8999999 -1.5
v -0.1732051 0.6 -1.5
v -0.2598076 1.05 -1.5
v -0.2598076 1.05 -1.375
v -0.2598076 1.05 -1.125
v -0.1732051 1.2 -1.125
v 0.1732051 1.2 -1
v 0 1.2 -1
v 0.1732051 1.2 -1.125
v 0.1732051 0.6 -1.5
v -0.1154702 0.6999999 -1.5
v -0.2309401 0.8999999 -1.5
v -0.1154702 1.1 -1.5
v 0 1.1 -1.5
v 0.1154701 1.1 -1.5
v 0.1154701 0.6999999 -1.5
v 0.3464102 0.8999999 -1.5
v 0.2309401 0.8999999 -1.5
v 0.2598076 1.05 -1.5
v 0.3464102 0.9 -1
v 0.2598076 1.05 -1
v 0.2598076 1.05 -1.125
v 0.2598076 1.05 -1.375
v 0 0.5 0
v -0.1154702 0.5 0
v 0.1154701 0.5 0
v 0.2309401 0.3 0
v 0.1154701 0.09999998 0
v -0.1154702 0.09999998 0
v -0.2309401 0.3 0
v 0.1154701 1.1 -1
v 0 1.1 -1
v -0.1154702 1.1 -1
v 0.1154701 0.6999999 -1
v -0.1154702 0.6999999 -1
v 0.2309401 0.9 -1
v -0.2309401 0.9 -1

vn 0 1 0
vn -0.8660254 -0.5 0
vn -0.8295019 -0.4789132 -0.2873479
vn 0 0 1
vn 0.8660254 0.5 0
vn 0 -1 0
vn 0 -0.8574929 -0.5144957
vn -0.8660254 0.5 0
vn -0.8295019 0.4789132 0.2873479
vn 0 0 -1
vn 0.8660254 -0.5 0
vn 0.8295019 -0.4789132 -0.2873479
vn 0 0.8574929 0.5144957
vn 0.8295019 0.4789132 0.2873479

vt -6.819098 4.92126
vt 6.819098 4.92126
vt -6.819098 5.279917E-07
vt 2.671641E-12 5.279925E-07
vt 6.819098 5.279933E-07
vt -2.346663E-07 17.04774
vt 19.68504 17.04774
vt 5.866406E-08 3.409548
vt 19.68504 3.409549
vt -32.73708 43.44875
vt 4.464147 16.54015
vt -34.96915 29.99445
vt 2.232074 3.085848
vt -6.819098 -2.933301E-07
vt 4.546065 3.937008
vt 6.819098 -2.933301E-07
vt 13.6382 11.81102
vt 9.092131 11.81102
vt 4.546065 19.68504
vt 10.22865 17.71654
vt 6.819098 23.62205
vt -2.123292E-12 19.68504
vt -4.546065 19.68504
vt -4.546065 3.937008
vt -13.6382 11.81102
vt -9.092131 11.81102
vt -10.22865 17.71654
vt -6.819098 23.62205
vt -2.009605E-12 23.62205
vt -14.76378 17.04774
vt -14.76378 10.22865
vt -19.68504 17.04774
vt -19.68504 10.22865
vt -19.68504 3.409549
vt -4.92126 10.22865
vt -2.346628E-07 3.409548
vt -4.92126 17.04774
vt -8.799766E-08 10.22865
vt 5.866747E-08 17.04774
vt -6.819098 -54.13386
vt 6.819098 -54.13386
vt -6.819098 -59.05512
vt 1.006129E-11 -59.05512
vt 6.819098 -59.05512
vt 6.819098 19.68504
vt 6.819098 1.759955E-07
vt -6.819098 19.68504
vt -6.819098 1.759971E-07
vt -6.819098 -4.527498E-07
vt -6.819098 45.91301
vt 6.819098 -4.527499E-07
vt 6.819098 45.91301
vt -5.866795E-08 17.04774
vt 4.92126 17.04774
vt 8.799697E-08 10.22865
vt 2.346619E-07 3.409548
vt 4.92126 10.22865
vt 14.76378 10.22865
vt 19.68504 10.22865
vt 14.76378 17.04774
vt -39.4333 44.55966
vt -2.232074 17.65105
vt -40.54934 37.8325
vt -41.66537 31.10536
vt -3.34811 10.9239
vt -4.464147 4.196754
vt -59.05512 37.50504
vt -39.37008 37.50504
vt -59.05512 23.86684
vt -39.37008 23.86684
vt -54.13386 37.50504
vt -59.05512 30.68594
vt -54.13386 30.68594
vt -44.29134 30.68594
vt -39.37008 30.68594
vt -44.29134 37.50504
vt -6.819098 -39.37008
vt 7.105427E-12 -39.37008
vt -6.819098 -44.29134
vt 6.819098 -44.29134
vt 6.819098 -39.37008
vt -6.819098 23.62205
vt 4.546065 27.55905
vt 6.819098 23.62205
vt 13.6382 35.43307
vt 9.092131 35.43307
vt 10.22865 41.33858
vt 4.546065 43.30709
vt 6.819098 47.24409
vt 4.518021E-12 43.30709
vt -4.546065 43.30709
vt -4.546065 27.55905
vt -13.6382 35.43307
vt -9.092131 35.43307
vt -10.22865 41.33858
vt -6.819098 47.24409
vt 4.347491E-12 47.24409
vt 2.346654E-07 17.04774
vt -5.866451E-08 3.409548
vt -2.273738E-13 19.68504
vt -6.819098 14.76378
vt 6.819098 14.76378
vt 32.73708 43.44875
vt 34.96915 29.99445
vt -4.464147 16.54015
vt -2.232074 3.085848
vt 6.819098 12.15344
vt -2.671641E-12 12.15344
vt 6.819098 58.06645
vt -3.005686E-12 58.06645
vt -6.819098 12.15344
vt -6.819098 58.06645
vt 39.4333 44.55966
vt 40.54934 37.8325
vt 2.232074 17.65105
vt 41.66537 31.10536
vt 3.34811 10.9239
vt 4.464147 4.196754
vt 59.05512 37.50504
vt 59.05512 23.86684
vt 39.37008 37.50504
vt 39.37008 23.86684
vt 44.29134 37.50504
vt 44.29134 30.68594
vt 39.37008 30.68594
vt 54.13386 30.68594
vt 54.13386 37.50504
vt 59.05512 30.68594
vt 1.136869E-13 19.68504
vt -2.785328E-12 4.693265E-07
vt -4.546065 4.69327E-07
vt 4.546065 4.69326E-07
vt -3.911223E-08 14.77471
vt 19.68504 14.77471
vt 1.564413E-07 5.682581
vt 19.68504 5.682581
vt -4.546065 2.346618E-07
vt 4.546065 2.346629E-07
vt 3.911255E-08 14.77471
vt -1.564407E-07 5.682581
vt -19.68504 14.77471
vt -19.68504 5.682581
vt 4.546065 -39.37008
vt 4.546065 -59.05512
vt -7.219114E-12 -39.37008
vt -1.023182E-11 -59.05512
vt -4.546065 -39.37008
vt -4.546065 -59.05512
vt 1.564447E-07 14.77471
vt -3.910882E-08 5.682581
vt -4.546065 10.12787
vt -4.546065 56.04087
vt 2.785328E-12 10.12787
vt 3.04768E-12 56.04087
vt 4.546065 10.12787
vt 4.546065 56.04087
vt -59.05512 35.232
vt -39.37008 35.232
vt -59.05512 26.13987
vt -39.37008 26.13987
vt 34.22513 41.39152
vt 35.71318 32.42199
vt -2.976098 14.48292
vt -1.488049 5.513383
vt 59.05512 35.232
vt 59.05512 26.13987
vt 39.37008 35.232
vt 39.37008 26.13987
vt 4.546065 2.025573
vt -4.546065 2.025573
vt 4.546065 47.93858
vt -4.546065 47.93858
vt 38.68928 42.13212
vt 40.17733 33.16259
vt 1.488049 15.22352
vt 2.976098 6.253986
vt -1.564441E-07 14.77471
vt 3.910911E-08 5.682581
vt -38.68928 42.13212
vt -1.488049 15.22352
vt -40.17733 33.16259
vt -2.976098 6.253986
vt -34.22513 41.39152
vt 2.976098 14.48292
vt -35.71318 32.42199
vt 1.488049 5.513383

usemtl metal

f 3/3/1 2/2/1 1/1/1
f 2/2/1 3/3/1 4/4/1
f 2/2/1 4/4/1 5/5/1
f 8/8/2 7/7/2 6/6/2
f 7/7/2 8/8/2 9/9/2
f 11/12/3 6/11/3 10/10/3
f 6/11/3 11/12/3 8/13/3
f 13/16/4 12/15/4 9/14/4
f 12/15/4 13/16/4 14/17/4
f 12/15/4 14/17/4 15/18/4
f 15/18/4 14/17/4 16/19/4
f 16/19/4 14/17/4 17/20/4
f 16/19/4 17/20/4 18/21/4
f 16/19/4 18/21/4 19/22/4
f 19/22/4 18/21/4 20/23/4
f 21/24/4 9/14/4 12/15/4
f 9/14/4 21/24/4 7/25/4
f 7/25/4 21/24/4 22/26/4
f 7/25/4 22/26/4 23/27/4
f 23/27/4 22/26/4 20/23/4
f 23/27/4 20/23/4 24/28/4
f 24/28/4 20/23/4 18/21/4
f 24/28/4 18/21/4 25/29/4
f 18/32/5 27/31/5 26/30/5
f 17/33/5 27/31/5 18/32/5
f 14/34/5 27/31/5 17/33/5
f 14/34/5 28/35/5 27/31/5
f 29/36/5 28/35/5 14/34/5
f 29/36/5 1/37/5 28/35/5
f 30/38/5 1/37/5 29/36/5
f 1/37/5 30/38/5 3/39/5
f 33/42/1 32/41/1 31/40/1
f 32/41/1 33/42/1 34/43/1
f 32/41/1 34/43/1 35/44/1
f 9/47/6 36/46/6 13/45/6
f 36/46/6 9/47/6 8/48/6
f 8/51/7 37/50/7 36/49/7
f 37/50/7 8/51/7 11/52/7
f 38/55/8 2/54/8 5/53/8
f 2/54/8 38/55/8 6/56/8
f 2/54/8 6/56/8 39/57/8
f 39/57/8 6/56/8 7/9/8
f 39/57/8 7/9/8 40/58/8
f 40/58/8 7/9/8 24/7/8
f 24/7/8 7/9/8 23/59/8
f 24/7/8 41/60/8 40/58/8
f 43/63/9 5/62/9 42/61/9
f 5/62/9 43/63/9 10/64/9
f 5/62/9 10/64/9 38/65/9
f 38/65/9 10/64/9 6/66/9
f 45/69/2 10/68/2 44/67/2
f 10/68/2 45/69/2 11/70/2
f 46/72/8 32/71/8 35/67/8
f 32/71/8 46/72/8 44/69/8
f 32/71/8 44/69/8 47/73/8
f 47/73/8 44/69/8 10/70/8
f 47/73/8 10/70/8 48/74/8
f 48/74/8 10/70/8 42/68/8
f 42/68/8 10/70/8 43/75/8
f 42/68/8 49/76/8 48/74/8
f 52/79/1 51/78/1 50/77/1
f 51/78/1 52/79/1 49/80/1
f 51/78/1 49/80/1 42/81/1
f 45/84/10 54/83/10 53/82/10
f 54/83/10 45/84/10 44/85/10
f 54/83/10 44/85/10 55/86/10
f 55/86/10 44/85/10 46/87/10
f 55/86/10 46/87/10 56/88/10
f 56/88/10 46/87/10 35/89/10
f 56/88/10 35/89/10 57/90/10
f 57/90/10 35/89/10 58/91/10
f 59/92/10 53/82/10 54/83/10
f 53/82/10 59/92/10 60/93/10
f 60/93/10 59/92/10 61/94/10
f 60/93/10 61/94/10 58/91/10
f 60/93/10 58/91/10 62/95/10
f 62/95/10 58/91/10 33/96/10
f 33/96/10 58/91/10 35/89/10
f 33/96/10 35/89/10 34/97/10
f 14/32/11 36/99/11 29/98/11
f 36/99/11 14/32/11 13/34/11
f 26/101/1 25/100/1 18/47/1
f 25/100/1 26/101/1 41/102/1
f 25/100/1 41/102/1 24/45/1
f 29/105/12 37/104/12 63/103/12
f 37/104/12 29/105/12 36/106/12
f 50/109/13 4/108/13 3/107/13
f 4/108/13 50/109/13 51/110/13
f 4/108/13 51/110/13 5/111/13
f 5/111/13 51/110/13 42/112/13
f 11/77/6 53/44/6 37/81/6
f 53/44/6 11/77/6 45/42/6
f 3/115/14 64/114/14 50/113/14
f 64/114/14 3/115/14 63/116/14
f 63/116/14 3/115/14 30/117/14
f 63/116/14 30/117/14 29/118/14
f 63/121/11 53/120/11 60/119/11
f 53/120/11 63/121/11 37/122/11
f 50/121/5 65/124/5 52/123/5
f 64/125/5 65/124/5 50/121/5
f 63/122/5 65/124/5 64/125/5
f 63/122/5 66/126/5 65/124/5
f 60/120/5 66/126/5 63/122/5
f 60/120/5 31/127/5 66/126/5
f 62/128/5 31/127/5 60/120/5
f 31/127/5 62/128/5 33/119/5

usemtl metalDark

f 20/23/6 67/130/6 19/129/6
f 67/130/6 20/23/6 68/131/6
f 69/132/6 19/129/6 67/130/6
f 19/129/6 69/132/6 16/19/6
f 70/135/2 16/134/2 69/133/2
f 16/134/2 70/135/2 15/136/2
f 71/137/1 21/19/1 12/23/1
f 21/19/1 71/137/1 72/138/1
f 20/141/11 73/140/11 68/139/11
f 73/140/11 20/141/11 22/142/11
f 75/145/6 58/144/6 74/143/6
f 58/144/6 75/145/6 57/146/6
f 76/147/6 57/146/6 75/145/6
f 57/146/6 76/147/6 56/148/6
f 22/141/5 72/150/5 73/149/5
f 72/150/5 22/141/5 21/142/5
f 67/153/7 74/152/7 69/151/7
f 74/152/7 67/153/7 75/154/7
f 68/155/7 75/154/7 67/153/7
f 75/154/7 68/155/7 76/156/7
f 59/148/1 78/143/1 77/147/1
f 78/143/1 59/148/1 54/144/1
f 61/159/2 74/158/2 58/157/2
f 74/158/2 61/159/2 79/160/2
f 73/163/14 78/162/14 80/161/14
f 78/162/14 73/163/14 72/164/14
f 76/167/11 55/166/11 56/165/11
f 55/166/11 76/167/11 80/168/11
f 77/171/13 72/170/13 71/169/13
f 72/170/13 77/171/13 78/172/13
f 80/167/5 54/166/5 55/165/5
f 54/166/5 80/167/5 78/168/5
f 68/175/12 80/174/12 76/173/12
f 80/174/12 68/175/12 73/176/12
f 71/178/8 15/134/8 70/177/8
f 15/134/8 71/178/8 12/136/8
f 59/159/8 79/158/8 61/157/8
f 79/158/8 59/159/8 77/160/8
f 79/181/3 69/180/3 74/179/3
f 69/180/3 79/181/3 70/182/3
f 77/185/9 70/184/9 79/183/9
f 70/184/9 77/185/9 71/186/9

usemtl dark

f 31/40/1 49/80/1 52/79/1
f 49/80/1 31/40/1 32/41/1
f 52/123/5 66/126/5 31/127/5
f 66/126/5 52/123/5 65/124/5
f 39/57/8 41/60/8 2/54/8
f 41/60/8 39/57/8 40/58/8
f 47/73/8 49/76/8 32/71/8
f 49/76/8 47/73/8 48/74/8
f 26/30/5 28/35/5 1/37/5
f 28/35/5 26/30/5 27/31/5
f 1/1/1 41/102/1 26/101/1
f 41/102/1 1/1/1 2/2/1

