# Created by Kenney (www.kenney.nl)

mtllib pipe_ringSupport.mtl

g pipe_ringSupport

v 0.2309401 1.3 -0.1
v 0.3464102 1.1 -0.1
v 0.2309401 1.3 0.1
v 0.3464102 1.1 0.1
v 0.4618802 0.9 -0.1
v 0.4618802 0.9 0.1
v 0.2309401 0.5 0.1
v 0.2309401 0.5 -0.1
v 0.1 0.5 0.1
v 0.1 0.5 -0.1
v -0.0999999 0.5 0.1
v -0.0999999 0.5 -0.1
v -0.2309401 0.5 0.1
v -0.2309401 0.5 -0.1
v -0.2309401 1.3 -0.1
v -0.2309401 1.3 0.1
v -0.3464103 1.1 -0.1
v -0.3464103 1.1 0.1
v -0.4618802 0.9 -0.1
v -0.4618802 0.9 0.1
v -0.0999999 0.2 -0.1
v -0.0999999 0.2 0.1
v 0.1 0.2 -0.1
v -0.1732051 0.6 -0.1
v 0.1732051 0.6 -0.1
v -0.3464103 0.9 -0.1
v -0.1732051 1.2 -0.1
v 0.1732051 1.2 -0.1
v 0.3464102 0.9 -0.1
v 0.2598076 1.05 -0.1
v 0.1 0.2 0.1
v 0.1732051 0.6 0.1
v 0.3464102 0.9 0.1
v 0.2598076 1.05 0.1
v 0.1732051 1.2 0.1
v -0.1732051 1.2 0.1
v -0.1732051 0.6 0.1
v -0.3464103 0.9 0.1
v 0.1 0.1 0.1
v -0.0999999 0.1 0.1
v 0.2 0.05 0.2
v -0.2 0.05 0.2
v 0.2 0.05 -0.2
v 0.1 0.1 -0.1
v -0.2 0.05 -0.2
v -0.0999999 0.1 -0.1
v -0.2 -1.289464E-10 0.2
v 0.2 1.289463E-10 0.2
v 0.2 -4.647069E-09 -0.2
v -0.2 -4.904962E-09 -0.2

vn 0.8660254 0.5 0
vn 0 -1 0
vn -0.8660254 0.5 0
vn -1 0 0
vn 0 0 -1
vn 1 0 0
vn 0.8660254 -0.5 0
vn 0 0 1
vn -0.8660254 -0.5 0
vn 0 1 0
vn 0 0.8944272 0.4472136
vn 0 0.8944272 -0.4472136
vn -0.4472136 0.8944272 0
vn 0.4472136 0.8944272 0

vt 3.937009 39.77807
vt 3.937008 30.68594
vt -3.937007 39.77807
vt -3.937007 30.68594
vt 3.937008 21.59381
vt -3.937007 21.59381
vt 9.092131 3.937008
vt 9.092131 -3.937008
vt 3.937008 3.937008
vt 3.937008 -3.937008
vt -3.937008 3.937008
vt -3.937008 -3.937008
vt -9.092131 3.937008
vt -9.092131 -3.937008
vt -3.937009 39.77807
vt 3.937007 39.77807
vt -3.937008 30.68594
vt 3.937007 30.68594
vt -3.937008 21.59381
vt 3.937007 21.59381
vt -3.937008 19.68504
vt 3.937008 19.68504
vt -3.937008 7.874016
vt 3.937008 7.874016
vt 3.937008 7.874016
vt 3.937008 19.68504
vt -3.937008 19.68504
vt 6.819098 23.62205
vt 18.18426 35.43307
vt 9.092131 19.68504
vt -6.819098 23.62205
vt 13.6382 35.43307
vt 13.6382 43.30709
vt 6.819098 47.24409
vt 9.092131 51.1811
vt -6.819098 47.24409
vt -18.18426 35.43307
vt -9.092131 19.68504
vt -13.6382 35.43307
vt -10.22865 41.33858
vt -13.6382 43.30709
vt -9.092131 51.1811
vt 3.937008 19.68504
vt -3.937008 19.68504
vt -3.937008 7.874016
vt 10.22865 41.33858
vt 3.937009 37.50504
vt 3.937008 23.86684
vt -3.937007 37.50504
vt -3.937007 23.86684
vt 7.874016 -6.162392
vt -7.874016 -6.162392
vt 3.937008 -1.760683
vt -3.937008 -1.760683
vt -3.937009 37.50504
vt 3.937007 37.50504
vt -3.937008 23.86684
vt 3.937007 23.86684
vt -7.874016 -6.148626E-08
vt -7.874016 1.968504
vt 7.874016 -5.133301E-08
vt 7.874016 1.968504
vt 7.874016 -2.03262E-07
vt -7.874016 1.968504
vt -7.874016 -1.522989E-08
vt -6.819098 3.937008
vt 6.819098 3.937008
vt -6.819098 -3.937008
vt 6.819098 -3.937008
vt 7.874016 1.968504
vt -7.874016 -1.931087E-07
vt 7.874016 -5.076631E-09
vt 7.874016 7.874016
vt 7.874016 -7.874016
vt -7.874016 7.874016
vt -7.874016 -7.874016
vt 7.874016 -8.028946E-08
vt -7.874016 -7.01362E-08

usemtl metalRed

f 3/3/1 2/2/1 1/1/1
f 2/2/1 3/3/1 4/4/1
f 4/4/1 5/5/1 2/2/1
f 5/5/1 4/4/1 6/6/1
f 9/9/2 8/8/2 7/7/2
f 8/8/2 9/9/2 10/10/2
f 13/13/2 12/12/2 11/11/2
f 12/12/2 13/13/2 14/14/2
f 17/17/3 16/16/3 15/15/3
f 16/16/3 17/17/3 18/18/3
f 19/19/3 18/18/3 17/17/3
f 18/18/3 19/19/3 20/20/3
f 21/23/4 11/22/4 12/21/4
f 11/22/4 21/23/4 22/24/4
f 12/26/5 23/23/5 21/25/5
f 23/23/5 12/26/5 10/27/5
f 12/26/5 24/28/5 10/27/5
f 12/26/5 19/29/5 24/28/5
f 19/29/5 12/26/5 14/30/5
f 10/27/5 24/28/5 25/31/5
f 24/28/5 19/29/5 26/32/5
f 26/32/5 19/29/5 17/33/5
f 26/32/5 17/33/5 27/34/5
f 27/34/5 17/33/5 15/35/5
f 27/34/5 15/35/5 28/36/5
f 5/37/5 10/27/5 25/31/5
f 10/27/5 5/37/5 8/38/5
f 5/37/5 25/31/5 29/39/5
f 5/37/5 29/39/5 30/40/5
f 5/37/5 30/40/5 2/41/5
f 2/41/5 30/40/5 28/36/5
f 2/41/5 28/36/5 1/42/5
f 1/42/5 28/36/5 15/35/5
f 9/44/6 23/25/6 10/43/6
f 23/25/6 9/44/6 31/45/6
f 6/3/7 8/5/7 5/1/7
f 8/5/7 6/3/7 7/6/7
f 9/26/8 22/23/8 31/25/8
f 22/23/8 9/26/8 11/27/8
f 9/26/8 32/28/8 11/27/8
f 9/26/8 6/29/8 32/28/8
f 6/29/8 9/26/8 7/30/8
f 32/28/8 6/29/8 33/32/8
f 33/32/8 6/29/8 4/33/8
f 33/32/8 4/33/8 34/46/8
f 34/46/8 4/33/8 35/34/8
f 35/34/8 4/33/8 3/35/8
f 35/34/8 3/35/8 36/36/8
f 37/31/8 11/27/8 32/28/8
f 20/37/8 11/27/8 37/31/8
f 11/27/8 20/37/8 13/38/8
f 20/37/8 37/31/8 38/39/8
f 20/37/8 38/39/8 36/36/8
f 20/37/8 36/36/8 18/41/8
f 18/41/8 36/36/8 16/42/8
f 16/42/8 36/36/8 3/35/8
f 14/19/9 20/16/9 19/15/9
f 20/16/9 14/19/9 13/20/9
f 1/14/10 16/7/10 3/13/10
f 16/7/10 1/14/10 15/8/10

usemtl metal

f 36/49/7 26/48/7 27/47/7
f 26/48/7 36/49/7 38/50/7
f 38/49/1 24/48/1 26/47/1
f 24/48/1 38/49/1 37/50/1
f 31/25/8 40/11/8 39/9/8
f 40/11/8 31/25/8 22/23/8
f 39/53/11 42/52/11 41/51/11
f 42/52/11 39/53/11 40/54/11
f 25/57/3 33/56/3 29/55/3
f 33/56/3 25/57/3 32/58/3
f 45/51/12 44/54/12 43/52/12
f 44/54/12 45/51/12 46/53/12
f 21/25/5 44/11/5 46/9/5
f 44/11/5 21/25/5 23/23/5
f 46/54/13 42/51/13 40/53/13
f 42/51/13 46/54/13 45/52/13
f 48/61/8 42/60/8 47/59/8
f 42/60/8 48/61/8 41/62/8
f 30/17/9 35/56/9 28/55/9
f 35/56/9 30/17/9 29/57/9
f 35/56/9 29/57/9 34/18/9
f 34/18/9 29/57/9 33/58/9
f 41/64/6 49/63/6 43/62/6
f 49/63/6 41/64/6 48/65/6
f 25/68/10 37/67/10 32/66/10
f 37/67/10 25/68/10 24/69/10
f 50/71/4 42/70/4 45/60/4
f 42/70/4 50/71/4 47/72/4
f 31/45/6 44/9/6 23/25/6
f 44/9/6 31/45/6 39/11/6
f 47/75/2 49/74/2 48/73/2
f 49/74/2 47/75/2 50/76/2
f 44/53/14 41/52/14 43/51/14
f 41/52/14 44/53/14 39/54/14
f 45/70/5 49/78/5 50/77/5
f 49/78/5 45/70/5 43/64/5
f 36/66/2 28/69/2 35/67/2
f 28/69/2 36/66/2 27/68/2
f 46/11/4 22/24/4 21/23/4
f 22/24/4 46/11/4 40/9/4

usemtl _defaultMat

f 45/48/10 41/49/10 43/50/10
f 41/48/10 45/49/10 42/50/10
f 39/56/2 46/57/2 44/58/2
f 46/56/2 39/57/2 40/58/2

