# Created by Kenney (www.kenney.nl)

mtllib pipe_ringHighEnd.mtl

g pipe_ringHighEnd

v 0.1732051 1.2 -0.5
v 0.2598076 1.05 -0.5
v 0.1732051 1.2 -0.25
v 0.3464102 0.9 -0.5
v 0.2598076 1.05 -0.25
v 0.3464102 0.9 -0.1
v 0.2598076 1.05 -0.1
v -0.2 0.05 -0.2
v -0.2 0.05 0.2
v -0.2 -4.904962E-09 -0.2
v -0.2 -1.289464E-10 0.2
v -0.3464103 0.9 -0.5
v -0.3464103 0.9 -0.1
v -0.1732051 0.6 -0.5
v -0.1732051 0.6 -0.1
v -0.0999999 0.1 -0.1
v 0.1 0.1 -0.1
v -0.0999999 0.2 -0.1
v 0.1 0.2 -0.1
v 0.2 -4.647069E-09 -0.2
v 0.2 0.05 -0.2
v 0.3464102 0.9 0.1
v 0.1732051 0.6 0.1
v 0.3464102 0.9 0.2
v 0.1732051 0.6 0.2
v -0.1732051 0.6 0.2
v -0.1732051 0.6 0.1
v 0.1154701 0.65 0.3
v -0.1154702 0.65 0.3
v 0.1154701 0.7 0.3
v -0.1154702 0.7 0.3
v -0.1732051 1.2 0.1
v -0.1732051 1.2 0.1999999
v -0.3464103 0.9 0.1
v -0.3464103 0.9 0.2
v 0.2 1.289463E-10 0.2
v 0.1 0.2 0.1
v 0.1 0.1 0.1
v -0.0999999 0.1 0.1
v -0.0999999 0.2 0.1
v 0.1732051 0.6 -0.5
v -0.1154702 0.7 -0.5
v -0.2309401 0.9 -0.5
v -0.2598076 1.05 -0.5
v -0.1154702 1.1 -0.5
v -0.1732051 1.2 -0.5
v 0 1.1 -0.5
v 0.1154701 1.1 -0.5
v 0.1154701 0.7 -0.5
v 0.2309401 0.9 -0.5
v 0 1.2 -0.5
v 0.1154701 0.7 0.2
v 0.1154701 0.65 0.2
v 0.1732051 1.2 0.1999999
v 0.1732051 1.2 0.1
v -0.1154702 0.7 0.2
v -0.1154702 0.65 0.2
v 0.2598076 1.05 0.1
v 0.2598076 1.05 0.2
v 0.2 0.05 0.2
v 0.2309401 0.9 0.2
v 0.1154701 1.1 0.2
v 0 1.1 0.2
v -0.1154702 1.1 0.2
v -0.2309401 0.9 0.2
v 0.1732051 0.6 -0.1
v -0.1732051 1.2 -0.25
v -0.2598076 1.05 -0.25
v -0.2598076 1.05 -0.1
v -0.2309401 0.5 -0.1
v -0.0999999 0.5 -0.1
v -0.4618802 0.9 -0.1
v 0.1 0.5 -0.1
v -0.3464103 1.1 -0.1
v -0.1732051 1.2 -0.1
v -0.2309401 1.3 -0.1
v 0.1732051 1.2 -0.1
v 0.4618802 0.9 -0.1
v 0.2309401 0.5 -0.1
v 0.3464102 1.1 -0.1
v 0.2309401 1.3 -0.1
v 0.2309401 0.5 0.1
v 0.1 0.5 0.1
v 0.4618802 0.9 0.1
v -0.0999999 0.5 0.1
v 0.3464102 1.1 0.1
v 0.2309401 1.3 0.1
v -0.4618802 0.9 0.1
v -0.2309401 0.5 0.1
v -0.3464103 1.1 0.1
v -0.2309401 1.3 0.1

vn 0.8660254 0.5 0
vn -1 0 0
vn -0.8660254 -0.5 0
vn 0 0 -1
vn 0.8660254 -0.5 0
vn 0 -1 0
vn 0 0 1
vn -0.8660254 0.5 0
vn 1 0 0
vn 0 0.8944272 -0.4472136
vn 0 1 0
vn -0.4472136 0.8944272 0
vn 0.4472136 0.8944272 0
vn 0 0.8944272 0.4472136

vt 19.68504 37.50504
vt 19.68504 30.68594
vt 9.842521 37.50504
vt 19.68504 23.86684
vt 9.84252 30.68594
vt 3.937008 23.86684
vt 3.937008 30.68594
vt -7.874016 1.968504
vt 7.874016 1.968504
vt -7.874016 -1.931087E-07
vt 7.874016 -5.076631E-09
vt -19.68504 37.50504
vt -3.937009 37.50504
vt -19.68504 23.86684
vt -3.937008 23.86684
vt 3.937008 3.937008
vt -3.937008 3.937008
vt 3.937008 7.874016
vt -3.937008 7.874016
vt 7.874016 -8.028946E-08
vt -7.874016 -7.01362E-08
vt -7.874016 1.968504
vt -3.937007 37.50504
vt -3.937007 23.86684
vt -7.874015 37.50504
vt -7.874015 23.86684
vt 6.819098 7.874016
vt 6.819098 3.937008
vt -6.819098 7.874016
vt -6.819098 3.937008
vt 4.546065 25.59055
vt -4.546065 25.59055
vt 4.546065 27.55906
vt -4.546065 27.55906
vt 3.937007 37.50504
vt 7.874015 37.50504
vt 3.937007 23.86684
vt 7.874015 23.86684
vt 7.874016 7.874016
vt 7.874016 -7.874016
vt -7.874016 7.874016
vt -7.874016 -7.874016
vt -3.937008 7.874016
vt -6.819098 23.62205
vt 6.819098 23.62205
vt 13.6382 35.43307
vt 9.092131 35.43307
vt 10.22865 41.33858
vt 4.546065 43.30709
vt 6.819098 47.24409
vt 7.188542E-13 43.30709
vt -4.546065 43.30709
vt -13.6382 35.43307
vt -9.092131 35.43307
vt -10.22865 41.33858
vt -6.819098 47.24409
vt 5.483239E-13 47.24409
vt -7.874015 27.55906
vt -7.874015 25.59055
vt -11.81102 27.55906
vt -11.81102 25.59055
vt -7.874016 -6.162392
vt -3.937008 -1.760683
vt 7.874016 -6.162392
vt 3.937008 -1.760683
vt 7.874015 27.55906
vt 11.81102 27.55906
vt 7.874015 25.59055
vt 11.81102 25.59055
vt -3.937007 30.68594
vt -7.874015 30.68594
vt -7.874016 -6.148626E-08
vt 7.874016 -5.133301E-08
vt 7.874016 1.968504
vt 7.874016 -2.03262E-07
vt -7.874016 -1.522989E-08
vt -8.790438E-10 43.30709
vt 4.546065 11.81102
vt 4.546065 7.874015
vt -4.546065 11.81102
vt -4.546065 7.874015
vt 6.819098 -3.937008
vt 6.819098 -19.68504
vt -6.819098 -3.937008
vt -6.819098 -19.68504
vt -9.842521 37.50504
vt -19.68504 30.68594
vt -9.84252 30.68594
vt -3.937008 30.68594
vt 3.937008 7.874016
vt 3.937009 37.50504
vt -6.819098 -9.84252
vt 6.819098 -9.84252
vt 1.705303E-12 -19.68504
vt 9.092131 19.68504
vt 3.937008 19.68504
vt 18.18426 35.43307
vt -3.937008 19.68504
vt 13.6382 43.30709
vt 9.092131 51.1811
vt -18.18426 35.43307
vt -9.092131 19.68504
vt -13.6382 43.30709
vt -9.092131 51.1811
vt 3.937009 39.77807
vt -3.937007 39.77807
vt 3.937008 21.59381
vt -3.937007 21.59381
vt -3.937008 -3.937008
vt -9.092131 3.937008
vt -9.092131 -3.937008
vt -3.937009 39.77807
vt 3.937007 39.77807
vt -3.937008 21.59381
vt 3.937007 21.59381
vt -3.937008 19.68504
vt 3.937008 19.68504
vt 9.092131 3.937008
vt 9.092131 -3.937008
vt 3.937008 -3.937008
vt 3.937007 30.68594
vt 3.937008 19.68504
vt -3.937008 19.68504
vt -4.546065 7.874016
vt -4.546065 -19.68504
vt 4.546065 -19.68504
vt 4.546065 7.874016
vt 19.68504 35.23201
vt 19.68504 26.13987
vt -7.874015 35.23201
vt -7.874015 26.13988
vt -1.136868E-13 7.874016
vt -1.875833E-12 -19.68504
vt -19.68504 35.23201
vt 7.874015 35.23201
vt -19.68504 26.13987
vt 7.874015 26.13988

usemtl metal

f 3/3/1 2/2/1 1/1/1
f 2/2/1 3/3/1 4/4/1
f 4/4/1 3/3/1 5/5/1
f 4/4/1 5/5/1 6/6/1
f 6/6/1 5/5/1 7/7/1
f 10/10/2 9/9/2 8/8/2
f 9/9/2 10/10/2 11/11/2
f 14/14/3 13/13/3 12/12/3
f 13/13/3 14/14/3 15/15/3
f 18/18/4 17/17/4 16/16/4
f 17/17/4 18/18/4 19/19/4
f 8/9/4 20/21/4 10/20/4
f 20/21/4 8/9/4 21/22/4
f 24/25/5 23/24/5 22/23/5
f 23/24/5 24/25/5 25/26/5
f 26/29/6 23/28/6 25/27/6
f 23/28/6 26/29/6 27/30/6
f 30/33/7 29/32/7 28/31/7
f 29/32/7 30/33/7 31/34/7
f 34/37/8 33/36/8 32/35/8
f 33/36/8 34/37/8 35/38/8
f 11/41/6 20/40/6 36/39/6
f 20/40/6 11/41/6 10/42/6
f 37/43/9 17/16/9 19/18/9
f 17/16/9 37/43/9 38/17/9
f 37/18/7 39/17/7 38/16/7
f 39/17/7 37/18/7 40/19/7
f 14/45/4 42/33/4 41/44/4
f 42/33/4 14/45/4 12/46/4
f 42/33/4 12/46/4 43/47/4
f 43/47/4 12/46/4 44/48/4
f 43/47/4 44/48/4 45/49/4
f 45/49/4 44/48/4 46/50/4
f 45/49/4 46/50/4 47/51/4
f 47/51/4 46/50/4 48/52/4
f 49/34/4 41/44/4 42/33/4
f 41/44/4 49/34/4 4/53/4
f 4/53/4 49/34/4 50/54/4
f 4/53/4 50/54/4 48/52/4
f 4/53/4 48/52/4 2/55/4
f 2/55/4 48/52/4 1/56/4
f 1/56/4 48/52/4 46/50/4
f 1/56/4 46/50/4 51/57/4
f 30/60/9 53/59/9 52/58/9
f 53/59/9 30/60/9 28/61/9
f 8/64/10 17/63/10 21/62/10
f 17/63/10 8/64/10 16/65/10
f 55/30/11 33/27/11 54/29/11
f 33/27/11 55/30/11 32/28/11
f 16/63/12 9/64/12 39/65/12
f 9/64/12 16/63/12 8/62/12
f 57/68/2 31/67/2 56/66/2
f 31/67/2 57/68/2 29/69/2
f 54/25/1 58/70/1 55/23/1
f 58/70/1 54/25/1 22/24/1
f 22/24/1 54/25/1 59/71/1
f 22/24/1 59/71/1 24/26/1
f 17/65/13 60/62/13 21/64/13
f 60/62/13 17/65/13 38/63/13
f 36/73/7 9/8/7 11/72/7
f 9/8/7 36/73/7 60/74/7
f 38/65/14 9/62/14 60/64/14
f 9/62/14 38/65/14 39/63/14
f 60/22/9 20/75/9 21/74/9
f 20/75/9 60/22/9 36/76/9
f 27/37/3 35/36/3 34/35/3
f 35/36/3 27/37/3 26/38/3
f 25/45/7 53/31/7 26/44/7
f 53/31/7 25/45/7 24/46/7
f 53/31/7 24/46/7 52/33/7
f 52/33/7 24/46/7 61/47/7
f 61/47/7 24/46/7 62/49/7
f 62/49/7 24/46/7 59/48/7
f 62/49/7 59/48/7 54/50/7
f 62/49/7 54/50/7 63/77/7
f 63/77/7 54/50/7 64/52/7
f 57/32/7 26/44/7 53/31/7
f 26/44/7 57/32/7 35/53/7
f 35/53/7 57/32/7 56/34/7
f 35/53/7 56/34/7 65/54/7
f 35/53/7 65/54/7 33/56/7
f 33/56/7 65/54/7 64/52/7
f 33/56/7 64/52/7 54/50/7
f 29/80/6 53/79/6 28/78/6
f 53/79/6 29/80/6 57/81/6
f 15/84/6 41/83/6 66/82/6
f 41/83/6 15/84/6 14/85/6
f 44/87/8 67/86/8 46/12/8
f 67/86/8 44/87/8 12/14/8
f 67/86/8 12/14/8 68/88/8
f 68/88/8 12/14/8 13/15/8
f 68/88/8 13/15/8 69/89/8
f 16/17/2 40/90/2 18/19/2
f 40/90/2 16/17/2 39/16/2
f 6/91/5 41/4/5 4/1/5
f 41/4/5 6/91/5 66/6/5
f 1/85/11 67/93/11 3/92/11
f 67/93/11 1/85/11 51/94/11
f 67/93/11 51/94/11 46/83/11

usemtl metalRed

f 72/97/4 71/96/4 70/95/4
f 71/96/4 72/97/4 15/45/4
f 71/96/4 15/45/4 73/98/4
f 15/45/4 72/97/4 13/46/4
f 13/46/4 72/97/4 74/99/4
f 13/46/4 74/99/4 69/48/4
f 69/48/4 74/99/4 75/50/4
f 75/50/4 74/99/4 76/100/4
f 75/50/4 76/100/4 77/56/4
f 66/44/4 73/98/4 15/45/4
f 78/101/4 73/98/4 66/44/4
f 73/98/4 78/101/4 79/102/4
f 78/101/4 66/44/4 6/53/4
f 78/101/4 6/53/4 7/55/4
f 78/101/4 7/55/4 80/103/4
f 80/103/4 7/55/4 77/56/4
f 80/103/4 77/56/4 81/104/4
f 81/104/4 77/56/4 76/100/4
f 19/19/4 71/96/4 73/98/4
f 71/96/4 19/19/4 18/18/4
f 84/97/7 83/96/7 82/95/7
f 83/96/7 84/97/7 23/45/7
f 83/96/7 23/45/7 85/98/7
f 23/45/7 84/97/7 22/46/7
f 22/46/7 84/97/7 86/99/7
f 22/46/7 86/99/7 58/48/7
f 58/48/7 86/99/7 55/50/7
f 55/50/7 86/99/7 87/100/7
f 55/50/7 87/100/7 32/56/7
f 27/44/7 85/98/7 23/45/7
f 88/101/7 85/98/7 27/44/7
f 85/98/7 88/101/7 89/102/7
f 88/101/7 27/44/7 34/53/7
f 88/101/7 34/53/7 32/56/7
f 88/101/7 32/56/7 90/103/7
f 90/103/7 32/56/7 91/104/7
f 91/104/7 32/56/7 87/100/7
f 40/19/7 83/96/7 85/98/7
f 83/96/7 40/19/7 37/18/7
f 87/106/1 80/7/1 81/105/1
f 80/7/1 87/106/1 86/70/1
f 86/70/1 78/107/1 80/7/1
f 78/107/1 86/70/1 84/108/1
f 89/110/6 71/109/6 85/17/6
f 71/109/6 89/110/6 70/111/6
f 70/114/3 88/113/3 72/112/3
f 88/113/3 70/114/3 89/115/3
f 18/19/2 85/117/2 71/116/2
f 85/117/2 18/19/2 40/90/2
f 83/16/6 79/119/6 82/118/6
f 79/119/6 83/16/6 73/120/6
f 84/106/5 79/107/5 78/105/5
f 79/107/5 84/106/5 82/108/5
f 74/89/8 91/113/8 76/112/8
f 91/113/8 74/89/8 90/121/8
f 72/114/8 90/121/8 74/89/8
f 90/121/8 72/114/8 88/115/8
f 83/123/9 19/18/9 73/122/9
f 19/18/9 83/123/9 37/43/9
f 81/111/11 91/118/11 87/110/11
f 91/118/11 81/111/11 76/119/11

usemtl metalDark

f 52/124/11 31/78/11 30/80/11
f 31/78/11 52/124/11 49/125/11
f 31/78/11 49/125/11 42/126/11
f 31/78/11 42/126/11 56/127/11
f 65/130/1 42/129/1 43/128/1
f 42/129/1 65/130/1 56/131/1
f 64/130/5 43/129/5 45/128/5
f 43/129/5 64/130/5 65/131/5
f 64/124/6 47/133/6 63/132/6
f 47/133/6 64/124/6 45/125/6
f 48/126/6 63/132/6 47/133/6
f 63/132/6 48/126/6 62/127/6
f 49/136/8 61/135/8 50/134/8
f 61/135/8 49/136/8 52/137/8
f 50/136/3 62/135/3 48/134/3
f 62/135/3 50/136/3 61/137/3

usemtl _defaultMat

f 38/104/6 16/56/6 17/100/6
f 16/104/6 38/56/6 39/100/6
f 8/62/11 60/65/11 21/63/11
f 60/62/11 8/65/11 9/63/11

usemtl dark

f 3/92/11 75/82/11 77/84/11
f 75/82/11 3/92/11 67/93/11
f 77/91/1 5/5/1 3/3/1
f 5/5/1 77/91/1 7/7/1
f 68/88/8 75/13/8 67/86/8
f 75/13/8 68/88/8 69/89/8

