# Created by Kenney (www.kenney.nl)

mtllib pipe_entrance.mtl

g pipe_entrance

v 0.1732051 -7.450584E-09 0
v 0.1732051 -6.01778E-09 0.1
v -0.1732051 -7.450584E-09 0
v -0.1732051 -6.01778E-09 0.1
v -0.1732051 0.6 0
v -0.2598076 0.45 0
v -0.1732051 0.6 0.1
v -0.3464103 0.3 0
v -0.2598076 0.45 0.1
v -0.3464103 0.3 0.1
v 0.2309401 0.3 -0.5
v 0.2309401 0.3 0
v 0.1154701 0.09999998 -0.5
v 0.1154701 0.09999999 0
v -0.1154699 0.09999998 -0.5
v -0.1154702 0.09999999 0
v 0.3464102 0.3 0
v 0.3464102 0.3 0.1
v 0.1154701 0.5 -0.5
v 0.1154701 0.5 0
v -0.2309401 0.3 -0.5
v -0.2309401 0.3 0
v -0.1154699 0.5 -0.5
v -0.1154702 0.5 0
v 0 0.5 -0.5
v 0 0.5 0
v 0.1732051 0.6 0
v 0.1732051 0.6 0.1
v 0.2598076 0.45 0
v 0.2598076 0.45 0.1
v -0.3464103 0.3 -0.5
v -0.3464103 0.3 -0.1
v -0.1732051 -1.490117E-08 -0.5
v -0.1732051 -8.883388E-09 -0.1
v 0.2309401 -0.1 0.1
v 0.4618802 0.3 0.1
v 0.3464102 0.5 0.1
v 0.2309401 0.7 0.1
v -0.2309401 -0.1 0.1
v -0.4618802 0.3 0.1
v -0.3464103 0.5 0.1
v -0.2309401 0.7 0.1
v -0.2309401 0.7 -0.1
v -0.3464103 0.5 -0.1
v -0.4618802 0.3 -0.1
v 0.1732051 0.6 -0.5
v 0.1732051 0.6 -0.1
v 0 0.6 -0.5
v -0.1732051 0.6 -0.1
v -0.1732051 0.6 -0.5
v 0.3464102 0.3 -0.5
v 0.1732051 -1.490117E-08 -0.5
v 0.3464102 0.3 -0.1
v 0.1732051 -8.883388E-09 -0.1
v 0.2309401 0.7 -0.1
v 0.2309401 -0.1 -0.1
v -0.2309401 -0.1 -0.1
v 0.2598076 0.45 -0.5
v 0.2598076 0.45 -0.1
v 0.4618802 0.3 -0.1
v 0.3464102 0.5 -0.1
v -0.2598076 0.45 -0.5
v -0.2598076 0.45 -0.1

vn 0 1 0
vn 0.8660254 -0.5 0
vn -0.8660254 0.5 0
vn -0.8660254 -0.5 0
vn 0.8660254 0.5 0
vn 0 -1 0
vn 0 0 1
vn 0 0 -1

vt -6.819098 1.016128E-07
vt -6.819098 3.937008
vt 6.819098 -1.016119E-07
vt 6.819098 3.937008
vt 2.95586E-07 17.04774
vt 1.793822E-07 10.22865
vt -3.937008 17.04774
vt 6.317838E-08 3.409549
vt -3.937008 10.22865
vt -3.937008 3.409549
vt -19.68504 14.77471
vt -2.54219E-07 14.77471
vt -19.68504 5.682581
vt -9.777624E-08 5.682581
vt -4.546065 -19.68504
vt -4.546065 6.774204E-08
vt 4.546065 -19.68504
vt 4.546065 -6.77411E-08
vt -2.888169E-07 17.04774
vt 3.937008 17.04774
vt -5.640918E-08 3.409549
vt 3.937008 3.409549
vt -2.54219E-07 14.77471
vt -9.777627E-08 5.682581
vt 19.68504 14.77471
vt 19.68504 5.682581
vt 2.54219E-07 14.77471
vt 9.777626E-08 5.682581
vt 2.54219E-07 14.77471
vt 9.777627E-08 5.682581
vt 4.546065 -19.68504
vt 2.933292E-07 -19.68504
vt 4.546065 6.774204E-08
vt -3.027989E-13 4.859035E-13
vt -4.546065 -19.68504
vt -4.546065 -6.774107E-08
vt 6.819098 8.807447E-08
vt -6.819098 -1.151502E-07
vt 6.819098 3.937008
vt -6.819098 3.937008
vt -2.95586E-07 17.04774
vt -1.793822E-07 10.22865
vt -6.317832E-08 3.409549
vt 3.937008 10.22865
vt 2.888169E-07 17.04774
vt 5.640915E-08 3.409549
vt -19.68504 17.04774
vt -3.937008 17.04774
vt -19.68504 3.409548
vt -3.937008 3.409549
vt -6.819098 -2.933301E-07
vt 4.546065 3.937008
vt 6.819098 -2.933301E-07
vt 13.6382 11.81102
vt 9.092131 11.81102
vt 4.546065 19.68504
vt 10.22865 17.71654
vt 6.819098 23.62205
vt -3.027989E-13 19.68504
vt -4.546065 19.68504
vt -4.546065 3.937008
vt -13.6382 11.81102
vt -9.092131 11.81102
vt -10.22865 17.71654
vt -6.819098 23.62205
vt 9.092131 -3.937008
vt 18.18426 11.81102
vt 13.6382 19.68504
vt 9.092131 27.55906
vt -9.092131 -3.937008
vt -18.18426 11.81102
vt -13.6382 19.68504
vt -9.092131 27.55906
vt -3.937008 19.32078
vt 3.937007 19.32078
vt -3.937008 10.22865
vt -3.937008 1.136516
vt 3.937008 1.136516
vt -6.819098 -19.68504
vt -6.819098 -3.937008
vt -2.933293E-07 -19.68504
vt 6.819098 -3.937008
vt 6.819098 -19.68504
vt 19.68504 17.04774
vt 19.68504 3.409548
vt 3.937008 17.04774
vt 3.937008 3.409549
vt -9.092131 -3.937008
vt -9.09213 3.937008
vt 9.09213 -3.937008
vt 9.092131 3.937008
vt 9.092131 -3.937008
vt -9.09213 -3.937008
vt 9.09213 3.937008
vt -9.092131 3.937008
vt 6.819098 -19.68504
vt -6.819098 -19.68504
vt 6.819098 -3.937008
vt -6.819098 -3.937008
vt 19.68504 10.22865
vt 3.937008 10.22865
vt 3.937008 19.32078
vt 3.937008 1.136516
vt -3.937008 19.32078
vt -3.937008 1.136516
vt -3.937007 19.32078
vt -19.68504 10.22865
vt -6.819098 -2.933302E-07
vt 6.819098 -2.933302E-07
vt 3.766489E-13 19.68504
vt 2.069929E-13 23.62205
vt 6.819098 -2.935381E-07
vt -6.819098 -2.935381E-07
vt 3.937008 19.32078

usemtl metalDark

f 3/3/1 2/2/1 1/1/1
f 2/2/1 3/3/1 4/4/1
f 7/7/2 6/6/2 5/5/2
f 6/6/2 7/7/2 8/8/2
f 8/8/2 7/7/2 9/9/2
f 8/8/2 9/9/2 10/10/2
f 13/13/3 12/12/3 11/11/3
f 12/12/3 13/13/3 14/14/3
f 15/17/1 14/16/1 13/15/1
f 14/16/1 15/17/1 16/18/1
f 1/21/3 18/20/3 17/19/3
f 18/20/3 1/21/3 2/22/3
f 11/13/4 20/23/4 19/11/4
f 20/23/4 11/13/4 12/24/4
f 22/27/5 15/26/5 21/25/5
f 15/26/5 22/27/5 16/28/5
f 24/29/2 21/26/2 23/25/2
f 21/26/2 24/29/2 22/30/2
f 20/33/6 25/32/6 19/31/6
f 25/32/6 20/33/6 26/34/6
f 26/34/6 23/35/6 25/32/6
f 23/35/6 26/34/6 24/36/6
f 28/39/6 5/38/6 27/37/6
f 5/38/6 28/39/6 7/40/6
f 29/42/4 28/20/4 27/41/4
f 28/20/4 29/42/4 17/43/4
f 28/20/4 17/43/4 30/44/4
f 30/44/4 17/43/4 18/22/4
f 10/7/5 3/46/5 8/45/5
f 3/46/5 10/7/5 4/10/5

usemtl metal

f 33/49/4 32/48/4 31/47/4
f 32/48/4 33/49/4 34/50/4
f 1/53/7 14/52/7 3/51/7
f 14/52/7 1/53/7 17/54/7
f 14/52/7 17/54/7 12/55/7
f 12/55/7 17/54/7 20/56/7
f 20/56/7 17/54/7 29/57/7
f 20/56/7 29/57/7 27/58/7
f 20/56/7 27/58/7 26/59/7
f 26/59/7 27/58/7 24/60/7
f 16/61/7 3/51/7 14/52/7
f 3/51/7 16/61/7 8/62/7
f 8/62/7 16/61/7 22/63/7
f 8/62/7 22/63/7 6/64/7
f 6/64/7 22/63/7 24/60/7
f 6/64/7 24/60/7 5/65/7
f 5/65/7 24/60/7 27/58/7
f 36/67/7 2/53/7 35/66/7
f 2/53/7 36/67/7 18/54/7
f 18/54/7 36/67/7 30/57/7
f 30/57/7 36/67/7 37/68/7
f 30/57/7 37/68/7 28/58/7
f 28/58/7 37/68/7 38/69/7
f 28/58/7 38/69/7 7/65/7
f 4/51/7 35/66/7 2/53/7
f 4/51/7 39/70/7 35/66/7
f 39/70/7 4/51/7 40/71/7
f 40/71/7 4/51/7 10/62/7
f 40/71/7 10/62/7 9/64/7
f 40/71/7 9/64/7 41/72/7
f 41/72/7 9/64/7 7/65/7
f 41/72/7 7/65/7 42/73/7
f 42/73/7 7/65/7 38/69/7
f 44/76/3 42/75/3 43/74/3
f 42/75/3 44/76/3 41/44/3
f 45/77/3 41/44/3 44/76/3
f 41/44/3 45/77/3 40/78/3
f 48/81/1 47/80/1 46/79/1
f 47/80/1 48/81/1 49/82/1
f 49/82/1 48/81/1 50/83/1
f 53/86/2 52/85/2 51/84/2
f 52/85/2 53/86/2 54/87/2
f 43/90/1 38/89/1 55/88/1
f 38/89/1 43/90/1 42/91/1
f 35/94/6 57/93/6 56/92/6
f 57/93/6 35/94/6 39/95/6
f 54/98/6 33/97/6 52/96/6
f 33/97/6 54/98/6 34/99/6
f 47/86/5 58/100/5 46/84/5
f 58/100/5 47/86/5 51/85/5
f 51/85/5 47/86/5 59/101/5
f 51/85/5 59/101/5 53/87/5
f 36/104/2 56/103/2 60/102/2
f 56/103/2 36/104/2 35/105/2
f 37/9/5 60/103/5 61/101/5
f 60/103/5 37/9/5 36/105/5
f 61/101/5 38/106/5 37/9/5
f 38/106/5 61/101/5 55/102/5
f 62/107/3 49/48/3 50/47/3
f 49/48/3 62/107/3 31/49/3
f 49/48/3 31/49/3 63/76/3
f 63/76/3 31/49/3 32/50/3
f 33/109/8 15/52/8 52/108/8
f 15/52/8 33/109/8 31/54/8
f 52/108/8 15/52/8 13/61/8
f 15/52/8 31/54/8 21/55/8
f 21/55/8 31/54/8 62/57/8
f 21/55/8 62/57/8 23/56/8
f 23/56/8 62/57/8 50/58/8
f 23/56/8 50/58/8 25/110/8
f 25/110/8 50/58/8 19/60/8
f 13/61/8 51/62/8 52/108/8
f 51/62/8 13/61/8 11/63/8
f 51/62/8 11/63/8 19/60/8
f 51/62/8 19/60/8 58/64/8
f 58/64/8 19/60/8 46/65/8
f 46/65/8 19/60/8 50/58/8
f 46/65/8 50/58/8 48/111/8
f 57/66/8 34/112/8 56/70/8
f 34/112/8 57/66/8 45/67/8
f 34/112/8 45/67/8 32/54/8
f 32/54/8 45/67/8 44/68/8
f 32/54/8 44/68/8 63/57/8
f 63/57/8 44/68/8 49/58/8
f 49/58/8 44/68/8 43/69/8
f 49/58/8 43/69/8 47/65/8
f 54/113/8 56/70/8 34/112/8
f 56/70/8 54/113/8 60/71/8
f 60/71/8 54/113/8 53/62/8
f 60/71/8 53/62/8 59/64/8
f 60/71/8 59/64/8 61/72/8
f 61/72/8 59/64/8 47/65/8
f 61/72/8 47/65/8 55/73/8
f 55/73/8 47/65/8 43/69/8
f 57/77/4 40/114/4 45/74/4
f 40/114/4 57/77/4 39/78/4

