# Created by Kenney (www.kenney.nl)

mtllib pipe_cross.mtl

g pipe_cross

v -0.1732051 0.6 0.173205
v -0.1732051 0.6 0.25
v -0.2598076 0.45 0.2598076
v 0.25 0.6 0.1732051
v 0.2598076 0.45 0.2598076
v 0.1732051 0.6 0.1732051
v 0.2598076 0.45 -0.2598076
v 0.25 0.6 -0.1732051
v 0.1732051 0.6 -0.173205
v -0.25 0.6 -0.1732051
v -0.2598076 0.45 -0.2598076
v -0.1732051 0.6 -0.1732051
v 0.1732051 0.6 0.25
v -0.1732051 0.6 -0.25
v 0.1732051 0.6 -0.25
v -0.25 0.6 0.1732051
v 0.5 0.1 -0.1154701
v 0.1154701 0.1 -0.1154701
v 0.5 0.3 -0.2309401
v 0.2309401 0.3 -0.2309401
v 0.1154701 0.1 0.1154701
v 0.2309401 0.3 0.2309401
v 0.1154701 0.1 0.5
v 0.2309401 0.3 0.5
v 0.1154701 0.5 -0.1154701
v 0.5 0.5 -0.1154701
v 0.5 0.1 0.1154701
v -0.1154702 0.1 0.5
v 0.1154701 0.1 -0.5
v -0.1154699 0.1 -0.1154701
v -0.1154702 0.1 -0.5
v -0.1154702 0.1 0.1154701
v -0.5 0.1 -0.1154701
v -0.5 0.1 0.1154701
v 0.5 0.3 0.2309401
v 0.5 0.5 0.1154701
v 0.1154701 0.5 0.1154701
v 0.2309401 0.3 -0.5
v 0.1154701 0.5 0.5
v -0.2309401 0.3 0.2309401
v -0.1154702 0.5 0.1154701
v -0.5 0.3 0.2309401
v -0.5 0.5 0.1154701
v -0.5 0.3 -0.2309401
v -0.2309401 0.3 -0.2309401
v -0.5 0.5 -0.1154701
v -0.1154699 0.5 -0.1154701
v -0.1154702 0.5 0.5
v 0.1154701 0.5 -0.5
v -0.1154702 0.5 -0.5
v -0.2309401 0.3 0.5
v -0.2309401 0.3 -0.5
v 0.5 1.490117E-08 0.1732051
v 0.1732051 1.733598E-08 0.1732051
v 0.5 0.3 0.3464102
v 0.3464102 0.3 0.3464102
v 0.1732051 1.490117E-08 0.5
v 0.3464102 0.3 0.5
v 0.5 0.45 -0.2598076
v 0.5 0.6 -0.1732051
v 0.5 0.6 0
v 0.5 0.6 0.1732051
v 0.5 0.45 0.2598076
v 0.5 1.490117E-08 -0.1732051
v 0.5 0.3 -0.3464102
v 0.3464102 0.3 -0.5
v 0.1732051 0 -0.5
v 0.3464102 0.3 -0.3464102
v 0.1732051 1.475502E-08 -0.173205
v -0.5 0.3 -0.3464102
v -0.5 0.45 -0.2598076
v -0.5 1.490117E-08 -0.1732051
v -0.5 1.490117E-08 0.173205
v -0.5 0.3 0.3464102
v -0.5 0.45 0.2598076
v -0.5 0.6 -0.1732051
v -0.5 0.6 0
v -0.5 0.6 0.173205
v -0.1732051 1.490117E-08 0.5
v -0.1732051 1.733598E-08 -0.1732051
v -0.1732051 1.475502E-08 0.173205
v -0.1732051 0 -0.5
v 0.1732051 0.6 0.5
v 0.2598076 0.45 0.5
v 0.1732051 0.6 -0.5
v 0.2598076 0.45 -0.5
v -0.3464103 0.3 -0.5
v -0.3464103 0.3 -0.3464102
v 0 0.6 -0.5
v -0.1732051 0.6 -0.5
v -0.1732051 0.6 0.5
v -0.3464103 0.3 0.3464102
v -0.3464103 0.3 0.5
v -0.2598076 0.45 0.5
v 0 0.6 0.5
v -0.2598076 0.45 -0.5

vn -0.8660254 0.5 0
vn 0 0.5000001 0.8660254
vn 0 0.5 -0.8660254
vn 0 0.5000001 -0.8660254
vn 0 1 0
vn 0.8660254 0.5000001 0
vn 0 0.5 0.8660254
vn 0 0.5 0.8660254
vn 0.8660254 0.5 0
vn 0 -0.5 0.8660254
vn 0 0.5 -0.8660254
vn 0 -0.5 -0.8660254
vn -0.8660254 -0.5 0
vn 0 -1 0
vn 0.8660254 -0.5 0
vn 0.8660254 0.5 0
vn 1 0 0
vn -1 0 0
vn -0.8660254 -0.5 0
vn 0 0 1
vn 0 0 -1

vt 6.819097 17.04774
vt 9.84252 17.04774
vt 10.22865 10.22865
vt 9.842518 17.04774
vt 10.22864 10.22865
vt 6.819096 17.04774
vt -10.22865 10.22865
vt -9.84252 17.04775
vt -6.819098 17.04775
vt 6.819097 17.04774
vt -9.84252 -6.819098
vt -9.84252 6.819098
vt -6.819098 -6.819097
vt -6.819098 6.819098
vt 6.819098 9.84252
vt -6.819098 9.84252
vt 6.819098 -6.819098
vt 6.819098 -9.84252
vt -6.819098 -9.84252
vt 6.819098 6.819097
vt 9.842519 -6.819098
vt 9.84252 6.819098
vt 9.842519 17.04774
vt -10.22865 10.22865
vt -9.84252 17.04774
vt -6.819098 17.04774
vt -6.819098 17.04775
vt -6.819098 17.04774
vt 19.68504 5.682581
vt 4.546065 5.682581
vt 19.68504 14.77471
vt 9.092131 14.77471
vt 4.546066 5.682582
vt 19.68504 5.682582
vt 9.092131 5.682582
vt 4.546065 14.77471
vt 19.68504 5.682582
vt 19.68504 14.77471
vt -19.68504 4.546065
vt -4.546065 4.546066
vt -19.68504 -4.546065
vt -4.546065 -4.546064
vt 4.546065 19.68504
vt -4.546065 19.68504
vt -4.546065 -19.68504
vt 4.546065 -4.546066
vt 4.546065 -19.68504
vt 4.546065 4.546064
vt 19.68504 -4.546066
vt 19.68504 4.546064
vt -19.68504 5.682582
vt -19.68504 14.77471
vt -4.546065 5.682582
vt -9.09213 14.77471
vt -19.68504 5.682581
vt -19.68504 14.77471
vt -9.09213 5.682581
vt -4.546065 14.77471
vt -9.09213 14.77471
vt -19.68504 5.682581
vt -4.546064 5.682582
vt 4.546066 14.77471
vt 9.092131 5.682582
vt 4.546065 14.77471
vt 19.68504 4.546065
vt 19.68504 -4.546065
vt 4.546065 4.546066
vt 4.546065 -4.546064
vt -4.546065 19.68504
vt 4.546065 19.68504
vt 4.546065 -19.68504
vt -4.546065 -4.546066
vt -4.546065 4.546065
vt -19.68504 -4.546065
vt -19.68504 4.546065
vt -4.546065 -19.68504
vt -4.546064 14.77471
vt -9.09213 5.682582
vt -19.68504 5.682582
vt -4.546064 14.77471
vt 4.546065 5.682581
vt 19.68504 14.77471
vt 19.68504 5.682581
vt 9.092132 14.77471
vt 4.546066 5.682582
vt 19.68504 3.40955
vt 6.819097 3.40955
vt 19.68504 17.04774
vt 13.6382 17.04774
vt -6.819098 3.409549
vt -19.68504 3.409549
vt -13.6382 17.04774
vt -19.68504 17.04774
vt 10.22865 17.71654
vt 9.09213 11.81102
vt 6.819097 23.62205
vt 4.546064 19.68504
vt -7.626588E-07 23.62205
vt -4.546066 19.68504
vt -6.819098 23.62205
vt -9.092131 11.81102
vt -10.22865 17.71654
vt -13.6382 11.81102
vt -6.819098 7.333253E-07
vt -4.546066 3.937009
vt 4.546064 3.937009
vt 6.819097 7.333253E-07
vt 13.6382 11.81102
vt 19.68504 17.04774
vt 19.68504 3.409549
vt 6.819098 3.409549
vt -7.626589E-07 23.62205
vt 19.68504 6.819098
vt 19.68504 -6.819098
vt 6.819098 6.819098
vt 6.819098 -6.819097
vt -6.819098 19.68504
vt 6.819098 19.68504
vt 6.819098 -19.68504
vt -6.819098 -6.819098
vt -6.819098 6.819097
vt -19.68504 -6.819098
vt -19.68504 6.819097
vt -6.819098 -19.68504
vt -6.819098 3.409549
vt -19.68504 3.409549
vt -13.6382 17.04774
vt -19.68504 6.819098
vt -19.68504 1.759973E-07
vt -19.68504 -6.819098
vt -13.6382 3.409549
vt -19.68504 10.22865
vt -19.68504 3.409549
vt 19.68504 10.22865
vt 13.6382 3.409549
vt 19.68504 3.409549
vt -13.6382 3.40955
vt -19.68504 3.40955
vt -19.68504 17.04774
vt -13.6382 17.04774
vt -19.68504 3.409548
vt -6.819099 3.409549
vt -6.819098 -19.68504
vt 2.174651E-07 -19.68504
vt 6.819098 -19.68504
vt 19.68504 3.409549
vt 19.68504 10.22865
vt -6.819098 2.933301E-07
vt 4.546065 3.937008
vt 6.819098 2.933301E-07
vt 13.6382 11.81102
vt 9.09213 11.81102
vt 10.22865 17.71654
vt 6.819098 23.62205
vt -4.546065 3.937008
vt -13.6382 11.81102
vt -9.092131 11.81102
vt -10.22865 17.71654
vt -6.819098 23.62205
vt -2.174644E-07 23.62205
vt -6.819098 2.933301E-07
vt 4.546065 3.937008
vt 6.819098 2.933301E-07
vt 13.6382 11.81102
vt -4.546065 3.937008
vt 9.092131 11.81102
vt 6.819098 23.62205
vt -13.6382 11.81102
vt -9.09213 11.81102
vt -6.819098 23.62205
vt 2.174644E-07 23.62205
vt 19.68504 -6.819098
vt 19.68504 -5.908307E-07
vt 19.68504 6.819097
vt 6.819098 3.40955
vt 6.819097 3.409549
vt 19.68504 3.409549
vt -13.6382 3.40955
vt -6.819098 3.409549
vt -6.819098 19.68504
vt 2.174637E-07 19.68504
vt 6.819098 19.68504
vt -19.68504 10.22865
vt -19.68504 3.409549

usemtl dark

f 3/3/1 2/2/1 1/1/1
f 6/6/2 5/5/2 4/4/2
f 9/9/3 8/8/3 7/7/3
f 12/10/4 11/5/4 10/4/4
f 9/13/5 4/12/5 8/11/5
f 4/12/5 9/13/5 6/14/5
f 2/15/5 6/14/5 9/13/5
f 6/14/5 2/15/5 13/16/5
f 2/15/5 9/13/5 12/17/5
f 9/13/5 14/18/5 12/17/5
f 14/18/5 9/13/5 15/19/5
f 2/15/5 12/17/5 1/20/5
f 10/21/5 1/20/5 12/17/5
f 1/20/5 10/21/5 16/22/5
f 9/10/6 7/3/6 15/23/6
f 12/26/1 14/25/1 11/24/1
f 1/27/8 16/25/7 3/24/7
f 5/24/9 6/28/9 13/25/9

usemtl metalDark

f 19/31/7 18/30/7 17/29/7
f 18/30/7 19/31/7 20/32/7
f 23/34/1 22/32/1 21/33/1
f 22/32/1 23/34/1 24/31/1
f 19/37/10 25/36/10 20/35/10
f 25/36/10 19/37/10 26/38/10
f 17/41/5 21/40/5 27/39/5
f 21/40/5 17/41/5 18/42/5
f 28/43/5 21/40/5 18/42/5
f 21/40/5 28/43/5 23/44/5
f 28/43/5 18/42/5 29/45/5
f 28/43/5 29/45/5 30/46/5
f 31/47/5 30/46/5 29/45/5
f 28/43/5 30/46/5 32/48/5
f 33/49/5 32/48/5 30/46/5
f 32/48/5 33/49/5 34/50/5
f 21/53/11 35/52/11 27/51/11
f 35/52/11 21/53/11 22/54/11
f 22/57/12 36/56/12 35/55/12
f 36/56/12 22/57/12 37/58/12
f 29/60/1 20/59/1 38/56/1
f 20/59/1 29/60/1 18/61/1
f 22/63/13 39/38/13 37/62/13
f 39/38/13 22/63/13 24/34/13
f 42/37/12 41/64/12 40/35/12
f 41/64/12 42/37/12 43/38/12
f 30/53/7 44/52/7 33/51/7
f 44/52/7 30/53/7 45/54/7
f 45/57/10 46/56/10 44/55/10
f 46/56/10 45/57/10 47/58/10
f 37/67/14 26/66/14 36/65/14
f 26/66/14 37/67/14 25/68/14
f 37/67/14 48/69/14 25/68/14
f 48/69/14 37/67/14 39/70/14
f 25/68/14 48/69/14 49/71/14
f 49/71/14 48/69/14 47/72/14
f 47/72/14 48/69/14 41/73/14
f 41/73/14 46/74/14 47/72/14
f 46/74/14 41/73/14 43/75/14
f 50/76/14 49/71/14 47/72/14
f 38/60/13 25/77/13 49/56/13
f 25/77/13 38/60/13 20/78/13
f 40/54/9 28/79/9 32/61/9
f 28/79/9 40/54/9 51/52/9
f 48/56/15 40/78/15 41/80/15
f 40/78/15 48/56/15 51/79/15
f 42/31/11 32/81/11 34/29/11
f 32/81/11 42/31/11 40/32/11
f 47/62/15 52/29/15 50/31/15
f 52/29/15 47/62/15 45/63/15
f 45/84/16 31/83/16 52/82/16
f 31/83/16 45/84/16 30/85/16

usemtl metal

f 55/88/10 54/87/10 53/86/10
f 54/87/10 55/88/10 56/89/10
f 56/92/15 57/91/15 54/90/15
f 57/91/15 56/92/15 58/93/15
f 60/96/17 19/95/17 59/94/17
f 19/95/17 60/96/17 26/97/17
f 26/97/17 60/96/17 61/98/17
f 26/97/17 61/98/17 36/99/17
f 36/99/17 61/98/17 62/100/17
f 36/99/17 62/100/17 35/101/17
f 35/101/17 62/100/17 63/102/17
f 55/103/17 35/101/17 63/102/17
f 53/104/17 35/101/17 55/103/17
f 53/104/17 27/105/17 35/101/17
f 53/104/17 17/106/17 27/105/17
f 64/107/17 19/95/17 17/106/17
f 64/107/17 17/106/17 53/104/17
f 59/94/17 64/107/17 65/108/17
f 64/107/17 59/94/17 19/95/17
f 68/89/15 67/110/15 66/109/15
f 67/110/15 68/89/15 69/111/15
f 72/104/18 71/102/18 70/103/18
f 71/102/18 72/104/18 44/101/18
f 44/101/18 72/104/18 33/105/18
f 33/105/18 72/104/18 73/107/18
f 33/105/18 73/107/18 34/106/18
f 34/106/18 73/107/18 42/95/18
f 42/95/18 73/107/18 74/108/18
f 42/95/18 74/108/18 75/94/18
f 44/101/18 76/100/18 71/102/18
f 76/100/18 44/101/18 46/99/18
f 76/100/18 46/99/18 77/112/18
f 77/112/18 46/99/18 43/97/18
f 77/112/18 43/97/18 78/96/18
f 78/96/18 43/97/18 42/95/18
f 78/96/18 42/95/18 75/94/18
f 54/115/14 64/114/14 53/113/14
f 64/114/14 54/115/14 69/116/14
f 54/115/14 79/117/14 69/116/14
f 79/117/14 54/115/14 57/118/14
f 69/116/14 79/117/14 67/119/14
f 67/119/14 79/117/14 80/120/14
f 80/120/14 79/117/14 81/121/14
f 81/121/14 72/122/14 80/120/14
f 72/122/14 81/121/14 73/123/14
f 82/124/14 67/119/14 80/120/14
f 68/127/12 64/126/12 69/125/12
f 64/126/12 68/127/12 65/93/12
f 61/129/5 4/12/5 62/128/5
f 4/12/5 61/129/5 60/130/5
f 4/12/5 60/130/5 8/11/5
f 83/93/9 5/24/9 13/25/9
f 5/24/9 83/93/9 56/131/9
f 56/131/9 83/93/9 84/132/9
f 56/131/9 84/132/9 58/133/9
f 15/23/6 86/134/9 85/88/9
f 86/134/9 15/23/6 66/110/9
f 66/110/9 15/23/6 68/135/9
f 68/135/9 15/23/6 7/3/6
f 63/134/7 56/135/7 55/136/7
f 56/135/7 63/134/7 5/5/2
f 5/5/2 63/134/7 62/88/7
f 5/5/2 62/88/7 4/4/2
f 7/7/3 65/138/11 68/137/11
f 65/138/11 7/7/3 59/132/11
f 59/132/11 7/7/3 8/8/3
f 59/132/11 8/8/3 60/93/11
f 82/141/19 88/140/19 87/139/19
f 88/140/19 82/141/19 80/142/19
f 85/143/5 14/18/5 15/19/5
f 14/18/5 85/143/5 89/144/5
f 14/18/5 89/144/5 90/145/5
f 3/3/1 91/88/1 2/2/1
f 91/88/1 3/3/1 92/135/1
f 91/88/1 92/135/1 93/146/1
f 91/88/1 93/146/1 94/147/1
f 71/134/11 88/135/11 70/136/11
f 88/135/11 71/134/11 11/5/4
f 11/5/4 71/134/11 76/88/11
f 11/5/4 76/88/11 10/4/4
f 57/150/20 23/149/20 79/148/20
f 23/149/20 57/150/20 58/151/20
f 23/149/20 58/151/20 24/152/20
f 24/152/20 58/151/20 39/70/20
f 39/70/20 58/151/20 84/153/20
f 39/70/20 84/153/20 83/154/20
f 39/70/20 83/154/20 48/69/20
f 28/155/20 79/148/20 23/149/20
f 79/148/20 28/155/20 93/156/20
f 93/156/20 28/155/20 51/157/20
f 93/156/20 51/157/20 94/158/20
f 94/158/20 51/157/20 48/69/20
f 94/158/20 48/69/20 91/159/20
f 91/159/20 48/69/20 83/154/20
f 91/159/20 83/154/20 95/160/20
f 82/163/21 31/162/21 67/161/21
f 31/162/21 82/163/21 87/164/21
f 67/161/21 31/162/21 29/165/21
f 31/162/21 87/164/21 52/166/21
f 52/166/21 87/164/21 96/153/21
f 52/166/21 96/153/21 50/43/21
f 50/43/21 96/153/21 90/167/21
f 50/43/21 90/167/21 49/44/21
f 29/165/21 66/168/21 67/161/21
f 66/168/21 29/165/21 38/169/21
f 66/168/21 38/169/21 49/44/21
f 66/168/21 49/44/21 86/158/21
f 86/158/21 49/44/21 85/170/21
f 85/170/21 49/44/21 90/167/21
f 85/170/21 90/167/21 89/171/21
f 76/172/5 16/22/5 10/21/5
f 16/22/5 76/172/5 77/173/5
f 16/22/5 77/173/5 78/174/5
f 70/88/12 80/175/12 72/86/12
f 80/175/12 70/88/12 88/89/12
f 79/177/13 92/89/13 81/176/13
f 92/89/13 79/177/13 93/88/13
f 3/24/7 74/138/7 92/178/7
f 74/138/7 3/24/7 75/132/7
f 75/132/7 3/24/7 16/25/7
f 75/132/7 16/25/7 78/93/7
f 92/92/10 73/126/10 81/179/10
f 73/126/10 92/92/10 74/93/10
f 13/16/5 95/181/5 83/180/5
f 95/181/5 13/16/5 2/15/5
f 95/181/5 2/15/5 91/182/5
f 96/183/1 14/25/1 90/93/1
f 14/25/1 96/183/1 87/184/1
f 14/25/1 87/184/1 88/178/1
f 14/25/1 88/178/1 11/24/1

