# Created by Kenney (www.kenney.nl)

mtllib pipe_end.mtl

g pipe_end

v 0.2309401 0.09999999 0
v 0.1154701 0.1 0.3811319
v 0.1154701 0.09999999 0
v 0.2309401 0.1 0.5
v -0.2309401 0.1 0.5
v -0.112072 0.1 0.3811319
v -0.1154702 0.09999999 0
v -0.2309401 0.09999999 0
v 0.2309401 0.3 0
v 0.3464102 0.3 0
v 0.1154701 0.5 0
v 0.2598076 0.45 0
v 0.1732051 0.6 0
v 0 0.5 0
v -0.1154702 0.5 0
v -0.1732051 0.6 0
v -0.2598076 0.45 0
v -0.2309401 0.3 0
v -0.3464103 0.3 0
v -0.1732051 0.6 -0.5
v -0.1732051 0.6 -0.25
v -0.2598076 0.45 -0.5
v -0.3464103 0.3 -0.5
v -0.2598076 0.45 -0.25
v 0.3464102 0.3 -0.5
v 0.1732051 -1.490117E-08 -0.5
v 0.1732051 -5.052242E-17 0.5
v -0.1154702 0.09999998 -0.5
v -0.1732051 -1.490117E-08 -0.5
v 0.1154701 0.09999998 -0.5
v -0.2309401 0.3 -0.5
v -0.1154702 0.5 -0.5
v 0 0.5 -0.5
v 0.1154701 0.5 -0.5
v 0.2309401 0.3 -0.5
v 0.2598076 0.45 -0.5
v 0.1732051 0.6 -0.5
v 0 0.6 -0.5
v -0.1732051 -5.052242E-17 0.5
v 0.1732051 0.6 -0.25
v 0.2598076 0.45 -0.25

vn 0 1 0
vn 0 0 1
vn -0.8660254 0.5 0
vn 0.8660254 -0.5 0
vn 0 0 -1
vn 0.8660254 0.5 0
vn 0 -1 0
vn -0.8660254 -0.5 0

vt -9.092131 -7.912249E-13
vt -4.546065 15.00519
vt -4.546065 -6.491164E-13
vt -9.092131 19.68504
vt 9.092131 19.68504
vt 4.412283 15.00519
vt 4.546065 4.582896E-15
vt 9.092131 2.888E-13
vt 4.546065 3.937008
vt 9.092131 11.81102
vt 9.092131 3.937008
vt 13.6382 11.81102
vt 4.546065 19.68504
vt 10.22865 17.71654
vt 6.819098 23.62205
vt -6.07514E-13 19.68504
vt -4.546065 19.68504
vt -6.819098 23.62205
vt -10.22865 17.71654
vt -9.092131 11.81102
vt -13.6382 11.81102
vt -9.092131 3.937008
vt -4.546065 3.937008
vt -19.68504 17.04774
vt -9.84252 17.04774
vt -19.68504 10.22865
vt -19.68504 3.409548
vt -9.84252 10.22865
vt -5.866645E-08 3.409549
vt -1.759985E-07 10.22865
vt 19.68504 17.04774
vt 19.68504 3.409548
vt 2.933305E-07 17.04774
vt 1.368875E-07 7.955614
vt -19.68504 3.409549
vt -19.68504 7.955614
vt -6.819098 -2.933302E-07
vt 6.819098 -2.933302E-07
vt 8.01019E-13 19.68504
vt 6.304888E-13 23.62205
vt 6.819098 -2.933297E-07
vt -6.819098 -2.933297E-07
vt 19.68504 10.22865
vt 9.84252 17.04774
vt 9.84252 10.22865
vt 5.866631E-08 3.409549
vt 1.759983E-07 10.22865
vt -6.819098 -9.84252
vt 6.819098 -9.84252
vt -6.819098 -19.68504
vt 2.099654E-12 -19.68504
vt 6.819098 -19.68504
vt 6.819098 19.68504
vt -6.819098 19.68504
vt -2.974424E-07 17.04774
vt -1.396291E-07 7.955614
vt 19.68504 3.409549
vt 19.68504 7.955614
vt 19.68504 14.77471
vt 19.68504 5.682581
vt 2.542198E-07 14.77471
vt 9.777702E-08 5.682581
vt -19.68504 14.77471
vt -2.542198E-07 14.77471
vt -19.68504 5.682581
vt -9.777703E-08 5.682581
vt -6.07514E-13 -3.099043E-13
vt -2.270184E-12 -19.68504
vt -4.546065 3.115617E-14
vt -4.546065 -19.68504
vt 4.546065 -19.68504
vt 4.546065 -6.509649E-13
vt 2.542197E-07 14.77471
vt 9.777705E-08 5.682581
vt -2.542198E-07 14.77471
vt -9.777708E-08 5.682581
vt 2.933303E-07 17.04774
vt -6.819098 -8.286005E-13
vt 6.819098 1.94581E-13
vt -2.933305E-07 17.04774

usemtl metal

f 3/3/1 2/2/1 1/1/1
f 2/2/1 4/4/1 1/1/1
f 4/4/1 2/2/1 5/5/1
f 5/5/1 2/2/1 6/6/1
f 5/5/1 6/6/1 7/7/1
f 5/5/1 7/7/1 8/8/1
f 1/11/2 9/10/2 3/9/2
f 9/10/2 1/11/2 10/12/2
f 9/10/2 10/12/2 11/13/2
f 11/13/2 10/12/2 12/14/2
f 11/13/2 12/14/2 13/15/2
f 11/13/2 13/15/2 14/16/2
f 14/16/2 13/15/2 15/17/2
f 16/18/2 15/17/2 13/15/2
f 17/19/2 15/17/2 16/18/2
f 17/19/2 18/20/2 15/17/2
f 19/21/2 18/20/2 17/19/2
f 8/22/2 18/20/2 19/21/2
f 18/20/2 8/22/2 7/23/2
f 22/26/3 21/25/3 20/24/3
f 21/25/3 22/26/3 23/27/3
f 21/25/3 23/27/3 24/28/3
f 24/28/3 23/27/3 19/29/3
f 24/28/3 19/29/3 17/30/3
f 10/33/4 26/32/4 25/31/4
f 26/32/4 10/33/4 1/34/4
f 26/32/4 1/34/4 27/35/4
f 27/35/4 1/34/4 4/36/4
f 29/38/5 28/9/5 26/37/5
f 28/9/5 29/38/5 23/12/5
f 26/37/5 28/9/5 30/23/5
f 28/9/5 23/12/5 31/10/5
f 31/10/5 23/12/5 22/14/5
f 31/10/5 22/14/5 32/13/5
f 32/13/5 22/14/5 20/15/5
f 32/13/5 20/15/5 33/39/5
f 33/39/5 20/15/5 34/17/5
f 30/23/5 25/21/5 26/37/5
f 25/21/5 30/23/5 35/20/5
f 25/21/5 35/20/5 34/17/5
f 25/21/5 34/17/5 36/19/5
f 36/19/5 34/17/5 37/18/5
f 37/18/5 34/17/5 20/15/5
f 37/18/5 20/15/5 38/40/5
f 4/11/2 39/42/2 27/41/2
f 39/42/2 4/11/2 5/22/2
f 40/44/6 36/43/6 37/31/6
f 36/43/6 40/44/6 25/32/6
f 25/32/6 40/44/6 41/45/6
f 25/32/6 41/45/6 10/46/6
f 10/46/6 41/45/6 12/47/6
f 37/50/1 21/49/1 40/48/1
f 21/49/1 37/50/1 38/51/1
f 21/49/1 38/51/1 20/52/1
f 39/54/7 26/52/7 27/53/7
f 26/52/7 39/54/7 29/50/7
f 29/27/8 19/55/8 23/24/8
f 19/55/8 29/27/8 8/56/8
f 8/56/8 29/27/8 39/57/8
f 8/56/8 39/57/8 5/58/8

usemtl metalDark

f 15/61/4 31/60/4 32/59/4
f 31/60/4 15/61/4 18/62/4
f 30/65/3 9/64/3 35/63/3
f 9/64/3 30/65/3 3/66/3
f 15/69/7 33/68/7 14/67/7
f 33/68/7 15/69/7 32/70/7
f 34/71/7 14/67/7 33/68/7
f 14/67/7 34/71/7 11/72/7
f 18/73/6 28/60/6 31/59/6
f 28/60/6 18/73/6 7/74/6
f 3/3/1 6/6/1 2/2/1
f 6/6/1 3/3/1 30/70/1
f 6/6/1 30/70/1 28/71/1
f 6/6/1 28/71/1 7/7/1
f 35/65/8 11/75/8 34/63/8
f 11/75/8 35/65/8 9/76/8

usemtl dark

f 13/77/6 41/45/6 40/44/6
f 41/45/6 13/77/6 12/47/6
f 40/48/1 16/79/1 13/78/1
f 16/79/1 40/48/1 21/49/1
f 24/28/3 16/80/3 21/25/3
f 16/80/3 24/28/3 17/30/3

