# Created by Kenney (www.kenney.nl)

mtllib pipe_straight.mtl

g pipe_straight

v 0.1732051 -1.490117E-08 -0.5
v -0.1154702 0.09999998 -0.5
v -0.1732051 -1.490117E-08 -0.5
v -0.3464103 0.3 -0.5
v 0.1154701 0.09999998 -0.5
v -0.2309401 0.3 -0.5
v -0.2598076 0.45 -0.5
v -0.1154702 0.5 -0.5
v -0.1732051 0.6 -0.5
v 0 0.5 -0.5
v 0.1154701 0.5 -0.5
v 0.3464102 0.3 -0.5
v 0.2309401 0.3 -0.5
v 0.2598076 0.45 -0.5
v 0.1732051 0.6 -0.5
v 0 0.6 -0.5
v 0.1732051 -5.052242E-17 0.5
v -0.1732051 -5.052242E-17 0.5
v 0.1154701 0.1 0.5
v 0.3464102 0.3 0.5
v 0.2309401 0.3 0.5
v 0.1154701 0.5 0.5
v 0.2598076 0.45 0.5
v 0.1732051 0.6 0.5
v 0 0.5 0.5
v -0.1154702 0.5 0.5
v -0.1154702 0.1 0.5
v -0.3464103 0.3 0.5
v -0.2309401 0.3 0.5
v -0.2598076 0.45 0.5
v -0.1732051 0.6 0.5
v 0 0.6 0.5
v -0.1732051 0.6 -0.25
v -0.2598076 0.45 -0.25
v -0.2598076 0.45 0.25
v -0.1732051 0.6 0.25
v 0.1732051 0.6 0.25
v 0.2598076 0.45 0.25
v 0.2598076 0.45 -0.25
v 0.1732051 0.6 -0.25

vn 0 0 -1
vn 0 -1 0
vn 0 0 1
vn -0.8660254 -0.5 0
vn -0.8660254 0.5 0
vn 0 1 0
vn 0.8660254 -0.5 0
vn 0.8660254 0.5 0

vt -6.819098 -2.933302E-07
vt 4.546065 3.937008
vt 6.819098 -2.933302E-07
vt 13.6382 11.81102
vt -4.546065 3.937008
vt 9.092131 11.81102
vt 10.22865 17.71654
vt 4.546065 19.68504
vt 6.819098 23.62205
vt 6.533742E-13 19.68504
vt -4.546065 19.68504
vt -13.6382 11.81102
vt -9.092131 11.81102
vt -10.22865 17.71654
vt -6.819098 23.62205
vt 4.82844E-13 23.62205
vt 6.819098 19.68504
vt 6.819098 -19.68504
vt -6.819098 19.68504
vt -6.819098 -19.68504
vt -6.819098 -2.933301E-07
vt 6.819098 -2.933301E-07
vt -5.36919E-13 19.68504
vt -4.232321E-13 23.62205
vt -19.68504 17.04774
vt 19.68504 17.04774
vt -19.68504 3.409548
vt 19.68504 3.409549
vt -9.84252 17.04774
vt -19.68504 10.22865
vt -9.84252 10.22865
vt 9.84252 10.22865
vt 19.68504 10.22865
vt 9.84252 17.04774
vt -2.842171E-13 19.68504
vt -6.819098 9.84252
vt 6.819098 9.84252
vt 19.68504 17.04774
vt 19.68504 3.409548
vt -19.68504 17.04774
vt -19.68504 3.409549
vt -9.84252 17.04774
vt 9.84252 17.04774
vt -6.819098 -9.84252
vt 6.819098 -9.84252
vt 1.193712E-12 -19.68504
vt 1.705303E-13 19.68504
vt -1.364242E-12 -19.68504
vt -4.546065 -19.68504
vt 4.546065 -19.68504
vt 19.68504 14.77471
vt 19.68504 5.682581
vt -19.68504 14.77471
vt -19.68504 5.682581
vt -19.68504 14.77471
vt 19.68504 14.77471
vt -19.68504 5.682581
vt 19.68504 5.682581

usemtl metal

f 3/3/1 2/2/1 1/1/1
f 2/2/1 3/3/1 4/4/1
f 1/1/1 2/2/1 5/5/1
f 2/2/1 4/4/1 6/6/1
f 6/6/1 4/4/1 7/7/1
f 6/6/1 7/7/1 8/8/1
f 8/8/1 7/7/1 9/9/1
f 8/8/1 9/9/1 10/10/1
f 10/10/1 9/9/1 11/11/1
f 5/5/1 12/12/1 1/1/1
f 12/12/1 5/5/1 13/13/1
f 12/12/1 13/13/1 11/11/1
f 12/12/1 11/11/1 14/14/1
f 14/14/1 11/11/1 15/15/1
f 15/15/1 11/11/1 9/9/1
f 15/15/1 9/9/1 16/16/1
f 18/19/2 1/18/2 17/17/2
f 1/18/2 18/19/2 3/20/2
f 17/22/3 19/2/3 18/21/3
f 19/2/3 17/22/3 20/4/3
f 19/2/3 20/4/3 21/6/3
f 21/6/3 20/4/3 22/8/3
f 22/8/3 20/4/3 23/7/3
f 22/8/3 23/7/3 24/9/3
f 22/8/3 24/9/3 25/23/3
f 25/23/3 24/9/3 26/11/3
f 27/5/3 18/21/3 19/2/3
f 18/21/3 27/5/3 28/12/3
f 28/12/3 27/5/3 29/13/3
f 28/12/3 29/13/3 30/14/3
f 30/14/3 29/13/3 26/11/3
f 30/14/3 26/11/3 31/15/3
f 31/15/3 26/11/3 24/9/3
f 31/15/3 24/9/3 32/24/3
f 3/27/4 28/26/4 4/25/4
f 28/26/4 3/27/4 18/28/4
f 7/30/5 33/29/5 9/25/5
f 33/29/5 7/30/5 4/27/5
f 33/29/5 4/27/5 34/31/5
f 34/31/5 4/27/5 28/28/5
f 34/31/5 28/28/5 35/32/5
f 35/32/5 28/28/5 31/26/5
f 31/26/5 28/28/5 30/33/5
f 31/26/5 36/34/5 35/32/5
f 37/36/6 32/35/6 24/19/6
f 32/35/6 37/36/6 36/37/6
f 32/35/6 36/37/6 31/17/6
f 20/40/7 1/39/7 12/38/7
f 1/39/7 20/40/7 17/41/7
f 24/40/8 38/31/8 37/42/8
f 23/30/8 38/31/8 24/40/8
f 20/41/8 38/31/8 23/30/8
f 20/41/8 39/32/8 38/31/8
f 12/39/8 39/32/8 20/41/8
f 12/39/8 40/43/8 39/32/8
f 14/33/8 40/43/8 12/39/8
f 40/43/8 14/33/8 15/38/8
f 15/20/6 33/45/6 40/44/6
f 33/45/6 15/20/6 16/46/6
f 33/45/6 16/46/6 9/18/6

usemtl metalDark

f 26/11/2 10/48/2 25/47/2
f 10/48/2 26/11/2 8/49/2
f 11/50/2 25/47/2 10/48/2
f 25/47/2 11/50/2 22/8/2
f 5/49/6 27/8/6 19/11/6
f 27/8/6 5/49/6 2/50/6
f 29/53/8 2/52/8 6/51/8
f 2/52/8 29/53/8 27/54/8
f 26/53/7 6/52/7 8/51/7
f 6/52/7 26/53/7 29/54/7
f 13/57/4 22/56/4 11/55/4
f 22/56/4 13/57/4 21/58/4
f 5/57/5 21/56/5 13/55/5
f 21/56/5 5/57/5 19/58/5

usemtl dark

f 34/31/5 36/34/5 33/29/5
f 36/34/5 34/31/5 35/32/5
f 40/44/6 36/37/6 37/36/6
f 36/37/6 40/44/6 33/45/6
f 37/42/8 39/32/8 40/43/8
f 39/32/8 37/42/8 38/31/8

