# Created by Kenney (www.kenney.nl)

mtllib platform_large.mtl

g platform_large

v 0.9 0.1 -1
v 0.9 0.1 -0.9000001
v -0.9000001 0.1 -1
v -0.9000001 0.1 -0.9000001
v -1 0.1 -0.9000001
v -0.9000001 0.1 0.9
v -0.9000001 0.1 1
v -1 0.1 0.9
v 0.9 0.1 1
v 1 0.1 0.9
v 1 0.1 -0.9000001
v 0.9 0.1 0.9
v 0.9 0 -1
v 1 0 -0.9000001
v -0.9000001 0 -1
v -1 0 -0.9000001
v -1 0 0.9
v -0.9000001 0 1
v 0.9 0 1
v 1 0 0.9
v 0.9 0 0.9
v -0.9000001 0 0.9
v -0.9000001 0 -0.9000001
v 0.9 0 -0.9000001
v 0.8 0.1 -0.8
v -0.8 0.1 -0.8
v -0.8 0.1 0.8
v 0.8 0.1 0.8
v 0.8 0.05 -0.8
v 0.8 0.05 0.8
v -0.8 0.05 -0.8
v -0.8 0.05 0.8
v 0.8 0 0.8
v -0.8 0 0.8
v -0.8 0 -0.8
v 0.8 0 -0.8

vn 0 1 0
vn 0.7071068 0 -0.7071068
vn 0 0 -1
vn -0.7071068 0 -0.7071068
vn -1 0 0
vn -0.7071068 0 0.7071068
vn 0 0 1
vn 0.7071068 0 0.7071068
vn 1 0 0
vn 0 -1 0

vt -35.43307 -39.37008
vt -35.43307 -35.43307
vt 35.43307 -39.37008
vt 35.43307 -35.43307
vt 39.37008 -35.43307
vt 35.43307 35.43307
vt 35.43307 39.37008
vt 39.37008 35.43307
vt -35.43307 39.37008
vt -39.37008 35.43307
vt -39.37008 -35.43307
vt -35.43307 35.43307
vt 2.783885 3.937008
vt 2.783885 0
vt -2.783885 3.937008
vt -2.783885 0
vt 35.43307 0
vt -35.43307 0
vt 35.43307 3.937008
vt -35.43307 3.937008
vt -31.49606 -31.49606
vt 31.49606 -31.49606
vt 31.49606 31.49606
vt -31.49606 31.49606
vt 31.49606 0
vt -31.49606 0
vt 31.49606 1.968504
vt -31.49606 1.968504
vt 31.49606 3.937008
vt -31.49606 3.937008

usemtl metalRed

f 3/3/1 2/2/1 1/1/1
f 2/2/1 3/3/1 4/4/1
f 4/4/1 3/3/1 5/5/1
f 4/4/1 5/5/1 6/6/1
f 6/6/1 5/5/1 7/7/1
f 7/7/1 5/5/1 8/8/1
f 9/9/1 1/1/1 2/2/1
f 9/9/1 6/6/1 7/7/1
f 10/10/1 1/1/1 9/9/1
f 1/1/1 10/10/1 11/11/1
f 9/9/1 2/2/1 12/12/1
f 9/9/1 12/12/1 6/6/1
f 11/15/2 13/14/2 1/13/2
f 13/14/2 11/15/2 14/16/2
f 3/19/3 13/18/3 15/17/3
f 13/18/3 3/19/3 1/20/3
f 16/14/4 3/15/4 15/16/4
f 3/15/4 16/14/4 5/13/4
f 17/17/5 5/20/5 16/18/5
f 5/20/5 17/17/5 8/19/5
f 18/14/6 8/15/6 17/16/6
f 8/15/6 18/14/6 7/13/6
f 9/19/7 18/18/7 19/17/7
f 18/18/7 9/19/7 7/20/7
f 9/15/8 20/14/8 10/13/8
f 20/14/8 9/15/8 19/16/8
f 10/20/9 14/17/9 11/19/9
f 14/17/9 10/20/9 20/18/9
f 18/9/10 21/6/10 19/7/10
f 21/6/10 18/9/10 22/12/10
f 22/12/10 18/9/10 17/10/10
f 22/12/10 17/10/10 23/2/10
f 23/2/10 17/10/10 15/1/10
f 15/1/10 17/10/10 16/11/10
f 13/3/10 19/7/10 21/6/10
f 13/3/10 23/2/10 15/1/10
f 14/5/10 19/7/10 13/3/10
f 19/7/10 14/5/10 20/8/10
f 13/3/10 21/6/10 24/4/10
f 13/3/10 24/4/10 23/2/10

usemtl metal

f 2/2/1 25/21/1 12/12/1
f 25/21/1 2/2/1 4/4/1
f 25/21/1 4/4/1 26/22/1
f 26/22/1 4/4/1 27/23/1
f 28/24/1 12/12/1 25/21/1
f 12/12/1 28/24/1 6/6/1
f 6/6/1 28/24/1 27/23/1
f 6/6/1 27/23/1 4/4/1
f 31/22/1 30/24/1 29/21/1
f 30/24/1 31/22/1 32/23/1
f 29/21/10 30/24/10 31/22/10
f 32/23/10 31/22/10 30/24/10
f 21/6/10 33/23/10 24/4/10
f 33/23/10 21/6/10 22/12/10
f 33/23/10 22/12/10 34/24/10
f 34/24/10 22/12/10 35/21/10
f 36/22/10 24/4/10 33/23/10
f 24/4/10 36/22/10 23/2/10
f 23/2/10 36/22/10 35/21/10
f 23/2/10 35/21/10 22/12/10

usemtl metalDark

f 29/27/7 35/26/7 36/25/7
f 35/26/7 29/27/7 31/28/7
f 25/29/7 31/28/7 29/27/7
f 31/28/7 25/29/7 26/30/7
f 32/28/9 35/25/9 31/27/9
f 35/25/9 32/28/9 34/26/9
f 31/27/9 27/30/9 32/28/9
f 27/30/9 31/27/9 26/29/9
f 32/27/3 33/26/3 34/25/3
f 33/26/3 32/27/3 30/28/3
f 27/29/3 30/28/3 32/27/3
f 30/28/3 27/29/3 28/30/3
f 33/25/5 29/28/5 36/26/5
f 29/28/5 33/25/5 30/27/5
f 30/27/5 25/30/5 29/28/5
f 25/30/5 30/27/5 28/29/5

