# Created by Kenney (www.kenney.nl)

mtllib platform_cornerRound.mtl

g platform_cornerRound

v 0.5 0 -0.4
v 0.5 0 -0.5
v 0.3825264 0 -0.3923004
v 0.3694738 0 -0.4914448
v 0.2670629 0 -0.3693333
v 0.2411809 0 -0.4659258
v 0.1555849 0 -0.3314916
v 0.1173166 0 -0.4238795
v 0.04999995 0 -0.2794229
v 0 0 -0.3660254
v -0.04788518 0 -0.214018
v -0.1087613 0 -0.2933533
v -0.1363962 0 -0.1363962
v -0.2071068 0 -0.2071068
v -0.2140181 0 -0.0478853
v -0.2933533 0 -0.1087614
v -0.2794228 0 0.04999995
v -0.3314915 0 0.1555849
v -0.3660254 0 0
v -0.3693333 0 0.2670629
v -0.4238796 0 0.1173166
v -0.3923004 0 0.3825264
v -0.4000001 0 0.5
v -0.5 1.127987E-17 0.5
v -0.4659257 0 0.2411809
v -0.4914448 0 0.3694738
v 0.5 0.1 0.4
v 0.5 0.1 0.5
v 0.4869473 0.1 0.4008555
v 0.4 0.1 0.5
v 0.4741181 0.1 0.4034075
v 0.4617317 0.1 0.4076121
v 0.45 0.1 0.4133974
v 0.4391239 0.1 0.4206647
v 0.4292893 0.1 0.4292893
v 0.4206647 0.1 0.4391239
v 0.4133974 0.1 0.45
v 0.4076121 0.1 0.4617317
v 0.4034075 0.1 0.4741181
v 0.4008555 0.1 0.4869473
v 0.5 0 0.4
v 0.5 0 0.5
v 0.4 0 0.5
v 0.5 0.1 -0.5
v 0.5 0.1 -0.4
v 0.3694738 0.1 -0.4914448
v 0.3825264 0.1 -0.3923004
v 0.2670629 0.1 -0.3693333
v 0.2411809 0.1 -0.4659258
v 0.1555849 0.1 -0.3314916
v 0.1173166 0.1 -0.4238795
v 0.04999995 0.1 -0.2794229
v 0 0.1 -0.3660254
v -0.04788518 0.1 -0.214018
v -0.1087613 0.1 -0.2933533
v -0.1363962 0.1 -0.1363962
v -0.2071068 0.1 -0.2071068
v -0.2140181 0.1 -0.0478853
v -0.2933533 0.1 -0.1087614
v -0.2794228 0.1 0.04999995
v -0.3314915 0.1 0.1555849
v -0.3660254 0.1 0
v -0.3693333 0.1 0.2670629
v -0.4238796 0.1 0.1173166
v -0.3923004 0.1 0.3825264
v -0.4000001 0.1 0.5
v -0.5 0.1 0.5
v -0.4659257 0.1 0.2411809
v -0.4914448 0.1 0.3694738
v 0.4869473 0 0.4008555
v 0.4741181 0 0.4034075
v 0.4617317 0 0.4076121
v 0.45 0 0.4133974
v 0.4391239 0 0.4206647
v 0.4292893 0 0.4292893
v 0.4206647 0 0.4391239
v 0.4133974 0 0.45
v 0.4076121 0 0.4617317
v 0.4034075 0 0.4741181
v 0.4008555 0 0.4869473
v 0.5 0 -0.3
v 0.3955791 0 -0.2931559
v 0.2929448 0 -0.2727406
v 0.1938533 0 -0.2391036
v 0.1 0 -0.1928203
v 0.01299083 0 -0.1346827
v -0.06568551 0 -0.06568539
v -0.1346827 0 0.01299083
v -0.1928203 0 0.1
v -0.2391036 0 0.1938533
v -0.2727406 0 0.2929448
v -0.2931559 0 0.3955791
v -0.3 0 0.5
v 0.5 0.1 0.3
v 0.4738948 0.1 0.3017111
v 0.4482362 0.1 0.3068148
v 0.4234633 0.1 0.3152241
v 0.4 0.1 0.3267949
v 0.3782477 0.1 0.3413293
v 0.3 0.1 0.5
v 0.3585787 0.1 0.3585787
v 0.3413293 0.1 0.3782477
v 0.3267949 0.1 0.4
v 0.3152241 0.1 0.4234633
v 0.3068148 0.1 0.4482362
v 0.3017111 0.1 0.4738948
v 0.5 0.1 -0.3
v 0.3955791 0.1 -0.2931559
v 0.2929448 0.1 -0.2727406
v 0.1938533 0.1 -0.2391036
v 0.1 0.1 -0.1928203
v 0.01299083 0.1 -0.1346827
v -0.06568551 0.1 -0.06568539
v -0.1346827 0.1 0.01299083
v -0.1928203 0.1 0.1
v -0.2391036 0.1 0.1938533
v -0.2727406 0.1 0.2929448
v -0.2931559 0.1 0.3955791
v -0.3 0.1 0.5
v 0.5 0 0.3
v 0.4738948 0 0.3017111
v 0.4482362 0 0.3068148
v 0.4234633 0 0.3152241
v 0.4 0 0.3267949
v 0.3782477 0 0.3413293
v 0.3 0 0.5
v 0.3585787 0 0.3585787
v 0.3413293 0 0.3782477
v 0.3267949 0 0.4
v 0.3152241 0 0.4234633
v 0.3068148 0 0.4482362
v 0.3017111 0 0.4738948
v 0.5 0.05 -0.3
v 0.5 0.05 0.3
v 0.3955791 0.05 -0.2931559
v 0.4738948 0.05 0.3017111
v 0.4482362 0.05 0.3068148
v 0.4234633 0.05 0.3152241
v 0.4 0.05 0.3267949
v 0.3782477 0.05 0.3413293
v 0.2929448 0.05 -0.2727406
v 0.3585787 0.05 0.3585787
v 0.3413293 0.05 0.3782477
v 0.3267949 0.05 0.4
v 0.3152241 0.05 0.4234633
v 0.3068148 0.05 0.4482362
v 0.3017111 0.05 0.4738948
v 0.3 0.05 0.5
v -0.3 0.05 0.5
v 0.1938533 0.05 -0.2391036
v 0.1 0.05 -0.1928203
v 0.01299083 0.05 -0.1346827
v -0.06568551 0.05 -0.06568539
v -0.1346827 0.05 0.01299083
v -0.1928203 0.05 0.1
v -0.2391036 0.05 0.1938533
v -0.2727406 0.05 0.2929448
v -0.2931559 0.05 0.3955791

vn 0 -1 0
vn 0 1 0
vn 1 0 0
vn 0 0 1
vn -0.1305262 0 -0.9914449
vn -0.06540313 0 -0.9978589
vn -0.258819 0 -0.9659258
vn -0.3826834 0 -0.9238795
vn -0.5 0 -0.8660254
vn -0.6087614 0 -0.7933533
vn -0.7071068 0 -0.7071068
vn -0.7933533 0 -0.6087614
vn -0.8660254 0 -0.5
vn -0.9238795 0 -0.3826834
vn -0.9659258 0 -0.258819
vn -0.9914449 0 -0.1305262
vn -0.9978589 0 -0.06540313
vn 0.9914449 0 0.1305262
vn 0.9978589 0 0.06540313
vn 0.9659258 0 0.258819
vn 0.9238795 0 0.3826834
vn 0.8660254 0 0.5
vn 0.7933533 0 0.6087614
vn 0.7071068 0 0.7071068
vn 0.6087614 0 0.7933533
vn 0.5 0 0.8660254
vn 0.3826834 0 0.9238795
vn 0.258819 0 0.9659258
vn 0.1305262 0 0.9914449
vn 0.06540313 0 0.9978589

vt 19.68504 -15.74803
vt 19.68504 -19.68504
vt 15.0601 -15.4449
vt 14.54621 -19.34822
vt 10.51429 -14.54068
vt 9.495314 -18.34354
vt 6.12539 -13.05085
vt 4.618762 -16.68817
vt 1.968504 -11.0009
vt 0 -14.41045
vt -1.885247 -8.425906
vt -4.281946 -11.54934
vt -5.369925 -5.369925
vt -8.153811 -8.153811
vt -8.425906 -1.885247
vt -11.54934 -4.281946
vt -11.0009 1.968504
vt -13.05085 6.12539
vt -14.41045 1.719071E-34
vt -14.54068 10.51429
vt -16.68817 4.618762
vt -15.4449 15.0601
vt -15.74803 19.68504
vt -19.68504 19.68504
vt -18.34354 9.495314
vt -19.34822 14.54621
vt -19.68504 15.74803
vt -19.17116 15.78171
vt -18.66607 15.88218
vt -18.17841 16.04772
vt -17.71654 16.27549
vt -17.28834 16.5616
vt -16.90115 16.90115
vt -16.5616 17.28834
vt -16.27549 17.71654
vt -16.04772 18.17841
vt -15.88218 18.66607
vt -15.78171 19.17116
vt -15.74803 3.937008
vt -15.74803 0
vt -19.68504 3.937008
vt -19.68504 0
vt 19.68504 0
vt 15.74803 0
vt 19.68504 3.937008
vt 15.74803 3.937008
vt -19.68504 -19.68504
vt -19.68504 -15.74803
vt -14.54621 -19.34822
vt -15.0601 -15.4449
vt -10.51429 -14.54068
vt -9.495314 -18.34354
vt -6.12539 -13.05085
vt -4.618762 -16.68817
vt -1.968504 -11.0009
vt -1.337532E-16 -14.41045
vt 1.885247 -8.425906
vt 4.281946 -11.54934
vt 5.369925 -5.369925
vt 8.153811 -8.153811
vt 8.425906 -1.885247
vt 11.54934 -4.281946
vt 11.0009 1.968504
vt 13.05085 6.12539
vt 14.41045 1.428332E-16
vt 14.54068 10.51429
vt 16.68817 4.618762
vt 15.4449 15.0601
vt 15.74803 19.68504
vt 19.68504 19.68504
vt 18.34354 9.495314
vt 19.34822 14.54621
vt -15.7805 9.080314E-17
vt -20.93036 9.080314E-17
vt -15.7805 3.937008
vt -20.93036 3.937008
vt -12.89151 8.372328E-17
vt -18.04136 8.372328E-17
vt -12.89151 3.937008
vt -18.04136 3.937008
vt -9.737882 7.645483E-17
vt -14.88773 7.645483E-17
vt -9.737882 3.937008
vt -14.88773 3.937008
vt -6.373579 6.979798E-17
vt -11.52343 6.979798E-17
vt -6.373579 3.937008
vt -11.52343 3.937008
vt -2.856164 6.43281E-17
vt -8.006017 6.43281E-17
vt -2.856164 3.937008
vt -8.006017 3.937008
vt 0.7541785 6.035434E-17
vt -4.395674 6.035434E-17
vt 0.7541785 3.937008
vt -4.395674 3.937008
vt -0.7541785 5.789976E-17
vt -0.7541785 3.937008
vt 4.395674 5.789976E-17
vt 4.395674 3.937008
vt 2.856164 5.670389E-17
vt 2.856164 3.937008
vt 8.006017 5.670389E-17
vt 8.006017 3.937008
vt 6.373579 5.624787E-17
vt 6.373579 3.937008
vt 11.52343 5.624787E-17
vt 11.52343 3.937008
vt 9.737882 5.580009E-17
vt 9.737882 3.937008
vt 14.88773 5.580009E-17
vt 14.88773 3.937008
vt 12.89151 5.447901E-17
vt 12.89151 3.937008
vt 18.04136 5.447901E-17
vt 18.04136 3.937008
vt 15.7805 5.132896E-17
vt 15.7805 3.937008
vt 20.93036 4.954182E-16
vt 20.93036 3.937008
vt -15.74803 -7.097931E-29
vt -19.68504 4.440892E-16
vt 19.68504 15.74803
vt 19.17116 15.78171
vt 18.66607 15.88218
vt 18.17841 16.04772
vt 17.71654 16.27549
vt 17.28834 16.5616
vt 16.90115 16.90115
vt 16.5616 17.28834
vt 16.27549 17.71654
vt 16.04772 18.17841
vt 15.88218 18.66607
vt 15.78171 19.17116
vt 19.68504 -11.81102
vt 15.57398 -11.54157
vt 11.53326 -10.73782
vt 7.632018 -9.413528
vt 3.937008 -7.591352
vt 0.5114511 -5.302467
vt -2.58604 -2.58604
vt -5.302467 0.5114511
vt -7.591352 3.937008
vt -9.413528 7.632018
vt -10.73782 11.53326
vt -11.54157 15.57398
vt -11.81102 19.68504
vt -19.68504 11.81102
vt -18.65727 11.87839
vt -17.64709 12.07932
vt -16.67178 12.4104
vt -15.74803 12.86594
vt -14.89164 13.43816
vt -14.11727 14.11727
vt -13.43816 14.89164
vt -12.86594 15.74803
vt -12.4104 16.67178
vt -12.07932 17.64709
vt -11.87839 18.65727
vt -19.68504 -11.81102
vt -15.57398 -11.54157
vt -11.53326 -10.73782
vt -7.632018 -9.413528
vt -3.937008 -7.591352
vt -0.5114511 -5.302467
vt 2.58604 -2.58604
vt 5.302467 0.5114511
vt 7.591352 3.937008
vt 9.413528 7.632018
vt 10.73782 11.53326
vt 11.54157 15.57398
vt 11.81102 19.68504
vt 19.68504 11.81102
vt 18.65727 11.87839
vt 17.64709 12.07932
vt 16.67178 12.4104
vt 15.74803 12.86594
vt 14.89164 13.43816
vt 14.11727 14.11727
vt 13.43816 14.89164
vt 12.86594 15.74803
vt 12.4104 16.67178
vt 12.07932 17.64709
vt 11.87839 18.65727
vt 11.81102 0
vt 11.81102 1.968504
vt 11.81102 3.937008
vt -11.81102 3.937008
vt -11.81102 1.968504
vt -11.81102 0
vt -17.84044 1.968504
vt -18.87041 1.968504
vt -17.84044 3.937008
vt -18.87041 3.937008
vt -18.87041 0
vt -17.84044 0
vt -14.95145 1.968504
vt -15.98142 1.968504
vt -14.95145 3.937008
vt -15.98142 3.937008
vt -15.98142 0
vt -14.95145 0
vt -11.79782 1.968504
vt -12.82779 1.968504
vt -11.79782 3.937008
vt -12.82779 3.937008
vt -12.82779 0
vt -11.79782 0
vt -8.433519 1.968504
vt -9.46349 1.968504
vt -8.433519 3.937008
vt -9.46349 3.937008
vt -9.46349 0
vt -8.433519 0
vt -4.916105 1.968504
vt -5.946075 1.968504
vt -4.916105 3.937008
vt -5.946075 3.937008
vt -5.946075 0
vt -4.916105 0
vt -1.305763 1.968504
vt -2.335733 1.968504
vt -1.305763 3.937008
vt -2.335733 3.937008
vt -2.335733 0
vt -1.305763 0
vt 1.305763 1.968504
vt 1.305763 3.937008
vt 2.335733 1.968504
vt 2.335733 3.937008
vt 2.335733 0
vt 1.305763 0
vt 4.916105 1.968504
vt 4.916105 3.937008
vt 5.946075 1.968504
vt 5.946075 3.937008
vt 5.946075 0
vt 4.916105 0
vt 8.433519 1.968504
vt 8.433519 3.937008
vt 9.46349 1.968504
vt 9.46349 3.937008
vt 9.46349 0
vt 8.433519 0
vt 11.79782 1.968504
vt 11.79782 3.937008
vt 12.82779 1.968504
vt 12.82779 3.937008
vt 12.82779 0
vt 11.79782 0
vt 14.95145 1.968504
vt 14.95145 3.937008
vt 15.98142 1.968504
vt 15.98142 3.937008
vt 15.98142 0
vt 14.95145 0
vt 17.84044 1.968504
vt 17.84044 3.937008
vt 18.87041 1.968504
vt 18.87041 3.937008
vt 18.87041 0
vt 17.84044 0
vt -11.81102 -7.097931E-29
vt -16.29549 1.968504
vt -16.29549 0
vt -20.41537 1.968504
vt -20.41537 0
vt -20.41537 3.937008
vt -16.29549 3.937008
vt -13.4065 1.968504
vt -13.4065 0
vt -17.52638 1.968504
vt -17.52638 0
vt -17.52638 3.937008
vt -13.4065 3.937008
vt -10.25287 1.968504
vt -10.25287 0
vt -14.37275 1.968504
vt -14.37275 0
vt -14.37275 3.937008
vt -10.25287 3.937008
vt -6.888564 1.968504
vt -6.888564 0
vt -11.00845 1.968504
vt -11.00845 0
vt -11.00845 3.937008
vt -6.888564 3.937008
vt -3.371149 1.968504
vt -3.371149 0
vt -7.491031 1.968504
vt -7.491031 0
vt -7.491031 3.937008
vt -3.371149 3.937008
vt 0.2391932 1.968504
vt 0.2391932 0
vt -3.880689 1.968504
vt -3.880689 0
vt -3.880689 3.937008
vt 0.2391932 3.937008
vt 3.880689 0
vt -0.2391932 0
vt 3.880689 1.968504
vt -0.2391932 1.968504
vt 3.880689 3.937008
vt -0.2391932 3.937008
vt 7.491031 0
vt 3.371149 0
vt 7.491031 1.968504
vt 3.371149 1.968504
vt 7.491031 3.937008
vt 3.371149 3.937008
vt 11.00845 0
vt 6.888564 0
vt 11.00845 1.968504
vt 6.888564 1.968504
vt 11.00845 3.937008
vt 6.888564 3.937008
vt 14.37275 0
vt 10.25287 0
vt 14.37275 1.968504
vt 10.25287 1.968504
vt 14.37275 3.937008
vt 10.25287 3.937008
vt 17.52638 0
vt 13.4065 0
vt 17.52638 1.968504
vt 13.4065 1.968504
vt 17.52638 3.937008
vt 13.4065 3.937008
vt 20.41537 0
vt 16.29549 0
vt 20.41537 1.968504
vt 16.29549 1.968504
vt 20.41537 3.937008
vt 16.29549 3.937008

usemtl metalRed

f 3/3/1 2/2/1 1/1/1
f 2/2/1 3/3/1 4/4/1
f 4/4/1 3/3/1 5/5/1
f 4/4/1 5/5/1 6/6/1
f 6/6/1 5/5/1 7/7/1
f 6/6/1 7/7/1 8/8/1
f 8/8/1 7/7/1 9/9/1
f 8/8/1 9/9/1 10/10/1
f 10/10/1 9/9/1 11/11/1
f 10/10/1 11/11/1 12/12/1
f 12/12/1 11/11/1 13/13/1
f 12/12/1 13/13/1 14/14/1
f 14/14/1 13/13/1 15/15/1
f 14/14/1 15/15/1 16/16/1
f 16/16/1 15/15/1 17/17/1
f 16/16/1 17/17/1 18/18/1
f 16/16/1 18/18/1 19/19/1
f 19/19/1 18/18/1 20/20/1
f 19/19/1 20/20/1 21/21/1
f 21/21/1 20/20/1 22/22/1
f 21/21/1 22/22/1 23/23/1
f 21/21/1 23/23/1 24/24/1
f 21/21/1 24/24/1 25/25/1
f 25/25/1 24/24/1 26/26/1
f 29/28/2 28/24/2 27/27/2
f 28/24/2 29/28/2 30/23/2
f 30/23/2 29/28/2 31/29/2
f 30/23/2 31/29/2 32/30/2
f 30/23/2 32/30/2 33/31/2
f 30/23/2 33/31/2 34/32/2
f 30/23/2 34/32/2 35/33/2
f 30/23/2 35/33/2 36/34/2
f 30/23/2 36/34/2 37/35/2
f 30/23/2 37/35/2 38/36/2
f 30/23/2 38/36/2 39/37/2
f 30/23/2 39/37/2 40/38/2
f 28/41/3 41/40/3 27/39/3
f 41/40/3 28/41/3 42/42/3
f 28/45/4 43/44/4 42/43/4
f 43/44/4 28/45/4 30/46/4
f 46/49/2 45/48/2 44/47/2
f 45/48/2 46/49/2 47/50/2
f 47/50/2 46/49/2 48/51/2
f 48/51/2 46/49/2 49/52/2
f 48/51/2 49/52/2 50/53/2
f 50/53/2 49/52/2 51/54/2
f 50/53/2 51/54/2 52/55/2
f 52/55/2 51/54/2 53/56/2
f 52/55/2 53/56/2 54/57/2
f 54/57/2 53/56/2 55/58/2
f 54/57/2 55/58/2 56/59/2
f 56/59/2 55/58/2 57/60/2
f 56/59/2 57/60/2 58/61/2
f 58/61/2 57/60/2 59/62/2
f 58/61/2 59/62/2 60/63/2
f 60/63/2 59/62/2 61/64/2
f 61/64/2 59/62/2 62/65/2
f 61/64/2 62/65/2 63/66/2
f 63/66/2 62/65/2 64/67/2
f 63/66/2 64/67/2 65/68/2
f 65/68/2 64/67/2 66/69/2
f 66/69/2 64/67/2 67/70/2
f 67/70/2 64/67/2 68/71/2
f 67/70/2 68/71/2 69/72/2
f 45/46/3 2/43/3 44/45/3
f 2/43/3 45/46/3 1/44/3
f 46/75/5 2/74/6 4/73/5
f 2/74/6 46/75/5 44/76/6
f 49/79/7 4/78/5 6/77/7
f 4/78/5 49/79/7 46/80/5
f 51/83/8 6/82/7 8/81/8
f 6/82/7 51/83/8 49/84/7
f 53/87/9 8/86/8 10/85/9
f 8/86/8 53/87/9 51/88/8
f 55/91/10 10/90/9 12/89/10
f 10/90/9 55/91/10 53/92/9
f 57/95/11 12/94/10 14/93/11
f 12/94/10 57/95/11 55/96/10
f 16/99/12 57/98/11 14/97/11
f 57/98/11 16/99/12 59/100/12
f 19/103/13 59/102/12 16/101/12
f 59/102/12 19/103/13 62/104/13
f 21/107/14 62/106/13 19/105/13
f 62/106/13 21/107/14 64/108/14
f 25/111/15 64/110/14 21/109/14
f 64/110/14 25/111/15 68/112/15
f 26/115/16 68/114/15 25/113/15
f 68/114/15 26/115/16 69/116/16
f 24/119/17 69/118/16 26/117/16
f 69/118/16 24/119/17 67/120/17
f 66/39/4 24/122/4 23/121/4
f 24/122/4 66/39/4 67/41/4
f 43/69/1 41/123/1 42/70/1
f 41/123/1 43/69/1 70/124/1
f 70/124/1 43/69/1 71/125/1
f 71/125/1 43/69/1 72/126/1
f 72/126/1 43/69/1 73/127/1
f 73/127/1 43/69/1 74/128/1
f 74/128/1 43/69/1 75/129/1
f 75/129/1 43/69/1 76/130/1
f 76/130/1 43/69/1 77/131/1
f 77/131/1 43/69/1 78/132/1
f 78/132/1 43/69/1 79/133/1
f 79/133/1 43/69/1 80/134/1

usemtl metal

f 82/136/1 1/1/1 81/135/1
f 1/1/1 82/136/1 3/3/1
f 3/3/1 82/136/1 83/137/1
f 3/3/1 83/137/1 5/5/1
f 5/5/1 83/137/1 84/138/1
f 5/5/1 84/138/1 7/7/1
f 7/7/1 84/138/1 85/139/1
f 7/7/1 85/139/1 9/9/1
f 9/9/1 85/139/1 86/140/1
f 9/9/1 86/140/1 11/11/1
f 11/11/1 86/140/1 87/141/1
f 11/11/1 87/141/1 13/13/1
f 13/13/1 87/141/1 88/142/1
f 13/13/1 88/142/1 89/143/1
f 13/13/1 89/143/1 15/15/1
f 15/15/1 89/143/1 90/144/1
f 15/15/1 90/144/1 17/17/1
f 17/17/1 90/144/1 91/145/1
f 17/17/1 91/145/1 92/146/1
f 17/17/1 92/146/1 18/18/1
f 18/18/1 92/146/1 93/147/1
f 18/18/1 93/147/1 23/23/1
f 18/18/1 23/23/1 20/20/1
f 20/20/1 23/23/1 22/22/1
f 95/149/2 27/27/2 94/148/2
f 27/27/2 95/149/2 29/28/2
f 29/28/2 95/149/2 31/29/2
f 31/29/2 95/149/2 32/30/2
f 32/30/2 95/149/2 96/150/2
f 32/30/2 96/150/2 33/31/2
f 33/31/2 96/150/2 34/32/2
f 34/32/2 96/150/2 97/151/2
f 34/32/2 97/151/2 35/33/2
f 35/33/2 97/151/2 36/34/2
f 36/34/2 97/151/2 98/152/2
f 36/34/2 98/152/2 37/35/2
f 37/35/2 98/152/2 38/36/2
f 38/36/2 98/152/2 39/37/2
f 39/37/2 98/152/2 40/38/2
f 40/38/2 98/152/2 30/23/2
f 30/23/2 98/152/2 99/153/2
f 30/23/2 99/153/2 100/147/2
f 100/147/2 99/153/2 101/154/2
f 100/147/2 101/154/2 102/155/2
f 100/147/2 102/155/2 103/156/2
f 100/147/2 103/156/2 104/157/2
f 100/147/2 104/157/2 105/158/2
f 100/147/2 105/158/2 106/159/2
f 47/50/2 107/160/2 45/48/2
f 107/160/2 47/50/2 108/161/2
f 108/161/2 47/50/2 109/162/2
f 109/162/2 47/50/2 48/51/2
f 109/162/2 48/51/2 110/163/2
f 110/163/2 48/51/2 50/53/2
f 110/163/2 50/53/2 111/164/2
f 111/164/2 50/53/2 52/55/2
f 111/164/2 52/55/2 112/165/2
f 112/165/2 52/55/2 54/57/2
f 112/165/2 54/57/2 113/166/2
f 113/166/2 54/57/2 56/59/2
f 113/166/2 56/59/2 114/167/2
f 114/167/2 56/59/2 115/168/2
f 115/168/2 56/59/2 58/61/2
f 115/168/2 58/61/2 116/169/2
f 116/169/2 58/61/2 60/63/2
f 116/169/2 60/63/2 117/170/2
f 117/170/2 60/63/2 118/171/2
f 118/171/2 60/63/2 61/64/2
f 118/171/2 61/64/2 119/172/2
f 119/172/2 61/64/2 66/69/2
f 66/69/2 61/64/2 63/66/2
f 66/69/2 63/66/2 65/68/2
f 70/124/1 120/173/1 41/123/1
f 120/173/1 70/124/1 121/174/1
f 121/174/1 70/124/1 71/125/1
f 121/174/1 71/125/1 72/126/1
f 121/174/1 72/126/1 122/175/1
f 122/175/1 72/126/1 73/127/1
f 122/175/1 73/127/1 74/128/1
f 122/175/1 74/128/1 123/176/1
f 123/176/1 74/128/1 75/129/1
f 123/176/1 75/129/1 76/130/1
f 123/176/1 76/130/1 124/177/1
f 124/177/1 76/130/1 77/131/1
f 124/177/1 77/131/1 78/132/1
f 124/177/1 78/132/1 79/133/1
f 124/177/1 79/133/1 80/134/1
f 124/177/1 80/134/1 43/69/1
f 124/177/1 43/69/1 125/178/1
f 125/178/1 43/69/1 126/172/1
f 125/178/1 126/172/1 127/179/1
f 127/179/1 126/172/1 128/180/1
f 128/180/1 126/172/1 129/181/1
f 129/181/1 126/172/1 130/182/1
f 130/182/1 126/172/1 131/183/1
f 131/183/1 126/172/1 132/184/1
f 135/161/2 134/148/2 133/160/2
f 134/148/2 135/161/2 136/149/2
f 136/149/2 135/161/2 137/150/2
f 137/150/2 135/161/2 138/151/2
f 138/151/2 135/161/2 139/152/2
f 139/152/2 135/161/2 140/153/2
f 140/153/2 135/161/2 141/162/2
f 140/153/2 141/162/2 142/154/2
f 142/154/2 141/162/2 143/155/2
f 143/155/2 141/162/2 144/156/2
f 144/156/2 141/162/2 145/157/2
f 145/157/2 141/162/2 146/158/2
f 146/158/2 141/162/2 147/159/2
f 147/159/2 141/162/2 148/147/2
f 148/147/2 141/162/2 149/172/2
f 149/172/2 141/162/2 150/163/2
f 149/172/2 150/163/2 151/164/2
f 149/172/2 151/164/2 152/165/2
f 149/172/2 152/165/2 153/166/2
f 149/172/2 153/166/2 154/167/2
f 149/172/2 154/167/2 155/168/2
f 149/172/2 155/168/2 156/169/2
f 149/172/2 156/169/2 157/170/2
f 149/172/2 157/170/2 158/171/2
f 133/160/1 134/148/1 135/161/1
f 136/149/1 135/161/1 134/148/1
f 137/150/1 135/161/1 136/149/1
f 138/151/1 135/161/1 137/150/1
f 139/152/1 135/161/1 138/151/1
f 140/153/1 135/161/1 139/152/1
f 141/162/1 135/161/1 140/153/1
f 142/154/1 141/162/1 140/153/1
f 143/155/1 141/162/1 142/154/1
f 144/156/1 141/162/1 143/155/1
f 145/157/1 141/162/1 144/156/1
f 146/158/1 141/162/1 145/157/1
f 147/159/1 141/162/1 146/158/1
f 148/147/1 141/162/1 147/159/1
f 149/172/1 141/162/1 148/147/1
f 150/163/1 141/162/1 149/172/1
f 151/164/1 150/163/1 149/172/1
f 152/165/1 151/164/1 149/172/1
f 153/166/1 152/165/1 149/172/1
f 154/167/1 153/166/1 149/172/1
f 155/168/1 154/167/1 149/172/1
f 156/169/1 155/168/1 149/172/1
f 157/170/1 156/169/1 149/172/1
f 158/171/1 157/170/1 149/172/1

usemtl metalDark

f 30/46/4 126/185/4 43/44/4
f 126/185/4 30/46/4 148/186/4
f 148/186/4 30/46/4 100/187/4
f 27/39/3 134/189/3 94/188/3
f 134/189/3 27/39/3 120/190/3
f 120/190/3 27/39/3 41/40/3
f 95/193/5 134/192/6 136/191/5
f 134/192/6 95/193/5 94/194/6
f 120/195/6 136/191/5 134/192/6
f 136/191/5 120/195/6 121/196/5
f 96/199/7 136/198/5 137/197/7
f 136/198/5 96/199/7 95/200/5
f 121/201/5 137/197/7 136/198/5
f 137/197/7 121/201/5 122/202/7
f 97/205/8 137/204/7 138/203/8
f 137/204/7 97/205/8 96/206/7
f 122/207/7 138/203/8 137/204/7
f 138/203/8 122/207/7 123/208/8
f 98/211/9 138/210/8 139/209/9
f 138/210/8 98/211/9 97/212/8
f 123/213/8 139/209/9 138/210/8
f 139/209/9 123/213/8 124/214/9
f 99/217/10 139/216/9 140/215/10
f 139/216/9 99/217/10 98/218/9
f 124/219/9 140/215/10 139/216/9
f 140/215/10 124/219/9 125/220/10
f 101/223/11 140/222/10 142/221/11
f 140/222/10 101/223/11 99/224/10
f 125/225/10 142/221/11 140/222/10
f 142/221/11 125/225/10 127/226/11
f 143/229/12 101/228/11 142/227/11
f 101/228/11 143/229/12 102/230/12
f 142/227/11 128/231/12 143/229/12
f 128/231/12 142/227/11 127/232/11
f 144/235/13 102/234/12 143/233/12
f 102/234/12 144/235/13 103/236/13
f 143/233/12 129/237/13 144/235/13
f 129/237/13 143/233/12 128/238/12
f 145/241/14 103/240/13 144/239/13
f 103/240/13 145/241/14 104/242/14
f 144/239/13 130/243/14 145/241/14
f 130/243/14 144/239/13 129/244/13
f 146/247/15 104/246/14 145/245/14
f 104/246/14 146/247/15 105/248/15
f 145/245/14 131/249/15 146/247/15
f 131/249/15 145/245/14 130/250/14
f 147/253/16 105/252/15 146/251/15
f 105/252/15 147/253/16 106/254/16
f 146/251/15 132/255/16 147/253/16
f 132/255/16 146/251/15 131/256/15
f 148/259/17 106/258/16 147/257/16
f 106/258/16 148/259/17 100/260/17
f 147/257/16 126/261/17 148/259/17
f 126/261/17 147/257/16 132/262/16
f 149/189/4 23/121/4 93/263/4
f 23/121/4 149/189/4 66/39/4
f 66/39/4 149/189/4 119/188/4
f 149/266/19 92/265/18 158/264/18
f 92/265/18 149/266/19 93/267/19
f 158/264/18 119/268/19 149/266/19
f 119/268/19 158/264/18 118/269/18
f 158/272/18 91/271/20 157/270/20
f 91/271/20 158/272/18 92/273/18
f 157/270/20 118/274/18 158/272/18
f 118/274/18 157/270/20 117/275/20
f 157/278/20 90/277/21 156/276/21
f 90/277/21 157/278/20 91/279/20
f 156/276/21 117/280/20 157/278/20
f 117/280/20 156/276/21 116/281/21
f 156/284/21 89/283/22 155/282/22
f 89/283/22 156/284/21 90/285/21
f 155/282/22 116/286/21 156/284/21
f 116/286/21 155/282/22 115/287/22
f 155/290/22 88/289/23 154/288/23
f 88/289/23 155/290/22 89/291/22
f 154/288/23 115/292/22 155/290/22
f 115/292/22 154/288/23 114/293/23
f 154/296/23 87/295/24 153/294/24
f 87/295/24 154/296/23 88/297/23
f 153/294/24 114/298/23 154/296/23
f 114/298/23 153/294/24 113/299/24
f 152/302/25 87/301/24 86/300/25
f 87/301/24 152/302/25 153/303/24
f 112/304/25 153/303/24 152/302/25
f 153/303/24 112/304/25 113/305/24
f 151/308/26 86/307/25 85/306/26
f 86/307/25 151/308/26 152/309/25
f 111/310/26 152/309/25 151/308/26
f 152/309/25 111/310/26 112/311/25
f 150/314/27 85/313/26 84/312/27
f 85/313/26 150/314/27 151/315/26
f 110/316/27 151/315/26 150/314/27
f 151/315/26 110/316/27 111/317/26
f 141/320/28 84/319/27 83/318/28
f 84/319/27 141/320/28 150/321/27
f 109/322/28 150/321/27 141/320/28
f 150/321/27 109/322/28 110/323/27
f 135/326/29 83/325/28 82/324/29
f 83/325/28 135/326/29 141/327/28
f 108/328/29 141/327/28 135/326/29
f 141/327/28 108/328/29 109/329/28
f 133/332/30 82/331/29 81/330/30
f 82/331/29 133/332/30 135/333/29
f 107/334/30 135/333/29 133/332/30
f 135/333/29 107/334/30 108/335/29
f 107/187/3 1/44/3 45/46/3
f 1/44/3 107/187/3 81/185/3
f 81/185/3 107/187/3 133/186/3

