# Created by Kenney (www.kenney.nl)

mtllib platform_corner.mtl

g platform_corner

v -0.4000001 0 -0.5
v -0.4000001 0.1 -0.5
v -0.5 0 -0.4
v -0.5 0.1 -0.4
v 0.5 0 -0.5
v 0.5 0.1 -0.5
v 0.5 0.1 -0.4
v 0.5 -2.819966E-18 -0.4
v -0.5 0 0.5
v -0.5 0.1 0.5
v -0.4000001 1.973977E-17 0.5
v -0.4000001 -9.493934E-17 -0.4
v 0.3766389 -9.493934E-17 -0.4
v 0.3766389 0.1 -0.4
v -0.4000001 0.1 -0.4
v -0.4000001 0.1 0.5
v 0.5 0.1 0.4
v 0.5 -1.400588E-16 0.4
v 0.5 0.1 0.5
v 0.5 2.208969E-16 0.5
v 0.4000001 2.208969E-16 0.5
v 0.4 -1.400588E-16 0.4
v 0.4000001 0.1 0.5
v 0.4 0.1 0.4
v 0.5 0.1 -0.3
v -0.3 0.1 -0.3
v -0.3 0.1 0.5
v -0.3 3.947953E-17 0.5
v -0.3 0 -0.3
v 0.5 -5.639933E-18 -0.3
v 0.3 -1.626185E-16 0.5
v 0.3 -5.235743E-16 0.3
v 0.5 -5.235743E-16 0.3
v 0.5 0.1 0.3
v 0.3 0.1 0.3
v 0.3 0.1 0.5
v 0.5 0.05 -0.3
v 0.5 0.05 0.3
v -0.3 0.05 -0.3
v 0.3 0.05 0.3
v -0.3 0.05 0.5
v 0.3 0.05 0.5

vn -0.7071068 0 -0.7071068
vn 0 0 -1
vn 1 0 0
vn -1 0 0
vn 0 -1 0
vn 0 1 0
vn 0 0 1

vt -2.783885 0
vt -2.783885 3.937008
vt 2.783885 0
vt 2.783885 3.937008
vt 15.74803 0
vt -19.68504 0
vt 15.74803 3.937008
vt -19.68504 3.937008
vt 19.68504 3.937008
vt 19.68504 0
vt 15.74803 -1.110223E-16
vt -15.74803 0
vt -15.74803 3.937008
vt -15.74803 19.68504
vt -15.74803 -15.74803
vt -19.68504 19.68504
vt -15.74803 -19.68504
vt -19.68504 -15.74803
vt 14.8283 -15.74803
vt 19.68504 -19.68504
vt 19.68504 -15.74803
vt -19.68504 -19.68504
vt 15.74803 -19.68504
vt -14.8283 -15.74803
vt 15.74803 -15.74803
vt 15.74803 19.68504
vt 19.68504 19.68504
vt -15.74803 7.771561E-16
vt -15.74803 3.937008
vt -15.74803 -5.514121E-15
vt -19.68504 3.937008
vt -19.68504 8.696734E-15
vt 19.68504 15.74803
vt 15.74803 19.68504
vt 15.74803 15.74803
vt 19.68504 8.696735E-15
vt 15.74803 8.696735E-15
vt 15.74803 3.937008
vt -15.74803 19.68504
vt -19.68504 15.74803
vt -15.74803 15.74803
vt -19.68504 -11.81102
vt 11.81102 -11.81102
vt 11.81102 19.68504
vt -11.81102 19.68504
vt -11.81102 -11.81102
vt 19.68504 -11.81102
vt 11.81102 19.68504
vt 11.81102 11.81102
vt 19.68504 11.81102
vt -19.68504 11.81102
vt -11.81102 11.81102
vt -11.81102 19.68504
vt 11.81102 3.937008
vt 11.81102 -2.220446E-16
vt 11.81102 1.968504
vt -11.81102 1.554312E-15
vt -11.81102 1.968504
vt -11.81102 3.937008
vt 19.68504 -2.220446E-16
vt -11.81102 0
vt 19.68504 1.968504
vt 11.81102 -2.728484E-12
vt -19.68504 1.968504
vt -19.68504 -2.72693E-12
vt 11.81103 -6.402304E-15
vt 11.81103 1.968504
vt 11.81103 3.937008
vt -11.81102 -2.061316E-14
vt 11.81102 -2.097733E-13
vt 11.81102 1.968504
vt 19.68504 -1.955625E-13
vt 19.68504 1.968504
vt 11.81102 3.937008
vt 19.68504 3.937008
vt -11.81102 2.067605E-13
vt -19.68504 2.067605E-13

usemtl metalRed

f 3/3/1 2/2/1 1/1/1
f 2/2/1 3/3/1 4/4/1
f 2/7/2 5/6/2 1/5/2
f 5/6/2 2/7/2 6/8/2
f 7/7/3 5/10/3 6/9/3
f 5/10/3 7/7/3 8/11/3
f 9/10/4 4/13/4 3/12/4
f 4/13/4 9/10/4 10/9/4
f 9/16/5 12/15/5 11/14/5
f 12/15/5 9/16/5 1/17/5
f 1/17/5 9/16/5 3/18/5
f 1/17/5 13/19/5 12/15/5
f 5/20/5 13/19/5 1/17/5
f 13/19/5 5/20/5 8/21/5
f 2/23/6 7/18/6 6/22/6
f 7/18/6 2/23/6 14/24/6
f 14/24/6 2/23/6 15/25/6
f 15/25/6 2/23/6 4/21/6
f 15/25/6 4/21/6 16/26/6
f 16/26/6 4/21/6 10/27/6
f 11/28/7 10/8/7 9/6/7
f 10/8/7 11/28/7 16/13/7
f 19/31/3 18/30/3 17/29/3
f 18/30/3 19/31/3 20/32/3
f 21/34/5 18/33/5 20/27/5
f 18/33/5 21/34/5 22/35/5
f 19/9/7 21/37/7 20/36/7
f 21/37/7 19/9/7 23/38/7
f 17/40/6 23/39/6 19/16/6
f 23/39/6 17/40/6 24/41/6

usemtl metal

f 14/24/6 25/42/6 7/18/6
f 25/42/6 14/24/6 26/43/6
f 26/43/6 14/24/6 15/25/6
f 26/43/6 15/25/6 27/44/6
f 27/44/6 15/25/6 16/26/6
f 11/14/5 29/46/5 28/45/5
f 12/15/5 29/46/5 11/14/5
f 13/19/5 29/46/5 12/15/5
f 8/21/5 29/46/5 13/19/5
f 29/46/5 8/21/5 30/47/5
f 31/48/5 22/35/5 21/34/5
f 32/49/5 22/35/5 31/48/5
f 33/50/5 22/35/5 32/49/5
f 22/35/5 33/50/5 18/33/5
f 35/52/6 17/40/6 34/51/6
f 17/40/6 35/52/6 24/41/6
f 24/41/6 35/52/6 36/53/6
f 36/53/6 23/39/6 24/41/6
f 39/43/6 38/51/6 37/42/6
f 38/51/6 39/43/6 40/52/6
f 41/44/6 40/52/6 39/43/6
f 40/52/6 41/44/6 42/53/6
f 37/42/5 38/51/5 39/43/5
f 40/52/5 39/43/5 38/51/5
f 39/43/5 40/52/5 41/44/5
f 42/53/5 41/44/5 40/52/5

usemtl metalDark

f 25/54/3 8/11/3 7/7/3
f 8/11/3 25/54/3 30/55/3
f 30/55/3 25/54/3 37/56/3
f 28/57/7 16/13/7 11/28/7
f 16/13/7 28/57/7 41/58/7
f 16/13/7 41/58/7 27/59/7
f 37/62/7 29/61/7 30/60/7
f 29/61/7 37/62/7 39/58/7
f 25/9/7 39/58/7 37/62/7
f 39/58/7 25/9/7 26/59/7
f 41/64/3 29/63/3 39/56/3
f 29/63/3 41/64/3 28/65/3
f 39/56/3 27/8/3 41/64/3
f 27/8/3 39/56/3 26/54/3
f 21/37/7 42/67/7 31/66/7
f 42/67/7 21/37/7 23/38/7
f 42/67/7 23/38/7 36/68/7
f 17/29/3 38/58/3 34/59/3
f 38/58/3 17/29/3 33/69/3
f 33/69/3 17/29/3 18/30/3
f 31/72/4 40/71/4 32/70/4
f 40/71/4 31/72/4 42/73/4
f 42/73/4 35/74/4 40/71/4
f 35/74/4 42/73/4 36/75/4
f 40/58/2 33/77/2 32/76/2
f 33/77/2 40/58/2 38/64/2
f 35/59/2 38/64/2 40/58/2
f 38/64/2 35/59/2 34/8/2

