# Created by Kenney (www.kenney.nl)

mtllib platform_straight.mtl

g platform_straight

v 0.5 0.1 0.4
v 0.5 0.1 0.5
v -0.5 0.1 0.4
v -0.5 0.1 0.5
v -0.5 0 -0.5
v 0.5 0 -0.5
v -0.5 0.1 -0.5
v 0.5 0.1 -0.5
v 0.5 0 0.5
v -0.5 0 0.5
v 0.5 0 0.4
v -0.5 0 0.4
v 0.5 0 -0.4
v -0.5 0 -0.4
v -0.5 0.1 -0.4
v 0.5 0.1 -0.4
v 0.5 0.1 0.3
v -0.5 0.1 0.3
v 0.5 0.05 -0.3
v 0.5 0.05 0.3
v -0.5 0.05 -0.3
v -0.5 0.05 0.3
v 0.5 0.1 -0.3
v -0.5 0.1 -0.3
v 0.5 0 0.3
v -0.5 0 0.3
v 0.5 0 -0.3
v -0.5 0 -0.3

vn 0 1 0
vn 0 0 -1
vn 0 0 1
vn 0 -1 0
vn -1 0 0
vn 1 0 0

vt -19.68504 15.74803
vt -19.68504 19.68504
vt 19.68504 15.74803
vt 19.68504 19.68504
vt 19.68504 0
vt -19.68504 0
vt 19.68504 3.937008
vt -19.68504 3.937008
vt 19.68504 -15.74803
vt 19.68504 -19.68504
vt -19.68504 -15.74803
vt -19.68504 -19.68504
vt -15.74803 0
vt -15.74803 3.937008
vt 15.74803 3.937008
vt 15.74803 0
vt -19.68504 11.81102
vt 19.68504 11.81102
vt -19.68504 -11.81102
vt 19.68504 -11.81102
vt 19.68504 1.968504
vt -19.68504 1.968504
vt 11.81102 3.937008
vt 11.81102 0
vt 11.81102 1.968504
vt -11.81102 3.937008
vt -11.81102 1.968504
vt -11.81102 0

usemtl metalRed

f 3/3/1 2/2/1 1/1/1
f 2/2/1 3/3/1 4/4/1
f 7/7/2 6/6/2 5/5/2
f 6/6/2 7/7/2 8/8/2
f 2/7/3 10/6/3 9/5/3
f 10/6/3 2/7/3 4/8/3
f 10/2/4 11/3/4 9/4/4
f 11/3/4 10/2/4 12/1/4
f 14/11/4 6/10/4 13/9/4
f 6/10/4 14/11/4 5/12/4
f 14/13/5 7/8/5 5/6/5
f 7/8/5 14/13/5 15/14/5
f 7/10/1 16/11/1 8/12/1
f 16/11/1 7/10/1 15/9/1
f 16/15/6 6/5/6 8/7/6
f 6/5/6 16/15/6 13/16/6
f 10/5/5 3/15/5 12/16/5
f 3/15/5 10/5/5 4/7/5
f 2/8/6 11/13/6 1/14/6
f 11/13/6 2/8/6 9/6/6

usemtl metal

f 18/18/1 1/1/1 17/17/1
f 1/1/1 18/18/1 3/3/1
f 21/20/1 20/17/1 19/19/1
f 20/17/1 21/20/1 22/18/1
f 19/19/4 20/17/4 21/20/4
f 22/18/4 21/20/4 20/17/4
f 15/9/1 23/19/1 16/11/1
f 23/19/1 15/9/1 24/20/1
f 12/1/4 25/18/4 11/3/4
f 25/18/4 12/1/4 26/17/4
f 28/19/4 13/9/4 27/20/4
f 13/9/4 28/19/4 14/11/4

usemtl metalDark

f 22/21/2 25/6/2 26/5/2
f 25/6/2 22/21/2 20/22/2
f 18/7/2 20/22/2 22/21/2
f 20/22/2 18/7/2 17/8/2
f 19/21/3 28/6/3 27/5/3
f 28/6/3 19/21/3 21/22/3
f 23/7/3 21/22/3 19/21/3
f 21/22/3 23/7/3 24/8/3
f 23/23/6 13/16/6 16/15/6
f 13/16/6 23/23/6 27/24/6
f 27/24/6 23/23/6 19/25/6
f 1/14/6 20/27/6 17/26/6
f 20/27/6 1/14/6 25/28/6
f 25/28/6 1/14/6 11/13/6
f 12/16/5 22/25/5 26/24/5
f 22/25/5 12/16/5 18/23/5
f 18/23/5 12/16/5 3/15/5
f 28/28/5 15/14/5 14/13/5
f 15/14/5 28/28/5 24/26/5
f 24/26/5 28/28/5 21/27/5

usemtl _defaultMat

f 1/5/3 12/15/3 11/16/3
f 12/5/3 1/15/3 3/16/3
f 16/5/3 14/15/3 13/16/3
f 14/5/3 16/15/3 15/16/3

