# Created by Kenney (www.kenney.nl)

mtllib platform_low.mtl

g platform_low

v 0.3 0 -0.4
v 0.4 0 -0.4
v 0.3 0.2 -0.4
v 0.4 0.2 -0.4
v 0.4 0.2 -0.3
v 0.4 0 -0.3
v 0.3 0 -0.3
v 0.3 0.2 -0.3
v -0.3 0 -0.3
v -0.4000001 0 -0.3
v -0.3 0.2 -0.3
v -0.4000001 0.2 -0.3
v -0.3 0 -0.4
v -0.4000001 0 -0.4
v -0.4000001 0.2 -0.4
v -0.3 0.2 -0.4
v -0.4000001 0 0.3
v -0.4000001 0.2 0.3
v -0.4000001 0 0.4
v -0.4000001 0.2 0.4
v -0.3 0 0.3
v -0.3 0.2 0.3
v -0.3 0 0.4
v -0.3 0.2 0.4
v 0.4 0 0.4
v 0.4 0 0.3
v 0.3 0 0.4
v 0.3 0 0.3
v 0.3 0.2 0.3
v 0.4 0.2 0.3
v 0.4 0.2 0.4
v 0.3 0.2 0.4
v 0.4 0.5 -0.5
v 0.4 0.5 -0.4
v -0.4000001 0.5 -0.5
v -0.4000001 0.5 -0.4
v -0.5 0.5 -0.4
v -0.4000001 0.5 0.4
v -0.4000001 0.5 0.5
v -0.5 0.5 0.4
v 0.4 0.5 0.5
v 0.5 0.5 0.4
v 0.5 0.5 -0.4
v 0.4 0.5 0.4
v 0.5 0.4 -0.4
v 0.5 0.4 0.4
v 0.4 0.4 0.5
v -0.4000001 0.4 0.5
v -0.4000001 0.4 -0.5
v -0.5 0.4 -0.4
v 0.4 0.4 -0.5
v 0.4 0.4 0.4
v 0.3 0.4 0.4
v 0.3 0.4 0.3
v -0.3 0.4 0.4
v -0.4000001 0.4 0.4
v -0.5 0.4 0.4
v -0.4000001 0.4 0.3
v -0.4000001 0.4 -0.3
v -0.4000001 0.4 -0.4
v 0.4 0.4 0.3
v 0.4 0.4 -0.3
v 0.4 0.4 -0.4
v 0.3 0.4 -0.4
v -0.3 0.4 -0.4
v -0.3 0.4 -0.3
v -0.3 0.4 0.3
v 0.3 0.4 -0.3
v 0.3 0.5 -0.3
v -0.3 0.5 -0.3
v -0.3 0.5 0.3
v 0.3 0.5 0.3
v 0.3 0.45 -0.3
v 0.3 0.45 0.3
v -0.3 0.45 -0.3
v -0.3 0.45 0.3

vn 0 0 -1
vn 1 0 0
vn 0 0 1
vn 0 -1 0
vn -1 0 0
vn 0 1 0
vn -0.7071068 0 -0.7071068
vn 0.7071068 0 0.7071068
vn 0.7071068 0 -0.7071068
vn -0.7071068 0 0.7071068

vt -11.81102 0
vt -15.74803 0
vt -11.81102 7.874016
vt -15.74803 7.874016
vt 15.74803 7.874016
vt 15.74803 0
vt 11.81102 7.874016
vt 11.81102 0
vt 15.74803 -11.81102
vt 15.74803 -15.74803
vt 11.81102 -11.81102
vt 11.81102 -15.74803
vt -11.81102 -11.81102
vt -11.81102 -15.74803
vt -15.74803 -11.81102
vt -15.74803 -15.74803
vt -11.81102 15.74803
vt -11.81102 11.81102
vt -15.74803 15.74803
vt -15.74803 11.81102
vt 15.74803 15.74803
vt 15.74803 11.81102
vt 11.81102 15.74803
vt 11.81102 11.81102
vt -15.74803 -19.68504
vt 15.74803 -19.68504
vt 19.68504 -15.74803
vt 15.74803 19.68504
vt 19.68504 15.74803
vt -15.74803 19.68504
vt -19.68504 15.74803
vt -19.68504 -15.74803
vt -2.783885 15.74803
vt -2.783885 19.68504
vt 2.783885 15.74803
vt 2.783885 19.68504
vt 11.81102 17.71654
vt -11.81102 17.71654
vt -11.81102 19.68504
vt 11.81102 19.68504

usemtl metalRed

f 3/3/1 2/2/1 1/1/1
f 2/2/1 3/3/1 4/4/1
f 5/7/2 2/6/2 4/5/2
f 2/6/2 5/7/2 6/8/2
f 5/5/3 7/8/3 6/6/3
f 7/8/3 5/5/3 8/7/3
f 7/11/4 2/10/4 6/9/4
f 2/10/4 7/11/4 1/12/4
f 7/1/5 3/4/5 1/2/5
f 3/4/5 7/1/5 8/3/5
f 11/3/3 10/2/3 9/1/3
f 10/2/3 11/3/3 12/4/3
f 10/15/4 13/14/4 9/13/4
f 13/14/4 10/15/4 14/16/4
f 15/5/1 13/8/1 14/6/1
f 13/8/1 15/5/1 16/7/1
f 11/7/2 13/6/2 16/5/2
f 13/6/2 11/7/2 9/8/2
f 10/1/5 15/4/5 14/2/5
f 15/4/5 10/1/5 12/3/5
f 19/6/5 18/7/5 17/8/5
f 18/7/5 19/6/5 20/5/5
f 18/5/1 21/8/1 17/6/1
f 21/8/1 18/5/1 22/7/1
f 24/3/3 19/2/3 23/1/3
f 19/2/3 24/3/3 20/4/3
f 24/4/2 21/1/2 22/3/2
f 21/1/2 24/4/2 23/2/2
f 19/19/4 21/18/4 23/17/4
f 21/18/4 19/19/4 17/20/4
f 27/23/4 26/22/4 25/21/4
f 26/22/4 27/23/4 28/24/4
f 29/3/1 26/2/1 28/1/1
f 26/2/1 29/3/1 30/4/1
f 31/4/2 26/1/2 30/3/2
f 26/1/2 31/4/2 25/2/2
f 27/6/5 29/7/5 28/8/5
f 29/7/5 27/6/5 32/5/5
f 31/5/3 27/8/3 25/6/3
f 27/8/3 31/5/3 32/7/3
f 35/26/6 34/16/6 33/25/6
f 34/16/6 35/26/6 36/10/6
f 36/10/6 35/26/6 37/27/6
f 36/10/6 37/27/6 38/21/6
f 38/21/6 37/27/6 39/28/6
f 39/28/6 37/27/6 40/29/6
f 41/30/6 33/25/6 34/16/6
f 41/30/6 38/21/6 39/28/6
f 42/31/6 33/25/6 41/30/6
f 33/25/6 42/31/6 43/32/6
f 41/30/6 34/16/6 44/19/6
f 41/30/6 44/19/6 38/21/6
f 42/30/2 45/21/2 43/28/2
f 45/21/2 42/30/2 46/19/2
f 41/28/3 48/19/3 47/21/3
f 48/19/3 41/28/3 39/30/3
f 50/35/7 35/34/7 49/33/7
f 35/34/7 50/35/7 37/36/7
f 41/34/8 46/35/8 42/36/8
f 46/35/8 41/34/8 47/33/8
f 43/34/9 51/35/9 33/36/9
f 51/35/9 43/34/9 45/33/9
f 48/30/4 52/21/4 47/28/4
f 52/21/4 48/30/4 53/23/4
f 53/23/4 48/30/4 54/24/4
f 54/24/4 48/30/4 55/17/4
f 55/17/4 48/30/4 56/19/4
f 56/19/4 48/30/4 57/31/4
f 56/19/4 57/31/4 58/20/4
f 58/20/4 57/31/4 59/15/4
f 59/15/4 57/31/4 60/16/4
f 60/16/4 57/31/4 49/25/4
f 49/25/4 57/31/4 50/32/4
f 51/26/4 47/28/4 52/21/4
f 45/27/4 47/28/4 51/26/4
f 47/28/4 45/27/4 46/29/4
f 51/26/4 52/21/4 61/22/4
f 51/26/4 61/22/4 62/9/4
f 54/24/4 62/9/4 61/22/4
f 51/26/4 62/9/4 63/10/4
f 51/26/4 63/10/4 64/12/4
f 51/26/4 64/12/4 49/25/4
f 49/25/4 64/12/4 65/14/4
f 49/25/4 65/14/4 60/16/4
f 65/14/4 64/12/4 66/13/4
f 66/13/4 58/20/4 59/15/4
f 58/20/4 66/13/4 67/18/4
f 66/13/4 64/12/4 68/11/4
f 62/9/4 54/24/4 68/11/4
f 67/18/4 54/24/4 55/17/4
f 48/35/10 40/34/10 57/33/10
f 40/34/10 48/35/10 39/36/10
f 35/28/1 51/19/1 49/21/1
f 51/19/1 35/28/1 33/30/1
f 57/21/5 37/30/5 50/19/5
f 37/30/5 57/21/5 40/28/5

usemtl metal

f 52/21/3 32/7/3 31/5/3
f 32/7/3 52/21/3 53/23/3
f 58/21/1 22/7/1 18/5/1
f 22/7/1 58/21/1 67/23/1
f 55/17/3 20/4/3 24/3/3
f 20/4/3 55/17/3 56/19/3
f 55/19/2 22/3/2 67/17/2
f 22/3/2 55/19/2 24/4/2
f 52/19/2 30/3/2 61/17/2
f 30/3/2 52/19/2 31/4/2
f 20/5/5 58/23/5 18/7/5
f 58/23/5 20/5/5 56/21/5
f 12/3/5 60/19/5 15/4/5
f 60/19/5 12/3/5 59/17/5
f 64/17/1 4/4/1 3/3/1
f 4/4/1 64/17/1 63/19/1
f 62/23/2 4/5/2 63/21/2
f 4/5/2 62/23/2 5/7/2
f 66/17/3 12/4/3 11/3/3
f 12/4/3 66/17/3 59/19/3
f 60/21/1 16/7/1 15/5/1
f 16/7/1 60/21/1 65/23/1
f 8/3/5 64/19/5 3/4/5
f 64/19/5 8/3/5 68/17/5
f 66/23/2 16/5/2 65/21/2
f 16/5/2 66/23/2 11/7/2
f 62/21/3 8/7/3 5/5/3
f 8/7/3 62/21/3 68/23/3
f 34/16/6 69/13/6 44/19/6
f 69/13/6 34/16/6 36/10/6
f 69/13/6 36/10/6 70/11/6
f 70/11/6 36/10/6 71/24/6
f 72/18/6 44/19/6 69/13/6
f 44/19/6 72/18/6 38/21/6
f 38/21/6 72/18/6 71/24/6
f 38/21/6 71/24/6 36/10/6
f 75/11/6 74/18/6 73/13/6
f 74/18/6 75/11/6 76/24/6
f 73/13/4 74/18/4 75/11/4
f 76/24/4 75/11/4 74/18/4
f 54/17/1 30/4/1 29/3/1
f 30/4/1 54/17/1 61/19/1
f 32/5/5 54/23/5 29/7/5
f 54/23/5 32/5/5 53/21/5

usemtl metalDark

f 76/38/2 66/23/2 75/37/2
f 66/23/2 76/38/2 67/17/2
f 75/37/2 71/39/2 76/38/2
f 71/39/2 75/37/2 70/40/2
f 69/40/3 75/38/3 73/37/3
f 75/38/3 69/40/3 70/39/3
f 66/17/3 73/37/3 75/38/3
f 73/37/3 66/17/3 68/23/3
f 74/37/5 69/39/5 73/38/5
f 69/39/5 74/37/5 72/40/5
f 73/38/5 54/23/5 74/37/5
f 54/23/5 73/38/5 68/17/5
f 76/37/1 54/17/1 67/23/1
f 54/17/1 76/37/1 74/38/1
f 71/40/1 74/38/1 76/37/1
f 74/38/1 71/40/1 72/39/1

