# Created by Kenney (www.kenney.nl)

mtllib platform_high.mtl

g platform_high

v 0.3 0 -0.4
v 0.4 0 -0.4
v 0.3 0.2 -0.4
v 0.4 0.2 -0.4
v 0.4 0.2 -0.3
v 0.4 0 -0.3
v 0.3 0 -0.3
v 0.3 0.2 -0.3
v -0.3 0 -0.3
v -0.4000001 0 -0.3
v -0.3 0.2 -0.3
v -0.4000001 0.2 -0.3
v -0.3 0 -0.4
v -0.4000001 0 -0.4
v -0.4000001 0.2 -0.4
v -0.3 0.2 -0.4
v -0.4000001 0 0.3
v -0.4000001 0.2 0.3
v -0.4000001 0 0.4
v -0.4000001 0.2 0.4
v -0.3 0 0.3
v -0.3 0.2 0.3
v -0.3 0 0.4
v -0.3 0.2 0.4
v 0.4 0 0.4
v 0.4 0 0.3
v 0.3 0 0.4
v 0.3 0 0.3
v 0.3 0.2 0.3
v 0.4 0.2 0.3
v 0.4 0.2 0.4
v 0.3 0.2 0.4
v 0.4 1 -0.5
v 0.4 1 -0.4
v -0.4000001 1 -0.5
v -0.4000001 1 -0.4
v -0.5 1 -0.4
v -0.4000001 1 0.4
v -0.4000001 1 0.5
v -0.5 1 0.4
v 0.4 1 0.5
v 0.5 1 0.4
v 0.5 1 -0.4
v 0.4 1 0.4
v 0.5 0.9 -0.4
v 0.5 0.9 0.4
v 0.4 0.9 0.5
v -0.4000001 0.9 0.5
v -0.4000001 0.9 -0.5
v -0.5 0.9 -0.4
v 0.4 0.9 -0.5
v 0.4 0.9 0.4
v 0.3 0.9 0.4
v 0.3 0.9 0.3
v -0.3 0.9 0.4
v -0.4000001 0.9 0.4
v -0.5 0.9 0.4
v -0.4000001 0.9 0.3
v -0.4000001 0.9 -0.3
v -0.4000001 0.9 -0.4
v 0.4 0.9 0.3
v 0.4 0.9 -0.3
v 0.4 0.9 -0.4
v 0.3 0.9 -0.4
v -0.3 0.9 -0.4
v -0.3 0.9 -0.3
v -0.3 0.9 0.3
v 0.3 0.9 -0.3
v 0.3 0.3 0.4
v 0.3 0.4 0.4
v 0.4 0.4 -0.3
v 0.4 0.3 -0.3
v -0.4000001 0.3 0.3
v -0.4000001 0.4 0.3
v -0.3 0.3 -0.3
v -0.4000001 0.3 -0.3
v 0.3 0.3 -0.3
v 0.3 0.4 -0.3
v -0.3 0.4 -0.3
v -0.4000001 0.4 -0.3
v -0.3 0.3 -0.4
v -0.3 0.4 -0.4
v 0.3 0.4 -0.4
v 0.3 0.3 0.3
v 0.3 0.4 0.3
v 0.3 0.3 -0.4
v -0.3 0.4 0.3
v -0.3 0.3 0.3
v -0.3 0.4 0.4
v -0.3 0.3 0.4
v 0.3 1 -0.3
v -0.3 1 -0.3
v -0.3 1 0.3
v 0.3 1 0.3
v 0.3 0.9499999 -0.3
v 0.3 0.9499999 0.3
v -0.3 0.9499999 -0.3
v -0.3 0.9499999 0.3
v 0.4 0.4 0.3
v 0.4 0.3 0.3

vn 0 0 -1
vn 1 0 0
vn 0 0 1
vn 0 -1 0
vn -1 0 0
vn 0 1 0
vn -0.7071068 0 -0.7071068
vn 0.7071068 0 0.7071068
vn 0.7071068 0 -0.7071068
vn -0.7071068 0 0.7071068

vt -11.81102 0
vt -15.74803 0
vt -11.81102 7.874016
vt -15.74803 7.874016
vt 15.74803 7.874016
vt 15.74803 0
vt 11.81102 7.874016
vt 11.81102 0
vt 15.74803 -11.81102
vt 15.74803 -15.74803
vt 11.81102 -11.81102
vt 11.81102 -15.74803
vt -11.81102 -11.81102
vt -11.81102 -15.74803
vt -15.74803 -11.81102
vt -15.74803 -15.74803
vt -11.81102 15.74803
vt -11.81102 11.81102
vt -15.74803 15.74803
vt -15.74803 11.81102
vt 15.74803 15.74803
vt 15.74803 11.81102
vt 11.81102 15.74803
vt 11.81102 11.81102
vt -15.74803 -19.68504
vt 15.74803 -19.68504
vt 19.68504 -15.74803
vt 15.74803 19.68504
vt 19.68504 15.74803
vt -15.74803 19.68504
vt -19.68504 15.74803
vt -19.68504 -15.74803
vt 15.74803 39.37008
vt 15.74803 35.43307
vt -15.74803 39.37008
vt -15.74803 35.43307
vt -2.783885 35.43307
vt -2.783885 39.37008
vt 2.783885 35.43307
vt 2.783885 39.37008
vt 11.81102 35.43307
vt -11.81102 35.43307
vt 11.81102 37.40157
vt -11.81102 37.40157
vt -11.81102 39.37008
vt 11.81102 39.37008

usemtl metalRed

f 3/3/1 2/2/1 1/1/1
f 2/2/1 3/3/1 4/4/1
f 5/7/2 2/6/2 4/5/2
f 2/6/2 5/7/2 6/8/2
f 5/5/3 7/8/3 6/6/3
f 7/8/3 5/5/3 8/7/3
f 7/11/4 2/10/4 6/9/4
f 2/10/4 7/11/4 1/12/4
f 7/1/5 3/4/5 1/2/5
f 3/4/5 7/1/5 8/3/5
f 11/3/3 10/2/3 9/1/3
f 10/2/3 11/3/3 12/4/3
f 10/15/4 13/14/4 9/13/4
f 13/14/4 10/15/4 14/16/4
f 15/5/1 13/8/1 14/6/1
f 13/8/1 15/5/1 16/7/1
f 11/7/2 13/6/2 16/5/2
f 13/6/2 11/7/2 9/8/2
f 10/1/5 15/4/5 14/2/5
f 15/4/5 10/1/5 12/3/5
f 19/6/5 18/7/5 17/8/5
f 18/7/5 19/6/5 20/5/5
f 18/5/1 21/8/1 17/6/1
f 21/8/1 18/5/1 22/7/1
f 24/3/3 19/2/3 23/1/3
f 19/2/3 24/3/3 20/4/3
f 24/4/2 21/1/2 22/3/2
f 21/1/2 24/4/2 23/2/2
f 19/19/4 21/18/4 23/17/4
f 21/18/4 19/19/4 17/20/4
f 27/23/4 26/22/4 25/21/4
f 26/22/4 27/23/4 28/24/4
f 29/3/1 26/2/1 28/1/1
f 26/2/1 29/3/1 30/4/1
f 31/4/2 26/1/2 30/3/2
f 26/1/2 31/4/2 25/2/2
f 27/6/5 29/7/5 28/8/5
f 29/7/5 27/6/5 32/5/5
f 31/5/3 27/8/3 25/6/3
f 27/8/3 31/5/3 32/7/3
f 35/26/6 34/16/6 33/25/6
f 34/16/6 35/26/6 36/10/6
f 36/10/6 35/26/6 37/27/6
f 36/10/6 37/27/6 38/21/6
f 38/21/6 37/27/6 39/28/6
f 39/28/6 37/27/6 40/29/6
f 41/30/6 33/25/6 34/16/6
f 41/30/6 38/21/6 39/28/6
f 42/31/6 33/25/6 41/30/6
f 33/25/6 42/31/6 43/32/6
f 41/30/6 34/16/6 44/19/6
f 41/30/6 44/19/6 38/21/6
f 42/35/2 45/34/2 43/33/2
f 45/34/2 42/35/2 46/36/2
f 41/33/3 48/36/3 47/34/3
f 48/36/3 41/33/3 39/35/3
f 50/39/7 35/38/7 49/37/7
f 35/38/7 50/39/7 37/40/7
f 41/38/8 46/39/8 42/40/8
f 46/39/8 41/38/8 47/37/8
f 43/38/9 51/39/9 33/40/9
f 51/39/9 43/38/9 45/37/9
f 48/30/4 52/21/4 47/28/4
f 52/21/4 48/30/4 53/23/4
f 53/23/4 48/30/4 54/24/4
f 54/24/4 48/30/4 55/17/4
f 55/17/4 48/30/4 56/19/4
f 56/19/4 48/30/4 57/31/4
f 56/19/4 57/31/4 58/20/4
f 58/20/4 57/31/4 59/15/4
f 59/15/4 57/31/4 60/16/4
f 60/16/4 57/31/4 49/25/4
f 49/25/4 57/31/4 50/32/4
f 51/26/4 47/28/4 52/21/4
f 45/27/4 47/28/4 51/26/4
f 47/28/4 45/27/4 46/29/4
f 51/26/4 52/21/4 61/22/4
f 51/26/4 61/22/4 62/9/4
f 54/24/4 62/9/4 61/22/4
f 51/26/4 62/9/4 63/10/4
f 51/26/4 63/10/4 64/12/4
f 51/26/4 64/12/4 49/25/4
f 49/25/4 64/12/4 65/14/4
f 49/25/4 65/14/4 60/16/4
f 65/14/4 64/12/4 66/13/4
f 66/13/4 58/20/4 59/15/4
f 58/20/4 66/13/4 67/18/4
f 66/13/4 64/12/4 68/11/4
f 62/9/4 54/24/4 68/11/4
f 67/18/4 54/24/4 55/17/4
f 48/39/10 40/38/10 57/37/10
f 40/38/10 48/39/10 39/40/10
f 35/33/1 51/36/1 49/34/1
f 51/36/1 35/33/1 33/35/1
f 57/34/5 37/35/5 50/36/5
f 37/35/5 57/34/5 40/33/5

usemtl metal

f 52/34/3 32/7/3 31/5/3
f 32/7/3 52/34/3 69/24/3
f 69/24/3 52/34/3 70/23/3
f 70/23/3 52/34/3 53/41/3
f 62/41/2 4/5/2 63/34/2
f 4/5/2 62/41/2 5/7/2
f 5/7/2 62/41/2 71/23/2
f 5/7/2 71/23/2 72/24/2
f 20/5/5 73/24/5 18/7/5
f 73/24/5 20/5/5 74/23/5
f 56/34/5 74/23/5 20/5/5
f 74/23/5 56/34/5 58/41/5
f 75/18/3 12/4/3 11/3/3
f 12/4/3 75/18/3 76/20/3
f 78/23/3 75/18/3 77/24/3
f 75/18/3 78/23/3 79/17/3
f 62/34/3 78/23/3 71/21/3
f 78/23/3 62/34/3 68/41/3
f 66/42/3 80/19/3 79/17/3
f 80/19/3 66/42/3 59/36/3
f 8/7/3 72/22/3 77/24/3
f 72/22/3 8/7/3 5/5/3
f 60/34/1 16/7/1 15/5/1
f 16/7/1 60/34/1 81/24/1
f 81/24/1 60/34/1 82/23/1
f 82/23/1 60/34/1 65/41/1
f 78/17/5 64/36/5 83/19/5
f 64/36/5 78/17/5 68/42/5
f 84/24/5 78/17/5 77/18/5
f 78/17/5 84/24/5 85/23/5
f 85/23/5 53/34/5 54/41/5
f 53/34/5 85/23/5 70/21/5
f 32/5/5 84/24/5 29/7/5
f 84/24/5 32/5/5 69/22/5
f 86/20/5 8/3/5 77/18/5
f 8/3/5 86/20/5 3/4/5
f 87/17/2 75/24/2 79/23/2
f 75/24/2 87/17/2 88/18/2
f 82/21/2 66/41/2 79/23/2
f 66/41/2 82/21/2 65/34/2
f 75/24/2 16/5/2 81/22/2
f 16/5/2 75/24/2 11/7/2
f 55/36/2 87/17/2 67/42/2
f 87/17/2 55/36/2 89/19/2
f 88/18/2 24/4/2 22/3/2
f 24/4/2 88/18/2 90/20/2
f 34/16/6 91/13/6 44/19/6
f 91/13/6 34/16/6 36/10/6
f 91/13/6 36/10/6 92/11/6
f 92/11/6 36/10/6 93/24/6
f 94/18/6 44/19/6 91/13/6
f 44/19/6 94/18/6 38/21/6
f 38/21/6 94/18/6 93/24/6
f 38/21/6 93/24/6 36/10/6
f 97/11/6 96/18/6 95/13/6
f 96/18/6 97/11/6 98/24/6
f 95/13/4 96/18/4 97/11/4
f 98/24/4 97/11/4 96/18/4
f 80/9/6 87/24/6 79/11/6
f 87/24/6 80/9/6 74/22/6
f 78/13/6 82/12/6 79/11/6
f 82/12/6 78/13/6 83/14/6
f 78/13/6 99/20/6 71/15/6
f 99/20/6 78/13/6 85/18/6
f 87/24/6 70/17/6 85/18/6
f 70/17/6 87/24/6 89/23/6
f 73/20/4 75/13/4 88/18/4
f 75/13/4 73/20/4 76/15/4
f 75/13/4 86/12/4 77/11/4
f 86/12/4 75/13/4 81/14/4
f 72/9/4 84/24/4 77/11/4
f 84/24/4 72/9/4 100/22/4
f 84/24/4 90/17/4 88/18/4
f 90/17/4 84/24/4 69/23/4
f 58/34/1 87/23/1 74/21/1
f 87/23/1 58/34/1 67/41/1
f 87/23/1 84/18/1 88/24/1
f 84/18/1 87/23/1 85/17/1
f 22/7/1 73/22/1 88/24/1
f 73/22/1 22/7/1 18/5/1
f 84/18/1 30/4/1 29/3/1
f 30/4/1 84/18/1 100/20/1
f 54/42/1 99/19/1 85/17/1
f 99/19/1 54/42/1 61/36/1
f 12/3/5 60/36/5 15/4/5
f 60/36/5 12/3/5 59/42/5
f 59/42/5 12/3/5 76/18/5
f 59/42/5 76/18/5 80/17/5
f 90/18/3 20/4/3 24/3/3
f 20/4/3 90/18/3 56/36/3
f 56/36/3 90/18/3 89/17/3
f 56/36/3 89/17/3 55/42/3
f 86/18/1 4/4/1 3/3/1
f 4/4/1 86/18/1 63/36/1
f 63/36/1 86/18/1 83/17/1
f 63/36/1 83/17/1 64/42/1
f 52/36/2 99/17/2 61/42/2
f 99/17/2 52/36/2 100/18/2
f 31/4/2 100/18/2 52/36/2
f 100/18/2 31/4/2 30/3/2

usemtl metalDark

f 98/44/2 66/41/2 97/43/2
f 66/41/2 98/44/2 67/42/2
f 97/43/2 93/45/2 98/44/2
f 93/45/2 97/43/2 92/46/2
f 91/46/3 97/44/3 95/43/3
f 97/44/3 91/46/3 92/45/3
f 66/42/3 95/43/3 97/44/3
f 95/43/3 66/42/3 68/41/3
f 96/43/5 91/45/5 95/44/5
f 91/45/5 96/43/5 94/46/5
f 95/44/5 54/41/5 96/43/5
f 54/41/5 95/44/5 68/42/5
f 98/43/1 54/42/1 67/41/1
f 54/42/1 98/43/1 96/44/1
f 93/46/1 96/44/1 98/43/1
f 96/44/1 93/46/1 94/45/1
f 73/24/5 80/17/5 76/18/5
f 80/17/5 73/24/5 74/23/5
f 70/23/3 90/18/3 69/24/3
f 90/18/3 70/23/3 89/17/3
f 82/23/1 86/18/1 81/24/1
f 86/18/1 82/23/1 83/17/1
f 99/17/2 72/24/2 71/23/2
f 72/24/2 99/17/2 100/18/2

usemtl _defaultMat

f 79/42/3 76/18/3 75/17/3
f 76/42/3 79/18/3 80/17/3
f 74/17/1 88/24/1 73/23/1
f 88/17/1 74/24/1 87/23/1
f 89/36/2 88/17/2 87/42/2
f 88/36/2 89/17/2 90/42/2
f 69/18/5 85/23/5 84/17/5
f 85/18/5 69/23/5 70/17/5
f 79/18/2 81/23/2 82/17/2
f 81/18/2 79/23/2 75/17/2
f 77/36/5 83/17/5 86/42/5
f 83/36/5 77/17/5 78/42/5
f 71/24/3 77/17/3 72/18/3
f 77/24/3 71/17/3 78/18/3
f 85/4/1 100/18/1 84/36/1
f 100/4/1 85/18/1 99/36/1

