# Created by Kenney (www.kenney.nl)

mtllib platform_smallDiagonal.mtl

g platform_smallDiagonal

v 0.5 -2.255973E-16 -0.4
v 0.4 -2.255973E-16 -0.25
v 0.5 -2.255973E-16 -0.2
v -0.2 -2.255973E-16 0.5
v -0.25 -2.255973E-16 0.4
v -0.4000001 -2.255973E-16 0.5
v -0.4000001 -2.255973E-16 0.4
v -0.5 -2.255973E-16 0.4
v -0.4000001 -2.255973E-16 -0.4
v -0.4000001 -2.255973E-16 -0.5
v -0.5 -2.255973E-16 -0.4
v 0.4 -2.255973E-16 -0.5
v 0.4 -2.255973E-16 -0.4
v 0.5 0.1 -0.2
v -0.2 0.1 0.5
v 0.5 0.1 -0.4
v -0.4000001 0.1 -0.5
v -0.5 0.1 -0.4
v -0.4000001 0.1 0.5
v -0.5 0.1 0.4
v 0.4 0.1 -0.5
v 0.4 0.1 -0.25
v 0.4 0.1 -0.4
v -0.4000001 0.1 -0.4
v -0.25 0.1 0.4
v -0.4000001 0.1 0.4
v 0.3 0.1 -0.3
v -0.3 0.1 -0.3
v -0.3 0.1 0.3
v 0.3 -2.255973E-16 -0.3
v -0.3 -2.255973E-16 0.3
v -0.3 -2.255973E-16 -0.3
v 0.3 0.05 -0.3
v -0.3 0.05 0.3
v -0.3 0.05 -0.3

vn 0 -1 0
vn 0.7071068 0 0.7071068
vn 1 0 0
vn -0.7071068 0 -0.7071068
vn -0.7071068 0 0.7071068
vn 0 0 1
vn 0 0 -1
vn -1 0 0
vn 0 1 0
vn 0.7071068 0 -0.7071068

vt 19.68504 -15.74803
vt 15.74803 -9.84252
vt 19.68504 -7.874016
vt -7.874016 19.68504
vt -9.84252 15.74803
vt -15.74803 19.68504
vt -15.74803 15.74803
vt -19.68504 15.74803
vt -15.74803 -15.74803
vt -15.74803 -19.68504
vt -19.68504 -15.74803
vt 15.74803 -19.68504
vt 15.74803 -15.74803
vt 19.48719 3.937008
vt 19.48719 -8.881784E-15
vt -19.48719 3.937008
vt -19.48719 -8.881784E-15
vt 15.74803 3.937008
vt 15.74803 -8.881784E-15
vt 7.874016 3.937008
vt 7.874016 -8.881784E-15
vt -2.783885 -8.881784E-15
vt -2.783885 3.937008
vt 2.783885 -8.881784E-15
vt 2.783885 3.937008
vt -7.874016 -8.881784E-15
vt -15.74803 -8.881784E-15
vt -7.874016 3.937008
vt -15.74803 3.937008
vt -15.74803 -9.84252
vt -19.68504 -7.874016
vt 7.874016 19.68504
vt 9.84252 15.74803
vt 15.74803 19.68504
vt 15.74803 15.74803
vt 19.68504 15.74803
vt -11.81102 -11.81102
vt 11.81102 -11.81102
vt 11.81102 11.81102
vt -11.81102 11.81102
vt 11.81102 1.968504
vt 11.81102 -8.881784E-15
vt -11.81102 1.968504
vt -11.81102 -8.881784E-15
vt -11.81102 3.937008
vt 11.81102 3.937008
vt -16.70331 -8.881784E-15
vt -16.70331 1.968504
vt 16.70331 -8.881784E-15
vt 16.70331 1.968504
vt -16.70331 3.937008
vt 16.70331 3.937008

usemtl metalRed

f 3/3/1 2/2/1 1/1/1
f 2/2/1 3/3/1 4/4/1
f 2/2/1 4/4/1 5/5/1
f 5/5/1 4/4/1 6/6/1
f 5/5/1 6/6/1 7/7/1
f 7/7/1 6/6/1 8/8/1
f 7/7/1 8/8/1 9/9/1
f 9/9/1 8/8/1 10/10/1
f 10/10/1 8/8/1 11/11/1
f 2/2/1 12/12/1 1/1/1
f 12/12/1 9/9/1 10/10/1
f 12/12/1 2/2/1 13/13/1
f 12/12/1 13/13/1 9/9/1
f 15/16/2 3/15/2 14/14/2
f 3/15/2 15/16/2 4/17/2
f 14/20/3 1/19/3 16/18/3
f 1/19/3 14/20/3 3/21/3
f 11/24/4 17/23/4 10/22/4
f 17/23/4 11/24/4 18/25/4
f 19/25/5 8/22/5 6/24/5
f 8/22/5 19/25/5 20/23/5
f 15/28/6 6/27/6 4/26/6
f 6/27/6 15/28/6 19/29/6
f 17/18/7 12/27/7 10/19/7
f 12/27/7 17/18/7 21/29/7
f 8/19/8 18/29/8 11/27/8
f 18/29/8 8/19/8 20/18/8
f 21/10/9 22/30/9 16/11/9
f 22/30/9 21/10/9 23/9/9
f 23/9/9 21/10/9 24/13/9
f 24/13/9 21/10/9 17/12/9
f 22/30/9 14/31/9 16/11/9
f 14/31/9 22/30/9 15/32/9
f 15/32/9 22/30/9 25/33/9
f 15/32/9 25/33/9 19/34/9
f 19/34/9 25/33/9 26/35/9
f 19/34/9 26/35/9 20/36/9
f 20/36/9 26/35/9 24/13/9
f 20/36/9 24/13/9 17/12/9
f 20/36/9 17/12/9 18/1/9
f 21/25/10 1/22/10 12/24/10
f 1/22/10 21/25/10 16/23/10

usemtl metal

f 24/13/9 27/37/9 23/9/9
f 27/37/9 24/13/9 28/38/9
f 28/38/9 24/13/9 26/35/9
f 25/33/9 23/9/9 27/37/9
f 23/9/9 25/33/9 22/30/9
f 25/33/9 27/37/9 29/39/9
f 25/33/9 29/39/9 26/35/9
f 26/35/9 29/39/9 28/38/9
f 5/5/1 13/13/1 2/2/1
f 13/13/1 5/5/1 30/38/1
f 30/38/1 5/5/1 31/40/1
f 31/40/1 5/5/1 7/7/1
f 31/40/1 7/7/1 32/37/1
f 30/38/1 9/9/1 13/13/1
f 9/9/1 30/38/1 32/37/1
f 9/9/1 32/37/1 7/7/1
f 35/38/9 34/39/9 33/37/9
f 33/37/1 34/39/1 35/38/1

usemtl metalDark

f 34/43/3 32/42/3 35/41/3
f 32/42/3 34/43/3 31/44/3
f 35/41/3 29/45/3 34/43/3
f 29/45/3 35/41/3 28/46/3
f 31/49/4 33/48/4 30/47/4
f 33/48/4 31/49/4 34/50/4
f 34/50/4 27/51/4 33/48/4
f 27/51/4 34/50/4 29/52/4
f 33/41/6 32/44/6 30/42/6
f 32/44/6 33/41/6 35/43/6
f 27/46/6 35/43/6 33/41/6
f 35/43/6 27/46/6 28/45/6

