# Created by Kenney (www.kenney.nl)

mtllib platform_cornerOpen.mtl

g platform_cornerOpen

v -0.4000001 0 -0.5
v -0.4000001 0.1 -0.5
v -0.5 0 -0.4
v -0.5 0.1 -0.4
v 0.5 0 -0.5
v 0.5 0.1 -0.5
v 0.5 0.1 -0.4
v 0.5 -2.819966E-18 -0.4
v -0.5 0 0.5
v -0.5 0.1 0.5
v -0.4000001 1.973977E-17 0.5
v -0.4000001 -9.493934E-17 -0.4
v 0.3766389 -9.493934E-17 -0.4
v 0.3766389 0.1 -0.4
v -0.4000001 0.1 -0.4
v -0.4000001 0.1 0.5
v 0.5 0.05 -0.3
v 0.5 0.05 0.5
v -0.3 0.05 -0.3
v -0.3 0.05 0.5
v 0.5 0.1 -0.3
v -0.3 0.1 -0.3
v -0.3 0.1 0.5
v -0.3 3.947953E-17 0.5
v -0.3 0 -0.3
v 0.5 -5.639933E-18 -0.3

vn -0.7071068 0 -0.7071068
vn 0 0 -1
vn 1 0 0
vn -1 0 0
vn 0 -1 0
vn 0 1 0
vn 0 0 1

vt -2.783885 0
vt -2.783885 3.937008
vt 2.783885 0
vt 2.783885 3.937008
vt 15.74803 0
vt -19.68504 0
vt 15.74803 3.937008
vt -19.68504 3.937008
vt 19.68504 3.937008
vt 19.68504 0
vt 15.74803 -1.110223E-16
vt -15.74803 0
vt -15.74803 3.937008
vt -15.74803 19.68504
vt -15.74803 -15.74803
vt -19.68504 19.68504
vt -15.74803 -19.68504
vt -19.68504 -15.74803
vt 14.8283 -15.74803
vt 19.68504 -19.68504
vt 19.68504 -15.74803
vt -19.68504 -19.68504
vt 15.74803 -19.68504
vt -14.8283 -15.74803
vt 15.74803 -15.74803
vt 15.74803 19.68504
vt 19.68504 19.68504
vt -15.74803 7.771561E-16
vt -19.68504 -11.81102
vt 11.81102 -11.81102
vt 11.81102 19.68504
vt -11.81102 19.68504
vt -11.81102 -11.81102
vt 19.68504 -11.81102
vt 11.81102 3.937008
vt 11.81102 1.968504
vt 11.81102 -2.220446E-16
vt -11.81102 1.554312E-15
vt -11.81102 1.968504
vt -11.81102 3.937008
vt 19.68504 1.703082E-13
vt -11.81102 1.705303E-13
vt 19.68504 1.968504
vt 11.81102 -2.046363E-12
vt -19.68504 1.968504
vt -19.68504 -2.044809E-12

usemtl metalRed

f 3/3/1 2/2/1 1/1/1
f 2/2/1 3/3/1 4/4/1
f 2/7/2 5/6/2 1/5/2
f 5/6/2 2/7/2 6/8/2
f 7/7/3 5/10/3 6/9/3
f 5/10/3 7/7/3 8/11/3
f 9/10/4 4/13/4 3/12/4
f 4/13/4 9/10/4 10/9/4
f 9/16/5 12/15/5 11/14/5
f 12/15/5 9/16/5 1/17/5
f 1/17/5 9/16/5 3/18/5
f 1/17/5 13/19/5 12/15/5
f 5/20/5 13/19/5 1/17/5
f 13/19/5 5/20/5 8/21/5
f 2/23/6 7/18/6 6/22/6
f 7/18/6 2/23/6 14/24/6
f 14/24/6 2/23/6 15/25/6
f 15/25/6 2/23/6 4/21/6
f 15/25/6 4/21/6 16/26/6
f 16/26/6 4/21/6 10/27/6
f 11/28/7 10/8/7 9/6/7
f 10/8/7 11/28/7 16/13/7

usemtl metal

f 19/30/6 18/16/6 17/29/6
f 18/16/6 19/30/6 20/31/6
f 17/29/5 18/16/5 19/30/5
f 20/31/5 19/30/5 18/16/5
f 14/24/6 21/29/6 7/18/6
f 21/29/6 14/24/6 22/30/6
f 22/30/6 14/24/6 15/25/6
f 22/30/6 15/25/6 23/31/6
f 23/31/6 15/25/6 16/26/6
f 11/14/5 25/33/5 24/32/5
f 12/15/5 25/33/5 11/14/5
f 13/19/5 25/33/5 12/15/5
f 8/21/5 25/33/5 13/19/5
f 25/33/5 8/21/5 26/34/5

usemtl metalDark

f 21/35/3 8/11/3 7/7/3
f 8/11/3 21/35/3 17/36/3
f 26/37/3 8/11/3 17/36/3
f 24/38/7 16/13/7 11/28/7
f 16/13/7 24/38/7 20/39/7
f 16/13/7 20/39/7 23/40/7
f 17/43/7 25/42/7 26/41/7
f 25/42/7 17/43/7 19/39/7
f 21/9/7 19/39/7 17/43/7
f 19/39/7 21/9/7 22/40/7
f 20/45/3 25/44/3 19/36/3
f 25/44/3 20/45/3 24/46/3
f 22/35/3 20/45/3 19/36/3
f 20/45/3 22/35/3 23/8/3

