# Created by Kenney (www.kenney.nl)

mtllib platform_side.mtl

g platform_side

v -0.5 0 -0.5
v 0.5 0 -0.5
v -0.5 0.1 -0.5
v 0.5 0.1 -0.5
v 0.5 0 -0.4
v -0.5 0 -0.4
v -0.5 0.1 -0.4
v 0.5 0.1 -0.4
v 0.5 0.05 -0.3
v 0.5 0.05 0.5
v -0.5 0.05 -0.3
v -0.5 0.05 0.5
v 0.5 0.1 -0.3
v -0.5 0.1 -0.3
v 0.5 0 -0.3
v -0.5 0 -0.3

vn 0 0 -1
vn 0 -1 0
vn -1 0 0
vn 0 1 0
vn 1 0 0
vn 0 0 1

vt 19.68504 0
vt -19.68504 0
vt 19.68504 3.937008
vt -19.68504 3.937008
vt 19.68504 -15.74803
vt 19.68504 -19.68504
vt -19.68504 -15.74803
vt -19.68504 -19.68504
vt -15.74803 0
vt -15.74803 3.937008
vt 15.74803 3.937008
vt 15.74803 0
vt -19.68504 -11.81102
vt -19.68504 19.68504
vt 19.68504 -11.81102
vt 19.68504 19.68504
vt 19.68504 -1.364242E-12
vt -19.68504 -1.364242E-12
vt 19.68504 1.968504
vt -19.68504 1.968504
vt 11.81102 3.937008
vt 11.81102 0
vt 11.81102 1.968504
vt -11.81102 0
vt -11.81102 3.937008
vt -11.81102 1.968504

usemtl metalRed

f 3/3/1 2/2/1 1/1/1
f 2/2/1 3/3/1 4/4/1
f 6/7/2 2/6/2 5/5/2
f 2/6/2 6/7/2 1/8/2
f 6/9/3 3/4/3 1/2/3
f 3/4/3 6/9/3 7/10/3
f 3/6/4 8/7/4 4/8/4
f 8/7/4 3/6/4 7/5/4
f 8/11/5 2/1/5 4/3/5
f 2/1/5 8/11/5 5/12/5

usemtl metal

f 11/15/4 10/14/4 9/13/4
f 10/14/4 11/15/4 12/16/4
f 9/13/2 10/14/2 11/15/2
f 12/16/2 11/15/2 10/14/2
f 7/5/4 13/13/4 8/7/4
f 13/13/4 7/5/4 14/15/4
f 16/13/2 5/5/2 15/15/2
f 5/5/2 16/13/2 6/7/2

usemtl _defaultMat

f 8/1/6 6/11/6 5/12/6
f 6/1/6 8/11/6 7/12/6

usemtl metalDark

f 9/19/6 16/18/6 15/17/6
f 16/18/6 9/19/6 11/20/6
f 13/3/6 11/20/6 9/19/6
f 11/20/6 13/3/6 14/4/6
f 13/21/5 5/12/5 8/11/5
f 5/12/5 13/21/5 15/22/5
f 15/22/5 13/21/5 9/23/5
f 16/24/3 7/10/3 6/9/3
f 7/10/3 16/24/3 14/25/3
f 14/25/3 16/24/3 11/26/3

