# Created by Kenney (www.kenney.nl)

mtllib rail_end.mtl

g rail_end

v -0.4000001 0 -0.5
v -0.4000001 0.15 -0.5
v -0.4000001 0 -0.45
v -0.4000001 0.15 -0.45
v -0.3499999 0 -0.45
v -0.3499999 0 -0.5
v -0.3866026 0.2 -0.5
v -0.3866026 0.2 -0.45
v -0.3 0.2 -0.45
v -0.3 0.2 -0.5
v -0.3341506 0.1841506 -0.45
v -0.3341506 0.1841506 -0.5
v -0.3 0.25 -0.5
v -0.3 0.25 -0.45
v -0.3499999 0.2366025 -0.5
v -0.3499999 0.2366025 -0.45
v 0.5 0.2 -0.45
v 0.5 0.25 -0.45
v -0.3499999 0.15 -0.45
v 0.5 0.2 -0.5
v 0.5 0.25 -0.5
v -0.3499999 0.15 -0.5
v -0.3499999 0.15 -0.4749999
v 0.5 0.1 -0.4749999
v -0.3499999 0.1 -0.4749999
v 0.5 0.15 -0.4749999

vn -1 0 0
vn 0 -1 0
vn -0.9659258 0.258819 0
vn -0.8660254 0.5 0
vn 0.4209739 -0.9070728 0
vn -0.258819 0.9659258 0
vn -0.5 0.8660254 0
vn 0 0 1
vn 1 0 0
vn 0 1 0
vn 0 0 -1
vn 0.9070728 -0.4209739 0

vt -19.68504 9.473903E-15
vt -19.68504 5.905512
vt -17.71654 9.473903E-15
vt -17.71654 5.905512
vt -13.77953 -17.71654
vt -13.77953 -19.68504
vt -15.74803 -17.71654
vt -15.74803 -19.68504
vt -19.68504 1.628396
vt -19.68504 3.666341
vt -17.71654 1.628396
vt -17.71654 3.666341
vt 17.71654 -7.398702
vt 19.68504 -7.398702
vt 17.71654 -8.880958
vt 19.68504 -8.880958
vt -19.68504 -8.861141
vt -17.71654 -8.861141
vt -19.68504 -10.89909
vt -17.71654 -10.89909
vt -19.68504 -3.156855
vt -17.71654 -3.156855
vt -19.68504 -5.1948
vt -17.71654 -5.1948
vt 19.68504 7.874016
vt -11.81102 7.874016
vt 19.68504 9.84252
vt -15.22057 7.874016
vt -13.77953 9.315061
vt -11.81102 9.84252
vt -13.15554 7.250025
vt -15.74803 5.905512
vt -13.77953 5.905512
vt -15.74803 1.154802E-09
vt -13.77953 1.154802E-09
vt 19.68504 -17.71654
vt 19.68504 -19.68504
vt -11.81102 -17.71654
vt -11.81102 -19.68504
vt 17.71654 9.84252
vt 17.71654 7.874016
vt -19.68504 -19.68504
vt -19.68504 -17.71654
vt 11.81102 -19.68504
vt 11.81102 -17.71654
vt 15.74803 -6.594941E-08
vt 13.77953 -6.594941E-08
vt 15.74803 5.905512
vt 13.77953 5.905512
vt 15.22057 7.874016
vt 13.15554 7.250025
vt 11.81102 7.874016
vt 13.77953 9.315061
vt -19.68504 7.874016
vt -19.68504 9.84252
vt 11.81102 9.84252
vt 19.68504 1.038162
vt 19.68504 -0.444093
vt 17.71654 1.038162
vt 18.70079 -0.444093
vt 17.71654 -0.444093
vt 19.68504 5.905512
vt 19.68504 -1.140726E-08
vt 18.70079 5.905512
vt 17.71654 -1.140726E-08
vt 17.71654 5.905512
vt 19.68504 3.937008
vt -13.77953 3.937008

usemtl metalRed

f 3/3/1 2/2/1 1/1/1
f 2/2/1 3/3/1 4/4/1
f 3/7/2 6/6/2 5/5/2
f 6/6/2 3/7/2 1/8/2
f 4/11/3 7/10/4 2/9/3
f 7/10/4 4/11/3 8/12/4
f 11/15/5 10/14/5 9/13/5
f 10/14/5 11/15/5 12/16/5
f 15/19/7 14/18/6 13/17/6
f 14/18/6 15/19/7 16/20/7
f 7/23/4 16/22/7 15/21/7
f 16/22/7 7/23/4 8/24/4
f 18/27/8 9/26/8 17/25/8
f 9/26/8 18/27/8 8/28/8
f 8/28/8 18/27/8 16/29/8
f 16/29/8 18/27/8 14/30/8
f 8/28/8 11/31/8 9/26/8
f 4/32/8 11/31/8 8/28/8
f 4/32/8 19/33/8 11/31/8
f 3/34/8 19/33/8 4/32/8
f 19/33/8 3/34/8 5/35/8
f 9/38/2 20/37/2 17/36/2
f 20/37/2 9/38/2 10/39/2
f 18/40/9 20/25/9 21/27/9
f 20/25/9 18/40/9 17/41/9
f 13/44/10 18/43/10 21/42/10
f 18/43/10 13/44/10 14/45/10
f 2/48/11 6/47/11 1/46/11
f 6/47/11 2/48/11 22/49/11
f 22/49/11 2/48/11 7/50/11
f 22/49/11 7/50/11 12/51/11
f 12/51/11 7/50/11 10/52/11
f 10/52/11 7/50/11 15/53/11
f 10/52/11 15/53/11 20/54/11
f 20/54/11 15/53/11 21/55/11
f 21/55/11 15/53/11 13/56/11
f 11/59/12 22/58/12 12/57/12
f 22/58/12 11/59/12 23/60/12
f 23/60/12 11/59/12 19/61/12
f 23/64/9 6/63/9 22/62/9
f 6/63/9 23/64/9 5/65/9
f 5/65/9 23/64/9 19/66/9

usemtl metal

f 26/62/8 25/68/8 24/67/8
f 25/68/8 26/62/8 23/33/8
f 24/67/11 25/68/11 26/62/11
f 23/33/11 26/62/11 25/68/11

