# Created by Kenney (www.kenney.nl)

mtllib rail_middle.mtl

g rail_middle

v 0.5 0.1 -0.4749999
v 0.01249993 0.1 -0.4749999
v 0.5 0.15 -0.4749999
v 0.01249993 0.15 -0.4749999
v -0.01250005 0.1 -0.4749999
v -0.5 0.1 -0.4749999
v -0.01250005 0.15 -0.4749999
v -0.5 0.15 -0.4749999
v -0.5 0.2 -0.5
v -0.5 0.25 -0.5
v -0.5 0.2 -0.45
v -0.5 0.25 -0.45
v 0.5 0.25 -0.5
v 0.5 0.2 -0.5
v 0.5 0.25 -0.45
v 0.5 0.2 -0.45
v 0.01250005 0.2 -0.4625
v -0.01250005 0.2 -0.4625
v 0.01249993 0.2 -0.4875
v -0.01250005 0.2 -0.4875
v -0.01250005 -5.029064E-17 -0.4875
v 0.01249993 -5.029064E-17 -0.4875
v 0.01250005 -5.029064E-17 -0.4625
v -0.01250005 -5.029064E-17 -0.4625

vn 0 0 1
vn 0 0 -1
vn -1 0 0
vn 1 0 0
vn 0 -1 0
vn 0 1 0

vt 19.68504 3.937008
vt 0.4921255 3.937008
vt 19.68504 5.905512
vt 0.4921255 5.905512
vt -0.4921255 3.937008
vt -19.68504 3.937008
vt -0.4921255 5.905512
vt -19.68504 5.905512
vt -19.68504 7.874016
vt -19.68504 9.84252
vt -17.71654 7.874016
vt -17.71654 9.84252
vt 19.68504 9.84252
vt 19.68504 7.874016
vt 17.71654 9.84252
vt 17.71654 7.874016
vt 19.68504 -19.68504
vt 0.4921255 -18.20866
vt 19.68504 -17.71654
vt -19.68504 -17.71654
vt -0.4921255 -18.20866
vt 0.4921255 -19.19291
vt -19.68504 -19.68504
vt -0.4921255 -19.19291
vt 0.492125 -1.979947E-15
vt -0.4921259 -1.979947E-15
vt 0.492125 7.874016
vt -0.4921259 7.874016
vt 19.19291 7.874016
vt 19.19291 -1.979947E-15
vt 18.20866 7.874016
vt 18.20866 -1.979947E-15
vt -19.19291 -1.979947E-15
vt -19.19291 7.874016
vt -18.20866 -1.979947E-15
vt -18.20866 7.874016
vt 0.492126 -1.979947E-15
vt -0.492125 -1.979947E-15
vt 0.492126 7.874016
vt -0.492125 7.874016

usemtl metal

f 3/3/1 2/2/1 1/1/1
f 2/2/1 3/3/1 4/4/1
f 1/1/2 2/2/2 3/3/2
f 4/4/2 3/3/2 2/2/2
f 7/7/1 6/6/1 5/5/1
f 6/6/1 7/7/1 8/8/1
f 5/5/2 6/6/2 7/7/2
f 8/8/2 7/7/2 6/6/2

usemtl metalRed

f 11/11/3 10/10/3 9/9/3
f 10/10/3 11/11/3 12/12/3
f 15/15/4 14/14/4 13/13/4
f 14/14/4 15/15/4 16/16/4
f 16/19/5 17/18/5 14/17/5
f 17/18/5 16/19/5 11/20/5
f 17/18/5 11/20/5 18/21/5
f 19/22/5 14/17/5 17/18/5
f 14/17/5 19/22/5 9/23/5
f 9/23/5 18/21/5 11/20/5
f 9/23/5 19/22/5 20/24/5
f 9/23/5 20/24/5 18/21/5
f 15/13/1 11/9/1 16/14/1
f 11/9/1 15/13/1 12/10/1
f 10/17/6 15/20/6 13/23/6
f 15/20/6 10/17/6 12/19/6
f 10/13/2 14/9/2 9/14/2
f 14/9/2 10/13/2 13/10/2
f 20/27/2 22/26/2 21/25/2
f 22/26/2 20/27/2 19/28/2
f 21/25/1 22/26/1 20/27/1
f 19/28/1 20/27/1 22/26/1
f 17/31/4 22/30/4 19/29/4
f 22/30/4 17/31/4 23/32/4
f 19/29/3 22/30/3 17/31/3
f 23/32/3 17/31/3 22/30/3
f 24/35/3 20/34/3 21/33/3
f 20/34/3 24/35/3 18/36/3
f 21/33/4 20/34/4 24/35/4
f 18/36/4 24/35/4 20/34/4
f 24/21/5 22/22/5 23/18/5
f 22/22/5 24/21/5 21/24/5
f 23/18/6 22/22/6 24/21/6
f 21/24/6 24/21/6 22/22/6
f 17/39/1 24/38/1 23/37/1
f 24/38/1 17/39/1 18/40/1
f 23/37/2 24/38/2 17/39/2
f 18/40/2 17/39/2 24/38/2

