# Created by Kenney (www.kenney.nl)

mtllib satelliteDish.mtl

g satelliteDish

v 0.25 0.05 0.175
v 0.25 0 0.175
v 0.175 0.05 0.25
v 0.175 0 0.25
v -0.175 -8.014827E-32 -0.25
v -0.175 0.05 -0.25
v -0.25 -8.014827E-32 -0.175
v -0.25 0.05 -0.175
v -0.25 0 0.1
v -0.25 0.05 0.1
v -0.25 -8.014827E-32 0.175
v -0.25 0.05 0.175
v -0.1500001 0 0.1
v -0.1500001 0.05 0.1
v 0.25 0 -0.1
v 0.15 0 -0.1
v 0.25 0.05 -0.1
v 0.15 0.05 -0.1
v 0.1 0 -0.25
v 0.1 0.05 -0.25
v 0.1 0 -0.15
v 0.1 0.05 -0.15
v -0.0999999 0 -0.25
v -0.0999999 0.05 -0.25
v -0.175 -8.014827E-32 0.25
v -0.175 0.05 0.25
v -0.0999999 0 0.25
v -0.0999999 0.05 0.25
v 0.175 -8.014827E-32 -0.25
v 0.175 0.05 -0.25
v -0.1500001 0 -0.1
v -0.1500001 0.05 -0.1
v 0.1 0 0.25
v 0.1 0.05 0.25
v -0.25 0 -0.1
v -0.25 0.05 -0.1
v -0.0999999 0.05 0.15
v -0.0999999 0 0.15
v 0.25 0.05 -0.175
v 0.25 -8.014827E-32 -0.175
v -0.0999999 0 -0.15
v -0.0999999 0.05 -0.15
v 0.15 0.05 0.1
v 0.15 0 0.1
v -0.04999995 0.1 -0.04999995
v -0.04999995 0.35 -0.04999995
v -0.04999995 0.1 0.04999995
v -0.04999995 0.25 0.04999995
v 0.2433783 0.1644489 0.2086377
v 0.2192597 0.14496 0.15504
v 0 0.09316505 0.2799215
v 0 0.08074033 0.2192597
v 0.04999995 0.1 0.04999995
v 0.04999995 0.25 0.04999995
v 0.04999995 0.35 -0.04999995
v 0.04999995 0.1 -0.04999995
v 0.2192597 0.45504 -0.15504
v 0.3100801 0.3 0
v 0.2433783 0.5086377 -0.1355511
v 0.3441888 0.3365433 0.03654325
v 0.25 0.05 0.1
v 0.25 0 0.1
v 0.1 0 0.15
v 0.2574077 0.3365433 0.03654325
v 0.1820147 0.2078394 0.1652472
v 0.1820147 0.4652471 -0.09216058
v 0.1817276 0.3365433 0.03654325
v 0.1285008 0.4274071 -0.05432057
v 0 0.518558 -0.1454715
v 0 0.4650441 -0.09195757
v -0.1820147 0.4652471 -0.09216058
v -0.1285009 0.4274071 -0.05432057
v -0.1817276 0.3365433 0.03654325
v 0.1285008 0.2456795 0.1274071
v 0 0.1545285 0.2185581
v 0 0.2080425 0.1650441
v -0.1285009 0.2456795 0.1274071
v -0.1820147 0.2078394 0.1652472
v -0.2574077 0.3365433 0.03654325
v 0.1 0.05 0.15
v -0.3100801 0.3 0
v -0.3441887 0.3365433 0.03654325
v -0.2192597 0.14496 0.15504
v -0.2433782 0.1644489 0.2086377
v -0.2192597 0.45504 -0.15504
v -0.2433782 0.5086377 -0.1355511
v 0.1 0.05 -0.1
v -0.0999999 0.05 -0.1
v 0.1 0.05 0.1
v -0.0999999 0.05 0.1
v 0 0.5192597 -0.2192597
v 0 0.5799215 -0.2068349
v 0.03819799 0.3635534 0.009533167
v 0.019099 0.3854037 0.0583936
v -0.03819799 0.3635534 0.009533167
v -0.019099 0.3854037 0.0583936
v 0.019099 0.3583935 0.08540368
v 0.009549499 0.5200725 0.2065674
v 0.009549499 0.5065674 0.2200725
v -0.009549618 0.5065674 0.2200725
v -0.009549618 0.5200725 0.2065674
v -0.019099 0.3583935 0.08540368
v 0.03819799 0.3095331 0.06355333
v -0.03819799 0.3095331 0.06355333
v -0.206835 0.519341 -0.0731678
v 0 0.5799215 -0.1337484
v -0.0999999 0.1 -0.1
v -0.0999999 0.1 0.1
v 0.2433783 0.545181 -0.09900784
v 0.3441888 0.3730865 0.0730865
v 0.2433783 0.2009922 0.245181
v -0.2433782 0.545181 -0.09900784
v -0.3441887 0.3730865 0.0730865
v 0.2925088 0.3730865 0.0730865
v 0.2068349 0.519341 -0.0731678
v 0 0.6164648 -0.1702917
v -0.2925088 0.3730865 0.0730865
v 0.2068349 0.2268322 0.2193409
v 0 0.1297083 0.3164648
v 0 0.1662516 0.2799215
v -0.206835 0.2268322 0.2193409
v -0.2433782 0.2009922 0.245181
v 0.1395676 0.3365433 0.03654325
v 0.0986892 0.2667595 0.1063271
v 0.0986892 0.4063271 -0.03324056
v 0 0.4352325 -0.06214595
v -0.09868908 0.4063271 -0.03324056
v 0 0.2378541 0.1352324
v -0.09868908 0.2667595 0.1063271
v -0.1395676 0.3365433 0.03654325
v 0.1 0.1 0.1
v 0.1 0.1 -0.1

vn 0.7071068 0 0.7071068
vn -0.7071068 0 -0.7071068
vn -1 0 0
vn 0 0 -1
vn 0 0 1
vn 1 0 0
vn -0.7071068 0 0.7071068
vn 0.7071068 0 -0.7071068
vn 0.3267331 -0.9258952 0.1896412
vn 0.7888033 -0.1370918 -0.5991621
vn 0 -1 0
vn 0 0.7071068 0.7071068
vn -0.7888033 -0.5991621 -0.1370918
vn -0.3267331 -0.9258952 0.1896412
vn -0.7888033 -0.1370918 -0.5991621
vn 0 1 0
vn 0.7888033 -0.5991621 -0.1370918
vn -0.3267331 0.1896411 -0.9258952
vn 0.3267331 0.1896411 -0.9258952
vn 0 0.9128762 -0.4082367
vn 0.998862 0.03372421 0.03372421
vn 0 -0.6725779 0.7400263
vn -0.998862 0.03372421 0.03372421
vn 0.9341677 0.2523197 0.2523197
vn -0.9341677 0.2523197 0.2523197
vn 0 0.7400263 -0.6725779
vn 0 -0.4082367 0.9128762
vn -0.998862 -0.03372421 -0.03372421
vn 0 -0.7071068 -0.7071068
vn 0 0.6725779 -0.7400263
vn 0.998862 -0.03372421 -0.03372421
vn 0 -0.7400263 0.6725779
vn 0.3241504 -0.1775176 0.9292008
vn 0.9238795 0.2705981 -0.2705981
vn 0.9238795 -0.2705981 0.2705981
vn -0.9238795 0.2705981 -0.2705981
vn 0.3826834 -0.6532815 0.6532815
vn -0.3826834 0.6532815 -0.6532815
vn 0.7825681 0.6050505 0.1466327
vn -0.3241504 0.9292008 -0.1775177
vn -0.7825681 0.1466327 0.6050504
vn -0.9238795 -0.2705981 0.2705981
vn -0.3241504 -0.1775176 0.9292008
vn -0.3826834 -0.6532815 0.6532815
vn -0.7825681 0.6050505 0.1466327
vn 0.3826834 0.6532815 -0.6532815
vn 0.3241504 0.9292008 -0.1775177
vn 0.7825681 0.1466327 0.6050504

vt 2.087914 1.968504
vt 2.087914 0
vt -2.087914 1.968504
vt -2.087914 0
vt -2.087914 -3.155444E-30
vt 2.087914 -3.155444E-30
vt 3.937008 0
vt 3.937008 1.968504
vt 6.889764 -3.155444E-30
vt 6.889764 1.968504
vt 9.84252 0
vt 5.905512 0
vt 9.84252 1.968504
vt 5.905512 1.968504
vt -9.84252 0
vt -9.84252 1.968504
vt -5.905512 0
vt -5.905512 1.968504
vt -6.889764 -3.155444E-30
vt -6.889764 1.968504
vt -3.937008 0
vt -3.937008 1.968504
vt 6.889764 0
vt -1.968504 3.937008
vt -1.968504 13.77953
vt 1.968504 3.937008
vt 1.968504 9.84252
vt -2.294199 13.93666
vt -0.9458497 11.90564
vt -9.531382 6.507876
vt -7.465834 5.213046
vt -1.968504 9.84252
vt 1.968504 13.77953
vt -0.3607296 19.19435
vt -7.384215 13.03223
vt -1.546088 21.32461
vt -9.342155 14.48466
vt -6.889764 0
vt 9.84252 6.889764
vt 9.84252 3.937008
vt 6.889764 9.84252
vt 5.905512 3.937008
vt 3.937008 9.84252
vt 5.905512 -3.937008
vt 3.937008 -9.84252
vt 6.889764 -9.84252
vt 9.84252 -6.889764
vt 9.84252 -3.937008
vt 3.937008 5.905512
vt 3.937008 -5.905512
vt -3.937008 5.905512
vt -3.937008 -5.905512
vt -6.889764 9.84252
vt -3.937008 9.84252
vt -5.905512 3.937008
vt -3.937008 -9.84252
vt -9.84252 3.937008
vt -9.84252 6.889764
vt -5.905512 -3.937008
vt -6.889764 -9.84252
vt -9.84252 -3.937008
vt -9.84252 -6.889764
vt 10.13416 8.351655
vt 7.165936 1.185719
vt 7.165936 15.51759
vt 7.15463 8.351655
vt 5.059087 13.41074
vt 0 18.48582
vt 0 15.50628
vt -7.165936 15.51759
vt -5.059087 13.41074
vt -7.15463 8.351655
vt 5.059087 3.292568
vt 0 -1.782508
vt 0 1.197025
vt -5.059087 3.292568
vt -7.165936 1.185719
vt -10.13416 8.351655
vt 2.090359 16.6627
vt 3.737762 18.45968
vt 7.491896 9.038762
vt 9.733467 9.997108
vt 9.531382 6.507876
vt 7.465834 5.213046
vt 2.294199 13.93666
vt 0.9458497 11.90564
vt 0.3607296 19.19435
vt 1.546088 21.32461
vt 7.384215 13.03223
vt 9.342155 14.48466
vt -3.937008 -3.937008
vt 3.937008 -3.937008
vt -3.937008 3.937008
vt 3.937008 3.937008
vt -2.090359 16.6627
vt -7.491896 9.038762
vt -3.737762 18.45968
vt -9.733467 9.997108
vt 6.109078 15.95352
vt -2.872575 18.52858
vt 7.259839 18.10267
vt -2.709796 20.96099
vt -6.109078 15.95352
vt -7.259839 18.10267
vt 2.872575 18.52858
vt 2.709796 20.96099
vt -1.50386 6.185765
vt -0.7519302 8.292993
vt 1.50386 6.185765
vt 0.7519302 8.292993
vt 3.335062 14.07279
vt 8.115259 20.44172
vt 2.272277 15.13678
vt 8.646651 19.90973
vt 0.3759651 7.975689
vt -0.3759651 8.72762
vt -0.3759651 7.975689
vt 0.3759651 8.72762
vt 0.3759651 20.58619
vt -0.7519302 12.7032
vt 0.7519302 12.7032
vt -0.3759651 20.58619
vt -8.115259 20.44172
vt -3.335062 14.07279
vt -2.272277 15.13678
vt -8.646651 19.90973
vt 0.02980451 13.45899
vt -2.023398 11.26109
vt -2.023355 14.348
vt -3.049956 13.24905
vt -0.02980451 13.45899
vt 2.023355 14.348
vt 2.023398 11.26109
vt 3.049956 13.24905
vt 0.3759651 19.78955
vt -0.7519302 11.90657
vt 0.7519302 11.90657
vt -0.3759651 19.78955
vt -1.50386 12.14607
vt -0.7519302 14.2533
vt 1.50386 12.14607
vt 0.7519302 14.2533
vt -3.662704 13.79122
vt -2.264153 11.76796
vt -9.665982 7.337699
vt -5.570935 16.99874
vt -6.739873 19.16279
vt 1.886443 19.13147
vt 1.73442 21.58635
vt 2.428198 16.38382
vt -5.189612 9.345881
vt 1.047491 17.87829
vt -6.570319 10.84035
vt -2.428198 16.38382
vt -1.047491 17.87829
vt 5.189612 9.345881
vt 6.570319 10.84035
vt 13.55074 8.351655
vt 11.51609 8.351655
vt 9.58182 17.93348
vt 8.143108 16.49476
vt 0 21.9024
vt 0 19.86775
vt -9.58182 17.93348
vt -8.143108 16.49476
vt -11.51609 8.351655
vt -13.55074 8.351655
vt 9.58182 -1.230165
vt 8.143108 0.2085462
vt 0 -5.199085
vt 0 -3.16444
vt -8.143108 0.2085462
vt -9.58182 -1.230165
vt 5.494787 8.351655
vt 3.885401 4.466253
vt 3.885401 12.23706
vt -5.684342E-14 13.84644
vt 1.50386 9.855515
vt -1.50386 9.855515
vt -3.885401 12.23706
vt -1.50386 6.847794
vt 1.50386 6.847794
vt 0 2.856868
vt -3.885401 4.466253
vt -5.494787 8.351655
vt -5.570322 8.989176
vt -6.297518 10.88943
vt 4.11593 12.69594
vt 3.388734 14.5962
vt 5.570322 8.989176
vt -4.11593 12.69594
vt 6.297518 10.88943
vt -3.388734 14.5962
vt -3.280497 16.41575
vt -7.71425 10.05156
vt -4.949107 18.22275
vt -9.987463 10.99072
vt 3.662704 13.79122
vt 9.665982 7.337699
vt 2.264153 11.76796
vt 7.547038 6.088864
vt 1.512656 19.27553
vt 2.701912 21.42848
vt 7.336874 14.15308
vt 9.320341 15.60752
vt 5.570935 16.99874
vt -1.886443 19.13147
vt 6.739873 19.16279
vt -1.73442 21.58635
vt 3.280497 16.41575
vt 4.949107 18.22275
vt 7.71425 10.05156
vt 9.987463 10.99072
vt -7.547038 6.088864
vt -1.512656 19.27553
vt -7.336874 14.15308
vt -2.701912 21.42848
vt -9.320341 15.60752
vt -1.968504 -1.968504
vt 1.968504 -1.968504
vt 1.968504 1.968504
vt -1.968504 1.968504
vt -12.20787 8.351655
vt -8.632271 16.98392
vt -8.632271 -0.2806158
vt -9.0305E-10 -3.856219
vt -1.968504 5.56777
vt 1.968504 5.56777
vt 8.632271 -0.2806158
vt 1.968504 11.13554
vt -1.968504 11.13554
vt 9.031637E-10 20.55953
vt 8.632271 16.98392
vt 12.20787 8.351655

usemtl metalDark

f 3/3/1 2/2/1 1/1/1
f 2/2/1 3/3/1 4/4/1
f 7/6/2 6/3/2 5/5/2
f 6/3/2 7/6/2 8/1/2
f 11/9/3 10/8/3 9/7/3
f 10/8/3 11/9/3 12/10/3
f 10/13/4 13/12/4 9/11/4
f 13/12/4 10/13/4 14/14/4
f 17/13/5 16/12/5 15/11/5
f 16/12/5 17/13/5 18/14/5
f 21/17/3 20/16/3 19/15/3
f 20/16/3 21/17/3 22/18/3
f 6/10/4 23/7/4 5/9/4
f 23/7/4 6/10/4 24/8/4
f 27/21/5 26/20/5 25/19/5
f 26/20/5 27/21/5 28/22/5
f 19/21/4 30/20/4 29/19/4
f 30/20/4 19/21/4 20/22/4
f 13/7/3 32/22/3 31/21/3
f 32/22/3 13/7/3 14/8/3
f 3/10/5 33/7/5 4/23/5
f 33/7/5 3/10/5 34/8/5
f 35/21/3 8/20/3 7/19/3
f 8/20/3 35/21/3 36/22/3
f 28/16/6 38/17/6 37/18/6
f 38/17/6 28/16/6 27/15/6
f 17/8/6 40/9/6 39/10/6
f 40/9/6 17/8/6 15/7/6
f 42/8/4 21/21/4 41/7/4
f 21/21/4 42/8/4 22/22/4
f 25/6/7 12/3/7 11/5/7
f 12/3/7 25/6/7 26/1/7
f 42/14/6 23/11/6 24/13/6
f 23/11/6 42/14/6 41/12/6
f 32/18/5 35/15/5 31/17/5
f 35/15/5 32/18/5 36/16/5
f 39/3/8 29/6/8 30/1/8
f 29/6/8 39/3/8 40/5/8
f 43/22/6 16/7/6 18/8/6
f 16/7/6 43/22/6 44/21/6
f 47/26/3 46/25/3 45/24/3
f 46/25/3 47/26/3 48/27/3
f 51/30/9 50/29/9 49/28/9
f 50/29/9 51/30/9 52/31/9
f 54/27/5 47/24/5 53/26/5
f 47/24/5 54/27/5 48/32/5
f 54/32/6 56/26/6 55/33/6
f 56/26/6 54/32/6 53/24/6
f 59/36/10 58/35/10 57/34/10
f 58/35/10 59/36/10 60/37/10
f 1/20/6 62/21/6 61/22/6
f 62/21/6 1/20/6 2/38/6
f 4/41/11 62/40/11 2/39/11
f 62/40/11 4/41/11 44/42/11
f 44/42/11 4/41/11 33/43/11
f 44/42/11 33/43/11 16/44/11
f 19/45/11 16/44/11 33/43/11
f 29/46/11 16/44/11 19/45/11
f 40/47/11 16/44/11 29/46/11
f 16/44/11 40/47/11 15/48/11
f 19/45/11 33/43/11 63/49/11
f 19/45/11 63/49/11 21/50/11
f 38/51/11 21/50/11 63/49/11
f 21/50/11 38/51/11 41/52/11
f 38/51/11 25/53/11 41/52/11
f 25/53/11 38/51/11 27/54/11
f 41/52/11 25/53/11 13/55/11
f 41/52/11 13/55/11 23/56/11
f 13/55/11 25/53/11 9/57/11
f 9/57/11 25/53/11 11/58/11
f 31/59/11 23/56/11 13/55/11
f 23/56/11 31/59/11 5/60/11
f 5/60/11 31/59/11 35/61/11
f 5/60/11 35/61/11 7/62/11
f 66/65/12 65/64/12 64/63/12
f 65/64/12 66/65/12 67/66/12
f 67/66/12 66/65/12 68/67/12
f 68/67/12 66/65/12 69/68/12
f 68/67/12 69/68/12 70/69/12
f 70/69/12 69/68/12 71/70/12
f 70/69/12 71/70/12 72/71/12
f 72/71/12 71/70/12 73/72/12
f 74/73/12 65/64/12 67/66/12
f 65/64/12 74/73/12 75/74/12
f 75/74/12 74/73/12 76/75/12
f 75/74/12 76/75/12 77/76/12
f 75/74/12 77/76/12 78/77/12
f 78/77/12 77/76/12 73/72/12
f 78/77/12 73/72/12 71/70/12
f 78/77/12 71/70/12 79/78/12
f 80/8/5 38/21/5 63/7/5
f 38/21/5 80/8/5 37/22/5
f 83/81/13 82/80/13 81/79/13
f 82/80/13 83/81/13 84/82/13
f 84/85/14 52/84/14 51/83/14
f 52/84/14 84/85/14 83/86/14
f 81/89/15 86/88/15 85/87/15
f 86/88/15 81/89/15 82/90/15
f 30/60/16 17/61/16 39/62/16
f 17/61/16 30/60/16 18/59/16
f 18/59/16 30/60/16 20/56/16
f 18/59/16 20/56/16 43/55/16
f 34/54/16 43/55/16 20/56/16
f 3/53/16 43/55/16 34/54/16
f 1/58/16 43/55/16 3/53/16
f 43/55/16 1/58/16 61/57/16
f 34/54/16 20/56/16 22/52/16
f 34/54/16 22/52/16 87/91/16
f 42/50/16 87/91/16 22/52/16
f 87/91/16 42/50/16 88/92/16
f 34/54/16 87/91/16 89/93/16
f 34/54/16 89/93/16 80/51/16
f 90/94/16 80/51/16 89/93/16
f 80/51/16 90/94/16 37/49/16
f 42/50/16 6/46/16 88/92/16
f 88/92/16 6/46/16 90/94/16
f 90/94/16 6/46/16 37/49/16
f 6/46/16 42/50/16 24/45/16
f 37/49/16 6/46/16 32/44/16
f 37/49/16 32/44/16 28/43/16
f 32/44/16 6/46/16 36/48/16
f 36/48/16 6/46/16 8/47/16
f 14/42/16 28/43/16 32/44/16
f 28/43/16 14/42/16 26/41/16
f 26/41/16 14/42/16 10/40/16
f 26/41/16 10/40/16 12/39/16
f 33/11/3 80/14/3 63/12/3
f 80/14/3 33/11/3 34/13/3
f 60/97/17 50/96/17 58/95/17
f 50/96/17 60/97/17 49/98/17
f 46/33/4 56/24/4 45/26/4
f 56/24/4 46/33/4 55/25/4
f 86/101/18 91/100/18 85/99/18
f 91/100/18 86/101/18 92/102/18
f 91/105/19 59/104/19 57/103/19
f 59/104/19 91/105/19 92/106/19
f 43/18/4 62/15/4 44/17/4
f 62/15/4 43/18/4 61/16/4

usemtl dark

f 95/109/20 94/108/20 93/107/20
f 94/108/20 95/109/20 96/110/20
f 94/113/21 98/112/21 97/111/21
f 99/114/21 97/111/21 98/112/21
f 99/117/12 98/116/12 100/115/12
f 101/118/12 100/115/12 98/116/12
f 102/121/22 97/120/22 100/119/22
f 99/122/22 100/119/22 97/120/22
f 96/125/23 102/124/23 101/123/23
f 100/126/23 101/123/23 102/124/23
f 94/129/24 103/128/24 93/127/24
f 103/128/24 94/129/24 97/130/24
f 104/133/25 96/132/25 95/131/25
f 96/132/25 104/133/25 102/134/25
f 94/137/26 96/136/26 98/135/26
f 101/138/26 98/135/26 96/136/26
f 103/141/27 102/140/27 104/139/27
f 102/140/27 103/141/27 97/142/27

usemtl _defaultMat

f 97/111/28 98/112/28 94/113/28
f 98/112/28 97/111/28 99/114/28
f 100/115/29 98/116/29 99/117/29
f 98/116/29 100/115/29 101/118/29
f 100/119/30 97/120/30 102/121/30
f 97/120/30 100/119/30 99/122/30
f 101/123/31 102/124/31 96/125/31
f 102/124/31 101/123/31 100/126/31
f 98/135/32 96/136/32 94/137/32
f 96/136/32 98/135/32 101/138/32
f 88/6/16 89/3/16 87/5/16
f 89/6/16 88/3/16 90/5/16
f 45/145/16 53/144/16 56/143/16
f 53/145/16 45/144/16 47/143/16

usemtl metal

f 69/148/33 105/147/33 71/146/33
f 105/147/33 69/148/33 106/149/33
f 90/8/3 107/93/3 88/22/3
f 107/93/3 90/8/3 108/94/3
f 109/152/34 60/151/34 59/150/34
f 60/151/34 109/152/34 110/153/34
f 110/152/35 49/151/35 60/150/35
f 49/151/35 110/152/35 111/153/35
f 82/156/36 112/155/36 86/154/36
f 112/155/36 82/156/36 113/157/36
f 109/160/12 114/159/12 110/158/12
f 114/159/12 109/160/12 115/161/12
f 115/161/12 109/160/12 116/162/12
f 115/161/12 116/162/12 106/163/12
f 106/163/12 116/162/12 112/164/12
f 106/163/12 112/164/12 105/165/12
f 105/165/12 112/164/12 117/166/12
f 117/166/12 112/164/12 113/167/12
f 114/159/12 111/168/12 110/158/12
f 111/168/12 114/159/12 118/169/12
f 111/168/12 118/169/12 119/170/12
f 119/170/12 118/169/12 120/171/12
f 119/170/12 120/171/12 121/172/12
f 119/170/12 121/172/12 122/173/12
f 122/173/12 121/172/12 117/166/12
f 122/173/12 117/166/12 113/167/12
f 125/176/12 124/175/12 123/174/12
f 124/175/12 125/176/12 126/177/12
f 124/175/12 126/177/12 93/178/12
f 93/178/12 126/177/12 95/179/12
f 95/179/12 126/177/12 127/180/12
f 95/179/12 127/180/12 104/181/12
f 103/182/12 124/175/12 93/178/12
f 124/175/12 103/182/12 128/183/12
f 128/183/12 103/182/12 104/181/12
f 128/183/12 104/181/12 129/184/12
f 129/184/12 104/181/12 127/180/12
f 129/184/12 127/180/12 130/185/12
f 49/188/37 119/187/37 51/186/37
f 119/187/37 49/188/37 111/189/37
f 112/192/38 92/191/38 86/190/38
f 92/191/38 112/192/38 116/193/38
f 131/94/5 90/22/5 89/8/5
f 90/22/5 131/94/5 108/93/5
f 117/196/39 78/195/39 79/194/39
f 78/195/39 117/196/39 121/197/39
f 65/200/40 120/199/40 118/198/40
f 120/199/40 65/200/40 75/201/40
f 64/204/41 115/203/41 66/202/41
f 115/203/41 64/204/41 114/205/41
f 107/94/4 87/22/4 88/8/4
f 87/22/4 107/94/4 132/93/4
f 84/156/42 113/155/42 82/154/42
f 113/155/42 84/156/42 122/157/42
f 115/208/43 69/207/43 66/206/43
f 69/207/43 115/208/43 106/209/43
f 119/192/44 84/191/44 51/190/44
f 84/191/44 119/192/44 122/193/44
f 65/212/45 114/211/45 64/210/45
f 114/211/45 65/212/45 118/213/45
f 92/188/46 109/187/46 59/186/46
f 109/187/46 92/188/46 116/189/46
f 78/144/47 120/145/47 75/214/47
f 120/145/47 78/144/47 121/143/47
f 105/217/48 79/216/48 71/215/48
f 79/216/48 105/217/48 117/218/48
f 132/91/16 56/219/16 131/93/16
f 56/219/16 132/91/16 107/92/16
f 56/219/16 107/92/16 45/220/16
f 45/220/16 107/92/16 47/221/16
f 53/222/16 131/93/16 56/219/16
f 131/93/16 53/222/16 108/94/16
f 108/94/16 53/222/16 47/221/16
f 108/94/16 47/221/16 107/92/16
f 131/93/6 87/8/6 132/94/6
f 87/8/6 131/93/6 89/22/6
f 50/225/29 57/224/29 58/223/29
f 57/224/29 50/225/29 52/226/29
f 57/224/29 52/226/29 54/227/29
f 54/227/29 52/226/29 48/228/29
f 48/228/29 52/226/29 83/229/29
f 48/228/29 83/229/29 46/230/29
f 55/231/29 57/224/29 54/227/29
f 57/224/29 55/231/29 91/232/29
f 91/232/29 55/231/29 46/230/29
f 91/232/29 46/230/29 85/233/29
f 85/233/29 46/230/29 83/229/29
f 85/233/29 83/229/29 81/234/29

usemtl metalRed

f 68/67/12 123/174/12 67/66/12
f 123/174/12 68/67/12 125/176/12
f 125/176/12 68/67/12 70/69/12
f 125/176/12 70/69/12 126/177/12
f 126/177/12 70/69/12 72/71/12
f 126/177/12 72/71/12 127/180/12
f 127/180/12 72/71/12 130/185/12
f 130/185/12 72/71/12 73/72/12
f 123/174/12 74/73/12 67/66/12
f 74/73/12 123/174/12 124/175/12
f 74/73/12 124/175/12 76/75/12
f 76/75/12 124/175/12 128/183/12
f 76/75/12 128/183/12 129/184/12
f 76/75/12 129/184/12 77/76/12
f 77/76/12 129/184/12 130/185/12
f 77/76/12 130/185/12 73/72/12

