# Created by Kenney (www.kenney.nl)

mtllib supports_low.mtl

g supports_low

v 0.4125 0.1 0.2875
v 0.4125 0 0.2875
v 0.4125 0.1 0.4125
v 0.4125 0 0.4125
v -0.2874999 0.1 0.2875
v -0.2874999 0 0.2875
v -0.2874999 0.1 0.4125
v -0.2874999 0 0.4125
v -0.4124999 0 0.4125
v -0.4124999 0 0.2875
v 0.2875 0 0.4125
v 0.2875 0 0.2875
v -0.4124999 0.1 0.4125
v 0.2875 0 -0.4125
v 0.4125 0 -0.4125
v 0.2875 0.1 -0.4125
v 0.4125 0.1 -0.4125
v 0.4125 0.1 -0.2875
v 0.4125 0 -0.2875
v 0.2875 0 -0.2875
v 0.2875 0.1 -0.2875
v 0.2875 0.1 0.2875
v 0.2875 0.1 0.4125
v -0.2874999 0 -0.2875
v -0.2874999 0 -0.4125
v -0.4124999 0 -0.2875
v -0.4124999 0 -0.4125
v -0.4124999 0.1 -0.4125
v -0.4124999 0.1 -0.2875
v -0.2874999 0.1 -0.2875
v -0.2874999 0.1 -0.4125
v -0.4124999 0.1 0.2875
v -0.3 0.2 0.3
v -0.3 0.2 0.4
v 0.4 0.2 0.3
v 0.4 0.2 0.4
v 0.4 0.2 -0.3
v 0.3 0.2 -0.3
v 0.3 0.2 0.3
v 0.3 0.2 0.4
v -0.4000001 0.2 0.4
v 0.3 0.2 -0.4
v 0.4 0.2 -0.4
v -0.4000001 0.2 0.3
v -0.4000001 0.2 -0.4
v -0.3 0.2 -0.4
v -0.4000001 0.2 -0.3
v -0.3 0.2 -0.3
v -0.3 0.4 -0.3
v -0.3 0.3 -0.3
v -0.3 0.4 0.3
v -0.3 0.3 0.3
v 0.3 0.3 -0.3
v 0.3 0.4 -0.3
v 0.3 0.3 0.3
v 0.3 0.4 0.3
v -0.3499999 0.3 0.3
v -0.3499999 0.3 -0.3
v -0.3 0.3 0.35
v 0.3 0.3 0.35
v 0.35 0.3 0.3
v 0.35 0.3 -0.3
v 0.3 0.3 -0.35
v -0.3 0.3 -0.35
v 0.35 0.4 -0.3
v 0.35 0.4 0.3
v -0.3 0.4 -0.35
v 0.3 0.4 -0.35
v -0.3499999 0.4 -0.3
v -0.3499999 0.4 0.3
v 0.3 0.4 0.35
v -0.3 0.4 0.35
v -0.3 0.5 -0.4
v -0.3 0.5 -0.35
v -0.4000001 0.5 -0.4
v -0.3499999 0.5 -0.3
v -0.4000001 0.5 -0.3
v 0.4 0.5 -0.4
v 0.4 0.5 -0.3
v 0.3 0.5 -0.4
v 0.3 0.5 -0.35
v 0.35 0.5 -0.3
v 0.4 0.5 0.3
v 0.4 0.5 0.4
v 0.3 0.5 0.4
v -0.4000001 0.5 0.3
v -0.4000001 0.5 0.4
v -0.3 0.5 0.4
v 0.3 0.5 0.35
v 0.35 0.5 0.3
v -0.3 0.5 0.35
v -0.3499999 0.5 0.3

vn 1 0 0
vn 0 -1 0
vn 0 0 1
vn 0 0 -1
vn -1 0 0
vn 0.9922779 0.1240347 0
vn 0 0.1240347 0.9922779
vn -0.9922779 0.1240347 0
vn 0 0.1240347 -0.9922779
vn 0 1 0
vn 0.7071068 0 -0.7071068
vn -0.7071068 0 -0.7071068
vn -0.7071068 0 0.7071068
vn 0.7071068 0 0.7071068

vt -11.3189 3.937008
vt -11.3189 0
vt -16.24016 3.937008
vt -16.24016 0
vt -11.3189 16.24016
vt -11.3189 11.3189
vt -16.24016 16.24016
vt -16.24016 11.3189
vt 16.24016 16.24016
vt 16.24016 11.3189
vt 11.3189 16.24016
vt 11.3189 11.3189
vt 16.24016 3.937008
vt 16.24016 0
vt 11.3189 3.937008
vt 11.3189 0
vt 16.24016 -11.3189
vt 16.24016 -16.24016
vt 11.3189 -11.3189
vt 11.3189 -16.24016
vt -11.3189 -11.3189
vt -11.3189 -16.24016
vt -16.24016 -11.3189
vt -16.24016 -16.24016
vt -11.3189 5.310542
vt -16.24016 5.310542
vt -11.81102 9.278189
vt -15.74803 9.278189
vt -11.3189 1.892262
vt -16.24016 1.892262
vt -11.81102 5.859909
vt -15.74803 5.859909
vt 16.24016 5.310542
vt 11.3189 5.310542
vt 15.74803 9.278189
vt 11.81102 9.278189
vt 11.3189 1.892262
vt 11.81102 5.859909
vt 16.24016 1.892262
vt 15.74803 5.859909
vt 11.81102 15.74803
vt 11.81102 11.81102
vt -11.81102 15.74803
vt -11.81102 11.81102
vt -11.81102 -11.81102
vt -13.77953 11.81102
vt -13.77953 -11.81102
vt -11.81102 13.77953
vt 11.81102 13.77953
vt 13.77953 11.81102
vt 13.77953 -11.81102
vt 11.81102 -11.81102
vt 11.81102 -13.77953
vt -11.81102 -13.77953
vt 11.81102 -15.74803
vt 15.74803 -15.74803
vt 15.74803 -11.81102
vt 15.74803 19.68504
vt 15.74803 7.874016
vt 11.81102 19.68504
vt 11.81102 7.874016
vt -11.81102 7.874016
vt -15.74803 7.874016
vt -11.81102 19.68504
vt -15.74803 19.68504
vt -13.77953 19.68504
vt -13.77953 15.74803
vt 13.77953 15.74803
vt 13.77953 19.68504
vt -15.74803 -15.74803
vt -15.74803 -11.81102
vt -11.81102 -15.74803
vt -15.74803 11.81102
vt -15.74803 15.74803
vt 15.74803 15.74803
vt 15.74803 11.81102
vt 1.391943 19.68504
vt 1.391943 15.74803
vt -1.391943 19.68504
vt -1.391943 15.74803

usemtl metalRed

f 3/3/1 2/2/1 1/1/1
f 2/2/1 3/3/1 4/4/1
f 7/3/1 6/2/1 5/1/1
f 6/2/1 7/3/1 8/4/1
f 9/7/2 6/6/2 8/5/2
f 6/6/2 9/7/2 10/8/2
f 11/11/2 2/10/2 4/9/2
f 2/10/2 11/11/2 12/12/2
f 7/1/3 9/4/3 8/2/3
f 9/4/3 7/1/3 13/3/3
f 16/1/4 15/4/4 14/2/4
f 15/4/4 16/1/4 17/3/4
f 18/15/1 15/14/1 17/13/1
f 15/14/1 18/15/1 19/16/1
f 18/13/3 20/16/3 19/14/3
f 20/16/3 18/13/3 21/15/3
f 20/19/2 15/18/2 19/17/2
f 15/18/2 20/19/2 14/20/2
f 11/14/5 22/15/5 12/16/5
f 22/15/5 11/14/5 23/13/5
f 20/2/5 16/3/5 14/4/5
f 16/3/5 20/2/5 21/1/5
f 26/23/2 25/22/2 24/21/2
f 25/22/2 26/23/2 27/24/2
f 26/2/5 28/3/5 27/4/5
f 28/3/5 26/2/5 29/1/5
f 30/1/3 26/4/3 24/2/3
f 26/4/3 30/1/3 29/3/3
f 28/13/4 25/16/4 27/14/4
f 25/16/4 28/13/4 31/15/4
f 30/15/1 25/14/1 31/13/1
f 25/14/1 30/15/1 24/16/1
f 22/1/4 2/4/4 12/2/4
f 2/4/4 22/1/4 1/3/4
f 32/13/4 6/16/4 10/14/4
f 6/16/4 32/13/4 5/15/4
f 9/14/5 32/15/5 10/16/5
f 32/15/5 9/14/5 13/13/5
f 3/13/3 11/16/3 4/14/3
f 11/16/3 3/13/3 23/15/3
f 33/27/6 7/26/6 5/25/6
f 7/26/6 33/27/6 34/28/6
f 35/31/6 3/30/6 1/29/6
f 3/30/6 35/31/6 36/32/6
f 37/35/7 21/34/7 18/33/7
f 21/34/7 37/35/7 38/36/7
f 23/33/8 39/36/8 22/34/8
f 39/36/8 23/33/8 40/35/8
f 34/31/7 13/30/7 7/29/7
f 13/30/7 34/31/7 41/32/7
f 42/31/9 17/30/9 16/29/9
f 17/30/9 42/31/9 43/32/9
f 13/39/8 44/38/8 32/37/8
f 44/38/8 13/39/8 41/40/8
f 44/35/9 5/34/9 32/33/9
f 5/34/9 44/35/9 33/36/9
f 39/27/9 1/26/9 22/25/9
f 1/26/9 39/27/9 35/28/9
f 45/40/9 31/37/9 28/39/9
f 31/37/9 45/40/9 46/38/9
f 29/29/8 45/32/8 28/30/8
f 45/32/8 29/29/8 47/31/8
f 21/25/8 42/28/8 16/26/8
f 42/28/8 21/25/8 38/27/8
f 36/40/7 23/37/7 3/39/7
f 23/37/7 36/40/7 40/38/7
f 48/27/7 29/26/7 30/25/7
f 29/26/7 48/27/7 47/28/7
f 46/35/6 30/34/6 31/33/6
f 30/34/6 46/35/6 48/36/6
f 43/40/6 18/37/6 17/39/6
f 18/37/6 43/40/6 37/38/6

usemtl metalDark

f 51/43/1 50/42/1 49/41/1
f 50/42/1 51/43/1 52/44/1
f 54/41/3 50/44/3 53/42/3
f 50/44/3 54/41/3 49/43/3
f 55/42/5 54/43/5 53/44/5
f 54/43/5 55/42/5 56/41/5
f 57/46/2 50/45/2 52/44/2
f 50/45/2 57/46/2 58/47/2
f 55/42/2 59/48/2 52/44/2
f 59/48/2 55/42/2 60/49/2
f 55/42/2 62/51/2 61/50/2
f 62/51/2 55/42/2 53/52/2
f 50/45/2 63/53/2 53/52/2
f 63/53/2 50/45/2 64/54/2
f 66/43/1 62/42/1 65/41/1
f 62/42/1 66/43/1 61/44/1
f 67/41/4 63/44/4 64/42/4
f 63/44/4 67/41/4 68/43/4
f 57/42/5 69/43/5 58/44/5
f 69/43/5 57/42/5 70/41/5
f 71/41/3 59/44/3 60/42/3
f 59/44/3 71/41/3 72/43/3
f 51/41/4 55/44/4 52/42/4
f 55/44/4 51/41/4 56/43/4
f 67/53/10 54/45/10 68/54/10
f 54/45/10 67/53/10 49/52/10
f 49/52/10 67/53/10 69/51/10
f 49/52/10 69/51/10 51/42/10
f 51/42/10 69/51/10 72/49/10
f 72/49/10 69/51/10 70/50/10
f 71/48/10 68/54/10 54/45/10
f 71/48/10 51/42/10 72/49/10
f 66/46/10 68/54/10 71/48/10
f 68/54/10 66/46/10 65/47/10
f 71/48/10 54/45/10 56/44/10
f 71/48/10 56/44/10 51/42/10

usemtl metal

f 75/56/10 74/53/10 73/55/10
f 74/53/10 75/56/10 76/51/10
f 76/51/10 75/56/10 77/57/10
f 79/60/1 43/59/1 78/58/1
f 43/59/1 79/60/1 37/61/1
f 80/64/4 43/63/4 42/62/4
f 43/63/4 80/64/4 78/65/4
f 42/63/5 63/46/5 80/65/5
f 63/46/5 42/63/5 38/62/5
f 63/46/5 38/62/5 53/44/5
f 63/46/5 81/66/5 80/65/5
f 81/66/5 63/46/5 68/67/5
f 37/59/3 62/50/3 38/61/3
f 62/50/3 37/59/3 79/58/3
f 62/50/3 79/58/3 65/68/3
f 65/68/3 79/58/3 82/69/3
f 53/42/3 38/61/3 62/50/3
f 84/65/1 35/62/1 83/64/1
f 35/62/1 84/65/1 36/63/1
f 47/62/5 75/65/5 45/63/5
f 75/65/5 47/62/5 77/64/5
f 50/44/3 47/63/3 48/62/3
f 47/63/3 50/44/3 58/46/3
f 47/63/3 58/46/3 77/65/3
f 77/65/3 58/46/3 69/67/3
f 77/65/3 69/67/3 76/66/3
f 74/69/1 46/59/1 73/58/1
f 46/59/1 74/69/1 64/50/1
f 46/59/1 64/50/1 48/61/1
f 64/50/1 74/69/1 67/68/1
f 48/61/1 64/50/1 50/42/1
f 75/58/4 46/61/4 45/59/4
f 46/61/4 75/58/4 73/60/4
f 84/58/3 40/61/3 36/59/3
f 40/61/3 84/58/3 85/60/3
f 41/59/5 86/60/5 44/61/5
f 86/60/5 41/59/5 87/58/5
f 88/64/3 41/63/3 34/62/3
f 41/63/3 88/64/3 87/65/3
f 40/59/5 55/42/5 39/61/5
f 55/42/5 40/59/5 60/50/5
f 60/50/5 40/59/5 71/68/5
f 71/68/5 40/59/5 89/69/5
f 89/69/5 40/59/5 85/58/5
f 55/44/4 35/63/4 39/62/4
f 35/63/4 55/44/4 61/46/4
f 35/63/4 61/46/4 83/65/4
f 83/65/4 61/46/4 66/67/4
f 83/65/4 66/67/4 90/66/4
f 80/72/10 79/71/10 78/70/10
f 79/71/10 80/72/10 82/47/10
f 82/47/10 80/72/10 81/54/10
f 90/46/10 84/74/10 83/73/10
f 84/74/10 90/46/10 85/43/10
f 85/43/10 90/46/10 89/48/10
f 92/50/10 88/41/10 91/49/10
f 88/41/10 92/50/10 87/75/10
f 87/75/10 92/50/10 86/76/10
f 44/59/4 57/50/4 33/61/4
f 57/50/4 44/59/4 86/58/4
f 57/50/4 86/58/4 70/68/4
f 70/68/4 86/58/4 92/69/4
f 52/42/4 33/61/4 57/50/4
f 88/65/1 72/67/1 91/66/1
f 72/67/1 88/65/1 59/46/1
f 34/63/1 59/46/1 88/65/1
f 33/62/1 59/46/1 34/63/1
f 59/46/1 33/62/1 52/44/1
f 91/79/11 70/78/11 92/77/11
f 70/78/11 91/79/11 72/80/11
f 71/78/12 90/79/12 66/80/12
f 90/79/12 71/78/12 89/77/12
f 65/78/13 81/79/13 68/80/13
f 81/79/13 65/78/13 82/77/13
f 76/79/14 67/78/14 74/77/14
f 67/78/14 76/79/14 69/80/14

