# Created by Kenney (www.kenney.nl)

mtllib craft_cargoA.mtl

g craft_cargoA

v -0.3 3.158362E-16 -0.825
v -0.3 0.1 -0.825
v -0.3 1.917577E-15 0.4749999
v -0.3 0.1 0.575
v 0.3 0 0.4749999
v 0.3 2.030376E-16 -0.825
v 0.3 0.1 -0.825
v 0.3 0.1 0.575
v -0.4000001 0.1 0.275
v -0.4000001 0.1 -0.325
v -0.8 0.1 0.275
v -0.8 0.1 -0.325
v 0.8 0.1 0.275
v 0.8 0.1 -0.325
v 0.4 0.1 0.275
v 0.4 0.1 -0.325
v 0.4 0.1 0.675
v -0.4000001 0.1 0.675
v 0.4 0.1 -0.925
v -0.4000001 0.1 -0.925
v 0.8 0.2 -0.325
v 0.8 0.2 -1.225
v 0.4 0.1 -1.225
v 0.8 0.5 -0.325
v 0.8 0.4 -0.325
v 0.8 0.5 -0.125
v 0.8 0.4 -0.625
v 0.8 0.4 -1.225
v 0.65 0.5 -0.125
v 0.65 0.5 -0.325
v 0.4 0.5 -0.925
v 0.4 0.5 -0.625
v 0.4 0.5 -1.225
v 0.55 0.5 -0.325
v 0.55 0.5 -0.125
v 0.4 0.5 -0.325
v 0.4 0.5 -0.125
v 0.7 0.4292893 -0.05428934
v 0.5 0.4292893 -0.05428934
v 0.5 0.1707107 0.2042893
v 0.7 0.1707107 0.2042893
v 0.15 0.7 -0.5250001
v 0.15 0.8 -0.5250001
v -0.1500001 0.7 -0.5250001
v -0.1500001 0.8 -0.5250001
v 0.4 0.3 1.175
v 0.3 0.3 1.175
v 0.4 0.5 1.175
v 0.3 0.6 1.175
v 0.4 0.7 1.175
v -0.3 0.6 1.175
v -0.4000001 0.7 1.175
v -0.4000001 0.5 1.175
v -0.4000001 0.3 1.175
v -0.3 0.3 1.175
v -0.1500001 0.8 0.475
v -0.1500001 0.7 -0.125
v -0.1500001 0.7 0.575
v -0.1500001 0.75 0.575
v 0.15 0.75 0.575
v 0.15 0.8 0.4749999
v -0.4000001 0.5 -0.925
v 0.15 0.7 0.575
v 0.4 0.7 -0.5250001
v 0.4 0.7 -0.125
v 0.15 0.7 -0.125
v -0.4000001 0.7 -0.5250001
v -0.4000001 0.7 -0.125
v -0.8 0.2 -0.325
v -0.4000001 0.1 -1.225
v -0.8 0.2 -1.225
v -0.3 0.1371391 0.7678477
v 0.3 0.1371391 0.7678477
v 0.4 0.6 -0.325
v 0.4 0.6 -0.625
v -0.4000001 0.5 -0.625
v -0.8 0.4 -0.625
v -0.4000001 0.5 -1.225
v -0.8 0.4 -1.225
v -0.8 0.4 -0.325
v -0.8 0.5 -0.325
v -0.8 0.5 -0.125
v -0.5 0.4292893 -0.05428934
v -0.4000001 0.5 -0.125
v -0.55 0.5 -0.125
v -0.7 0.4292893 -0.05428934
v -0.6500001 0.5 -0.125
v -0.7 0.1707107 0.2042893
v -0.5 0.1707107 0.2042893
v -0.4000001 0.5 -0.325
v -0.55 0.5 -0.325
v -0.4000001 0.6 -0.325
v -0.4000001 0.6 -0.625
v -0.6500001 0.5 -0.325
v 0.75 0.3609612 -1.125
v 0.75 0.3609612 -1.225
v 0.45 0.4359612 -1.125
v 0.45 0.4359612 -1.225
v 0.75 0.2390388 -1.225
v 0.75 0.2390388 -1.125
v 0.5 0.1707107 -0.05428934
v 0.45 0.1640388 -1.225
v 0.45 0.1640388 -1.125
v 0.7 0.1707107 -0.05428934
v 0.3 0.25 1.175
v -0.3 0.25 1.175
v -0.7 0.1707107 -0.05428934
v -0.5 0.1707107 -0.05428934
v -0.45 0.4359612 -1.125
v -0.45 0.4359612 -1.225
v -0.75 0.3609612 -1.125
v -0.75 0.3609612 -1.225
v -0.45 0.1640388 -1.225
v -0.45 0.1640388 -1.125
v -0.75 0.2390388 -1.225
v -0.75 0.2390388 -1.125
v 0.3 0.3 1.225
v -0.3 0.3 1.225
v 0.8 0.6 -0.325
v 0.65 0.6 -0.325
v 0.55 0.6 -0.325
v 0.55 0.6 -0.225
v 0.55 0.55 -0.125
v 0.65 0.6 -0.225
v 0.65 0.55 -0.125
v 0.8 0.6 -0.625
v -0.8 0.6 -0.325
v -0.6500001 0.6 -0.325
v -0.8 0.6 -0.625
v -0.55 0.6 -0.325
v -0.55 0.6 -0.225
v -0.6500001 0.6 -0.225
v -0.6500001 0.55 -0.125
v -0.55 0.55 -0.125

vn -1 0 0
vn 0 -1 0
vn 1 0 0
vn 0 -0.7071068 0.7071068
vn 0 0 -1
vn 0.2425356 -0.9701425 0
vn 0 1 0
vn 0.2425356 0.9701425 0
vn 0 0.7071068 0.7071068
vn 0 0 1
vn 0 0.8944272 0.4472136
vn 0 0.8944272 -0.4472136
vn -0.2425356 -0.9701425 0
vn 0 -0.9284768 0.3713907
vn -0.2425356 0.9701425 0
vn 0 -0.9636624 0.2671232
vn 0 0.164399 0.986394
vn 0 0.8944272 0.4472136

vt -32.48032 1.24345E-14
vt -32.48032 3.937008
vt 18.70079 7.549517E-14
vt 22.63779 3.937008
vt 11.81102 18.70079
vt 11.81102 -32.48032
vt -11.81102 18.70079
vt -11.81102 -32.48032
vt 32.48032 3.937008
vt 32.48032 5.243118E-15
vt -22.63779 3.937008
vt -18.70079 -2.750488E-15
vt 11.81102 18.79122
vt 11.81102 13.22345
vt -11.81102 18.79122
vt -11.81102 13.22345
vt -11.81102 8.488246E-14
vt -11.81102 3.937008
vt 11.81102 8.932335E-14
vt 11.81102 3.937008
vt -15.74803 10.82677
vt -15.74803 -12.79528
vt -31.49606 10.82677
vt -31.49606 -12.79528
vt 31.49606 10.82677
vt 31.49606 -12.79528
vt 15.74803 10.82677
vt 15.74803 -12.79528
vt 11.81102 22.63779
vt 15.74803 26.5748
vt -15.74803 26.5748
vt -11.81102 22.63779
vt 15.74803 -36.41732
vt -15.74803 -36.41732
vt 12.79528 32.4654
vt 48.22835 32.4654
vt 12.79528 16.2327
vt 36.41732 16.2327
vt 48.22835 16.2327
vt 12.79528 19.68504
vt 12.79528 15.74803
vt 4.92126 19.68504
vt 12.79528 7.874016
vt 12.79528 3.937008
vt -10.82677 3.937008
vt 24.6063 15.74803
vt 48.22835 7.874016
vt 48.22835 15.74803
vt -31.49606 -4.92126
vt -25.59055 -4.92126
vt -25.59055 -12.79528
vt 36.41732 -10.50351
vt 24.6063 -26.73621
vt 24.6063 -10.50351
vt 48.22835 -10.50351
vt 48.22835 -26.73621
vt -21.65354 -12.79528
vt -21.65354 -4.92126
vt -15.74803 -4.92126
vt -15.74803 3.937008
vt -31.49606 3.937008
vt -31.49606 7.874016
vt 31.49606 -4.871799
vt 27.55906 13.46227
vt 31.49606 17.39928
vt 25.59055 17.39928
vt 19.68504 13.46227
vt 21.65354 17.39928
vt 15.74803 17.39928
vt 19.68504 -0.9347908
vt 27.55906 -0.9347908
vt 15.74803 -4.871799
vt -5.905511 27.55906
vt -5.905511 31.49607
vt 5.905512 27.55906
vt 5.905512 31.49607
vt 15.74803 11.81102
vt 11.81102 11.81102
vt 15.74803 19.68504
vt 11.81102 23.62205
vt 15.74803 27.55906
vt -11.81102 23.62205
vt -15.74803 27.55906
vt -15.74803 19.68504
vt -15.74803 11.81102
vt -11.81102 11.81102
vt -20.66929 31.49606
vt 18.70079 31.49606
vt -20.66929 27.55906
vt -4.92126 27.55906
vt 22.63779 27.55906
vt 22.63779 29.52756
vt 5.905511 -7.042733
vt -5.905512 -7.042733
vt 5.905511 -2.641025
vt -5.905512 -2.641025
vt 15.74803 3.937008
vt 5.905511 27.55906
vt -5.905512 27.55906
vt 5.905511 29.52756
vt -5.905512 29.52756
vt -15.74803 -20.66929
vt -15.74803 -4.92126
vt -5.90551 -20.66929
vt -5.90551 -4.92126
vt 20.66929 31.49606
vt 20.66929 27.55906
vt -18.70079 31.49606
vt 4.92126 27.55906
vt -22.63779 27.55906
vt -22.63779 29.52756
vt -5.905512 18.70079
vt 5.905512 18.70079
vt -5.905511 -20.66929
vt 5.905512 -20.66929
vt -15.74803 -23.76923
vt -15.74803 -6.162392
vt 15.74803 -23.76923
vt -5.905511 -6.162391
vt 5.905512 -6.162391
vt 15.74803 -6.162392
vt 5.905511 -4.92126
vt 15.74803 -4.92126
vt 5.905511 -20.66929
vt 15.74803 -20.66929
vt -12.79528 16.2327
vt -36.41732 16.2327
vt -12.79528 32.4654
vt -48.22835 16.2327
vt -48.22835 32.4654
vt -48.22835 3.937008
vt -48.22835 19.68504
vt -36.41732 3.937008
vt -36.41732 19.68504
vt -11.81102 47.33769
vt -11.81102 30.07326
vt -15.74803 47.33769
vt -15.74803 26.13625
vt 11.81102 30.07326
vt 15.74803 26.13625
vt 11.81102 47.33769
vt 15.74803 47.33769
vt -46.25984 19.68504
vt -26.5748 3.937008
vt -46.25984 11.81102
vt 12.79528 23.62205
vt 24.6063 23.62205
vt 36.41732 19.68504
vt 24.6063 19.68504
vt -24.6063 -10.50351
vt -24.6063 -26.73621
vt -36.41732 -10.50351
vt -48.22835 -10.50351
vt -48.22835 -26.73621
vt 31.49606 3.937008
vt 31.49606 7.874016
vt -12.79528 3.937008
vt -12.79528 7.874016
vt 10.82677 3.937008
vt -12.79528 15.74803
vt -12.79528 19.68504
vt -4.92126 19.68504
vt -24.6063 15.74803
vt -48.22835 15.74803
vt -48.22835 7.874016
vt 48.22835 19.68504
vt 48.22835 3.937008
vt 36.41732 3.937008
vt -15.74803 -4.871799
vt -19.68504 13.46227
vt -15.74803 17.39928
vt -21.65354 17.39928
vt -27.55906 13.46227
vt -25.59055 17.39928
vt -31.49606 17.39928
vt -27.55906 -0.9347908
vt -31.49606 -4.871799
vt -19.68504 -0.9347908
vt 15.74803 -4.92126
vt 21.65354 -12.79528
vt 21.65354 -4.92126
vt 46.25984 19.68504
vt 26.5748 3.937008
vt 46.25984 11.81102
vt -12.79528 23.62205
vt -24.6063 23.62205
vt -24.6063 19.68504
vt 25.59055 -12.79528
vt 25.59055 -4.92126
vt 31.49606 -4.92126
vt -44.29134 -25.19925
vt -48.22835 -25.19925
vt -44.29134 -13.02472
vt -48.22835 -13.02472
vt -48.22835 9.410977
vt -48.22835 14.21107
vt -44.29134 9.410977
vt -44.29134 14.21107
vt 2.137375 16.90115
vt 2.137375 6.720893
vt -8.042887 6.720893
vt 48.22835 17.16383
vt 48.22835 6.458221
vt 44.29134 17.16383
vt 44.29134 6.458221
vt 27.55906 6.720893
vt 19.68504 6.720893
vt 27.55906 16.90115
vt 19.68504 16.90115
vt -27.55906 -2.137375
vt -27.55906 8.042887
vt -19.68504 -2.137375
vt -19.68504 8.042887
vt -48.22835 30.92844
vt -44.29134 30.92844
vt -48.22835 18.75391
vt -44.29134 18.75391
vt -2.137375 6.720893
vt -2.137375 16.90115
vt 8.042887 6.720893
vt -17.71654 6.458221
vt -29.52756 9.410977
vt -17.71654 17.16383
vt -29.52756 14.21107
vt 11.81102 47.20803
vt 11.81102 30.57397
vt -11.81102 47.20803
vt -11.81102 30.57397
vt -27.55906 6.720893
vt -27.55906 16.90115
vt -19.68504 6.720893
vt -19.68504 16.90115
vt 44.29134 -13.02472
vt 48.22835 -13.02472
vt 44.29134 -25.19925
vt 48.22835 -25.19925
vt 48.22835 18.75391
vt 44.29134 18.75391
vt 48.22835 30.92844
vt 44.29134 30.92844
vt 48.22835 14.21107
vt 48.22835 9.410977
vt 44.29134 14.21107
vt 44.29134 9.410977
vt 11.81102 3.721631
vt -11.81102 3.721631
vt 11.81102 15.69557
vt -11.81102 15.69557
vt -46.25984 23.62205
vt -48.22835 11.81102
vt -46.25984 9.84252
vt -30.23022 5.399176
vt 30.23022 5.399176
vt 46.25984 9.84252
vt 48.22835 11.81102
vt 46.25984 23.62205
vt 17.71654 6.458221
vt 17.71654 17.16383
vt 29.52756 9.410977
vt 29.52756 14.21107
vt 11.81102 42.45425
vt 11.81102 39.67036
vt -11.81102 42.45425
vt -11.81102 39.67036
vt -48.22835 6.458221
vt -48.22835 17.16383
vt -44.29134 6.458221
vt -44.29134 17.16383
vt 19.68504 -2.137375
vt 19.68504 8.042887
vt 27.55906 -2.137375
vt 27.55906 8.042887
vt 31.49606 19.68504
vt 25.59055 19.68504
vt 31.49606 23.62205
vt 25.59055 23.62205
vt 21.65354 19.68504
vt 21.65354 23.62205
vt 15.74803 23.62205
vt -8.858268 23.62205
vt -4.92126 21.65354
vt 25.59055 18.48718
vt 25.59055 14.08547
vt 21.65354 18.48718
vt 21.65354 14.08547
vt 8.858268 23.62205
vt 4.92126 21.65354
vt -31.49606 -24.6063
vt -15.74803 -24.6063
vt -25.59055 -8.858268
vt -21.65354 -8.858268
vt 25.59055 21.65354
vt 21.65354 21.65354
vt -46.25984 27.55906
vt 46.25984 27.55906
vt -31.49606 19.68504
vt -31.49606 23.62205
vt -25.59055 19.68504
vt -25.59055 23.62205
vt -15.74803 46.25984
vt -5.905512 22.63779
vt 15.74803 46.25984
vt 5.905512 22.63779
vt 15.74803 -24.6063
vt 31.49606 -24.6063
vt 21.65354 -8.858268
vt 25.59055 -8.858268
vt -25.59055 21.65354
vt -21.65354 19.68504
vt -21.65354 21.65354
vt -21.65354 23.62205
vt -15.74803 23.62205
vt -21.65354 18.48718
vt -21.65354 14.08547
vt -25.59055 18.48718
vt -25.59055 14.08547
vt -31.49606 15.74803
vt 31.49606 15.74803

usemtl metalDark

f 3/3/1 2/2/1 1/1/1
f 2/2/1 3/3/1 4/4/1
f 3/7/2 6/6/2 5/5/2
f 6/6/2 3/7/2 1/8/2
f 8/11/3 6/10/3 7/9/3
f 6/10/3 8/11/3 5/12/3
f 4/15/4 5/14/4 8/13/4
f 5/14/4 4/15/4 3/16/4
f 1/19/5 7/18/5 6/17/5
f 7/18/5 1/19/5 2/20/5
f 11/23/2 10/22/2 9/21/2
f 10/22/2 11/23/2 12/24/2
f 15/27/2 14/26/2 13/25/2
f 14/26/2 15/27/2 16/28/2
f 15/27/2 8/29/2 16/28/2
f 17/30/2 8/29/2 15/27/2
f 8/29/2 17/30/2 18/31/2
f 8/29/2 18/31/2 4/32/2
f 4/32/2 18/31/2 2/8/2
f 7/6/2 16/28/2 8/29/2
f 7/6/2 19/33/2 16/28/2
f 19/33/2 7/6/2 20/34/2
f 20/34/2 7/6/2 2/8/2
f 20/34/2 2/8/2 18/31/2
f 20/34/2 18/31/2 9/21/2
f 20/34/2 9/21/2 10/22/2
f 16/37/6 22/36/6 21/35/6
f 22/36/6 16/37/6 19/38/6
f 23/39/6 22/36/6 19/38/6
f 26/42/3 25/41/3 24/40/3
f 25/41/3 26/42/3 21/43/3
f 21/43/3 26/42/3 14/44/3
f 14/44/3 26/42/3 13/45/3
f 21/43/3 27/46/3 25/41/3
f 22/47/3 27/46/3 21/43/3
f 27/46/3 22/47/3 28/48/3
f 24/24/7 29/50/7 26/49/7
f 29/50/7 24/24/7 30/51/7
f 32/54/8 27/53/8 31/52/8
f 27/53/8 33/55/8 31/52/8
f 33/55/8 27/53/8 28/56/8
f 36/22/7 35/58/7 34/57/7
f 35/58/7 36/22/7 37/59/7
f 21/62/5 14/61/5 16/60/5
f 26/65/9 38/64/9 13/63/9
f 38/64/9 26/65/9 29/66/9
f 38/64/9 29/66/9 39/67/9
f 39/67/9 29/66/9 35/68/9
f 39/67/9 35/68/9 37/69/9
f 39/67/9 37/69/9 40/70/9
f 41/71/9 13/63/9 38/64/9
f 13/63/9 41/71/9 15/72/9
f 15/72/9 41/71/9 40/70/9
f 15/72/9 40/70/9 37/69/9
f 44/75/5 43/74/5 42/73/5
f 43/74/5 44/75/5 45/76/5
f 48/79/10 47/78/10 46/77/10
f 47/78/10 48/79/10 49/80/10
f 49/80/10 48/79/10 50/81/10
f 49/80/10 50/81/10 51/82/10
f 52/83/10 51/82/10 50/81/10
f 53/84/10 51/82/10 52/83/10
f 54/85/10 51/82/10 53/84/10
f 51/82/10 54/85/10 55/86/10
f 44/89/1 56/88/1 45/87/1
f 56/88/1 44/89/1 57/90/1
f 56/88/1 57/90/1 58/91/1
f 56/88/1 58/91/1 59/92/1
f 61/95/11 59/94/11 60/93/11
f 59/94/11 61/95/11 56/96/11
f 62/79/5 19/60/5 20/97/5
f 19/60/5 62/79/5 31/84/5
f 60/100/10 58/99/10 63/98/10
f 58/99/10 60/100/10 59/101/10
f 42/104/7 65/103/7 64/102/7
f 65/103/7 42/104/7 66/105/7
f 61/108/3 42/107/3 43/106/3
f 42/107/3 61/108/3 66/109/3
f 66/109/3 61/108/3 63/110/3
f 63/110/3 61/108/3 60/111/3
f 43/114/7 56/113/7 61/112/7
f 56/113/7 43/114/7 45/115/7
f 62/118/12 64/117/12 31/116/12
f 64/117/12 62/118/12 42/119/12
f 42/119/12 62/118/12 44/120/12
f 44/120/12 62/118/12 67/121/12
f 44/124/7 68/123/7 57/122/7
f 68/123/7 44/124/7 67/125/7
f 69/128/13 20/127/13 10/126/13
f 20/127/13 69/128/13 70/129/13
f 70/129/13 69/128/13 71/130/13
f 19/133/1 33/132/1 23/131/1
f 33/132/1 19/133/1 31/134/1
f 54/137/14 72/136/14 55/135/14
f 18/138/14 72/136/14 54/137/14
f 18/138/14 73/139/14 72/136/14
f 17/140/14 73/139/14 18/138/14
f 17/140/14 47/141/14 73/139/14
f 47/141/14 17/140/14 46/142/14
f 48/143/3 15/45/3 37/42/3
f 15/45/3 48/143/3 17/144/3
f 17/144/3 48/143/3 46/145/3
f 36/40/3 65/109/3 37/42/3
f 74/146/3 65/109/3 36/40/3
f 74/146/3 64/107/3 65/109/3
f 75/147/3 64/107/3 74/146/3
f 64/107/3 75/147/3 31/148/3
f 32/149/3 31/148/3 75/147/3
f 62/152/15 77/151/15 76/150/15
f 77/151/15 62/152/15 78/153/15
f 77/151/15 78/153/15 79/154/15
f 69/156/5 10/97/5 12/155/5
f 11/159/1 69/158/1 12/157/1
f 69/158/1 11/159/1 80/160/1
f 80/160/1 11/159/1 81/161/1
f 81/161/1 11/159/1 82/162/1
f 77/163/1 69/158/1 80/160/1
f 79/164/1 69/158/1 77/163/1
f 69/158/1 79/164/1 71/165/1
f 62/148/3 70/167/3 78/166/3
f 70/167/3 62/148/3 20/168/3
f 84/171/9 83/170/9 9/169/9
f 83/170/9 84/171/9 85/172/9
f 83/170/9 85/172/9 86/173/9
f 86/173/9 85/172/9 87/174/9
f 86/173/9 87/174/9 82/175/9
f 86/173/9 82/175/9 88/176/9
f 88/176/9 82/175/9 11/177/9
f 9/169/9 89/178/9 11/177/9
f 89/178/9 9/169/9 83/170/9
f 11/177/9 89/178/9 88/176/9
f 91/180/7 84/179/7 90/28/7
f 84/179/7 91/180/7 85/181/7
f 9/159/1 53/182/1 84/162/1
f 53/182/1 9/159/1 18/183/1
f 53/182/1 18/183/1 54/184/1
f 84/162/1 92/185/1 90/161/1
f 68/90/1 92/185/1 84/162/1
f 67/89/1 92/185/1 68/90/1
f 67/89/1 93/186/1 92/185/1
f 62/134/1 93/186/1 67/89/1
f 93/186/1 62/134/1 76/187/1
f 81/26/7 87/189/7 94/188/7
f 87/189/7 81/26/7 82/190/7

usemtl dark

f 97/193/13 96/192/13 95/191/13
f 96/192/13 97/193/13 98/194/13
f 100/197/1 96/196/1 99/195/1
f 96/196/1 100/197/1 95/198/1
f 40/201/3 101/200/3 39/199/3
f 97/204/3 102/203/3 98/202/3
f 102/203/3 97/204/3 103/205/3
f 38/208/10 101/207/10 104/206/10
f 101/207/10 38/208/10 39/209/10
f 101/212/7 41/211/7 104/210/7
f 41/211/7 101/212/7 40/213/7
f 102/216/15 100/215/15 99/214/15
f 100/215/15 102/216/15 103/217/15
f 41/220/1 38/219/1 104/218/1
f 97/223/5 100/222/5 103/221/5
f 100/222/5 97/223/5 95/224/5
f 106/227/16 73/226/16 105/225/16
f 73/226/16 106/227/16 72/228/16
f 108/231/10 86/230/10 107/229/10
f 86/230/10 108/231/10 83/232/10
f 111/235/6 110/234/6 109/233/6
f 110/234/6 111/235/6 112/236/6
f 115/239/8 114/238/8 113/237/8
f 114/238/8 115/239/8 116/240/8
f 111/243/3 115/242/3 112/241/3
f 115/242/3 111/243/3 116/244/3
f 49/247/17 118/246/17 117/245/17
f 118/246/17 49/247/17 51/248/17
f 117/250/3 47/145/3 49/249/3
f 47/145/3 117/250/3 105/251/3
f 105/251/3 73/252/3 47/145/3
f 106/254/1 55/184/1 72/253/1
f 55/184/1 106/254/1 118/255/1
f 55/184/1 118/255/1 51/256/1
f 116/259/5 109/258/5 114/257/5
f 109/258/5 116/259/5 111/260/5
f 118/263/4 105/262/4 117/261/4
f 105/262/4 118/263/4 106/264/4
f 114/267/1 110/266/1 113/265/1
f 110/266/1 114/267/1 109/268/1
f 89/220/1 83/219/1 108/218/1
f 88/201/3 107/200/3 86/199/3
f 107/271/7 89/270/7 108/269/7
f 89/270/7 107/271/7 88/272/7

usemtl metalRed

f 119/275/10 30/274/10 24/273/10
f 30/274/10 119/275/10 120/276/10
f 121/278/10 36/79/10 34/277/10
f 36/79/10 121/278/10 74/279/10
f 35/162/1 121/185/1 34/161/1
f 121/185/1 35/162/1 122/280/1
f 122/280/1 35/162/1 123/281/1
f 122/284/18 125/283/18 124/282/18
f 125/283/18 122/284/18 123/285/18
f 124/286/3 30/40/3 120/146/3
f 30/40/3 124/286/3 29/42/3
f 29/42/3 124/286/3 125/287/3
f 75/289/7 119/24/7 126/288/7
f 119/24/7 75/289/7 120/51/7
f 120/51/7 75/289/7 124/290/7
f 124/290/7 75/289/7 121/57/7
f 121/57/7 75/289/7 74/22/7
f 122/291/7 124/290/7 121/57/7
f 119/146/3 27/46/3 126/147/3
f 27/46/3 119/146/3 25/41/3
f 25/41/3 119/146/3 24/40/3
f 125/292/10 35/277/10 29/274/10
f 35/277/10 125/292/10 123/293/10
f 65/109/3 48/143/3 37/42/3
f 48/143/3 65/109/3 50/294/3
f 53/182/1 68/90/1 84/162/1
f 68/90/1 53/182/1 52/295/1
f 94/298/10 127/297/10 81/296/10
f 127/297/10 94/298/10 128/299/10
f 80/160/1 129/186/1 77/163/1
f 129/186/1 80/160/1 127/185/1
f 127/185/1 80/160/1 81/161/1
f 66/105/7 50/300/7 65/103/7
f 50/300/7 66/105/7 63/301/7
f 63/301/7 52/302/7 50/300/7
f 52/302/7 63/301/7 58/303/7
f 52/302/7 58/303/7 57/122/7
f 52/302/7 57/122/7 68/123/7
f 129/305/7 92/28/7 93/304/7
f 92/28/7 129/305/7 130/180/7
f 130/180/7 129/305/7 131/306/7
f 131/306/7 129/305/7 128/188/7
f 128/188/7 129/305/7 127/26/7
f 132/307/7 131/306/7 128/188/7
f 85/309/10 133/308/10 87/298/10
f 133/308/10 85/309/10 134/310/10
f 87/162/1 128/185/1 94/161/1
f 128/185/1 87/162/1 132/280/1
f 132/280/1 87/162/1 133/281/1
f 90/84/10 130/311/10 91/309/10
f 130/311/10 90/84/10 92/312/10
f 132/315/18 134/314/18 131/313/18
f 134/314/18 132/315/18 133/316/18
f 131/286/3 91/40/3 130/146/3
f 91/40/3 131/286/3 85/42/3
f 85/42/3 131/286/3 134/287/3
f 32/84/5 126/297/5 27/317/5
f 126/297/5 32/84/5 75/312/5
f 129/275/5 76/79/5 77/318/5
f 76/79/5 129/275/5 93/279/5

usemtl metal

f 33/84/5 102/221/5 23/60/5
f 102/221/5 33/84/5 98/223/5
f 102/221/5 22/62/5 23/60/5
f 22/62/5 102/221/5 99/222/5
f 22/62/5 99/222/5 28/317/5
f 28/317/5 98/223/5 33/84/5
f 28/317/5 99/222/5 96/224/5
f 28/317/5 96/224/5 98/223/5
f 71/156/5 113/257/5 70/97/5
f 113/257/5 71/156/5 115/259/5
f 115/259/5 71/156/5 79/318/5
f 115/259/5 79/318/5 112/260/5
f 112/260/5 79/318/5 110/258/5
f 110/258/5 79/318/5 78/79/5
f 113/257/5 78/79/5 70/97/5
f 78/79/5 113/257/5 110/258/5

