# Created by Kenney (www.kenney.nl)

mtllib rocket_fuelA.mtl

g rocket_fuelA

v 0.2071068 0.4 0.5
v -0.2071068 0.4 0.5
v 0.2071068 0.5 0.5
v -0.2071068 0.5 0.5
v 0.5 0.5 -0.2071068
v 0.5 0.4 -0.2071068
v 0.5 0.5 0.2071068
v 0.5 0.4 0.2071068
v -0.5 0.4 0.2071068
v -0.5 0.5 0.2071068
v -0.3535533 0.4 0.3535534
v 0.2071068 0.4 -0.5
v 0.3535534 0.4 -0.3535534
v 0.2071068 0.5 -0.5
v -0.2071068 0.4 -0.5
v -0.2071068 0.5 -0.5
v -0.3535533 0.4 -0.3535534
v -0.5 0.5 -0.2071068
v -0.5 0.4 -0.2071068
v 0.3535534 0.4 0.3535534
v 0.4 0.5 -0.1656854
v 0.1656854 0.5 -0.4
v -0.1656854 0.5 -0.4
v -0.4000001 0.5 -0.1656854
v -0.4000001 0.5 0
v -0.4000001 0.5 0.1656854
v 0.4 0.5 0.1656854
v 0.1656854 0.5 0.4
v -0.1656854 0.5 0.4
v -0.5 0.5 0
v 0.5 0 -0.2071068
v 0.4 -1.804779E-16 0.1656854
v 0.5 0 0.2071068
v 0.2071068 0 0.5
v 0.1656854 -1.804779E-16 0.4
v -0.2071068 0 0.5
v -0.1656854 -1.804779E-16 0.4
v -0.4000001 -1.804779E-16 0.1656854
v -0.5 0 0.2071068
v -0.4000001 -1.804779E-16 0
v -0.4000001 -1.804779E-16 -0.1656854
v 0.4 -1.804779E-16 -0.1656854
v 0.2071068 0 -0.5
v 0.1656854 -1.804779E-16 -0.4
v -0.2071068 0 -0.5
v -0.1656854 -1.804779E-16 -0.4
v -0.5 0 -0.2071068

vn 0 0 1
vn 1 0 0
vn -0.7071068 0 0.7071068
vn 0.7071068 0 -0.7071068
vn -0.7071068 0 -0.7071068
vn 0 0 -1
vn 0.7071068 0 0.7071068
vn 0 1 0
vn -1 0 0
vn 0 -1 0

vt 8.153811 15.74803
vt -8.153811 15.74803
vt 8.153811 19.68504
vt -8.153811 19.68504
vt 2.842171E-14 15.74803
vt 1.24345E-14 15.74803
vt -2.842171E-14 15.74803
vt -1.421085E-14 15.74803
vt -19.68504 8.153811
vt -15.74803 -6.523048
vt -19.68504 -8.153811
vt -8.153811 -19.68504
vt -6.523048 -15.74803
vt 8.153811 -19.68504
vt 6.523048 -15.74803
vt 15.74803 -6.523048
vt 19.68504 -8.153811
vt 15.74803 0
vt 15.74803 6.523048
vt -15.74803 6.523048
vt -6.523048 15.74803
vt 6.523048 15.74803
vt 19.68504 8.153811
vt 19.68504 0
vt 0 19.68504
vt -15.74803 0
vt -8.153811 0
vt 8.153811 0
vt -8.153811 6.979061E-15
vt 8.153811 6.979061E-15
vt 8.153811 9.970087E-15
vt -8.153811 9.970087E-15
vt 6.523048 19.68504
vt 6.523048 -7.105427E-15
vt 0 -7.105427E-15
vt -6.523048 19.68504
vt -6.523048 -7.105427E-15
vt 6.523048 -9.147301E-15
vt -6.523048 -9.147301E-15
vt 6.523048 -3.02168E-15
vt -6.523048 -3.02168E-15
vt -6.523048 -1.421085E-15
vt 6.523048 -1.421085E-15
vt 6.523048 -3.225867E-15
vt -6.523048 -3.225867E-15

usemtl metalRed

f 3/3/1 2/2/1 1/1/1
f 2/2/1 3/3/1 4/4/1
f 7/4/2 6/1/2 5/3/2
f 6/1/2 7/4/2 8/2/2
f 11/5/3 10/4/3 9/2/3
f 10/4/3 11/5/3 4/3/3
f 4/3/3 11/5/3 2/1/3
f 14/3/4 13/6/4 12/1/4
f 13/6/4 14/3/4 6/2/4
f 6/2/4 14/3/4 5/4/4
f 17/7/5 16/4/5 15/2/5
f 16/4/5 17/7/5 18/3/5
f 18/3/5 17/7/5 19/1/5
f 16/3/6 12/2/6 15/1/6
f 12/2/6 16/3/6 14/4/6
f 3/4/7 8/1/7 7/3/7
f 8/1/7 3/4/7 20/8/7
f 20/8/7 3/4/7 1/2/7
f 5/11/8 21/10/8 7/9/8
f 21/10/8 5/11/8 14/12/8
f 21/10/8 14/12/8 22/13/8
f 22/13/8 14/12/8 16/14/8
f 22/13/8 16/14/8 23/15/8
f 23/15/8 16/14/8 24/16/8
f 24/16/8 16/14/8 18/17/8
f 24/16/8 18/17/8 25/18/8
f 25/18/8 18/17/8 26/19/8
f 27/20/8 7/9/8 21/10/8
f 7/9/8 27/20/8 3/4/8
f 3/4/8 27/20/8 28/21/8
f 3/4/8 28/21/8 4/3/8
f 4/3/8 28/21/8 29/22/8
f 4/3/8 29/22/8 26/19/8
f 4/3/8 26/19/8 10/23/8
f 10/23/8 26/19/8 18/17/8
f 10/23/8 18/17/8 30/24/8
f 9/1/9 18/4/9 19/2/9
f 18/4/9 9/1/9 30/25/9
f 30/25/9 9/1/9 10/3/9

usemtl metalDark

f 33/23/10 32/19/10 31/17/10
f 32/19/10 33/23/10 34/3/10
f 32/19/10 34/3/10 35/22/10
f 35/22/10 34/3/10 36/4/10
f 35/22/10 36/4/10 37/21/10
f 37/21/10 36/4/10 38/20/10
f 38/20/10 36/4/10 39/9/10
f 38/20/10 39/9/10 40/26/10
f 40/26/10 39/9/10 41/10/10
f 42/16/10 31/17/10 32/19/10
f 31/17/10 42/16/10 43/14/10
f 43/14/10 42/16/10 44/15/10
f 43/14/10 44/15/10 45/12/10
f 45/12/10 44/15/10 46/13/10
f 45/12/10 46/13/10 41/10/10
f 45/12/10 41/10/10 47/11/10
f 47/11/10 41/10/10 39/9/10
f 39/28/9 19/2/9 47/27/9
f 19/2/9 39/28/9 9/1/9
f 36/30/3 9/2/3 39/29/3
f 9/2/3 36/30/3 11/5/3
f 11/5/3 36/30/3 2/1/3
f 1/1/1 36/27/1 34/28/1
f 36/27/1 1/1/1 2/2/1
f 20/8/7 33/31/7 8/1/7
f 33/31/7 20/8/7 34/32/7
f 34/32/7 20/8/7 1/2/7
f 8/2/2 31/28/2 6/1/2
f 31/28/2 8/2/2 33/27/2
f 15/1/6 43/27/6 45/28/6
f 43/27/6 15/1/6 12/2/6
f 25/25/2 41/34/2 24/33/2
f 41/34/2 25/25/2 40/35/2
f 40/35/2 25/25/2 26/36/2
f 40/35/2 26/36/2 38/37/2
f 26/33/4 37/39/4 38/38/4
f 37/39/4 26/33/4 29/36/4
f 29/33/6 35/37/6 37/34/6
f 35/37/6 29/33/6 28/36/6
f 28/33/5 32/41/5 35/40/5
f 32/41/5 28/33/5 27/36/5
f 32/43/9 21/36/9 42/42/9
f 21/36/9 32/43/9 27/33/9
f 21/33/3 44/45/3 42/44/3
f 44/45/3 21/33/3 22/36/3
f 22/33/1 46/37/1 44/34/1
f 46/37/1 22/33/1 23/36/1
f 23/33/7 41/39/7 46/38/7
f 41/39/7 23/33/7 24/36/7
f 13/6/4 43/31/4 12/1/4
f 43/31/4 13/6/4 31/32/4
f 31/32/4 13/6/4 6/2/4
f 47/30/5 15/2/5 45/29/5
f 15/2/5 47/30/5 17/7/5
f 17/7/5 47/30/5 19/1/5

