# Created by Kenney (www.kenney.nl)

mtllib rocket_sidesB.mtl

g rocket_sidesB

v 0.5 1 0.2071068
v 0.4 1 -0.1656854
v 0.5 1 -0.2071068
v 0.2071068 1 -0.5
v 0.1656854 1 -0.4
v -0.2071068 1 -0.5
v -0.1656854 1 -0.4
v -0.4000001 1 -0.1656854
v -0.5 1 -0.2071068
v -0.4000001 1 0
v -0.4000001 1 0.1656854
v 0.4 1 0.1656854
v 0.2071068 1 0.5
v 0.1656854 1 0.4
v -0.2071068 1 0.5
v -0.1656854 1 0.4
v -0.5 1 0.2071068
v -0.5 1 0
v -0.5 0.9 -0.2071068
v -0.5 0.9 0.2071068
v 0.2071068 0.9 0.5
v -0.2071068 0.9 0.5
v 0.5 0.9 -0.2071068
v 0.5 0.9 0.2071068
v -0.4238796 0.9 0.2832272
v -0.3535533 0.9 0.3535534
v -0.2832272 0.9 0.4238795
v 0.2071068 0.9 -0.5
v 0.2832272 0.9 -0.4238795
v 0.3535534 0.9 -0.3535534
v 0.4238795 0.9 -0.2832272
v -0.2071068 0.9 -0.5
v -0.2832272 0.9 -0.4238795
v -0.3535533 0.9 -0.3535534
v -0.4238796 0.9 -0.2832272
v 0.4238795 0.9 0.2832272
v 0.3535534 0.9 0.3535534
v 0.2832272 0.9 0.4238795
v -0.1071067 0 0.5
v -0.2071068 0 0.5
v -0.1071067 0.4 0.5
v -0.2071068 0.4 0.5
v 0.5 0.4 0.1071068
v 0.5 0 0.1071068
v 0.5 0.4 0.2071068
v 0.5 0 0.2071068
v 0.1071068 0 -0.5
v 0.2071068 0 -0.5
v 0.1071068 0.4 -0.5
v 0.2071068 0.4 -0.5
v -0.5 0 -0.2071068
v -0.5 0.4 -0.2071068
v -0.5 0 -0.1071068
v -0.5 0.4 -0.1071068
v -0.6500001 0.15 -0.1071068
v -0.6500001 0.4 -0.1071068
v -0.5 0 0.1071068
v -0.6500001 0.15 0.1071068
v -0.5 0.4 0.1071068
v -0.6500001 0.4 0.1071068
v 0.1071068 0.15 0.65
v -0.1071067 0.15 0.65
v 0.1071068 0.4 0.65
v -0.1071067 0.4 0.65
v 0.1071068 0.4 0.5
v 0.1071068 0 0.5
v 0.65 0.4 -0.1071068
v 0.65 0.15 -0.1071068
v 0.65 0.4 0.1071068
v 0.65 0.15 0.1071068
v 0.5 0 -0.1071068
v 0.5 0.4 -0.1071068
v 0.1071068 0.4 -0.6500001
v 0.1071068 0.15 -0.6500001
v -0.1071067 0.15 -0.6500001
v -0.1071067 0.4 -0.6500001
v -0.1071067 0 -0.5
v -0.1071067 0.4 -0.5
v 0.5 0.4 -0.2071068
v 0.5 0 -0.2071068
v 0.2071068 0 0.5
v 0.2071068 0.4 0.5
v -0.5 0 0.2071068
v -0.5 0.4 0.2071068
v -0.2071068 0 -0.5
v -0.2071068 0.4 -0.5
v 0.4 0 0.1656854
v 0.1656854 0 0.4
v -0.1656854 0 0.4
v -0.4000001 0 0.1656854
v -0.4000001 0 0
v -0.4000001 0 -0.1656854
v 0.4 0 -0.1656854
v 0.1656854 0 -0.4
v -0.1656854 0 -0.4
v 0.1071068 0.8 0.5
v -0.1071067 0.8 0.5
v 0.5 0.8 -0.1071068
v 0.5 0.8 0.1071068
v -0.1071067 0.8 -0.5
v 0.1071068 0.8 -0.5
v -0.5 0.8 0.1071068
v -0.5 0.8 -0.1071068

vn 0 1 0
vn -1 0 0
vn 0 0 1
vn 1 0 0
vn -0.7071068 0 0.7071068
vn 0.7071068 0 -0.7071068
vn -0.7071068 0 -0.7071068
vn 0 0 -1
vn 0.7071068 0 0.7071068
vn 0 -0.7071068 0.7071068
vn -0.7071068 -0.7071068 0
vn 0 -0.7071068 -0.7071068
vn 0.7071068 -0.7071068 0
vn 0 -1 0
vn 0.9363292 0.3511235 0
vn 0 0.3511235 -0.9363292
vn -0.9363292 0.3511235 0
vn 0 0.3511235 0.9363292

vt -19.68504 8.153811
vt -15.74803 -6.523048
vt -19.68504 -8.153811
vt -8.153811 -19.68504
vt -6.523048 -15.74803
vt 8.153811 -19.68504
vt 6.523048 -15.74803
vt 15.74803 -6.523048
vt 19.68504 -8.153811
vt 15.74803 0
vt 15.74803 6.523048
vt -15.74803 6.523048
vt -8.153811 19.68504
vt -6.523048 15.74803
vt 8.153811 19.68504
vt 6.523048 15.74803
vt 19.68504 8.153811
vt 19.68504 0
vt -8.153811 35.43307
vt -8.153811 39.37008
vt 8.153811 35.43307
vt 0 39.37008
vt 8.153811 39.37008
vt -3.915598 35.43307
vt -5.861978E-14 35.43307
vt 3.915598 35.43307
vt 3.915598 35.43307
vt 3.03255E-08 35.43307
vt -2.646772E-13 35.43307
vt 1.225686E-13 35.43307
vt -4.216803 0
vt -8.153811 0
vt -4.216803 15.74803
vt -8.153811 15.74803
vt -4.216803 1.705846E-30
vt -8.153811 1.705846E-30
vt -4.216804 0
vt -8.153811 0
vt -4.216802 15.74803
vt 19.68504 15.74803
vt 25.59055 5.905512
vt 25.59055 15.74803
vt -19.68504 0
vt -25.59055 5.905512
vt -19.68504 15.74803
vt -25.59055 15.74803
vt 4.216803 5.905512
vt -4.216803 5.905512
vt 4.216803 15.74803
vt 19.68504 1.569154E-16
vt -19.68504 9.300936E-31
vt 19.68504 -1.839196E-23
vt 8.153811 15.74803
vt 8.153811 -7.593821E-08
vt -8.153811 -7.593821E-08
vt 8.153811 -4.148553E-13
vt -8.153811 -4.148553E-13
vt 8.153811 3.290129E-15
vt -8.153811 3.290129E-15
vt -8.153811 7.507476E-13
vt 8.153811 7.507476E-13
vt -4.216802 5.905512
vt 8.153811 -8.943546E-25
vt 4.216803 -8.943546E-25
vt 4.216803 0
vt 8.153811 0
vt 8.153811 5.117538E-30
vt 4.216803 5.117538E-30
vt 4.216803 13.91943
vt -4.216803 13.91943
vt 4.216803 22.27108
vt -4.216803 22.27108
vt -4.216802 13.91943
vt -4.216802 22.27108
vt 19.68504 4.216803
vt 19.68504 -4.216803
vt 4.216803 19.68504
vt -4.216803 19.68504
vt -15.74803 0
vt -19.68504 -4.216803
vt -19.68504 4.216803
vt 4.216803 -19.68504
vt -4.216803 -19.68504
vt 4.216803 31.49606
vt -4.216803 31.49606
vt -6.57252E-14 35.43307
vt -4.216802 31.49606
vt -19.68504 31.49606
vt 19.68504 31.49606
vt 2.504663E-13 35.43307
vt 4.216803 5.759899
vt -4.216803 5.759899
vt 4.216803 22.5788
vt -4.216803 22.5788
vt -4.216802 5.759899
vt -4.216802 22.5788
vt 6.523048 39.37008
vt 6.523048 0
vt 0 0
vt -6.523048 39.37008
vt -6.523048 0

usemtl metal

f 3/3/1 2/2/1 1/1/1
f 2/2/1 3/3/1 4/4/1
f 2/2/1 4/4/1 5/5/1
f 5/5/1 4/4/1 6/6/1
f 5/5/1 6/6/1 7/7/1
f 7/7/1 6/6/1 8/8/1
f 8/8/1 6/6/1 9/9/1
f 8/8/1 9/9/1 10/10/1
f 10/10/1 9/9/1 11/11/1
f 12/12/1 1/1/1 2/2/1
f 1/1/1 12/12/1 13/13/1
f 13/13/1 12/12/1 14/14/1
f 13/13/1 14/14/1 15/15/1
f 15/15/1 14/14/1 16/16/1
f 15/15/1 16/16/1 11/11/1
f 15/15/1 11/11/1 17/17/1
f 17/17/1 11/11/1 9/9/1
f 17/17/1 9/9/1 18/18/1
f 20/21/2 9/20/2 19/19/2
f 9/20/2 20/21/2 18/22/2
f 18/22/2 20/21/2 17/23/2
f 13/23/3 22/19/3 21/21/3
f 22/19/3 13/23/3 15/20/3
f 1/20/4 23/21/4 3/23/4
f 23/21/4 1/20/4 24/19/4
f 25/24/5 17/20/5 20/19/5
f 17/20/5 25/24/5 15/23/5
f 15/23/5 25/24/5 26/25/5
f 15/23/5 26/25/5 27/26/5
f 15/23/5 27/26/5 22/21/5
f 3/20/6 28/21/6 4/23/6
f 28/21/6 3/20/6 29/27/6
f 29/27/6 3/20/6 30/28/6
f 30/28/6 3/20/6 31/24/6
f 31/24/6 3/20/6 23/19/6
f 33/24/7 6/20/7 32/19/7
f 6/20/7 33/24/7 9/23/7
f 9/23/7 33/24/7 34/29/7
f 9/23/7 34/29/7 35/26/7
f 9/23/7 35/26/7 19/21/7
f 6/23/8 28/19/8 32/21/8
f 28/19/8 6/23/8 4/20/8
f 1/23/9 36/26/9 24/21/9
f 36/26/9 1/23/9 37/30/9
f 37/30/9 1/23/9 38/24/9
f 38/24/9 1/23/9 21/19/9
f 21/19/9 1/23/9 13/20/9
f 41/33/3 40/32/3 39/31/3
f 40/32/3 41/33/3 42/34/3
f 45/34/4 44/35/4 43/33/4
f 44/35/4 45/34/4 46/36/4
f 49/39/8 48/38/8 47/37/8
f 48/38/8 49/39/8 50/34/8
f 53/31/2 52/34/2 51/32/2
f 52/34/2 53/31/2 54/33/2
f 55/41/8 54/40/8 53/18/8
f 54/40/8 55/41/8 56/42/8
f 59/45/3 58/44/3 57/43/3
f 58/44/3 59/45/3 60/46/3
f 63/49/3 62/48/3 61/47/3
f 62/48/3 63/49/3 64/33/3
f 62/41/2 41/40/2 39/50/2
f 41/40/2 62/41/2 64/42/2
f 63/46/4 66/43/4 65/45/4
f 66/43/4 63/46/4 61/44/4
f 69/33/4 68/47/4 67/49/4
f 68/47/4 69/33/4 70/48/4
f 70/41/3 43/40/3 44/18/3
f 43/40/3 70/41/3 69/42/3
f 72/45/8 68/44/8 71/51/8
f 68/44/8 72/45/8 67/46/8
f 49/40/4 74/41/4 73/42/4
f 74/41/4 49/40/4 47/52/4
f 77/43/2 76/46/2 75/44/2
f 76/46/2 77/43/2 78/45/2
f 79/34/6 48/54/6 50/53/6
f 48/54/6 79/34/6 80/55/6
f 45/53/9 81/57/9 46/56/9
f 81/57/9 45/53/9 82/34/9
f 42/53/5 83/59/5 40/58/5
f 83/59/5 42/53/5 84/34/5
f 51/61/7 86/34/7 85/60/7
f 86/34/7 51/61/7 52/53/7
f 58/47/2 56/33/2 55/48/2
f 56/33/2 58/47/2 60/49/2
f 76/49/8 74/62/8 75/47/8
f 74/62/8 76/49/8 73/39/8
f 86/53/8 77/64/8 85/63/8
f 77/64/8 86/53/8 78/49/8
f 83/66/2 59/49/2 57/65/2
f 59/49/2 83/66/2 84/53/2
f 82/53/3 66/65/3 81/66/3
f 66/65/3 82/53/3 65/49/3
f 72/49/4 80/67/4 79/53/4
f 80/67/4 72/49/4 71/68/4
f 61/71/10 39/70/10 66/69/10
f 39/70/10 61/71/10 62/72/10
f 57/69/11 55/72/11 53/70/11
f 55/72/11 57/69/11 58/71/11
f 75/71/12 47/73/12 77/69/12
f 47/73/12 75/71/12 74/74/12
f 70/72/13 71/69/13 68/71/13
f 71/69/13 70/72/13 44/70/13

usemtl metalRed

f 46/17/14 71/76/14 44/75/14
f 71/76/14 46/17/14 80/9/14
f 80/9/14 46/17/14 87/11/14
f 87/11/14 46/17/14 81/15/14
f 87/11/14 81/15/14 88/16/14
f 88/16/14 81/15/14 66/77/14
f 88/16/14 66/77/14 89/14/14
f 89/14/14 66/77/14 39/78/14
f 89/14/14 39/78/14 40/13/14
f 89/14/14 40/13/14 90/12/14
f 90/12/14 40/13/14 83/1/14
f 90/12/14 83/1/14 91/79/14
f 91/79/14 83/1/14 92/2/14
f 92/2/14 83/1/14 53/80/14
f 53/80/14 83/1/14 57/81/14
f 93/8/14 80/9/14 87/11/14
f 80/9/14 93/8/14 48/6/14
f 48/6/14 93/8/14 94/7/14
f 48/6/14 94/7/14 47/82/14
f 47/82/14 94/7/14 95/5/14
f 47/82/14 95/5/14 77/83/14
f 77/83/14 95/5/14 85/4/14
f 85/4/14 95/5/14 92/2/14
f 85/4/14 92/2/14 51/3/14
f 51/3/14 92/2/14 53/80/14
f 21/21/3 65/49/3 82/53/3
f 65/49/3 21/21/3 96/84/3
f 96/84/3 21/21/3 97/85/3
f 22/19/3 97/85/3 21/21/3
f 42/34/3 97/85/3 22/19/3
f 97/85/3 42/34/3 41/33/3
f 22/21/5 84/34/5 42/53/5
f 84/34/5 22/21/5 20/19/5
f 20/19/5 22/21/5 27/26/5
f 20/19/5 27/26/5 26/86/5
f 20/19/5 26/86/5 25/24/5
f 23/21/4 98/84/4 79/53/4
f 98/84/4 23/21/4 24/19/4
f 98/84/4 24/19/4 99/85/4
f 99/85/4 24/19/4 43/33/4
f 43/33/4 24/19/4 45/34/4
f 72/49/4 79/53/4 98/84/4
f 32/21/8 78/49/8 86/53/8
f 78/49/8 32/21/8 100/84/8
f 100/84/8 32/21/8 101/87/8
f 28/19/8 101/87/8 32/21/8
f 50/34/8 101/87/8 28/19/8
f 101/87/8 50/34/8 49/39/8
f 84/53/2 102/84/2 59/49/2
f 20/21/2 102/84/2 84/53/2
f 20/21/2 103/85/2 102/84/2
f 19/19/2 103/85/2 20/21/2
f 19/19/2 54/33/2 103/85/2
f 54/33/2 19/19/2 52/34/2
f 63/46/4 65/45/4 96/88/4
f 99/89/3 43/40/3 69/42/3
f 49/40/4 73/42/4 101/89/4
f 24/21/9 82/34/9 45/53/9
f 82/34/9 24/21/9 21/19/9
f 21/19/9 24/21/9 36/26/9
f 21/19/9 36/26/9 37/90/9
f 21/19/9 37/90/9 38/24/9
f 52/53/7 32/19/7 86/34/7
f 32/19/7 52/53/7 33/24/7
f 33/24/7 52/53/7 34/29/7
f 34/29/7 52/53/7 35/26/7
f 35/26/7 52/53/7 19/21/7
f 29/27/6 50/53/6 28/21/6
f 50/53/6 29/27/6 79/34/6
f 79/34/6 29/27/6 30/28/6
f 79/34/6 30/28/6 31/24/6
f 79/34/6 31/24/6 23/19/6
f 103/89/8 54/40/8 56/42/8
f 102/88/3 60/46/3 59/45/3
f 64/42/2 97/89/2 41/40/2
f 100/88/2 76/46/2 78/45/2
f 98/88/8 67/46/8 72/45/8
f 98/93/15 69/92/15 67/91/15
f 69/92/15 98/93/15 99/94/15
f 100/93/16 73/95/16 76/91/16
f 73/95/16 100/93/16 101/96/16
f 60/91/17 103/94/17 56/92/17
f 103/94/17 60/91/17 102/93/17
f 96/93/18 64/92/18 63/91/18
f 64/92/18 96/93/18 97/94/18

usemtl metalDark

f 10/22/4 92/98/4 8/97/4
f 92/98/4 10/22/4 91/99/4
f 91/99/4 10/22/4 11/100/4
f 91/99/4 11/100/4 90/101/4
f 16/100/6 90/98/6 11/97/6
f 90/98/6 16/100/6 89/101/6
f 16/97/8 88/101/8 89/98/8
f 88/101/8 16/97/8 14/100/8
f 88/98/7 12/100/7 87/101/7
f 12/100/7 88/98/7 14/97/7
f 87/98/2 2/100/2 93/101/2
f 2/100/2 87/98/2 12/97/2
f 93/98/5 5/100/5 94/101/5
f 5/100/5 93/98/5 2/97/5
f 5/97/3 95/101/3 94/98/3
f 95/101/3 5/97/3 7/100/3
f 8/100/9 95/98/9 7/97/9
f 95/98/9 8/100/9 92/101/9

