# Created by Kenney (www.kenney.nl)

mtllib rocket_topB.mtl

g rocket_topB

v 0.5 0 0.2071068
v 0.5 0 -0.2071068
v 0.2071068 0 0.5
v 0.2071068 0 -0.5
v -0.2071068 0 0.5
v -0.2071068 0 -0.5
v -0.5 0 0.2071068
v -0.5 0 -0.2071068
v 0.1812184 0.25 0.4375
v -0.1812184 0.25 0.4375
v 0.4375 0.25 0.1812184
v 0.4375 0.25 -0.1812184
v 0.1812184 0.25 -0.4375
v -0.1812184 0.25 -0.4375
v -0.4375 0.25 -0.1812184
v -0.4375 0.25 0.1812184
v 0.05177665 0.7 -0.125
v 0.05177665 0.7 -0.05177665
v -0.05177665 0.7 -0.125
v -0.05177665 0.7 -0.05177665
v -0.125 0.7 -0.05177665
v -0.05177665 0.7 0.05177665
v -0.05177665 0.7 0.125
v -0.125 0.7 0.05177665
v 0.05177665 0.7 0.125
v 0.125 0.7 0.05177665
v 0.125 0.7 -0.05177665
v 0.05177665 0.7 0.05177665
v -0.125 0.6 -0.05177665
v -0.125 0.6 0.05177665
v -0.05177665 0.6 0.125
v 0.05177665 0.6 0.125
v 0.125 0.6 0.05177665
v 0.125 0.6 -0.05177665
v 0.05177665 0.6 -0.125
v -0.05177665 0.6 -0.125
v 0.02588832 1.1 -0.02588832
v 0.02588832 1.1 0.02588832
v -0.02588844 1.1 -0.02588832
v -0.02588844 1.1 0.02588832

vn 0 -1 0
vn 0 0.2425356 0.9701425
vn 0.6859944 0.2425356 0.6859944
vn 0.9701425 0.2425356 0
vn 0.6859944 0.2425356 -0.6859944
vn 0 0.2425356 -0.9701425
vn -0.6859944 0.2425356 -0.6859944
vn -0.9701425 0.2425356 0
vn -0.6859944 0.2425356 0.6859944
vn 0 1 0
vn -1 0 0
vn -0.7071068 0 0.7071068
vn 0 0 1
vn 0.7071068 0 0.7071068
vn 1 0 0
vn 0.7071068 0 -0.7071068
vn 0 0 -1
vn -0.7071068 0 -0.7071068
vn 0 0.06458574 -0.9979121
vn 0.9979121 0.06458574 0
vn -0.9979121 0.06458574 0
vn 0 0.06458574 0.9979121
vn 0.7459376 0.6660157 0
vn -0.7459376 0.6660157 0
vn 0 0.6660157 -0.7459376
vn -0.5274576 0.6660157 -0.5274576
vn 0 0.6660157 0.7459376
vn -0.5274576 0.6660157 0.5274576
vn 0.5274576 0.6660157 -0.5274576
vn 0.5274576 0.6660157 0.5274576

vt 19.68504 8.153811
vt 19.68504 -8.153811
vt 8.153811 19.68504
vt 8.153811 -19.68504
vt -8.153811 19.68504
vt -8.153811 -19.68504
vt -19.68504 8.153811
vt -19.68504 -8.153811
vt 8.153811 -4.774323
vt -8.153811 -4.774323
vt 7.134584 5.371114
vt -7.134584 5.371114
vt -2.038453 -4.92126
vt -2.038453 -2.038453
vt 2.038453 -4.92126
vt 2.038453 -2.038453
vt 4.92126 -2.038453
vt 2.038453 2.038453
vt 2.038453 4.92126
vt 4.92126 2.038453
vt -2.038453 4.92126
vt -4.92126 2.038453
vt -4.92126 -2.038453
vt -2.038453 2.038453
vt -2.038453 23.62205
vt -2.038453 27.55906
vt 2.038453 23.62205
vt 2.038453 27.55906
vt -1.019226 -1.019226
vt -1.019226 1.019226
vt 1.019226 -1.019226
vt 1.019226 1.019226
vt 2.038453 27.36986
vt -2.038453 27.36986
vt 1.019226 43.15084
vt -1.019226 43.15084
vt 7.134584 -4.129822
vt -7.134584 -4.129822
vt 2.038453 14.34294
vt -2.038453 14.34294

usemtl metalRed

f 3/3/1 2/2/1 1/1/1
f 2/2/1 3/3/1 4/4/1
f 4/4/1 3/3/1 5/5/1
f 4/4/1 5/5/1 6/6/1
f 6/6/1 5/5/1 7/7/1
f 6/6/1 7/7/1 8/8/1
f 9/11/2 5/10/2 3/9/2
f 5/10/2 9/11/2 10/12/2
f 9/12/3 1/9/3 11/11/3
f 1/9/3 9/12/3 3/10/3
f 12/11/4 1/10/4 2/9/4
f 1/10/4 12/11/4 11/12/4
f 13/11/5 2/10/5 4/9/5
f 2/10/5 13/11/5 12/12/5
f 14/11/6 4/10/6 6/9/6
f 4/10/6 14/11/6 13/12/6
f 8/9/7 14/12/7 6/10/7
f 14/12/7 8/9/7 15/11/7
f 7/9/8 15/12/8 8/10/8
f 15/12/8 7/9/8 16/11/8
f 7/10/9 10/11/9 16/12/9
f 10/11/9 7/10/9 5/9/9
f 19/15/10 18/14/10 17/13/10
f 18/14/10 19/15/10 20/16/10
f 20/16/10 19/15/10 21/17/10
f 20/16/10 21/17/10 22/18/10
f 22/18/10 21/17/10 23/19/10
f 23/19/10 21/17/10 24/20/10
f 25/21/10 17/13/10 18/14/10
f 25/21/10 22/18/10 23/19/10
f 26/22/10 17/13/10 25/21/10
f 17/13/10 26/22/10 27/23/10
f 25/21/10 18/14/10 28/24/10
f 25/21/10 28/24/10 22/18/10
f 30/27/11 21/26/11 29/25/11
f 21/26/11 30/27/11 24/28/11
f 31/27/12 24/26/12 30/25/12
f 24/26/12 31/27/12 23/28/12
f 25/28/13 31/25/13 32/27/13
f 31/25/13 25/28/13 23/26/13
f 25/26/14 33/27/14 26/28/14
f 33/27/14 25/26/14 32/25/14
f 26/26/15 34/27/15 27/28/15
f 34/27/15 26/26/15 33/25/15
f 27/26/16 35/27/16 17/28/16
f 35/27/16 27/26/16 34/25/16
f 19/28/17 35/25/17 36/27/17
f 35/25/17 19/28/17 17/26/17
f 29/27/18 19/26/18 36/25/18
f 19/26/18 29/27/18 21/28/18
f 39/31/10 38/30/10 37/29/10
f 38/30/10 39/31/10 40/32/10
f 39/35/19 18/34/19 20/33/19
f 18/34/19 39/35/19 37/36/19
f 37/35/20 28/34/20 18/33/20
f 28/34/20 37/35/20 38/36/20
f 22/33/21 39/36/21 20/34/21
f 39/36/21 22/33/21 40/35/21
f 38/35/22 22/34/22 28/33/22
f 22/34/22 38/35/22 40/36/22

usemtl _defaultMat

f 13/11/10 11/10/10 12/9/10
f 11/11/10 13/10/10 9/9/10
f 9/11/10 13/10/10 14/9/10
f 9/11/10 14/10/10 10/9/10
f 10/11/10 14/10/10 15/9/10
f 10/11/10 15/10/10 16/9/10

usemtl metal

f 34/39/23 11/38/23 12/37/23
f 11/38/23 34/39/23 33/40/23
f 16/37/24 29/40/24 15/38/24
f 29/40/24 16/37/24 30/39/24
f 36/39/25 13/38/25 14/37/25
f 13/38/25 36/39/25 35/40/25
f 14/38/26 29/39/26 36/40/26
f 29/39/26 14/38/26 15/37/26
f 32/39/27 10/38/27 9/37/27
f 10/38/27 32/39/27 31/40/27
f 30/40/28 10/37/28 31/39/28
f 10/37/28 30/40/28 16/38/28
f 13/37/29 34/40/29 12/38/29
f 34/40/29 13/37/29 35/39/29
f 33/39/30 9/38/30 11/37/30
f 9/38/30 33/39/30 32/40/30

