# Created by Kenney (www.kenney.nl)

mtllib rocket_baseB.mtl

g rocket_baseB

v 0.25 0.2 0.1035534
v 0.25 0.2 -0.1035534
v 0.1035534 0.2 0.25
v 0.1035534 0.2 -0.25
v -0.1035533 0.2 0.25
v -0.1035533 0.2 -0.25
v -0.25 0.2 0.1035534
v -0.25 0.2 -0.1035534
v -0.5 0.6 -0.2071068
v -0.5 0.6 -0.05710673
v -0.5 0.6 0.05710673
v -0.5 0.6 0.2071068
v 0.2071068 0.6 -0.5
v 0.5 0.6 -0.2071068
v 0.5 0.6 0.2071068
v 0.2071068 0.6 0.5
v -0.2071068 0.6 0.5
v 0.05710673 0.6 0.5
v -0.05710673 0.6 0.5
v -0.2071068 0.6 -0.5
v -0.05710673 0.6 -0.5
v 0.05710673 0.6 -0.5
v 0.5 0.6 -0.05710673
v 0.5 0.6 0.05710673
v 0.5 0.9 -0.2071068
v 0.5 0.9 -0.1571068
v 0.5 0.8 -0.1571068
v 0.5 0.8 -0.05710673
v -0.1571069 0.8 -0.5
v -0.2071068 0.9 -0.5
v -0.1571069 0.9 -0.5
v -0.05710673 0.8 -0.5
v 0.5 0.9 0.2071068
v 0.2071068 0.9 0.5
v -0.5 0.9 0.2071068
v -0.2071068 0.9 0.5
v 0.2071068 0.9 -0.5
v -0.5 0.9 -0.2071068
v 0.5 0.9 0.1571068
v 0.5 0.8 0.1571068
v 0.5 0.8 0.05710673
v 0.8 0.1 0.05710673
v 0.8 0.1 -0.05710673
v 0.5 0.2 0.05710673
v 0.5 0.2 -0.05710673
v 0.6 0.8 0.05710673
v 0.6 0.9 0.05710673
v 0.5 0.9 0.05710673
v 0.6 0.8 -0.05710673
v 0.6 0.9 -0.05710673
v 0.9 0 0.05710673
v 0.8 0 0.05710673
v 0.9 0.6 0.05710673
v 0.9 0.6 -0.05710673
v 0.9 0 -0.05710673
v 0.8 0 -0.05710673
v 0.5 0.9 -0.05710673
v 0.05710673 0.8 -0.5
v 0.1571068 0.8 -0.5
v 0.1571068 0.9 -0.5
v 0.05710673 0 -0.8
v -0.05710673 0 -0.8
v 0.05710673 0.1 -0.8
v -0.05710673 0.1 -0.8
v 0.05710673 0.9 -0.5
v 0.05710673 0.9 -0.5999999
v -0.05710673 0.8 -0.5999999
v -0.05710673 0.9 -0.5999999
v -0.05710673 0 -0.9000001
v -0.05710673 0.6 -0.9000001
v -0.05710673 0.2 -0.5
v 0.05710673 0 -0.9000001
v 0.05710673 0.6 -0.9000001
v 0.05710673 0.2 -0.5
v 0.05710673 0.8 -0.5999999
v -0.05710673 0.9 -0.5
v -0.1571069 0.8 0.5
v -0.05710673 0.8 0.5
v -0.1571069 0.9 0.5
v 0.1571068 0.8 0.5
v 0.1571068 0.9 0.5
v 0.05710673 0.8 0.5
v 0.05710673 0.9 0.6
v 0.05710673 0.9 0.5
v 0.05710673 0 0.9
v -0.05710673 0 0.9
v 0.05710673 0.6 0.9
v -0.05710673 0.6 0.9
v 0.05710673 0.2 0.5
v 0.05710673 0.1 0.8
v 0.05710673 0 0.8
v -0.05710673 0.9 0.5
v -0.05710673 0.9 0.6
v -0.05710673 0.8 0.6
v -0.05710673 0 0.8
v -0.05710673 0.1 0.8
v -0.05710673 0.2 0.5
v 0.05710673 0.8 0.6
v -0.5 0.8 -0.05710673
v -0.5 0.8 -0.1571068
v -0.5 0.9 -0.1571068
v -0.5 0.8 0.05710673
v -0.5 0.8 0.1571068
v -0.5 0.9 0.1571068
v -0.8 0.1 -0.05710673
v -0.8 0 -0.05710673
v -0.8 0.1 0.05710673
v -0.8 0 0.05710673
v -0.5 0.9 0.05710673
v -0.5999999 0.9 0.05710673
v -0.5999999 0.8 0.05710673
v -0.9000001 0 -0.05710673
v -0.9000001 0.6 -0.05710673
v -0.9000001 0 0.05710673
v -0.9000001 0.6 0.05710673
v -0.5 0.2 -0.05710673
v -0.5999999 0.8 -0.05710673
v -0.5 0.9 -0.05710673
v -0.5999999 0.9 -0.05710673
v -0.5 0.2 0.05710673
v -0.5 1 0.2071068
v -0.2071068 1 0.5
v 0.5 1 0.2071068
v 0.2071068 1 0.5
v 0.2071068 1 -0.5
v 0.5 1 -0.2071068
v -0.5 1 -0.2071068
v -0.2071068 1 -0.5
v 0.5 1 0.05710673
v 0.5 1 -0.05710673
v 0.5 1.3 -0.05710673
v 0.5 1.3 0.05710673
v 0.05710673 1 -0.5
v -0.05710673 1 -0.5
v 0.05710673 1.3 -0.5
v -0.05710673 1.3 -0.5
v -0.05710673 1 0.5
v 0.05710673 1 0.5
v -0.05710673 1.3 0.5
v 0.05710673 1.3 0.5
v -0.5 1 -0.05710673
v -0.5 1 0.05710673
v -0.5 1.3 -0.05710673
v -0.5 1.3 0.05710673

vn 0 -1 0
vn -0.8479983 -0.529999 0
vn 0.5996253 -0.529999 -0.5996253
vn 0.5996253 -0.529999 0.5996253
vn 0 -0.529999 0.8479983
vn -0.5996253 -0.529999 0.5996253
vn -0.5996253 -0.529999 -0.5996253
vn 0 -0.529999 -0.8479983
vn 0.8479983 -0.529999 0
vn 1 0 0
vn 0 0 -1
vn 0.7071068 0 0.7071068
vn -0.7071068 0 0.7071068
vn 0.7071068 0 -0.7071068
vn -0.7071068 0 -0.7071068
vn -0.3162278 -0.9486833 0
vn 0 1 0
vn 0 0 1
vn -1 0 0
vn 0 -0.9486833 0.3162278
vn 0 -0.9486833 -0.3162278
vn 0.3162278 -0.9486833 0
vn 0.8682431 0.4961389 0
vn 0 0.4961389 -0.8682431
vn -0.8682431 0.4961389 0
vn 0 0.4961389 0.8682431

vt 9.84252 4.076905
vt 9.84252 -4.076905
vt 4.076905 9.84252
vt 4.076905 -9.84252
vt -4.076905 9.84252
vt -4.076905 -9.84252
vt -9.84252 4.076905
vt -9.84252 -4.076905
vt -8.153811 30.46451
vt -2.248298 30.46451
vt -4.076905 11.89368
vt 4.076905 11.89368
vt 2.248298 30.46451
vt 8.153811 30.46451
vt 8.153811 35.43307
vt 8.153811 23.62205
vt 6.185307 35.43307
vt 6.185307 31.49606
vt 2.248298 23.62205
vt 2.248298 31.49606
vt -8.153811 35.43307
vt -8.153811 23.62205
vt -6.185307 35.43307
vt -6.185307 31.49606
vt -2.248298 23.62205
vt -2.248298 31.49606
vt 2.248298 -28.6348
vt -2.248298 -28.6348
vt 2.248298 -16.18489
vt -2.248298 -16.18489
vt 15.11352 31.49606
vt 9.545753 31.49606
vt 15.11352 35.43307
vt 9.545753 35.43307
vt -19.68504 2.248298
vt -23.62205 2.248298
vt -19.68504 6.185307
vt -9.545753 31.49606
vt -15.11352 31.49606
vt -9.545753 35.43307
vt -15.11352 35.43307
vt 35.43307 -1.534161E-15
vt 31.49606 -1.534161E-15
vt 35.43307 23.62205
vt 31.49606 3.937008
vt 19.68504 7.874016
vt 19.68504 23.62205
vt 2.248298 0
vt -2.248298 0
vt 19.68504 -2.248298
vt 23.62205 -2.248298
vt 19.68504 -6.185307
vt -2.248298 -1.625506E-43
vt -2.248298 3.937008
vt 2.248298 -1.625506E-43
vt 2.248298 3.937008
vt -2.248298 7.874016
vt 2.248298 7.874016
vt 19.68504 6.185307
vt 23.62205 2.248298
vt 19.68504 2.248298
vt -19.68504 -6.185307
vt -23.62205 -2.248298
vt -19.68504 -2.248298
vt -31.49606 -7.670804E-16
vt -35.43307 -7.670804E-16
vt -31.49606 3.937008
vt -35.43307 23.62205
vt -19.68504 7.874016
vt -19.68504 23.62205
vt 35.43307 2.248298
vt 35.43307 -2.248298
vt 31.49606 2.248298
vt 31.49606 -2.248298
vt -6.185307 -19.68504
vt -2.248298 -19.68504
vt -2.248298 -23.62205
vt -35.43307 -4.489865E-28
vt -31.49606 -4.489865E-28
vt 35.43307 -2.190056E-26
vt 31.49606 -2.190056E-26
vt 2.248298 -19.68504
vt 6.185307 -19.68504
vt 2.248298 -23.62205
vt 2.248298 -31.49606
vt 2.248298 -35.43307
vt -2.248298 -31.49606
vt -2.248298 -35.43307
vt -6.185307 19.68504
vt -2.248298 19.68504
vt 2.248298 4.049753E-43
vt -2.248298 4.049753E-43
vt -31.49606 1.786949E-16
vt -35.43307 1.786949E-16
vt 2.248298 19.68504
vt 6.185307 19.68504
vt 2.248298 35.43307
vt -2.248298 35.43307
vt 2.248298 9.125993E-28
vt -2.248298 9.125993E-28
vt 35.43307 0
vt 31.49606 0
vt -31.49606 0
vt -35.43307 0
vt -31.49606 2.248298
vt -31.49606 -2.248298
vt -35.43307 2.248298
vt -35.43307 -2.248298
vt -8.153811 39.37008
vt 8.153811 39.37008
vt -2.248298 39.37008
vt 2.248298 39.37008
vt -19.68504 35.43307
vt -23.62205 35.43307
vt -19.68504 39.37008
vt -19.68504 51.1811
vt -23.62205 31.49606
vt -19.68504 31.49606
vt -2.248298 51.1811
vt 2.248298 51.1811
vt 23.62205 35.43307
vt 19.68504 51.1811
vt 19.68504 39.37008
vt 19.68504 35.43307
vt 23.62205 31.49606
vt 19.68504 31.49606
vt -19.68504 8.153811
vt -19.68504 -8.153811
vt -8.153811 -19.68504
vt -8.153811 19.68504
vt 8.153811 19.68504
vt 8.153811 -19.68504
vt 19.68504 -8.153811
vt 19.68504 8.153811
vt 2.248298 2.929954
vt -2.248298 2.929954
vt 2.248298 34.67113
vt -2.248298 34.67113

usemtl metalDark

f 3/3/1 2/2/1 1/1/1
f 2/2/1 3/3/1 4/4/1
f 4/4/1 3/3/1 5/5/1
f 4/4/1 5/5/1 6/6/1
f 6/6/1 5/5/1 7/7/1
f 6/6/1 7/7/1 8/8/1
f 8/11/2 10/10/2 9/9/2
f 10/10/2 8/11/2 7/12/2
f 10/10/2 7/12/2 11/13/2
f 11/13/2 7/12/2 12/14/2
f 13/14/3 2/11/3 4/12/3
f 2/11/3 13/14/3 14/9/3
f 15/14/4 3/11/4 1/12/4
f 3/11/4 15/14/4 16/9/4
f 16/14/5 5/11/5 3/12/5
f 5/11/5 16/14/5 17/9/5
f 17/9/5 16/14/5 18/13/5
f 17/9/5 18/13/5 19/10/5
f 5/12/6 12/9/6 7/11/6
f 12/9/6 5/12/6 17/14/6
f 6/11/7 9/14/7 20/9/7
f 9/14/7 6/11/7 8/12/7
f 20/14/8 4/11/8 6/12/8
f 4/11/8 20/14/8 21/13/8
f 21/13/8 13/9/8 4/11/8
f 13/9/8 21/13/8 22/10/8
f 23/13/9 2/12/9 14/14/9
f 2/12/9 23/13/9 1/11/9
f 1/11/9 23/13/9 24/10/9
f 1/11/9 24/10/9 15/9/9

usemtl metal

f 26/17/10 14/16/10 25/15/10
f 14/16/10 26/17/10 27/18/10
f 27/18/10 23/19/10 14/16/10
f 23/19/10 27/18/10 28/20/10
f 30/15/11 29/18/11 20/16/11
f 29/18/11 30/15/11 31/17/11
f 32/20/11 20/16/11 29/18/11
f 20/16/11 32/20/11 21/19/11
f 34/21/12 15/16/12 33/15/12
f 15/16/12 34/21/12 16/22/12
f 17/16/13 35/21/13 12/22/13
f 35/21/13 17/16/13 36/15/13
f 25/21/14 13/16/14 37/15/14
f 13/16/14 25/21/14 14/22/14
f 9/16/15 30/21/15 20/22/15
f 30/21/15 9/16/15 38/15/15
f 33/21/10 40/24/10 39/23/10
f 15/22/10 40/24/10 33/21/10
f 24/25/10 40/24/10 15/22/10
f 40/24/10 24/25/10 41/26/10
f 44/29/16 43/28/16 42/27/16
f 43/28/16 44/29/16 45/30/16
f 47/33/12 40/32/12 46/31/12
f 40/32/12 47/33/12 39/34/12
f 39/37/17 47/36/17 48/35/17
f 26/40/14 49/39/14 27/38/14
f 49/39/14 26/40/14 50/41/14
f 53/44/18 52/43/18 51/42/18
f 52/43/18 53/44/18 42/45/18
f 42/45/18 53/44/18 44/46/18
f 44/46/18 53/44/18 24/47/18
f 53/25/10 55/48/10 54/19/10
f 55/48/10 53/25/10 51/49/10
f 27/52/1 49/51/1 28/50/1
f 52/55/19 43/54/19 56/53/19
f 43/54/19 52/55/19 42/56/19
f 44/58/19 23/25/19 45/57/19
f 23/25/19 44/58/19 24/19/19
f 41/61/1 46/60/1 40/59/1
f 57/64/17 50/63/17 26/62/17
f 43/67/11 55/66/11 56/65/11
f 55/66/11 43/67/11 54/68/11
f 54/68/11 43/67/11 45/69/11
f 54/68/11 45/69/11 23/70/11
f 52/73/1 55/72/1 51/71/1
f 55/72/1 52/73/1 56/74/1
f 22/25/11 37/21/11 13/22/11
f 59/24/11 22/25/11 58/26/11
f 37/21/11 59/24/11 60/23/11
f 37/21/11 22/25/11 59/24/11
f 63/56/18 62/49/18 61/48/18
f 62/49/18 63/56/18 64/54/18
f 66/77/17 65/76/17 60/75/17
f 29/75/1 67/77/1 32/76/1
f 29/38/15 68/41/15 67/39/15
f 68/41/15 29/38/15 31/40/15
f 62/79/19 70/68/19 69/78/19
f 70/68/19 62/79/19 64/67/19
f 70/68/19 64/67/19 21/70/19
f 21/70/19 64/67/19 71/69/19
f 70/19/11 72/49/11 69/48/11
f 72/49/11 70/19/11 73/25/11
f 22/19/18 71/57/18 74/58/18
f 71/57/18 22/19/18 21/25/18
f 22/47/10 72/80/10 73/44/10
f 72/80/10 22/47/10 63/45/10
f 63/45/10 22/47/10 74/46/10
f 61/81/10 72/80/10 63/45/10
f 75/84/1 59/83/1 58/82/1
f 31/83/17 76/82/17 68/84/17
f 71/30/20 63/27/20 74/29/20
f 63/27/20 71/30/20 64/28/20
f 66/33/14 59/32/14 75/31/14
f 59/32/14 66/33/14 60/34/14
f 62/87/1 72/86/1 61/85/1
f 72/86/1 62/87/1 69/88/1
f 17/22/18 77/24/18 36/21/18
f 77/24/18 17/22/18 19/25/18
f 77/24/18 19/25/18 78/26/18
f 36/21/18 77/24/18 79/23/18
f 16/16/18 80/18/18 18/19/18
f 80/18/18 16/16/18 34/15/18
f 80/18/18 34/15/18 81/17/18
f 82/20/18 18/19/18 80/18/18
f 84/90/17 83/25/17 81/89/17
f 87/19/18 86/92/18 85/91/18
f 86/92/18 87/19/18 88/25/18
f 18/70/10 90/67/10 89/69/10
f 90/67/10 18/70/10 87/68/10
f 90/67/10 87/68/10 91/93/10
f 91/93/10 87/68/10 85/94/10
f 79/96/17 93/19/17 92/95/17
f 77/89/1 78/90/1 94/25/1
f 86/98/1 91/20/1 85/97/1
f 91/20/1 86/98/1 95/26/1
f 86/80/19 96/45/19 95/81/19
f 88/44/19 96/45/19 86/80/19
f 88/44/19 97/46/19 96/45/19
f 97/46/19 88/44/19 19/47/19
f 96/27/21 89/30/21 90/28/21
f 89/30/21 96/27/21 97/29/21
f 93/33/13 77/32/13 94/31/13
f 77/32/13 93/33/13 79/34/13
f 19/19/11 89/57/11 97/58/11
f 89/57/11 19/19/11 18/25/11
f 82/95/1 80/96/1 98/19/1
f 83/41/12 80/38/12 81/40/12
f 80/38/12 83/41/12 98/39/12
f 96/56/11 91/100/11 95/99/11
f 91/100/11 96/56/11 90/54/11
f 10/25/19 38/21/19 9/22/19
f 100/24/19 10/25/19 99/26/19
f 101/23/19 38/21/19 100/24/19
f 38/21/19 10/25/19 100/24/19
f 12/16/19 102/20/19 11/19/19
f 102/20/19 12/16/19 103/18/19
f 103/18/19 12/16/19 104/17/19
f 104/17/19 12/16/19 35/15/19
f 107/54/10 106/48/10 105/56/10
f 106/48/10 107/54/10 108/49/10
f 110/60/17 104/59/17 109/61/17
f 111/36/1 102/35/1 103/37/1
f 114/48/19 113/25/19 112/49/19
f 113/25/19 114/48/19 115/19/19
f 113/44/11 106/102/11 112/101/11
f 106/102/11 113/44/11 105/45/11
f 105/45/11 113/44/11 116/46/11
f 116/46/11 113/44/11 10/47/11
f 117/63/1 100/62/1 99/64/1
f 119/51/17 118/50/17 101/52/17
f 11/25/10 116/58/10 10/19/10
f 116/58/10 11/25/10 120/57/10
f 107/28/22 116/29/22 120/30/22
f 116/29/22 107/28/22 105/27/22
f 107/67/18 114/104/18 108/103/18
f 114/104/18 107/67/18 115/68/18
f 115/68/18 107/67/18 120/69/18
f 115/68/18 120/69/18 11/70/18
f 104/40/13 111/39/13 103/38/13
f 111/39/13 104/40/13 110/41/13
f 114/107/1 106/106/1 108/105/1
f 106/106/1 114/107/1 112/108/1
f 117/31/15 101/34/15 100/32/15
f 101/34/15 117/31/15 119/33/15

usemtl metalRed

f 36/15/13 121/109/13 35/21/13
f 121/109/13 36/15/13 122/110/13
f 123/110/12 34/21/12 33/15/12
f 34/21/12 123/110/12 124/109/12
f 125/110/14 25/21/14 37/15/14
f 25/21/14 125/110/14 126/109/14
f 127/110/15 30/21/15 38/15/15
f 30/21/15 127/110/15 128/109/15
f 123/109/10 48/98/10 129/111/10
f 48/98/10 123/109/10 39/23/10
f 39/23/10 123/109/10 33/21/10
f 130/112/10 25/15/10 126/110/10
f 25/15/10 130/112/10 26/17/10
f 26/17/10 130/112/10 57/97/10
f 130/115/11 50/114/11 57/113/11
f 131/116/11 50/114/11 130/115/11
f 54/68/11 50/114/11 131/116/11
f 54/68/11 49/117/11 50/114/11
f 54/68/11 28/118/11 49/117/11
f 28/118/11 54/68/11 23/70/11
f 129/112/19 131/119/19 130/111/19
f 131/119/19 129/112/19 132/120/19
f 133/111/11 60/23/11 65/98/11
f 125/109/11 60/23/11 133/111/11
f 60/23/11 125/109/11 37/21/11
f 128/110/11 31/17/11 30/15/11
f 31/17/11 128/110/11 76/97/11
f 76/97/11 128/110/11 134/112/11
f 135/120/18 134/111/18 133/112/18
f 134/111/18 135/120/18 136/119/18
f 21/70/19 67/117/19 70/68/19
f 67/117/19 21/70/19 32/118/19
f 68/114/19 70/68/19 67/117/19
f 70/68/19 68/114/19 136/116/19
f 136/116/19 68/114/19 134/115/19
f 134/115/19 68/114/19 76/113/19
f 135/122/10 66/121/10 73/44/10
f 66/121/10 135/122/10 133/123/10
f 66/121/10 133/123/10 65/124/10
f 75/125/10 73/44/10 66/121/10
f 73/44/10 75/125/10 22/47/10
f 22/47/10 75/125/10 58/126/10
f 92/98/18 36/21/18 79/23/18
f 36/21/18 92/98/18 122/109/18
f 122/109/18 92/98/18 137/111/18
f 124/110/18 81/17/18 34/15/18
f 81/17/18 124/110/18 84/97/18
f 84/97/18 124/110/18 138/112/18
f 139/120/11 138/111/11 137/112/11
f 138/111/11 139/120/11 140/119/11
f 87/68/10 138/115/10 140/116/10
f 138/115/10 87/68/10 83/114/10
f 138/115/10 83/114/10 84/113/10
f 83/114/10 87/68/10 98/117/10
f 18/70/10 98/117/10 87/68/10
f 98/117/10 18/70/10 82/118/10
f 101/23/19 127/109/19 38/21/19
f 127/109/19 101/23/19 141/111/19
f 141/111/19 101/23/19 118/98/19
f 104/17/19 142/112/19 109/97/19
f 142/112/19 104/17/19 121/110/19
f 121/110/19 104/17/19 35/15/19
f 113/44/11 119/121/11 117/125/11
f 119/121/11 113/44/11 143/122/11
f 119/121/11 143/122/11 141/123/11
f 119/121/11 141/123/11 118/124/11
f 99/126/11 113/44/11 117/125/11
f 113/44/11 99/126/11 10/47/11
f 144/119/10 141/112/10 143/120/10
f 141/112/10 144/119/10 142/111/10
f 130/64/17 123/127/17 129/35/17
f 123/127/17 130/64/17 126/128/17
f 123/127/17 126/128/17 125/129/17
f 123/127/17 125/129/17 124/130/17
f 124/130/17 125/129/17 133/76/17
f 124/130/17 133/76/17 138/90/17
f 138/90/17 133/76/17 137/95/17
f 137/95/17 133/76/17 134/82/17
f 137/95/17 134/82/17 122/131/17
f 122/131/17 134/82/17 128/132/17
f 122/131/17 128/132/17 127/133/17
f 122/131/17 127/133/17 121/134/17
f 121/134/17 127/133/17 141/50/17
f 121/134/17 141/50/17 142/61/17
f 142/115/18 110/114/18 109/113/18
f 144/116/18 110/114/18 142/115/18
f 115/68/18 110/114/18 144/116/18
f 115/68/18 111/117/18 110/114/18
f 115/68/18 102/118/18 111/117/18
f 102/118/18 115/68/18 11/70/18
f 53/44/18 46/125/18 24/47/18
f 46/125/18 53/44/18 47/121/18
f 47/121/18 53/44/18 132/122/18
f 47/121/18 132/122/18 129/123/18
f 47/121/18 129/123/18 48/124/18
f 41/126/18 24/47/18 46/125/18
f 88/44/19 78/126/19 19/47/19
f 78/126/19 88/44/19 94/125/19
f 94/125/19 88/44/19 93/121/19
f 139/122/19 93/121/19 88/44/19
f 137/123/19 93/121/19 139/122/19
f 93/121/19 137/123/19 92/124/19
f 131/137/23 53/136/23 54/135/23
f 53/136/23 131/137/23 132/138/23
f 136/137/24 73/136/24 70/135/24
f 73/136/24 136/137/24 135/138/24
f 115/135/25 143/138/25 113/136/25
f 143/138/25 115/135/25 144/137/25
f 140/137/26 88/136/26 87/135/26
f 88/136/26 140/137/26 139/138/26

