# Created by Kenney (www.kenney.nl)

mtllib rocket_baseA.mtl

g rocket_baseA

v 0.25 0.2 0.1035534
v 0.25 0.2 -0.1035534
v 0.1035534 0.2 0.25
v 0.1035534 0.2 -0.25
v -0.1035533 0.2 0.25
v -0.1035533 0.2 -0.25
v -0.25 0.2 0.1035534
v -0.25 0.2 -0.1035534
v -0.5 0.6 -0.2071068
v -0.5 0.6 -0.05710673
v -0.5 0.6 0.05710673
v -0.5 0.6 0.2071068
v 0.2071068 0.6 -0.5
v 0.5 0.6 -0.2071068
v 0.5 0.6 0.2071068
v 0.2071068 0.6 0.5
v -0.2071068 0.6 0.5
v 0.05710673 0.6 0.5
v -0.05710673 0.6 0.5
v -0.2071068 0.6 -0.5
v -0.05710673 0.6 -0.5
v 0.05710673 0.6 -0.5
v 0.5 0.6 -0.05710673
v 0.5 0.6 0.05710673
v 0.5 0.9 -0.2071068
v 0.5 0.9 -0.1571068
v 0.5 0.8 -0.1571068
v 0.5 0.8 -0.05710673
v -0.1571069 0.8 -0.5
v -0.2071068 0.9 -0.5
v -0.1571069 0.9 -0.5
v -0.05710673 0.8 -0.5
v 0.5 0.9 0.2071068
v 0.2071068 0.9 0.5
v -0.5 0.9 0.2071068
v -0.2071068 0.9 0.5
v 0.2071068 0.9 -0.5
v -0.5 0.9 -0.2071068
v 0.5 0.9 0.1571068
v 0.5 0.8 0.1571068
v 0.5 0.8 0.05710673
v 0.8 0.1 0.05710673
v 0.8 0.1 -0.05710673
v 0.5 0.1 0.05710673
v 0.5 0.1 -0.05710673
v 0.6 0.8 0.05710673
v 0.6 0.9 0.05710673
v 0.5 0.9 0.05710673
v 0.6 0.8 -0.05710673
v 0.6 0.9 -0.05710673
v 0.9 0 0.05710673
v 0.8 0 0.05710673
v 0.9 0.6 0.05710673
v 0.9 0.6 -0.05710673
v 0.9 0 -0.05710673
v 0.8 0 -0.05710673
v 0.5 0.9 -0.05710673
v 0.05710673 0.8 -0.5
v 0.1571068 0.8 -0.5
v 0.1571068 0.9 -0.5
v 0.05710673 0 -0.8
v -0.05710673 0 -0.8
v 0.05710673 0.1 -0.8
v -0.05710673 0.1 -0.8
v 0.05710673 0.9 -0.5
v 0.05710673 0.9 -0.5999999
v -0.05710673 0.8 -0.5999999
v -0.05710673 0.9 -0.5999999
v -0.05710673 0 -0.9000001
v -0.05710673 0.6 -0.9000001
v -0.05710673 0.1 -0.5
v 0.05710673 0 -0.9000001
v 0.05710673 0.6 -0.9000001
v 0.05710673 0.1 -0.5
v 0.05710673 0.8 -0.5999999
v -0.05710673 0.9 -0.5
v -0.1571069 0.8 0.5
v -0.05710673 0.8 0.5
v -0.1571069 0.9 0.5
v 0.1571068 0.8 0.5
v 0.1571068 0.9 0.5
v 0.05710673 0.8 0.5
v 0.05710673 0.9 0.6
v 0.05710673 0.9 0.5
v 0.05710673 0 0.9
v -0.05710673 0 0.9
v 0.05710673 0.6 0.9
v -0.05710673 0.6 0.9
v 0.05710673 0.1 0.5
v 0.05710673 0.1 0.8
v 0.05710673 0 0.8
v -0.05710673 0.9 0.5
v -0.05710673 0.9 0.6
v -0.05710673 0.8 0.6
v -0.05710673 0 0.8
v -0.05710673 0.1 0.8
v -0.05710673 0.1 0.5
v 0.05710673 0.8 0.6
v -0.5 0.8 -0.05710673
v -0.5 0.8 -0.1571068
v -0.5 0.9 -0.1571068
v -0.5 0.8 0.05710673
v -0.5 0.8 0.1571068
v -0.5 0.9 0.1571068
v -0.8 0.1 -0.05710673
v -0.8 0 -0.05710673
v -0.8 0.1 0.05710673
v -0.8 0 0.05710673
v -0.5 0.9 0.05710673
v -0.5999999 0.9 0.05710673
v -0.5999999 0.8 0.05710673
v -0.9000001 0 -0.05710673
v -0.9000001 0.6 -0.05710673
v -0.9000001 0 0.05710673
v -0.9000001 0.6 0.05710673
v -0.5 0.1 -0.05710673
v -0.5999999 0.8 -0.05710673
v -0.5 0.9 -0.05710673
v -0.5999999 0.9 -0.05710673
v -0.5 0.1 0.05710673
v -0.5 1 0.2071068
v -0.2071068 1 0.5
v 0.5 1 0.2071068
v 0.2071068 1 0.5
v 0.2071068 1 -0.5
v 0.5 1 -0.2071068
v -0.5 1 -0.2071068
v -0.2071068 1 -0.5
v 0.5 1 0.05710673
v 0.5 1 -0.05710673
v 0.6 1.6 -0.05710673
v 0.5 1.6 -0.05710673
v 0.6 1.6 0.05710673
v 0.5 1.6 0.05710673
v 0.05710673 1 -0.5
v -0.05710673 1 -0.5
v 0.05710673 1.6 -0.5
v -0.05710673 1.6 -0.5
v 0.05710673 1.6 -0.5999999
v -0.05710673 1.6 -0.5999999
v -0.05710673 1 0.5
v 0.05710673 1 0.5
v -0.05710673 1.6 0.6
v -0.05710673 1.6 0.5
v 0.05710673 1.6 0.5
v 0.05710673 1.6 0.6
v -0.5 1 -0.05710673
v -0.5 1 0.05710673
v -0.5 1.6 -0.05710673
v -0.5 1.6 0.05710673
v -0.5999999 1.6 -0.05710673
v -0.5999999 1.6 0.05710673

vn 0 -1 0
vn -0.8479983 -0.529999 0
vn 0.5996253 -0.529999 -0.5996253
vn 0.5996253 -0.529999 0.5996253
vn 0 -0.529999 0.8479983
vn -0.5996253 -0.529999 0.5996253
vn -0.5996253 -0.529999 -0.5996253
vn 0 -0.529999 -0.8479983
vn 0.8479983 -0.529999 0
vn 1 0 0
vn 0 0 -1
vn 0.7071068 0 0.7071068
vn -0.7071068 0 0.7071068
vn 0.7071068 0 -0.7071068
vn -0.7071068 0 -0.7071068
vn 0 1 0
vn 0 0 1
vn -1 0 0
vn 0.9578263 0.2873479 0
vn 0 0.2873479 -0.9578263
vn 0 0.2873479 0.9578263
vn -0.9578263 0.2873479 0

vt 9.84252 4.076905
vt 9.84252 -4.076905
vt 4.076905 9.84252
vt 4.076905 -9.84252
vt -4.076905 9.84252
vt -4.076905 -9.84252
vt -9.84252 4.076905
vt -9.84252 -4.076905
vt -8.153811 30.46451
vt -2.248298 30.46451
vt -4.076905 11.89368
vt 4.076905 11.89368
vt 2.248298 30.46451
vt 8.153811 30.46451
vt 8.153811 35.43307
vt 8.153811 23.62205
vt 6.185307 35.43307
vt 6.185307 31.49606
vt 2.248298 23.62205
vt 2.248298 31.49606
vt -8.153811 35.43307
vt -8.153811 23.62205
vt -6.185307 35.43307
vt -6.185307 31.49606
vt -2.248298 23.62205
vt -2.248298 31.49606
vt 31.49606 2.248298
vt 31.49606 -2.248298
vt 19.68504 2.248298
vt 19.68504 -2.248298
vt 15.11352 31.49606
vt 9.545753 31.49606
vt 15.11352 35.43307
vt 9.545753 35.43307
vt -19.68504 2.248298
vt -23.62205 2.248298
vt -19.68504 6.185307
vt -9.545753 31.49606
vt -15.11352 31.49606
vt -9.545753 35.43307
vt -15.11352 35.43307
vt 35.43307 -3.32046E-16
vt 31.49606 -3.32046E-16
vt 35.43307 23.62205
vt 31.49606 3.937008
vt 19.68504 3.937008
vt 19.68504 23.62205
vt 2.248298 0
vt -2.248298 0
vt 23.62205 -2.248298
vt 19.68504 -6.185307
vt -2.248298 3.937008
vt 2.248298 3.937008
vt 19.68504 6.185307
vt 23.62205 2.248298
vt -19.68504 -6.185307
vt -23.62205 -2.248298
vt -19.68504 -2.248298
vt -19.68504 3.937008
vt -31.49606 3.937008
vt -19.68504 23.62205
vt -35.43307 23.62205
vt -35.43307 -5.296924E-16
vt -31.49606 -5.296924E-16
vt 35.43307 2.248298
vt 35.43307 -2.248298
vt -6.185307 -19.68504
vt -2.248298 -19.68504
vt -2.248298 -23.62205
vt -35.43307 -3.619691E-28
vt -31.49606 -3.619691E-28
vt 35.43307 -2.434242E-26
vt 31.49606 -2.434242E-26
vt 2.248298 -19.68504
vt 6.185307 -19.68504
vt 2.248298 -23.62205
vt 2.248298 -31.49606
vt -2.248298 -31.49606
vt 2.248298 -35.43307
vt -2.248298 -35.43307
vt -6.185307 19.68504
vt -2.248298 19.68504
vt -31.49606 2.154346E-16
vt -35.43307 2.154346E-16
vt 2.248298 19.68504
vt 6.185307 19.68504
vt 2.248298 35.43307
vt -2.248298 35.43307
vt 31.49606 -2.398045E-26
vt 35.43307 -2.398045E-26
vt 35.43307 0
vt 31.49606 0
vt -31.49606 2.248298
vt -31.49606 -2.248298
vt -35.43307 0
vt -31.49606 0
vt -35.43307 2.248298
vt -35.43307 -2.248298
vt -8.153811 39.37008
vt 8.153811 39.37008
vt -2.248298 39.37008
vt 2.248298 39.37008
vt -19.68504 35.43307
vt -23.62205 35.43307
vt -19.68504 39.37008
vt -23.62205 62.99213
vt -23.62205 31.49606
vt -19.68504 31.49606
vt -19.68504 62.99213
vt -2.248298 62.99213
vt 2.248298 62.99213
vt 2.248298 12.4442
vt -2.248298 12.4442
vt 2.248298 53.54777
vt -2.248298 53.54777
vt 23.62205 31.49606
vt 23.62205 62.99213
vt 23.62205 35.43307
vt 19.68504 35.43307
vt 19.68504 39.37008
vt 19.68504 62.99213
vt 19.68504 31.49606
vt -19.68504 8.153811
vt -19.68504 -8.153811
vt -8.153811 -19.68504
vt -8.153811 19.68504
vt 8.153811 19.68504
vt 8.153811 -19.68504
vt 19.68504 -8.153811
vt 19.68504 8.153811

usemtl metalDark

f 3/3/1 2/2/1 1/1/1
f 2/2/1 3/3/1 4/4/1
f 4/4/1 3/3/1 5/5/1
f 4/4/1 5/5/1 6/6/1
f 6/6/1 5/5/1 7/7/1
f 6/6/1 7/7/1 8/8/1
f 8/11/2 10/10/2 9/9/2
f 10/10/2 8/11/2 7/12/2
f 10/10/2 7/12/2 11/13/2
f 11/13/2 7/12/2 12/14/2
f 13/14/3 2/11/3 4/12/3
f 2/11/3 13/14/3 14/9/3
f 15/14/4 3/11/4 1/12/4
f 3/11/4 15/14/4 16/9/4
f 16/14/5 5/11/5 3/12/5
f 5/11/5 16/14/5 17/9/5
f 17/9/5 16/14/5 18/13/5
f 17/9/5 18/13/5 19/10/5
f 5/12/6 12/9/6 7/11/6
f 12/9/6 5/12/6 17/14/6
f 6/11/7 9/14/7 20/9/7
f 9/14/7 6/11/7 8/12/7
f 20/14/8 4/11/8 6/12/8
f 4/11/8 20/14/8 21/13/8
f 21/13/8 13/9/8 4/11/8
f 13/9/8 21/13/8 22/10/8
f 23/13/9 2/12/9 14/14/9
f 2/12/9 23/13/9 1/11/9
f 1/11/9 23/13/9 24/10/9
f 1/11/9 24/10/9 15/9/9

usemtl metal

f 26/17/10 14/16/10 25/15/10
f 14/16/10 26/17/10 27/18/10
f 27/18/10 23/19/10 14/16/10
f 23/19/10 27/18/10 28/20/10
f 30/15/11 29/18/11 20/16/11
f 29/18/11 30/15/11 31/17/11
f 32/20/11 20/16/11 29/18/11
f 20/16/11 32/20/11 21/19/11
f 34/21/12 15/16/12 33/15/12
f 15/16/12 34/21/12 16/22/12
f 17/16/13 35/21/13 12/22/13
f 35/21/13 17/16/13 36/15/13
f 25/21/14 13/16/14 37/15/14
f 13/16/14 25/21/14 14/22/14
f 9/16/15 30/21/15 20/22/15
f 30/21/15 9/16/15 38/15/15
f 33/21/10 40/24/10 39/23/10
f 15/22/10 40/24/10 33/21/10
f 24/25/10 40/24/10 15/22/10
f 40/24/10 24/25/10 41/26/10
f 44/29/1 43/28/1 42/27/1
f 43/28/1 44/29/1 45/30/1
f 47/33/12 40/32/12 46/31/12
f 40/32/12 47/33/12 39/34/12
f 39/37/16 47/36/16 48/35/16
f 26/40/14 49/39/14 27/38/14
f 49/39/14 26/40/14 50/41/14
f 53/44/17 52/43/17 51/42/17
f 52/43/17 53/44/17 42/45/17
f 42/45/17 53/44/17 44/46/17
f 44/46/17 53/44/17 24/47/17
f 53/25/10 55/48/10 54/19/10
f 55/48/10 53/25/10 51/49/10
f 27/51/1 49/50/1 28/30/1
f 52/48/18 43/52/18 56/49/18
f 43/52/18 52/48/18 42/53/18
f 44/53/18 23/25/18 45/52/18
f 23/25/18 44/53/18 24/19/18
f 41/29/1 46/55/1 40/54/1
f 57/58/16 50/57/16 26/56/16
f 23/61/11 43/60/11 45/59/11
f 54/62/11 43/60/11 23/61/11
f 55/63/11 43/60/11 54/62/11
f 43/60/11 55/63/11 56/64/11
f 52/27/1 55/66/1 51/65/1
f 55/66/1 52/27/1 56/28/1
f 22/25/11 37/21/11 13/22/11
f 59/24/11 22/25/11 58/26/11
f 37/21/11 59/24/11 60/23/11
f 37/21/11 22/25/11 59/24/11
f 63/53/17 62/49/17 61/48/17
f 62/49/17 63/53/17 64/52/17
f 66/69/16 65/68/16 60/67/16
f 29/67/1 67/69/1 32/68/1
f 29/38/15 68/41/15 67/39/15
f 68/41/15 29/38/15 31/40/15
f 62/71/18 70/62/18 69/70/18
f 70/62/18 62/71/18 64/60/18
f 70/62/18 64/60/18 21/61/18
f 21/61/18 64/60/18 71/59/18
f 70/19/11 72/49/11 69/48/11
f 72/49/11 70/19/11 73/25/11
f 22/19/17 71/52/17 74/53/17
f 71/52/17 22/19/17 21/25/17
f 22/47/10 72/72/10 73/44/10
f 72/72/10 22/47/10 63/45/10
f 63/45/10 22/47/10 74/46/10
f 61/73/10 72/72/10 63/45/10
f 75/76/1 59/75/1 58/74/1
f 31/75/16 76/74/16 68/76/16
f 71/68/1 63/77/1 74/74/1
f 63/77/1 71/68/1 64/78/1
f 66/33/14 59/32/14 75/31/14
f 59/32/14 66/33/14 60/34/14
f 62/78/1 72/79/1 61/77/1
f 72/79/1 62/78/1 69/80/1
f 17/22/17 77/24/17 36/21/17
f 77/24/17 17/22/17 19/25/17
f 77/24/17 19/25/17 78/26/17
f 36/21/17 77/24/17 79/23/17
f 16/16/17 80/18/17 18/19/17
f 80/18/17 16/16/17 34/15/17
f 80/18/17 34/15/17 81/17/17
f 82/20/17 18/19/17 80/18/17
f 84/82/16 83/25/16 81/81/16
f 87/19/17 86/49/17 85/48/17
f 86/49/17 87/19/17 88/25/17
f 18/61/10 90/60/10 89/59/10
f 90/60/10 18/61/10 87/62/10
f 90/60/10 87/62/10 91/83/10
f 91/83/10 87/62/10 85/84/10
f 79/86/16 93/19/16 92/85/16
f 77/81/1 78/82/1 94/25/1
f 86/88/1 91/20/1 85/87/1
f 91/20/1 86/88/1 95/26/1
f 86/90/18 96/45/18 95/89/18
f 88/44/18 96/45/18 86/90/18
f 88/44/18 97/46/18 96/45/18
f 97/46/18 88/44/18 19/47/18
f 96/26/1 89/85/1 90/20/1
f 89/85/1 96/26/1 97/82/1
f 93/33/13 77/32/13 94/31/13
f 77/32/13 93/33/13 79/34/13
f 19/19/11 89/52/11 97/53/11
f 89/52/11 19/19/11 18/25/11
f 82/85/1 80/86/1 98/19/1
f 83/41/12 80/38/12 81/40/12
f 80/38/12 83/41/12 98/39/12
f 96/53/11 91/49/11 95/48/11
f 91/49/11 96/53/11 90/52/11
f 10/25/18 38/21/18 9/22/18
f 100/24/18 10/25/18 99/26/18
f 101/23/18 38/21/18 100/24/18
f 38/21/18 10/25/18 100/24/18
f 12/16/18 102/20/18 11/19/18
f 102/20/18 12/16/18 103/18/18
f 103/18/18 12/16/18 104/17/18
f 104/17/18 12/16/18 35/15/18
f 107/52/10 106/48/10 105/53/10
f 106/48/10 107/52/10 108/49/10
f 110/55/16 104/54/16 109/29/16
f 111/36/1 102/35/1 103/37/1
f 114/48/18 113/25/18 112/49/18
f 113/25/18 114/48/18 115/19/18
f 113/44/11 106/92/11 112/91/11
f 106/92/11 113/44/11 105/45/11
f 105/45/11 113/44/11 116/46/11
f 116/46/11 113/44/11 10/47/11
f 117/57/1 100/56/1 99/58/1
f 119/50/16 118/30/16 101/51/16
f 11/25/10 116/53/10 10/19/10
f 116/53/10 11/25/10 120/52/10
f 107/93/1 116/58/1 120/35/1
f 116/58/1 107/93/1 105/94/1
f 11/61/17 107/60/17 120/59/17
f 115/62/17 107/60/17 11/61/17
f 114/95/17 107/60/17 115/62/17
f 107/60/17 114/95/17 108/96/17
f 104/40/13 111/39/13 103/38/13
f 111/39/13 104/40/13 110/41/13
f 114/97/1 106/94/1 108/93/1
f 106/94/1 114/97/1 112/98/1
f 117/31/15 101/34/15 100/32/15
f 101/34/15 117/31/15 119/33/15

usemtl metalRed

f 36/15/13 121/99/13 35/21/13
f 121/99/13 36/15/13 122/100/13
f 123/100/12 34/21/12 33/15/12
f 34/21/12 123/100/12 124/99/12
f 125/100/14 25/21/14 37/15/14
f 25/21/14 125/100/14 126/99/14
f 127/100/15 30/21/15 38/15/15
f 30/21/15 127/100/15 128/99/15
f 123/99/10 48/88/10 129/101/10
f 48/88/10 123/99/10 39/23/10
f 39/23/10 123/99/10 33/21/10
f 130/102/10 25/15/10 126/100/10
f 25/15/10 130/102/10 26/17/10
f 26/17/10 130/102/10 57/87/10
f 130/105/11 50/104/11 57/103/11
f 131/106/11 50/104/11 130/105/11
f 131/106/11 49/107/11 50/104/11
f 54/62/11 49/107/11 131/106/11
f 54/62/11 28/108/11 49/107/11
f 28/108/11 54/62/11 23/61/11
f 131/106/11 130/105/11 132/109/11
f 131/57/16 134/35/16 133/36/16
f 134/35/16 131/57/16 132/58/16
f 129/102/18 132/110/18 130/101/18
f 132/110/18 129/102/18 134/111/18
f 131/114/19 53/113/19 54/112/19
f 53/113/19 131/114/19 133/115/19
f 53/44/17 46/116/17 24/47/17
f 46/116/17 53/44/17 133/117/17
f 46/116/17 133/117/17 47/118/17
f 47/118/17 133/117/17 48/119/17
f 48/119/17 133/117/17 129/120/17
f 129/120/17 133/117/17 134/121/17
f 41/122/17 24/47/17 46/116/17
f 135/101/11 60/23/11 65/88/11
f 125/99/11 60/23/11 135/101/11
f 60/23/11 125/99/11 37/21/11
f 128/100/11 31/17/11 30/15/11
f 31/17/11 128/100/11 76/87/11
f 76/87/11 128/100/11 136/102/11
f 139/69/16 138/74/16 137/68/16
f 138/74/16 139/69/16 140/76/16
f 140/114/20 73/113/20 70/112/20
f 73/113/20 140/114/20 139/115/20
f 137/111/17 136/101/17 135/102/17
f 136/101/17 137/111/17 138/110/17
f 21/61/18 67/107/18 70/62/18
f 67/107/18 21/61/18 32/108/18
f 67/107/18 140/106/18 70/62/18
f 140/106/18 67/107/18 68/104/18
f 140/106/18 68/104/18 76/103/18
f 140/106/18 76/103/18 136/105/18
f 140/106/18 136/105/18 138/109/18
f 137/121/10 66/118/10 139/117/10
f 66/118/10 137/121/10 135/120/10
f 66/118/10 135/120/10 65/119/10
f 75/116/10 139/117/10 66/118/10
f 75/116/10 73/44/10 139/117/10
f 73/44/10 75/116/10 22/47/10
f 22/47/10 75/116/10 58/122/10
f 92/88/17 36/21/17 79/23/17
f 36/21/17 92/88/17 122/99/17
f 122/99/17 92/88/17 141/101/17
f 124/100/17 81/17/17 34/15/17
f 81/17/17 124/100/17 84/87/17
f 84/87/17 124/100/17 142/102/17
f 93/118/18 141/120/18 92/119/18
f 143/117/18 141/120/18 93/118/18
f 93/118/18 88/44/18 143/117/18
f 94/116/18 88/44/18 93/118/18
f 78/122/18 88/44/18 94/116/18
f 88/44/18 78/122/18 19/47/18
f 141/120/18 143/117/18 144/121/18
f 144/111/11 142/101/11 141/102/11
f 142/101/11 144/111/11 145/110/11
f 146/114/21 88/113/21 87/112/21
f 88/113/21 146/114/21 143/115/21
f 145/82/16 143/19/16 146/25/16
f 143/19/16 145/82/16 144/85/16
f 146/106/10 142/105/10 145/109/10
f 142/105/10 146/106/10 84/103/10
f 84/103/10 146/106/10 83/104/10
f 83/104/10 146/106/10 87/62/10
f 83/104/10 87/62/10 98/107/10
f 18/61/10 98/107/10 87/62/10
f 98/107/10 18/61/10 82/108/10
f 101/23/18 127/99/18 38/21/18
f 127/99/18 101/23/18 147/101/18
f 147/101/18 101/23/18 118/88/18
f 104/17/18 148/102/18 109/87/18
f 148/102/18 104/17/18 121/100/18
f 121/100/18 104/17/18 35/15/18
f 151/50/16 150/29/16 149/30/16
f 150/29/16 151/50/16 152/55/16
f 115/112/22 151/115/22 113/113/22
f 151/115/22 115/112/22 152/114/22
f 151/117/11 117/116/11 113/44/11
f 117/116/11 151/117/11 119/118/11
f 119/118/11 151/117/11 118/119/11
f 118/119/11 151/117/11 147/120/11
f 147/120/11 151/117/11 149/121/11
f 99/122/11 113/44/11 117/116/11
f 113/44/11 99/122/11 10/47/11
f 150/110/10 147/102/10 149/111/10
f 147/102/10 150/110/10 148/101/10
f 148/105/17 110/104/17 109/103/17
f 152/106/17 110/104/17 148/105/17
f 152/106/17 111/107/17 110/104/17
f 115/62/17 111/107/17 152/106/17
f 115/62/17 102/108/17 111/107/17
f 102/108/17 115/62/17 11/61/17
f 152/106/17 148/105/17 150/109/17
f 130/58/16 123/123/16 129/35/16
f 123/123/16 130/58/16 126/124/16
f 123/123/16 126/124/16 125/125/16
f 123/123/16 125/125/16 124/126/16
f 124/126/16 125/125/16 135/68/16
f 124/126/16 135/68/16 142/82/16
f 142/82/16 135/68/16 141/85/16
f 141/85/16 135/68/16 136/74/16
f 141/85/16 136/74/16 122/127/16
f 122/127/16 136/74/16 128/128/16
f 122/127/16 128/128/16 127/129/16
f 122/127/16 127/129/16 121/130/16
f 121/130/16 127/129/16 147/30/16
f 121/130/16 147/30/16 148/29/16

