# Created by Kenney (www.kenney.nl)

mtllib rocket_sidesA.mtl

g rocket_sidesA

v 0.5 1 0.2071068
v 0.4 1 -0.1656854
v 0.5 1 -0.2071068
v 0.2071068 1 -0.5
v 0.1656854 1 -0.4
v -0.2071068 1 -0.5
v -0.1656854 1 -0.4
v -0.4000001 1 -0.1656854
v -0.5 1 -0.2071068
v -0.4000001 1 0
v -0.4000001 1 0.1656854
v 0.4 1 0.1656854
v 0.2071068 1 0.5
v 0.1656854 1 0.4
v -0.2071068 1 0.5
v -0.1656854 1 0.4
v -0.5 1 0.2071068
v -0.5 1 0
v -0.5 0.9 -0.2071068
v -0.5 0.9 0.2071068
v 0.2071068 0.9 0.5
v -0.2071068 0.9 0.5
v 0.5 0.9 -0.2071068
v 0.5 0.9 0.2071068
v -0.4238796 0.9 0.2832272
v -0.3535533 0.9 0.3535534
v -0.2832272 0.9 0.4238795
v 0.2071068 0.9 -0.5
v 0.2832272 0.9 -0.4238795
v 0.3535534 0.9 -0.3535534
v 0.4238795 0.9 -0.2832272
v -0.2071068 0.9 -0.5
v -0.2832272 0.9 -0.4238795
v -0.3535533 0.9 -0.3535534
v -0.4238796 0.9 -0.2832272
v 0.4238795 0.9 0.2832272
v 0.3535534 0.9 0.3535534
v 0.2832272 0.9 0.4238795
v -0.2071068 0 0.5
v 0.1071068 0.1 0.5
v 0.2071068 0 0.5
v 0.2071068 0.4 0.5
v 0.1071068 0.4 0.5
v -0.1071067 0.1 0.5
v -0.2071068 0.4 0.5
v -0.1071067 0.4 0.5
v 0.5 0.4 0.1071068
v 0.5 0.1 0.1071068
v 0.5 0.4 0.2071068
v 0.5 0 0.2071068
v 0.5 0.1 -0.1071068
v 0.5 0 -0.2071068
v 0.5 0.4 -0.1071068
v 0.5 0.4 -0.2071068
v 0.2071068 0 -0.5
v -0.1071067 0.1 -0.5
v -0.2071068 0 -0.5
v -0.2071068 0.4 -0.5
v -0.1071067 0.4 -0.5
v 0.1071068 0.1 -0.5
v 0.2071068 0.4 -0.5
v 0.1071068 0.4 -0.5
v -0.5 0.1 -0.1071068
v -0.5 0.4 -0.2071068
v -0.5 0.4 -0.1071068
v -0.5 0 -0.2071068
v -0.5 0 0.2071068
v -0.5 0.1 0.1071068
v -0.5 0.4 0.1071068
v -0.5 0.4 0.2071068
v -0.45 0.1 -0.1071068
v -0.45 0.4 -0.1071068
v -0.45 0.1 0.1071068
v -0.45 0.4 0.1071068
v -0.1071067 0.4 0.45
v -0.1071067 0.1 0.45
v 0.1071068 0.1 0.45
v 0.1071068 0.4 0.45
v 0.45 0.1 0.1071068
v 0.45 0.4 0.1071068
v 0.45 0.1 -0.1071068
v 0.45 0.4 -0.1071068
v 0.1071068 0.1 -0.45
v 0.1071068 0.4 -0.45
v -0.1071067 0.1 -0.45
v -0.1071067 0.4 -0.45
v 0.4 0 0.1656854
v 0.1656854 0 0.4
v -0.1656854 0 0.4
v -0.4000001 0 0.1656854
v -0.4000001 0 0
v -0.4000001 0 -0.1656854
v 0.4 0 -0.1656854
v 0.1656854 0 -0.4
v -0.1656854 0 -0.4
v 0.1071068 0.8 0.5
v -0.1071067 0.8 0.5
v 0.5 0.8 -0.1071068
v 0.5 0.8 0.1071068
v -0.1071067 0.8 -0.5
v 0.1071068 0.8 -0.5
v -0.5 0.8 0.1071068
v -0.5 0.8 -0.1071068
v -0.45 0.8 -0.1071068
v -0.45 0.8 0.1071068
v -0.1071067 0.8 0.45
v 0.1071068 0.8 0.45
v 0.45 0.8 0.1071068
v 0.45 0.8 -0.1071068
v 0.1071068 0.8 -0.45
v -0.1071067 0.8 -0.45

vn 0 1 0
vn -1 0 0
vn 0 0 1
vn 1 0 0
vn -0.7071068 0 0.7071068
vn 0.7071068 0 -0.7071068
vn -0.7071068 0 -0.7071068
vn 0 0 -1
vn 0.7071068 0 0.7071068
vn 0 -1 0

vt -19.68504 8.153811
vt -15.74803 -6.523048
vt -19.68504 -8.153811
vt -8.153811 -19.68504
vt -6.523048 -15.74803
vt 8.153811 -19.68504
vt 6.523048 -15.74803
vt 15.74803 -6.523048
vt 19.68504 -8.153811
vt 15.74803 0
vt 15.74803 6.523048
vt -15.74803 6.523048
vt -8.153811 19.68504
vt -6.523048 15.74803
vt 8.153811 19.68504
vt 6.523048 15.74803
vt 19.68504 8.153811
vt 19.68504 0
vt -8.153811 35.43307
vt -8.153811 39.37008
vt 8.153811 35.43307
vt 0 39.37008
vt 8.153811 39.37008
vt -3.915598 35.43307
vt -4.973799E-14 35.43307
vt 3.915598 35.43307
vt 3.915598 35.43307
vt 3.032551E-08 35.43307
vt -2.753353E-13 35.43307
vt 1.119105E-13 35.43307
vt -8.153811 0
vt 4.216803 3.937008
vt 8.153811 0
vt 8.153811 15.74803
vt 4.216803 15.74803
vt -4.216803 3.937008
vt -8.153811 15.74803
vt -4.216803 15.74803
vt -8.153811 1.671865E-14
vt 8.153811 1.671865E-14
vt -8.153811 -2.382361E-08
vt 8.153811 -2.382361E-08
vt -4.216802 3.937008
vt -4.216802 15.74803
vt -8.153811 -5.572884E-15
vt 8.153811 -5.572884E-15
vt -17.71654 3.937008
vt -19.68504 3.937008
vt -17.71654 15.74803
vt -19.68504 15.74803
vt 17.71654 -4.216803
vt 17.71654 4.216803
vt 19.68504 -4.216803
vt 19.68504 4.216803
vt 19.68504 3.937008
vt 17.71654 3.937008
vt 19.68504 15.74803
vt 17.71654 15.74803
vt -4.216803 17.71654
vt -4.216803 19.68504
vt 4.216803 17.71654
vt 4.216803 19.68504
vt -19.68504 4.216803
vt -17.71654 4.216803
vt -19.68504 -4.216803
vt -17.71654 -4.216803
vt -4.216803 -19.68504
vt -4.216803 -17.71654
vt 4.216803 -19.68504
vt 4.216803 -17.71654
vt 8.153811 -7.593821E-08
vt -8.153811 -7.593821E-08
vt 8.153811 -4.148553E-13
vt -8.153811 -4.148553E-13
vt 8.153811 3.290129E-15
vt -8.153811 3.290129E-15
vt -8.153811 7.507476E-13
vt 8.153811 7.507476E-13
vt -15.74803 0
vt 4.216803 31.49606
vt -4.216803 31.49606
vt -5.684342E-14 35.43307
vt -4.216802 31.49606
vt -17.71654 31.49606
vt -19.68504 31.49606
vt 19.68504 31.49606
vt 17.71654 31.49606
vt 0 0
vt -6.523048 39.37008
vt -6.523048 0
vt 6.523048 0
vt 6.523048 39.37008
vt 2.433609E-13 35.43307

usemtl metal

f 3/3/1 2/2/1 1/1/1
f 2/2/1 3/3/1 4/4/1
f 2/2/1 4/4/1 5/5/1
f 5/5/1 4/4/1 6/6/1
f 5/5/1 6/6/1 7/7/1
f 7/7/1 6/6/1 8/8/1
f 8/8/1 6/6/1 9/9/1
f 8/8/1 9/9/1 10/10/1
f 10/10/1 9/9/1 11/11/1
f 12/12/1 1/1/1 2/2/1
f 1/1/1 12/12/1 13/13/1
f 13/13/1 12/12/1 14/14/1
f 13/13/1 14/14/1 15/15/1
f 15/15/1 14/14/1 16/16/1
f 15/15/1 16/16/1 11/11/1
f 15/15/1 11/11/1 17/17/1
f 17/17/1 11/11/1 9/9/1
f 17/17/1 9/9/1 18/18/1
f 20/21/2 9/20/2 19/19/2
f 9/20/2 20/21/2 18/22/2
f 18/22/2 20/21/2 17/23/2
f 13/23/3 22/19/3 21/21/3
f 22/19/3 13/23/3 15/20/3
f 1/20/4 23/21/4 3/23/4
f 23/21/4 1/20/4 24/19/4
f 25/24/5 17/20/5 20/19/5
f 17/20/5 25/24/5 15/23/5
f 15/23/5 25/24/5 26/25/5
f 15/23/5 26/25/5 27/26/5
f 15/23/5 27/26/5 22/21/5
f 3/20/6 28/21/6 4/23/6
f 28/21/6 3/20/6 29/27/6
f 29/27/6 3/20/6 30/28/6
f 30/28/6 3/20/6 31/24/6
f 31/24/6 3/20/6 23/19/6
f 33/24/7 6/20/7 32/19/7
f 6/20/7 33/24/7 9/23/7
f 9/23/7 33/24/7 34/29/7
f 9/23/7 34/29/7 35/26/7
f 9/23/7 35/26/7 19/21/7
f 6/23/8 28/19/8 32/21/8
f 28/19/8 6/23/8 4/20/8
f 1/23/9 36/26/9 24/21/9
f 36/26/9 1/23/9 37/30/9
f 37/30/9 1/23/9 38/24/9
f 38/24/9 1/23/9 21/19/9
f 21/19/9 1/23/9 13/20/9
f 41/33/3 40/32/3 39/31/3
f 40/32/3 41/33/3 42/34/3
f 40/32/3 42/34/3 43/35/3
f 44/36/3 39/31/3 40/32/3
f 39/31/3 44/36/3 45/37/3
f 45/37/3 44/36/3 46/38/3
f 49/37/4 48/36/4 47/38/4
f 50/39/4 48/36/4 49/37/4
f 50/39/4 51/32/4 48/36/4
f 52/40/4 51/32/4 50/39/4
f 52/40/4 53/35/4 51/32/4
f 53/35/4 52/40/4 54/34/4
f 57/42/8 56/32/8 55/41/8
f 56/32/8 57/42/8 58/34/8
f 56/32/8 58/34/8 59/35/8
f 60/43/8 55/41/8 56/32/8
f 55/41/8 60/43/8 61/37/8
f 61/37/8 60/43/8 62/44/8
f 65/38/2 64/37/2 63/36/2
f 66/45/2 63/36/2 64/37/2
f 63/36/2 66/45/2 67/46/2
f 63/36/2 67/46/2 68/32/2
f 68/32/2 67/46/2 69/35/2
f 69/35/2 67/46/2 70/34/2
f 72/49/3 63/48/3 71/47/3
f 63/48/3 72/49/3 65/50/3
f 63/53/1 73/52/1 71/51/1
f 73/52/1 63/53/1 68/54/1
f 69/57/8 73/56/8 68/55/8
f 73/56/8 69/57/8 74/58/8
f 46/50/4 76/47/4 75/49/4
f 76/47/4 46/50/4 44/48/4
f 76/61/1 40/60/1 77/59/1
f 40/60/1 76/61/1 44/62/1
f 40/55/2 78/58/2 77/56/2
f 78/58/2 40/55/2 43/57/2
f 80/49/8 48/48/8 79/47/8
f 48/48/8 80/49/8 47/50/8
f 51/65/1 79/64/1 48/63/1
f 79/64/1 51/65/1 81/66/1
f 53/57/3 81/56/3 51/55/3
f 81/56/3 53/57/3 82/58/3
f 83/47/2 62/50/2 60/48/2
f 62/50/2 83/47/2 84/49/2
f 56/69/1 83/68/1 60/67/1
f 83/68/1 56/69/1 85/70/1
f 86/58/4 56/55/4 59/57/4
f 56/55/4 86/58/4 85/56/4
f 54/37/6 55/71/6 61/34/6
f 55/71/6 54/37/6 52/72/6
f 49/34/9 41/74/9 50/73/9
f 41/74/9 49/34/9 42/37/9
f 45/34/5 67/76/5 39/75/5
f 67/76/5 45/34/5 70/37/5
f 66/78/7 58/37/7 57/77/7
f 58/37/7 66/78/7 64/34/7

usemtl metalDark

f 50/17/10 87/11/10 52/9/10
f 87/11/10 50/17/10 41/15/10
f 87/11/10 41/15/10 88/16/10
f 88/16/10 41/15/10 39/13/10
f 88/16/10 39/13/10 89/14/10
f 89/14/10 39/13/10 90/12/10
f 90/12/10 39/13/10 67/1/10
f 90/12/10 67/1/10 91/79/10
f 91/79/10 67/1/10 92/2/10
f 93/8/10 52/9/10 87/11/10
f 52/9/10 93/8/10 55/6/10
f 55/6/10 93/8/10 94/7/10
f 55/6/10 94/7/10 57/4/10
f 57/4/10 94/7/10 95/5/10
f 57/4/10 95/5/10 92/2/10
f 57/4/10 92/2/10 66/3/10
f 66/3/10 92/2/10 67/1/10
f 21/21/3 43/35/3 42/34/3
f 43/35/3 21/21/3 96/80/3
f 96/80/3 21/21/3 97/81/3
f 22/19/3 97/81/3 21/21/3
f 45/37/3 97/81/3 22/19/3
f 97/81/3 45/37/3 46/38/3
f 22/21/5 70/37/5 45/34/5
f 70/37/5 22/21/5 20/19/5
f 20/19/5 22/21/5 27/26/5
f 20/19/5 27/26/5 26/82/5
f 20/19/5 26/82/5 25/24/5
f 23/21/4 98/80/4 54/34/4
f 98/80/4 23/21/4 24/19/4
f 98/80/4 24/19/4 99/81/4
f 99/81/4 24/19/4 47/38/4
f 47/38/4 24/19/4 49/37/4
f 53/35/4 54/34/4 98/80/4
f 32/21/8 59/35/8 58/34/8
f 59/35/8 32/21/8 100/80/8
f 100/80/8 32/21/8 101/83/8
f 28/19/8 101/83/8 32/21/8
f 61/37/8 101/83/8 28/19/8
f 101/83/8 61/37/8 62/44/8
f 70/34/2 102/80/2 69/35/2
f 20/21/2 102/80/2 70/34/2
f 20/21/2 103/81/2 102/80/2
f 19/19/2 103/81/2 20/21/2
f 19/19/2 65/38/2 103/81/2
f 65/38/2 19/19/2 64/37/2
f 104/84/3 65/50/3 72/49/3
f 65/50/3 104/84/3 103/85/3
f 102/86/8 74/58/8 69/57/8
f 74/58/8 102/86/8 105/87/8
f 105/64/10 103/65/10 104/66/10
f 103/65/10 105/64/10 102/63/10
f 97/85/4 75/49/4 106/84/4
f 75/49/4 97/85/4 46/50/4
f 43/57/2 107/87/2 78/58/2
f 107/87/2 43/57/2 96/86/2
f 97/60/10 107/61/10 96/62/10
f 107/61/10 97/60/10 106/59/10
f 108/84/8 47/50/8 80/49/8
f 47/50/8 108/84/8 99/85/8
f 98/86/3 82/58/3 53/57/3
f 82/58/3 98/86/3 109/87/3
f 108/52/10 98/53/10 99/54/10
f 98/53/10 108/52/10 109/51/10
f 84/49/2 101/85/2 62/50/2
f 101/85/2 84/49/2 110/84/2
f 111/87/4 59/57/4 100/86/4
f 59/57/4 111/87/4 86/58/4
f 110/70/10 100/67/10 101/69/10
f 100/67/10 110/70/10 111/68/10
f 11/89/4 91/88/4 10/22/4
f 91/88/4 11/89/4 90/90/4
f 92/91/4 10/22/4 91/88/4
f 10/22/4 92/91/4 8/92/4
f 16/89/6 90/91/6 11/92/6
f 90/91/6 16/89/6 89/90/6
f 16/92/8 88/90/8 89/91/8
f 88/90/8 16/92/8 14/89/8
f 88/91/7 12/89/7 87/90/7
f 12/89/7 88/91/7 14/92/7
f 87/91/2 2/89/2 93/90/2
f 2/89/2 87/91/2 12/92/2
f 93/91/5 5/89/5 94/90/5
f 5/89/5 93/91/5 2/92/5
f 5/92/3 95/90/3 94/91/3
f 95/90/3 5/92/3 7/89/3
f 8/89/9 95/91/9 7/92/9
f 95/91/9 8/89/9 92/90/9
f 24/21/9 42/37/9 49/34/9
f 42/37/9 24/21/9 21/19/9
f 21/19/9 24/21/9 36/26/9
f 21/19/9 36/26/9 37/93/9
f 21/19/9 37/93/9 38/24/9
f 64/34/7 32/19/7 58/37/7
f 32/19/7 64/34/7 33/24/7
f 33/24/7 64/34/7 34/29/7
f 34/29/7 64/34/7 35/26/7
f 35/26/7 64/34/7 19/21/7
f 29/27/6 61/34/6 28/21/6
f 61/34/6 29/27/6 54/37/6
f 54/37/6 29/27/6 30/28/6
f 54/37/6 30/28/6 31/24/6
f 54/37/6 31/24/6 23/19/6

usemtl dark

f 73/32/2 72/38/2 71/36/2
f 72/38/2 73/32/2 104/81/2
f 104/81/2 73/32/2 105/80/2
f 105/80/2 73/32/2 74/35/2
f 78/35/3 76/36/3 77/32/3
f 76/36/3 78/35/3 75/38/3
f 75/38/3 78/35/3 107/80/3
f 75/38/3 107/80/3 106/81/3
f 108/81/4 82/35/4 109/80/4
f 82/35/4 108/81/4 81/32/4
f 81/32/4 108/81/4 79/36/4
f 79/36/4 108/81/4 80/38/4
f 86/35/8 83/43/8 85/32/8
f 83/43/8 86/35/8 84/44/8
f 84/44/8 86/35/8 111/80/8
f 84/44/8 111/80/8 110/83/8

