# Created by Kenney (www.kenney.nl)

mtllib rover.mtl

g rover

v -0.0999999 0.05 -0.02499998
v -0.1500001 0.05 -0.02499998
v -0.0999999 0.09330127 -0.04999995
v -0.1500001 0.09330127 -0.04999995
v -0.0999999 0.006698729 -0.04999995
v -0.0999999 0.006698729 -0.1
v -0.1500001 0.006698729 -0.04999995
v -0.1500001 0.006698729 -0.1
v 0.15 0.09330127 0.04999995
v 0.15 0.09330127 0.1
v 0.1 0.09330127 0.04999995
v 0.1 0.09330127 0.1
v -0.1500001 0.05 -0.125
v -0.0999999 0.05 -0.125
v 0.1 0.05 -0.125
v 0.1 0.05 -0.02499998
v 0.1 0.006698729 -0.1
v 0.1 0.006698729 -0.04999995
v 0.15 0.006698729 -0.04999995
v 0.15 0.006698729 -0.1
v 0.15 0.006698729 0.1
v 0.1 0.006698729 0.1
v 0.15 0.05 0.125
v 0.1 0.05 0.125
v 0.1 0.05 0.02499998
v 0.15 0.05 0.02499998
v -0.0999999 0.006698729 0.1
v -0.1500001 0.006698729 0.1
v -0.0999999 0.05 0.125
v -0.1500001 0.05 0.125
v 0.1 0.006698729 0.04999995
v 0.15 0.006698729 0.04999995
v -0.1500001 0.05 0.02499998
v -0.0999999 0.05 0.02499998
v -0.1500001 0.09330127 0.04999995
v -0.0999999 0.09330127 0.04999995
v 0.15 0.05 -0.125
v 0.1 0.09330127 -0.1
v 0.15 0.09330127 -0.1
v -0.1500001 0.006698729 0.04999995
v -0.0999999 0.006698729 0.04999995
v -0.0999999 0.09330127 0.1
v -0.1500001 0.09330127 0.1
v -0.0999999 0.09330127 -0.1
v -0.1500001 0.09330127 -0.1
v 0.15 0.09330127 -0.04999995
v 0.1 0.09330127 -0.04999995
v 0.15 0.05 -0.02499998
v -0.00581646 0.3861462 -0.1391878
v -0.00581646 0.3919626 -0.1291136
v -0.01163268 0.2533343 -0.06922483
v -0.01163268 0.264967 -0.04907632
v -0.0250001 0.25 -0.07500005
v -0.0250001 0.2716506 -0.03750002
v -0.0250001 0.25 -0.02499998
v 0.02499998 0.2716506 -0.03750002
v 0.0116328 0.2533343 -0.06922483
v 0.02499998 0.25 -0.07500005
v 0.0116328 0.264967 -0.04907632
v 0.00581634 0.3861462 -0.1391878
v 0.00581634 0.3919626 -0.1291136
v 0.02499998 0.25 -0.02499998
v 0.1 0.1 -0.125
v 0.1 0.1 -0.175
v -0.0999999 0.1 -0.125
v -0.0999999 0.1 -0.175
v 0.01750004 0.1728891 0.1635554
v 0 0.1728891 0.1635554
v 0.03499997 0.2 0.15
v -0.03500009 0.2 0.15
v -0.01749992 0.1728891 0.1635554
v 0.01750004 0.2271109 0.1364446
v 0 0.2271109 0.1364446
v -0.01749992 0.2271109 0.1364446
v 0.1 0.15 0.175
v 0.1 0.1 0.125
v -0.0999999 0.15 0.175
v -0.0999999 0.1 0.125
v -0.0999999 0.15 -0.175
v -0.0999999 0.15 0
v 0.04999995 0.25 -0.175
v 0.1 0.15 -0.175
v 0.04999995 0.25 -0.02499998
v 0.1 0.15 0
v -0.04999995 0.25 -0.175
v -0.04999995 0.25 -0.02499998
v 0.04999995 0.25 0.125
v -0.04999995 0.25 0.125

vn 0 0.5 0.8660254
vn 0 -1 0
vn 0 1 0
vn 0 -0.5 -0.8660254
vn -1 0 0
vn 0 -0.5 0.8660254
vn 0 0.5 -0.8660254
vn 1 0 0
vn -0.999249 0.03355565 -0.01937336
vn 0 0.8660254 -0.5
vn 0.999249 0.03355565 -0.01937336
vn 0 -0.4660689 -0.8847485
vn 0 0.5331802 0.8460016
vn 0 0.4472136 0.8944272
vn 0 -0.7071068 0.7071068
vn 0.8944272 0.4472136 0
vn 0 0 -1
vn -0.8944272 0.4472136 0
vn 0 0 1

vt -3.937008 2.1969
vt -5.905512 2.1969
vt -3.937008 4.165404
vt -5.905512 4.165404
vt -3.937008 -1.968504
vt -3.937008 -3.937008
vt -5.905512 -1.968504
vt -5.905512 -3.937008
vt -5.905512 1.968504
vt -5.905512 3.937008
vt -3.937008 1.968504
vt -3.937008 3.937008
vt 5.905512 2.1969
vt 3.937008 2.1969
vt 5.905512 4.165404
vt 3.937008 4.165404
vt -4.92126 1.968504
vt -0.984252 1.968504
vt -3.937008 0.2637295
vt -1.968504 0.2637295
vt 5.905512 -1.968504
vt 5.905512 -3.937008
vt 3.937008 -1.968504
vt 3.937008 -3.937008
vt 4.92126 1.968504
vt 3.937008 0.2637295
vt 0.984252 1.968504
vt 1.968504 0.2637295
vt -3.937008 -0.7558555
vt -5.905512 -0.7558555
vt -3.937008 1.212648
vt -5.905512 1.212648
vt 5.905512 -0.7558555
vt 3.937008 -0.7558555
vt 5.905512 1.212648
vt 3.937008 1.212648
vt 5.905512 3.937008
vt 5.905512 1.968504
vt 3.937008 3.937008
vt 3.937008 1.968504
vt -5.474365 15.1828
vt -5.077815 15.41192
vt -2.716 9.951035
vt -1.9229 10.40928
vt -2.952756 9.84252
vt -1.476378 10.69491
vt -0.984252 9.84252
vt -0.984252 4.068873
vt -0.4579823 2.626638
vt -0.984252 2.364098
vt 0.984252 2.364098
vt 0.4579823 2.626638
vt 0.4579823 3.542603
vt -0.4579823 3.542603
vt 0.984252 4.068873
vt 5.474365 15.1828
vt 2.716 9.951035
vt 5.077815 15.41192
vt 1.9229 10.40928
vt 1.476378 10.69491
vt 2.952756 9.84252
vt 0.984252 9.84252
vt -0.2289912 2.85563
vt -0.2289912 3.313612
vt 0.2289912 2.85563
vt 0.2289912 3.313612
vt 0.984252 9.015998
vt -0.984252 9.015998
vt 0.984252 10.00025
vt -0.984252 10.00025
vt 0.4579823 10.09451
vt -0.4579823 10.09451
vt 0.2289912 16.00446
vt -0.2289912 16.00446
vt 0.4579823 9.855476
vt -0.4579823 9.855476
vt 0.2289912 15.76543
vt -0.2289912 15.76543
vt 1.968504 3.673278
vt 3.937008 3.673278
vt -1.968504 3.673278
vt -3.937008 3.673278
vt 3.937008 -4.92126
vt 3.937008 -6.889764
vt -3.937008 -4.92126
vt -3.937008 -6.889764
vt 0.6889764 3.208367
vt 6.82367E-13 3.208367
vt 1.377953 4.401709
vt -1.377953 4.401709
vt -0.6889764 3.208367
vt 0.6889764 5.595051
vt 6.823262E-13 5.595051
vt -0.6889764 5.595051
vt 3.937008 9.047626
vt 3.937008 6.263741
vt -3.937008 9.047626
vt -3.937008 6.263741
vt -6.889764 3.937008
vt -6.889764 5.905512
vt -4.92126 3.937008
vt 0 5.905512
vt 4.92126 3.937008
vt 6.889764 5.905512
vt 6.889764 7.923076
vt 6.889764 3.521367
vt 0.984252 7.923076
vt 4.383514E-17 3.521367
vt -1.968504 -0.984252
vt -0.984252 -2.952756
vt -1.968504 -6.889764
vt 1.968504 -6.889764
vt 0.984252 -2.952756
vt 0.984252 -0.984252
vt 1.968504 -0.984252
vt -0.984252 -0.984252
vt 3.937008 5.905512
vt -3.937008 5.905512
vt -6.889764 3.521367
vt -6.889764 7.923076
vt -4.383514E-17 3.521367
vt -0.984252 7.923076
vt 6.889764 3.937008
vt -1.968504 4.92126
vt 1.968504 4.92126
vt 6.007555E-13 3.208367
vt -3.937008 2.200854
vt 3.937008 2.200854
vt 1.968504 6.602563
vt -1.968504 6.602563
vt 6.142427E-13 5.595051
vt -4.92126 7.923076
vt 1.968504 9.84252
vt -1.968504 9.84252
vt 4.92126 7.923076
vt 3.937008 4.92126
vt 3.937008 0.984252
vt -3.937008 4.92126
vt 3.937008 -0.984252
vt -3.937008 -0.984252
vt -3.937008 0.984252

usemtl dark

f 3/3/1 2/2/1 1/1/1
f 2/2/1 3/3/1 4/4/1
f 7/7/2 6/6/2 5/5/2
f 6/6/2 7/7/2 8/8/2
f 11/11/3 10/10/3 9/9/3
f 10/10/3 11/11/3 12/12/3
f 13/15/4 6/14/4 8/13/4
f 6/14/4 13/15/4 14/16/4
f 17/19/5 16/18/5 15/17/5
f 16/18/5 17/19/5 18/20/5
f 18/23/2 20/22/2 19/21/2
f 20/22/2 18/23/2 17/24/2
f 23/15/6 22/14/6 21/13/6
f 22/14/6 23/15/6 24/16/6
f 11/3/7 26/2/7 25/1/7
f 26/2/7 11/3/7 9/4/7
f 1/27/8 6/26/8 14/25/8
f 6/26/8 1/27/8 5/28/8
f 29/3/6 28/2/6 27/1/6
f 28/2/6 29/3/6 30/4/6
f 25/31/4 32/30/4 31/29/4
f 32/30/4 25/31/4 26/32/4
f 35/15/7 34/14/7 33/13/7
f 34/14/7 35/15/7 36/16/7
f 15/3/4 20/2/4 17/1/4
f 20/2/4 15/3/4 37/4/4
f 38/31/7 37/30/7 15/29/7
f 37/30/7 38/31/7 39/32/7
f 33/35/4 41/34/4 40/33/4
f 41/34/4 33/35/4 34/36/4
f 10/35/1 24/34/1 23/33/1
f 24/34/1 10/35/1 12/36/1
f 42/31/1 30/30/1 29/29/1
f 30/30/1 42/31/1 43/32/1
f 22/39/2 32/38/2 21/37/2
f 32/38/2 22/39/2 31/40/2
f 44/24/3 4/21/3 3/23/3
f 4/21/3 44/24/3 45/22/3
f 1/31/6 7/30/6 5/29/6
f 7/30/6 1/31/6 2/32/6
f 29/17/8 41/20/8 34/18/8
f 41/20/8 29/17/8 27/19/8
f 38/6/3 46/7/3 39/8/3
f 46/7/3 38/6/3 47/5/3
f 46/15/1 16/14/1 48/13/1
f 16/14/1 46/15/1 47/16/1
f 31/28/5 24/25/5 25/27/5
f 24/25/5 31/28/5 22/26/5
f 28/10/2 41/11/2 27/12/2
f 41/11/2 28/10/2 40/9/2
f 45/35/7 14/34/7 13/33/7
f 14/34/7 45/35/7 44/36/7
f 48/35/6 18/34/6 19/33/6
f 18/34/6 48/35/6 16/36/6
f 36/40/3 43/37/3 42/39/3
f 43/37/3 36/40/3 35/38/3
f 51/43/9 50/42/9 49/41/9
f 50/42/9 51/43/9 52/44/9
f 55/47/5 54/46/5 53/45/5
f 58/50/10 57/49/10 56/48/10
f 57/49/10 58/50/10 53/51/10
f 57/49/10 53/51/10 51/52/10
f 51/52/10 53/51/10 52/53/10
f 59/54/10 56/48/10 57/49/10
f 56/48/10 59/54/10 54/55/10
f 54/55/10 59/54/10 52/53/10
f 54/55/10 52/53/10 53/51/10
f 61/58/11 57/57/11 60/56/11
f 57/57/11 61/58/11 59/59/11
f 62/62/8 58/61/8 56/60/8
f 49/65/10 61/64/10 60/63/10
f 61/64/10 49/65/10 50/66/10
f 56/69/1 55/68/1 62/67/1
f 55/68/1 56/69/1 54/70/1
f 49/73/12 57/72/12 51/71/12
f 57/72/12 49/73/12 60/74/12
f 61/77/13 52/76/13 59/75/13
f 52/76/13 61/77/13 50/78/13

usemtl metal

f 40/28/5 35/79/5 33/27/5
f 35/79/5 40/28/5 28/26/5
f 35/79/5 28/26/5 43/80/5
f 43/80/5 28/26/5 30/25/5
f 9/81/8 32/20/8 26/18/8
f 32/20/8 9/81/8 10/82/8
f 32/20/8 10/82/8 21/19/8
f 21/19/8 10/82/8 23/17/8
f 8/19/5 45/82/5 13/17/5
f 45/82/5 8/19/5 7/20/5
f 45/82/5 7/20/5 4/81/5
f 4/81/5 7/20/5 2/18/5
f 39/80/8 20/26/8 37/25/8
f 20/26/8 39/80/8 46/79/8
f 20/26/8 46/79/8 19/28/8
f 19/28/8 46/79/8 48/27/8
f 65/85/2 64/84/2 63/83/2
f 64/84/2 65/85/2 66/86/2
f 69/89/14 68/88/14 67/87/14
f 70/90/14 68/88/14 69/89/14
f 68/88/14 70/90/14 71/91/14
f 70/90/14 69/89/14 72/92/14
f 70/90/14 72/92/14 73/93/14
f 74/94/14 70/90/14 73/93/14
f 77/97/15 76/96/15 75/95/15
f 76/96/15 77/97/15 78/98/15
f 65/101/5 79/100/5 66/99/5
f 79/100/5 65/101/5 80/102/5
f 80/102/5 65/101/5 78/103/5
f 80/102/5 78/103/5 77/104/5
f 83/107/16 82/106/16 81/105/16
f 82/106/16 83/107/16 84/108/16
f 81/111/3 58/110/3 83/109/3
f 58/110/3 81/111/3 85/112/3
f 58/110/3 85/112/3 53/113/3
f 53/113/3 85/112/3 55/114/3
f 55/114/3 85/112/3 86/115/3
f 62/116/3 83/109/3 58/110/3
f 79/117/17 64/12/17 66/39/17
f 64/12/17 79/117/17 82/118/17
f 80/121/18 85/120/18 79/119/18
f 85/120/18 80/121/18 86/122/18
f 84/102/8 64/123/8 82/104/8
f 64/123/8 84/102/8 63/103/8
f 63/103/8 84/102/8 76/101/8
f 76/101/8 84/102/8 75/100/8

usemtl metalRed

f 62/116/3 87/124/3 83/109/3
f 87/124/3 62/116/3 88/125/3
f 88/125/3 62/116/3 55/114/3
f 88/125/3 55/114/3 86/115/3
f 68/126/14 71/91/14 67/87/14
f 71/91/14 77/127/14 67/87/14
f 75/128/14 67/87/14 77/127/14
f 67/87/14 75/128/14 69/89/14
f 69/89/14 75/128/14 87/129/14
f 69/89/14 87/129/14 72/92/14
f 72/92/14 87/129/14 74/94/14
f 70/90/14 77/127/14 71/91/14
f 77/127/14 70/90/14 88/130/14
f 88/130/14 70/90/14 74/94/14
f 88/130/14 74/94/14 87/129/14
f 74/94/14 73/131/14 72/92/14
f 87/132/16 84/108/16 83/107/16
f 84/108/16 87/132/16 75/119/16
f 85/133/17 82/118/17 79/117/17
f 82/118/17 85/133/17 81/134/17
f 80/121/18 88/135/18 86/122/18
f 88/135/18 80/121/18 77/106/18

usemtl metalDark

f 65/39/17 15/11/17 14/40/17
f 15/11/17 65/39/17 63/12/17
f 44/82/5 65/101/5 14/17/5
f 65/101/5 44/82/5 78/103/5
f 78/103/5 44/82/5 3/81/5
f 78/103/5 3/81/5 36/79/5
f 36/79/5 3/81/5 1/18/5
f 36/79/5 1/18/5 34/27/5
f 78/103/5 36/79/5 42/80/5
f 78/103/5 42/80/5 29/25/5
f 76/39/19 29/11/19 24/40/19
f 29/11/19 76/39/19 78/12/19
f 63/103/8 38/80/8 15/25/8
f 38/80/8 63/103/8 76/101/8
f 38/80/8 76/101/8 47/79/8
f 47/79/8 76/101/8 11/81/8
f 47/79/8 11/81/8 16/27/8
f 16/27/8 11/81/8 25/18/8
f 11/81/8 76/101/8 12/82/8
f 12/82/8 76/101/8 24/17/8
f 29/138/2 25/137/2 24/136/2
f 25/137/2 29/138/2 16/139/2
f 16/139/2 29/138/2 15/83/2
f 15/83/2 29/138/2 1/140/2
f 15/83/2 1/140/2 14/85/2
f 1/140/2 29/138/2 34/141/2

