# Created by Kenney (www.kenney.nl)

mtllib barrel.mtl

g barrel

v 0.1 0.25 0
v 0.1 0.175 0
v 0.04999995 0.25 0.08660257
v 0.04999995 0.175 0.08660257
v -0.0999999 4.687555E-19 0
v -0.0999999 0.075 0
v -0.04999995 4.687555E-19 0.08660257
v -0.04999995 0.075 0.08660257
v 0.06516409 0.25 0
v 0.04999995 0.25 -0.08660257
v 0.03258204 0.25 -0.0564338
v -0.04999995 0.25 -0.08660257
v -0.03258204 0.25 -0.0564338
v -0.06516409 0.25 0
v -0.0999999 0.25 0
v 0.03258204 0.25 0.0564338
v -0.04999995 0.25 0.08660257
v -0.03258204 0.25 0.0564338
v 0.1 0.075 0
v 0.1 4.687555E-19 0
v 0.04999995 0.075 0.08660257
v 0.04999995 4.687555E-19 0.08660257
v -0.04999995 0.175 -0.08660257
v 0.04999995 0.175 -0.08660257
v -0.04999995 4.687555E-19 -0.08660257
v -0.04999995 0.075 -0.08660257
v -0.0999999 0.175 0
v 0.04999995 4.687555E-19 -0.08660257
v 0.04999995 0.075 -0.08660257
v -0.04999995 0.175 0.08660257

vn 0.8660254 0 0.5
vn -0.8660254 0 0.5
vn 0 1 0
vn 0 0 -1
vn -0.8660254 0 -0.5
vn 0.8660254 0 -0.5
vn 0 0 1
vn 0 -1 0

vt 1.968504 9.84252
vt 1.968504 6.889764
vt -1.968504 9.84252
vt -1.968504 6.889764
vt -1.968504 1.021862E-16
vt -1.968504 2.952756
vt 1.968504 1.021862E-16
vt 1.968504 2.952756
vt -3.937008 0
vt -2.565517 0
vt -1.968504 -3.409549
vt -1.282758 -2.221803
vt 1.968504 -3.409549
vt 1.282758 -2.221803
vt 2.565517 0
vt 3.937008 0
vt -1.968504 3.409549
vt -1.282758 2.221803
vt 1.968504 3.409549
vt 1.282758 2.221803
vt 1.968504 1.845494E-17
vt -1.968504 1.845494E-17

usemtl metalRed

f 3/3/1 2/2/1 1/1/1
f 2/2/1 3/3/1 4/4/1
f 7/7/2 6/6/2 5/5/2
f 6/6/2 7/7/2 8/8/2
f 10/11/3 9/10/3 1/9/3
f 9/10/3 10/11/3 11/12/3
f 11/12/3 10/11/3 12/13/3
f 11/12/3 12/13/3 13/14/3
f 13/14/3 12/13/3 14/15/3
f 14/15/3 12/13/3 15/16/3
f 9/10/3 3/17/3 1/9/3
f 3/17/3 9/10/3 16/18/3
f 3/17/3 16/18/3 17/19/3
f 17/19/3 14/15/3 15/16/3
f 17/19/3 16/18/3 18/20/3
f 17/19/3 18/20/3 14/15/3
f 21/6/1 20/21/1 19/8/1
f 20/21/1 21/6/1 22/22/1
f 12/1/4 24/4/4 23/2/4
f 24/4/4 12/1/4 10/3/4
f 5/21/5 26/6/5 25/22/5
f 26/6/5 5/21/5 6/8/5
f 1/3/6 24/2/6 10/1/6
f 24/2/6 1/3/6 2/4/6
f 27/2/5 12/3/5 23/4/5
f 12/3/5 27/2/5 15/1/5
f 26/8/4 28/22/4 25/21/4
f 28/22/4 26/8/4 29/6/4
f 19/6/6 28/7/6 29/8/6
f 28/7/6 19/6/6 20/5/6
f 3/1/7 30/4/7 4/2/7
f 30/4/7 3/1/7 17/3/7
f 21/8/7 7/22/7 22/21/7
f 7/22/7 21/8/7 8/6/7
f 30/2/2 15/3/2 27/4/2
f 15/3/2 30/2/2 17/1/2
f 22/19/8 28/13/8 20/16/8
f 28/13/8 22/19/8 25/11/8
f 25/11/8 22/19/8 7/17/8
f 25/11/8 7/17/8 5/9/8

usemtl metal

f 11/12/3 16/18/3 9/10/3
f 16/18/3 11/12/3 13/14/3
f 16/18/3 13/14/3 18/20/3
f 18/20/3 13/14/3 14/15/3
f 23/2/4 29/6/4 26/8/4
f 29/6/4 23/2/4 24/4/4
f 2/4/6 29/8/6 24/2/6
f 29/8/6 2/4/6 19/6/6
f 4/4/1 19/8/1 2/2/1
f 19/8/1 4/4/1 21/6/1
f 6/8/5 23/4/5 26/6/5
f 23/4/5 6/8/5 27/2/5
f 8/8/2 27/4/2 6/6/2
f 27/4/2 8/8/2 30/2/2
f 4/2/7 8/6/7 21/8/7
f 8/6/7 4/2/7 30/4/7

