# Created by Kenney (www.kenney.nl)

mtllib barrels.mtl

g barrels

v -0.175 0 0.2482051
v -0.2249999 0 0.2482051
v -0.175 0.05 0.2482051
v -0.2249999 0.05 0.2482051
v 0.275 0.1 -0.2482051
v 0.275 0.1 0.2482051
v -0.2750001 0.1 -0.2482051
v -0.2750001 0.1 0.2482051
v -0.2249999 0 -0.2482051
v -0.175 0 -0.2482051
v -0.2249999 0.05 -0.2482051
v -0.175 0.05 -0.2482051
v 0.225 0 0.2482051
v 0.175 0 0.2482051
v 0.225 0.05 0.2482051
v 0.175 0.05 0.2482051
v 0.175 0 -0.2482051
v 0.225 0 -0.2482051
v 0.175 0.05 -0.2482051
v 0.225 0.05 -0.2482051
v 0.275 0.05 0.2482051
v 0.275 0.05 -0.2482051
v -0.2750001 0.05 -0.2482051
v -0.2750001 0.05 0.2482051

vn 0 0 1
vn 0 1 0
vn 0 0 -1
vn 1 0 0
vn 0 -1 0
vn -1 0 0

vt -6.889764 0
vt -8.858268 0
vt -6.889764 1.968504
vt -8.858268 1.968504
vt -10.82677 -9.771853
vt -10.82677 9.771853
vt 10.82677 -9.771853
vt 10.82677 9.771853
vt 8.858268 0
vt 6.889764 0
vt 8.858268 1.968504
vt 6.889764 1.968504
vt 9.771853 1.968504
vt 9.771853 0
vt -9.771853 1.968504
vt -9.771853 0
vt 8.858268 9.771853
vt 8.858268 -9.771853
vt -9.771853 3.937008
vt 9.771853 3.937008
vt 10.82677 1.968504
vt 10.82677 3.937008
vt -10.82677 1.968504
vt -10.82677 3.937008
vt -8.858268 9.771853
vt -8.858268 -9.771853
vt -6.889764 9.771853
vt -6.889764 -9.771853
vt 6.889764 9.771853
vt 6.889764 -9.771853

usemtl metal

f 3/3/1 2/2/1 1/1/1
f 2/2/1 3/3/1 4/4/1
f 7/7/2 6/6/2 5/5/2
f 6/6/2 7/7/2 8/8/2
f 11/11/3 10/10/3 9/9/3
f 10/10/3 11/11/3 12/12/3
f 15/11/1 14/10/1 13/9/1
f 14/10/1 15/11/1 16/12/1
f 19/3/3 18/2/3 17/1/3
f 18/2/3 19/3/3 20/4/3

usemtl metalDark

f 3/15/4 10/14/4 12/13/4
f 10/14/4 3/15/4 1/16/4
f 15/17/5 22/7/5 21/8/5
f 22/7/5 15/17/5 20/18/5
f 24/13/6 7/19/6 23/15/6
f 7/19/6 24/13/6 8/20/6
f 7/22/3 11/11/3 23/21/3
f 11/11/3 7/22/3 12/12/3
f 12/12/3 7/22/3 19/3/3
f 19/3/3 7/22/3 20/4/3
f 20/4/3 7/22/3 22/23/3
f 22/23/3 7/22/3 5/24/3
f 6/19/4 22/13/4 5/20/4
f 22/13/4 6/19/4 21/15/4
f 6/22/1 15/11/1 21/21/1
f 15/11/1 6/22/1 16/12/1
f 16/12/1 6/22/1 3/3/1
f 3/3/1 6/22/1 4/4/1
f 4/4/1 6/22/1 24/23/1
f 24/23/1 6/22/1 8/24/1
f 2/14/6 11/15/6 9/16/6
f 11/15/6 2/14/6 4/13/6
f 24/6/5 11/26/5 4/25/5
f 11/26/5 24/6/5 23/5/5
f 2/25/5 10/28/5 1/27/5
f 10/28/5 2/25/5 9/26/5
f 14/14/6 19/15/6 17/16/6
f 19/15/6 14/14/6 16/13/6
f 15/15/4 18/14/4 20/13/4
f 18/14/4 15/15/4 13/16/4
f 3/27/5 19/30/5 16/29/5
f 19/30/5 3/27/5 12/28/5
f 14/29/5 18/18/5 13/17/5
f 18/18/5 14/29/5 17/30/5

g barrel

v 0.175 0.275 -0.02499998
v 0.07500005 0.275 -0.02499998
v 0.175 0.35 -0.02499998
v 0.07500005 0.35 -0.02499998
v 0.225 0.35 -0.1116025
v 0.1901641 0.35 -0.1116025
v 0.175 0.35 -0.1982051
v 0.157582 0.35 -0.1680363
v 0.07500005 0.35 -0.1982051
v 0.09241796 0.35 -0.1680363
v 0.05983591 0.35 -0.1116025
v 0.02499998 0.35 -0.1116025
v 0.157582 0.35 -0.05516875
v 0.09241796 0.35 -0.05516875
v 0.07500005 0.1 -0.1982051
v 0.175 0.1 -0.1982051
v 0.07500005 0.175 -0.1982051
v 0.175 0.175 -0.1982051
v 0.225 0.175 -0.1116025
v 0.225 0.1 -0.1116025
v 0.07500005 0.275 -0.1982051
v 0.02499998 0.275 -0.1116025
v 0.175 0.175 -0.02499998
v 0.175 0.1 -0.02499998
v 0.175 0.275 -0.1982051
v 0.02499998 0.1 -0.1116025
v 0.02499998 0.175 -0.1116025
v 0.07500005 0.1 -0.02499998
v 0.07500005 0.175 -0.02499998
v 0.225 0.275 -0.1116025

vn 0.8660254 0 -0.5
vn -0.8660254 0 -0.5
vn 0.8660254 0 0.5
vn -0.8660254 0 0.5

vt 1.968504 6.889764
vt -1.968504 6.889764
vt 1.968504 9.84252
vt -1.968504 9.84252
vt -3.937008 0
vt -2.565517 -1.421085E-14
vt -1.968504 -3.409549
vt -1.282758 -2.221803
vt 1.968504 -3.409549
vt 1.282758 -2.221803
vt 2.565517 1.421085E-14
vt 3.937008 0
vt -1.968504 3.409549
vt -1.282758 2.221803
vt 1.968504 3.409549
vt 1.282758 2.221803
vt 1.968504 0
vt -1.968504 0
vt 1.968504 2.952756
vt -1.968504 2.952756
vt 1.968504 8.373129E-17
vt -1.968504 8.373129E-17
vt 1.968504 -3.56968E-30
vt -1.968504 -3.56968E-30
vt -1.968504 9.433715E-30
vt 1.968504 9.433715E-30

usemtl metalRed

f 27/33/1 26/32/1 25/31/1
f 26/32/1 27/33/1 28/34/1
f 31/37/2 30/36/2 29/35/2
f 30/36/2 31/37/2 32/38/2
f 32/38/2 31/37/2 33/39/2
f 32/38/2 33/39/2 34/40/2
f 34/40/2 33/39/2 35/41/2
f 35/41/2 33/39/2 36/42/2
f 30/36/2 27/43/2 29/35/2
f 27/43/2 30/36/2 37/44/2
f 27/43/2 37/44/2 28/45/2
f 28/45/2 35/41/2 36/42/2
f 28/45/2 37/44/2 38/46/2
f 28/45/2 38/46/2 35/41/2
f 41/49/3 40/48/3 39/47/3
f 40/48/3 41/49/3 42/50/3
f 43/50/7 40/51/7 42/49/7
f 40/51/7 43/50/7 44/52/7
f 46/31/8 33/34/8 45/32/8
f 33/34/8 46/31/8 36/33/8
f 47/50/9 44/53/9 43/49/9
f 44/53/9 47/50/9 48/54/9
f 26/31/10 36/34/10 46/32/10
f 36/34/10 26/31/10 28/33/10
f 33/33/3 49/32/3 45/31/3
f 49/32/3 33/33/3 31/34/3
f 50/56/8 41/50/8 39/55/8
f 41/50/8 50/56/8 51/49/8
f 47/49/1 52/48/1 48/47/1
f 52/48/1 47/49/1 53/50/1
f 27/34/9 54/31/9 29/33/9
f 54/31/9 27/34/9 25/32/9
f 52/51/10 51/50/10 50/52/10
f 51/50/10 52/51/10 53/49/10
f 29/34/7 49/31/7 31/33/7
f 49/31/7 29/34/7 54/32/7
f 48/45/5 40/39/5 44/42/5
f 40/39/5 48/45/5 39/37/5
f 39/37/5 48/45/5 52/43/5
f 39/37/5 52/43/5 50/35/5

usemtl metal

f 32/38/2 37/44/2 30/36/2
f 37/44/2 32/38/2 34/40/2
f 37/44/2 34/40/2 38/46/2
f 38/46/2 34/40/2 35/41/2
f 25/32/9 43/49/9 54/31/9
f 43/49/9 25/32/9 47/50/9
f 45/31/3 42/50/3 41/49/3
f 42/50/3 45/31/3 49/32/3
f 51/49/8 45/32/8 41/50/8
f 45/32/8 51/49/8 46/31/8
f 53/49/10 46/32/10 51/50/10
f 46/32/10 53/49/10 26/31/10
f 25/31/1 53/50/1 47/49/1
f 53/50/1 25/31/1 26/32/1
f 54/32/7 42/49/7 49/31/7
f 42/49/7 54/32/7 43/50/7

g barrel

v 0.175 0.275 0.1982051
v 0.07500005 0.275 0.1982051
v 0.175 0.35 0.1982051
v 0.07500005 0.35 0.1982051
v 0.225 0.35 0.1116025
v 0.1901641 0.35 0.1116025
v 0.175 0.35 0.02499998
v 0.157582 0.35 0.05516875
v 0.07500005 0.35 0.02499998
v 0.09241796 0.35 0.05516875
v 0.05983591 0.35 0.1116025
v 0.02499998 0.35 0.1116025
v 0.157582 0.35 0.1680363
v 0.09241796 0.35 0.1680363
v 0.07500005 0.1 0.02499998
v 0.175 0.1 0.02499998
v 0.07500005 0.175 0.02499998
v 0.175 0.175 0.02499998
v 0.225 0.175 0.1116025
v 0.225 0.1 0.1116025
v 0.07500005 0.275 0.02499998
v 0.02499998 0.275 0.1116025
v 0.175 0.175 0.1982051
v 0.175 0.1 0.1982051
v 0.175 0.275 0.02499998
v 0.02499998 0.1 0.1116025
v 0.02499998 0.175 0.1116025
v 0.07500005 0.1 0.1982051
v 0.07500005 0.175 0.1982051
v 0.225 0.275 0.1116025



usemtl metalRed

f 57/33/1 56/32/1 55/31/1
f 56/32/1 57/33/1 58/34/1
f 61/37/2 60/36/2 59/35/2
f 60/36/2 61/37/2 62/38/2
f 62/38/2 61/37/2 63/39/2
f 62/38/2 63/39/2 64/40/2
f 64/40/2 63/39/2 65/41/2
f 65/41/2 63/39/2 66/42/2
f 60/36/2 57/43/2 59/35/2
f 57/43/2 60/36/2 67/44/2
f 57/43/2 67/44/2 58/45/2
f 58/45/2 65/41/2 66/42/2
f 58/45/2 67/44/2 68/46/2
f 58/45/2 68/46/2 65/41/2
f 71/49/3 70/48/3 69/47/3
f 70/48/3 71/49/3 72/50/3
f 73/50/7 70/51/7 72/49/7
f 70/51/7 73/50/7 74/52/7
f 76/31/8 63/34/8 75/32/8
f 63/34/8 76/31/8 66/33/8
f 77/50/9 74/53/9 73/49/9
f 74/53/9 77/50/9 78/54/9
f 56/31/10 66/34/10 76/32/10
f 66/34/10 56/31/10 58/33/10
f 63/33/3 79/32/3 75/31/3
f 79/32/3 63/33/3 61/34/3
f 80/56/8 71/50/8 69/55/8
f 71/50/8 80/56/8 81/49/8
f 77/49/1 82/48/1 78/47/1
f 82/48/1 77/49/1 83/50/1
f 57/34/9 84/31/9 59/33/9
f 84/31/9 57/34/9 55/32/9
f 82/51/10 81/50/10 80/52/10
f 81/50/10 82/51/10 83/49/10
f 59/34/7 79/31/7 61/33/7
f 79/31/7 59/34/7 84/32/7
f 78/45/5 70/39/5 74/42/5
f 70/39/5 78/45/5 69/37/5
f 69/37/5 78/45/5 82/43/5
f 69/37/5 82/43/5 80/35/5

usemtl metal

f 62/38/2 67/44/2 60/36/2
f 67/44/2 62/38/2 64/40/2
f 67/44/2 64/40/2 68/46/2
f 68/46/2 64/40/2 65/41/2
f 55/32/9 73/49/9 84/31/9
f 73/49/9 55/32/9 77/50/9
f 75/31/3 72/50/3 71/49/3
f 72/50/3 75/31/3 79/32/3
f 81/49/8 75/32/8 71/50/8
f 75/32/8 81/49/8 76/31/8
f 83/49/10 76/32/10 81/50/10
f 76/32/10 83/49/10 56/31/10
f 55/31/1 83/50/1 77/49/1
f 83/50/1 55/31/1 56/32/1
f 84/32/7 72/49/7 79/31/7
f 72/49/7 84/32/7 73/50/7

g barrel

v -0.07500005 0.275 -0.02499998
v -0.175 0.275 -0.02499998
v -0.07500005 0.35 -0.02499998
v -0.175 0.35 -0.02499998
v -0.0250001 0.35 -0.1116025
v -0.05983591 0.35 -0.1116025
v -0.07500005 0.35 -0.1982051
v -0.09241796 0.35 -0.1680363
v -0.175 0.35 -0.1982051
v -0.157582 0.35 -0.1680363
v -0.1901641 0.35 -0.1116025
v -0.2249999 0.35 -0.1116025
v -0.09241796 0.35 -0.05516875
v -0.157582 0.35 -0.05516875
v -0.175 0.1 -0.1982051
v -0.07500005 0.1 -0.1982051
v -0.175 0.175 -0.1982051
v -0.07500005 0.175 -0.1982051
v -0.0250001 0.175 -0.1116025
v -0.0250001 0.1 -0.1116025
v -0.175 0.275 -0.1982051
v -0.2249999 0.275 -0.1116025
v -0.07500005 0.175 -0.02499998
v -0.07500005 0.1 -0.02499998
v -0.07500005 0.275 -0.1982051
v -0.2249999 0.1 -0.1116025
v -0.2249999 0.175 -0.1116025
v -0.175 0.1 -0.02499998
v -0.175 0.175 -0.02499998
v -0.0250001 0.275 -0.1116025



usemtl metalRed

f 87/33/1 86/32/1 85/31/1
f 86/32/1 87/33/1 88/34/1
f 91/37/2 90/36/2 89/35/2
f 90/36/2 91/37/2 92/38/2
f 92/38/2 91/37/2 93/39/2
f 92/38/2 93/39/2 94/40/2
f 94/40/2 93/39/2 95/41/2
f 95/41/2 93/39/2 96/42/2
f 90/36/2 87/43/2 89/35/2
f 87/43/2 90/36/2 97/44/2
f 87/43/2 97/44/2 88/45/2
f 88/45/2 95/41/2 96/42/2
f 88/45/2 97/44/2 98/46/2
f 88/45/2 98/46/2 95/41/2
f 101/49/3 100/48/3 99/47/3
f 100/48/3 101/49/3 102/50/3
f 103/50/7 100/51/7 102/49/7
f 100/51/7 103/50/7 104/52/7
f 106/31/8 93/34/8 105/32/8
f 93/34/8 106/31/8 96/33/8
f 107/50/9 104/53/9 103/49/9
f 104/53/9 107/50/9 108/54/9
f 86/31/10 96/34/10 106/32/10
f 96/34/10 86/31/10 88/33/10
f 93/33/3 109/32/3 105/31/3
f 109/32/3 93/33/3 91/34/3
f 110/56/8 101/50/8 99/55/8
f 101/50/8 110/56/8 111/49/8
f 107/49/1 112/48/1 108/47/1
f 112/48/1 107/49/1 113/50/1
f 87/34/9 114/31/9 89/33/9
f 114/31/9 87/34/9 85/32/9
f 112/51/10 111/50/10 110/52/10
f 111/50/10 112/51/10 113/49/10
f 89/34/7 109/31/7 91/33/7
f 109/31/7 89/34/7 114/32/7
f 108/45/5 100/39/5 104/42/5
f 100/39/5 108/45/5 99/37/5
f 99/37/5 108/45/5 112/43/5
f 99/37/5 112/43/5 110/35/5

usemtl metal

f 92/38/2 97/44/2 90/36/2
f 97/44/2 92/38/2 94/40/2
f 97/44/2 94/40/2 98/46/2
f 98/46/2 94/40/2 95/41/2
f 85/32/9 103/49/9 114/31/9
f 103/49/9 85/32/9 107/50/9
f 105/31/3 102/50/3 101/49/3
f 102/50/3 105/31/3 109/32/3
f 111/49/8 105/32/8 101/50/8
f 105/32/8 111/49/8 106/31/8
f 113/49/10 106/32/10 111/50/10
f 106/32/10 113/49/10 86/31/10
f 85/31/1 113/50/1 107/49/1
f 113/50/1 85/31/1 86/32/1
f 114/32/7 102/49/7 109/31/7
f 102/49/7 114/32/7 103/50/7

g barrel

v -0.07500005 0.275 0.1982051
v -0.175 0.275 0.1982051
v -0.07500005 0.35 0.1982051
v -0.175 0.35 0.1982051
v -0.0250001 0.35 0.1116025
v -0.05983591 0.35 0.1116025
v -0.07500005 0.35 0.02499998
v -0.09241796 0.35 0.05516875
v -0.175 0.35 0.02499998
v -0.157582 0.35 0.05516875
v -0.1901641 0.35 0.1116025
v -0.2249999 0.35 0.1116025
v -0.09241796 0.35 0.1680363
v -0.157582 0.35 0.1680363
v -0.175 0.1 0.02499998
v -0.07500005 0.1 0.02499998
v -0.175 0.175 0.02499998
v -0.07500005 0.175 0.02499998
v -0.0250001 0.175 0.1116025
v -0.0250001 0.1 0.1116025
v -0.175 0.275 0.02499998
v -0.2249999 0.275 0.1116025
v -0.07500005 0.175 0.1982051
v -0.07500005 0.1 0.1982051
v -0.07500005 0.275 0.02499998
v -0.2249999 0.1 0.1116025
v -0.2249999 0.175 0.1116025
v -0.175 0.1 0.1982051
v -0.175 0.175 0.1982051
v -0.0250001 0.275 0.1116025



usemtl metalRed

f 117/33/1 116/32/1 115/31/1
f 116/32/1 117/33/1 118/34/1
f 121/37/2 120/36/2 119/35/2
f 120/36/2 121/37/2 122/38/2
f 122/38/2 121/37/2 123/39/2
f 122/38/2 123/39/2 124/40/2
f 124/40/2 123/39/2 125/41/2
f 125/41/2 123/39/2 126/42/2
f 120/36/2 117/43/2 119/35/2
f 117/43/2 120/36/2 127/44/2
f 117/43/2 127/44/2 118/45/2
f 118/45/2 125/41/2 126/42/2
f 118/45/2 127/44/2 128/46/2
f 118/45/2 128/46/2 125/41/2
f 131/49/3 130/48/3 129/47/3
f 130/48/3 131/49/3 132/50/3
f 133/50/7 130/51/7 132/49/7
f 130/51/7 133/50/7 134/52/7
f 136/31/8 123/34/8 135/32/8
f 123/34/8 136/31/8 126/33/8
f 137/50/9 134/53/9 133/49/9
f 134/53/9 137/50/9 138/54/9
f 116/31/10 126/34/10 136/32/10
f 126/34/10 116/31/10 118/33/10
f 123/33/3 139/32/3 135/31/3
f 139/32/3 123/33/3 121/34/3
f 140/56/8 131/50/8 129/55/8
f 131/50/8 140/56/8 141/49/8
f 137/49/1 142/48/1 138/47/1
f 142/48/1 137/49/1 143/50/1
f 117/34/9 144/31/9 119/33/9
f 144/31/9 117/34/9 115/32/9
f 142/51/10 141/50/10 140/52/10
f 141/50/10 142/51/10 143/49/10
f 119/34/7 139/31/7 121/33/7
f 139/31/7 119/34/7 144/32/7
f 138/45/5 130/39/5 134/42/5
f 130/39/5 138/45/5 129/37/5
f 129/37/5 138/45/5 142/43/5
f 129/37/5 142/43/5 140/35/5

usemtl metal

f 122/38/2 127/44/2 120/36/2
f 127/44/2 122/38/2 124/40/2
f 127/44/2 124/40/2 128/46/2
f 128/46/2 124/40/2 125/41/2
f 115/32/9 133/49/9 144/31/9
f 133/49/9 115/32/9 137/50/9
f 135/31/3 132/50/3 131/49/3
f 132/50/3 135/31/3 139/32/3
f 141/49/8 135/32/8 131/50/8
f 135/32/8 141/49/8 136/31/8
f 143/49/10 136/32/10 141/50/10
f 136/32/10 143/49/10 116/31/10
f 115/31/1 143/50/1 137/49/1
f 143/50/1 115/31/1 116/32/1
f 144/32/7 132/49/7 139/31/7
f 132/49/7 144/32/7 133/50/7

