# Created by Kenney (www.kenney.nl)

mtllib bones.mtl

g bones

v -0.2533877 0.3102 -0.03541231
v -0.2533877 0.3102 0.03541231
v -0.1703207 0.4216435 -0.02375233
v -0.1703207 0.4216435 0.02375233
v -0.392189 0.1782 -0.05058897
v -0.2910109 0.1782 -0.05058897
v -0.3242123 0.3102 -0.03541231
v -0.2921 0 0.06929994
v -0.4307001 0 0.06929994
v -0.2910109 0.1782 0.05058897
v -0.392189 0.1782 0.05058897
v -0.1982014 0.4422 -0.02160156
v -0.1982014 0.4422 0.02160156
v -0.3242123 0.3102 0.03541231
v -0.4307001 0 -0.06929994
v -0.2921 0 -0.06929994
v -0.3305912 0.14256 0.1951488
v -0.2762098 0.24816 0.2072902
v -0.3305912 0.14256 0.2760912
v -0.2762098 0.24816 0.2639499
v -0.1530967 0.3373148 0.2166182
v -0.1530967 0.3373148 0.2546217
v -0.1754012 0.35376 0.2183388
v -0.1754012 0.35376 0.2529012
v -0.3614001 0 0.18018
v -0.3614001 0 0.29106
v -0.2496488 0.14256 0.1951488
v -0.2195501 0.24816 0.2072902
v -0.2195501 0.24816 0.2639499
v -0.25052 0 0.18018
v -0.25052 0 0.29106
v -0.2496488 0.14256 0.2760912
v -0.2762098 0.24816 -0.2639499
v -0.2195501 0.24816 -0.2639499
v -0.1754012 0.35376 -0.2529012
v -0.1530967 0.3373148 -0.2546217
v -0.2195501 0.24816 -0.2072902
v -0.2762098 0.24816 -0.2072902
v -0.1530967 0.3373148 -0.2166182
v -0.1754012 0.35376 -0.2183388
v -0.3305912 0.14256 -0.2760912
v -0.3305912 0.14256 -0.1951488
v -0.2496488 0.14256 -0.2760912
v -0.2496488 0.14256 -0.1951488
v -0.3614001 0 -0.29106
v -0.3614001 0 -0.18018
v -0.25052 0 -0.18018
v -0.25052 0 -0.29106
v 0.3614 0 0.29106
v 0.25052 0 0.29106
v 0.3305912 0.14256 0.2760912
v 0.2496488 0.14256 0.2760912
v 0.3614 0 0.18018
v 0.25052 0 0.18018
v 0.2496488 0.14256 0.1951488
v 0.3305912 0.14256 0.1951488
v 0.2195501 0.24816 0.2072902
v 0.2762098 0.24816 0.2072902
v 0.2762098 0.24816 0.2639499
v 0.1754012 0.35376 0.2183388
v 0.1754012 0.35376 0.2529012
v 0.2195501 0.24816 0.2639499
v 0.1530967 0.3373148 0.2546217
v 0.1530967 0.3373148 0.2166182
v 0.291011 0.1782 -0.05058897
v 0.392189 0.1782 -0.05058897
v 0.2533877 0.3102 -0.03541231
v 0.3242123 0.3102 -0.03541231
v 0.3242123 0.3102 0.03541231
v 0.2533877 0.3102 0.03541231
v 0.1982015 0.4422 0.02160156
v 0.1703207 0.4216435 0.02375233
v 0.1703207 0.4216435 -0.02375233
v 0.4307001 0 -0.06929994
v 0.4307001 0 0.06929994
v 0.392189 0.1782 0.05058897
v 0.291011 0.1782 0.05058897
v 0.2921 0 -0.06929994
v 0.2921 0 0.06929994
v 0.1982015 0.4422 -0.02160156
v 0.2195501 0.24816 -0.2639499
v 0.1530967 0.3373148 -0.2546217
v 0.2195501 0.24816 -0.2072902
v 0.1530967 0.3373148 -0.2166182
v 0.3614 0 -0.18018
v 0.25052 0 -0.18018
v 0.3305912 0.14256 -0.1951488
v 0.2496488 0.14256 -0.1951488
v 0.25052 0 -0.29106
v 0.2496488 0.14256 -0.2760912
v 0.3614 0 -0.29106
v 0.3305912 0.14256 -0.2760912
v 0.2762098 0.24816 -0.2639499
v 0.2762098 0.24816 -0.2072902
v 0.1754012 0.35376 -0.2529012
v 0.1754012 0.35376 -0.2183388

vn 0.8017773 -0.5976229 0
vn 0 0.1142225 -0.9934552
vn 0 0.1044259 0.9945327
vn 0.5934387 0.8048792 0
vn 0 0.1040592 0.994571
vn -0.9774354 0.2112346 0
vn 0.9999814 -0.006110998 0
vn 0 0.1142225 0.9934552
vn 0 0.1044259 -0.9945327
vn -0.723326 0.6905067 0
vn 0 -1 0
vn 0.9616989 -0.2741083 0
vn -0.8890384 0.4578325 0
vn 0 0.1040592 -0.994571
vn 0.723326 0.6905067 0
vn -0.9616989 -0.2741083 0
vn 0.9774354 0.2112346 0
vn -0.8017773 -0.5976229 0
vn -0.9999814 -0.006110998 0
vn -0.5934387 0.8048792 0
vn 0.8890384 0.4578325 0

vt 1.394185 3.829961
vt -1.394185 3.829961
vt 0.9351289 9.302227
vt -0.9351289 9.302227
vt 15.44051 6.742335
vt 11.45713 6.742335
vt 12.76426 11.97342
vt 9.975894 11.97342
vt -11.5 -0.2849101
vt -16.95669 -0.2849101
vt -11.45713 6.769406
vt -15.44051 6.769406
vt 0.9351289 15.24831
vt -0.9351289 15.24831
vt 0.8504529 16.61208
vt -0.8504529 16.61208
vt -9.975894 12.00122
vt -12.76426 12.00122
vt -6.705542 16.41271
vt -7.803209 17.22644
vt -2.728346 -3.581841
vt -1.991693 3.595869
vt 2.728346 -3.581841
vt 1.991693 3.595869
vt 2.728346 -0.07027647
vt -2.728346 -0.07027647
vt 1.991693 6.945602
vt -1.991693 6.945602
vt -11.45713 6.742335
vt -15.44051 6.742335
vt -9.975894 11.97342
vt -12.76426 11.97342
vt 16.95669 -0.2849101
vt 11.5 -0.2849101
vt 15.44051 6.769406
vt 11.45713 6.769406
vt -1.394185 0.01988018
vt -0.8504529 7.204539
vt 1.394185 0.01988018
vt 0.8504529 7.204539
vt -11.5 2.728346
vt -11.5 -2.728346
vt -16.95669 2.728346
vt -16.95669 -2.728346
vt 1.991693 3.606544
vt -1.991693 3.606544
vt 1.394185 9.010367
vt -1.394185 9.010367
vt -1.991693 -0.8318995
vt -1.394185 5.013574
vt 1.991693 -0.8318995
vt 1.394185 5.013574
vt 12.76426 12.00122
vt 9.975894 12.00122
vt 7.803209 17.22644
vt 6.705542 16.41271
vt 7.683023 -0.969059
vt 8.16103 3.707319
vt 10.86973 -0.969059
vt 10.39173 3.707319
vt -8.528275 12.73228
vt -10.02448 12.73228
vt -8.596016 13.82329
vt -9.95674 13.82329
vt 7.093701 -3.00552
vt 7.683023 2.736649
vt 11.45905 -3.00552
vt 10.86973 2.736649
vt 13.0154 6.453439
vt 9.828693 6.453439
vt 10.8744 10.63831
vt 8.643707 10.63831
vt -8.643707 8.635683
vt -10.8744 8.635683
vt -6.027426 12.16487
vt -6.905559 12.81586
vt 10.8744 10.56627
vt 8.643707 10.56627
vt 6.905559 14.74644
vt 6.027426 14.09546
vt -7.093701 -0.06027272
vt -11.45905 -0.06027272
vt -7.683023 5.552431
vt -10.86973 5.552431
vt -8.16103 2.66775
vt -10.39173 2.66775
vt -8.528275 7.045563
vt -10.02448 7.045563
vt -9.828693 4.334297
vt -13.0154 4.334297
vt -8.643707 8.519166
vt -10.8744 8.519166
vt -9.862992 -1.196622
vt -14.22835 -1.196622
vt -9.828693 4.446831
vt -13.0154 4.446831
vt 8.16103 -0.4418964
vt 8.596016 5.30583
vt 10.39173 -0.4418964
vt 9.95674 5.30583
vt -7.683023 2.703504
vt -10.86973 2.703504
vt -8.16103 7.026562
vt -10.39173 7.026562
vt -9.862992 11.45905
vt -9.862992 7.093701
vt -14.22835 11.45905
vt -14.22835 7.093701
vt 14.22835 0.7407663
vt 9.862992 0.7407663
vt 13.0154 6.384219
vt 9.828693 6.384219
vt 10.8744 8.635683
vt 8.643707 8.635683
vt 6.905559 12.81586
vt 6.027426 12.16487
vt -8.643707 10.56627
vt -10.8744 10.56627
vt -6.027426 14.09546
vt -6.905559 14.74644
vt -10.86973 -0.969059
vt -10.39173 3.707319
vt -7.683023 -0.969059
vt -8.16103 3.707319
vt 10.02448 12.73228
vt 8.528275 12.73228
vt 9.95674 13.82329
vt 8.596016 13.82329
vt 10.86973 2.703504
vt 7.683023 2.703504
vt 10.39173 7.026562
vt 8.16103 7.026562
vt -11.45905 -3.00552
vt -10.86973 2.736649
vt -7.093701 -3.00552
vt -7.683023 2.736649
vt 13.0154 4.334297
vt 9.828693 4.334297
vt 10.8744 8.519166
vt 8.643707 8.519166
vt -10.39173 -0.4418964
vt -9.95674 5.30583
vt -8.16103 -0.4418964
vt -8.596016 5.30583
vt -9.828693 6.453439
vt -13.0154 6.453439
vt -8.643707 10.63831
vt -10.8744 10.63831
vt -9.862992 0.7407663
vt -14.22835 0.7407663
vt -9.828693 6.384219
vt -13.0154 6.384219
vt 14.22835 -1.196622
vt 9.862992 -1.196622
vt 13.0154 4.446831
vt 9.828693 4.446831
vt 10.39173 2.66775
vt 8.16103 2.66775
vt 10.02448 7.045563
vt 8.528275 7.045563
vt 11.45905 -0.06027272
vt 7.093701 -0.06027272
vt 10.86973 5.552431
vt 7.683023 5.552431
vt -9.862992 -7.093701
vt -9.862992 -11.45905
vt -14.22835 -7.093701
vt -14.22835 -11.45905
vt 14.22835 7.093701
vt 9.862992 7.093701
vt 14.22835 11.45905
vt 9.862992 11.45905
vt 16.95669 -2.728346
vt 11.5 -2.728346
vt 16.95669 2.728346
vt 11.5 2.728346
vt 14.22835 -11.45905
vt 9.862992 -11.45905
vt 14.22835 -7.093701
vt 9.862992 -7.093701

usemtl bone

f 3/3/1 2/2/1 1/1/1
f 2/2/1 3/3/1 4/4/1
f 7/7/2 6/6/2 5/5/2
f 6/6/2 7/7/2 1/8/2
f 10/11/3 9/10/3 8/9/3
f 9/10/3 10/11/3 11/12/3
f 12/15/4 4/14/4 3/13/4
f 4/14/4 12/15/4 13/16/4
f 4/19/5 14/18/5 2/17/5
f 14/18/5 4/19/5 13/20/5
f 9/23/6 5/22/6 15/21/6
f 5/22/6 9/23/6 11/24/6
f 6/27/7 8/26/7 16/25/7
f 8/26/7 6/27/7 10/28/7
f 2/31/8 11/30/8 10/29/8
f 11/30/8 2/31/8 14/32/8
f 5/35/9 16/34/9 15/33/9
f 16/34/9 5/35/9 6/36/9
f 14/39/10 12/38/10 7/37/10
f 12/38/10 14/39/10 13/40/10
f 9/43/11 16/42/11 8/41/11
f 16/42/11 9/43/11 15/44/11
f 1/47/12 10/46/12 6/45/12
f 10/46/12 1/47/12 2/48/12
f 11/51/13 7/50/13 5/49/13
f 7/50/13 11/51/13 14/52/13
f 12/55/14 1/54/14 7/53/14
f 1/54/14 12/55/14 3/56/14
f 19/59/13 18/58/13 17/57/13
f 18/58/13 19/59/13 20/60/13
f 23/63/4 22/62/4 21/61/4
f 22/62/4 23/63/4 24/64/4
f 26/67/6 17/66/6 25/65/6
f 17/66/6 26/67/6 19/68/6
f 18/71/2 27/70/2 17/69/2
f 27/70/2 18/71/2 28/72/2
f 22/75/5 20/74/5 29/73/5
f 20/74/5 22/75/5 24/76/5
f 23/79/14 28/78/14 18/77/14
f 28/78/14 23/79/14 21/80/14
f 27/83/7 31/82/7 30/81/7
f 31/82/7 27/83/7 32/84/7
f 21/87/1 29/86/1 28/85/1
f 29/86/1 21/87/1 22/88/1
f 29/91/8 19/90/8 32/89/8
f 19/90/8 29/91/8 20/92/8
f 32/95/3 26/94/3 31/93/3
f 26/94/3 32/95/3 19/96/3
f 20/99/10 23/98/10 18/97/10
f 23/98/10 20/99/10 24/100/10
f 28/103/12 32/102/12 27/101/12
f 32/102/12 28/103/12 29/104/12
f 26/107/11 30/106/11 31/105/11
f 30/106/11 26/107/11 25/108/11
f 17/111/9 30/110/9 25/109/9
f 30/110/9 17/111/9 27/112/9
f 35/115/14 34/114/14 33/113/14
f 34/114/14 35/115/14 36/116/14
f 39/119/5 38/118/5 37/117/5
f 38/118/5 39/119/5 40/120/5
f 42/123/13 33/122/13 41/121/13
f 33/122/13 42/123/13 38/124/13
f 35/127/4 39/126/4 36/125/4
f 39/126/4 35/127/4 40/128/4
f 34/131/12 44/130/12 43/129/12
f 44/130/12 34/131/12 37/132/12
f 46/135/6 41/134/6 45/133/6
f 41/134/6 46/135/6 42/136/6
f 33/139/2 43/138/2 41/137/2
f 43/138/2 33/139/2 34/140/2
f 38/143/10 35/142/10 33/141/10
f 35/142/10 38/143/10 40/144/10
f 37/147/8 42/146/8 44/145/8
f 42/146/8 37/147/8 38/148/8
f 44/151/3 46/150/3 47/149/3
f 46/150/3 44/151/3 42/152/3
f 41/155/9 48/154/9 45/153/9
f 48/154/9 41/155/9 43/156/9
f 36/159/1 37/158/1 34/157/1
f 37/158/1 36/159/1 39/160/1
f 43/163/7 47/162/7 48/161/7
f 47/162/7 43/163/7 44/164/7
f 46/167/11 48/166/11 47/165/11
f 48/166/11 46/167/11 45/168/11
f 51/155/3 50/154/3 49/153/3
f 50/154/3 51/155/3 52/156/3
f 49/171/11 54/170/11 53/169/11
f 54/170/11 49/171/11 50/172/11
f 57/147/2 56/146/2 55/145/2
f 56/146/2 57/147/2 58/148/2
f 60/144/15 59/141/15 58/143/15
f 59/141/15 60/144/15 61/142/15
f 52/129/16 57/132/16 55/130/16
f 57/132/16 52/129/16 62/131/16
f 55/151/9 53/150/9 54/149/9
f 53/150/9 55/151/9 56/152/9
f 61/115/5 62/114/5 59/113/5
f 62/114/5 61/115/5 63/116/5
f 56/136/17 49/133/17 53/135/17
f 49/133/17 56/136/17 51/134/17
f 62/157/18 64/160/18 57/158/18
f 64/160/18 62/157/18 63/159/18
f 50/161/19 55/164/19 54/162/19
f 55/164/19 50/161/19 52/163/19
f 64/126/20 61/127/20 60/128/20
f 61/127/20 64/126/20 63/125/20
f 64/119/14 58/118/14 57/117/14
f 58/118/14 64/119/14 60/120/14
f 59/139/8 52/138/8 51/137/8
f 52/138/8 59/139/8 62/140/8
f 58/124/21 51/121/21 56/123/21
f 51/121/21 58/124/21 59/122/21
f 67/31/2 66/30/2 65/29/2
f 66/30/2 67/31/2 68/32/2
f 71/55/5 70/54/5 69/53/5
f 70/54/5 71/55/5 72/56/5
f 70/1/18 73/4/18 67/2/18
f 73/4/18 70/1/18 72/3/18
f 66/24/17 75/21/17 74/23/17
f 75/21/17 66/24/17 76/22/17
f 69/7/8 77/6/8 76/5/8
f 77/6/8 69/7/8 70/8/8
f 65/11/9 74/10/9 78/9/9
f 74/10/9 65/11/9 66/12/9
f 76/35/3 79/34/3 75/33/3
f 79/34/3 76/35/3 77/36/3
f 73/19/14 68/18/14 67/17/14
f 68/18/14 73/19/14 80/20/14
f 73/14/20 71/15/20 80/16/20
f 71/15/20 73/14/20 72/13/20
f 79/25/19 65/28/19 78/26/19
f 65/28/19 79/25/19 77/27/19
f 80/40/15 69/37/15 68/39/15
f 69/37/15 80/40/15 71/38/15
f 75/175/11 78/174/11 74/173/11
f 78/174/11 75/175/11 79/176/11
f 77/45/16 67/48/16 65/46/16
f 67/48/16 77/45/16 70/47/16
f 68/52/21 76/49/21 66/51/21
f 76/49/21 68/52/21 69/50/21
f 83/85/18 82/88/18 81/86/18
f 82/88/18 83/85/18 84/87/18
f 87/111/3 86/110/3 85/109/3
f 86/110/3 87/111/3 88/112/3
f 86/81/19 90/84/19 89/82/19
f 90/84/19 86/81/19 88/83/19
f 85/179/11 89/178/11 91/177/11
f 89/178/11 85/179/11 86/180/11
f 81/91/2 92/90/2 90/89/2
f 92/90/2 81/91/2 93/92/2
f 90/95/9 91/94/9 89/93/9
f 91/94/9 90/95/9 92/96/9
f 95/100/15 94/97/15 93/99/15
f 94/97/15 95/100/15 96/98/15
f 88/101/16 81/104/16 90/102/16
f 81/104/16 88/101/16 83/103/16
f 96/79/5 83/78/5 94/77/5
f 83/78/5 96/79/5 84/80/5
f 92/68/17 85/65/17 91/67/17
f 85/65/17 92/68/17 87/66/17
f 94/71/8 88/70/8 87/69/8
f 88/70/8 94/71/8 83/72/8
f 82/75/14 93/74/14 81/73/14
f 93/74/14 82/75/14 95/76/14
f 82/62/20 96/63/20 95/64/20
f 96/63/20 82/62/20 84/61/20
f 93/60/21 87/57/21 92/59/21
f 87/57/21 93/60/21 94/58/21

