# Created by Kenney (www.kenney.nl)

mtllib desk_computerCorner.mtl

g desk_computerCorner

v -0.2447948 0.258541 -0.2417705
v -0.3375001 0.258541 -0.2417705
v -0.2447948 0.341459 -0.2832295
v -0.3375001 0.341459 -0.2832295
v 0.1125 0.258541 -0.2417705
v -0.212652 0.258541 -0.2417705
v 0.1125 0.341459 -0.2832295
v -0.212652 0.341459 -0.2832295
v 0.2417705 0.258541 -0.1125
v 0.2832295 0.341459 -0.1125
v 0.2417705 0.258541 0.2126521
v 0.2832295 0.341459 0.2126521
v 0.2417705 0.258541 0.2447948
v 0.2832295 0.341459 0.2447948
v 0.2417705 0.258541 0.3375
v 0.2832295 0.341459 0.3375
v 0.2188278 0.258541 -0.1729426
v 0.1729426 0.258541 -0.2188278
v 0.2499222 0.341459 -0.1833074
v 0.1833074 0.341459 -0.2499222
v 0.225 0.1875 0.375
v 0.225 0.1875 0.3
v 0.15 0.1875 0.375
v 0.15 0.1875 -0.15
v 0.3 0.1875 -0.3
v 0.3 0.1875 0.3
v -0.3 0.1875 -0.3
v -0.3 0.1875 -0.225
v -0.375 0.1875 -0.15
v -0.375 0.1875 -0.225
v 0.15 4.972154E-19 0.3
v 0.3 4.972154E-19 0.3
v 0.15 0.01875 0.3
v 0.225 0.0375 0.3
v 0.3 -4.972154E-19 -0.3
v 0.375 0.225 0.375
v 0.225 0.225 0.375
v 0.375 0.375 0.375
v 0.3 0.375 0.375
v 0.15 0.225 0.375
v 0.225 0.0375 0.375
v 0.375 4.972154E-19 0.375
v 0.15 0.01875 0.375
v 0.15 4.972154E-19 0.375
v -0.3 -4.972154E-19 -0.3
v -0.3 0.0375 -0.225
v -0.3 -4.972154E-19 -0.15
v -0.3 0.01875 -0.15
v 0.15 0.225 -0.15
v -0.375 0.225 -0.15
v -0.375 0.225 -0.375
v -0.375 0.0375 -0.225
v -0.375 -4.972154E-19 -0.375
v -0.375 -4.972154E-19 -0.15
v -0.375 0.375 -0.375
v -0.375 0.375 -0.3
v -0.375 0.01875 -0.15
v -0.375 0.225 -0.225
v 0.375 4.972154E-19 -0.375
v 0.375 0.225 -0.375
v 0.15 0.225 -0.225
v 0.225 0.225 -0.15
v 0.3 0.375 -0.15
v 0.15 0.375 -0.3
v 0.375 0.375 -0.375

vn 0 0.4472136 0.8944272
vn -0.8944272 0.4472136 0
vn -0.6666667 0.3333333 0.6666667
vn 0 -1 0
vn 0 0 -1
vn -1 0 0
vn 0 0 1
vn 1 0 0
vn 0 1 0
vn -0.2425356 0.9701425 0
vn 0 0.9701425 0.2425356

vt -9.637594 13.36099
vt -13.2874 13.36099
vt -9.637594 17.0108
vt -13.2874 17.0108
vt 4.429134 13.36099
vt -8.372128 13.36099
vt 4.429134 17.0108
vt -8.372128 17.0108
vt -4.429134 13.36099
vt -4.429134 17.0108
vt 8.372128 13.36099
vt 8.372128 17.0108
vt 9.637594 13.36099
vt 9.637594 17.0108
vt 13.2874 13.36099
vt 13.2874 17.0108
vt 1.277393 13.23213
vt -1.277393 13.23213
vt 1.854478 16.69464
vt -1.854478 16.69464
vt 8.858268 14.76378
vt 8.858268 11.81102
vt 5.905512 14.76378
vt 5.905512 -5.905512
vt 11.81102 -11.81102
vt 11.81102 11.81102
vt -11.81102 -11.81102
vt -11.81102 -8.858268
vt -14.76378 -5.905512
vt -14.76378 -8.858268
vt -5.905512 1.957541E-17
vt -11.81102 1.957541E-17
vt -5.905512 0.738189
vt -8.858268 1.476378
vt -11.81102 7.38189
vt -8.858268 7.38189
vt -11.81102 -1.957541E-17
vt 11.81102 1.957541E-17
vt 11.81102 7.38189
vt 14.76378 8.858268
vt 8.858268 8.858268
vt 14.76378 14.76378
vt 11.81102 14.76378
vt 5.905512 8.858268
vt 5.905512 7.38189
vt 8.858268 7.38189
vt 8.858268 1.476378
vt 14.76378 1.957541E-17
vt 5.905512 0.738189
vt 5.905512 1.957541E-17
vt 11.81102 -1.957541E-17
vt 5.905512 -1.957541E-17
vt -5.905512 7.38189
vt -5.905512 8.858268
vt 14.76378 7.38189
vt -14.76378 7.38189
vt -14.76378 8.858268
vt -14.76378 -1.957541E-17
vt -5.905512 -1.957541E-17
vt -14.76378 14.76378
vt -11.81102 14.76378
vt -8.858268 8.858268
vt -11.81102 -5.905512
vt -14.76378 -14.76378
vt 14.76378 -14.76378
vt 5.905512 11.81102
vt -14.76378 1.957541E-17
vt 14.76378 -1.957541E-17
vt -2.087914 11.83151
vt 2.087914 11.83151
vt 4.175828 18.09525
vt -4.175828 18.09525
vt -5.905512 11.88461
vt 14.76378 11.88461
vt -5.905512 18.48718
vt 14.76378 18.48718
vt 11.81102 0.738189
vt 14.76378 0.738189
vt -8.858268 -5.905512
vt -8.858268 14.76378
vt -5.905512 -8.858268
vt -5.905512 14.76378
vt -5.905512 -5.905512
vt 14.76378 -8.858268
vt 14.76378 -5.905512
vt 11.81102 1.476378
vt 14.76378 1.476378
vt 11.81102 8.951857
vt 14.76378 8.951857
vt 11.81102 5.908225
vt 14.76378 5.908225
vt -11.81102 0.738189
vt -14.76378 0.738189
vt -11.81102 8.951857
vt -11.81102 5.908225
vt -14.76378 8.951857
vt -14.76378 5.908225
vt -5.905512 -11.81102
vt 14.76378 -11.81102
vt -14.76378 11.88461
vt 5.905512 11.88461
vt 5.905512 18.48718
vt -14.76378 18.48718
vt -11.81102 1.476378
vt -14.76378 1.476378

usemtl dark

f 3/3/1 2/2/1 1/1/1
f 2/2/1 3/3/1 4/4/1
f 7/7/1 6/6/1 5/5/1
f 6/6/1 7/7/1 8/8/1
f 11/11/2 10/10/2 9/9/2
f 10/10/2 11/11/2 12/12/2
f 15/15/2 14/14/2 13/13/2
f 14/14/2 15/15/2 16/16/2
f 19/19/3 18/18/3 17/17/3
f 18/18/3 19/19/3 20/20/3

usemtl metalDark

f 23/23/4 22/22/4 21/21/4
f 24/24/4 22/22/4 23/23/4
f 25/25/4 22/22/4 24/24/4
f 22/22/4 25/25/4 26/26/4
f 25/25/4 24/24/4 27/27/4
f 27/27/4 24/24/4 28/28/4
f 29/29/4 28/28/4 24/24/4
f 28/28/4 29/29/4 30/30/4
f 33/33/5 32/32/5 31/31/5
f 32/32/5 33/33/5 34/34/5
f 32/32/5 34/34/5 26/35/5
f 26/35/5 34/34/5 22/36/5
f 32/38/6 25/35/6 35/37/6
f 25/35/6 32/38/6 26/39/6
f 38/42/7 37/41/7 36/40/7
f 37/41/7 38/42/7 39/43/7
f 40/44/7 36/40/7 37/41/7
f 23/45/7 36/40/7 40/44/7
f 21/46/7 36/40/7 23/45/7
f 41/47/7 36/40/7 21/46/7
f 41/47/7 42/48/7 36/40/7
f 43/49/7 42/48/7 41/47/7
f 42/48/7 43/49/7 44/50/7
f 28/46/8 45/51/8 27/39/8
f 45/51/8 28/46/8 46/47/8
f 45/51/8 46/47/8 47/52/8
f 47/52/8 46/47/8 48/49/8
f 23/55/6 49/54/6 24/53/6
f 49/54/6 23/55/6 40/40/6
f 49/44/7 29/56/7 24/45/7
f 29/56/7 49/44/7 50/57/7
f 53/58/6 52/34/6 51/57/6
f 52/34/6 53/58/6 54/59/6
f 51/57/6 52/34/6 55/60/6
f 55/60/6 52/34/6 56/61/6
f 52/34/6 54/59/6 57/33/6
f 52/34/6 58/62/6 56/61/6
f 58/62/6 52/34/6 30/36/6
f 58/62/6 30/36/6 29/53/6
f 58/62/6 29/53/6 50/54/6
f 25/39/7 45/37/7 35/51/7
f 45/37/7 25/39/7 27/35/7
f 54/29/4 45/27/4 47/63/4
f 53/64/4 45/27/4 54/29/4
f 53/64/4 35/25/4 45/27/4
f 59/65/4 35/25/4 53/64/4
f 35/25/4 59/65/4 32/26/4
f 42/42/4 32/26/4 59/65/4
f 32/26/4 42/42/4 44/23/4
f 32/26/4 44/23/4 31/66/4
f 36/57/8 59/48/8 60/40/8
f 59/48/8 36/57/8 42/67/8
f 51/40/5 59/67/5 53/68/5
f 59/67/5 51/40/5 60/57/5

usemtl metal

f 62/70/3 17/17/3 61/69/3
f 17/17/3 62/70/3 63/71/3
f 17/17/3 63/71/3 19/19/3
f 19/19/3 63/71/3 20/20/3
f 18/18/3 61/69/3 17/17/3
f 61/69/3 18/18/3 64/72/3
f 64/72/3 18/18/3 20/20/3
f 64/72/3 20/20/3 63/71/3
f 37/74/2 9/9/2 62/73/2
f 9/9/2 37/74/2 11/11/2
f 11/11/2 37/74/2 13/13/2
f 11/11/2 13/13/2 12/12/2
f 13/13/2 37/74/2 15/15/2
f 15/15/2 37/74/2 16/16/2
f 10/10/2 62/73/2 9/9/2
f 10/10/2 63/75/2 62/73/2
f 63/75/2 10/10/2 39/76/2
f 39/76/2 10/10/2 12/12/2
f 39/76/2 16/16/2 37/74/2
f 39/76/2 12/12/2 14/14/2
f 14/14/2 12/12/2 13/13/2
f 39/76/2 14/14/2 16/16/2
f 44/48/6 33/77/6 31/38/6
f 33/77/6 44/48/6 43/78/6
f 61/81/9 37/80/9 62/79/9
f 37/80/9 61/81/9 40/82/9
f 40/82/9 61/81/9 49/83/9
f 49/83/9 61/81/9 58/84/9
f 49/83/9 58/84/9 50/85/9
f 41/87/6 22/39/6 34/86/6
f 22/39/6 41/87/6 21/55/6
f 38/60/8 60/40/8 65/42/8
f 60/40/8 38/60/8 36/57/8
f 33/90/10 41/89/10 34/88/10
f 41/89/10 33/90/10 43/91/10
f 48/92/7 54/58/7 47/37/7
f 54/58/7 48/92/7 57/93/7
f 52/96/11 48/95/11 46/94/11
f 48/95/11 52/96/11 57/97/11
f 65/64/9 63/63/9 38/60/9
f 63/63/9 65/64/9 64/98/9
f 64/98/9 65/64/9 55/65/9
f 64/98/9 55/65/9 56/99/9
f 39/61/9 38/60/9 63/63/9
f 61/101/1 5/5/1 58/100/1
f 5/5/1 61/101/1 64/102/1
f 5/5/1 64/102/1 7/7/1
f 7/7/1 64/102/1 8/8/1
f 8/8/1 64/102/1 3/3/1
f 3/3/1 64/102/1 4/4/1
f 2/2/1 58/100/1 5/5/1
f 58/100/1 2/2/1 56/103/1
f 56/103/1 2/2/1 4/4/1
f 56/103/1 4/4/1 64/102/1
f 2/2/1 5/5/1 6/6/1
f 2/2/1 6/6/1 1/1/1
f 8/8/1 1/1/1 6/6/1
f 1/1/1 8/8/1 3/3/1
f 28/35/7 52/105/7 46/104/7
f 52/105/7 28/35/7 30/56/7
f 55/42/5 60/57/5 51/40/5
f 60/57/5 55/42/5 65/60/5

