# Created by Kenney (www.kenney.nl)

mtllib desk_chairStool.mtl

g desk_chairStool

v -0.04999995 0.01875 -0.07500005
v -0.04999995 0 -0.07500005
v 0 0.0375 -0.02499998
v 0 0 -0.02499998
v 0 0.10875 -0.02499998
v 0.02499998 0.10875 0
v 0.02499998 0.0375 0
v 0.02499998 1.127987E-17 0
v 0.07500005 0.01875 0.04999995
v 0.07500005 1.127987E-17 0.04999995
v 0.04999995 0 -0.07500005
v 0.04999995 0.01875 -0.07500005
v -0.0250001 0.0375 0
v -0.0250001 0.10875 0
v -0.07500005 0.01875 0.04999995
v -0.0250001 0 0
v -0.07500005 0 0.04999995
v 0 0 0.02499998
v -0.04999995 0 0.07500005
v 0 0.0375 0.02499998
v -0.04999995 0.01875 0.07500005
v 0 0.10875 0.02499998
v 0.07500005 0.01875 -0.04999995
v 0.07500005 1.127987E-17 -0.04999995
v 0.04999995 0 0.07500005
v 0.04999995 0.01875 0.07500005
v -0.07500005 0.01875 -0.04999995
v -0.07500005 0 -0.04999995
v -0.07500005 0.10875 -0.07500005
v 0.07500005 0.10875 -0.07500005
v -0.07500005 0.14375 -0.07500005
v 0.07500005 0.14375 -0.07500005
v 0.07500005 0.10875 0.07500005
v -0.07500005 0.10875 0.07500005
v 0.07500005 0.14375 0.07500005
v -0.07500005 0.14375 0.07500005
v -0.05378675 0.16875 -0.05378675
v -0.05378675 0.16875 0.05378675
v 0.05378675 0.16875 0.05378675
v 0.05378675 0.16875 -0.05378675

vn 0.7071068 0 -0.7071068
vn -0.7071068 0 -0.7071068
vn 0.7071068 0 0.7071068
vn -0.7071068 0 0.7071068
vn 0 -1 0
vn 0.1812366 0.9665953 -0.1812366
vn 0.1812366 0.9665953 0.1812366
vn -0.1812366 0.9665953 0.1812366
vn -0.1812366 0.9665953 -0.1812366
vn 0 0 -1
vn 1 0 0
vn 0 0 1
vn -1 0 0
vn -0.7624929 0.6469967 0
vn 0 1 0
vn 0.7624929 0.6469967 0
vn 0 0.6469967 0.7624929
vn 0 0.6469967 -0.7624929

vt 3.479856 0.738189
vt 3.479856 -4.139985E-17
vt 0.6959713 1.476378
vt 0.6959713 -4.139985E-17
vt 0.6959713 4.281496
vt -0.6959713 4.281496
vt -0.6959713 1.476378
vt -0.6959713 4.854891E-16
vt -3.479856 0.738189
vt -3.479856 4.854891E-16
vt -3.479856 -4.139985E-17
vt -0.6959713 -4.139985E-17
vt 0.6959713 4.139985E-17
vt 3.479856 4.139985E-17
vt -0.6959713 0
vt -3.479856 0
vt 3.479856 4.854891E-16
vt 0.6959713 4.854891E-16
vt -0.6959713 4.139985E-17
vt -3.479856 4.139985E-17
vt 2.952756 1.968504
vt 0.984252 6.995842E-41
vt 1.968504 2.952756
vt 0 0.984252
vt 0 -0.984252
vt 1.968504 -2.952756
vt 2.952756 -1.968504
vt -1.968504 2.952756
vt -0.984252 1.042006E-41
vt -2.952756 1.968504
vt -1.968504 -2.952756
vt -2.952756 -1.968504
vt -0.6959713 0.738189
vt 0.6959713 0
vt 0.6959713 0.738189
vt -0.6959712 0
vt -0.6959712 0.738189
vt -0.6959713 -2.988166E-23
vt 0.6959713 4.440892E-16
vt -0.6959713 -3.17441
vt -0.6959713 -0.2943161
vt 0.6959713 -3.17441
vt 0.6959713 -0.2943161
vt -0.6959713 4.440892E-16
vt 0.6959712 -3.17441
vt -0.6959713 -0.2943161
vt 2.952756 4.281496
vt -2.952756 4.281496
vt 2.952756 5.659449
vt -2.952756 5.659449
vt 2.952756 -2.952756
vt 0.984252 0
vt 2.952756 2.952756
vt -2.952756 2.952756
vt -0.984252 0
vt -2.952756 -2.952756
vt -2.952756 2.404866
vt -2.11759 3.6957
vt 2.952756 2.404866
vt 2.11759 3.6957
vt -2.11759 2.11759
vt 2.11759 2.11759
vt -2.11759 -2.11759
vt 2.11759 -2.11759

usemtl metal

f 3/3/1 2/2/1 1/1/1
f 2/2/1 3/3/1 4/4/1
f 6/6/1 3/3/1 5/5/1
f 3/3/1 6/6/1 7/7/1
f 9/9/1 8/8/1 7/7/1
f 8/8/1 9/9/1 10/10/1
f 4/12/2 12/9/2 11/11/2
f 12/9/2 4/12/2 3/7/2
f 13/3/2 5/6/2 3/7/2
f 5/6/2 13/3/2 14/5/2
f 16/13/2 15/1/2 13/3/2
f 15/1/2 16/13/2 17/14/2
f 20/7/3 19/16/3 18/15/3
f 19/16/3 20/7/3 21/9/3
f 7/3/3 22/6/3 20/7/3
f 22/6/3 7/3/3 6/5/3
f 7/3/3 24/17/3 23/1/3
f 24/17/3 7/3/3 8/18/3
f 25/2/4 20/3/4 18/4/4
f 20/3/4 25/2/4 26/1/4
f 20/3/4 14/6/4 13/7/4
f 14/6/4 20/3/4 22/5/4
f 27/9/4 16/19/4 13/7/4
f 16/19/4 27/9/4 28/20/4
f 25/23/5 8/22/5 10/21/5
f 8/22/5 25/23/5 18/24/5
f 4/25/5 8/22/5 18/24/5
f 11/26/5 8/22/5 4/25/5
f 8/22/5 11/26/5 24/27/5
f 4/25/5 18/24/5 19/28/5
f 4/25/5 19/28/5 16/29/5
f 16/29/5 19/28/5 17/30/5
f 16/29/5 2/31/5 4/25/5
f 2/31/5 16/29/5 28/32/5
f 28/34/2 1/33/2 2/15/2
f 1/33/2 28/34/2 27/35/2
f 19/34/4 15/37/4 17/36/4
f 15/37/4 19/34/4 21/35/4
f 10/39/3 26/33/3 25/38/3
f 26/33/3 10/39/3 9/35/3
f 12/42/6 7/41/6 23/40/6
f 7/41/6 12/42/6 3/43/6
f 23/33/1 11/34/1 12/35/1
f 11/34/1 23/33/1 24/44/1
f 7/43/7 26/40/7 9/45/7
f 26/40/7 7/43/7 20/46/7
f 13/46/8 21/42/8 20/43/8
f 21/42/8 13/46/8 15/40/8
f 1/40/9 13/43/9 3/41/9
f 13/43/9 1/40/9 27/42/9
f 31/49/10 30/48/10 29/47/10
f 30/48/10 31/49/10 32/50/10
f 33/53/5 6/52/5 30/51/5
f 6/52/5 33/53/5 22/24/5
f 22/24/5 33/53/5 34/54/5
f 22/24/5 34/54/5 14/55/5
f 14/55/5 34/54/5 29/56/5
f 30/51/5 5/25/5 29/56/5
f 5/25/5 30/51/5 6/52/5
f 29/56/5 5/25/5 14/55/5
f 35/50/11 30/47/11 32/49/11
f 30/47/11 35/50/11 33/48/11
f 35/49/12 34/48/12 33/47/12
f 34/48/12 35/49/12 36/50/12
f 34/47/13 31/50/13 29/48/13
f 31/50/13 34/47/13 36/49/13

usemtl metalRed

f 36/59/14 37/58/14 31/57/14
f 37/58/14 36/59/14 38/60/14
f 40/63/15 38/62/15 39/61/15
f 38/62/15 40/63/15 37/64/15
f 40/60/16 35/57/16 32/59/16
f 35/57/16 40/60/16 39/58/16
f 39/60/17 36/57/17 35/59/17
f 36/57/17 39/60/17 38/58/17
f 37/60/18 32/57/18 31/59/18
f 32/57/18 37/60/18 40/58/18

