# Created by Kenney (www.kenney.nl)

mtllib desk_computerScreen.mtl

g desk_computerScreen

v 0.2625 -8.816309E-31 0.1125
v 0.1875 -8.816309E-31 0.1125
v 0.2625 0.01875 0.1125
v 0.1875 0.01875 0.1125
v 0.2625 0.6375 -0.1125
v 0.2625 0.6375 -0.07500005
v -0.2625 0.6375 -0.1125
v -0.2625 0.6375 -0.07500005
v 0.225 0.375 -0.1125
v 0.225 0.375 -0.07500005
v -0.2249999 0.375 -0.1125
v -0.2249999 0.375 -0.07500005
v -0.2625 0.375 -0.03750002
v 0.2625 0.375 -0.03750002
v 0.2625 0.375 -0.07500005
v -0.2625 0.375 -0.07500005
v -0.2249999 0.6 -0.1125
v -0.2249999 0.6 -0.07500005
v 0.225 0.6 -0.07500005
v 0.225 0.6 -0.1125
v -0.2625 0.225 0.03750002
v 0.225 0.258541 0.02072954
v 0.2625 0.225 0.03750002
v 0.1322949 0.258541 0.02072954
v 0.225 0.341459 -0.02072954
v 0.1322949 0.341459 -0.02072954
v 0.100152 0.341459 -0.02072954
v -0.2249999 0.341459 -0.02072954
v -0.2249999 0.258541 0.02072954
v 0.100152 0.258541 0.02072954
v -0.1875 0.0375 0.03750002
v -0.1875 0.01875 0.1125
v -0.2625 0.0375 0.03750002
v -0.2625 0.01875 0.1125
v 0.2625 0.0375 0.03750002
v 0.1875 0.0375 0.03750002
v 0.2625 0.225 0.1125
v -0.2625 0.225 0.1125
v -0.1875 0.1875 0.03750002
v -0.2625 0.1875 0.03750002
v 0.2625 0.1875 0.03750002
v 0.1875 0.1875 0.03750002
v -0.1875 -8.816309E-31 0.1125
v -0.2625 -8.816309E-31 0.1125
v -0.2625 0.225 -0.1125
v 0.2625 0.225 -0.1125
v 0.2625 0.1875 0.1125
v -0.2625 0.1875 0.1125
v 0.1875 0.1875 -0.03750002
v -0.1875 0.1875 -0.03750002
v 0.2625 0 -0.1125
v -0.2625 0 -0.1125
v 0.1875 -8.816309E-31 -0.03750002
v -0.1875 -8.816309E-31 -0.03750002

vn 0 0 1
vn 0 1 0
vn 1 0 0
vn 0 -1 0
vn 0 0.4472136 0.8944272
vn -1 0 0
vn 0 0.9701425 0.2425356
vn 0 0 -1

vt 10.33465 -3.470988E-29
vt 7.38189 -3.470988E-29
vt 10.33465 0.738189
vt 7.38189 0.738189
vt -10.33465 -4.429134
vt -10.33465 -2.952756
vt 10.33465 -4.429134
vt 10.33465 -2.952756
vt -8.858268 -4.429134
vt -8.858268 -2.952756
vt 8.858268 -4.429134
vt 8.858268 -2.952756
vt 10.33465 -1.476378
vt -10.33465 -1.476378
vt 4.429134 23.62205
vt 4.429134 14.76378
vt 2.952756 23.62205
vt 2.952756 14.76378
vt 10.33465 14.76378
vt 8.858268 14.76378
vt 10.33465 25.09842
vt 8.858268 23.62205
vt -8.858268 23.62205
vt -10.33465 25.09842
vt -10.33465 14.76378
vt -8.858268 14.76378
vt -10.33465 7.262819
vt 8.858268 8.739197
vt 10.33465 7.262819
vt 10.33465 13.86538
vt 5.208461 8.739197
vt 8.858268 12.389
vt 5.208461 12.389
vt 3.942994 12.389
vt -8.858268 12.389
vt -8.858268 8.739197
vt -10.33465 13.86538
vt 3.942994 8.739197
vt -4.429134 14.76378
vt -4.429134 23.62205
vt -2.952756 14.76378
vt -2.952756 23.62205
vt -7.38189 -1.074223
vt -7.38189 -4.117854
vt -10.33465 -1.074223
vt -10.33465 -4.117854
vt 10.33465 -1.074223
vt 10.33465 -4.117854
vt 7.38189 -1.074223
vt 7.38189 -4.117854
vt -10.33465 1.476378
vt -10.33465 4.429134
vt 10.33465 1.476378
vt 10.33465 4.429134
vt -7.38189 1.476378
vt -7.38189 7.38189
vt -10.33465 7.38189
vt 7.38189 1.476378
vt 10.33465 7.38189
vt 7.38189 7.38189
vt -7.38189 -3.470988E-29
vt -10.33465 -3.470988E-29
vt -7.38189 0.738189
vt -10.33465 0.738189
vt 10.33465 8.858268
vt -10.33465 8.858268
vt 7.38189 -1.476378
vt -7.38189 -1.476378
vt -1.476378 8.858268
vt -1.476378 7.38189
vt -4.429134 8.858268
vt -4.429134 7.38189
vt -1.476378 1.476378
vt 1.476378 14.76378
vt 4.429134 0
vt 2.952756 25.09842
vt 4.429134 8.858268
vt 4.429134 25.09842
vt -4.429134 -3.470988E-29
vt -4.429134 0.738189
vt 10.33465 0
vt -10.33465 0
vt -7.38189 4.429134
vt 7.38189 4.429134
vt 1.476378 1.476378
vt -1.476378 -3.470988E-29
vt 4.429134 -3.470988E-29
vt 4.429134 0.738189
vt 1.476378 7.38189
vt 1.476378 -3.470988E-29
vt -4.429134 0
vt -4.429134 25.09842
vt -1.476378 14.76378
vt 1.476378 8.858268
vt 4.429134 7.38189
vt -2.952756 25.09842

usemtl metal

f 3/3/1 2/2/1 1/1/1
f 2/2/1 3/3/1 4/4/1
f 7/7/2 6/6/2 5/5/2
f 6/6/2 7/7/2 8/8/2
f 11/11/2 10/10/2 9/9/2
f 12/12/2 10/10/2 11/11/2
f 13/13/2 10/10/2 12/12/2
f 14/14/2 10/10/2 13/13/2
f 10/10/2 14/14/2 15/6/2
f 13/13/2 12/12/2 16/8/2
f 18/17/3 11/16/3 17/15/3
f 11/16/3 18/17/3 12/18/3
f 6/21/1 10/20/1 15/19/1
f 10/20/1 6/21/1 19/22/1
f 19/22/1 6/21/1 18/23/1
f 8/24/1 18/23/1 6/21/1
f 16/25/1 18/23/1 8/24/1
f 18/23/1 16/25/1 12/26/1
f 18/10/4 20/11/4 19/12/4
f 20/11/4 18/10/4 17/9/4
f 23/29/5 22/28/5 21/27/5
f 22/28/5 23/29/5 14/30/5
f 21/27/5 22/28/5 24/31/5
f 22/28/5 14/30/5 25/32/5
f 25/32/5 14/30/5 26/33/5
f 26/33/5 14/30/5 27/34/5
f 27/34/5 14/30/5 28/35/5
f 29/36/5 21/27/5 24/31/5
f 21/27/5 29/36/5 13/37/5
f 13/37/5 29/36/5 28/35/5
f 13/37/5 28/35/5 14/30/5
f 29/36/5 24/31/5 30/38/5
f 26/33/5 30/38/5 24/31/5
f 30/38/5 26/33/5 27/34/5
f 10/41/6 20/40/6 9/39/6
f 20/40/6 10/41/6 19/42/6
f 33/45/7 32/44/7 31/43/7
f 32/44/7 33/45/7 34/46/7
f 36/49/7 3/48/7 35/47/7
f 3/48/7 36/49/7 4/50/7
f 21/53/2 37/52/2 23/51/2
f 37/52/2 21/53/2 38/54/2
f 39/56/1 33/51/1 31/55/1
f 33/51/1 39/56/1 40/57/1
f 41/59/1 36/58/1 35/53/1
f 36/58/1 41/59/1 42/60/1
f 32/63/1 44/62/1 43/61/1
f 44/62/1 32/63/1 34/64/1
f 7/21/8 11/20/8 45/65/8
f 11/20/8 7/21/8 17/22/8
f 17/22/8 7/21/8 20/23/8
f 9/26/8 45/65/8 11/20/8
f 9/26/8 46/66/8 45/65/8
f 46/66/8 9/26/8 5/24/8
f 5/24/8 9/26/8 20/23/8
f 5/24/8 20/23/8 7/21/8

usemtl dark

f 22/28/5 26/33/5 24/31/5
f 26/33/5 22/28/5 25/32/5
f 27/34/5 29/36/5 30/38/5
f 29/36/5 27/34/5 28/35/5

usemtl metalDark

f 48/52/4 41/53/4 47/54/4
f 41/53/4 48/52/4 42/58/4
f 42/58/4 48/52/4 49/67/4
f 49/67/4 48/52/4 39/55/4
f 39/55/4 48/52/4 40/51/4
f 50/68/4 49/67/4 39/55/4
f 37/71/3 41/70/3 23/69/3
f 41/70/3 37/71/3 47/72/3
f 35/73/3 23/69/3 41/70/3
f 35/73/3 14/74/3 23/69/3
f 35/73/3 15/18/3 14/74/3
f 51/75/3 15/18/3 35/73/3
f 51/75/3 6/76/3 15/18/3
f 46/77/3 6/76/3 51/75/3
f 6/76/3 46/77/3 5/78/3
f 51/75/3 35/73/3 1/79/3
f 1/79/3 35/73/3 3/80/3
f 45/65/8 51/82/8 52/81/8
f 51/82/8 45/65/8 46/66/8
f 49/60/1 54/61/1 53/2/1
f 54/61/1 49/60/1 50/56/1
f 44/52/4 54/68/4 43/83/4
f 52/5/4 54/68/4 44/52/4
f 52/5/4 53/67/4 54/68/4
f 51/7/4 53/67/4 52/5/4
f 51/7/4 2/84/4 53/67/4
f 2/84/4 51/7/4 1/54/4
f 53/86/6 36/85/6 49/70/6
f 36/85/6 53/86/6 2/87/6
f 36/85/6 2/87/6 4/88/6
f 42/89/6 49/70/6 36/85/6
f 39/70/3 54/90/3 50/89/3
f 54/90/3 39/70/3 31/73/3
f 54/90/3 31/73/3 43/79/3
f 43/79/3 31/73/3 32/80/3
f 52/91/6 33/85/6 45/71/6
f 33/85/6 52/91/6 44/87/6
f 45/71/6 33/85/6 16/41/6
f 45/71/6 16/41/6 7/92/6
f 16/41/6 33/85/6 13/93/6
f 33/85/6 44/87/6 34/88/6
f 33/85/6 21/94/6 13/93/6
f 21/94/6 33/85/6 40/89/6
f 21/94/6 40/89/6 48/95/6
f 21/94/6 48/95/6 38/77/6
f 8/96/6 7/92/6 16/41/6
f 37/65/1 48/57/1 47/59/1
f 48/57/1 37/65/1 38/66/1

