# Created by Kenney (www.kenney.nl)

mtllib desk_chairArms.mtl

g desk_chairArms

v -0.04999995 0.01875 -0.07500005
v -0.04999995 0 -0.07500005
v 0 0.0375 -0.02499998
v 0 0 -0.02499998
v 0 0.11875 -0.02499998
v 0.02499998 0.11875 0
v 0.02499998 0.0375 0
v 0.02499998 1.127987E-17 0
v 0.07500005 0.01875 0.04999995
v 0.07500005 1.127987E-17 0.04999995
v 0.04999995 0 -0.07500005
v 0.04999995 0.01875 -0.07500005
v -0.0250001 0.0375 0
v -0.0250001 0.11875 0
v -0.07500005 0.01875 0.04999995
v -0.0250001 0 0
v -0.07500005 0 0.04999995
v 0 0 0.02499998
v -0.04999995 0 0.07500005
v 0 0.0375 0.02499998
v -0.04999995 0.01875 0.07500005
v 0 0.11875 0.02499998
v 0.07500005 0.01875 -0.04999995
v 0.07500005 1.127987E-17 -0.04999995
v 0.04999995 0 0.07500005
v 0.04999995 0.01875 0.07500005
v -0.07500005 0.01875 -0.04999995
v -0.07500005 0 -0.04999995
v -0.07500005 0.11875 -0.07500005
v 0.07500005 0.11875 -0.07500005
v -0.07500005 0.14375 -0.07500005
v 0.07500005 0.14375 -0.07500005
v 0.07500005 0.34375 0.04999995
v 0.07500005 0.34375 0.07500005
v -0.07500005 0.34375 0.04999995
v -0.07500005 0.34375 0.07500005
v 0.07500005 0.19375 0.02499998
v 0.07500005 0.16875 0.02499998
v 0.07500005 0.19375 0.07500005
v 0.07500005 0.11875 0.04999995
v 0.07500005 0.14375 0.07500005
v 0.07500005 0.16875 -0.04999995
v -0.07500005 0.16875 0.02499998
v -0.07500005 0.19375 0.02499998
v 0.07500005 0.21875 0.02499998
v -0.07500005 0.21875 0.02499998
v 0.07500005 0.31875 0.02499998
v -0.07500005 0.31875 0.02499998
v -0.07500005 0.16875 -0.04999995
v -0.07500005 0.21875 0.07500005
v 0.125 0.19375 -0.04999995
v 0.07500005 0.19375 -0.04999995
v 0.125 0.19375 0.07500005
v 0.125 0.21875 -0.04999995
v 0.07500005 0.21875 -0.04999995
v 0.07500005 0.21875 0.07500005
v -0.07500005 0.21875 -0.04999995
v -0.07500005 0.19375 -0.04999995
v -0.125 0.19375 -0.04999995
v -0.125 0.21875 -0.04999995
v -0.07500005 0.19375 0.07500005
v -0.125 0.19375 0.07500005
v -0.07500005 0.11875 0.04999995
v -0.07500005 0.14375 0.07500005
v -0.125 0.21875 0.07500005
v 0.125 0.21875 0.07500005

vn 0.7071068 0 -0.7071068
vn -0.7071068 0 -0.7071068
vn 0.7071068 0 0.7071068
vn -0.7071068 0 0.7071068
vn 0 -1 0
vn 0.1812366 0.9665953 -0.1812366
vn 0.1812366 0.9665953 0.1812366
vn -0.1812366 0.9665953 0.1812366
vn -0.1812366 0.9665953 -0.1812366
vn 0 0 -1
vn 0 1 0
vn 1 0 0
vn -1 0 0
vn 0 0.7071068 -0.7071068
vn 0 0 1
vn 0 -0.7071068 0.7071068

vt 3.479856 0.738189
vt 3.479856 -4.139985E-17
vt 0.6959713 1.476378
vt 0.6959713 -4.139985E-17
vt 0.6959713 4.675197
vt -0.6959713 4.675197
vt -0.6959713 1.476378
vt -0.6959713 4.854891E-16
vt -3.479856 0.738189
vt -3.479856 4.854891E-16
vt -3.479856 -4.139985E-17
vt -0.6959713 -4.139985E-17
vt 0.6959713 0
vt 3.479856 0
vt -0.6959713 0
vt -3.479856 0
vt 3.479856 4.854891E-16
vt 0.6959713 4.854891E-16
vt -0.6959713 4.139985E-17
vt -3.479856 4.139985E-17
vt 2.952756 1.968504
vt 0.984252 6.995842E-41
vt 1.968504 2.952756
vt 0 0.984252
vt 0 -0.984252
vt 1.968504 -2.952756
vt 2.952756 -1.968504
vt -1.968504 2.952756
vt -0.984252 1.042006E-41
vt -2.952756 1.968504
vt -1.968504 -2.952756
vt -2.952756 -1.968504
vt -0.6959713 0.738189
vt 0.6959713 0.738189
vt -0.6959712 0
vt -0.6959712 0.738189
vt -0.6959713 -2.988166E-23
vt 0.6959713 4.440892E-16
vt -0.6959713 -3.17441
vt -0.6959713 -0.2943161
vt 0.6959713 -3.17441
vt 0.6959713 -0.2943161
vt -0.6959713 4.440892E-16
vt 0.6959712 -3.17441
vt -0.6959713 -0.2943161
vt 2.952756 4.675197
vt -2.952756 4.675197
vt 2.952756 5.659449
vt -2.952756 5.659449
vt -2.952756 1.968504
vt -2.952756 2.952756
vt 2.952756 1.968504
vt 2.952756 2.952756
vt -0.984252 7.627953
vt -0.984252 6.643701
vt -2.952756 7.627953
vt -1.968504 4.675197
vt 1.968504 6.643701
vt 2.952756 6.643701
vt -2.952756 6.643701
vt 2.952756 7.627953
vt -2.952756 8.612205
vt 2.952756 8.612205
vt -2.952756 12.54921
vt 2.952756 12.54921
vt -2.952756 0.984252
vt 2.952756 0.984252
vt 0.984252 8.612205
vt 0.984252 12.54921
vt 1.968504 13.53346
vt 2.952756 13.53346
vt -2.952756 3.305863
vt 2.952756 3.305863
vt -2.952756 1.913921
vt 2.952756 1.913921
vt -2.952756 10.96155
vt 2.952756 10.96155
vt -2.952756 9.569605
vt 2.952756 9.569605
vt 4.92126 -1.968504
vt 4.92126 2.952756
vt 2.952756 2.952756
vt -4.92126 7.627953
vt -4.92126 8.612205
vt -1.968504 7.627953
vt -1.968504 8.612205
vt 0.984252 7.627953
vt -0.984252 8.612205
vt -0.984252 12.54921
vt -1.968504 13.53346
vt -2.952756 13.53346
vt 1.968504 8.612205
vt 1.968504 7.627953
vt 4.92126 7.627953
vt 4.92126 8.612205
vt -2.952756 2.952756
vt -4.92126 2.952756
vt -4.92126 -1.968504
vt 1.968504 4.675197
vt -1.968504 6.643701
vt 0.984252 6.643701
vt 0.984252 -1.167982E-10
vt -2.471313E-11 0.984252
vt -0.984252 -1.167982E-10
vt 2.952756 -2.952756
vt -2.471313E-11 -0.984252
vt -2.952756 -2.952756
vt 2.952756 6.089748
vt 2.952756 4.697806
vt -2.952756 6.089748
vt -2.952756 4.697806

usemtl metal

f 3/3/1 2/2/1 1/1/1
f 2/2/1 3/3/1 4/4/1
f 6/6/1 3/3/1 5/5/1
f 3/3/1 6/6/1 7/7/1
f 9/9/1 8/8/1 7/7/1
f 8/8/1 9/9/1 10/10/1
f 4/12/2 12/9/2 11/11/2
f 12/9/2 4/12/2 3/7/2
f 13/3/2 5/6/2 3/7/2
f 5/6/2 13/3/2 14/5/2
f 16/13/2 15/1/2 13/3/2
f 15/1/2 16/13/2 17/14/2
f 20/7/3 19/16/3 18/15/3
f 19/16/3 20/7/3 21/9/3
f 7/3/3 22/6/3 20/7/3
f 22/6/3 7/3/3 6/5/3
f 7/3/3 24/17/3 23/1/3
f 24/17/3 7/3/3 8/18/3
f 25/2/4 20/3/4 18/4/4
f 20/3/4 25/2/4 26/1/4
f 20/3/4 14/6/4 13/7/4
f 14/6/4 20/3/4 22/5/4
f 27/9/4 16/19/4 13/7/4
f 16/19/4 27/9/4 28/20/4
f 25/23/5 8/22/5 10/21/5
f 8/22/5 25/23/5 18/24/5
f 4/25/5 8/22/5 18/24/5
f 11/26/5 8/22/5 4/25/5
f 8/22/5 11/26/5 24/27/5
f 4/25/5 18/24/5 19/28/5
f 4/25/5 19/28/5 16/29/5
f 16/29/5 19/28/5 17/30/5
f 16/29/5 2/31/5 4/25/5
f 2/31/5 16/29/5 28/32/5
f 28/13/2 1/33/2 2/15/2
f 1/33/2 28/13/2 27/34/2
f 19/13/4 15/36/4 17/35/4
f 15/36/4 19/13/4 21/34/4
f 10/38/3 26/33/3 25/37/3
f 26/33/3 10/38/3 9/34/3
f 12/41/6 7/40/6 23/39/6
f 7/40/6 12/41/6 3/42/6
f 23/33/1 11/13/1 12/34/1
f 11/13/1 23/33/1 24/43/1
f 7/42/7 26/39/7 9/44/7
f 26/39/7 7/42/7 20/45/7
f 13/45/8 21/41/8 20/42/8
f 21/41/8 13/45/8 15/39/8
f 1/39/9 13/42/9 3/40/9
f 13/42/9 1/39/9 27/41/9

usemtl metalRed

f 31/48/10 30/47/10 29/46/10
f 30/47/10 31/48/10 32/49/10
f 35/52/11 34/51/11 33/50/11
f 34/51/11 35/52/11 36/53/11
f 39/56/12 38/55/12 37/54/12
f 38/55/12 39/56/12 40/57/12
f 40/57/12 39/56/12 41/49/12
f 40/57/12 42/58/12 38/55/12
f 30/46/12 42/58/12 40/57/12
f 42/58/12 30/46/12 32/48/12
f 44/61/10 38/60/10 43/59/10
f 38/60/10 44/61/10 37/56/10
f 37/56/10 44/61/10 45/62/10
f 45/62/10 44/61/10 46/63/10
f 45/62/10 46/63/10 47/64/10
f 47/64/10 46/63/10 48/65/10
f 49/27/11 38/66/11 42/32/11
f 38/66/11 49/27/11 43/67/11
f 50/63/13 48/69/13 46/68/13
f 48/69/13 50/63/13 35/70/13
f 35/70/13 50/63/13 36/71/13
f 32/74/14 49/73/14 42/72/14
f 49/73/14 32/74/14 31/75/14
f 47/78/14 35/77/14 33/76/14
f 35/77/14 47/78/14 48/79/14
f 53/81/5 52/27/5 51/80/5
f 52/27/5 53/81/5 39/82/5
f 52/27/5 39/82/5 37/67/5
f 52/56/10 54/84/10 51/83/10
f 54/84/10 52/56/10 55/62/10
f 37/87/13 55/86/13 52/85/13
f 55/86/13 37/87/13 45/68/13
f 47/89/12 56/62/12 45/88/12
f 56/62/12 47/89/12 33/90/12
f 56/62/12 33/90/12 34/91/12
f 46/88/12 58/93/12 57/92/12
f 58/93/12 46/88/12 44/54/12
f 60/95/10 58/61/10 59/94/10
f 58/61/10 60/95/10 57/63/10
f 62/97/5 44/66/5 61/96/5
f 44/66/5 62/97/5 58/32/5
f 58/32/5 62/97/5 59/98/5
f 63/99/13 31/49/13 29/47/13
f 31/49/13 63/99/13 49/100/13
f 49/100/13 63/99/13 43/101/13
f 61/61/13 43/101/13 63/99/13
f 43/101/13 61/61/13 44/87/13
f 61/61/13 63/99/13 64/48/13
f 57/27/11 50/82/11 46/67/11
f 50/82/11 57/27/11 65/81/11
f 65/81/11 57/27/11 60/80/11
f 62/61/13 60/86/13 59/85/13
f 60/86/13 62/61/13 65/63/13
f 50/62/15 62/83/15 61/56/15
f 62/83/15 50/62/15 65/84/15
f 55/32/11 66/97/11 54/98/11
f 66/97/11 55/32/11 56/96/11
f 56/96/11 55/32/11 45/66/11
f 66/95/15 39/61/15 53/94/15
f 39/61/15 66/95/15 56/63/15
f 66/62/12 51/93/12 54/92/12
f 51/93/12 66/62/12 53/56/12

usemtl metalDark

f 40/21/5 22/103/5 6/102/5
f 22/103/5 40/21/5 63/30/5
f 22/103/5 63/30/5 14/104/5
f 6/102/5 30/105/5 40/21/5
f 5/106/5 30/105/5 6/102/5
f 30/105/5 5/106/5 29/107/5
f 29/107/5 5/106/5 14/104/5
f 29/107/5 14/104/5 63/30/5
f 41/48/15 61/56/15 64/49/15
f 61/56/15 41/48/15 39/61/15
f 61/56/15 39/61/15 56/63/15
f 61/56/15 56/63/15 50/62/15
f 50/62/15 56/63/15 34/71/15
f 50/62/15 34/71/15 36/91/15
f 64/110/16 40/109/16 41/108/16
f 40/109/16 64/110/16 63/111/16

