# Created by Kenney (www.kenney.nl)

mtllib machine_wireless.mtl

g machine_wireless

v -0.325 0.05 -0.2
v 0.02499998 0.05 -0.2
v -0.325 0.15 -0.2
v 0.02499998 0.15 -0.2
v 0.02499998 0.15 0.15
v 0.02499998 0.1 0.15
v 0.02499998 0.15 0.2
v 0.02499998 0.1 0.2
v -0.325 0.05 0.2
v -0.325 0.15 0.2
v 0.325 0.175 0.04999995
v 0.2 0.3 0.04999995
v 0.325 0.175 -0.04999995
v 0.2 0.3 -0.04999995
v 0.02499998 0.05 0.2
v 0.02499998 0.3 0.04999995
v 0.02499998 0.3 -0.04999995
v 0.325 0.05 -0.04999995
v 0.325 0.05 0.04999995
v 0.275 0.05 0.04999995
v 0.275 0.15 0.04999995
v 0.175 0.25 0.04999995
v 0.02499998 0.25 0.04999995
v 0.02499998 0.15 0.04999995
v -0.175 0.15 0.04999995
v 0.02499998 0.15 -0.04999995
v -0.175 0.15 -0.04999995
v -0.175 0.15 0.1
v 0.02499998 0.15 0.1
v -0.175 0.15 -0.1
v 0.02499998 0.15 -0.15
v 0.02499998 0.15 -0.1
v 0.02499998 0.05 -0.15
v 0.02499998 0.25 -0.04999995
v 0.175 0.25 -0.04999995
v 0.275 0.15 -0.04999995
v 0.275 0.05 -0.04999995
v 0.375 8.014827E-32 0.25
v 0.375 8.014827E-32 -0.25
v -0.375 8.014827E-32 0.25
v -0.375 8.014827E-32 -0.25
v 0.375 0.05 -0.25
v 0.375 0.05 0.25
v -0.175 0.175 0.04999995
v -0.175 0.175 0.1
v 0.02499998 0.2 -0.04999995
v -0.175 0.175 -0.04999995
v -0.375 0.05 -0.25
v 0.02499998 0.2 0.1
v 0.02499998 0.2 0.04999995
v -0.175 0.175 -0.1
v 0.02499998 0.2 -0.1
v -0.375 0.05 0.25
v 0.275 0.05 0.15
v 0.175 0.05 0.2
v 0.175 0.05 0.15
v 0.275 0.05 -0.15
v 0.125 0.05 0.2
v 0.07500005 0.05 0.2
v 0.125 0.05 0.15
v 0.07500005 0.05 0.15
v 0.275 0.15 0.15
v 0.275 0.15 -0.15
v 0.175 0.25 -0.15
v 0.02499998 0.25 -0.15
v 0.02499998 0.25 0.15
v 0.175 0.25 0.15
v 0.175 0.1 0.15
v 0.125 0.1 0.15
v 0.07500005 0.1 0.15
v 0.1616328 0.1 0.1633673
v 0.1616328 0.1 0.1866328
v 0.1558163 0.4 0.1691836
v 0.1558163 0.4 0.1808164
v 0.125 0.1 0.2
v 0.07500005 0.1 0.2
v 0.1383672 0.1 0.1633673
v 0.175 0.1 0.2
v 0.1383672 0.1 0.1866328
v 0.1441836 0.4 0.1808164
v 0.1441836 0.4 0.1691836
v 0.06163275 0.1 0.1866328
v 0.06163275 0.1 0.1633673
v 0.03836727 0.1 0.1633673
v 0.03836727 0.1 0.1866328
v 0.05581641 0.6 0.1691836
v 0.05581641 0.6 0.1808164
v 0.04418361 0.6 0.1691836
v 0.04418361 0.6 0.1808164

vn 0 0 -1
vn 1 0 0
vn -1 0 0
vn 0.7071068 0.7071068 0
vn 0 0 1
vn 0 1 0
vn 0 -1 0
vn -0.1240347 0.9922779 0
vn 0.9998122 0.01938428 0
vn 0 0.01938428 0.9998122
vn -0.9998122 0.01938428 0
vn 0 0.01938428 -0.9998122
vn 0.9999324 0.01163196 0
vn -0.9999324 0.01163196 0
vn 0 0.01163196 -0.9999324
vn 0 0.01163196 0.9999324

vt 12.79528 1.968504
vt -0.984252 1.968504
vt 12.79528 5.905512
vt -0.984252 5.905512
vt -5.905512 5.905512
vt -5.905512 3.937008
vt -7.874016 5.905512
vt -7.874016 3.937008
vt -7.874016 1.968504
vt 7.874016 1.968504
vt 7.874016 5.905512
vt -1.968504 -4.175828
vt -1.968504 2.783885
vt 1.968504 -4.175828
vt 1.968504 2.783885
vt 0.984252 1.968504
vt -12.79528 1.968504
vt 0.984252 3.937008
vt -12.79528 5.905512
vt 0.984252 5.905512
vt -7.874016 -1.968504
vt -0.984252 -1.968504
vt 1.968504 6.889764
vt 1.968504 1.968504
vt -1.968504 6.889764
vt -1.968504 1.968504
vt 10.82677 1.968504
vt 12.79528 6.889764
vt 10.82677 5.905512
vt 6.889764 9.84252
vt 7.874016 11.81102
vt 0.984252 9.84252
vt 0.984252 11.81102
vt 6.889764 1.968504
vt 6.889764 -1.968504
vt 12.79528 7.874016
vt 6.889764 3.937008
vt -0.984252 3.937008
vt -0.984252 7.874016
vt 6.889764 -3.937008
vt 12.79528 -7.874016
vt -0.984252 -7.874016
vt -0.984252 -5.905512
vt -0.984252 -3.937008
vt 5.905512 5.905512
vt 5.905512 1.968504
vt -0.984252 9.84252
vt -6.889764 9.84252
vt -0.984252 11.81102
vt -7.874016 11.81102
vt -12.79528 6.889764
vt -10.82677 5.905512
vt -10.82677 1.968504
vt -1.968504 9.84252
vt -1.968504 11.81102
vt 1.968504 9.84252
vt 1.968504 11.81102
vt 14.76378 9.84252
vt 14.76378 -9.84252
vt -14.76378 9.84252
vt -14.76378 -9.84252
vt 9.84252 1.968504
vt 9.84252 3.155444E-30
vt -9.84252 1.968504
vt -9.84252 3.155444E-30
vt 1.968504 5.905512
vt 3.937008 5.905512
vt 3.937008 6.889764
vt -6.889764 5.905512
vt 0.984252 7.874016
vt -6.889764 6.889764
vt 14.76378 3.155444E-30
vt -14.76378 3.155444E-30
vt 14.76378 1.968504
vt -14.76378 1.968504
vt 3.937008 1.953303
vt 3.937008 -5.98199
vt 1.968504 1.953303
vt 1.968504 -5.98199
vt 6.889764 5.905512
vt 6.889764 6.889764
vt -3.937008 5.905512
vt -3.937008 6.889764
vt -1.968504 5.905512
vt -6.889764 7.874016
vt -12.79528 -1.968504
vt -10.82677 -5.905512
vt -10.82677 -1.968504
vt -4.92126 7.874016
vt -2.952756 7.874016
vt -4.92126 5.905512
vt -2.952756 5.905512
vt -1.968504 1.953303
vt -1.968504 -5.98199
vt -3.937008 1.953303
vt -3.937008 -5.98199
vt -5.905512 1.968504
vt 3.937008 7.874016
vt 5.905512 9.84252
vt 1.968504 7.874016
vt -1.968504 7.874016
vt -3.937008 7.874016
vt -5.905512 9.84252
vt 5.905512 -3.479856
vt 1.968504 -3.479856
vt 5.905512 2.087914
vt 1.968504 2.087914
vt -6.889764 1.968504
vt -1.968504 -3.479856
vt -5.905512 -3.479856
vt -1.968504 2.087914
vt -5.905512 2.087914
vt 4.92126 3.937008
vt 2.952756 3.937008
vt 2.952756 1.968504
vt 4.92126 1.968504
vt -6.889764 -1.968504
vt -6.889764 -5.905512
vt -6.431781 3.812917
vt -7.347746 3.812917
vt -6.660773 15.62616
vt -7.118755 15.62616
vt 5.905512 3.937008
vt 7.874016 3.937008
vt -6.363494 7.347746
vt -6.363494 6.431781
vt -5.447529 6.431781
vt -5.447529 7.347746
vt 6.363494 3.793837
vt 5.447529 3.793837
vt 6.134503 15.60708
vt 5.676521 15.60708
vt 6.431781 4.041864
vt 6.660773 15.85511
vt 7.347746 4.041864
vt 7.118755 15.85511
vt -6.134503 7.118755
vt -5.676521 7.118755
vt -6.134503 6.660773
vt -5.676521 6.660773
vt -5.447529 4.060944
vt -6.363494 4.060944
vt -5.676521 15.87419
vt -6.134503 15.87419
vt -2.426486 7.347746
vt -2.426486 6.431781
vt -1.510522 6.431781
vt -1.510522 7.347746
vt -6.431781 3.908517
vt -7.347746 3.908517
vt -6.660773 23.59489
vt -7.118755 23.59489
vt 6.431781 3.954312
vt 6.660773 23.64068
vt 7.347746 3.954312
vt 7.118755 23.64068
vt -2.197495 7.118755
vt -1.739513 7.118755
vt -2.197495 6.660773
vt -1.739513 6.660773
vt -1.510522 4.011556
vt -2.426486 4.011556
vt -1.739513 23.69793
vt -2.197495 23.69793
vt 2.426486 3.851273
vt 1.510522 3.851273
vt 2.197495 23.53764
vt 1.739513 23.53764

usemtl metal

f 3/3/1 2/2/1 1/1/1
f 2/2/1 3/3/1 4/4/1
f 7/7/2 6/6/2 5/5/2
f 6/6/2 7/7/2 8/8/2
f 9/10/3 3/7/3 1/9/3
f 3/7/3 9/10/3 10/11/3
f 13/14/4 12/13/4 11/12/4
f 12/13/4 13/14/4 14/15/4
f 8/18/5 9/17/5 15/16/5
f 9/17/5 8/18/5 10/19/5
f 10/19/5 8/18/5 7/20/5
f 14/21/6 16/2/6 12/9/6
f 16/2/6 14/21/6 17/22/6
f 11/25/2 18/24/2 13/23/2
f 18/24/2 11/25/2 19/26/2
f 11/28/5 20/27/5 19/1/5
f 20/27/5 11/28/5 21/29/5
f 21/29/5 11/28/5 22/30/5
f 22/30/5 11/28/5 12/31/5
f 22/30/5 12/31/5 23/32/5
f 23/32/5 12/31/5 16/33/5
f 26/22/6 25/34/6 24/2/6
f 25/34/6 26/22/6 27/35/6
f 10/36/6 25/34/6 27/35/6
f 10/36/6 28/37/6 25/34/6
f 10/36/6 29/38/6 28/37/6
f 10/36/6 5/4/6 29/38/6
f 5/4/6 10/36/6 7/39/6
f 10/36/6 27/35/6 30/40/6
f 30/40/6 3/41/6 10/36/6
f 30/40/6 4/42/6 3/41/6
f 30/40/6 31/43/6 4/42/6
f 31/43/6 30/40/6 32/44/6
f 31/45/2 2/10/2 4/11/2
f 2/10/2 31/45/2 33/46/2
f 17/49/1 35/48/1 34/47/1
f 14/50/1 35/48/1 17/49/1
f 13/51/1 35/48/1 14/50/1
f 13/51/1 36/52/1 35/48/1
f 18/17/1 36/52/1 13/51/1
f 36/52/1 18/17/1 37/53/1
f 23/56/3 17/55/3 34/54/3
f 17/55/3 23/56/3 16/57/3

usemtl metalDark

f 40/60/7 39/59/7 38/58/7
f 39/59/7 40/60/7 41/61/7
f 43/64/2 39/63/2 42/62/2
f 39/63/2 43/64/2 38/65/2
f 28/67/3 44/23/3 25/66/3
f 44/23/3 28/67/3 45/68/3
f 46/70/5 27/69/5 26/20/5
f 27/69/5 46/70/5 47/71/5
f 48/74/1 39/73/1 41/72/1
f 39/73/1 48/74/1 42/75/1
f 50/78/8 45/77/8 49/76/8
f 45/77/8 50/78/8 44/79/8
f 51/81/1 32/4/1 30/80/1
f 32/4/1 51/81/1 52/39/1
f 40/63/3 48/64/3 41/65/3
f 48/64/3 40/63/3 53/62/3
f 27/84/3 51/83/3 30/82/3
f 51/83/3 27/84/3 47/25/3
f 49/70/5 28/69/5 29/20/5
f 28/69/5 49/70/5 45/71/5
f 43/74/5 40/73/5 38/72/5
f 40/73/5 43/74/5 53/75/5
f 44/81/1 24/4/1 25/80/1
f 24/4/1 44/81/1 50/39/1
f 20/53/6 54/52/6 19/17/6
f 54/52/6 43/60/6 19/17/6
f 55/85/6 43/60/6 54/52/6
f 56/69/6 55/85/6 54/52/6
f 43/60/6 55/85/6 53/58/6
f 19/17/6 43/60/6 42/61/6
f 42/61/6 18/86/6 19/17/6
f 18/86/6 42/61/6 57/87/6
f 57/87/6 42/61/6 2/42/6
f 2/42/6 42/61/6 48/59/6
f 18/86/6 57/87/6 37/88/6
f 57/87/6 2/42/6 33/43/6
f 2/42/6 48/59/6 1/41/6
f 1/41/6 48/59/6 53/58/6
f 53/58/6 55/85/6 58/89/6
f 53/58/6 58/89/6 59/90/6
f 59/90/6 58/89/6 60/91/6
f 61/92/6 59/90/6 60/91/6
f 53/58/6 59/90/6 15/39/6
f 53/58/6 15/39/6 9/36/6
f 53/58/6 9/36/6 1/41/6
f 52/95/8 47/94/8 46/93/8
f 47/94/8 52/95/8 51/96/8

usemtl metalRed

f 62/5/2 20/26/2 21/84/2
f 20/26/2 62/5/2 54/97/2
f 36/66/2 57/46/2 63/45/2
f 57/46/2 36/66/2 37/24/2
f 31/4/1 57/53/1 33/2/1
f 57/53/1 31/4/1 63/52/1
f 63/52/1 31/4/1 64/48/1
f 64/48/1 31/4/1 65/47/1
f 5/45/3 49/98/3 29/67/3
f 66/99/3 49/98/3 5/45/3
f 23/56/3 49/98/3 66/99/3
f 23/56/3 50/100/3 49/98/3
f 23/56/3 24/66/3 50/100/3
f 34/54/3 24/66/3 23/56/3
f 46/101/3 24/66/3 34/54/3
f 24/66/3 46/101/3 26/84/3
f 34/54/3 52/102/3 46/101/3
f 65/103/3 52/102/3 34/54/3
f 65/103/3 32/82/3 52/102/3
f 32/82/3 65/103/3 31/5/3
f 64/106/4 36/105/4 63/104/4
f 36/105/4 64/106/4 35/107/4
f 22/108/6 66/4/6 67/69/6
f 66/4/6 22/108/6 23/2/6
f 22/111/4 62/110/4 21/109/4
f 62/110/4 22/111/4 67/112/4
f 62/29/5 56/34/5 54/27/5
f 56/34/5 62/29/5 68/37/5
f 68/37/5 62/29/5 69/113/5
f 69/113/5 62/29/5 70/114/5
f 70/114/5 62/29/5 6/18/5
f 6/18/5 62/29/5 5/20/5
f 5/20/5 62/29/5 67/30/5
f 5/20/5 67/30/5 66/32/5
f 61/115/5 69/113/5 70/114/5
f 69/113/5 61/115/5 60/116/5
f 64/118/6 34/22/6 35/117/6
f 34/22/6 64/118/6 65/43/6

usemtl dark

f 73/121/9 72/120/9 71/119/9
f 72/120/9 73/121/9 74/122/9
f 58/10/3 69/123/3 60/46/3
f 69/123/3 58/10/3 75/124/3
f 76/114/5 15/16/5 59/115/5
f 15/16/5 76/114/5 8/18/5
f 68/69/6 71/126/6 72/125/6
f 71/126/6 68/69/6 69/91/6
f 71/126/6 69/91/6 77/127/6
f 77/127/6 69/91/6 75/89/6
f 78/85/6 72/125/6 75/89/6
f 72/125/6 78/85/6 68/69/6
f 75/89/6 72/125/6 79/128/6
f 75/89/6 79/128/6 77/127/6
f 74/131/10 79/130/10 72/129/10
f 79/130/10 74/131/10 80/132/10
f 79/135/11 81/134/11 77/133/11
f 81/134/11 79/135/11 80/136/11
f 73/139/6 80/138/6 74/137/6
f 80/138/6 73/139/6 81/140/6
f 78/37/5 58/116/5 55/34/5
f 58/116/5 78/37/5 75/113/5
f 81/143/12 71/142/12 77/141/12
f 71/142/12 81/143/12 73/144/12
f 70/92/6 83/146/6 82/145/6
f 83/146/6 70/92/6 6/4/6
f 83/146/6 6/4/6 84/147/6
f 84/147/6 6/4/6 8/39/6
f 76/90/6 82/145/6 8/39/6
f 82/145/6 76/90/6 70/92/6
f 8/39/6 82/145/6 85/148/6
f 8/39/6 85/148/6 84/147/6
f 78/8/2 56/97/2 68/6/2
f 56/97/2 78/8/2 55/9/2
f 86/151/13 82/150/13 83/149/13
f 82/150/13 86/151/13 87/152/13
f 85/155/14 88/154/14 84/153/14
f 88/154/14 85/155/14 89/156/14
f 76/8/2 61/97/2 70/6/2
f 61/97/2 76/8/2 59/9/2
f 86/159/6 89/158/6 87/157/6
f 89/158/6 86/159/6 88/160/6
f 88/163/15 83/162/15 84/161/15
f 83/162/15 88/163/15 86/164/15
f 87/167/16 85/166/16 82/165/16
f 85/166/16 87/167/16 89/168/16

