# Created by Kenney (www.kenney.nl)

mtllib machine_barrelLarge.mtl

g machine_barrelLarge

v -0.114805 0 0.2771639
v -0.114805 0.1 0.2771639
v -0.114805 0 0.3271638
v -0.114805 0.3 0.2771639
v -0.114805 0.15 0.3271638
v -0.114805 0.2 0.3771639
v -0.114805 0.15 0.3771639
v -0.2771637 0.3 -0.114805
v -0.2771637 0.3 0.114805
v -0.3771639 0.2 -0.114805
v -0.3771639 0.2 0.114805
v 0.114805 0.2 0.3771639
v 0.114805 0.3 0.2771639
v 0.2771639 0 -0.114805
v 0.2771639 0.1 -0.114805
v 0.2771639 0 0.114805
v 0.2771639 0.1 0.114805
v 0.3771639 0.2 -0.114805
v 0.3771639 0.2 0.114805
v 0.2771639 0.3 -0.114805
v 0.2771639 0.3 0.114805
v 0.114805 0 -0.2771639
v -0.114805 0 -0.2771639
v 0.114805 0.1 -0.2771639
v -0.114805 0.1 -0.2771639
v -0.3771639 0.15 -0.114805
v -0.3271639 0.15 -0.114805
v -0.2771637 0.1 -0.114805
v -0.2771637 0 -0.114805
v -0.3271639 0 -0.114805
v 0.114805 0 -0.3271638
v -0.114805 0 -0.3271638
v 0.114805 0 -0.3771639
v -0.114805 0 -0.3771639
v -0.2771637 0.1 0.114805
v -0.2771637 0 0.114805
v -0.3271639 0 0.114805
v -0.114805 0.2 -0.3771639
v 0.114805 0.2 -0.3771639
v -0.114805 0.3 -0.2771639
v 0.114805 0.3 -0.2771639
v -0.114805 0.15 -0.3771639
v 0.114805 0.15 -0.3771639
v 0.114805 0 0.2771639
v 0.114805 0.1 0.2771639
v 0.3771639 0.15 0.114805
v 0.3271638 0.15 0.114805
v 0.3271638 0 0.114805
v 0.114805 0.15 -0.3271638
v 0.3771639 0.15 -0.114805
v 0.114805 0.15 0.3771639
v -0.3771639 0.15 0.114805
v 0.3271638 0 -0.114805
v 0.3271638 0.15 -0.114805
v -0.3271639 0.15 0.114805
v -0.114805 0.15 -0.3271638
v 0.114805 0.15 0.3271638
v 0.114805 0 0.3271638
v -0.3771639 0 0.114805
v -0.2771637 0.4 -0.114805
v -0.1940148 0.5 -0.08036351
v -0.2771637 0.4 0.114805
v -0.1940148 0.5 0.08036351
v 0.2771639 0.4 -0.114805
v 0.2771639 0.4 0.114805
v 0.1940147 0.5 -0.08036351
v 0.1940147 0.5 0.08036351
v 0.3771639 0 -0.114805
v 0.3771639 0 0.114805
v -0.08036351 0.5 0.1940147
v -0.114805 0.4 0.2771639
v 0.1940147 0.6 -0.08036351
v 0.1940147 0.6 0.08036351
v 0.114805 0 0.3771639
v -0.114805 0 0.3771639
v 0.08036351 0.5 -0.1940147
v 0.08036351 0.6 -0.1940147
v 0.114805 0.4 0.2771639
v 0.08036351 0.5 0.1940147
v -0.08036351 0.5 -0.1940147
v -0.114805 0.4 -0.2771639
v -0.08036351 0.6 -0.1940147
v -0.1940148 0.6 -0.08036351
v -0.1940148 0.6 0
v -0.1940148 0.6 0.08036351
v 0.114805 0.4 -0.2771639
v 0.08036351 0.6 0.1940147
v -0.08036351 0.6 0.1940147
v -0.3771639 0 -0.114805
v 0.09401464 0.6 0.03894222
v 0.03894222 0.6 0.09401464
v 0.09401464 0.6 -0.03894222
v 0.03894222 0.6 -0.09401464
v -0.0389421 0.6 -0.09401464
v -0.0389421 0.6 0.09401464
v -0.09401464 0.6 -0.03894222
v -0.09401464 0.6 0.03894222
v -0.09401464 0.6 0

vn -1 0 0
vn -0.7071068 0.7071068 0
vn 0 0.7071068 0.7071068
vn 0.7071068 0.7071068 0
vn 0 0 1
vn 0 0 -1
vn 0 -1 0
vn 1 0 0
vn 0 0.7071068 -0.7071068
vn -0.7071068 0 -0.7071068
vn -0.7689173 0.6393483 0
vn 0.7689173 0.6393483 0
vn -0.5437066 0.6393482 0.5437066
vn 0.7071068 0 -0.7071068
vn 0 0.6393483 0.7689173
vn -0.7071068 0 0.7071068
vn -0.5437066 0.6393482 -0.5437066
vn 0 0.6393483 -0.7689173
vn 0.7071068 0 0.7071068
vn 0.5437066 0.6393482 0.5437066
vn 0.5437066 0.6393482 -0.5437066
vn 0 1 0

vt 10.91196 0
vt 10.91196 3.937008
vt 12.88047 0
vt 10.91196 11.81102
vt 12.88047 5.905512
vt 14.84897 7.874016
vt 14.84897 5.905512
vt -4.519883 0.6357319
vt 4.519883 0.6357319
vt -4.519883 -4.932038
vt 4.519883 -4.932038
vt -4.519883 2.87077E-15
vt -4.519883 3.937008
vt 4.519883 2.87077E-15
vt 4.519883 3.937008
vt 4.519883 -6.884497E-14
vt -4.519883 -6.884497E-14
vt 10.91196 -4.233023E-15
vt 12.88047 -4.233023E-15
vt 4.519883 -10.91196
vt 4.519883 -12.88047
vt -4.519883 -10.91196
vt -4.519883 -12.88047
vt 4.519883 -14.84897
vt -4.519883 -14.84897
vt 4.519883 3.735436E-14
vt -4.519883 3.735436E-14
vt -10.91196 4.519883
vt -10.91196 -4.519883
vt -12.88047 4.519883
vt -12.88047 -4.519883
vt 4.519883 5.905512
vt -4.519883 5.905512
vt 4.519883 7.874016
vt -4.519883 7.874016
vt 4.519883 1.104379E-16
vt -4.519883 1.104379E-16
vt 10.91196 -2.822015E-15
vt 12.88047 -2.822015E-15
vt 12.88047 2.822015E-15
vt 10.91196 2.822015E-15
vt -10.91196 1.411008E-15
vt -12.88047 0
vt -10.91196 3.937008
vt -12.88047 5.905512
vt -10.91196 11.81102
vt -14.84897 5.905512
vt -14.84897 7.874016
vt -10.91196 2.822015E-15
vt -12.88047 4.078694E-15
vt -10.91196 -2.116512E-16
vt -10.91196 2.610364E-15
vt 12.88047 -4.519883
vt 10.91196 -4.519883
vt 12.88047 4.519883
vt 10.91196 4.519883
vt 4.519883 12.88047
vt 4.519883 10.91196
vt -4.519883 12.88047
vt -4.519883 10.91196
vt 4.519883 11.81102
vt -4.519883 11.81102
vt -14.84897 0
vt -4.519883 5.132389
vt -3.163918 10.25259
vt 4.519883 5.132389
vt 3.163918 10.25259
vt 14.84897 -4.519883
vt 14.84897 4.519883
vt 3.163918 23.62205
vt 3.163918 19.68504
vt -3.163918 23.62205
vt -3.163918 19.68504
vt -14.84897 4.078694E-15
vt 4.519883 14.84897
vt -4.519883 14.84897
vt -2.209824E-13 23.62205
vt 14.84897 0
vt 4.519883 -2.456585E-14
vt -4.519883 -2.456585E-14
vt 4.519883 0
vt -4.519883 0
vt -4.519883 3.126562E-14
vt 4.519883 3.126562E-14
vt -14.84897 -4.519883
vt -14.84897 4.519883
vt -4.519883 15.74803
vt 4.519883 15.74803
vt -3.701366 1.533156
vt -1.533156 3.701366
vt -3.701366 -1.533156
vt -1.533156 -3.701366
vt 1.533156 -3.701366
vt 1.533156 3.701366
vt 3.701366 -1.533156
vt 3.701366 1.533156
vt 3.701366 -3.410605E-13
vt -7.638374 -3.163918
vt -3.163918 -7.638374
vt 3.163918 -7.638374
vt 7.638374 -3.163918
vt -3.163918 7.638374
vt -7.638374 3.163918
vt 3.163918 7.638374
vt 7.638374 3.163918
vt 7.638374 -3.410605E-13

usemtl metalDark

f 3/3/1 2/2/1 1/1/1
f 2/2/1 3/3/1 4/4/1
f 4/4/1 3/3/1 5/5/1
f 4/4/1 5/5/1 6/6/1
f 6/6/1 5/5/1 7/7/1
f 10/10/2 9/9/2 8/8/2
f 9/9/2 10/10/2 11/11/2
f 13/9/3 6/10/3 12/11/3
f 6/10/3 13/9/3 4/8/3
f 16/14/1 15/13/1 14/12/1
f 15/13/1 16/14/1 17/15/1
f 20/9/4 19/10/4 18/11/4
f 19/10/4 20/9/4 21/8/4
f 24/15/5 23/17/5 22/16/5
f 23/17/5 24/15/5 25/13/5
f 10/6/6 27/5/6 26/7/6
f 8/4/6 27/5/6 10/6/6
f 28/2/6 27/5/6 8/4/6
f 29/18/6 27/5/6 28/2/6
f 27/5/6 29/18/6 30/19/6
f 23/22/7 31/21/7 22/20/7
f 31/21/7 23/22/7 32/23/7
f 32/23/7 33/24/7 31/21/7
f 33/24/7 32/23/7 34/25/7
f 35/13/8 29/26/8 28/15/8
f 29/26/8 35/13/8 36/27/8
f 37/30/7 29/29/7 36/28/7
f 29/29/7 37/30/7 30/31/7
f 40/9/9 39/10/9 38/11/9
f 39/10/9 40/9/9 41/8/9
f 38/34/6 43/33/6 42/32/6
f 43/33/6 38/34/6 39/35/6
f 2/15/6 44/37/6 1/36/6
f 44/37/6 2/15/6 45/13/6
f 19/6/5 47/5/5 46/7/5
f 21/4/5 47/5/5 19/6/5
f 17/2/5 47/5/5 21/4/5
f 16/38/5 47/5/5 17/2/5
f 47/5/5 16/38/5 48/39/5
f 41/4/8 43/7/8 39/6/8
f 43/7/8 41/4/8 49/5/8
f 49/5/8 41/4/8 31/40/8
f 31/40/8 41/4/8 24/2/8
f 22/41/8 31/40/8 24/2/8
f 19/35/8 50/32/8 18/34/8
f 50/32/8 19/35/8 46/33/8
f 12/34/5 7/33/5 51/32/5
f 7/33/5 12/34/5 6/35/5
f 52/32/1 10/35/1 26/33/1
f 10/35/1 52/32/1 11/34/1
f 15/44/6 53/43/6 14/42/6
f 53/43/6 15/44/6 54/45/6
f 54/45/6 15/44/6 20/46/6
f 54/45/6 20/46/6 50/47/6
f 50/47/6 20/46/6 18/48/6
f 35/44/5 37/43/5 36/49/5
f 37/43/5 35/44/5 55/45/5
f 55/45/5 35/44/5 9/46/5
f 55/45/5 9/46/5 52/47/5
f 52/47/5 9/46/5 11/48/5
f 23/51/1 56/45/1 32/50/1
f 56/45/1 23/51/1 25/44/1
f 40/46/1 56/45/1 25/44/1
f 40/46/1 42/47/1 56/45/1
f 42/47/1 40/46/1 38/48/1
f 13/46/8 57/45/8 45/44/8
f 57/45/8 13/46/8 12/48/8
f 45/44/8 57/45/8 44/52/8
f 57/45/8 12/48/8 51/47/8
f 58/50/8 44/52/8 57/45/8
f 48/55/7 14/54/7 53/53/7
f 14/54/7 48/55/7 16/56/7
f 3/59/7 44/58/7 58/57/7
f 44/58/7 3/59/7 1/60/7

usemtl metalRed

f 8/61/10 25/13/10 28/15/10
f 25/13/10 8/61/10 40/62/10
f 55/45/5 59/63/5 37/43/5
f 59/63/5 55/45/5 52/47/5
f 62/66/11 61/65/11 60/64/11
f 61/65/11 62/66/11 63/67/11
f 66/67/12 65/64/12 64/66/12
f 65/64/12 66/67/12 67/65/12
f 69/69/7 53/53/7 68/68/7
f 53/53/7 69/69/7 48/55/7
f 63/65/13 71/66/13 70/67/13
f 71/66/13 63/65/13 62/64/13
f 73/72/8 66/71/8 72/70/8
f 66/71/8 73/72/8 67/73/8
f 54/45/6 68/63/6 53/43/6
f 68/63/6 54/45/6 50/47/6
f 51/47/8 58/50/8 57/45/8
f 58/50/8 51/47/8 74/74/8
f 41/61/14 15/13/14 24/15/14
f 15/13/14 41/61/14 20/62/14
f 75/76/7 58/57/7 74/75/7
f 58/57/7 75/76/7 3/59/7
f 77/70/14 66/73/14 76/71/14
f 66/73/14 77/70/14 72/72/14
f 17/56/7 24/20/7 15/54/7
f 24/20/7 17/56/7 45/58/7
f 24/20/7 45/58/7 25/22/7
f 25/22/7 45/58/7 2/60/7
f 25/22/7 2/60/7 28/29/7
f 28/29/7 2/60/7 35/28/7
f 79/67/15 71/64/15 78/66/15
f 71/64/15 79/67/15 70/65/15
f 4/61/16 35/13/16 2/15/16
f 35/13/16 4/61/16 9/62/16
f 32/50/1 42/47/1 34/74/1
f 42/47/1 32/50/1 56/45/1
f 81/64/17 61/67/17 80/65/17
f 61/67/17 81/64/17 60/66/17
f 82/70/6 76/73/6 80/71/6
f 76/73/6 82/70/6 77/72/6
f 63/71/1 83/72/1 61/73/1
f 83/72/1 63/71/1 84/77/1
f 84/77/1 63/71/1 85/70/1
f 80/67/18 86/64/18 81/66/18
f 86/64/18 80/67/18 76/65/18
f 21/61/19 45/13/19 17/15/19
f 45/13/19 21/61/19 13/62/19
f 87/70/5 70/73/5 79/71/5
f 70/73/5 87/70/5 88/72/5
f 46/7/5 48/39/5 69/78/5
f 48/39/5 46/7/5 47/5/5
f 46/33/8 68/79/8 50/32/8
f 68/79/8 46/33/8 69/80/8
f 42/32/6 33/82/6 34/81/6
f 33/82/6 42/32/6 43/33/6
f 59/84/1 26/33/1 89/83/1
f 26/33/1 59/84/1 52/32/1
f 26/7/6 30/19/6 89/78/6
f 30/19/6 26/7/6 27/5/6
f 70/71/16 85/72/16 63/73/16
f 85/72/16 70/71/16 88/70/16
f 37/30/7 89/85/7 30/31/7
f 89/85/7 37/30/7 59/86/7
f 83/70/10 80/73/10 61/71/10
f 80/73/10 83/70/10 82/72/10
f 67/67/20 78/64/20 65/66/20
f 78/64/20 67/67/20 79/65/20
f 75/78/1 5/5/1 3/3/1
f 5/5/1 75/78/1 7/7/1
f 49/5/8 33/78/8 43/7/8
f 33/78/8 49/5/8 31/40/8
f 73/70/19 79/73/19 67/71/19
f 79/73/19 73/70/19 87/72/19
f 51/32/5 75/82/5 74/81/5
f 75/82/5 51/32/5 7/33/5
f 86/66/21 66/65/21 64/64/21
f 66/65/21 86/66/21 76/67/21

usemtl metal

f 8/62/1 62/88/1 60/87/1
f 62/88/1 8/62/1 9/61/1
f 64/88/8 21/62/8 20/61/8
f 21/62/8 64/88/8 65/87/8
f 71/88/16 9/62/16 4/61/16
f 9/62/16 71/88/16 62/87/16
f 65/88/19 13/62/19 21/61/19
f 13/62/19 65/88/19 78/87/19
f 60/88/10 40/62/10 8/61/10
f 40/62/10 60/88/10 81/87/10
f 78/88/5 4/62/5 13/61/5
f 4/62/5 78/88/5 71/87/5
f 81/88/6 41/62/6 40/61/6
f 41/62/6 81/88/6 86/87/6
f 86/88/14 20/62/14 41/61/14
f 20/62/14 86/88/14 64/87/14
f 92/91/22 91/90/22 90/89/22
f 91/90/22 92/91/22 93/92/22
f 91/90/22 93/92/22 94/93/22
f 91/90/22 94/93/22 95/94/22
f 95/94/22 94/93/22 96/95/22
f 95/94/22 96/95/22 97/96/22
f 97/96/22 96/95/22 98/97/22

usemtl dark

f 72/98/22 92/91/22 90/89/22
f 92/91/22 72/98/22 77/99/22
f 92/91/22 77/99/22 93/92/22
f 93/92/22 77/99/22 82/100/22
f 93/92/22 82/100/22 94/93/22
f 94/93/22 82/100/22 96/95/22
f 96/95/22 82/100/22 83/101/22
f 96/95/22 83/101/22 98/97/22
f 98/97/22 83/101/22 97/96/22
f 87/102/22 72/98/22 90/89/22
f 72/98/22 87/102/22 73/103/22
f 87/102/22 90/89/22 91/90/22
f 87/102/22 91/90/22 88/104/22
f 88/104/22 91/90/22 95/94/22
f 88/104/22 95/94/22 97/96/22
f 88/104/22 97/96/22 85/105/22
f 85/105/22 97/96/22 83/101/22
f 85/105/22 83/101/22 84/106/22

