# Created by Kenney (www.kenney.nl)

mtllib meteor_half.mtl

g meteor_half

v 0.2165064 0 -0.375
v 0.4330127 0 0
v 0.2165064 0.165 -0.375
v 0.4330127 0.165 0
v 0.2165064 0 0.375
v 0.2165064 0.165 0.375
v -0.2165065 0 -0.375
v -0.2165065 0.165 -0.375
v -0.4330127 0 0
v -0.4330127 0.165 0
v 0.1602147 0.3675 0
v 0.08010733 0.3675 0.13875
v 0.08010733 0.3675 -0.13875
v -0.08010745 0.3675 -0.13875
v -0.08010745 0.3675 0.13875
v -0.1602147 0.3675 0
v -0.2165065 0 0.375
v -0.2165065 0.165 0.375
v -0.3204293 0.30375 0
v -0.1602147 0.30375 0.2775
v -0.1602147 0.30375 -0.2775
v 0.1602147 0.30375 -0.2775
v 0.3204293 0.30375 0
v 0.1602147 0.30375 0.2775

vn 0.8660254 0 -0.5
vn 0.8660254 0 0.5
vn -0.8660254 0 -0.5
vn 0 1 0
vn -0.8660254 0 0.5
vn -0.7085748 0.5749455 0.4090959
vn -0.3615658 0.9086769 0.2087501
vn -0.7085748 0.5749455 -0.4090959
vn 0 0 -1
vn 0 0.9086769 -0.4175002
vn 0.7085748 0.5749455 -0.4090959
vn 0 0.5749455 0.8181917
vn 0 0.5749455 -0.8181917
vn 0 0.9086769 0.4175002
vn 0.7085748 0.5749455 0.4090959
vn -0.3615658 0.9086769 -0.2087501
vn 0 0 1
vn 0.3615658 0.9086769 0.2087501
vn 0.3615658 0.9086769 -0.2087501
vn 0 -1 0

vt 8.523872 -8.887167E-14
vt -8.523872 -8.887167E-14
vt 8.523872 6.496063
vt -8.523872 6.496063
vt 8.523872 3.531664E-13
vt -8.523872 3.531664E-13
vt -8.523872 4.731533E-14
vt 8.523872 4.731533E-14
vt -6.307665 2.842171E-14
vt -3.153833 5.462598
vt -3.153833 -5.462598
vt 3.153833 -5.462598
vt 3.153833 5.462598
vt 6.307665 2.842171E-14
vt -8.523872 2.562155E-13
vt 8.523872 2.562155E-13
vt -8.523872 -3.173344
vt -6.307665 3.503084
vt 8.523872 -3.173344
vt 6.307665 3.503084
vt 3.153833 1.076866
vt 6.307665 -4.93473
vt -3.153833 1.076866
vt -6.307665 -4.93473
vt 8.523872 -1.453383E-13
vt -8.523872 -1.453383E-13
vt 8.523872 1.61487E-13
vt -8.523872 1.61487E-13
vt 17.04774 -8.526513E-14
vt 8.523872 -14.76378
vt 8.523872 14.76378
vt -8.523872 -14.76378
vt -8.523872 14.76378
vt -17.04774 0

usemtl rockTrack

f 3/3/1 2/2/1 1/1/1
f 2/2/1 3/3/1 4/4/1
f 4/3/2 5/6/2 2/5/2
f 5/6/2 4/3/2 6/4/2
f 9/8/3 8/4/3 7/7/3
f 8/4/3 9/8/3 10/3/3
f 13/11/4 12/10/4 11/9/4
f 12/10/4 13/11/4 14/12/4
f 12/10/4 14/12/4 15/13/4
f 15/13/4 14/12/4 16/14/4
f 17/16/5 10/4/5 9/15/5
f 10/4/5 17/16/5 18/3/5
f 18/19/6 19/18/6 10/17/6
f 19/18/6 18/19/6 20/20/6
f 16/23/7 20/22/7 15/21/7
f 20/22/7 16/23/7 19/24/7
f 10/19/8 21/18/8 8/17/8
f 21/18/8 10/19/8 19/20/8
f 8/3/9 1/26/9 7/25/9
f 1/26/9 8/3/9 3/4/9
f 21/22/10 13/23/10 22/24/10
f 13/23/10 21/22/10 14/21/10
f 22/20/11 4/17/11 3/19/11
f 4/17/11 22/20/11 23/18/11
f 24/20/12 18/17/12 6/19/12
f 18/17/12 24/20/12 20/18/12
f 21/20/13 3/17/13 8/19/13
f 3/17/13 21/20/13 22/18/13
f 12/21/14 20/24/14 24/22/14
f 20/24/14 12/21/14 15/23/14
f 24/18/15 4/19/15 23/20/15
f 4/19/15 24/18/15 6/17/15
f 21/24/16 16/21/16 14/23/16
f 16/21/16 21/24/16 19/22/16
f 6/3/17 17/28/17 5/27/17
f 17/28/17 6/3/17 18/4/17
f 11/21/18 24/24/18 23/22/18
f 24/24/18 11/21/18 12/23/18
f 22/22/19 11/23/19 23/24/19
f 11/23/19 22/22/19 13/21/19
f 5/31/20 1/30/20 2/29/20
f 1/30/20 5/31/20 7/32/20
f 7/32/20 5/31/20 17/33/20
f 7/32/20 17/33/20 9/34/20

