# Created by Kenney (www.kenney.nl)

mtllib stairs.mtl

g stairs

v 0.15 0.1125 0.1
v -0.1500001 0.1125 0.1
v 0.15 0.125 0.1
v -0.1500001 0.125 0.1
v -0.1500001 0.3375 -0.25
v -0.1500001 0.35 -0.25
v -0.1500001 0.3375 -0.2
v -0.1500001 0.35 -0.2
v 0.15 0.425 -0.35
v 0.15 0.425 -0.3
v -0.1500001 0.425 -0.35
v -0.1500001 0.425 -0.3
v -0.1500001 0.2625 -0.15
v -0.1500001 0.275 -0.15
v -0.1500001 0.2625 -0.1
v -0.1500001 0.275 -0.1
v 0.15 0.275 -0.15
v 0.15 0.2625 -0.15
v 0.15 0.275 -0.1
v 0.15 0.2625 -0.1
v -0.1500001 0.4125 -0.35
v -0.1500001 0.4125 -0.3
v 0.15 0.4125 -0.35
v 0.15 0.4125 -0.3
v 0.15 0.35 -0.25
v 0.15 0.3375 -0.25
v 0.15 0.35 -0.2
v 0.15 0.3375 -0.2
v 0.15 0.5 -0.45
v 0.15 0.5 -0.4
v -0.1500001 0.5 -0.45
v -0.1500001 0.5 -0.4
v -0.1500001 0.1125 0.04999995
v -0.1500001 0.125 0.04999995
v 0.15 0.4875 -0.4
v -0.1500001 0.4875 -0.4
v -0.1500001 0.4875 -0.45
v 0.15 0.2 -0.04999995
v 0.15 0.2 0
v -0.1500001 0.2 -0.04999995
v -0.1500001 0.2 0
v -0.1500001 0.1875 -0.04999995
v -0.1500001 0.1875 0
v 0.15 0.1875 -0.04999995
v 0.15 0.1875 0
v 0.15 0.4875 -0.45
v 0.15 0.125 0.04999995
v 0.15 0.0375 0.2
v -0.1500001 0.0375 0.2
v 0.15 0.05 0.2
v -0.1500001 0.05 0.2
v 0.15 0.1125 0.04999995
v -0.1500001 0.0375 0.15
v -0.1500001 0.05 0.15
v 0.15 0.05 0.15
v 0.15 0.0375 0.15
v 0.04999995 8.459899E-17 0.125
v 0.04999995 8.459899E-17 0.1
v -0.04999995 8.459899E-17 0.125
v -0.04999995 8.459899E-17 0.1
v 0.04999995 0.45 -0.5
v -0.04999995 0.45 -0.5
v -0.04999995 0.475 -0.5
v 0.04999995 0.475 -0.5
v -0.04999995 0.325 -0.3
v -0.04999995 0.475 -0.4749999
v -0.04999995 0.325 -0.275
v -0.04999995 0.025 0.125
v -0.04999995 0.34375 -0.3
v 0.04999995 0.025 0.125
v 0.04999995 0.325 -0.275
v 0.04999995 0.475 -0.4749999
v 0.04999995 0.325 -0.3
v 0.04999995 0.34375 -0.3
v 0.15 0.1 0.1
v 0.15 0.1 0
v -0.1500001 0.1 0.1
v -0.1500001 0.1 0
v 0.15 0.35 -0.3
v -0.1500001 0.35 -0.3
v -0.1500001 0.325 -0.3
v -0.1500001 0.325 -0.2
v 0.15 0.325 -0.3
v -0.1500001 0.25 -0.2
v 0.15 0.25 -0.2
v -0.1500001 0.275 -0.2
v 0.15 0.275 -0.2
v 0.15 0.325 -0.2
v 0.15 0.425 -0.4
v -0.1500001 0.425 -0.4
v 0.15 0.4 -0.3
v -0.1500001 0.4 -0.3
v -0.1500001 0.25 -0.1
v -0.1500001 0.4 -0.4
v 0.15 0.4 -0.4
v 0.15 0.25 -0.1
v -0.1500001 0.475 -0.5
v -0.1500001 0.5 -0.5
v 0.15 0.475 -0.5
v 0.15 0.5 -0.5
v 0.15 0.125 0
v -0.1500001 0.175 -0.1
v 0.15 0.175 -0.1
v -0.1500001 0.2 -0.1
v 0.15 0.2 -0.1
v 0.15 0.475 -0.4
v -0.1500001 0.475 -0.4
v 0.15 0.175 0
v -0.1500001 0.175 0
v -0.1500001 0.125 0
v 0.15 0.025 0.2
v 0.15 0.025 0.1
v -0.1500001 0.025 0.2
v -0.1500001 0.025 0.1
v -0.1500001 0.05 0.1
v 0.15 0.05 0.1

vn 0 0 1
vn -1 0 0
vn 0 1 0
vn 1 0 0
vn 0 -1 0
vn 0 -0.8 -0.6
vn 0 0 -1
vn 0 0.8 0.6

vt 5.905512 4.429134
vt -5.905512 4.429134
vt 5.905512 4.92126
vt -5.905512 4.92126
vt -9.84252 13.2874
vt -9.84252 13.77953
vt -7.874016 13.2874
vt -7.874016 13.77953
vt -5.905512 -13.77953
vt -5.905512 -11.81102
vt 5.905512 -13.77953
vt 5.905512 -11.81102
vt -5.905512 10.33465
vt -5.905512 10.82677
vt -3.937008 10.33465
vt -3.937008 10.82677
vt 5.905512 10.82677
vt 5.905512 10.33465
vt 3.937008 10.82677
vt 3.937008 10.33465
vt -13.77953 16.24016
vt -13.77953 16.73228
vt -11.81102 16.24016
vt -11.81102 16.73228
vt 13.77953 16.73228
vt 13.77953 16.24016
vt 11.81102 16.73228
vt 11.81102 16.24016
vt 5.905512 16.24016
vt -5.905512 16.24016
vt 5.905512 16.73228
vt -5.905512 16.73228
vt 9.84252 13.77953
vt 9.84252 13.2874
vt 7.874016 13.77953
vt 7.874016 13.2874
vt 5.905512 13.2874
vt -5.905512 13.2874
vt 5.905512 13.77953
vt -5.905512 13.77953
vt -5.905512 -9.84252
vt -5.905512 -7.874016
vt 5.905512 -9.84252
vt 5.905512 -7.874016
vt -5.905512 -5.905512
vt -5.905512 -3.937008
vt 5.905512 -5.905512
vt 5.905512 -3.937008
vt -5.905512 -17.71654
vt -5.905512 -15.74803
vt 5.905512 -17.71654
vt 5.905512 -15.74803
vt 1.968504 4.429134
vt 1.968504 4.92126
vt 3.937008 4.429134
vt 3.937008 4.92126
vt 5.905512 19.19291
vt -5.905512 19.19291
vt 5.905512 19.68504
vt -5.905512 19.68504
vt -17.71654 19.19291
vt -17.71654 19.68504
vt -15.74803 19.19291
vt -15.74803 19.68504
vt -5.905512 -1.968504
vt -5.905512 0
vt 5.905512 -1.968504
vt 5.905512 0
vt -1.968504 7.38189
vt -1.968504 7.874016
vt 0 7.38189
vt 0 7.874016
vt 1.968504 7.874016
vt 1.968504 7.38189
vt 17.71654 19.68504
vt 17.71654 19.19291
vt 15.74803 19.68504
vt 15.74803 19.19291
vt 5.905512 7.38189
vt -5.905512 7.38189
vt 5.905512 7.874016
vt -5.905512 7.874016
vt -5.905512 1.968504
vt -5.905512 3.937008
vt 5.905512 1.968504
vt 5.905512 3.937008
vt 5.905512 1.476378
vt -5.905512 1.476378
vt -1.968504 4.92126
vt -1.968504 4.429134
vt -3.937008 4.92126
vt -3.937008 4.429134
vt 7.874016 1.476378
vt 7.874016 1.968504
vt -7.874016 1.968504
vt -7.874016 1.476378
vt -5.905512 5.905512
vt 5.905512 5.905512
vt 1.968504 3.937008
vt -1.968504 3.937008
vt -1.968504 -3.149606
vt -1.968504 26.37795
vt 1.968504 -3.149606
vt 1.968504 26.37795
vt 1.968504 17.71654
vt -1.968504 17.71654
vt 1.968504 18.70079
vt -1.968504 18.70079
vt -19.68504 17.71654
vt -19.68504 18.70079
vt 3.937008 3.330669E-15
vt -11.81102 12.79528
vt -18.70079 18.70079
vt -10.82677 12.79528
vt 4.92126 0.984252
vt 4.92126 3.330669E-15
vt -11.81102 13.53346
vt 1.968504 3.330669E-15
vt -1.968504 3.330669E-15
vt 1.968504 0.984252
vt -1.968504 0.984252
vt 1.968504 16.33858
vt 1.968504 -3.346457
vt -1.968504 16.33858
vt -1.968504 -3.346457
vt 19.68504 18.70079
vt 19.68504 17.71654
vt 18.70079 18.70079
vt 11.81102 12.79528
vt -3.937008 3.330669E-15
vt 11.81102 13.53346
vt 10.82677 12.79528
vt -4.92126 0.984252
vt -4.92126 3.330669E-15
vt 1.968504 26.1811
vt 1.968504 17.5689
vt -1.968504 26.1811
vt -1.968504 17.5689
vt -11.81102 13.77953
vt -7.874016 12.79528
vt 5.905512 12.79528
vt 1.968504 12.79528
vt 1.968504 13.53346
vt -1.968504 13.53346
vt -5.905512 12.79528
vt -1.968504 12.79528
vt 5.905512 9.84252
vt -5.905512 9.84252
vt 11.81102 13.77953
vt 7.874016 12.79528
vt 5.905512 15.74803
vt -5.905512 15.74803
vt -7.874016 9.84252
vt -7.874016 10.82677
vt -3.937008 9.84252
vt 15.74803 16.73228
vt 15.74803 15.74803
vt 11.81102 15.74803
vt 1.968504 -10.82677
vt -1.968504 -10.82677
vt -1.968504 -11.81102
vt 1.968504 -11.81102
vt 7.874016 10.82677
vt 7.874016 9.84252
vt 3.937008 9.84252
vt 5.905512 18.70079
vt -5.905512 18.70079
vt 0 4.92126
vt 0 3.937008
vt -3.937008 3.937008
vt 5.905512 6.889764
vt -5.905512 6.889764
vt 5.905512 -19.68504
vt 1.968504 -18.70079
vt -1.968504 -18.70079
vt -1.968504 -19.68504
vt -5.905512 -19.68504
vt 1.968504 -19.68504
vt -15.74803 16.73228
vt -15.74803 15.74803
vt -11.81102 15.74803
vt 19.68504 19.68504
vt 15.74803 18.70079
vt -19.68504 19.68504
vt -15.74803 18.70079
vt -3.937008 6.889764
vt -3.937008 7.874016
vt 0 6.889764
vt 3.937008 7.874016
vt 3.937008 6.889764
vt 3.937008 3.937008
vt 5.905512 0.984252
vt -5.905512 0.984252
vt 3.937008 0.984252
vt 3.937008 1.968504
vt 7.874016 0.984252
vt -3.937008 1.968504
vt -3.937008 0.984252
vt -7.874016 0.984252

usemtl metalDark

f 3/3/1 2/2/1 1/1/1
f 2/2/1 3/3/1 4/4/1
f 7/7/2 6/6/2 5/5/2
f 6/6/2 7/7/2 8/8/2
f 11/11/3 10/10/3 9/9/3
f 10/10/3 11/11/3 12/12/3
f 15/15/2 14/14/2 13/13/2
f 14/14/2 15/15/2 16/16/2
f 19/19/4 18/18/4 17/17/4
f 18/18/4 19/19/4 20/20/4
f 22/23/2 11/22/2 21/21/2
f 11/22/2 22/23/2 12/24/2
f 19/17/1 15/13/1 20/18/1
f 15/13/1 19/17/1 16/14/1
f 10/27/4 23/26/4 9/25/4
f 23/26/4 10/27/4 24/28/4
f 10/31/1 22/30/1 24/29/1
f 22/30/1 10/31/1 12/32/1
f 27/35/4 26/34/4 25/33/4
f 26/34/4 27/35/4 28/36/4
f 27/39/1 7/38/1 28/37/1
f 7/38/1 27/39/1 8/40/1
f 6/43/3 27/42/3 25/41/3
f 27/42/3 6/43/3 8/44/3
f 14/47/3 19/46/3 17/45/3
f 19/46/3 14/47/3 16/48/3
f 31/51/3 30/50/3 29/49/3
f 30/50/3 31/51/3 32/52/3
f 2/55/2 34/54/2 33/53/2
f 34/54/2 2/55/2 4/56/2
f 30/59/1 36/58/1 35/57/1
f 36/58/1 30/59/1 32/60/1
f 36/63/2 31/62/2 37/61/2
f 31/62/2 36/63/2 32/64/2
f 40/67/3 39/66/3 38/65/3
f 39/66/3 40/67/3 41/68/3
f 43/71/2 40/70/2 42/69/2
f 40/70/2 43/71/2 41/72/2
f 39/72/4 44/74/4 38/73/4
f 44/74/4 39/72/4 45/71/4
f 30/77/4 46/76/4 29/75/4
f 46/76/4 30/77/4 35/78/4
f 39/81/1 43/80/1 45/79/1
f 43/80/1 39/81/1 41/82/1
f 34/85/3 3/84/3 47/83/3
f 3/84/3 34/85/3 4/86/3
f 50/85/1 49/88/1 48/87/1
f 49/88/1 50/85/1 51/83/1
f 3/91/4 52/90/4 47/89/4
f 52/90/4 3/91/4 1/92/4
f 49/93/2 54/85/2 53/87/2
f 54/85/2 49/93/2 51/94/2
f 50/95/4 56/88/4 55/83/4
f 56/88/4 50/95/4 48/96/4
f 54/98/3 50/82/3 55/97/3
f 50/82/3 54/98/3 51/81/3

usemtl dark

f 59/89/5 58/99/5 57/54/5
f 58/99/5 59/89/5 60/100/5
f 60/103/6 61/102/6 58/101/6
f 61/102/6 60/103/6 62/104/6
f 63/107/7 61/106/7 62/105/7
f 61/106/7 63/107/7 64/108/7
f 60/111/2 63/110/2 62/109/2
f 63/110/2 60/111/2 65/112/2
f 63/110/2 65/112/2 66/113/2
f 65/112/2 60/111/2 67/114/2
f 67/114/2 60/111/2 68/115/2
f 68/115/2 60/111/2 59/116/2
f 69/117/2 66/113/2 65/112/2
f 70/120/1 59/119/1 57/118/1
f 59/119/1 70/120/1 68/121/1
f 67/124/8 70/123/8 71/122/8
f 70/123/8 67/124/8 68/125/8
f 72/128/4 61/127/4 64/126/4
f 61/127/4 72/128/4 73/129/4
f 61/127/4 73/129/4 58/130/4
f 73/129/4 72/128/4 74/131/4
f 58/130/4 73/129/4 71/132/4
f 58/130/4 71/132/4 70/133/4
f 58/130/4 70/133/4 57/134/4
f 66/137/8 74/136/8 72/135/8
f 74/136/8 66/137/8 69/138/8

usemtl metal

f 77/84/5 76/68/5 75/86/5
f 76/68/5 77/84/5 78/66/5
f 80/12/3 25/41/3 79/10/3
f 25/41/3 80/12/3 6/43/3
f 82/140/2 80/139/2 81/112/2
f 5/5/2 82/140/2 7/7/2
f 6/6/2 80/139/2 5/5/2
f 80/139/2 82/140/2 5/5/2
f 80/39/7 65/142/7 81/141/7
f 65/142/7 80/39/7 69/143/7
f 69/143/7 80/39/7 74/144/7
f 79/40/7 74/144/7 80/39/7
f 83/145/7 74/144/7 79/40/7
f 74/144/7 83/145/7 73/146/7
f 86/17/7 85/148/7 84/147/7
f 85/148/7 86/17/7 87/14/7
f 25/33/4 83/129/4 79/149/4
f 83/129/4 25/33/4 26/34/4
f 83/129/4 26/34/4 88/150/4
f 88/150/4 26/34/4 28/36/4
f 90/52/3 9/9/3 89/50/3
f 9/9/3 90/52/3 11/11/3
f 24/29/1 92/152/1 91/151/1
f 92/152/1 24/29/1 22/30/1
f 28/37/1 82/145/1 88/141/1
f 82/145/1 28/37/1 7/38/1
f 93/155/2 86/154/2 84/153/2
f 13/13/2 93/155/2 15/15/2
f 14/14/2 86/154/2 13/13/2
f 86/154/2 93/155/2 13/13/2
f 90/31/7 95/152/7 94/151/7
f 95/152/7 90/31/7 89/32/7
f 9/25/4 95/157/4 89/156/4
f 95/157/4 9/25/4 23/26/4
f 95/157/4 23/26/4 91/158/4
f 91/158/4 23/26/4 24/28/4
f 86/44/3 17/45/3 87/42/3
f 17/45/3 86/44/3 14/47/3
f 82/42/5 83/12/5 88/44/5
f 83/12/5 82/42/5 71/159/5
f 71/159/5 82/42/5 67/160/5
f 67/160/5 82/42/5 65/161/5
f 65/161/5 82/42/5 81/10/5
f 73/162/5 83/12/5 71/159/5
f 93/46/5 85/44/5 96/48/5
f 85/44/5 93/46/5 84/42/5
f 20/18/1 93/148/1 96/147/1
f 93/148/1 20/18/1 15/13/1
f 17/17/4 85/164/4 87/163/4
f 85/164/4 17/17/4 18/18/4
f 85/164/4 18/18/4 96/165/4
f 96/165/4 18/18/4 20/20/4
f 92/10/5 95/52/5 91/12/5
f 95/52/5 92/10/5 94/50/5
f 98/59/7 63/107/7 97/166/7
f 63/107/7 98/59/7 64/108/7
f 64/108/7 98/59/7 99/167/7
f 99/167/7 98/59/7 100/60/7
f 1/1/1 77/84/1 75/86/1
f 77/84/1 1/1/1 2/2/1
f 47/89/4 76/169/4 101/168/4
f 76/169/4 47/89/4 52/90/4
f 76/169/4 52/90/4 75/170/4
f 75/170/4 52/90/4 1/92/4
f 104/81/7 103/172/7 102/171/7
f 103/172/7 104/81/7 105/82/7
f 107/50/5 99/173/5 106/52/5
f 99/173/5 107/50/5 72/174/5
f 72/174/5 107/50/5 66/175/5
f 66/175/5 107/50/5 63/176/5
f 63/176/5 107/50/5 97/177/5
f 64/178/5 99/173/5 72/174/5
f 98/173/3 29/49/3 100/177/3
f 29/49/3 98/173/3 31/51/3
f 45/79/1 109/172/1 108/171/1
f 109/172/1 45/79/1 43/80/1
f 94/180/2 21/21/2 90/179/2
f 21/21/2 94/180/2 92/181/2
f 21/21/2 92/181/2 22/23/2
f 11/22/2 90/179/2 21/21/2
f 29/75/4 99/126/4 100/182/4
f 99/126/4 29/75/4 46/76/4
f 99/126/4 46/76/4 106/183/4
f 106/183/4 46/76/4 35/78/4
f 35/57/1 107/167/1 106/166/1
f 107/167/1 35/57/1 36/58/1
f 109/66/5 103/48/5 108/68/5
f 103/48/5 109/66/5 102/46/5
f 107/185/2 98/184/2 97/110/2
f 98/184/2 107/185/2 37/61/2
f 37/61/2 107/185/2 36/63/2
f 31/62/2 98/184/2 37/61/2
f 104/48/3 38/65/3 105/46/3
f 38/65/3 104/48/3 40/67/3
f 109/188/2 104/187/2 102/186/2
f 104/187/2 109/188/2 42/69/2
f 42/69/2 109/188/2 43/71/2
f 40/70/2 104/187/2 42/69/2
f 38/73/4 103/190/4 105/189/4
f 103/190/4 38/73/4 44/74/4
f 103/190/4 44/74/4 108/188/4
f 108/188/4 44/74/4 45/71/4
f 110/3/7 76/84/7 78/86/7
f 76/84/7 110/3/7 101/4/7
f 110/68/3 47/83/3 101/66/3
f 47/83/3 110/68/3 34/85/3
f 77/191/2 110/168/2 78/169/2
f 110/168/2 77/191/2 33/53/2
f 33/53/2 77/191/2 2/55/2
f 34/54/2 110/168/2 33/53/2
f 113/82/5 112/86/5 111/81/5
f 112/86/5 113/82/5 114/84/5
f 48/87/1 113/193/1 111/192/1
f 113/193/1 48/87/1 49/88/1
f 113/196/2 115/195/2 114/194/2
f 115/195/2 113/196/2 53/87/2
f 53/87/2 113/196/2 49/93/2
f 54/85/2 115/195/2 53/87/2
f 115/86/3 55/97/3 116/84/3
f 55/97/3 115/86/3 54/98/3
f 115/85/7 112/193/7 114/192/7
f 112/193/7 115/85/7 116/83/7
f 55/83/4 112/198/4 116/197/4
f 112/198/4 55/83/4 56/88/4
f 112/198/4 56/88/4 111/199/4
f 111/199/4 56/88/4 48/96/4

