# Created by Kenney (www.kenney.nl)

mtllib stairs_short.mtl

g stairs_short

v 0.04999995 8.459899E-17 0.125
v -0.04999995 8.459899E-17 0.125
v 0.04999995 0.025 0.125
v -0.04999995 0.025 0.125
v 0.04999995 8.459899E-17 0.1
v 0.04999995 0.225 -0.2
v -0.04999995 8.459899E-17 0.1
v -0.04999995 0.225 -0.2
v -0.04999995 0.25 -0.2
v -0.04999995 0.175 -0.1
v -0.04999995 0.25 -0.175
v -0.04999995 0.175 -0.07500005
v -0.04999995 0.19375 -0.1
v 0.04999995 0.25 -0.2
v 0.04999995 0.25 -0.175
v 0.04999995 0.19375 -0.1
v 0.04999995 0.175 -0.1
v 0.04999995 0.175 -0.07500005
v 0.15 0.05 0.15
v 0.15 0.05 0.2
v -0.1500001 0.05 0.15
v -0.1500001 0.05 0.2
v -0.1500001 0.0375 0.15
v -0.1500001 0.0375 0.2
v 0.15 0.0375 0.2
v 0.15 0.1875 0
v -0.1500001 0.1875 0
v 0.15 0.2 0
v -0.1500001 0.2 0
v -0.1500001 0.1875 -0.04999995
v -0.1500001 0.2 -0.04999995
v 0.15 0.2 -0.04999995
v -0.1500001 0.1125 0.04999995
v -0.1500001 0.125 0.04999995
v -0.1500001 0.1125 0.1
v -0.1500001 0.125 0.1
v 0.15 0.2625 -0.1
v -0.1500001 0.2625 -0.1
v 0.15 0.275 -0.1
v -0.1500001 0.275 -0.1
v -0.1500001 0.2625 -0.15
v -0.1500001 0.275 -0.15
v 0.15 0.275 -0.15
v 0.15 0.2625 -0.15
v 0.15 0.1875 -0.04999995
v 0.15 0.1125 0.1
v 0.15 0.125 0.1
v 0.15 0.125 0.04999995
v 0.15 0.1125 0.04999995
v 0.15 0.0375 0.15
v 0.15 0.175 0
v 0.15 0.175 -0.1
v -0.1500001 0.175 0
v -0.1500001 0.175 -0.1
v 0.15 0.05 0.1
v 0.15 0.025 0.1
v 0.15 0.025 0.2
v -0.1500001 0.05 0.1
v -0.1500001 0.025 0.1
v 0.15 0.2 -0.1
v -0.1500001 0.025 0.2
v -0.1500001 0.25 -0.2
v -0.1500001 0.275 -0.2
v 0.15 0.25 -0.2
v 0.15 0.275 -0.2
v 0.15 0.25 -0.1
v -0.1500001 0.25 -0.1
v -0.1500001 0.1 0
v -0.1500001 0.125 0
v -0.1500001 0.1 0.1
v 0.15 0.1 0.1
v 0.15 0.1 0
v 0.15 0.125 0
v -0.1500001 0.2 -0.1

vn 0 0 1
vn 0 -0.8 -0.6
vn -1 0 0
vn 0 -1 0
vn 0 0 -1
vn 0 0.8 0.6
vn 1 0 0
vn 0 1 0

vt 1.968504 3.330669E-15
vt -1.968504 3.330669E-15
vt 1.968504 0.984252
vt -1.968504 0.984252
vt -1.968504 -3.149606
vt -1.968504 11.61417
vt 1.968504 -3.149606
vt 1.968504 11.61417
vt -7.874016 8.858268
vt -7.874016 9.84252
vt 3.937008 3.330669E-15
vt -3.937008 6.889764
vt -6.889764 9.84252
vt -2.952756 6.889764
vt 4.92126 0.984252
vt 4.92126 3.330669E-15
vt -3.937008 7.627953
vt 1.968504 4.92126
vt 1.968504 3.937008
vt -1.968504 4.92126
vt -1.968504 3.937008
vt 1.968504 8.858268
vt -1.968504 8.858268
vt 1.968504 9.84252
vt -1.968504 9.84252
vt 1.968504 11.41732
vt 1.968504 7.726378
vt -1.968504 11.41732
vt -1.968504 7.726378
vt 7.874016 9.84252
vt 7.874016 8.858268
vt 6.889764 9.84252
vt 3.937008 6.889764
vt -3.937008 3.330669E-15
vt 3.937008 7.627953
vt 2.952756 6.889764
vt -4.92126 0.984252
vt -4.92126 3.330669E-15
vt 1.968504 6.496063
vt 1.968504 -3.346457
vt -1.968504 6.496063
vt -1.968504 -3.346457
vt -5.905512 5.905512
vt -5.905512 7.874016
vt 5.905512 5.905512
vt 5.905512 7.874016
vt 5.905512 1.476378
vt 5.905512 1.968504
vt 7.874016 1.476378
vt 7.874016 1.968504
vt -5.905512 1.476378
vt -5.905512 1.968504
vt 5.905512 7.38189
vt -5.905512 7.38189
vt -1.968504 7.38189
vt -1.968504 7.874016
vt 0 7.38189
vt 0 7.874016
vt -5.905512 -1.968504
vt -5.905512 0
vt 5.905512 -1.968504
vt 5.905512 0
vt 1.968504 4.429134
vt 3.937008 4.429134
vt 3.937008 4.92126
vt 5.905512 10.33465
vt -5.905512 10.33465
vt 5.905512 10.82677
vt -5.905512 10.82677
vt -3.937008 10.33465
vt -3.937008 10.82677
vt -5.905512 -5.905512
vt -5.905512 -3.937008
vt 5.905512 -5.905512
vt 5.905512 -3.937008
vt 3.937008 10.82677
vt 3.937008 10.33465
vt 1.968504 7.874016
vt 1.968504 7.38189
vt 5.905512 4.429134
vt -5.905512 4.429134
vt 5.905512 4.92126
vt -5.905512 4.92126
vt -5.905512 3.937008
vt 5.905512 3.937008
vt -1.968504 4.429134
vt -3.937008 4.92126
vt -3.937008 4.429134
vt -7.874016 1.968504
vt -7.874016 1.476378
vt 1.968504 -2.952756
vt -1.968504 -2.952756
vt -1.968504 -3.937008
vt 1.968504 -3.937008
vt -3.937008 1.968504
vt -3.937008 0.984252
vt -7.874016 0.984252
vt 5.905512 0.984252
vt -5.905512 0.984252
vt 3.937008 7.874016
vt 0 6.889764
vt 5.905512 9.84252
vt -5.905512 9.84252
vt 7.874016 10.82677
vt 3.937008 9.84252
vt -5.905512 -7.874016
vt 5.905512 -7.874016
vt -7.874016 10.82677
vt -3.937008 9.84252
vt 0 3.937008
vt 0 4.92126
vt 3.937008 3.937008
vt -3.937008 3.937008
vt 5.905512 6.889764
vt -5.905512 6.889764
vt -3.937008 7.874016
vt 1.968504 6.889764
vt 1.968504 7.627953
vt -1.968504 7.627953
vt -1.968504 6.889764
vt 1.968504 -6.889764
vt -1.968504 -6.889764
vt -1.968504 -7.874016
vt 1.968504 -7.874016
vt 3.937008 0.984252
vt 3.937008 1.968504
vt 7.874016 0.984252

usemtl dark

f 3/3/1 2/2/1 1/1/1
f 2/2/1 3/3/1 4/4/1
f 7/7/2 6/6/2 5/5/2
f 6/6/2 7/7/2 8/8/2
f 7/11/3 9/10/3 8/9/3
f 9/10/3 7/11/3 10/12/3
f 9/10/3 10/12/3 11/13/3
f 10/12/3 7/11/3 12/14/3
f 12/14/3 7/11/3 4/15/3
f 4/15/3 7/11/3 2/16/3
f 13/17/3 11/13/3 10/12/3
f 2/20/4 5/19/4 1/18/4
f 5/19/4 2/20/4 7/21/4
f 9/24/5 6/23/5 8/22/5
f 6/23/5 9/24/5 14/25/5
f 11/28/6 16/27/6 15/26/6
f 16/27/6 11/28/6 13/29/6
f 15/32/7 6/31/7 14/30/7
f 6/31/7 15/32/7 17/33/7
f 6/31/7 17/33/7 5/34/7
f 17/33/7 15/32/7 16/35/7
f 5/34/7 17/33/7 18/36/7
f 5/34/7 18/36/7 3/37/7
f 5/34/7 3/37/7 1/38/7
f 12/41/6 3/40/6 18/39/6
f 3/40/6 12/41/6 4/42/6

usemtl metalDark

f 21/45/8 20/44/8 19/43/8
f 20/44/8 21/45/8 22/46/8
f 24/49/3 21/48/3 23/47/3
f 21/48/3 24/49/3 22/50/3
f 20/48/1 24/51/1 25/47/1
f 24/51/1 20/48/1 22/52/1
f 28/46/1 27/54/1 26/53/1
f 27/54/1 28/46/1 29/44/1
f 27/57/3 31/56/3 30/55/3
f 31/56/3 27/57/3 29/58/3
f 31/61/8 28/60/8 32/59/8
f 28/60/8 31/61/8 29/62/8
f 35/64/3 34/18/3 33/63/3
f 34/18/3 35/64/3 36/65/3
f 39/68/1 38/67/1 37/66/1
f 38/67/1 39/68/1 40/69/1
f 38/70/3 42/69/3 41/67/3
f 42/69/3 38/70/3 40/71/3
f 42/74/8 39/73/8 43/72/8
f 39/73/8 42/74/8 40/75/8
f 39/76/7 44/66/7 43/68/7
f 44/66/7 39/76/7 37/77/7
f 28/58/7 45/79/7 32/78/7
f 45/79/7 28/58/7 26/57/7
f 47/82/1 35/81/1 46/80/1
f 35/81/1 47/82/1 36/83/1
f 34/48/8 47/84/8 48/52/8
f 47/84/8 34/48/8 36/85/8
f 47/87/7 49/86/7 48/20/7
f 49/86/7 47/87/7 46/88/7
f 20/89/7 50/51/7 19/52/7
f 50/51/7 20/89/7 25/90/7

usemtl metal

f 53/60/4 52/75/4 51/62/4
f 52/75/4 53/60/4 18/91/4
f 18/91/4 53/60/4 12/92/4
f 12/92/4 53/60/4 10/93/4
f 10/93/4 53/60/4 54/73/4
f 17/94/4 52/75/4 18/91/4
f 19/52/7 56/96/7 55/95/7
f 56/96/7 19/52/7 50/51/7
f 56/96/7 50/51/7 57/97/7
f 57/97/7 50/51/7 25/90/7
f 58/85/8 19/43/8 55/84/8
f 19/43/8 58/85/8 21/45/8
f 58/48/5 56/99/5 59/98/5
f 56/99/5 58/48/5 55/52/5
f 32/78/7 52/33/7 60/100/7
f 52/33/7 32/78/7 45/79/7
f 52/33/7 45/79/7 51/101/7
f 51/101/7 45/79/7 26/57/7
f 61/44/4 56/85/4 57/46/4
f 56/85/4 61/44/4 59/84/4
f 63/68/5 9/24/5 62/102/5
f 9/24/5 63/68/5 14/25/5
f 14/25/5 63/68/5 64/103/5
f 64/103/5 63/68/5 65/69/5
f 43/68/7 64/30/7 65/104/7
f 64/30/7 43/68/7 44/66/7
f 64/30/7 44/66/7 66/105/7
f 66/105/7 44/66/7 37/77/7
f 37/66/1 67/103/1 66/102/1
f 67/103/1 37/66/1 38/67/1
f 63/107/8 43/72/8 65/106/8
f 43/72/8 63/107/8 42/74/8
f 67/109/3 63/108/3 62/10/3
f 41/67/3 67/109/3 38/70/3
f 42/69/3 63/108/3 41/67/3
f 63/108/3 67/109/3 41/67/3
f 70/112/3 69/111/3 68/110/3
f 69/111/3 70/112/3 33/63/3
f 33/63/3 70/112/3 35/64/3
f 34/18/3 69/111/3 33/63/3
f 70/84/4 72/62/4 71/85/4
f 72/62/4 70/84/4 68/60/4
f 48/20/7 72/110/7 73/111/7
f 72/110/7 48/20/7 49/86/7
f 72/110/7 49/86/7 71/113/7
f 71/113/7 49/86/7 46/88/7
f 46/80/1 70/84/1 71/85/1
f 70/84/1 46/80/1 35/81/1
f 26/53/1 53/115/1 51/114/1
f 53/115/1 26/53/1 27/54/1
f 74/75/8 32/59/8 60/73/8
f 32/59/8 74/75/8 31/61/8
f 53/101/3 74/116/3 54/12/3
f 74/116/3 53/101/3 30/55/3
f 30/55/3 53/101/3 27/57/3
f 31/56/3 74/116/3 30/55/3
f 74/46/5 10/117/5 54/114/5
f 10/117/5 74/46/5 13/118/5
f 13/118/5 74/46/5 16/119/5
f 60/44/5 16/119/5 74/46/5
f 52/115/5 16/119/5 60/44/5
f 16/119/5 52/115/5 17/120/5
f 69/82/5 72/84/5 68/85/5
f 72/84/5 69/82/5 73/83/5
f 69/62/8 48/52/8 73/60/8
f 48/52/8 69/62/8 34/48/8
f 67/73/4 64/107/4 66/75/4
f 64/107/4 67/73/4 15/121/4
f 15/121/4 67/73/4 11/122/4
f 11/122/4 67/73/4 9/123/4
f 9/123/4 67/73/4 62/106/4
f 14/124/4 64/107/4 15/121/4
f 25/47/1 61/99/1 57/98/1
f 61/99/1 25/47/1 24/51/1
f 61/127/3 58/126/3 59/125/3
f 58/126/3 61/127/3 23/47/3
f 23/47/3 61/127/3 24/49/3
f 21/48/3 58/126/3 23/47/3

