# Created by Kenney (www.kenney.nl)

mtllib craterLarge.mtl

g craterLarge

v 0 0.024 0.1468151
v 0.1038139 0.024 0.1038139
v 0 0.12 0.2097358
v 0.1483057 0.12 0.1483057
v 0 0.024 -0.1468151
v -0.1038139 0.024 -0.1038139
v 0 0.12 -0.2097358
v -0.1483057 0.12 -0.1483057
v -0.2097359 0.12 0
v -0.1468151 0.024 0
v 0.1468151 0.024 0
v 0.1038139 0.024 -0.1038139
v -0.1038139 0.024 0.1038139
v -0.1483057 0.12 0.1483057
v 0.1483057 0.12 -0.1483057
v 0.2097358 0.12 0
v -0.1816943 0.12 0.1816943
v -0.3132658 0 0.3132659
v -0.2569544 0.12 0
v -0.4430249 0 0
v 0.4430249 0 0
v 0.3132659 0 0.3132659
v 0.2569544 0.12 0
v 0.1816943 0.12 0.1816943
v 0 0.12 0.2569544
v 0 0 0.4430249
v -0.1816943 0.12 -0.1816943
v -0.3132658 0 -0.3132659
v 0.3132659 0 -0.3132659
v 0.1816943 0.12 -0.1816943
v 0 0 -0.4430249
v 0 0.12 -0.2569544

vn -0.3273466 0.5179718 -0.7902845
vn 0.3273466 0.5179718 0.7902845
vn 0.7902845 0.5179717 0.3273466
vn 0 1 0
vn 0.7902845 0.5179717 -0.3273466
vn -0.3273466 0.5179718 0.7902845
vn -0.7902845 0.5179717 -0.3273466
vn -0.7902845 0.5179717 0.3273466
vn 0.3273466 0.5179718 -0.7902845
vn -0.5288198 0.8199812 0.2190443
vn 0.5288198 0.8199812 0.2190443
vn -0.2190443 0.8199812 0.5288198
vn -0.5288198 0.8199812 -0.2190443
vn 0.2190443 0.8199812 0.5288198
vn 0.5288198 0.8199812 -0.2190443
vn 0.2190443 0.8199812 -0.5288198
vn -0.2190443 0.8199812 -0.5288198
vn 0 -1 0

vt 2.211956 3.574289
vt -2.211956 3.574289
vt 3.159938 7.992733
vt -3.159938 7.992733
vt -5.78012 1.421085E-14
vt -4.087162 4.087162
vt -4.087162 -4.087162
vt 5.684342E-14 -5.78012
vt 5.684342E-14 5.78012
vt 4.087162 -4.087162
vt 4.087162 4.087162
vt 5.78012 1.421085E-14
vt 3.871347 -4.959549
vt 6.674736 -13.21337
vt -3.871347 -4.959549
vt -6.674736 -13.21337
vt 17.44193 0
vt 12.3333 -12.3333
vt 12.3333 12.3333
vt 0 17.44193
vt 0 -17.44193
vt -12.3333 12.3333
vt -12.3333 -12.3333
vt -17.44193 0
vt -10.11632 1.421085E-14
vt -8.257315 0
vt -7.153316 -7.153316
vt -5.838803 -5.838803
vt -5.684342E-14 -10.11632
vt 0 -8.257315
vt 7.153316 -7.153316
vt 5.838803 -5.838803
vt 8.257315 0
vt 10.11632 0
vt -7.153316 7.153316
vt -5.838803 5.838803
vt -5.684342E-14 10.11632
vt -5.684342E-14 8.257315
vt 5.838803 5.838803
vt 7.153316 7.153316

usemtl rockDark

f 3/3/1 2/2/1 1/1/1
f 2/2/1 3/3/1 4/4/1
f 7/3/2 6/2/2 5/1/2
f 6/2/2 7/3/2 8/4/2
f 9/4/3 6/1/3 8/3/3
f 6/1/3 9/4/3 10/2/3
f 12/7/4 2/6/4 11/5/4
f 2/6/4 12/7/4 5/8/4
f 2/6/4 5/8/4 1/9/4
f 1/9/4 5/8/4 6/10/4
f 1/9/4 6/10/4 13/11/4
f 13/11/4 6/10/4 10/12/4
f 14/4/5 10/1/5 9/3/5
f 10/1/5 14/4/5 13/2/5
f 15/3/6 5/2/6 12/1/6
f 5/2/6 15/3/6 7/4/6
f 11/2/7 4/3/7 16/4/7
f 4/3/7 11/2/7 2/1/7
f 12/2/8 16/3/8 15/4/8
f 16/3/8 12/2/8 11/1/8
f 14/3/9 1/2/9 13/1/9
f 1/2/9 14/3/9 3/4/9

usemtl rock

f 19/15/10 18/14/10 17/13/10
f 18/14/10 19/15/10 20/16/10
f 23/13/11 22/16/11 21/14/11
f 22/16/11 23/13/11 24/15/11
f 17/15/12 26/14/12 25/13/12
f 26/14/12 17/15/12 18/16/12
f 28/16/13 19/13/13 27/15/13
f 19/13/13 28/16/13 20/14/13
f 24/13/14 26/16/14 22/14/14
f 26/16/14 24/13/14 25/15/14
f 29/14/15 23/15/15 21/16/15
f 23/15/15 29/14/15 30/13/15
f 31/14/16 30/15/16 29/16/16
f 30/15/16 31/14/16 32/13/16
f 31/16/17 27/13/17 32/15/17
f 27/13/17 31/16/17 28/14/17
f 22/19/18 29/18/18 21/17/18
f 29/18/18 22/19/18 26/20/18
f 29/18/18 26/20/18 31/21/18
f 31/21/18 26/20/18 18/22/18
f 31/21/18 18/22/18 28/23/18
f 28/23/18 18/22/18 20/24/18
f 30/27/4 16/26/4 23/25/4
f 16/26/4 30/27/4 15/28/4
f 15/28/4 30/27/4 32/29/4
f 15/28/4 32/29/4 7/30/4
f 7/30/4 32/29/4 27/31/4
f 7/30/4 27/31/4 8/32/4
f 8/32/4 27/31/4 9/33/4
f 9/33/4 27/31/4 19/34/4
f 16/26/4 24/35/4 23/25/4
f 24/35/4 16/26/4 4/36/4
f 24/35/4 4/36/4 25/37/4
f 25/37/4 4/36/4 3/38/4
f 25/37/4 3/38/4 14/39/4
f 25/37/4 14/39/4 17/40/4
f 17/40/4 14/39/4 9/33/4
f 17/40/4 9/33/4 19/34/4

