# Created by Kenney (www.kenney.nl)

mtllib rock_largeB.mtl

g rock_largeB

v 0.2588226 0.15504 -0.2108229
v 0.2588226 0.09302399 -0.2108229
v 0.2124804 0.15504 -0.1644808
v 0.2227027 0.09302399 -0.1747031
v 0.1610627 0.5 -0.1882585
v 0.1610627 0.3 -0.1882585
v 0.2720628 0.5 0.003999114
v 0.2720628 0.3 0.003999114
v 0.1610627 0.3 0.1962568
v -0.06093717 0.3 0.1962568
v 0.1610627 0.5 0.1962568
v -0.06093717 0.5 0.1962568
v -0.1335166 0.3 0.07054591
v -0.1335166 0.4 0.07054591
v -0.1719372 0.5 0.003999114
v -0.1719372 0.4 0.003999114
v 0.04805088 0.09302399 -0.4215947
v 0.04805088 0.15504 -0.4215947
v -0.01820683 0.09302399 -0.355337
v -0.0356617 0.15504 -0.337882
v 0.2142812 0.15504 -0.3770534
v 0.2142812 0.09302399 -0.3770534
v 0.0324012 3.169347E-16 -0.48
v 0.2570369 3.169347E-16 -0.4198091
v 0.1799076 0.15504 -0.2208986
v 0.2651422 3.169347E-16 -0.1430876
v 0.3500627 3.169347E-16 0.003999114
v 0.3172278 3.169347E-16 -0.1951734
v 0.04465485 3.169347E-16 0.2638068
v -0.0999372 3.169347E-16 0.2638068
v 0.09325445 0.09302399 0.2428609
v 0.08951283 0.15504 0.228897
v 0.1799076 0.15504 0.228897
v 0.3249375 0 0.04751742
v 0.4098091 3.169347E-16 0.07025874
v 0.2768855 0.09302399 0.08885396
v 0.3670534 0.09302399 0.1130143
v 0.3055552 3.169347E-16 0.4593391
v 0.0809195 3.169347E-16 0.3991482
v 0.2899055 0.09302399 0.4009339
v 0.1236751 0.09302399 0.3563926
v 0.3670534 0.15504 0.1130143
v 0.2629216 0.15504 0.08511233
v -0.06093717 0.4 -0.1882585
v 0.07808888 0.4 -0.1882585
v -0.06093717 0.5 -0.1882585
v 0.07808888 0.3 -0.1882585
v -0.2554903 3.169347E-16 -0.3815193
v -0.06607938 3.169347E-16 -0.3815193
v -0.2164903 0.24 -0.3139694
v 0.005509615 0.24 -0.3139694
v 0.01931572 0.15504 -0.337882
v 0.005509615 0.4 -0.3139694
v 0.0702889 0.24 -0.2017685
v 0.4115946 0.09302399 0.2792448
v 0.47 3.169347E-16 0.2948945
v -0.2164903 0.4 -0.3139694
v -0.3274903 0.24 -0.1217117
v -0.3274903 0.4 -0.1217117
v 0.4115946 0.15504 0.2792448
v 0.2899055 0.15504 0.4009339
v 0.1236751 0.15504 0.3563926
v 0.08685613 0.15504 -0.2208986
v -0.4054904 3.169347E-16 -0.1217117
v -0.1407964 0.272 0.07054591
v -0.110898 0.272 0.1223314
v -0.1064262 0.2644975 0.1334556
v -0.1215947 0.1632 0.1528007
v -0.1212792 6.778904E-16 0.2268413
v -0.2164903 0.272 0.07054591
v -0.2164903 0.4 0.07054591
v -0.2698374 0.24 -0.0218538
v -0.3166485 0.1263911 -0.0389806
v -0.3594763 6.778904E-16 -0.04201305
v -0.2970319 0.1632 -0.02572417
v -0.1064262 0.272 0.1334556
v -0.199574 0.272 0.2522513
v -0.199574 0.1632 0.2522513
v -0.3121862 0.1632 -0.02788103
v -0.3121862 0.272 -0.02788103
v -0.405334 0.1632 0.09091473
v -0.405334 0.272 0.09091473
v -0.2698374 0.272 -0.0218538
v -0.3490279 0.1632 0.2309809
v -0.3490279 0.272 0.2309809
v -0.457845 6.778904E-16 0.08344126
v -0.3817554 6.778904E-16 0.2727199
v -0.1797907 6.778904E-16 0.3014637

vn 0.7071068 0 0.7071068
vn 0.8660254 0 -0.5
vn 0 0 1
vn -0.8660254 0 0.5
vn -0.7071068 0 -0.7071068
vn 0.8660254 0 0.5
vn 0.9659258 0 -0.258819
vn 0.2255402 0.4905369 -0.8417275
vn 0.8448727 0.2196669 -0.4877874
vn 0.6161873 0.4905369 0.6161873
vn 0.258819 0 -0.9659258
vn 0.8417275 0.4905369 -0.2255402
vn 0 0.2196669 0.975575
vn -0.2255402 0.4905369 0.8417275
vn 0 0 -1
vn 0 0.2709313 -0.9625987
vn 0.8448727 0.2196669 0.4877874
vn -0.8660254 0 -0.5
vn -0.9659258 0 0.258819
vn 0 0.2196669 -0.975575
vn -0.258819 0 0.9659258
vn -0.8336349 0.2709313 -0.4812994
vn -0.8417275 0.4905369 0.2255402
vn -0.8448727 0.2196669 0.4877874
vn -0.8336349 0.2709313 0.4812994
vn 0.786935 0 0.6170359
vn -0.786935 0 -0.6170359
vn -0.6161873 0.4905369 -0.6161873
vn 0.8336349 0.2709313 -0.4812994
vn 0.9278363 0 -0.3729878
vn -0.9278363 0 0.3729878
vn 0.1409012 0 -0.9900237
vn -0.1409012 0 0.9900237
vn -0.8931339 0.2709313 0.3590375
vn 0 -1 0
vn 0.1356313 0.2709313 -0.9529954
vn -0.7575026 0.2709313 -0.5939579
vn 0.7575026 0.2709313 0.5939579
vn -0.1356313 0.2709313 0.9529954
vn 0 1 0

vt 13.07439 6.103937
vt 13.07439 3.662362
vt 10.49417 6.103937
vt 11.06332 3.662362
vt 3.248238 19.68504
vt 3.248238 11.81102
vt -5.491919 19.68504
vt -5.491919 11.81102
vt 6.341054 11.81102
vt -2.399103 11.81102
vt 6.341054 19.68504
vt -2.399103 19.68504
vt -0.2229803 11.81102
vt -0.2229803 15.74803
vt 5.491919 11.81102
vt 5.491919 19.68504
vt -3.248238 19.68504
vt -3.248238 15.74803
vt -13.07439 3.662362
vt -13.07439 6.103937
vt -9.385315 3.662362
vt -8.413465 6.103937
vt 5.219213 19.68504
vt 5.219213 11.81102
vt -3.520944 19.68504
vt -3.520944 11.81102
vt 12.15534 6.103937
vt 12.15534 3.662362
vt 5.379967 6.103937
vt 5.379967 3.662362
vt 3.658898 -9.116077
vt -5.497008 -9.116077
vt 2.46863 -4.913327
vt -4.30674 -4.913327
vt 3.99016 3.652204
vt 1.425369 3.652204
vt 3.248238 9.502176
vt -5.491919 9.502176
vt -0.3406908 -2.604555
vt -7.027352 -2.604555
vt 1.572677 1.1495
vt 13.07439 2.535975
vt 14.26466 -1.666775
vt 11.06332 2.535975
vt 11.36465 -1.666775
vt 2.46863 3.662362
vt -4.30674 3.662362
vt 2.46863 6.103937
vt -4.30674 6.103937
vt 13.3456 -6.893263
vt 4.189699 -6.893263
vt 12.15534 -2.690513
vt 5.379967 -2.690513
vt 1.758067 -2.281481
vt -3.934536 -2.281481
vt 3.671435 1.472574
vt -2.399103 9.825251
vt 3.524127 3.975278
vt 7.082975 3.975278
vt 6.341054 9.825251
vt -12.8411 -0.7377689
vt -16.30037 -0.7377689
vt -11.43496 3.464981
vt -15.1101 3.464981
vt 16.30037 -7.041408
vt 7.144466 -7.041408
vt 15.1101 -2.838658
vt 8.334734 -2.838658
vt -15.1101 3.662362
vt -15.1101 6.103937
vt -11.43496 3.662362
vt -10.86581 6.103937
vt 2.399103 15.74803
vt -3.074366 15.74803
vt 2.399103 19.68504
vt -6.341054 19.68504
vt -3.074366 11.81102
vt -6.341054 11.81102
vt 10.05867 -4.06951
vt 2.601552 -4.06951
vt 8.523241 5.746438
vt 0.7168061 -0.2648486
vt 1.404007 2.271592
vt -0.2169161 5.746438
vt -0.7604594 2.271592
vt 10.59648 15.74803
vt 10.59648 9.448819
vt 4.881582 15.74803
vt 5.495756 9.448819
vt 4.881582 11.81102
vt 6.754647 -2.639141
vt 2.273676 3.617618
vt 5.219213 9.46759
vt -3.520944 9.46759
vt 4.776276 -2.639141
vt -4.262865 3.617618
vt 2.420984 1.114915
vt 3.68447 -6.242636
vt 4.874738 -10.44539
vt -3.0909 -6.242636
vt -4.281168 -10.44539
vt -6.443319 9.448819
vt -6.443319 15.74803
vt 2.296838 9.448819
vt 2.296838 15.74803
vt 3.68447 6.103937
vt 3.68447 3.662362
vt -3.0909 6.103937
vt -3.0909 3.662362
vt 9.616735 6.103937
vt 14.81332 6.103937
vt 10.18589 3.662362
vt 14.81332 3.662362
vt -8.037949 6.103937
vt -8.037949 3.662362
vt -14.81332 6.103937
vt -14.81332 3.662362
vt -3.419531 4.044449
vt -7.082975 4.044449
vt -2.767279 7.473076
vt -6.341054 9.894423
vt -3.074366 9.894423
vt 8.523241 9.448819
vt -0.2169161 9.448819
vt 8.523241 15.74803
vt -0.2169161 15.74803
vt -6.847681 -7.293567
vt -16.00359 -7.293567
vt -8.037949 -3.090816
vt -14.81332 -3.090816
vt 15.1101 3.662362
vt 8.334734 3.662362
vt 15.1101 6.103937
vt 8.334734 6.103937
vt -7.978752 -4.394856
vt -6.443319 5.421092
vt 3.832271 -4.394856
vt 2.296838 5.421092
vt 10.18589 3.71714
vt 14.81332 3.71714
vt 10.48722 -0.4856102
vt 16.00359 -0.4856102
vt -0.2229803 10.2175
vt 5.491919 10.2175
vt -0.3662874 9.087535
vt 1.987916 9.087535
vt 2.45523 8.784764
vt 2.816218 4.696826
vt 5.346881 -1.889235
vt 7.027352 -1.889235
vt -5.543167 10.70866
vt -8.523241 10.70866
vt -5.256553 11.81102
vt -8.523241 15.74803
vt -5.256553 15.74803
vt -10.59648 6.719341
vt -6.056877 6.719341
vt -12.13192 -3.096607
vt -7.5623 2.072761
vt -8.508758 -3.096607
vt -6.724164 3.578238
vt -6.720065 10.70866
vt -6.720065 10.41329
vt -12.66337 10.70866
vt -7.687891 6.425197
vt -12.66337 6.425197
vt 6.720065 6.425197
vt 6.720065 10.70866
vt 12.66337 6.425197
vt 12.66337 10.70866
vt -10.59648 9.448819
vt -10.59648 15.74803
vt -6.056877 9.448819
vt -6.056877 10.70866
vt -1.856324 15.74803
vt -1.856324 10.70866
vt -14.26466 -6.112402
vt -13.07439 -1.909652
vt -8.781486 -6.112402
vt -9.385315 -1.909652
vt -5.219213 15.74803
vt -5.219213 19.68504
vt 3.520944 15.74803
vt 3.520944 19.68504
vt 11.14003 3.895188
vt 5.821882 3.895188
vt 10.59648 7.370034
vt 5.495756 7.370034
vt -3.312176 10.70866
vt -2.840153 10.70866
vt -3.312176 10.41329
vt -2.631131 6.425197
vt -2.631131 10.70866
vt 3.312176 6.425197
vt 3.312176 10.70866
vt 11.7202 6.425197
vt 10.63876 9.448819
vt 12.32285 6.425197
vt 12.32285 10.70866
vt 10.63876 10.70866
vt -6.379542 6.425197
vt -12.32285 6.425197
vt -6.379542 10.70866
vt -12.32285 10.70866
vt -3.675225 -4.863194
vt -2.631131 1.811651
vt 4.356271 -4.863194
vt 3.312176 1.811651
vt 18.50394 11.61002
vt 16.13421 2.766092
vt 12.02973 18.08422
vt 12.79281 1.870766
vt 10.43867 -5.633372
vt 13.782 0.1574467
vt 3.185808 15.7145
vt 10.11956 -16.52792
vt 12.48929 -7.68399
vt 1.275637 -18.89764
vt 1.758067 10.38609
vt -3.934536 10.38609
vt -2.601552 -15.02045
vt -10.05867 -15.02045
vt -4.774772 8.930762
vt -7.078372 11.86865
vt -15.02974 10.737
vt -14.15261 -1.654055
vt -18.02539 3.28509
vt -15.96419 -4.791801
vt 12.55834 4.854177
vt 11.7202 6.359653
vt 12.32285 6.359653
vt 7.431033 -3.293927
vt 6.484575 1.87544
vt 13.70747 -3.293927
vt 6.720065 3.380917
vt 12.66337 3.380917
vt -7.687891 6.199858
vt -9.974135 -0.4749874
vt -12.66337 6.199858
vt -13.70747 -0.4749874
vt -5.335447 -3.453723
vt -13.36694 -3.453723
vt -6.379542 3.221121
vt -12.32285 3.221121
vt -10.18987 -8.300117
vt -8.365371 -6.475623
vt -8.43627 -14.84462
vt -7.082975 -8.696797
vt -1.891765 -16.59822
vt -3.419531 -8.696797
vt -0.7604594 -13.30244
vt 1.404007 -13.30244
vt -10.71113 0.1574467
vt -6.341054 7.726645
vt -6.341054 -7.411752
vt 2.399103 -7.411752
vt 2.399103 7.726645
vt 6.769182 0.1574467
vt -16.20452 10.99389
vt -11.41361 15.7848
vt -14.45092 4.449384
vt -10.35125 3.350879
vt -4.869101 14.0312
vt -7.082975 9.01169
vt -3.524127 9.01169
vt -3.074366 -7.411752
vt -0.2169161 -12.361
vt 8.523241 -12.361
vt 8.523241 2.777397
vt 5.256553 2.777397
vt 12.89332 -4.791801
vt 4.190007 5.254157
vt 7.85724 9.931153
vt 4.366066 4.816197
vt 5.543167 2.777397
vt 13.74125 9.093735
vt 10.62352 -0.8603881
vt 12.2908 -1.097678
vt 15.95804 3.579319

usemtl rockTrack

f 3/3/1 2/2/1 1/1/1
f 2/2/1 3/3/1 4/4/1
f 7/7/2 6/6/2 5/5/2
f 6/6/2 7/7/2 8/8/2
f 11/11/3 10/10/3 9/9/3
f 10/10/3 11/11/3 12/12/3
f 10/15/4 14/14/4 13/13/4
f 12/16/4 14/14/4 10/15/4
f 15/17/4 14/14/4 12/16/4
f 14/14/4 15/17/4 16/18/4
f 19/21/5 18/20/5 17/19/5
f 18/20/5 19/21/5 20/22/5
f 11/25/6 8/24/6 7/23/6
f 8/24/6 11/25/6 9/26/6
f 1/29/7 22/28/7 21/27/7
f 22/28/7 1/29/7 2/30/7
f 17/33/8 24/32/8 23/31/8
f 24/32/8 17/33/8 22/34/8
f 6/37/9 3/36/9 25/35/9
f 3/36/9 6/37/9 8/38/9
f 3/36/9 8/38/9 26/39/9
f 26/39/9 8/38/9 27/40/9
f 26/39/9 4/41/9 3/36/9
f 4/44/10 28/43/10 2/42/10
f 28/43/10 4/44/10 26/45/10
f 18/48/11 22/47/11 17/46/11
f 22/47/11 18/48/11 21/49/11
f 22/52/12 28/51/12 24/50/12
f 28/51/12 22/52/12 2/53/12
f 31/56/13 30/55/13 29/54/13
f 30/55/13 31/56/13 10/57/13
f 10/57/13 31/56/13 32/58/13
f 10/57/13 32/58/13 33/59/13
f 10/57/13 33/59/13 9/60/13
f 36/63/8 35/62/8 34/61/8
f 35/62/8 36/63/8 37/64/8
f 40/67/14 39/66/14 38/65/14
f 39/66/14 40/67/14 41/68/14
f 36/71/11 42/70/11 37/69/11
f 42/70/11 36/71/11 43/72/11
f 46/75/15 45/74/15 44/73/15
f 5/76/15 45/74/15 46/75/15
f 5/76/15 47/77/15 45/74/15
f 47/77/15 5/76/15 6/78/15
f 50/81/16 49/80/16 48/79/16
f 49/80/16 50/81/16 19/82/16
f 19/82/16 50/81/16 20/83/16
f 51/84/16 20/83/16 50/81/16
f 20/83/16 51/84/16 52/85/16
f 45/88/2 51/87/2 53/86/2
f 51/87/2 45/88/2 54/89/2
f 54/89/2 45/88/2 47/90/2
f 8/93/17 43/92/17 27/91/17
f 43/92/17 8/93/17 9/94/17
f 27/91/17 43/92/17 34/95/17
f 43/92/17 9/94/17 33/96/17
f 36/97/17 34/95/17 43/92/17
f 40/100/10 56/99/10 55/98/10
f 56/99/10 40/100/10 38/101/10
f 58/104/18 57/103/18 50/102/18
f 57/103/18 58/104/18 59/105/18
f 61/108/1 55/107/1 60/106/1
f 55/107/1 61/108/1 40/109/1
f 31/112/19 62/111/19 32/110/19
f 62/111/19 31/112/19 41/113/19
f 60/116/7 37/115/7 42/114/7
f 37/115/7 60/116/7 55/117/7
f 54/120/20 25/119/20 63/118/20
f 25/119/20 54/120/20 6/121/20
f 6/121/20 54/120/20 47/122/20
f 57/125/15 51/124/15 50/123/15
f 51/124/15 57/125/15 53/126/15
f 37/129/12 56/128/12 35/127/12
f 56/128/12 37/129/12 55/130/12
f 61/133/21 41/132/21 40/131/21
f 41/132/21 61/133/21 62/134/21
f 64/137/22 50/136/22 48/135/22
f 50/136/22 64/137/22 58/138/22
f 29/141/23 41/140/23 31/139/23
f 41/140/23 29/141/23 39/142/23
f 65/145/24 10/144/24 13/143/24
f 10/144/24 65/145/24 66/146/24
f 10/144/24 66/146/24 67/147/24
f 10/144/24 67/147/24 68/148/24
f 10/144/24 68/148/24 69/149/24
f 10/144/24 69/149/24 30/150/24
f 13/153/3 70/152/3 65/151/3
f 70/152/3 13/153/3 71/154/3
f 71/154/3 13/153/3 14/155/3
f 64/158/25 72/157/25 58/156/25
f 72/157/25 64/158/25 73/159/25
f 73/159/25 64/158/25 74/160/25
f 72/157/25 73/159/25 75/161/25
f 77/164/26 67/163/26 76/162/26
f 67/163/26 77/164/26 68/165/26
f 68/165/26 77/164/26 78/166/26
f 81/169/27 80/168/27 79/167/27
f 80/168/27 81/169/27 82/170/27
f 72/173/4 59/172/4 58/171/4
f 59/172/4 72/173/4 83/174/4
f 59/172/4 83/174/4 71/175/4
f 71/175/4 83/174/4 70/176/4
f 49/179/28 17/178/28 23/177/28
f 17/178/28 49/179/28 19/180/28
f 16/183/18 46/182/18 44/181/18
f 46/182/18 16/183/18 15/184/18
f 51/187/29 63/186/29 52/185/29
f 63/186/29 51/187/29 54/188/29
f 67/191/30 66/190/30 76/189/30
f 84/194/31 82/193/31 81/192/31
f 82/193/31 84/194/31 85/195/31
f 79/198/32 72/197/32 75/196/32
f 72/197/32 79/198/32 80/199/32
f 72/197/32 80/199/32 83/200/32
f 77/203/33 84/202/33 78/201/33
f 84/202/33 77/203/33 85/204/33
f 87/207/34 81/206/34 86/205/34
f 81/206/34 87/207/34 84/208/34
f 38/211/35 35/210/35 56/209/35
f 35/210/35 38/211/35 34/212/35
f 26/213/35 34/212/35 38/211/35
f 34/212/35 26/213/35 27/214/35
f 26/213/35 38/211/35 39/215/35
f 26/213/35 39/215/35 24/216/35
f 24/216/35 28/217/35 26/213/35
f 24/216/35 39/215/35 23/218/35
f 23/218/35 39/215/35 29/219/35
f 23/218/35 29/219/35 30/220/35
f 23/218/35 30/220/35 49/221/35
f 49/221/35 30/220/35 48/222/35
f 48/222/35 30/220/35 69/223/35
f 48/222/35 69/223/35 88/224/35
f 48/222/35 88/224/35 87/225/35
f 48/222/35 87/225/35 74/226/35
f 74/226/35 87/225/35 86/227/35
f 64/228/35 48/222/35 74/226/35
f 79/231/36 75/230/36 73/229/36
f 86/234/37 73/233/37 74/232/37
f 73/233/37 86/234/37 79/235/37
f 79/235/37 86/234/37 81/236/37
f 78/239/38 69/238/38 68/237/38
f 69/238/38 78/239/38 88/240/38
f 78/243/39 87/242/39 88/241/39
f 87/242/39 78/243/39 84/244/39

usemtl rock

f 21/247/40 3/246/40 1/245/40
f 3/246/40 21/247/40 25/248/40
f 25/248/40 21/247/40 18/249/40
f 25/248/40 18/249/40 63/250/40
f 63/250/40 18/249/40 52/251/40
f 52/251/40 18/249/40 20/252/40
f 5/255/40 11/254/40 7/253/40
f 11/254/40 5/255/40 46/256/40
f 11/254/40 46/256/40 12/257/40
f 12/257/40 46/256/40 15/258/40
f 42/261/40 61/260/40 60/259/40
f 61/260/40 42/261/40 43/262/40
f 61/260/40 43/262/40 62/263/40
f 62/263/40 43/262/40 33/264/40
f 62/263/40 33/264/40 32/265/40
f 53/267/40 44/256/40 45/266/40
f 44/256/40 53/267/40 57/268/40
f 44/256/40 57/268/40 16/258/40
f 71/269/40 16/258/40 57/268/40
f 16/258/40 71/269/40 14/270/40
f 71/269/40 57/268/40 59/271/40
f 66/274/40 77/273/40 76/272/40
f 77/273/40 66/274/40 65/275/40
f 77/273/40 65/275/40 70/269/40
f 77/273/40 70/269/40 85/276/40
f 85/276/40 70/269/40 83/277/40
f 85/276/40 83/277/40 80/278/40
f 85/276/40 80/278/40 82/279/40

