# Created by Kenney (www.kenney.nl)

mtllib rock_largeA.mtl

g rock_largeA

v 0.3096457 0.3588867 -0.2063657
v 0.3096457 0.2153321 -0.2063657
v 0.3936934 0.3588867 -0.06079054
v 0.3936934 0.2153321 -0.06079054
v 0.1415498 0.2153321 -0.2063657
v 0.1415498 0.3588867 -0.2063657
v 0.1330657 0.2153321 -0.1916707
v 0.1220589 0.3588867 -0.1726062
v 0.1220589 0.3 -0.1726062
v 0.3096457 0.3588867 0.08478463
v 0.3096457 0.2153321 0.08478463
v 0.2261959 0.2153321 0.08478463
v 0.2041823 0.3 0.08478463
v 0.2041823 0.3588867 0.08478463
v 0.1120195 3.609557E-16 -0.2575138
v 0.3391759 3.609557E-16 -0.2575138
v -0.202213 0.3 0.01965141
v -0.202213 0.5 0.01965141
v -0.09121299 0.3 0.2119091
v -0.09121299 0.5 0.2119091
v -0.09121299 0.32805 -0.1726062
v -0.004419327 0.32805 -0.1726062
v -0.09121299 0.5 -0.1726062
v 0.130787 0.3588867 -0.1726062
v 0.130787 0.5 -0.1726062
v -0.004419327 0.3 -0.1726062
v 0.4527541 3.609557E-16 -0.06079054
v 0.3391759 3.609557E-16 0.1359327
v 0.2897241 6.527575E-16 0.1359327
v 0.09752512 0 0.431819
v 0.2899954 0 0.3802466
v 0.3415678 0 0.1877763
v 0.1019982 3.609557E-16 -0.2401563
v 0.04168296 3.610264E-16 -0.2401563
v -0.0403018 0 0.279459
v -0.04337311 0 0.290921
v -0.05177832 0 -0.4020357
v -0.130213 3.609557E-16 0.279459
v -0.2947781 0 -0.4020357
v -0.2046561 7.498663E-16 0.1505197
v -0.253098 4.007413E-32 0.1886396
v -0.438108 4.007413E-32 0.114641
v -0.3887007 4.007413E-32 -0.1438261
v -0.4665284 4.007413E-32 -0.08258188
v -0.4162781 0 -0.1915915
v -0.2631881 0.19683 -0.3473202
v -0.3530982 0.19683 -0.1915915
v -0.0833683 0.32805 -0.3473202
v -0.0833683 0.19683 -0.3473202
v 0.006541848 0.32805 -0.1915915
v 0.004090905 0.19683 -0.1958367
v 0.006541848 0.2156834 -0.1915915
v 0.2417871 0.5 0.01965141
v 0.2417871 0.3588867 0.01965141
v 0.130787 0.5 0.2119091
v 0.130787 0.3 0.2119091
v -0.1701617 0.3 -0.0358628
v -0.1701617 0.32805 -0.0358628
v -0.3530982 0.32805 -0.1915915
v -0.2631881 0.19683 -0.0358628
v -0.2631881 0.32805 -0.0358628
v -0.2631881 0.32805 -0.3473202
v -0.196986 0.19683 -0.0358628
v 0.2464035 0.05085818 0.1238523
v 0.2259699 0.1032964 0.1356295
v 0.2915255 0.1032964 0.2011851
v 0.2146188 0.1721606 0.1242784
v 0.1474061 0.1721606 0.2406942
v 0.01237988 0.1032964 0.2562001
v 0.01653469 0.1721606 0.2406942
v -0.2073593 0.1721606 -0.02900517
v -0.2354512 0.1721606 0.01965141
v -0.2604873 0.1032964 0.1373618
v -0.2088542 0.1032964 0.09673059
v -0.3280377 0.1721606 -0.1344705
v -0.3432369 0.1032964 -0.1225098
v -0.2671475 0.1721606 -0.02900517
v 0.2533619 0.1032964 0.3436131
v -0.4184256 0.1032964 -0.06334221
v 0.2915255 0.1721606 0.2011851
v 0.1109339 0.1032964 0.3817767
v 0.2533619 0.1721606 0.3436131
v 0.1109339 0.1721606 0.3817767
v -0.3973947 0.1032964 0.08260262
v -0.4184256 0.1721606 -0.06334221
v -0.196543 0.1721606 0.08704257
v 0.006669283 0.1032964 0.2775121
v 0.006669283 0.1721606 0.2775121
v -0.2604873 0.1721606 0.1373618
v -0.3973947 0.1721606 0.08260262

vn 0.8660254 0 -0.5
vn -0.8660254 0 -0.5
vn 0.8660254 0 0.5
vn 0 0 1
vn 0 0.2311009 -0.9729297
vn -0.8660254 0 0.5
vn 0 0 -1
vn 0 -1 0
vn -0.8343866 0.2678278 -0.4817334
vn 0.8425819 0.2311009 -0.4864649
vn 0 0.2678278 -0.9634668
vn 0 0.2196669 -0.975575
vn 0.8343866 0.2678278 -0.4817334
vn 0.8425819 0.2311009 0.4864649
vn -0.8425819 0.2311009 -0.4864649
vn 0.6485692 0.3983917 -0.6485692
vn 0.8448727 0.2196669 0.4877874
vn 0 0.2196669 0.975575
vn 0 0.2311009 0.9729297
vn -0.8448727 0.2196669 -0.4877874
vn 0.5672137 0.3983917 0.7208
vn -0.8343866 0.2678278 0.4817334
vn 0.885962 0.3983917 0.2373928
vn -0.5672137 0.3983917 -0.7208
vn 0.7071068 0 -0.7071068
vn 0.258819 0 0.9659258
vn -0.907838 0.3983917 0.1308215
vn -0.6184084 0 -0.785857
vn -0.3406243 0.3983918 0.8516215
vn -0.8448727 0.2196669 0.4877874
vn -0.885962 0.3983917 -0.2373928
vn 0.9659258 0 0.258819
vn -0.7071068 0 0.7071068
vn -0.9659258 0 -0.258819
vn 0 0.2678278 0.9634668
vn -0.6485692 0.3983917 0.6485692
vn 0.2373928 0.3983917 0.885962
vn 0.6184084 0 0.785857
vn -0.3713678 0 0.9284858
vn -0.9897763 0 0.142629
vn 0 1 0

vt 0.9407528 14.1294
vt 0.9407528 8.47764
vt -5.677189 14.1294
vt -5.677189 8.47764
vt -9.822554 8.47764
vt -9.822554 14.1294
vt -9.154508 8.47764
vt -8.287828 14.1294
vt -8.287828 11.81102
vt 9.822554 14.1294
vt 9.822554 8.47764
vt 3.204611 14.1294
vt 3.204611 8.47764
vt 12.19077 8.47764
vt 8.905354 8.47764
vt 12.19077 14.1294
vt 8.038673 11.81102
vt 8.038673 14.1294
vt -4.410218 -2.342979
vt -13.35338 -2.342979
vt -5.57283 6.370538
vt -12.19077 6.370538
vt -3.310547 11.81102
vt -3.310547 19.68504
vt 5.429611 11.81102
vt 5.429611 19.68504
vt 3.591062 12.91535
vt 0.1739907 12.91535
vt 3.591062 19.68504
vt -4.805467 14.1294
vt -5.149096 14.1294
vt -5.149096 19.68504
vt -4.805467 11.81102
vt 0.1739907 11.81102
vt 17.82497 -2.393327
vt 13.35338 -10.13834
vt 13.35338 5.351681
vt 11.40646 5.351681
vt 4.410218 -10.13834
vt 3.839571 17.00075
vt 11.41714 14.97034
vt 13.44755 7.392769
vt 4.015677 -9.45497
vt 1.641061 -9.45497
vt -1.586685 11.00232
vt -1.707598 11.45358
vt -2.038512 -15.82818
vt -5.126495 11.00232
vt -11.60544 -15.82818
vt -8.057327 5.925972
vt -9.964487 7.426758
vt -17.24835 4.513422
vt -15.30318 -5.662445
vt -18.36726 -3.251256
vt -16.38891 -7.542974
vt -7.904883 -4.811446
vt -6.661182 3.231606
vt 1.662046 -4.811446
vt 0.4183449 3.231606
vt 13.48316 12.91535
vt 13.48316 7.749213
vt 6.403632 12.91535
vt 6.596619 7.749213
vt 6.403632 8.491472
vt 2.103364 -3.844027
vt -6.839801 -3.844027
vt 0.9407528 4.86949
vt -5.677189 4.86949
vt 4.089564 19.68504
vt 4.089564 14.1294
vt -4.650594 19.68504
vt 1.128562 14.1294
vt -4.650594 11.81102
vt 1.128562 11.81102
vt 11.60544 -4.239226
vt 2.038512 -4.239226
vt 10.36174 3.803824
vt 3.282213 3.803824
vt -5.57283 8.47764
vt -12.19077 8.47764
vt -5.57283 14.1294
vt -12.19077 14.1294
vt -4.015677 -2.076944
vt -5.238807 6.612947
vt -1.641061 -2.076944
vt -0.1610572 5.866282
vt -0.257551 6.627126
vt -4.805467 10.02979
vt 0.1739907 10.02979
vt 2.126881 11.81102
vt 2.126881 12.91535
vt 4.650594 11.81102
vt 4.650594 19.68504
vt -4.089564 19.68504
vt -4.089564 12.91535
vt -13.48316 7.749213
vt -13.48316 12.91535
vt -6.403632 7.749213
vt -6.403632 12.91535
vt 3.310547 14.1294
vt -5.429611 14.1294
vt 3.310547 19.68504
vt -5.429611 19.68504
vt 10.36174 7.749213
vt 3.282213 7.749213
vt 10.36174 12.91535
vt 3.282213 12.91535
vt 14.72686 -1.646789
vt 7.367713 -1.646789
vt 13.48316 6.396262
vt 6.596619 6.396262
vt 6.661182 12.91535
vt 6.661182 8.491472
vt 5.798099 12.91535
vt 5.798099 11.81102
vt -10.36174 7.749213
vt -10.36174 12.91535
vt -7.755355 7.749213
vt -6.699284 11.81102
vt -6.699284 12.91535
vt 9.822554 5.422591
vt 10.98517 -3.290926
vt 3.204611 5.422591
vt 2.042 -3.290926
vt -10.98517 -0.2888315
vt -9.822554 8.424685
vt -10.19608 -0.2888315
vt -9.154508 8.424685
vt 5.149096 11.81102
vt -3.591062 11.81102
vt 5.149096 19.68504
vt -3.591062 19.68504
vt -6.661182 7.749213
vt -6.661182 12.91535
vt 0.4183449 7.749213
vt 0.4183449 12.91535
vt -10.3075 0.4773452
vt -11.8498 -1.705665
vt -10.06651 2.728176
vt -13.7165 2.728176
vt -14.73633 -1.705665
vt 1.128562 9.626663
vt 1.561902 6.209823
vt -4.650594 9.626663
vt -0.01255536 4.467607
vt 0.6276569 -0.4276476
vt -5.30489 4.467607
vt -0.1761302 1.688537
vt -1.586685 -2.416846
vt -5.126495 -2.416846
vt 0.4873949 1.751759
vt -3.591062 9.689885
vt 0.6509697 4.530829
vt 5.803391 4.530829
vt 5.149096 9.689885
vt 13.35338 -1.236779
vt 11.40646 -1.236779
vt 12.19077 7.476738
vt 9.700924 0.8212222
vt 8.905354 7.476738
vt 2.654916 5.929505
vt 2.126881 10.09301
vt 3.092931 4.933954
vt 4.650594 10.09301
vt 5.30489 4.933954
vt -12.42343 0.1297773
vt -11.4036 4.563618
vt -9.996577 0.1297773
vt -8.816872 4.563618
vt -12.55541 -2.791227
vt -11.04227 4.243762
vt -10.93367 1.429766
vt -14.72686 -2.791227
vt -13.48316 5.251824
vt -6.403632 5.251824
vt -6.247755 4.243762
vt -3.660385 -5.937122
vt -11.50527 -5.937122
vt -4.680219 -1.503282
vt -10.48543 -1.503282
vt 12.42343 -5.543018
vt 8.524407 -5.543018
vt 11.4036 -1.109177
vt 7.636774 -1.109177
vt -9.434509 6.777978
vt -10.06651 4.066787
vt -13.7165 6.777978
vt -13.7165 4.066787
vt 6.13367 4.066787
vt 0.3284578 4.066787
vt 6.13367 6.777978
vt 0.3284578 6.777978
vt -5.837718 -7.057808
vt -4.817883 -2.623967
vt 2.007164 -7.057808
vt 0.9873293 -2.623967
vt 7.636774 4.066787
vt 6.875322 6.777978
vt 11.4036 4.066787
vt 11.4036 6.777978
vt -6.493825 -4.22141
vt -14.33871 -4.22141
vt -7.51366 0.2124302
vt -13.31887 0.2124302
vt -3.964843 4.764003
vt -3.310547 9.923059
vt -0.9011977 4.764003
vt 5.429611 9.923059
vt -0.8132277 1.984933
vt 1.103379 -2.183673
vt 6.965044 -2.183673
vt 9.616778 4.957722
vt 10.48543 4.957722
vt 11.03809 0.5238814
vt 11.50527 0.5238814
vt -4.680219 6.777978
vt -4.680219 4.066787
vt -10.48543 6.777978
vt -10.48543 4.066787
vt 7.911283 4.066787
vt 7.911283 6.777978
vt 13.7165 4.066787
vt 13.7165 6.777978
vt 8.984774 6.777978
vt 10.48543 6.777978
vt 9.616778 4.066787
vt 10.48543 4.066787
vt -8.163754 6.836199
vt -10.51762 6.836199
vt -7.755355 7.844261
vt -10.36174 7.844261
vt 7.911283 0.7262648
vt 13.7165 0.7262648
vt 6.891448 -3.707576
vt 14.73633 -3.707576
vt 7.153505 -6.938078
vt -0.6913769 -6.938078
vt 6.13367 -2.504237
vt 0.3284578 -2.504237
vt -8.816872 4.066787
vt -11.4036 4.066787
vt -8.200096 6.777978
vt -11.4036 6.777978
vt -7.51366 4.066787
vt -13.31887 4.066787
vt -7.51366 6.777978
vt -13.31887 6.777978
vt -4.817883 4.066787
vt -4.817883 6.777978
vt 0.9873293 4.066787
vt 0.9873293 6.777978
vt -9.519175 0.7736765
vt -5.149096 8.342875
vt -5.149096 -6.795522
vt 3.591062 -6.795522
vt 3.591062 8.342875
vt 7.961141 0.7736765
vt -0.257551 -7.542974
vt 0.1739907 -6.795522
vt 3.282213 -13.67402
vt 10.36174 -13.67402
vt 6.699284 -1.411923
vt 10.36174 -1.411923
vt 13.9015 -7.542974
vt -15.49974 -2.393327
vt -12.19077 3.337979
vt -12.19077 -8.124634
vt -5.57283 -8.124634
vt -4.805467 -6.795522
vt -8.038673 3.337979
vt -11.47738 7.920674
vt -9.974881 13.52808
vt -8.449558 4.892853
vt -4.367476 15.03058
vt -5.803391 9.476149
vt -0.6509697 9.476149
vt -0.2625708 10.92567
vt 8.163754 -1.141936
vt 9.269732 0.7736765
vt 10.51762 -1.141936
vt 10.2554 5.407942
vt 15.64546 3.252073
vt 12.91488 -5.294111
vt 16.47345 -2.493788
vt 7.73791 3.426871

usemtl rockTrack

f 3/3/1 2/2/1 1/1/1
f 2/2/1 3/3/1 4/4/1
f 7/7/2 6/6/2 5/5/2
f 6/6/2 7/7/2 8/8/2
f 8/8/2 7/7/2 9/9/2
f 10/12/3 4/11/3 3/10/3
f 4/11/3 10/12/3 11/13/3
f 10/16/4 12/15/4 11/14/4
f 12/15/4 10/16/4 13/17/4
f 13/17/4 10/16/4 14/18/4
f 5/21/5 16/20/5 15/19/5
f 16/20/5 5/21/5 2/22/5
f 19/25/6 18/24/6 17/23/6
f 18/24/6 19/25/6 20/26/6
f 23/29/7 22/28/7 21/27/7
f 22/28/7 23/29/7 8/30/7
f 8/30/7 23/29/7 24/31/7
f 24/31/7 23/29/7 25/32/7
f 9/33/7 22/28/7 8/30/7
f 22/28/7 9/33/7 26/34/7
f 28/37/8 16/36/8 27/35/8
f 16/36/8 28/37/8 29/38/8
f 16/36/8 29/38/8 15/39/8
f 29/38/8 30/40/8 15/39/8
f 29/38/8 31/41/8 30/40/8
f 31/41/8 29/38/8 32/42/8
f 15/39/8 30/40/8 33/43/8
f 33/43/8 30/40/8 34/44/8
f 34/44/8 30/40/8 35/45/8
f 35/45/8 30/40/8 36/46/8
f 35/45/8 37/47/8 34/44/8
f 37/47/8 35/45/8 38/48/8
f 37/47/8 38/48/8 39/49/8
f 39/49/8 38/48/8 40/50/8
f 39/49/8 40/50/8 41/51/8
f 39/49/8 41/51/8 42/52/8
f 39/49/8 42/52/8 43/53/8
f 43/53/8 42/52/8 44/54/8
f 45/55/8 39/49/8 43/53/8
f 45/58/9 46/57/9 39/56/9
f 46/57/9 45/58/9 47/59/9
f 50/62/1 49/61/1 48/60/1
f 49/61/1 50/62/1 51/63/1
f 51/63/1 50/62/1 52/64/1
f 2/67/10 27/66/10 16/65/10
f 27/66/10 2/67/10 4/68/10
f 55/71/3 54/70/3 53/69/3
f 54/70/3 55/71/3 14/72/3
f 56/73/3 14/72/3 55/71/3
f 14/72/3 56/73/3 13/74/3
f 46/77/11 37/76/11 39/75/11
f 37/76/11 46/77/11 49/78/11
f 6/81/7 2/80/7 5/79/7
f 2/80/7 6/81/7 1/82/7
f 34/85/12 7/84/12 33/83/12
f 7/84/12 34/85/12 51/86/12
f 7/84/12 51/86/12 52/87/12
f 7/84/12 52/87/12 9/88/12
f 9/88/12 52/87/12 26/89/12
f 17/92/2 58/91/2 57/90/2
f 18/93/2 58/91/2 17/92/2
f 23/94/2 58/91/2 18/93/2
f 58/91/2 23/94/2 21/95/2
f 60/98/6 59/97/6 47/96/6
f 59/97/6 60/98/6 61/99/6
f 25/102/1 54/101/1 24/100/1
f 54/101/1 25/102/1 53/103/1
f 62/106/7 49/105/7 46/104/7
f 49/105/7 62/106/7 48/107/7
f 49/110/13 34/109/13 37/108/13
f 34/109/13 49/110/13 51/111/13
f 22/114/3 52/113/3 50/112/3
f 52/113/3 22/114/3 26/115/3
f 63/118/4 61/117/4 60/116/4
f 61/117/4 63/118/4 57/119/4
f 61/117/4 57/119/4 58/120/4
f 11/123/14 27/122/14 4/121/14
f 27/122/14 11/123/14 28/124/14
f 33/127/15 5/126/15 15/125/15
f 5/126/15 33/127/15 7/128/15
f 55/131/4 19/130/4 56/129/4
f 19/130/4 55/131/4 20/132/4
f 47/135/2 62/134/2 46/133/2
f 62/134/2 47/135/2 59/136/2
f 65/139/16 29/138/16 64/137/16
f 29/138/16 65/139/16 66/140/16
f 29/138/16 66/140/16 32/141/16
f 56/144/17 12/143/17 13/142/17
f 12/143/17 56/144/17 67/145/17
f 12/143/17 67/145/17 64/146/17
f 67/145/17 56/144/17 68/147/17
f 65/148/17 64/146/17 67/145/17
f 69/151/18 38/150/18 35/149/18
f 38/150/18 69/151/18 19/152/18
f 19/152/18 69/151/18 70/153/18
f 19/152/18 70/153/18 68/154/18
f 19/152/18 68/154/18 56/155/18
f 11/158/19 29/157/19 28/156/19
f 29/157/19 11/158/19 64/159/19
f 64/159/19 11/158/19 12/160/19
f 71/163/20 57/162/20 63/161/20
f 57/162/20 71/163/20 17/164/20
f 17/164/20 71/163/20 72/165/20
f 40/168/21 73/167/21 41/166/21
f 73/167/21 40/168/21 74/169/21
f 76/172/22 75/171/22 43/170/22
f 75/171/22 45/173/22 43/170/22
f 75/171/22 47/174/22 45/173/22
f 47/174/22 75/171/22 60/175/22
f 60/175/22 75/171/22 77/176/22
f 66/179/23 31/178/23 32/177/23
f 31/178/23 66/179/23 78/180/23
f 79/183/24 43/182/24 44/181/24
f 43/182/24 79/183/24 76/184/24
f 80/187/25 65/186/25 67/185/25
f 65/186/25 80/187/25 66/188/25
f 82/191/26 81/190/26 78/189/26
f 81/190/26 82/191/26 83/192/26
f 42/195/27 79/194/27 44/193/27
f 79/194/27 42/195/27 84/196/27
f 79/199/28 75/198/28 76/197/28
f 75/198/28 79/199/28 85/200/28
f 73/203/29 42/202/29 41/201/29
f 42/202/29 73/203/29 84/204/29
f 86/207/30 17/206/30 72/205/30
f 17/206/30 86/207/30 19/208/30
f 19/208/30 86/207/30 74/209/30
f 19/208/30 74/209/30 40/210/30
f 19/208/30 40/210/30 38/211/30
f 35/214/31 87/213/31 69/212/31
f 87/213/31 35/214/31 36/215/31
f 82/218/32 66/217/32 80/216/32
f 66/217/32 82/218/32 78/219/32
f 81/222/33 88/221/33 87/220/33
f 88/221/33 81/222/33 83/223/33
f 69/226/34 88/225/34 70/224/34
f 88/225/34 69/226/34 87/227/34
f 63/230/35 77/229/35 71/228/35
f 77/229/35 63/230/35 60/231/35
f 36/234/36 81/233/36 87/232/36
f 81/233/36 36/234/36 30/235/36
f 78/238/37 30/237/37 31/236/37
f 30/237/37 78/238/37 81/239/37
f 86/242/38 73/241/38 74/240/38
f 73/241/38 86/242/38 89/243/38
f 89/246/39 84/245/39 73/244/39
f 84/245/39 89/246/39 90/247/39
f 84/250/40 85/249/40 79/248/40
f 85/249/40 84/250/40 90/251/40

usemtl rock

f 25/254/41 55/253/41 53/252/41
f 55/253/41 25/254/41 23/255/41
f 55/253/41 23/255/41 20/256/41
f 20/256/41 23/255/41 18/257/41
f 48/260/41 22/259/41 50/258/41
f 22/259/41 48/260/41 21/255/41
f 21/255/41 48/260/41 62/261/41
f 21/255/41 62/261/41 58/262/41
f 58/262/41 62/261/41 61/263/41
f 61/263/41 62/261/41 59/264/41
f 1/267/41 10/266/41 3/265/41
f 10/266/41 1/267/41 6/268/41
f 10/266/41 6/268/41 54/252/41
f 54/252/41 6/268/41 24/254/41
f 24/254/41 6/268/41 8/269/41
f 14/270/41 10/266/41 54/252/41
f 67/273/41 82/272/41 80/271/41
f 82/272/41 67/273/41 83/274/41
f 83/274/41 67/273/41 68/275/41
f 83/274/41 68/275/41 70/276/41
f 83/274/41 70/276/41 88/277/41
f 77/280/41 72/279/41 71/278/41
f 72/279/41 77/280/41 89/281/41
f 89/281/41 77/280/41 90/282/41
f 90/282/41 77/280/41 75/283/41
f 90/282/41 75/283/41 85/284/41
f 89/281/41 86/285/41 72/279/41

