# Created by Kenney (www.kenney.nl)

mtllib terrain_roadSplit.mtl

g terrain_roadSplit

v 0 -7.395838E-24 0.25
v -0.03263164 5.889265E-18 0.2478611
v 0 0 0
v -0.25 4.511946E-17 0
v -0.06470466 1.167777E-17 0.2414814
v -0.09567094 1.726647E-17 0.2309699
v -0.125 2.255973E-17 0.2165064
v -0.1521904 2.746699E-17 0.1983383
v -0.1767766 3.190427E-17 0.1767766
v -0.1983383 3.579568E-17 0.1521903
v -0.2165065 3.90746E-17 0.125
v -0.2309699 4.168495E-17 0.09567082
v -0.2414815 4.358206E-17 0.06470478
v -0.2478611 4.473346E-17 0.03263152
v 0 -4.706448E-24 0.375
v 0 -1.06232E-23 0.625
v -0.04894733 5.889267E-18 0.3717918
v -0.08157897 5.889261E-18 0.619653
v -0.0970571 1.167777E-17 0.3622222
v -0.161762 1.167777E-17 0.6037036
v -0.1435063 1.726647E-17 0.3464549
v -0.1875 2.255973E-17 0.3247595
v -0.2391772 1.726646E-17 0.5774247
v -0.2282856 2.746699E-17 0.2975075
v -0.2651651 3.190428E-17 0.2651651
v -0.3125 2.255972E-17 0.5412658
v -0.2900441 4.000858E-17 0.2367959
v -0.3070903 4.511946E-17 0.2870126
v -0.350481 4.511946E-17 0.375
v -0.380476 2.746698E-17 0.4958458
v -0.404985 4.511946E-17 0.4565711
v -0.4137993 3.749605E-17 0.4666219
v 0 4.511946E-17 0.7499999
v 0 0 1
v -0.09789467 4.511946E-17 0.7435836
v -1 0 1
v -0.1941142 4.511946E-17 0.7244443
v -0.2870126 4.511946E-17 0.6929096
v -0.375 4.511946E-17 0.649519
v -0.4565711 4.511946E-17 0.595015
v -0.5 4.511946E-17 0.5569288
v -0.5434289 4.511946E-17 0.595015
v -0.625 4.511946E-17 0.649519
v -0.7129874 4.511946E-17 0.6929097
v -0.8058858 4.511946E-17 0.7244443
v -0.9021053 4.511946E-17 0.7435836
v -1 4.511946E-17 0.7499999
v -0.375 4.511946E-17 0
v -0.380347 4.511946E-17 0.08157885
v -0.625 4.511946E-17 0
v -0.3962963 4.511946E-17 0.1617619
v -0.4225752 4.511946E-17 0.2391771
v -0.458734 4.511946E-17 0.3125
v -0.5 4.060751E-17 0.3742588
v -0.541266 3.90746E-17 0.3125
v -0.5774248 4.168494E-17 0.2391771
v -0.6037035 4.358205E-17 0.1617619
v -0.619653 4.473346E-17 0.08157885
v -0.5862007 4.511946E-17 0.4666219
v -0.619524 4.511946E-17 0.4958458
v -0.595015 4.511946E-17 0.456571
v -0.649519 4.511946E-17 0.375
v -0.6875 4.511946E-17 0.5412658
v -0.6929097 4.511946E-17 0.2870126
v -0.7608228 4.511946E-17 0.5774247
v -0.7099559 4.511946E-17 0.2367959
v -0.7348349 4.511946E-17 0.265165
v -0.7717144 4.511946E-17 0.2975075
v -0.838238 4.511946E-17 0.6037036
v -0.8125 4.511946E-17 0.3247595
v -0.8564937 4.511946E-17 0.3464549
v -0.9184213 4.511946E-17 0.619653
v -0.9029429 4.511946E-17 0.3622222
v -0.9510527 4.511946E-17 0.3717918
v -1 4.511946E-17 0.625
v -1 4.511946E-17 0.375
v -0.75 4.511946E-17 0
v -0.7521389 4.688659E-17 0.03263152
v -1 0 0
v -0.7585185 4.785147E-17 0.06470478
v -0.7690301 4.799761E-17 0.09567082
v -0.7834935 4.732249E-17 0.125
v -0.8016615 4.583766E-17 0.1521903
v -0.8232234 4.356855E-17 0.1767766
v -0.8478096 4.055396E-17 0.1983383
v -0.875 3.684548E-17 0.2165064
v -0.9043291 3.250657E-17 0.2309699
v -0.9352951 2.761146E-17 0.2414814
v -0.9673686 2.224391E-17 0.2478613
v -1 1.649576E-17 0.25

vn 0 1 0

vt -4.399944E-07 9.84252
vt 1.284706 9.758315
vt 0 0
vt 9.84252 -1.17336E-06
vt 2.547431 9.507144
vt 3.766569 9.093302
vt 4.92126 8.523871
vt 5.991746 7.808596
vt 6.959713 6.959712
vt 7.808596 5.991746
vt 8.523872 4.921259
vt 9.093303 3.766568
vt 9.507144 2.547431
vt 9.758315 1.284706
vt -3.66662E-07 14.76378
vt -2.199972E-07 24.6063
vt 1.92706 14.63747
vt 3.211766 24.39579
vt 3.821147 14.26072
vt 6.368579 23.76786
vt 5.649854 13.63995
vt 7.38189 12.78581
vt 9.416423 22.73326
vt 8.987619 11.71289
vt 10.43957 10.43957
vt 12.30315 21.30968
vt 11.41906 9.322674
vt 12.09017 11.29971
vt 13.79846 14.76378
vt 14.97937 19.52149
vt 15.94429 17.97524
vt 16.29131 18.37094
vt -1.466648E-07 29.52756
vt 0 39.37008
vt 3.85412 29.27495
vt 39.37008 39.37008
vt 7.642294 28.52143
vt 11.29971 27.27991
vt 14.76378 25.57162
vt 17.97524 23.42579
vt 19.68504 21.92633
vt 21.39484 23.42579
vt 24.6063 25.57162
vt 28.07037 27.27991
vt 31.72779 28.52143
vt 35.51596 29.27495
vt 39.37008 29.52756
vt 14.76378 -1.17336E-06
vt 14.97429 3.211765
vt 24.6063 -1.17336E-06
vt 15.60222 6.368578
vt 16.63682 9.416422
vt 18.0604 12.30315
vt 19.68504 14.7346
vt 21.30968 12.30315
vt 22.73326 9.416422
vt 23.76786 6.368578
vt 24.39579 3.211766
vt 23.07876 18.37094
vt 24.39071 19.52149
vt 23.42579 17.97524
vt 25.57162 14.76378
vt 27.06693 21.30968
vt 27.27991 11.29971
vt 29.95366 22.73326
vt 27.95102 9.322673
vt 28.93051 10.43957
vt 30.38246 11.71289
vt 33.0015 23.76786
vt 31.98819 12.78581
vt 33.72023 13.63995
vt 36.15831 24.39579
vt 35.54893 14.26071
vt 37.44302 14.63747
vt 39.37008 24.6063
vt 39.37008 14.76378
vt 29.52756 -1.17336E-06
vt 29.61176 1.284706
vt 39.37008 4.688377E-31
vt 29.86293 2.547431
vt 30.27678 3.766568
vt 30.84621 4.921259
vt 31.56148 5.991746
vt 32.41037 6.959712
vt 33.37833 7.808596
vt 34.44882 8.523872
vt 35.60351 9.093303
vt 36.82265 9.507144
vt 38.08537 9.758316
vt 39.37008 9.84252

usemtl rock

f 3/3/1 2/2/1 1/1/1
f 2/2/1 3/3/1 4/4/1
f 2/2/1 4/4/1 5/5/1
f 5/5/1 4/4/1 6/6/1
f 6/6/1 4/4/1 7/7/1
f 7/7/1 4/4/1 8/8/1
f 8/8/1 4/4/1 9/9/1
f 9/9/1 4/4/1 10/10/1
f 10/10/1 4/4/1 11/11/1
f 11/11/1 4/4/1 12/12/1
f 12/12/1 4/4/1 13/13/1
f 13/13/1 4/4/1 14/14/1
f 17/17/1 16/16/1 15/15/1
f 16/16/1 17/17/1 18/18/1
f 18/18/1 17/17/1 19/19/1
f 18/18/1 19/19/1 20/20/1
f 20/20/1 19/19/1 21/21/1
f 20/20/1 21/21/1 22/22/1
f 20/20/1 22/22/1 23/23/1
f 23/23/1 22/22/1 24/24/1
f 23/23/1 24/24/1 25/25/1
f 23/23/1 25/25/1 26/26/1
f 26/26/1 25/25/1 27/27/1
f 26/26/1 27/27/1 28/28/1
f 26/26/1 28/28/1 29/29/1
f 26/26/1 29/29/1 30/30/1
f 30/30/1 29/29/1 31/31/1
f 30/30/1 31/31/1 32/32/1
f 35/35/1 34/34/1 33/33/1
f 34/34/1 35/35/1 36/36/1
f 36/36/1 35/35/1 37/37/1
f 36/36/1 37/37/1 38/38/1
f 36/36/1 38/38/1 39/39/1
f 36/36/1 39/39/1 40/40/1
f 36/36/1 40/40/1 41/41/1
f 36/36/1 41/41/1 42/42/1
f 36/36/1 42/42/1 43/43/1
f 36/36/1 43/43/1 44/44/1
f 36/36/1 44/44/1 45/45/1
f 36/36/1 45/45/1 46/46/1
f 36/36/1 46/46/1 47/47/1
f 50/50/1 49/49/1 48/48/1
f 49/49/1 50/50/1 51/51/1
f 51/51/1 50/50/1 52/52/1
f 52/52/1 50/50/1 53/53/1
f 53/53/1 50/50/1 54/54/1
f 54/54/1 50/50/1 55/55/1
f 55/55/1 50/50/1 56/56/1
f 56/56/1 50/50/1 57/57/1
f 57/57/1 50/50/1 58/58/1
f 61/61/1 60/60/1 59/59/1
f 60/60/1 61/61/1 62/62/1
f 60/60/1 62/62/1 63/63/1
f 63/63/1 62/62/1 64/64/1
f 63/63/1 64/64/1 65/65/1
f 65/65/1 64/64/1 66/66/1
f 65/65/1 66/66/1 67/67/1
f 65/65/1 67/67/1 68/68/1
f 65/65/1 68/68/1 69/69/1
f 69/69/1 68/68/1 70/70/1
f 69/69/1 70/70/1 71/71/1
f 69/69/1 71/71/1 72/72/1
f 72/72/1 71/71/1 73/73/1
f 72/72/1 73/73/1 74/74/1
f 72/72/1 74/74/1 75/75/1
f 75/75/1 74/74/1 76/76/1
f 79/79/1 78/78/1 77/77/1
f 78/78/1 79/79/1 80/80/1
f 80/80/1 79/79/1 81/81/1
f 81/81/1 79/79/1 82/82/1
f 82/82/1 79/79/1 83/83/1
f 83/83/1 79/79/1 84/84/1
f 84/84/1 79/79/1 85/85/1
f 85/85/1 79/79/1 86/86/1
f 86/86/1 79/79/1 87/87/1
f 87/87/1 79/79/1 88/88/1
f 88/88/1 79/79/1 89/89/1
f 89/89/1 79/79/1 90/90/1

usemtl rockTrack

f 2/2/1 15/15/1 1/1/1
f 15/15/1 2/2/1 17/17/1
f 17/17/1 2/2/1 5/5/1
f 17/17/1 5/5/1 19/19/1
f 19/19/1 5/5/1 6/6/1
f 19/19/1 6/6/1 7/7/1
f 19/19/1 7/7/1 21/21/1
f 21/21/1 7/7/1 8/8/1
f 21/21/1 8/8/1 22/22/1
f 22/22/1 8/8/1 9/9/1
f 22/22/1 9/9/1 10/10/1
f 22/22/1 10/10/1 24/24/1
f 24/24/1 10/10/1 11/11/1
f 24/24/1 11/11/1 12/12/1
f 24/24/1 12/12/1 25/25/1
f 25/25/1 12/12/1 13/13/1
f 25/25/1 13/13/1 14/14/1
f 25/25/1 14/14/1 4/4/1
f 25/25/1 4/4/1 48/48/1
f 25/25/1 48/48/1 27/27/1
f 27/27/1 48/48/1 28/28/1
f 28/28/1 48/48/1 29/29/1
f 29/29/1 48/48/1 49/49/1
f 29/29/1 49/49/1 31/31/1
f 31/31/1 49/49/1 51/51/1
f 31/31/1 51/51/1 52/52/1
f 31/31/1 52/52/1 32/32/1
f 40/40/1 32/32/1 52/52/1
f 40/40/1 30/30/1 32/32/1
f 39/39/1 30/30/1 40/40/1
f 39/39/1 26/26/1 30/30/1
f 38/38/1 26/26/1 39/39/1
f 38/38/1 23/23/1 26/26/1
f 37/37/1 23/23/1 38/38/1
f 37/37/1 20/20/1 23/23/1
f 35/35/1 20/20/1 37/37/1
f 35/35/1 18/18/1 20/20/1
f 33/33/1 18/18/1 35/35/1
f 18/18/1 33/33/1 16/16/1
f 40/40/1 52/52/1 53/53/1
f 40/40/1 53/53/1 41/41/1
f 41/41/1 53/53/1 54/54/1
f 41/41/1 54/54/1 42/42/1
f 42/42/1 54/54/1 55/55/1
f 42/42/1 55/55/1 56/56/1
f 42/42/1 56/56/1 59/59/1
f 57/57/1 59/59/1 56/56/1
f 59/59/1 57/57/1 61/61/1
f 61/61/1 57/57/1 62/62/1
f 62/62/1 57/57/1 58/58/1
f 62/62/1 58/58/1 50/50/1
f 62/62/1 50/50/1 77/77/1
f 62/62/1 77/77/1 64/64/1
f 64/64/1 77/77/1 66/66/1
f 66/66/1 77/77/1 67/67/1
f 67/67/1 77/77/1 78/78/1
f 67/67/1 78/78/1 68/68/1
f 68/68/1 78/78/1 80/80/1
f 68/68/1 80/80/1 81/81/1
f 68/68/1 81/81/1 82/82/1
f 68/68/1 82/82/1 70/70/1
f 70/70/1 82/82/1 83/83/1
f 70/70/1 83/83/1 84/84/1
f 70/70/1 84/84/1 71/71/1
f 71/71/1 84/84/1 85/85/1
f 71/71/1 85/85/1 86/86/1
f 71/71/1 86/86/1 73/73/1
f 73/73/1 86/86/1 87/87/1
f 73/73/1 87/87/1 74/74/1
f 74/74/1 87/87/1 88/88/1
f 74/74/1 88/88/1 89/89/1
f 74/74/1 89/89/1 76/76/1
f 76/76/1 89/89/1 90/90/1
f 42/42/1 59/59/1 43/43/1
f 43/43/1 59/59/1 60/60/1
f 43/43/1 60/60/1 63/63/1
f 43/43/1 63/63/1 44/44/1
f 44/44/1 63/63/1 65/65/1
f 44/44/1 65/65/1 45/45/1
f 45/45/1 65/65/1 69/69/1
f 45/45/1 69/69/1 46/46/1
f 46/46/1 69/69/1 72/72/1
f 46/46/1 72/72/1 47/47/1
f 47/47/1 72/72/1 75/75/1

