# Created by Kenney (www.kenney.nl)

mtllib terrain_sideCornerInner.mtl

g terrain_sideCornerInner

v -1 0 1
v -1 0.5 0.5
v -0.5 0.5 1
v -0.25 0.5 1
v -0.3115642 0.5 0.8761361
v -0.8745062 0.5 0.3127469
v -1 0.5 0.25
v 0 0.5 0
v 0 0.5 1
v -1 0.5 0

vn -0.5773503 0.5773503 0.5773503
vn 0 1 0

vt 3.232969E-13 -32.14553
vt -13.91943 -8.036384
vt 13.91943 -8.036384
vt 9.842521 39.37008
vt 19.68504 39.37008
vt 12.26631 34.49355
vt 34.42938 12.31287
vt 39.37008 19.68504
vt 39.37008 9.84252
vt 0 0
vt 0 39.37008
vt 39.37008 0

usemtl rockDark

f 3/3/1 2/2/1 1/1/1
f 5/6/2 3/5/2 4/4/2
f 3/5/2 5/6/2 6/7/2
f 3/5/2 6/7/2 2/8/2
f 2/8/2 6/7/2 7/9/2

usemtl rock

f 10/12/2 9/11/2 8/10/2
f 9/11/2 10/12/2 5/6/2
f 9/11/2 5/6/2 4/4/2
f 5/6/2 10/12/2 6/7/2
f 6/7/2 10/12/2 7/9/2

