# Created by Kenney (www.kenney.nl)

mtllib terrain_ramp.mtl

g terrain_ramp

v 0.5 0.5 -0.5
v 0.5 0 0.5
v -0.5 0.5 -0.5
v -0.5 0 0.5
v 0.5 0.5 0
v -0.5 0.5 0

vn 0 0.8944272 0.4472136
vn -1 0 0
vn 1 0 0

vt 19.68504 26.41025
vt 19.68504 -17.60683
vt -19.68504 26.41025
vt -19.68504 -17.60683
vt -19.68504 19.68504
vt -2.842171E-14 19.68504
vt 19.68504 0
vt 2.842171E-14 19.68504
vt 19.68504 19.68504
vt -19.68504 0

usemtl rock

f 3/3/1 2/2/1 1/1/1
f 2/2/1 3/3/1 4/4/1

usemtl rockDark

f 2/7/2 5/6/2 1/5/2
f 4/10/3 3/9/3 6/8/3

