# Created by Kenney (www.kenney.nl)

mtllib terrain_roadEnd.mtl

g terrain_roadEnd

v 0.5 0 0.5
v 0.2416266 0 -0.03125
v 0.5 0 -0.5
v 0.2316942 0 -0.04419422
v 0.21875 0 -0.05412662
v -0.5 0 -0.5
v 0.2478703 0 -0.01617622
v 0.25 0 0
v 0.2036762 0 -0.06037033
v 0.1875 0 -0.0625
v 0.1713238 0 -0.06037033
v 0.15625 0 -0.05412662
v 0.1433058 0 -0.04419422
v 0.1333734 0 -0.03125
v 0.1271297 0 -0.01617622
v 0.125 0 0
v -0.1433058 0 -0.04419422
v -0.1333735 0 -0.03125
v 0.125 0 0.5
v -0.1271296 0 -0.01617622
v -0.125 0 0
v -0.15625 0 -0.05412662
v -0.1713238 0 -0.06037033
v -0.1875 0 -0.0625
v -0.2036762 0 -0.06037033
v -0.21875 0 -0.05412662
v -0.2316942 0 -0.04419422
v -0.2416265 0 -0.03125
v -0.2478704 0 -0.01617622
v -0.25 0 0
v -0.25 0 0.5
v -0.5 0 0.5
v -0.125 0 0.5
v 0.25 0 0.5

vn 0 1 0

vt -19.68504 19.68504
vt -9.512857 -1.230315
vt -19.68504 -19.68504
vt -9.121818 -1.739928
vt -8.612205 -2.130968
vt 19.68504 -19.68504
vt -9.758676 -0.6368579
vt -9.84252 0
vt -8.018747 -2.376786
vt -7.38189 -2.46063
vt -6.745032 -2.376786
vt -6.151575 -2.130968
vt -5.641962 -1.739928
vt -5.250922 -1.230315
vt -5.005104 -0.6368579
vt -4.92126 0
vt 5.641962 -1.739928
vt 5.250922 -1.230315
vt -4.92126 19.68504
vt 5.005104 -0.6368579
vt 4.92126 0
vt 6.151575 -2.130968
vt 6.745032 -2.376786
vt 7.38189 -2.46063
vt 8.018747 -2.376786
vt 8.612205 -2.130968
vt 9.121818 -1.739928
vt 9.512857 -1.230315
vt 9.758676 -0.6368579
vt 9.84252 0
vt 9.84252 19.68504
vt 19.68504 19.68504
vt 4.92126 19.68504
vt -9.84252 19.68504

usemtl rock

f 3/3/1 2/2/1 1/1/1
f 2/2/1 3/3/1 4/4/1
f 4/4/1 3/3/1 5/5/1
f 5/5/1 3/3/1 6/6/1
f 1/1/1 2/2/1 7/7/1
f 1/1/1 7/7/1 8/8/1
f 5/5/1 6/6/1 9/9/1
f 9/9/1 6/6/1 10/10/1
f 10/10/1 6/6/1 11/11/1
f 11/11/1 6/6/1 12/12/1
f 12/12/1 6/6/1 13/13/1
f 13/13/1 6/6/1 14/14/1
f 14/14/1 6/6/1 15/15/1
f 15/15/1 6/6/1 16/16/1
f 16/16/1 6/6/1 17/17/1
f 16/16/1 17/17/1 18/18/1
f 16/16/1 18/18/1 19/19/1
f 19/19/1 18/18/1 20/20/1
f 19/19/1 20/20/1 21/21/1
f 17/17/1 6/6/1 22/22/1
f 22/22/1 6/6/1 23/23/1
f 23/23/1 6/6/1 24/24/1
f 24/24/1 6/6/1 25/25/1
f 25/25/1 6/6/1 26/26/1
f 26/26/1 6/6/1 27/27/1
f 27/27/1 6/6/1 28/28/1
f 28/28/1 6/6/1 29/29/1
f 29/29/1 6/6/1 30/30/1
f 30/30/1 6/6/1 31/31/1
f 31/31/1 6/6/1 32/32/1
f 33/33/1 19/19/1 21/21/1
f 34/34/1 1/1/1 8/8/1

usemtl rockTrack

f 20/20/1 33/33/1 21/21/1
f 33/33/1 20/20/1 31/31/1
f 31/31/1 20/20/1 18/18/1
f 31/31/1 18/18/1 17/17/1
f 31/31/1 17/17/1 22/22/1
f 31/31/1 22/22/1 23/23/1
f 31/31/1 23/23/1 24/24/1
f 31/31/1 24/24/1 25/25/1
f 31/31/1 25/25/1 26/26/1
f 31/31/1 26/26/1 27/27/1
f 31/31/1 27/27/1 28/28/1
f 31/31/1 28/28/1 29/29/1
f 31/31/1 29/29/1 30/30/1
f 7/7/1 34/34/1 8/8/1
f 34/34/1 7/7/1 19/19/1
f 19/19/1 7/7/1 2/2/1
f 19/19/1 2/2/1 4/4/1
f 19/19/1 4/4/1 5/5/1
f 19/19/1 5/5/1 9/9/1
f 19/19/1 9/9/1 10/10/1
f 19/19/1 10/10/1 11/11/1
f 19/19/1 11/11/1 12/12/1
f 19/19/1 12/12/1 13/13/1
f 19/19/1 13/13/1 14/14/1
f 19/19/1 14/14/1 15/15/1
f 19/19/1 15/15/1 16/16/1

