# Blender v2.91.0 OBJ File: ''
# www.blender.org
mtllib terrain_sideCliff.mtl
o terrain_sideCliff
v -1.000000 0.500000 0.000000
v 0.000000 0.500000 0.250000
v 0.000000 0.500000 0.000000
v -0.500000 0.500000 0.125000
v -1.000000 0.500000 0.250000
v -1.000000 -0.000000 1.000000
v 0.000000 -0.000000 1.000000
v -0.500000 -0.000000 0.875000
v -1.000000 0.500000 0.500000
v -0.500000 0.500000 0.375000
v 0.000000 0.500000 0.500000
vt 19.685040 -19.685040
vt 0.000000 -9.842520
vt -0.000000 -19.685040
vt 9.842520 -14.763780
vt 19.685040 -9.842520
vt 19.685040 19.685040
vt -0.000000 19.685040
vt 9.842520 14.763780
vt -17.606831 20.541309
vt -15.405980 -5.868945
vt -6.602563 20.541309
vt -26.410250 -5.868945
vt -11.004270 14.672360
vt 8.803417 -11.737890
vt -0.000000 14.672360
vt -2.200854 -11.737890
vt 0.000000 0.000000
vt 9.842520 -4.921260
vt 19.685040 -0.000000
vn 0.0000 1.0000 0.0000
vn 0.0571 0.5775 -0.8144
vn 0.5773 0.5773 0.5774
vn 0.5773 0.5774 0.5774
vn 0.5773 0.5774 0.5773
vn -0.5773 0.5774 0.5774
vn -0.5773 0.5774 0.5773
vn -0.5773 0.5773 0.5774
usemtl rock
s 1
f 1/1/1 2/2/1 3/3/1
f 2/2/1 1/1/1 4/4/2
f 4/4/2 1/1/1 5/5/1
f 6/6/1 7/7/1 8/8/1
usemtl rockDark
f 9/9/3 8/10/4 10/11/4
f 8/10/4 9/9/3 6/12/5
f 10/13/6 7/14/7 11/15/8
f 7/14/7 10/13/6 8/16/6
f 4/4/2 11/17/1 2/2/1
f 11/17/1 4/4/2 10/18/1
f 10/18/1 4/4/2 5/5/1
f 10/18/1 5/5/1 9/19/1
