# Created by Kenney (www.kenney.nl)

mtllib astronautB.mtl

g armLeft

v 0.13 0.3111179 -0.05579603
v 0.13 0.34 0.05579603
v 0.13 0.1368661 -0.01069629
v 0.13 0.1657483 0.1008956
v 0.181592 0.1368661 -0.01069629
v 0.181592 0.1657483 0.1008956
v 0.2415919 0.1949522 -0.02573013
v 0.2415919 0.3111179 -0.05579603
v 0.2415919 0.2238343 0.08586192
v 0.2415919 0.34 0.05579603
v 0.185796 0.473184 -0.05579603
v 0.185796 0.473184 0.05579603
v 0.13 0.473184 -0.05579603
v 0.13 0.473184 0.05579603
v 0.2415919 0.417388 -0.05579603
v 0.2415919 0.417388 0.05579603

vn -0.8584 0 0
vn 0 -0.8310173 0.2150831
vn 0 -0.2150831 -0.8310173
vn 0.6069804 -0.587618 0.1520867
vn 0 0.2150831 0.8310173
vn 0.8584 0 0
vn 0 0.8584 0
vn 0.6069804 0.6069804 0
vn 0 0 0.8584
vn 0 0 -0.8584

vt -2.559055 -7.433081
vt 2.559055 -6.108416
vt -0.490582 -15.42505
vt 4.627528 -14.10038
vt 2.366241 -4.339876
vt 5.719317E-08 -4.339876
vt 2.366241 0.9468803
vt 1.909743E-08 0.9468803
vt -6.085162E-08 -14.81007
vt -2.366241 -14.81007
vt -7.626232E-08 -6.554764
vt -5.11811 -12.0582
vt -5.11811 -6.554764
vt 2.388665 -6.100101
vt 1.050985 -9.754712
vt -2.575973 -4.282917
vt -3.913653 -7.937529
vt 2.366241 -14.81007
vt 5.354142E-08 -14.81007
vt 5.11811 -12.0582
vt 3.813077E-08 -6.554764
vt 5.11811 -6.554764
vt 2.559055 -7.433081
vt 1.180098 -12.76096
vt -2.559055 -6.108416
vt -3.938012 -11.4363
vt -2.559055 -2.559055
vt -2.559055 2.559055
vt -7.626232E-08 -2.559055
vt 7.958079E-13 2.559055
vt 2.559055 -1.809525
vt 2.559055 -5.428576
vt -2.559055 -1.809525
vt -2.559055 -5.428576
vt 5.11811 -6.108416
vt 3.813077E-08 -6.108416
vt 5.11811 -2.559055
vt 3.813077E-08 9.902709E-15
vt 2.559055 9.902709E-15
vt 2.559055 -2.559055
vt -5.265354E-08 -7.433081
vt -5.11811 -7.433081
vt -5.265354E-08 1.087358E-08
vt -5.11811 -2.559055
vt -2.559055 1.087358E-08
vt -2.559055 1.065814E-14
vt 2.559055 1.065814E-14

usemtl dark

f 3/3/1 2/2/1 1/1/1
f 2/2/1 3/3/1 4/4/1
f 6/7/2 3/6/2 5/5/2
f 3/6/2 6/7/2 4/8/2
f 1/11/3 5/10/3 3/9/3
f 5/10/3 1/11/3 7/12/3
f 7/12/3 1/11/3 8/13/3
f 9/16/4 5/15/4 7/14/4
f 5/15/4 9/16/4 6/17/4
f 9/20/5 4/19/5 6/18/5
f 4/19/5 9/20/5 2/21/5
f 2/21/5 9/20/5 10/22/5
f 10/25/6 7/24/6 8/23/6
f 7/24/6 10/25/6 9/26/6

usemtl metal

f 13/29/7 12/28/7 11/27/7
f 12/28/7 13/29/7 14/30/7
f 12/33/8 15/32/8 11/31/8
f 15/32/8 12/33/8 16/34/8

usemtl metalRed

f 16/37/9 2/36/9 10/35/9
f 2/36/9 16/37/9 14/38/9
f 14/38/9 16/37/9 12/39/9
f 16/27/6 8/23/6 15/40/6
f 8/23/6 16/27/6 10/25/6
f 13/43/10 8/42/10 1/41/10
f 8/42/10 13/43/10 15/44/10
f 15/44/10 13/43/10 11/45/10
f 1/1/1 14/47/1 13/46/1
f 14/47/1 1/1/1 2/2/1

g armRight

v -0.1300001 0.3111179 -0.05579603
v -0.1300001 0.1368662 -0.01069629
v -0.1300001 0.34 0.05579603
v -0.1300001 0.1657483 0.1008956
v -0.181592 0.1368662 -0.01069629
v -0.2415919 0.1949522 -0.02573013
v -0.2415919 0.3111179 -0.05579603
v -0.2415919 0.2238343 0.08586192
v -0.181592 0.1657483 0.1008956
v -0.2415919 0.34 0.05579603
v -0.1300001 0.473184 0.05579603
v -0.2415919 0.417388 0.05579603
v -0.185796 0.473184 0.05579603
v -0.2415919 0.417388 -0.05579603
v -0.1300001 0.473184 -0.05579603
v -0.185796 0.473184 -0.05579603

vn 1 0 0
vn 0 -0.2505628 -0.9681004
vn -0.7071068 -0.6845503 0.1771747
vn 0 -0.9681004 0.2505628
vn 0 0.2505628 0.9681004
vn -1 0 0
vn 0 0 1
vn 0 0 -1
vn -0.7071068 0.7071068 0
vn 0 1 0

vt 2.196693 -6.380557
vt 0.4211156 -13.24086
vt -2.196693 -5.243464
vt -3.97227 -12.10377
vt 5.223558E-08 -12.71297
vt 6.546429E-08 -5.626609
vt 2.031181 -12.71297
vt 4.393386 -10.35076
vt 4.393386 -5.626609
vt -2.05043 -5.236327
vt 2.211215 -3.676456
vt -0.9021654 -8.373445
vt 3.35948 -6.813574
vt -1.639395E-08 0.812802
vt -4.909516E-08 -3.725349
vt -2.031181 0.812802
vt -2.031181 -3.725349
vt -4.596066E-08 -12.71297
vt -2.031181 -12.71297
vt -3.273214E-08 -5.626609
vt -4.393386 -10.35076
vt -4.393386 -5.626609
vt -2.196693 -6.380557
vt 2.196693 -5.243464
vt -1.012996 -10.95401
vt 3.380389 -9.816917
vt -3.273214E-08 -5.243464
vt -4.393386 -5.243464
vt -3.273214E-08 6.456964E-15
vt -4.393386 -2.196693
vt -2.196693 6.456964E-15
vt -2.196693 -2.196693
vt 2.196693 -2.196693
vt 4.393386 -6.380557
vt 4.519851E-08 -6.380557
vt 4.393386 -2.196693
vt 4.519851E-08 9.333883E-09
vt 2.196693 9.333883E-09
vt 2.196693 7.105427E-15
vt -2.196693 7.105427E-15
vt -2.196693 -1.553296
vt 2.196693 -1.553296
vt -2.196693 -4.659889
vt 2.196693 -4.659889
vt 0 2.196693
vt 2.196693 2.196693
vt 6.546429E-08 -2.196693

usemtl dark

f 19/50/11 18/49/11 17/48/11
f 18/49/11 19/50/11 20/51/11
f 21/54/12 17/53/12 18/52/12
f 17/53/12 21/54/12 22/55/12
f 17/53/12 22/55/12 23/56/12
f 21/59/13 24/58/13 22/57/13
f 24/58/13 21/59/13 25/60/13
f 25/63/14 18/62/14 20/61/14
f 18/62/14 25/63/14 21/64/14
f 19/67/15 25/66/15 20/65/15
f 25/66/15 19/67/15 24/68/15
f 24/68/15 19/67/15 26/69/15
f 22/72/16 26/71/16 23/70/16
f 26/71/16 22/72/16 24/73/16

usemtl metalRed

f 27/76/17 26/75/17 19/74/17
f 26/75/17 27/76/17 28/77/17
f 28/77/17 27/76/17 29/78/17
f 26/71/16 30/79/16 23/70/16
f 30/79/16 26/71/16 28/80/16
f 30/83/18 17/82/18 23/81/18
f 17/82/18 30/83/18 31/84/18
f 31/84/18 30/83/18 32/85/18
f 27/87/11 17/48/11 31/86/11
f 17/48/11 27/87/11 19/50/11

usemtl metal

f 30/90/19 29/89/19 32/88/19
f 29/89/19 30/90/19 28/91/19
f 31/94/20 29/93/20 27/92/20
f 29/93/20 31/94/20 32/80/20

g body

v 0.13 0.223184 0.1
v 0.13 0.223184 -0.1
v -0.1300001 0.223184 0.1
v -0.1300001 0.223184 -0.1
v 0.13 0.2842019 0.1
v -0.1300001 0.2842019 0.1
v 0.02999997 0.2842019 0.1
v -0.02999997 0.2842019 0.1
v -0.1300001 0.2842019 -0.1
v 0.13 0.2842019 -0.1
v -0.0999999 0.2842019 -0.1
v 0.1 0.2842019 -0.1
v 0.13 0.2842019 0
v -0.1300001 0.2842019 0
v 0.02999997 0.433184 0.1
v 0.02999997 0.383184 0.13
v 0.02999997 0.433184 0.13
v -0.02999997 0.433184 0.1
v -0.02999997 0.433184 0.13
v -0.02999997 0.383184 0.13
v 0.1 0.2842019 -0.15
v -0.0999999 0.2842019 -0.15
v -0.0999999 0.3342019 -0.2
v 0.1 0.3342019 -0.2
v -0.0999999 0.533184 -0.2
v 0.1 0.533184 -0.2
v 0.13 0.383184 0
v 0.13 0.383184 0.13
v -0.1300001 0.383184 0.13
v -0.0999999 0.533184 -0.1
v -0.0999999 0.483184 -0.1
v 0.1 0.533184 -0.1
v 0.1 0.483184 -0.1
v -0.1300001 0.383184 0
v 0.13 0.483184 0.13
v -0.1300001 0.483184 0.13
v 0.13 0.483184 -0.1
v -0.1300001 0.483184 -0.1

vn 0 -1 0
vn 0 -0.7071068 -0.7071068
vn 0 -0.2900555 0.9570098

vt 5.11811 3.937008
vt 5.11811 -3.937008
vt -5.11811 3.937008
vt -5.11811 -3.937008
vt 5.11811 0
vt -5.11811 0
vt 5.11811 2.402281
vt -5.11811 2.402281
vt 1.181102 2.402281
vt -1.181102 2.402281
vt 3.937008 2.402281
vt -3.937008 2.402281
vt 3.937008 0
vt 0 2.402281
vt -3.937008 0
vt 3.937008 8.267716
vt 5.11811 6.299212
vt 5.11811 8.267716
vt -3.937008 8.267716
vt -5.11811 8.267716
vt -5.11811 6.299212
vt 1.181102 5.11811
vt 1.181102 3.937008
vt -1.181102 5.11811
vt -1.181102 3.937008
vt 3.937008 -3.937008
vt 3.937008 -5.905512
vt -3.937008 -3.937008
vt -3.937008 -5.905512
vt 3.937008 5.874496
vt -3.937008 5.874496
vt 3.937008 8.658381
vt -3.937008 8.658381
vt 3.937008 4.370785
vt -3.937008 4.370785
vt 3.937008 12.20472
vt -3.937008 12.20472
vt 0 6.299212
vt 1.181102 8.267716
vt -1.181102 8.267716
vt -1.181102 3.440957
vt -5.11811 3.440957
vt -1.181102 7.512944
vt -5.11811 7.512944
vt 5.11811 3.440957
vt 1.181102 3.440957
vt 5.11811 7.512944
vt 1.181102 7.512944
vt -7.874016 4.370785
vt -7.874016 12.20472
vt -5.905512 2.402281
vt -3.937008 10.23622
vt 7.874016 12.20472
vt 7.874016 4.370785
vt 5.905512 2.402281
vt 3.937008 10.23622
vt -3.937008 -7.874016
vt 3.937008 -7.874016
vt 1.181102 6.299212
vt 5.11811 10.23622
vt -5.11811 10.23622
vt -1.181102 6.299212
vt -5.11811 5.11811
vt 5.11811 5.11811

usemtl metalDark

f 35/97/21 34/96/21 33/95/21
f 34/96/21 35/97/21 36/98/21
f 37/101/17 35/100/17 33/99/17
f 35/100/17 37/101/17 38/102/17
f 38/102/17 37/101/17 39/103/17
f 38/102/17 39/103/17 40/104/17
f 41/101/18 34/100/18 36/99/18
f 34/100/18 41/101/18 42/102/18
f 42/102/18 41/101/18 43/105/18
f 42/102/18 43/105/18 44/106/18
f 45/108/11 34/107/11 42/105/11
f 34/107/11 45/108/11 33/109/11
f 33/109/11 45/108/11 37/106/11
f 35/107/16 41/106/16 36/109/16
f 41/106/16 35/107/16 46/108/16
f 46/108/16 35/107/16 38/105/16
f 48/111/16 47/110/16 39/105/16
f 47/110/16 48/111/16 49/112/16
f 51/114/11 40/106/11 50/113/11
f 40/106/11 51/114/11 52/115/11
f 51/118/21 47/117/21 49/116/21
f 47/117/21 51/118/21 50/119/21
f 43/122/21 53/121/21 44/120/21
f 53/121/21 43/122/21 54/123/21
f 55/126/22 53/125/22 54/124/22
f 53/125/22 55/126/22 56/127/22
f 57/130/18 56/129/18 55/128/18
f 56/129/18 57/130/18 58/131/18

usemtl metal

f 60/115/11 45/108/11 59/132/11
f 45/108/11 60/115/11 37/106/11
f 47/133/17 40/104/17 39/103/17
f 40/104/17 47/133/17 50/134/17
f 52/137/23 38/136/23 40/135/23
f 38/136/23 52/137/23 61/138/23
f 60/141/23 39/140/23 37/139/23
f 39/140/23 60/141/23 48/142/23
f 54/145/16 57/144/16 55/143/16
f 57/144/16 54/145/16 62/131/16
f 62/131/16 54/145/16 43/106/16
f 62/131/16 43/106/16 63/146/16
f 64/130/11 56/148/11 58/147/11
f 56/148/11 64/130/11 53/149/11
f 53/149/11 64/130/11 44/105/11
f 44/105/11 64/130/11 65/150/11
f 57/152/20 64/122/20 58/151/20
f 64/122/20 57/152/20 62/120/20
f 64/130/17 63/146/17 65/150/17
f 63/146/17 64/130/17 62/131/17
f 38/105/16 66/132/16 46/108/16
f 66/132/16 38/105/16 61/111/16

usemtl metalRed

f 67/154/17 48/153/17 60/111/17
f 48/153/17 67/154/17 49/133/17
f 49/133/17 67/154/17 51/134/17
f 68/155/17 51/134/17 67/154/17
f 61/115/17 51/134/17 68/155/17
f 51/134/17 61/115/17 52/156/17
f 65/122/20 67/157/20 69/98/20
f 67/157/20 65/122/20 68/158/20
f 68/158/20 65/122/20 63/120/20
f 68/158/20 63/120/20 70/96/20
f 70/154/18 43/105/18 41/101/18
f 43/105/18 70/154/18 63/150/18
f 65/146/18 42/102/18 44/106/18
f 42/102/18 65/146/18 69/155/18
f 46/108/16 70/146/16 41/106/16
f 70/146/16 46/108/16 66/132/16
f 70/146/16 66/132/16 68/154/16
f 68/154/16 66/132/16 61/111/16
f 69/150/11 59/132/11 42/105/11
f 59/132/11 69/150/11 67/155/11
f 59/132/11 67/155/11 60/115/11
f 45/108/11 42/105/11 59/132/11

g head

v 0.13 0.483184 0.06500006
v 0.13 0.483184 -0.13
v -0.1300001 0.483184 -0.13
v -0.1300001 0.483184 0.06500006
v 0.13 0.588184 0.01999998
v 0.13 0.543184 0.01999998
v 0.13 0.588184 0.06500006
v 0.13 0.543184 -0.01999998
v 0.13 0.568184 -0.01999998
v 0.13 0.568184 -0.13
v 0.13 0.510755 0.06500006
v 0.13 0.678184 0.13
v 0.13 0.678184 0.06500006
v 0.13 0.510755 0.13
v -0.1300001 0.568184 -0.13
v 0.1899999 0.621934 -0.01999998
v 0.1899999 0.554434 -0.01999998
v 0.1899999 0.621934 0.01999998
v 0.1899999 0.554434 0.01999998
v 0.13 0.633184 -0.01999998
v 0.13 0.633184 0.01999998
v -0.1300001 0.633184 -0.01999998
v -0.1300001 0.633184 0.01999998
v -0.1900001 0.621934 -0.01999998
v -0.1900001 0.621934 0.01999998
v -0.1300001 0.543184 0.01999998
v -0.1900001 0.554434 0.01999998
v -0.1300001 0.588184 0.01999998
v -0.1300001 0.543184 -0.01999998
v -0.1300001 0.568184 -0.01999998
v -0.1900001 0.554434 -0.01999998
v 0.08241522 0.510755 0.13
v 0.09248304 0.565843 0.13
v 0.06234741 0.5483261 0.13
v -0.06234741 0.5483261 0.13
v 0.09248304 0.6259786 0.13
v 0.03234744 0.6259786 0.13
v -0.03234744 0.6259786 0.13
v -0.09248304 0.6259786 0.13
v 0.03234744 0.565843 0.13
v -0.09248304 0.565843 0.13
v -0.1300001 0.510755 0.13
v -0.08241534 0.510755 0.13
v -0.1300001 0.678184 0.13
v -0.03234744 0.565843 0.13
v -0.1300001 0.588184 0.06500006
v -0.1300001 0.510755 0.06500006
v -0.1300001 0.678184 0.06500006
v 0.03493392 0.5095959 0.13
v -0.0347271 0.5095959 0.13
v 0.03493392 0.5338705 0.13
v -0.0347271 0.5140515 0.13
v -0.0347271 0.5338705 0.13
v 0.13 0.743184 -0.13
v 0.13 0.743184 0.13
v 0.104 0.7931839 -0.08000004
v 0.104 0.7931839 0.13
v -0.1040001 0.7931839 -0.08000004
v -0.1040001 0.7931839 0.13
v -0.1300001 0.743184 0.13
v -0.1300001 0.743184 -0.13

vn 0 -0.26 0
vn 0.26 0 0
vn 0 0 -0.26
vn 0.04791502 -0.2555468 0
vn 0.04791502 0.2555468 0
vn 0 0 0.26
vn -0.04791502 0.2555468 0
vn -0.26 0 0
vn -0.04791502 -0.2555468 0
vn 0 0.26 0
vn 0.2306764 0.1199517 0
vn -0.2306764 0.1199517 0
vn 0 0.1838478 -0.1838478

vt 19.68504 19.68504
vt 19.68504 9.84252
vt -19.68504 19.68504
vt 19.68504 -19.68504
vt -19.68504 -19.68504
vt -19.68504 9.84252
vt -3.028468 15.89946
vt -3.028468 9.085402
vt -9.84252 15.89946
vt -9.84252 -5.972706E-09
vt 3.028468 9.085402
vt 19.68504 -5.972706E-09
vt 3.028468 12.87099
vt 19.68504 12.87099
vt -9.84252 4.174901
vt -19.68504 29.52756
vt -9.84252 29.52756
vt -19.68504 4.174901
vt 19.68504 0
vt -19.68504 0
vt -19.68504 12.87099
vt 3.028468 21.00999
vt 3.028468 10.78892
vt -3.028468 21.00999
vt -3.028468 10.78892
vt -19.68504 9.085402
vt -28.77044 10.78892
vt -28.77044 21.00999
vt -19.68504 22.71351
vt -3.028468 30.26594
vt 3.028468 30.26594
vt -3.028468 21.02221
vt 3.028468 21.02221
vt 3.028468 -24.40577
vt -3.028468 -24.40577
vt 3.028468 -15.16204
vt -3.028468 -15.16204
vt 19.68504 9.085402
vt 19.68504 15.89946
vt 28.77044 10.78892
vt 28.77044 21.00999
vt 19.68504 22.71351
vt -3.028468 -24.40577
vt 3.028468 -24.40577
vt -19.68504 15.89946
vt 19.68504 4.174901
vt 12.4796 4.174901
vt 19.68504 29.52756
vt 14.0041 12.51651
vt 9.440861 9.864037
vt -9.440861 9.864037
vt 14.0041 21.62245
vt 4.89816 21.62245
vt -4.89816 21.62245
vt -14.0041 21.62245
vt 4.89816 12.51651
vt -14.0041 12.51651
vt -12.4796 4.174901
vt -4.89816 12.51651
vt -19.68504 5.923747E-09
vt 9.84252 -4.144031E-10
vt 3.028468 15.89946
vt 9.84252 15.89946
vt 9.84252 4.174901
vt 9.84252 29.52756
vt -3.028468 12.87099
vt 5.289815 3.999375
vt -5.258488 3.999375
vt 5.289815 7.675114
vt -5.258488 4.674063
vt -5.258488 7.675114
vt 19.68504 -4.144031E-10
vt 19.68504 39.37008
vt -19.68504 39.37008
vt 3.028468 22.71351
vt -3.028468 22.71351
vt -15.74803 -12.11387
vt -15.74803 19.68504
vt 15.74803 -12.11387
vt 15.74803 19.68504
vt 15.74803 46.94125
vt -15.74803 46.94125
vt 19.68504 25.84805
vt -19.68504 25.84805
vt 12.11387 34.38167
vt -19.68504 34.38167
vt -12.11387 34.38167
vt 19.68504 34.38167
vt -19.68504 13.91943
vt -15.74803 24.62667
vt 19.68504 13.91943
vt 15.74803 24.62667

usemtl rockTrack

f 68/161/24 71/160/24 67/159/24
f 71/160/24 68/161/24 72/162/24
f 72/162/24 68/161/24 73/163/24
f 73/163/24 68/161/24 74/164/24
f 77/167/25 76/166/25 75/165/25
f 71/168/25 76/166/25 77/167/25
f 71/168/25 78/169/25 76/166/25
f 72/170/25 78/169/25 71/168/25
f 72/170/25 79/171/25 78/169/25
f 79/171/25 72/170/25 80/172/25
f 71/168/25 77/167/25 81/173/25
f 77/167/25 82/174/25 81/173/25
f 82/174/25 77/167/25 83/175/25
f 81/173/25 82/174/25 84/176/25
f 85/172/26 72/178/26 73/177/26
f 72/178/26 85/172/26 80/179/26
f 88/182/25 87/181/25 86/180/25
f 87/181/25 88/182/25 89/183/25
f 79/179/26 87/185/26 78/184/26
f 87/185/26 79/179/26 86/186/26
f 86/186/26 79/179/26 90/187/26
f 76/190/27 87/189/27 89/188/27
f 87/189/27 76/190/27 78/191/27
f 90/194/28 88/193/28 86/192/28
f 88/193/28 90/194/28 91/195/28
f 89/198/29 75/197/29 76/196/29
f 75/197/29 89/198/29 88/199/29
f 75/197/29 88/199/29 91/200/29
f 94/201/30 93/194/30 92/195/30
f 93/194/30 94/201/30 95/202/30
f 98/203/29 97/185/29 96/184/29
f 97/185/29 98/203/29 95/186/29
f 95/186/29 98/203/29 93/187/29
f 101/198/26 100/172/26 99/196/26
f 100/172/26 101/198/26 94/199/26
f 100/172/26 94/199/26 92/200/26
f 97/181/31 94/182/31 101/183/31
f 94/182/31 97/181/31 95/180/31
f 97/189/32 99/190/32 96/191/32
f 99/190/32 97/189/32 101/188/32
f 82/206/29 102/205/29 84/204/29
f 102/205/29 82/206/29 103/207/29
f 102/205/29 103/207/29 104/208/29
f 104/208/29 103/207/29 105/209/29
f 103/207/29 82/206/29 106/210/29
f 106/210/29 82/206/29 107/211/29
f 107/211/29 82/206/29 108/212/29
f 108/212/29 82/206/29 109/213/29
f 110/214/29 105/209/29 103/207/29
f 111/215/29 105/209/29 110/214/29
f 112/176/29 105/209/29 111/215/29
f 105/209/29 112/176/29 113/216/29
f 112/176/29 111/215/29 114/174/29
f 114/174/29 111/215/29 109/213/29
f 114/174/29 109/213/29 82/206/29
f 111/215/29 110/214/29 115/217/29
f 107/211/29 115/217/29 110/214/29
f 115/217/29 107/211/29 108/212/29
f 74/219/31 85/179/31 73/218/31
f 85/179/31 74/219/31 99/166/31
f 99/166/31 74/219/31 96/169/31
f 96/169/31 74/219/31 98/220/31
f 98/220/31 74/219/31 116/221/31
f 116/221/31 74/219/31 117/222/31
f 116/221/31 117/222/31 112/204/31
f 116/221/31 112/204/31 118/223/31
f 118/223/31 112/204/31 114/206/31
f 100/224/31 85/179/31 99/166/31
f 121/227/29 120/226/29 119/225/29
f 120/226/29 121/227/29 122/228/29
f 122/228/29 121/227/29 123/229/29

usemtl dark

f 68/230/31 117/222/31 74/219/31
f 117/222/31 68/230/31 112/204/31
f 125/232/25 80/172/25 124/231/25
f 80/172/25 125/232/25 90/233/25
f 90/233/25 125/232/25 91/234/25
f 91/234/25 125/232/25 83/175/25
f 91/234/25 83/175/25 75/165/25
f 83/175/25 125/232/25 82/174/25
f 77/167/25 75/165/25 83/175/25
f 79/171/25 80/172/25 90/233/25
f 128/237/33 127/236/33 126/235/33
f 127/236/33 128/237/33 129/238/33
f 116/221/31 93/233/31 98/220/31
f 118/223/31 93/233/31 116/221/31
f 130/231/31 93/233/31 118/223/31
f 130/231/31 92/234/31 93/233/31
f 131/232/31 92/234/31 130/231/31
f 131/232/31 100/224/31 92/234/31
f 100/224/31 131/232/31 85/179/31
f 130/231/31 118/223/31 114/206/31
f 125/231/29 114/174/29 82/206/29
f 114/174/29 125/231/29 130/232/29
f 130/232/29 125/231/29 127/239/29
f 130/232/29 127/239/29 129/240/29
f 126/243/34 125/242/34 124/241/34
f 125/242/34 126/243/34 127/244/34
f 130/241/35 128/245/35 131/242/35
f 128/245/35 130/241/35 129/246/35
f 131/249/36 126/248/36 124/247/36
f 126/248/36 131/249/36 128/250/36
f 131/231/26 80/179/26 85/172/26
f 80/179/26 131/231/26 124/232/26
f 108/212/29 111/215/29 115/217/29
f 111/215/29 108/212/29 109/213/29
f 106/210/29 110/214/29 103/207/29
f 110/214/29 106/210/29 107/211/29
f 84/204/29 68/178/29 67/177/29
f 68/178/29 84/204/29 119/225/29
f 119/225/29 84/204/29 102/205/29
f 119/225/29 102/205/29 121/227/29
f 121/227/29 102/205/29 104/208/29
f 121/227/29 104/208/29 123/229/29
f 105/209/29 123/229/29 104/208/29
f 105/209/29 122/228/29 123/229/29
f 113/216/29 122/228/29 105/209/29
f 122/228/29 113/216/29 120/226/29
f 120/226/29 68/178/29 119/225/29
f 68/178/29 120/226/29 112/176/29
f 112/176/29 120/226/29 113/216/29
f 84/176/25 71/168/25 81/173/25
f 71/168/25 84/176/25 67/178/25

g legLeft

v 0.13 0.223184 -0.05579603
v 0.13 0.1288339 -0.05425096
v 0.13 0.223184 0.05579603
v 0.13 0.1288339 0.06579602
v 0.01840794 0.1288339 0.06579602
v 0.01840794 0.223184 0.05579603
v 0.01840794 0.223184 -0.05579603
v 0.01840794 0.1288339 -0.05425096
v 0.13 0 0.1
v 0.01840794 0 0.1
v 0.13 0.06896766 0.1
v 0.01840794 0.06896766 0.1
v 0.01840794 0.03448384 -0.07270586
v 0.13 0.03448384 -0.07270586
v 0.01840794 0 -0.07579601
v 0.13 0 -0.07579601
v 0.01840794 0.06896766 0.05579603
v 0.13 0.06896766 0.05579603

vn 0 0.1053979 0.9944301
vn 0 -0.01637389 -0.9998659
vn 0 0.1919627 -0.9814022
vn 0 0.08925451 -0.9960089
vn 0 -0.1647563 0.9863344

vt 2.196693 0
vt 2.135863 -3.71457
vt -2.196693 0
vt -2.590394 -3.71457
vt -1.075695E-15 -3.966903
vt -4.393386 -3.966903
vt -9.122059E-16 -0.2315268
vt -4.393386 -0.2315268
vt 0 -2.196693
vt 4.393386 2.196693
vt 4.393386 -3.6791
vt 1.117339E-29 -3.6791
vt 4.393386 0.0359684
vt 1.149161E-29 0.0359684
vt -2.135863 -3.71457
vt 2.590394 -3.71457
vt 1.492342E-16 -8.786772
vt -4.393386 -8.786772
vt 1.492342E-16 -6.07151
vt -4.393386 -6.07151
vt 4.393386 -7.840456
vt 0 -7.840456
vt 4.393386 -4.055493
vt 0 -4.055493
vt 4.393386 -9.018046
vt -4.614369E-17 -9.018046
vt 4.393386 -7.654975
vt -4.426243E-17 -7.654975
vt -2.984094 -8.786772
vt -2.862434 -7.429141
vt 3.937008 -8.786772
vt 2.196693 -6.07151
vt 3.937008 -6.07151
vt -8.506924E-16 -5.626619
vt -4.393386 -5.626619
vt -1.003157E-15 -3.237025
vt -4.393386 -3.237025
vt -2.82305E-32 2.196693
vt -2.82305E-32 3.937008
vt 4.393386 3.937008
vt -2.196693 -6.07151
vt -3.937008 -8.786772
vt 2.862434 -7.429141
vt 2.984094 -8.786772
vt -3.937008 -6.07151
vt 0 3.937008
vt 0 -2.984094
vt -4.393386 3.937008
vt -4.393386 -2.984094

usemtl metalDark

f 134/253/11 133/252/11 132/251/11
f 133/252/11 134/253/11 135/254/11
f 134/257/37 136/256/37 135/255/37
f 136/256/37 134/257/37 137/258/37
f 138/83/20 134/92/20 132/259/20
f 134/92/20 138/83/20 137/260/20
f 138/263/38 133/262/38 139/261/38
f 133/262/38 138/263/38 132/264/38
f 139/265/16 137/251/16 138/253/16
f 137/251/16 139/265/16 136/266/16

usemtl dark

f 142/269/17 141/268/17 140/267/17
f 141/268/17 142/269/17 143/270/17
f 139/273/39 145/272/39 144/271/39
f 145/272/39 139/273/39 133/274/39
f 144/277/40 147/276/40 146/275/40
f 147/276/40 144/277/40 145/278/40
f 141/281/16 144/280/16 146/279/16
f 144/280/16 141/281/16 139/265/16
f 139/265/16 141/281/16 148/282/16
f 148/282/16 141/281/16 143/283/16
f 136/266/16 139/265/16 148/282/16
f 135/286/41 148/285/41 149/284/41
f 148/285/41 135/286/41 136/287/41
f 148/260/20 142/289/20 149/288/20
f 142/289/20 148/260/20 143/290/20
f 135/254/11 149/291/11 133/252/11
f 140/292/11 133/252/11 149/291/11
f 140/292/11 145/293/11 133/252/11
f 145/293/11 140/292/11 147/294/11
f 140/292/11 149/291/11 142/295/11

usemtl metal

f 141/298/21 147/297/21 140/296/21
f 147/297/21 141/298/21 146/299/21

g legRight

v -0.01840806 0.06896766 0.05579603
v -0.1300001 0.06896766 0.05579603
v -0.01840806 0.1288339 0.06579602
v -0.1300001 0.1288339 0.06579602
v -0.01840806 1.490116E-08 0.1
v -0.1300001 1.490116E-08 0.1
v -0.01840806 0.06896766 0.1
v -0.1300001 0.06896766 0.1
v -0.1300001 1.490116E-08 -0.07579601
v -0.01840806 1.490116E-08 -0.07579601
v -0.1300001 0.03448384 -0.07270586
v -0.01840806 0.03448384 -0.07270586
v -0.1300001 0.1288339 -0.05425096
v -0.01840806 0.1288339 -0.05425096
v -0.01840806 0.223184 -0.05579603
v -0.01840806 0.223184 0.05579603
v -0.1300001 0.223184 -0.05579603
v -0.1300001 0.223184 0.05579603

vn 0 -0.1414268 0.8466694
vn 0 0.07661607 -0.854974
vn 0 0.1647808 -0.8424357
vn 0 -0.01405535 -0.8582849
vn 0 0.09047356 0.8536188
vn 0 -0.8584 0

vt 5.11811 -6.554776
vt -1.146779E-13 -6.554776
vt 5.11811 -3.770998
vt -1.148555E-13 -3.770998
vt 5.11811 -10.23622
vt -1.13513E-13 -10.23622
vt 5.11811 -7.073054
vt -1.13513E-13 -7.073054
vt 1.136331E-13 -10.50565
vt -5.11811 -10.50565
vt 1.136353E-13 -8.917725
vt -5.11811 -8.917725
vt 1.136868E-13 -9.133802
vt -5.11811 -9.133802
vt 1.136868E-13 -4.72448
vt -5.11811 -4.72448
vt -3.476345 -10.23622
vt -3.334616 -8.654637
vt 4.586449 -10.23622
vt -2.488191 -4.327319
vt 2.559055 -7.073054
vt 4.586449 -7.073054
vt 3.0177 -4.327319
vt 2.488191 -4.327319
vt -2.559055 -7.073054
vt -3.0177 -4.327319
vt -4.586449 -10.23622
vt 3.334616 -8.654637
vt 3.476345 -10.23622
vt -4.586449 -7.073054
vt -5.11811 2.559055
vt -5.11811 4.586449
vt 1.136868E-13 2.559055
vt 1.136868E-13 4.586449
vt 1.136868E-13 -2.559055
vt 1.136868E-13 -4.285997
vt -5.11811 -4.285997
vt 1.136868E-13 0.04190169
vt -5.11811 0.04190169
vt 5.11811 -4.621275
vt -1.1494E-13 -4.621275
vt 5.11811 -0.269719
vt -1.147495E-13 -0.269719
vt -2.559055 5.329071E-15
vt 2.559055 5.329071E-15
vt 5.11811 4.586449
vt 5.11811 -3.476345
vt -1.136868E-13 4.586449
vt -1.136868E-13 -3.476345

usemtl dark

f 152/302/42 151/301/42 150/300/42
f 151/301/42 152/302/42 153/303/42
f 156/306/9 155/305/9 154/304/9
f 155/305/9 156/306/9 157/307/9
f 160/310/43 159/309/43 158/308/43
f 159/309/43 160/310/43 161/311/43
f 162/314/44 161/313/44 160/312/44
f 161/313/44 162/314/44 163/315/44
f 155/318/1 160/317/1 158/316/1
f 160/317/1 155/318/1 162/319/1
f 162/319/1 155/318/1 151/320/1
f 151/320/1 155/318/1 157/321/1
f 153/322/1 162/319/1 151/320/1
f 152/325/6 150/324/6 163/323/6
f 154/326/6 163/323/6 150/324/6
f 154/326/6 161/327/6 163/323/6
f 161/327/6 154/326/6 159/328/6
f 154/326/6 150/324/6 156/329/6
f 151/332/7 156/331/7 150/330/7
f 156/331/7 151/332/7 157/333/7

usemtl metalDark

f 166/334/7 165/330/7 164/44/7
f 165/330/7 166/334/7 167/332/7
f 166/337/45 163/336/45 162/335/45
f 163/336/45 166/337/45 164/338/45
f 165/341/46 153/340/46 152/339/46
f 153/340/46 165/341/46 167/342/46
f 162/319/1 167/344/1 166/343/1
f 167/344/1 162/319/1 153/322/1
f 165/343/6 163/323/6 164/344/6
f 163/323/6 165/343/6 152/325/6

usemtl metal

f 155/347/47 159/346/47 154/345/47
f 159/346/47 155/347/47 158/348/47

